%TF.GenerationSoftware,KiCad,Pcbnew,8.0.7-8.0.7-0~ubuntu22.04.1*%
%TF.CreationDate,2024-12-10T17:00:38-05:00*%
%TF.ProjectId,breakout-tt07-qfn,62726561-6b6f-4757-942d-747430372d71,1.1*%
%TF.SameCoordinates,PX2b64660PY42c1d80*%
%TF.FileFunction,Other,User*%
%FSLAX46Y46*%
G04 Gerber Fmt 4.6, Leading zero omitted, Abs format (unit mm)*
G04 Created by KiCad (PCBNEW 8.0.7-8.0.7-0~ubuntu22.04.1) date 2024-12-10 17:00:38*
%MOMM*%
%LPD*%
G01*
G04 APERTURE LIST*
%ADD10C,0.050000*%
G04 APERTURE END LIST*
D10*
%TO.C,C5*%
X73840000Y-47790000D02*
X74760000Y-47790000D01*
X73840000Y-49610000D02*
X73840000Y-47790000D01*
X74760000Y-47790000D02*
X74760000Y-49610000D01*
X74760000Y-49610000D02*
X73840000Y-49610000D01*
%TO.C,C4*%
X65290000Y-47590000D02*
X66210000Y-47590000D01*
X65290000Y-49410000D02*
X65290000Y-47590000D01*
X66210000Y-47590000D02*
X66210000Y-49410000D01*
X66210000Y-49410000D02*
X65290000Y-49410000D01*
%TO.C,C8*%
X74940000Y-47790000D02*
X75860000Y-47790000D01*
X74940000Y-49610000D02*
X74940000Y-47790000D01*
X75860000Y-47790000D02*
X75860000Y-49610000D01*
X75860000Y-49610000D02*
X74940000Y-49610000D01*
%TO.C,C6*%
X73540000Y-34590000D02*
X74460000Y-34590000D01*
X73540000Y-36410000D02*
X73540000Y-34590000D01*
X74460000Y-34590000D02*
X74460000Y-36410000D01*
X74460000Y-36410000D02*
X73540000Y-36410000D01*
%TO.C,C10*%
X67040000Y-34090000D02*
X67960000Y-34090000D01*
X67040000Y-35910000D02*
X67040000Y-34090000D01*
X67960000Y-34090000D02*
X67960000Y-35910000D01*
X67960000Y-35910000D02*
X67040000Y-35910000D01*
%TO.C,C13*%
X76340000Y-41440000D02*
X78160000Y-41440000D01*
X76340000Y-42360000D02*
X76340000Y-41440000D01*
X78160000Y-41440000D02*
X78160000Y-42360000D01*
X78160000Y-42360000D02*
X76340000Y-42360000D01*
%TO.C,TP3*%
X58550000Y-23050000D02*
X61450000Y-23050000D01*
X58550000Y-27750000D02*
X58550000Y-23050000D01*
X61450000Y-23050000D02*
X61450000Y-27750000D01*
X61450000Y-27750000D02*
X58550000Y-27750000D01*
%TO.C,TP2*%
X64050000Y-28400000D02*
X66950000Y-28400000D01*
X64050000Y-33100000D02*
X64050000Y-28400000D01*
X66950000Y-28400000D02*
X66950000Y-33100000D01*
X66950000Y-33100000D02*
X64050000Y-33100000D01*
%TO.C,J3*%
X53337500Y-42050000D02*
X53337500Y-46550000D01*
X53337500Y-46550000D02*
X57187500Y-46550000D01*
X57187500Y-42050000D02*
X53337500Y-42050000D01*
X57187500Y-46550000D02*
X57187500Y-42050000D01*
%TO.C,C19*%
X76670000Y-49720000D02*
X78130000Y-49720000D01*
X76670000Y-52680000D02*
X76670000Y-49720000D01*
X78130000Y-49720000D02*
X78130000Y-52680000D01*
X78130000Y-52680000D02*
X76670000Y-52680000D01*
%TO.C,C7*%
X74540000Y-34590000D02*
X75460000Y-34590000D01*
X74540000Y-36410000D02*
X74540000Y-34590000D01*
X75460000Y-34590000D02*
X75460000Y-36410000D01*
X75460000Y-36410000D02*
X74540000Y-36410000D01*
%TO.C,TP8*%
X70100000Y-59200000D02*
G75*
G02*
X68100000Y-59200000I-1000000J0D01*
G01*
X68100000Y-59200000D02*
G75*
G02*
X70100000Y-59200000I1000000J0D01*
G01*
%TO.C,J12*%
X83425000Y-24950000D02*
X83425000Y-29450000D01*
X83425000Y-29450000D02*
X87275000Y-29450000D01*
X87275000Y-24950000D02*
X83425000Y-24950000D01*
X87275000Y-29450000D02*
X87275000Y-24950000D01*
%TO.C,R1*%
X49570000Y-23330000D02*
X51430000Y-23330000D01*
X49570000Y-24270000D02*
X49570000Y-23330000D01*
X51430000Y-23330000D02*
X51430000Y-24270000D01*
X51430000Y-24270000D02*
X49570000Y-24270000D01*
%TO.C,FID2*%
X86250000Y-19250000D02*
G75*
G02*
X83750000Y-19250000I-1250000J0D01*
G01*
X83750000Y-19250000D02*
G75*
G02*
X86250000Y-19250000I1250000J0D01*
G01*
%TO.C,JP8*%
X83375000Y-36550000D02*
X83375000Y-39050000D01*
X83375000Y-36550000D02*
X86675000Y-36550000D01*
X86675000Y-39050000D02*
X83375000Y-39050000D01*
X86675000Y-39050000D02*
X86675000Y-36550000D01*
%TO.C,J13*%
X79425000Y-21750000D02*
X79425000Y-26250000D01*
X79425000Y-26250000D02*
X83275000Y-26250000D01*
X83275000Y-21750000D02*
X79425000Y-21750000D01*
X83275000Y-26250000D02*
X83275000Y-21750000D01*
%TO.C,C14*%
X49970000Y-62870000D02*
X51430000Y-62870000D01*
X49970000Y-65830000D02*
X49970000Y-62870000D01*
X51430000Y-62870000D02*
X51430000Y-65830000D01*
X51430000Y-65830000D02*
X49970000Y-65830000D01*
%TO.C,C2*%
X67020000Y-30270000D02*
X68480000Y-30270000D01*
X67020000Y-33230000D02*
X67020000Y-30270000D01*
X68480000Y-30270000D02*
X68480000Y-33230000D01*
X68480000Y-33230000D02*
X67020000Y-33230000D01*
%TO.C,U1*%
X65270000Y-37070000D02*
X65270000Y-47330000D01*
X65270000Y-47330000D02*
X75530000Y-47330000D01*
X75530000Y-37070000D02*
X65270000Y-37070000D01*
X75530000Y-47330000D02*
X75530000Y-37070000D01*
%TO.C,J4*%
X57287500Y-45550000D02*
X57287500Y-50050000D01*
X57287500Y-50050000D02*
X61137500Y-50050000D01*
X61137500Y-45550000D02*
X57287500Y-45550000D01*
X61137500Y-50050000D02*
X61137500Y-45550000D01*
%TO.C,J8*%
X83425000Y-39050000D02*
X83425000Y-43550000D01*
X83425000Y-43550000D02*
X87275000Y-43550000D01*
X87275000Y-39050000D02*
X83425000Y-39050000D01*
X87275000Y-43550000D02*
X87275000Y-39050000D01*
%TO.C,JP11*%
X87275000Y-25825000D02*
X87275000Y-28325000D01*
X87275000Y-25825000D02*
X90575000Y-25825000D01*
X90575000Y-28325000D02*
X87275000Y-28325000D01*
X90575000Y-28325000D02*
X90575000Y-25825000D01*
%TO.C,TP7*%
X68300000Y-56400000D02*
G75*
G02*
X66300000Y-56400000I-1000000J0D01*
G01*
X66300000Y-56400000D02*
G75*
G02*
X68300000Y-56400000I1000000J0D01*
G01*
%TO.C,JP4*%
X49987500Y-50150000D02*
X49987500Y-52650000D01*
X49987500Y-50150000D02*
X53287500Y-50150000D01*
X53287500Y-52650000D02*
X49987500Y-52650000D01*
X53287500Y-52650000D02*
X53287500Y-50150000D01*
%TO.C,U2*%
X74050000Y-29450000D02*
X76650000Y-29450000D01*
X74050000Y-33650000D02*
X74050000Y-29450000D01*
X74050000Y-33650000D02*
X76650000Y-33650000D01*
X76650000Y-33650000D02*
X76650000Y-29450000D01*
%TO.C,FID1*%
X64750000Y-68500000D02*
G75*
G02*
X62250000Y-68500000I-1250000J0D01*
G01*
X62250000Y-68500000D02*
G75*
G02*
X64750000Y-68500000I1250000J0D01*
G01*
%TO.C,R3*%
X61980000Y-23120000D02*
X64220000Y-23120000D01*
X61980000Y-27680000D02*
X61980000Y-23120000D01*
X64220000Y-23120000D02*
X64220000Y-27680000D01*
X64220000Y-27680000D02*
X61980000Y-27680000D01*
%TO.C,C11*%
X63240000Y-40340000D02*
X64160000Y-40340000D01*
X63240000Y-42160000D02*
X63240000Y-40340000D01*
X64160000Y-40340000D02*
X64160000Y-42160000D01*
X64160000Y-42160000D02*
X63240000Y-42160000D01*
%TO.C,JP9*%
X87475000Y-32825000D02*
X87475000Y-35325000D01*
X87475000Y-32825000D02*
X90775000Y-32825000D01*
X90775000Y-35325000D02*
X87475000Y-35325000D01*
X90775000Y-35325000D02*
X90775000Y-32825000D01*
%TO.C,JP10*%
X83375000Y-29450000D02*
X83375000Y-31950000D01*
X83375000Y-29450000D02*
X86675000Y-29450000D01*
X86675000Y-31950000D02*
X83375000Y-31950000D01*
X86675000Y-31950000D02*
X86675000Y-29450000D01*
%TO.C,C17*%
X49470000Y-52920000D02*
X50930000Y-52920000D01*
X49470000Y-55880000D02*
X49470000Y-52920000D01*
X50930000Y-52920000D02*
X50930000Y-55880000D01*
X50930000Y-55880000D02*
X49470000Y-55880000D01*
%TO.C,C12*%
X64140000Y-45490000D02*
X65060000Y-45490000D01*
X64140000Y-47310000D02*
X64140000Y-45490000D01*
X65060000Y-45490000D02*
X65060000Y-47310000D01*
X65060000Y-47310000D02*
X64140000Y-47310000D01*
%TO.C,C3*%
X67570000Y-24820000D02*
X69030000Y-24820000D01*
X67570000Y-27780000D02*
X67570000Y-24820000D01*
X69030000Y-24820000D02*
X69030000Y-27780000D01*
X69030000Y-27780000D02*
X67570000Y-27780000D01*
%TO.C,C16*%
X90120000Y-54170000D02*
X91580000Y-54170000D01*
X90120000Y-57130000D02*
X90120000Y-54170000D01*
X91580000Y-54170000D02*
X91580000Y-57130000D01*
X91580000Y-57130000D02*
X90120000Y-57130000D01*
%TO.C,JP5*%
X53987500Y-53550000D02*
X53987500Y-56050000D01*
X53987500Y-53550000D02*
X57287500Y-53550000D01*
X57287500Y-56050000D02*
X53987500Y-56050000D01*
X57287500Y-56050000D02*
X57287500Y-53550000D01*
%TO.C,J9*%
X79425000Y-35150000D02*
X79425000Y-39650000D01*
X79425000Y-39650000D02*
X83275000Y-39650000D01*
X83275000Y-35150000D02*
X79425000Y-35150000D01*
X83275000Y-39650000D02*
X83275000Y-35150000D01*
%TO.C,TP6*%
X67500000Y-50500000D02*
G75*
G02*
X65500000Y-50500000I-1000000J0D01*
G01*
X65500000Y-50500000D02*
G75*
G02*
X67500000Y-50500000I1000000J0D01*
G01*
%TO.C,TP4*%
X57950000Y-28400000D02*
X60850000Y-28400000D01*
X57950000Y-33100000D02*
X57950000Y-28400000D01*
X60850000Y-28400000D02*
X60850000Y-33100000D01*
X60850000Y-33100000D02*
X57950000Y-33100000D01*
%TO.C,R4*%
X61380000Y-28470000D02*
X63620000Y-28470000D01*
X61380000Y-33030000D02*
X61380000Y-28470000D01*
X63620000Y-28470000D02*
X63620000Y-33030000D01*
X63620000Y-33030000D02*
X61380000Y-33030000D01*
%TO.C,TP5*%
X66500000Y-34750000D02*
G75*
G02*
X64500000Y-34750000I-1000000J0D01*
G01*
X64500000Y-34750000D02*
G75*
G02*
X66500000Y-34750000I1000000J0D01*
G01*
%TO.C,FID3*%
X85750000Y-68500000D02*
G75*
G02*
X83250000Y-68500000I-1250000J0D01*
G01*
X83250000Y-68500000D02*
G75*
G02*
X85750000Y-68500000I1250000J0D01*
G01*
%TO.C,J1*%
X55350000Y-18000000D02*
X55350000Y-21600000D01*
X55350000Y-21600000D02*
X66550000Y-21600000D01*
X66550000Y-18000000D02*
X55350000Y-18000000D01*
X66550000Y-21600000D02*
X66550000Y-18000000D01*
%TO.C,JP1*%
X53987500Y-39550000D02*
X53987500Y-42050000D01*
X53987500Y-39550000D02*
X57287500Y-39550000D01*
X57287500Y-42050000D02*
X53987500Y-42050000D01*
X57287500Y-42050000D02*
X57287500Y-39550000D01*
%TO.C,C1*%
X88770000Y-22320000D02*
X90230000Y-22320000D01*
X88770000Y-25280000D02*
X88770000Y-22320000D01*
X90230000Y-22320000D02*
X90230000Y-25280000D01*
X90230000Y-25280000D02*
X88770000Y-25280000D01*
%TO.C,JP2*%
X50037500Y-43150000D02*
X50037500Y-45650000D01*
X50037500Y-43150000D02*
X53337500Y-43150000D01*
X53337500Y-45650000D02*
X50037500Y-45650000D01*
X53337500Y-45650000D02*
X53337500Y-43150000D01*
%TO.C,JP6*%
X50037500Y-56950000D02*
X50037500Y-59450000D01*
X50037500Y-56950000D02*
X53337500Y-56950000D01*
X53337500Y-59450000D02*
X50037500Y-59450000D01*
X53337500Y-59450000D02*
X53337500Y-56950000D01*
%TO.C,JP12*%
X83375000Y-22450000D02*
X83375000Y-24950000D01*
X83375000Y-22450000D02*
X86675000Y-22450000D01*
X86675000Y-24950000D02*
X83375000Y-24950000D01*
X86675000Y-24950000D02*
X86675000Y-22450000D01*
%TO.C,J7*%
X53337500Y-56050000D02*
X53337500Y-60550000D01*
X53337500Y-60550000D02*
X57187500Y-60550000D01*
X57187500Y-56050000D02*
X53337500Y-56050000D01*
X57187500Y-60550000D02*
X57187500Y-56050000D01*
%TO.C,R2*%
X49670000Y-19130000D02*
X51530000Y-19130000D01*
X49670000Y-20070000D02*
X49670000Y-19130000D01*
X51530000Y-19130000D02*
X51530000Y-20070000D01*
X51530000Y-20070000D02*
X49670000Y-20070000D01*
%TO.C,R7*%
X72530000Y-22570000D02*
X73470000Y-22570000D01*
X72530000Y-24430000D02*
X72530000Y-22570000D01*
X73470000Y-22570000D02*
X73470000Y-24430000D01*
X73470000Y-24430000D02*
X72530000Y-24430000D01*
%TO.C,R6*%
X70680000Y-22560000D02*
X71620000Y-22560000D01*
X70680000Y-24420000D02*
X70680000Y-22560000D01*
X71620000Y-22560000D02*
X71620000Y-24420000D01*
X71620000Y-24420000D02*
X70680000Y-24420000D01*
%TO.C,JP7*%
X87275000Y-39725000D02*
X87275000Y-42225000D01*
X87275000Y-39725000D02*
X90575000Y-39725000D01*
X90575000Y-42225000D02*
X87275000Y-42225000D01*
X90575000Y-42225000D02*
X90575000Y-39725000D01*
%TO.C,J2*%
X57287500Y-38550000D02*
X57287500Y-43050000D01*
X57287500Y-43050000D02*
X61137500Y-43050000D01*
X61137500Y-38550000D02*
X57287500Y-38550000D01*
X61137500Y-43050000D02*
X61137500Y-38550000D01*
%TO.C,JP3*%
X53987500Y-46550000D02*
X53987500Y-49050000D01*
X53987500Y-46550000D02*
X57287500Y-46550000D01*
X57287500Y-49050000D02*
X53987500Y-49050000D01*
X57287500Y-49050000D02*
X57287500Y-46550000D01*
%TO.C,J6*%
X57287500Y-52550000D02*
X57287500Y-57050000D01*
X57287500Y-57050000D02*
X61137500Y-57050000D01*
X61137500Y-52550000D02*
X57287500Y-52550000D01*
X61137500Y-57050000D02*
X61137500Y-52550000D01*
%TO.C,TP9*%
X73950000Y-22150000D02*
X76850000Y-22150000D01*
X73950000Y-26850000D02*
X73950000Y-22150000D01*
X76850000Y-22150000D02*
X76850000Y-26850000D01*
X76850000Y-26850000D02*
X73950000Y-26850000D01*
%TO.C,J11*%
X79425000Y-28450000D02*
X79425000Y-32950000D01*
X79425000Y-32950000D02*
X83275000Y-32950000D01*
X83275000Y-28450000D02*
X79425000Y-28450000D01*
X83275000Y-32950000D02*
X83275000Y-28450000D01*
%TO.C,C15*%
X49870000Y-27095000D02*
X51330000Y-27095000D01*
X49870000Y-30055000D02*
X49870000Y-27095000D01*
X51330000Y-27095000D02*
X51330000Y-30055000D01*
X51330000Y-30055000D02*
X49870000Y-30055000D01*
%TO.C,C9*%
X73990000Y-28340000D02*
X75810000Y-28340000D01*
X73990000Y-29260000D02*
X73990000Y-28340000D01*
X75810000Y-28340000D02*
X75810000Y-29260000D01*
X75810000Y-29260000D02*
X73990000Y-29260000D01*
%TO.C,TP1*%
X64650000Y-23050000D02*
X67550000Y-23050000D01*
X64650000Y-27750000D02*
X64650000Y-23050000D01*
X67550000Y-23050000D02*
X67550000Y-27750000D01*
X67550000Y-27750000D02*
X64650000Y-27750000D01*
%TO.C,J10*%
X83425000Y-32000000D02*
X83425000Y-36500000D01*
X83425000Y-36500000D02*
X87275000Y-36500000D01*
X87275000Y-32000000D02*
X83425000Y-32000000D01*
X87275000Y-36500000D02*
X87275000Y-32000000D01*
%TO.C,J5*%
X53337500Y-49050000D02*
X53337500Y-53550000D01*
X53337500Y-53550000D02*
X57187500Y-53550000D01*
X57187500Y-49050000D02*
X53337500Y-49050000D01*
X57187500Y-53550000D02*
X57187500Y-49050000D01*
%TO.C,C18*%
X78220000Y-51370000D02*
X79680000Y-51370000D01*
X78220000Y-54330000D02*
X78220000Y-51370000D01*
X79680000Y-51370000D02*
X79680000Y-54330000D01*
X79680000Y-54330000D02*
X78220000Y-54330000D01*
%TD*%
M02*
