%TF.GenerationSoftware,KiCad,Pcbnew,8.0.7-8.0.7-0~ubuntu22.04.1*%
%TF.CreationDate,2024-12-10T17:00:38-05:00*%
%TF.ProjectId,breakout-tt07-qfn,62726561-6b6f-4757-942d-747430372d71,1.1*%
%TF.SameCoordinates,PX2b64660PY42c1d80*%
%TF.FileFunction,Copper,L2,Bot*%
%TF.FilePolarity,Positive*%
%FSLAX46Y46*%
G04 Gerber Fmt 4.6, Leading zero omitted, Abs format (unit mm)*
G04 Created by KiCad (PCBNEW 8.0.7-8.0.7-0~ubuntu22.04.1) date 2024-12-10 17:00:38*
%MOMM*%
%LPD*%
G01*
G04 APERTURE LIST*
%TA.AperFunction,ComponentPad*%
%ADD10C,0.820000*%
%TD*%
%TA.AperFunction,ComponentPad*%
%ADD11C,0.630000*%
%TD*%
%TA.AperFunction,ComponentPad*%
%ADD12R,1.700000X1.700000*%
%TD*%
%TA.AperFunction,ComponentPad*%
%ADD13O,1.700000X1.700000*%
%TD*%
%TA.AperFunction,WasherPad*%
%ADD14C,1.600000*%
%TD*%
%TA.AperFunction,SMDPad,CuDef*%
%ADD15R,3.000000X1.000000*%
%TD*%
%TA.AperFunction,SMDPad,CuDef*%
%ADD16R,2.800000X1.000000*%
%TD*%
%TA.AperFunction,ViaPad*%
%ADD17C,0.800000*%
%TD*%
%TA.AperFunction,ViaPad*%
%ADD18C,0.700000*%
%TD*%
%TA.AperFunction,Conductor*%
%ADD19C,0.300000*%
%TD*%
%TA.AperFunction,Conductor*%
%ADD20C,0.254000*%
%TD*%
%TA.AperFunction,Conductor*%
%ADD21C,0.200000*%
%TD*%
G04 APERTURE END LIST*
D10*
%TO.P,STITCHB1,1*%
%TO.N,GND*%
X74100000Y-65600000D03*
%TD*%
D11*
%TO.P,STITCHM1,1*%
%TO.N,GND*%
X62400000Y-41800000D03*
%TD*%
D10*
%TO.P,STITCHB1,1*%
%TO.N,GND*%
X61650000Y-23200000D03*
%TD*%
%TO.P,STITCHB1,1*%
%TO.N,GND*%
X46800000Y-64300000D03*
%TD*%
%TO.P,STITCHB1,1*%
%TO.N,GND*%
X74100000Y-69100000D03*
%TD*%
%TO.P,STITCHB1,1*%
%TO.N,GND*%
X91200000Y-47100000D03*
%TD*%
D11*
%TO.P,STITCHM1,1*%
%TO.N,GND*%
X62500000Y-43600000D03*
%TD*%
D10*
%TO.P,STITCHB1,1*%
%TO.N,GND*%
X90500000Y-61700000D03*
%TD*%
%TO.P,STITCHB1,1*%
%TO.N,GND*%
X90600000Y-36600000D03*
%TD*%
%TO.P,STITCHB1,1*%
%TO.N,GND*%
X75900000Y-46900000D03*
%TD*%
%TO.P,STITCHB1,1*%
%TO.N,GND*%
X82100000Y-19900000D03*
%TD*%
D11*
%TO.P,STITCHM1,1*%
%TO.N,GND*%
X72800000Y-59600000D03*
%TD*%
%TO.P,STITCHM1,1*%
%TO.N,GND*%
X72800000Y-57500000D03*
%TD*%
D10*
%TO.P,STITCHB1,1*%
%TO.N,GND*%
X85400000Y-66900000D03*
%TD*%
D11*
%TO.P,STITCHM1,1*%
%TO.N,GND*%
X85100000Y-60900000D03*
%TD*%
D10*
%TO.P,STITCHB1,1*%
%TO.N,GND*%
X56800000Y-65100000D03*
%TD*%
%TO.P,STITCHB1,1*%
%TO.N,GND*%
X57400000Y-31300000D03*
%TD*%
%TO.P,STITCHB1,1*%
%TO.N,GND*%
X75150000Y-20000000D03*
%TD*%
D11*
%TO.P,STITCHM1,1*%
%TO.N,GND*%
X69100000Y-43500000D03*
%TD*%
D10*
%TO.P,STITCHB1,1*%
%TO.N,GND*%
X79300000Y-20650000D03*
%TD*%
D11*
%TO.P,STITCHM1,1*%
%TO.N,GND*%
X78200000Y-65000000D03*
%TD*%
D10*
%TO.P,STITCHB1,1*%
%TO.N,GND*%
X48900000Y-61800000D03*
%TD*%
%TO.P,STITCHB1,1*%
%TO.N,GND*%
X93000000Y-21200000D03*
%TD*%
%TO.P,STITCHB1,1*%
%TO.N,GND*%
X52300000Y-31300000D03*
%TD*%
%TO.P,STITCHB1,1*%
%TO.N,GND*%
X50550000Y-38850000D03*
%TD*%
D11*
%TO.P,STITCHM1,1*%
%TO.N,GND*%
X61200000Y-50400000D03*
%TD*%
%TO.P,STITCHM1,1*%
%TO.N,GND*%
X72800000Y-51400000D03*
%TD*%
D10*
%TO.P,STITCHB1,1*%
%TO.N,GND*%
X50500000Y-46600000D03*
%TD*%
D11*
%TO.P,STITCHM1,1*%
%TO.N,GND*%
X69100000Y-40950000D03*
%TD*%
%TO.P,STITCHM1,1*%
%TO.N,GND*%
X64700000Y-56100000D03*
%TD*%
%TO.P,STITCHM1,1*%
%TO.N,GND*%
X68000000Y-54800000D03*
%TD*%
D10*
%TO.P,STITCHB1,1*%
%TO.N,GND*%
X90300000Y-59100000D03*
%TD*%
D11*
%TO.P,STITCHM1,1*%
%TO.N,GND*%
X75350000Y-31550000D03*
%TD*%
D10*
%TO.P,STITCHB1,1*%
%TO.N,GND*%
X50500000Y-36500000D03*
%TD*%
D11*
%TO.P,STITCHM1,1*%
%TO.N,GND*%
X55200000Y-21850000D03*
%TD*%
D10*
%TO.P,STITCHB1,1*%
%TO.N,GND*%
X57400000Y-26100000D03*
%TD*%
%TO.P,STITCHB1,1*%
%TO.N,GND*%
X90400000Y-50800000D03*
%TD*%
%TO.P,STITCHB1,1*%
%TO.N,GND*%
X81900000Y-52100000D03*
%TD*%
%TO.P,STITCHB1,1*%
%TO.N,GND*%
X93800000Y-66900000D03*
%TD*%
D11*
%TO.P,STITCHM1,1*%
%TO.N,GND*%
X72800000Y-55400000D03*
%TD*%
D10*
%TO.P,STITCHB1,1*%
%TO.N,GND*%
X50500000Y-41500000D03*
%TD*%
%TO.P,STITCHB1,1*%
%TO.N,GND*%
X85100000Y-63000000D03*
%TD*%
%TO.P,STITCHB1,1*%
%TO.N,GND*%
X74100000Y-63300000D03*
%TD*%
%TO.P,STITCHB1,1*%
%TO.N,GND*%
X85100000Y-55700000D03*
%TD*%
%TO.P,STITCHB1,1*%
%TO.N,GND*%
X91000000Y-40400000D03*
%TD*%
%TO.P,STITCHB1,1*%
%TO.N,GND*%
X49700000Y-33900000D03*
%TD*%
%TO.P,STITCHB1,1*%
%TO.N,GND*%
X89450000Y-54450000D03*
%TD*%
D11*
%TO.P,STITCHM1,1*%
%TO.N,GND*%
X76800000Y-39600000D03*
%TD*%
%TO.P,STITCHM1,1*%
%TO.N,GND*%
X51000000Y-68800000D03*
%TD*%
%TO.P,STITCHM1,1*%
%TO.N,GND*%
X60400000Y-62600000D03*
%TD*%
D10*
%TO.P,STITCHB1,1*%
%TO.N,GND*%
X68400000Y-19400000D03*
%TD*%
D11*
%TO.P,STITCHM1,1*%
%TO.N,GND*%
X72800000Y-53400000D03*
%TD*%
D10*
%TO.P,STITCHB1,1*%
%TO.N,GND*%
X85100000Y-51100000D03*
%TD*%
%TO.P,STITCHB1,1*%
%TO.N,GND*%
X46800000Y-28800000D03*
%TD*%
%TO.P,STITCHB1,1*%
%TO.N,GND*%
X90600000Y-30000000D03*
%TD*%
D11*
%TO.P,STITCHM1,1*%
%TO.N,GND*%
X65800000Y-57100000D03*
%TD*%
D10*
%TO.P,STITCHB1,1*%
%TO.N,GND*%
X46800000Y-23700000D03*
%TD*%
D11*
%TO.P,STITCHM1,1*%
%TO.N,GND*%
X48300000Y-69300000D03*
%TD*%
D12*
%TO.P,J1,1,Pin_1*%
%TO.N,GND*%
X64750000Y-19800000D03*
D13*
%TO.P,J1,2,Pin_2*%
%TO.N,/c_sel_inc*%
X62210000Y-19800000D03*
%TO.P,J1,3,Pin_3*%
%TO.N,/hd_c_rst_n*%
X59670000Y-19800000D03*
%TO.P,J1,4,Pin_4*%
%TO.N,/c_ena*%
X57130000Y-19800000D03*
%TD*%
D10*
%TO.P,STITCHB1,1*%
%TO.N,GND*%
X61000000Y-69100000D03*
%TD*%
D11*
%TO.P,STITCHM1,1*%
%TO.N,GND*%
X81500000Y-41900000D03*
%TD*%
D10*
%TO.P,STITCHB1,1*%
%TO.N,GND*%
X46800000Y-33800000D03*
%TD*%
%TO.P,STITCHB1,1*%
%TO.N,GND*%
X48550000Y-54200000D03*
%TD*%
%TO.P,STITCHB1,1*%
%TO.N,GND*%
X78000000Y-52900000D03*
%TD*%
D11*
%TO.P,STITCHM1,1*%
%TO.N,GND*%
X60950000Y-18700000D03*
%TD*%
D10*
%TO.P,STITCHB1,1*%
%TO.N,GND*%
X66900000Y-63300000D03*
%TD*%
%TO.P,STITCHB1,1*%
%TO.N,GND*%
X51700000Y-54200000D03*
%TD*%
%TO.P,STITCHB1,1*%
%TO.N,GND*%
X49000000Y-59200000D03*
%TD*%
%TO.P,STITCHB1,1*%
%TO.N,GND*%
X85100000Y-59300000D03*
%TD*%
D11*
%TO.P,STITCHM1,1*%
%TO.N,GND*%
X71700000Y-40950000D03*
%TD*%
D10*
%TO.P,STITCHB1,1*%
%TO.N,GND*%
X46800000Y-49000000D03*
%TD*%
D11*
%TO.P,STITCHM1,1*%
%TO.N,GND*%
X75900000Y-37400000D03*
%TD*%
D10*
%TO.P,STITCHB1,1*%
%TO.N,GND*%
X46800000Y-41500000D03*
%TD*%
%TO.P,STITCHB1,1*%
%TO.N,GND*%
X66900000Y-69100000D03*
%TD*%
%TO.P,STITCHB1,1*%
%TO.N,GND*%
X66900000Y-65600000D03*
%TD*%
D11*
%TO.P,STITCHM1,1*%
%TO.N,GND*%
X79300000Y-44600000D03*
%TD*%
%TO.P,STITCHM1,1*%
%TO.N,GND*%
X85100000Y-57700000D03*
%TD*%
D10*
%TO.P,STITCHB1,1*%
%TO.N,GND*%
X56800000Y-68000000D03*
%TD*%
%TO.P,STITCHB1,1*%
%TO.N,GND*%
X78700000Y-55200000D03*
%TD*%
%TO.P,STITCHB1,1*%
%TO.N,GND*%
X46800000Y-56700000D03*
%TD*%
%TO.P,STITCHB1,1*%
%TO.N,GND*%
X61750000Y-26000000D03*
%TD*%
D11*
%TO.P,STITCHM1,1*%
%TO.N,GND*%
X71700000Y-43500000D03*
%TD*%
%TO.P,STITCHM1,1*%
%TO.N,GND*%
X50100000Y-18700000D03*
%TD*%
%TO.P,STITCHM1,1*%
%TO.N,GND*%
X71300000Y-32700000D03*
%TD*%
D14*
%TO.P,CON2,*%
%TO.N,*%
X90500000Y-66860000D03*
X90500000Y-21140000D03*
D15*
%TO.P,CON2,1,Pin_1*%
%TO.N,GND*%
X87980000Y-19870000D03*
D16*
%TO.P,CON2,2,Pin_2*%
%TO.N,vdda_in*%
X93020000Y-19870000D03*
D15*
%TO.P,CON2,3,Pin_3*%
%TO.N,GND*%
X87980000Y-22410000D03*
%TO.P,CON2,4,Pin_4*%
%TO.N,vddio*%
X93020000Y-22410000D03*
%TO.P,CON2,5,Pin_5*%
%TO.N,/hd_an11*%
X87980000Y-24950000D03*
%TO.P,CON2,6,Pin_6*%
%TO.N,GND*%
X93020000Y-24950000D03*
%TO.P,CON2,7,Pin_7*%
%TO.N,/hd_an10*%
X87980000Y-27490000D03*
%TO.P,CON2,8,Pin_8*%
%TO.N,GND*%
X93020000Y-27490000D03*
%TO.P,CON2,9,Pin_9*%
%TO.N,/hd_an9*%
X87980000Y-30030000D03*
%TO.P,CON2,10,Pin_10*%
%TO.N,GND*%
X93020000Y-30030000D03*
%TO.P,CON2,11,Pin_11*%
%TO.N,/hd_an8*%
X87980000Y-32570000D03*
%TO.P,CON2,12,Pin_12*%
%TO.N,GND*%
X93020000Y-32570000D03*
%TO.P,CON2,13,Pin_13*%
%TO.N,/hd_an7*%
X87980000Y-35110000D03*
%TO.P,CON2,14,Pin_14*%
%TO.N,GND*%
X93020000Y-35110000D03*
%TO.P,CON2,15,Pin_15*%
%TO.N,/hd_an6*%
X87980000Y-37650000D03*
%TO.P,CON2,16,Pin_16*%
%TO.N,GND*%
X93020000Y-37650000D03*
%TO.P,CON2,17,Pin_17*%
X87980000Y-40190000D03*
%TO.P,CON2,18,Pin_18*%
X93020000Y-40190000D03*
%TO.P,CON2,19,Pin_19*%
%TO.N,/uout6*%
X87980000Y-42730000D03*
%TO.P,CON2,20,Pin_20*%
%TO.N,/uout7*%
X93020000Y-42730000D03*
%TO.P,CON2,21,Pin_21*%
%TO.N,/uout4*%
X87980000Y-45270000D03*
%TO.P,CON2,22,Pin_22*%
%TO.N,/uout5*%
X93020000Y-45270000D03*
%TO.P,CON2,23,Pin_23*%
%TO.N,GND*%
X87980000Y-47810000D03*
%TO.P,CON2,24,Pin_24*%
X93020000Y-47810000D03*
%TO.P,CON2,25,Pin_25*%
%TO.N,/uout2*%
X87980000Y-50350000D03*
%TO.P,CON2,26,Pin_26*%
%TO.N,/uout3*%
X93020000Y-50350000D03*
%TO.P,CON2,27,Pin_27*%
%TO.N,/uout0*%
X87980000Y-52890000D03*
%TO.P,CON2,28,Pin_28*%
%TO.N,/uout1*%
X93020000Y-52890000D03*
%TO.P,CON2,29,Pin_29*%
%TO.N,GND*%
X87980000Y-55430000D03*
%TO.P,CON2,30,Pin_30*%
X93020000Y-55430000D03*
%TO.P,CON2,31,Pin_31*%
%TO.N,/uio6*%
X87980000Y-57970000D03*
%TO.P,CON2,32,Pin_32*%
%TO.N,/uio7*%
X93020000Y-57970000D03*
%TO.P,CON2,33,Pin_33*%
%TO.N,/uio4*%
X87980000Y-60510000D03*
%TO.P,CON2,34,Pin_34*%
%TO.N,/uio5*%
X93020000Y-60510000D03*
%TO.P,CON2,35,Pin_35*%
%TO.N,GND*%
X87980000Y-63050000D03*
%TO.P,CON2,36,Pin_36*%
X93020000Y-63050000D03*
%TO.P,CON2,37,Pin_37*%
%TO.N,/uio2*%
X87980000Y-65590000D03*
%TO.P,CON2,38,Pin_38*%
%TO.N,/uio3*%
X93020000Y-65590000D03*
%TO.P,CON2,39,Pin_39*%
%TO.N,GND*%
X87980000Y-68130000D03*
%TO.P,CON2,40,Pin_40*%
X93020000Y-68130000D03*
%TD*%
D14*
%TO.P,CON1,*%
%TO.N,*%
X50500000Y-66860000D03*
X50500000Y-21140000D03*
D16*
%TO.P,CON1,1,Pin_1*%
%TO.N,GND*%
X47980000Y-19870000D03*
D15*
%TO.P,CON1,2,Pin_2*%
%TO.N,/c_ena*%
X53020000Y-19870000D03*
%TO.P,CON1,3,Pin_3*%
%TO.N,/c_sel_inc*%
X47980000Y-22410000D03*
%TO.P,CON1,4,Pin_4*%
%TO.N,/hd_c_rst_n*%
X53020000Y-22410000D03*
%TO.P,CON1,5,Pin_5*%
%TO.N,GND*%
X47980000Y-24950000D03*
%TO.P,CON1,6,Pin_6*%
%TO.N,/RES1*%
X53020000Y-24950000D03*
%TO.P,CON1,7,Pin_7*%
%TO.N,vccd_in*%
X47980000Y-27490000D03*
%TO.P,CON1,8,Pin_8*%
%TO.N,/RES2*%
X53020000Y-27490000D03*
%TO.P,CON1,9,Pin_9*%
%TO.N,/uin0*%
X47980000Y-30030000D03*
%TO.P,CON1,10,Pin_10*%
%TO.N,/RES3*%
X53020000Y-30030000D03*
%TO.P,CON1,11,Pin_11*%
%TO.N,/uin1*%
X47980000Y-32570000D03*
%TO.P,CON1,12,Pin_12*%
%TO.N,GND*%
X53020000Y-32570000D03*
%TO.P,CON1,13,Pin_13*%
%TO.N,/uin3*%
X47980000Y-35110000D03*
%TO.P,CON1,14,Pin_14*%
%TO.N,/uin2*%
X53020000Y-35110000D03*
%TO.P,CON1,15,Pin_15*%
%TO.N,GND*%
X47980000Y-37650000D03*
%TO.P,CON1,16,Pin_16*%
%TO.N,/uin6*%
X53020000Y-37650000D03*
%TO.P,CON1,17,Pin_17*%
%TO.N,/uin4*%
X47980000Y-40190000D03*
%TO.P,CON1,18,Pin_18*%
%TO.N,GND*%
X53020000Y-40190000D03*
%TO.P,CON1,19,Pin_19*%
%TO.N,/uin5*%
X47980000Y-42730000D03*
%TO.P,CON1,20,Pin_20*%
%TO.N,/hd_an0*%
X53020000Y-42730000D03*
%TO.P,CON1,21,Pin_21*%
%TO.N,GND*%
X47980000Y-45270000D03*
%TO.P,CON1,22,Pin_22*%
%TO.N,/hd_an1*%
X53020000Y-45270000D03*
%TO.P,CON1,23,Pin_23*%
%TO.N,GND*%
X47980000Y-47810000D03*
%TO.P,CON1,24,Pin_24*%
%TO.N,/hd_an2*%
X53020000Y-47810000D03*
%TO.P,CON1,25,Pin_25*%
%TO.N,GND*%
X47980000Y-50350000D03*
%TO.P,CON1,26,Pin_26*%
%TO.N,/hd_an3*%
X53020000Y-50350000D03*
%TO.P,CON1,27,Pin_27*%
%TO.N,GND*%
X47980000Y-52890000D03*
%TO.P,CON1,28,Pin_28*%
%TO.N,/hd_an4*%
X53020000Y-52890000D03*
%TO.P,CON1,29,Pin_29*%
%TO.N,GND*%
X47980000Y-55430000D03*
%TO.P,CON1,30,Pin_30*%
%TO.N,/hd_an5*%
X53020000Y-55430000D03*
%TO.P,CON1,31,Pin_31*%
%TO.N,GND*%
X47980000Y-57970000D03*
%TO.P,CON1,32,Pin_32*%
X53020000Y-57970000D03*
%TO.P,CON1,33,Pin_33*%
X47980000Y-60510000D03*
%TO.P,CON1,34,Pin_34*%
%TO.N,/uin7*%
X53020000Y-60510000D03*
%TO.P,CON1,35,Pin_35*%
%TO.N,/p_clk*%
X47980000Y-63050000D03*
%TO.P,CON1,36,Pin_36*%
%TO.N,/p_rst*%
X53020000Y-63050000D03*
%TO.P,CON1,37,Pin_37*%
%TO.N,GND*%
X47980000Y-65590000D03*
%TO.P,CON1,38,Pin_38*%
X53020000Y-65590000D03*
%TO.P,CON1,39,Pin_39*%
%TO.N,/uio0*%
X47980000Y-68130000D03*
%TO.P,CON1,40,Pin_40*%
%TO.N,/uio1*%
X53020000Y-68130000D03*
%TD*%
D17*
%TO.N,GND*%
X52900000Y-56900000D03*
X85700000Y-41500004D03*
X79000000Y-37500000D03*
D18*
X70250000Y-48250000D03*
D17*
X76700000Y-49500000D03*
D18*
X78750002Y-41900003D03*
D17*
X87300000Y-39900000D03*
X90500000Y-68260003D03*
X93500000Y-56600000D03*
X87600000Y-28600000D03*
X58700000Y-57500000D03*
X83800000Y-25600000D03*
X53300000Y-46500000D03*
X81700000Y-34900000D03*
X75500000Y-50000000D03*
X93600000Y-39000000D03*
X60700000Y-42300000D03*
X81712754Y-33400000D03*
X83800000Y-39100000D03*
X84100000Y-42400000D03*
X83700000Y-36000000D03*
X94800000Y-46500000D03*
X80000000Y-29400000D03*
X83600000Y-22500000D03*
X93700000Y-35100000D03*
X93500000Y-61610002D03*
X58800000Y-45100000D03*
X88000000Y-21200000D03*
X79800000Y-22500000D03*
D18*
X65300000Y-50200000D03*
D17*
X87484415Y-26050000D03*
X60600000Y-53300000D03*
X79900000Y-38900000D03*
X54000000Y-53990002D03*
X60400000Y-39400000D03*
X79900000Y-25500000D03*
X87200000Y-33670002D03*
X56800000Y-49700000D03*
X86500000Y-36549998D03*
X56700000Y-59800000D03*
X62200000Y-56100000D03*
X53000000Y-49249998D03*
X81800000Y-27900000D03*
X67500000Y-28250000D03*
X83800000Y-29300000D03*
X74000000Y-34250000D03*
X58800000Y-50600000D03*
X56900000Y-53100000D03*
X50600000Y-26650000D03*
X55200000Y-43700000D03*
D18*
X71200000Y-36400000D03*
D17*
X56800000Y-46200000D03*
X68043309Y-48304755D03*
D18*
X63250004Y-40308092D03*
X63673909Y-47939336D03*
D17*
X73025000Y-36425000D03*
X52900000Y-59409998D03*
X93600000Y-27600000D03*
D18*
X76043906Y-41272142D03*
D17*
X83800000Y-32700000D03*
X56800000Y-56825000D03*
X56500000Y-39200000D03*
X90700000Y-24700000D03*
X75400000Y-21950000D03*
X74900000Y-34300010D03*
X67750000Y-33600000D03*
X56900000Y-42200000D03*
X52150000Y-65050000D03*
X85700000Y-47800000D03*
D18*
%TO.N,vddio*%
X77500000Y-28100000D03*
D17*
X91200000Y-23716107D03*
X90283055Y-23716107D03*
D18*
X74500000Y-28100000D03*
D17*
X78249996Y-21500000D03*
%TO.N,vdda_all*%
X90750000Y-43500000D03*
X92500000Y-69250000D03*
X48200000Y-28929998D03*
X68500000Y-25000000D03*
X51026892Y-29127096D03*
X93499998Y-41500000D03*
X64000000Y-28250000D03*
X63000000Y-25250000D03*
X49500000Y-69300000D03*
X47250000Y-59409998D03*
%TO.N,vdda_in*%
X66631492Y-20600000D03*
%TO.N,vccd_in*%
X58090000Y-28340000D03*
%TO.N,/RES3*%
X68400000Y-29914164D03*
%TO.N,/RES2*%
X69970281Y-28090381D03*
%TO.N,/uin1*%
X49750000Y-32750000D03*
%TO.N,/uio1*%
X55780331Y-68780331D03*
%TO.N,/uin0*%
X49559313Y-30940687D03*
%TO.N,/uio4*%
X86000000Y-61400000D03*
%TO.N,/p_clk*%
X49876345Y-62582437D03*
%TO.N,/hd_an2*%
X54000000Y-48500000D03*
%TO.N,/uio3*%
X91250000Y-65000000D03*
%TO.N,/hd_an0*%
X53250000Y-42000000D03*
%TO.N,/uio7*%
X91000000Y-58000000D03*
%TO.N,/uin5*%
X49400000Y-41600000D03*
%TO.N,/c_sel_inc*%
X48350000Y-22900000D03*
X71200000Y-30200000D03*
X76000000Y-27323000D03*
X70370711Y-18700000D03*
%TO.N,/hd_an3*%
X51250000Y-50250000D03*
%TO.N,/hd_an5*%
X51250000Y-56000000D03*
D18*
%TO.N,/c_ena*%
X51700000Y-19500000D03*
D17*
X71901080Y-22348919D03*
%TO.N,/uin4*%
X49200000Y-38800000D03*
%TO.N,/uin3*%
X49750000Y-35000000D03*
%TO.N,/uin2*%
X54394485Y-34850000D03*
%TO.N,/uio0*%
X50250000Y-68250000D03*
%TO.N,/uio2*%
X86000000Y-65688478D03*
%TO.N,/uin6*%
X55000000Y-37750000D03*
%TO.N,/hd_an4*%
X52950091Y-54003998D03*
%TO.N,/p_rst*%
X55750000Y-63250000D03*
%TO.N,/uio6*%
X86000000Y-58500000D03*
%TO.N,/uio5*%
X91250000Y-60000000D03*
%TO.N,/hd_an1*%
X51500000Y-45750000D03*
%TO.N,/hd_an10*%
X89500000Y-28250000D03*
%TO.N,/hd_an11*%
X86750000Y-24500000D03*
%TO.N,/uout2*%
X85969669Y-50250000D03*
%TO.N,/uout7*%
X91623656Y-44082436D03*
%TO.N,/uout0*%
X85894525Y-54798773D03*
%TO.N,/hd_an9*%
X86500000Y-30500000D03*
%TO.N,/uout4*%
X90224724Y-46656914D03*
%TO.N,/hd_an6*%
X89500000Y-38750000D03*
%TO.N,/uout3*%
X91250000Y-49500000D03*
%TO.N,/uout1*%
X91000000Y-51950000D03*
%TO.N,/hd_an8*%
X89500000Y-32750000D03*
%TO.N,/uout6*%
X90654658Y-45166458D03*
%TO.N,/hd_an7*%
X87750000Y-36569998D03*
%TO.N,/uout5*%
X91404516Y-45901453D03*
%TO.N,/RES1*%
X70250000Y-26750000D03*
%TO.N,/hd_c_rst_n*%
X52250000Y-21250000D03*
X71250000Y-21550000D03*
X76900000Y-20900000D03*
D18*
X51550000Y-23700000D03*
D17*
%TO.N,/uin7*%
X53750000Y-61350000D03*
%TO.N,vccd_all*%
X50750000Y-61750000D03*
X90900000Y-53700000D03*
X74000000Y-18750000D03*
X94250000Y-64150002D03*
X94300000Y-53990002D03*
X92500000Y-18750000D03*
X51500000Y-64200000D03*
X69499994Y-19500000D03*
%TD*%
D19*
%TO.N,GND*%
X64750000Y-19800000D02*
X64850000Y-19700000D01*
D20*
X93020000Y-56120000D02*
X93500000Y-56600000D01*
X85710000Y-47810000D02*
X85700000Y-47800000D01*
X93020000Y-62090002D02*
X93500000Y-61610002D01*
D19*
X64850000Y-19700000D02*
X68100000Y-19700000D01*
D20*
X87980000Y-19870000D02*
X87980000Y-21180000D01*
X93020000Y-35110000D02*
X93690000Y-35110000D01*
X93020000Y-39220000D02*
X93380000Y-39220000D01*
X93020000Y-68130000D02*
X90630003Y-68130000D01*
D19*
X61812943Y-21100000D02*
X60950000Y-20237057D01*
X68100000Y-19700000D02*
X68400000Y-19400000D01*
D20*
X93380000Y-39220000D02*
X93600000Y-39000000D01*
X90630003Y-68130000D02*
X90500000Y-68260003D01*
D19*
X64750000Y-19800000D02*
X64700000Y-19800000D01*
D20*
X87980000Y-21180000D02*
X88000000Y-21200000D01*
X93020000Y-47810000D02*
X93990000Y-47810000D01*
X90369997Y-68130000D02*
X90500000Y-68260003D01*
X93020000Y-55430000D02*
X93020000Y-56120000D01*
X93990000Y-47810000D02*
X94800000Y-47000000D01*
X94800000Y-47000000D02*
X94800000Y-46500000D01*
X87980000Y-47810000D02*
X85710000Y-47810000D01*
X93020000Y-40190000D02*
X93020000Y-39220000D01*
X93690000Y-35110000D02*
X93700000Y-35100000D01*
X87980000Y-68130000D02*
X90369997Y-68130000D01*
D19*
X63400000Y-21100000D02*
X61812943Y-21100000D01*
X60950000Y-20237057D02*
X60950000Y-18700000D01*
X64700000Y-19800000D02*
X63400000Y-21100000D01*
D20*
X93020000Y-27490000D02*
X93490000Y-27490000D01*
X93020000Y-63050000D02*
X93020000Y-62090002D01*
X93490000Y-27490000D02*
X93600000Y-27600000D01*
%TO.N,vddio*%
X84500000Y-21500000D02*
X86750000Y-23750000D01*
X90748893Y-23716107D02*
X92055000Y-22410000D01*
X74500000Y-28100000D02*
X77500000Y-28100000D01*
X78249996Y-21500000D02*
X84500000Y-21500000D01*
X92055000Y-22410000D02*
X93020000Y-22410000D01*
X90283055Y-23716107D02*
X90748893Y-23716107D01*
X86750000Y-23750000D02*
X90249162Y-23750000D01*
X90283055Y-23716107D02*
X91200000Y-23716107D01*
X90249162Y-23750000D02*
X90283055Y-23716107D01*
D19*
%TO.N,vdda_all*%
X63000000Y-25250000D02*
X68250000Y-25250000D01*
X48410002Y-29140000D02*
X63110000Y-29140000D01*
X58750000Y-69550000D02*
X61250000Y-67050000D01*
X48200000Y-28929998D02*
X48410002Y-29140000D01*
X90750000Y-42300000D02*
X91550000Y-41500000D01*
X49850000Y-69550000D02*
X58750000Y-69550000D01*
X49550000Y-69250000D02*
X49850000Y-69550000D01*
X90750000Y-43500000D02*
X90750000Y-42300000D01*
X49500000Y-69300000D02*
X49550000Y-69250000D01*
X61250000Y-67050000D02*
X74650000Y-67050000D01*
X91550000Y-41500000D02*
X93499998Y-41500000D01*
X76850000Y-69250000D02*
X92500000Y-69250000D01*
X68250000Y-25250000D02*
X68500000Y-25000000D01*
X74650000Y-67050000D02*
X76850000Y-69250000D01*
X63110000Y-29140000D02*
X64000000Y-28250000D01*
%TO.N,vdda_in*%
X74810661Y-19000000D02*
X73412733Y-20397928D01*
X73412733Y-20397928D02*
X66833564Y-20397928D01*
X93020000Y-19870000D02*
X92070000Y-19870000D01*
X91200000Y-19000000D02*
X74810661Y-19000000D01*
X92070000Y-19870000D02*
X91200000Y-19000000D01*
X66833564Y-20397928D02*
X66631492Y-20600000D01*
%TO.N,vccd_in*%
X49800000Y-28340000D02*
X58090000Y-28340000D01*
X47980000Y-27490000D02*
X48950000Y-27490000D01*
X48950000Y-27490000D02*
X49800000Y-28340000D01*
D21*
%TO.N,/RES3*%
X53020000Y-30030000D02*
X68284164Y-30030000D01*
X68284164Y-30030000D02*
X68400000Y-29914164D01*
%TO.N,/RES2*%
X69369900Y-27490000D02*
X53020000Y-27490000D01*
X69970281Y-28090381D02*
X69369900Y-27490000D01*
%TO.N,/uin1*%
X48160000Y-32750000D02*
X47980000Y-32570000D01*
X49750000Y-32750000D02*
X48160000Y-32750000D01*
%TO.N,/uio1*%
X55130000Y-68130000D02*
X55780331Y-68780331D01*
X53020000Y-68130000D02*
X55130000Y-68130000D01*
%TO.N,/uin0*%
X47980000Y-30030000D02*
X49330000Y-30030000D01*
X49559313Y-30259313D02*
X49559313Y-30940687D01*
X49330000Y-30030000D02*
X49559313Y-30259313D01*
%TO.N,/uio4*%
X87980000Y-60510000D02*
X86990000Y-60510000D01*
X86100000Y-61400000D02*
X86000000Y-61400000D01*
X86990000Y-60510000D02*
X86100000Y-61400000D01*
%TO.N,/p_clk*%
X48447563Y-62582437D02*
X49876345Y-62582437D01*
X47980000Y-63050000D02*
X48447563Y-62582437D01*
%TO.N,/hd_an2*%
X53710000Y-48500000D02*
X53020000Y-47810000D01*
X54000000Y-48500000D02*
X53710000Y-48500000D01*
%TO.N,/uio3*%
X91840000Y-65590000D02*
X93020000Y-65590000D01*
X91250000Y-65000000D02*
X91840000Y-65590000D01*
%TO.N,/hd_an0*%
X53250000Y-42500000D02*
X53020000Y-42730000D01*
X53250000Y-42000000D02*
X53250000Y-42500000D01*
%TO.N,/uio7*%
X91000000Y-58000000D02*
X92990000Y-58000000D01*
X92990000Y-58000000D02*
X93020000Y-57970000D01*
%TO.N,/uin5*%
X49400000Y-42300000D02*
X49400000Y-41600000D01*
X48970000Y-42730000D02*
X49400000Y-42300000D01*
X47980000Y-42730000D02*
X48970000Y-42730000D01*
D20*
%TO.N,/c_sel_inc*%
X74077000Y-27323000D02*
X76000000Y-27323000D01*
X48350000Y-22780000D02*
X48350000Y-22900000D01*
X71200000Y-30200000D02*
X74077000Y-27323000D01*
X70370711Y-18700000D02*
X70293711Y-18623000D01*
X63387000Y-18623000D02*
X62210000Y-19800000D01*
X70293711Y-18623000D02*
X63387000Y-18623000D01*
X47980000Y-22410000D02*
X48350000Y-22780000D01*
D21*
%TO.N,/hd_an3*%
X51250000Y-50250000D02*
X52920000Y-50250000D01*
X52920000Y-50250000D02*
X53020000Y-50350000D01*
%TO.N,/hd_an5*%
X51250000Y-56000000D02*
X52450000Y-56000000D01*
X52450000Y-56000000D02*
X53020000Y-55430000D01*
D20*
%TO.N,/c_ena*%
X57130000Y-19800000D02*
X59678919Y-22348919D01*
X59678919Y-22348919D02*
X71901080Y-22348919D01*
D21*
%TO.N,/uin4*%
X47980000Y-40190000D02*
X48810000Y-40190000D01*
X49200000Y-39800000D02*
X49200000Y-38800000D01*
X48810000Y-40190000D02*
X49200000Y-39800000D01*
%TO.N,/uin3*%
X48090000Y-35000000D02*
X47980000Y-35110000D01*
X49750000Y-35000000D02*
X48090000Y-35000000D01*
%TO.N,/uin2*%
X53020000Y-35110000D02*
X53280000Y-34850000D01*
X53280000Y-34850000D02*
X54394485Y-34850000D01*
%TO.N,/uio0*%
X50250000Y-68250000D02*
X48100000Y-68250000D01*
X48100000Y-68250000D02*
X47980000Y-68130000D01*
%TO.N,/uio2*%
X86000000Y-65688478D02*
X87881522Y-65688478D01*
X87881522Y-65688478D02*
X87980000Y-65590000D01*
%TO.N,/uin6*%
X55000000Y-37750000D02*
X53120000Y-37750000D01*
X53120000Y-37750000D02*
X53020000Y-37650000D01*
%TO.N,/hd_an4*%
X53020000Y-52890000D02*
X53020000Y-53934089D01*
X53020000Y-53934089D02*
X52950091Y-54003998D01*
%TO.N,/p_rst*%
X53220000Y-63250000D02*
X53020000Y-63050000D01*
X55750000Y-63250000D02*
X53220000Y-63250000D01*
%TO.N,/uio6*%
X86000000Y-58500000D02*
X86600000Y-58500000D01*
X86600000Y-58500000D02*
X87130000Y-57970000D01*
X87130000Y-57970000D02*
X87980000Y-57970000D01*
%TO.N,/uio5*%
X91250000Y-60000000D02*
X92510000Y-60000000D01*
X92510000Y-60000000D02*
X93020000Y-60510000D01*
%TO.N,/hd_an1*%
X51500000Y-45750000D02*
X52540000Y-45750000D01*
X52540000Y-45750000D02*
X53020000Y-45270000D01*
%TO.N,/hd_an10*%
X89500000Y-28250000D02*
X88740000Y-27490000D01*
X88740000Y-27490000D02*
X87980000Y-27490000D01*
%TO.N,/hd_an11*%
X86750000Y-24500000D02*
X87530000Y-24500000D01*
X87530000Y-24500000D02*
X87980000Y-24950000D01*
%TO.N,/uout2*%
X87980000Y-50350000D02*
X87880000Y-50250000D01*
X87880000Y-50250000D02*
X85969669Y-50250000D01*
%TO.N,/uout7*%
X91623656Y-43176344D02*
X91623656Y-44082436D01*
X92070000Y-42730000D02*
X91623656Y-43176344D01*
X93020000Y-42730000D02*
X92070000Y-42730000D01*
%TO.N,/uout0*%
X85894525Y-54798773D02*
X85894525Y-54005475D01*
X85894525Y-54005475D02*
X87010000Y-52890000D01*
X87010000Y-52890000D02*
X87980000Y-52890000D01*
%TO.N,/hd_an9*%
X87510000Y-30500000D02*
X87980000Y-30030000D01*
X86500000Y-30500000D02*
X87510000Y-30500000D01*
%TO.N,/uout4*%
X87980000Y-45270000D02*
X88970000Y-45270000D01*
X88970000Y-45270000D02*
X90224724Y-46524724D01*
X90224724Y-46524724D02*
X90224724Y-46656914D01*
%TO.N,/hd_an6*%
X89500000Y-38200000D02*
X88950000Y-37650000D01*
X89500000Y-38750000D02*
X89500000Y-38200000D01*
X88950000Y-37650000D02*
X87980000Y-37650000D01*
%TO.N,/uout3*%
X91250000Y-49500000D02*
X92100000Y-50350000D01*
X92100000Y-50350000D02*
X93020000Y-50350000D01*
%TO.N,/uout1*%
X93020000Y-52890000D02*
X91940000Y-52890000D01*
X91940000Y-52890000D02*
X91000000Y-51950000D01*
%TO.N,/hd_an8*%
X88160000Y-32750000D02*
X87980000Y-32570000D01*
X89500000Y-32750000D02*
X88160000Y-32750000D01*
%TO.N,/uout6*%
X90654658Y-44454658D02*
X90654658Y-45166458D01*
X88930000Y-42730000D02*
X90654658Y-44454658D01*
X87980000Y-42730000D02*
X88930000Y-42730000D01*
%TO.N,/hd_an7*%
X87750000Y-36569998D02*
X87750000Y-35340000D01*
X87750000Y-35340000D02*
X87980000Y-35110000D01*
%TO.N,/uout5*%
X93020000Y-45270000D02*
X92035969Y-45270000D01*
X92035969Y-45270000D02*
X91404516Y-45901453D01*
%TO.N,/RES1*%
X53020000Y-24950000D02*
X54050000Y-24950000D01*
X56100000Y-27000000D02*
X70000000Y-27000000D01*
X54050000Y-24950000D02*
X56100000Y-27000000D01*
X70000000Y-27000000D02*
X70250000Y-26750000D01*
D20*
%TO.N,/hd_c_rst_n*%
X61447000Y-21577000D02*
X71223000Y-21577000D01*
D21*
X52055000Y-22410000D02*
X51550000Y-22915000D01*
D20*
X53020000Y-21620000D02*
X53020000Y-22410000D01*
X52650000Y-21250000D02*
X53020000Y-21620000D01*
X71223000Y-21577000D02*
X71250000Y-21550000D01*
D21*
X53020000Y-22410000D02*
X52055000Y-22410000D01*
D20*
X52250000Y-21250000D02*
X52650000Y-21250000D01*
X71900000Y-20900000D02*
X71250000Y-21550000D01*
D21*
X51550000Y-22915000D02*
X51550000Y-23700000D01*
D20*
X76900000Y-20900000D02*
X71900000Y-20900000D01*
X59670000Y-19800000D02*
X61447000Y-21577000D01*
D21*
%TO.N,/uin7*%
X53020000Y-60510000D02*
X53750000Y-61240000D01*
X53750000Y-61240000D02*
X53750000Y-61350000D01*
D19*
%TO.N,vccd_all*%
X94250000Y-64150002D02*
X94150002Y-64250000D01*
X94150002Y-64250000D02*
X51520000Y-64250000D01*
X92500000Y-18750000D02*
X92250000Y-18500000D01*
X51520000Y-64250000D02*
X50750000Y-63480000D01*
X92250000Y-18500000D02*
X71631371Y-18500000D01*
X71631371Y-18500000D02*
X70631371Y-19500000D01*
X70631371Y-19500000D02*
X69499994Y-19500000D01*
D20*
X91190002Y-53990002D02*
X90900000Y-53700000D01*
X94300000Y-53990002D02*
X91190002Y-53990002D01*
D19*
X50750000Y-63480000D02*
X50750000Y-61750000D01*
%TD*%
%TA.AperFunction,Conductor*%
%TO.N,GND*%
G36*
X48844985Y-68904184D02*
G01*
X48890740Y-68956988D01*
X48900684Y-69026146D01*
X48893888Y-69052470D01*
X48859850Y-69142217D01*
X48840693Y-69299999D01*
X48840693Y-69300000D01*
X48859850Y-69457781D01*
X48870241Y-69485179D01*
X48887820Y-69531529D01*
X48893187Y-69601191D01*
X48860040Y-69662698D01*
X48798902Y-69696519D01*
X48771878Y-69699500D01*
X48003751Y-69699500D01*
X47996264Y-69699274D01*
X47742364Y-69683915D01*
X47727500Y-69682110D01*
X47481001Y-69636938D01*
X47466461Y-69633354D01*
X47227211Y-69558800D01*
X47213211Y-69553491D01*
X46984680Y-69450638D01*
X46971421Y-69443679D01*
X46756960Y-69314033D01*
X46744637Y-69305527D01*
X46737582Y-69300000D01*
X46547363Y-69150972D01*
X46536155Y-69141042D01*
X46491293Y-69096180D01*
X46457808Y-69034857D01*
X46462792Y-68965165D01*
X46504664Y-68909232D01*
X46570128Y-68884815D01*
X46578947Y-68884499D01*
X48777946Y-68884499D01*
X48844985Y-68904184D01*
G37*
%TD.AperFunction*%
%TA.AperFunction,Conductor*%
G36*
X67975768Y-67474185D02*
G01*
X68021523Y-67526989D01*
X68031467Y-67596147D01*
X68009048Y-67651385D01*
X67887712Y-67818390D01*
X67794781Y-68000776D01*
X67731522Y-68195465D01*
X67699500Y-68397648D01*
X67699500Y-68993907D01*
X67698903Y-69006062D01*
X67687256Y-69124311D01*
X67682514Y-69148151D01*
X67649798Y-69256002D01*
X67640495Y-69278461D01*
X67587370Y-69377849D01*
X67573866Y-69398059D01*
X67502369Y-69485179D01*
X67485179Y-69502369D01*
X67398059Y-69573866D01*
X67377849Y-69587370D01*
X67278461Y-69640495D01*
X67256002Y-69649798D01*
X67148151Y-69682514D01*
X67124311Y-69687256D01*
X67037215Y-69695834D01*
X67006060Y-69698903D01*
X66993907Y-69699500D01*
X59471911Y-69699500D01*
X59404872Y-69679815D01*
X59359117Y-69627011D01*
X59349173Y-69557853D01*
X59378198Y-69494297D01*
X59384230Y-69487819D01*
X61381230Y-67490819D01*
X61442553Y-67457334D01*
X61468911Y-67454500D01*
X67908729Y-67454500D01*
X67975768Y-67474185D01*
G37*
%TD.AperFunction*%
%TA.AperFunction,Conductor*%
G36*
X74498128Y-67474185D02*
G01*
X74518770Y-67490819D01*
X76515770Y-69487819D01*
X76549255Y-69549142D01*
X76544271Y-69618834D01*
X76502399Y-69674767D01*
X76436935Y-69699184D01*
X76428089Y-69699500D01*
X74006093Y-69699500D01*
X73993939Y-69698903D01*
X73943081Y-69693893D01*
X73875688Y-69687256D01*
X73851848Y-69682514D01*
X73743997Y-69649798D01*
X73721541Y-69640496D01*
X73648007Y-69601191D01*
X73622150Y-69587370D01*
X73601940Y-69573866D01*
X73514820Y-69502369D01*
X73497630Y-69485179D01*
X73426133Y-69398059D01*
X73412629Y-69377849D01*
X73389834Y-69335203D01*
X73359501Y-69278453D01*
X73350201Y-69256002D01*
X73317483Y-69148145D01*
X73312744Y-69124317D01*
X73301097Y-69006061D01*
X73300500Y-68993907D01*
X73300500Y-68397648D01*
X73268477Y-68195465D01*
X73205218Y-68000776D01*
X73112287Y-67818390D01*
X72990952Y-67651385D01*
X72967473Y-67585578D01*
X72983299Y-67517524D01*
X73033405Y-67468830D01*
X73091271Y-67454500D01*
X74431089Y-67454500D01*
X74498128Y-67474185D01*
G37*
%TD.AperFunction*%
%TA.AperFunction,Conductor*%
G36*
X51216693Y-67754798D02*
G01*
X51258064Y-67811103D01*
X51265500Y-67853398D01*
X51265500Y-68655063D01*
X51280266Y-68729301D01*
X51336515Y-68813484D01*
X51354970Y-68825815D01*
X51420699Y-68869734D01*
X51420702Y-68869734D01*
X51420703Y-68869735D01*
X51445666Y-68874700D01*
X51494933Y-68884500D01*
X54545066Y-68884499D01*
X54619301Y-68869734D01*
X54703484Y-68813484D01*
X54759734Y-68729301D01*
X54774500Y-68655067D01*
X54774500Y-68608500D01*
X54794185Y-68541461D01*
X54846989Y-68495706D01*
X54898500Y-68484500D01*
X54931799Y-68484500D01*
X54998838Y-68504185D01*
X55019480Y-68520819D01*
X55095435Y-68596774D01*
X55128920Y-68658097D01*
X55130850Y-68699400D01*
X55121024Y-68780330D01*
X55121024Y-68780331D01*
X55140182Y-68938113D01*
X55155130Y-68977529D01*
X55160497Y-69047193D01*
X55127349Y-69108699D01*
X55066211Y-69142520D01*
X55039188Y-69145500D01*
X50372929Y-69145500D01*
X50305890Y-69125815D01*
X50260135Y-69073011D01*
X50250191Y-69003853D01*
X50279216Y-68940297D01*
X50337994Y-68902523D01*
X50343254Y-68901103D01*
X50410618Y-68884499D01*
X50483793Y-68866463D01*
X50624529Y-68792599D01*
X50743498Y-68687201D01*
X50833787Y-68556395D01*
X50890149Y-68407782D01*
X50909307Y-68250000D01*
X50907817Y-68237732D01*
X50890149Y-68092218D01*
X50851530Y-67990390D01*
X50846163Y-67920726D01*
X50879310Y-67859220D01*
X50909019Y-67837060D01*
X51083047Y-67744040D01*
X51151450Y-67729798D01*
X51216693Y-67754798D01*
G37*
%TD.AperFunction*%
%TA.AperFunction,Conductor*%
G36*
X62937654Y-18320185D02*
G01*
X62983409Y-18372989D01*
X62993353Y-18442147D01*
X62964328Y-18505703D01*
X62958296Y-18512181D01*
X62732003Y-18738473D01*
X62670680Y-18771958D01*
X62600988Y-18766974D01*
X62599528Y-18766418D01*
X62513556Y-18733112D01*
X62312347Y-18695500D01*
X62107653Y-18695500D01*
X61906444Y-18733112D01*
X61906441Y-18733112D01*
X61906441Y-18733113D01*
X61715575Y-18807054D01*
X61715569Y-18807057D01*
X61541539Y-18914812D01*
X61541537Y-18914814D01*
X61390269Y-19052712D01*
X61266912Y-19216064D01*
X61175673Y-19399295D01*
X61119654Y-19596183D01*
X61100768Y-19799999D01*
X61100768Y-19800000D01*
X61119654Y-20003816D01*
X61119654Y-20003818D01*
X61119655Y-20003821D01*
X61164888Y-20162799D01*
X61175673Y-20200704D01*
X61266912Y-20383935D01*
X61390269Y-20547287D01*
X61541537Y-20685185D01*
X61541539Y-20685187D01*
X61715569Y-20792942D01*
X61715575Y-20792945D01*
X61740054Y-20802428D01*
X61906444Y-20866888D01*
X62107653Y-20904500D01*
X62107656Y-20904500D01*
X62312344Y-20904500D01*
X62312347Y-20904500D01*
X62513556Y-20866888D01*
X62704427Y-20792944D01*
X62878462Y-20685186D01*
X63029732Y-20547285D01*
X63153088Y-20383935D01*
X63165000Y-20360011D01*
X63212502Y-20308776D01*
X63280165Y-20291354D01*
X63346505Y-20313279D01*
X63390461Y-20367590D01*
X63400000Y-20415284D01*
X63400000Y-20697844D01*
X63406401Y-20757372D01*
X63406403Y-20757379D01*
X63456645Y-20892086D01*
X63456647Y-20892089D01*
X63535325Y-20997188D01*
X63559743Y-21062652D01*
X63544892Y-21130926D01*
X63495487Y-21180331D01*
X63436059Y-21195500D01*
X61656384Y-21195500D01*
X61589345Y-21175815D01*
X61568703Y-21159181D01*
X60735010Y-20325487D01*
X60701525Y-20264164D01*
X60703425Y-20203871D01*
X60704325Y-20200705D01*
X60704328Y-20200701D01*
X60760345Y-20003821D01*
X60779232Y-19800000D01*
X60778204Y-19788911D01*
X60771190Y-19713211D01*
X60760345Y-19596179D01*
X60704328Y-19399299D01*
X60613088Y-19216065D01*
X60522280Y-19095815D01*
X60489730Y-19052712D01*
X60338462Y-18914814D01*
X60338460Y-18914812D01*
X60164430Y-18807057D01*
X60164424Y-18807054D01*
X59987394Y-18738473D01*
X59973556Y-18733112D01*
X59772347Y-18695500D01*
X59567653Y-18695500D01*
X59366444Y-18733112D01*
X59366441Y-18733112D01*
X59366441Y-18733113D01*
X59175575Y-18807054D01*
X59175569Y-18807057D01*
X59001539Y-18914812D01*
X59001537Y-18914814D01*
X58850269Y-19052712D01*
X58726912Y-19216064D01*
X58635673Y-19399295D01*
X58579654Y-19596183D01*
X58560768Y-19799999D01*
X58560768Y-19800000D01*
X58579654Y-20003816D01*
X58579654Y-20003818D01*
X58579655Y-20003821D01*
X58624888Y-20162799D01*
X58635673Y-20200704D01*
X58726912Y-20383935D01*
X58850269Y-20547287D01*
X59001537Y-20685185D01*
X59001539Y-20685187D01*
X59175569Y-20792942D01*
X59175575Y-20792945D01*
X59200054Y-20802428D01*
X59366444Y-20866888D01*
X59567653Y-20904500D01*
X59567656Y-20904500D01*
X59772344Y-20904500D01*
X59772347Y-20904500D01*
X59973556Y-20866888D01*
X60059530Y-20833580D01*
X60129151Y-20827718D01*
X60190891Y-20860427D01*
X60192004Y-20861526D01*
X61086216Y-21755738D01*
X61119701Y-21817061D01*
X61114717Y-21886753D01*
X61072845Y-21942686D01*
X61007381Y-21967103D01*
X60998535Y-21967419D01*
X59888304Y-21967419D01*
X59821265Y-21947734D01*
X59800623Y-21931100D01*
X58195010Y-20325487D01*
X58161525Y-20264164D01*
X58163425Y-20203871D01*
X58164325Y-20200705D01*
X58164328Y-20200701D01*
X58220345Y-20003821D01*
X58239232Y-19800000D01*
X58238204Y-19788911D01*
X58231190Y-19713211D01*
X58220345Y-19596179D01*
X58164328Y-19399299D01*
X58073088Y-19216065D01*
X57982280Y-19095815D01*
X57949730Y-19052712D01*
X57798462Y-18914814D01*
X57798460Y-18914812D01*
X57624430Y-18807057D01*
X57624424Y-18807054D01*
X57447394Y-18738473D01*
X57433556Y-18733112D01*
X57232347Y-18695500D01*
X57027653Y-18695500D01*
X56826444Y-18733112D01*
X56826441Y-18733112D01*
X56826441Y-18733113D01*
X56635575Y-18807054D01*
X56635569Y-18807057D01*
X56461539Y-18914812D01*
X56461537Y-18914814D01*
X56310269Y-19052712D01*
X56186912Y-19216064D01*
X56095673Y-19399295D01*
X56039654Y-19596183D01*
X56020768Y-19799999D01*
X56020768Y-19800000D01*
X56039654Y-20003816D01*
X56039654Y-20003818D01*
X56039655Y-20003821D01*
X56084888Y-20162799D01*
X56095673Y-20200704D01*
X56186912Y-20383935D01*
X56310269Y-20547287D01*
X56461537Y-20685185D01*
X56461539Y-20685187D01*
X56635569Y-20792942D01*
X56635575Y-20792945D01*
X56660054Y-20802428D01*
X56826444Y-20866888D01*
X57027653Y-20904500D01*
X57027656Y-20904500D01*
X57232344Y-20904500D01*
X57232347Y-20904500D01*
X57433556Y-20866888D01*
X57519532Y-20833580D01*
X57589150Y-20827718D01*
X57650890Y-20860427D01*
X57652003Y-20861526D01*
X59444672Y-22654195D01*
X59531666Y-22704421D01*
X59628694Y-22730419D01*
X71304054Y-22730419D01*
X71371093Y-22750104D01*
X71402560Y-22780549D01*
X71402609Y-22780506D01*
X71403170Y-22781139D01*
X71406102Y-22783976D01*
X71407582Y-22786120D01*
X71407584Y-22786122D01*
X71407586Y-22786124D01*
X71526549Y-22891517D01*
X71526551Y-22891518D01*
X71667287Y-22965382D01*
X71688774Y-22970678D01*
X71821608Y-23003419D01*
X71821609Y-23003419D01*
X71980552Y-23003419D01*
X72031991Y-22990740D01*
X72134873Y-22965382D01*
X72275609Y-22891518D01*
X72394578Y-22786120D01*
X72484867Y-22655314D01*
X72541229Y-22506701D01*
X72560387Y-22348919D01*
X72541229Y-22191137D01*
X72484867Y-22042524D01*
X72394578Y-21911718D01*
X72394575Y-21911715D01*
X72394573Y-21911713D01*
X72275610Y-21806320D01*
X72179233Y-21755738D01*
X72134873Y-21732456D01*
X72134870Y-21732455D01*
X72001013Y-21699462D01*
X71940632Y-21664305D01*
X71908844Y-21602086D01*
X71907592Y-21564122D01*
X71909307Y-21550000D01*
X71903614Y-21503119D01*
X71915074Y-21434199D01*
X71939030Y-21400492D01*
X72021706Y-21317818D01*
X72083029Y-21284333D01*
X72109386Y-21281500D01*
X76302974Y-21281500D01*
X76370013Y-21301185D01*
X76401480Y-21331630D01*
X76401529Y-21331587D01*
X76402090Y-21332220D01*
X76405022Y-21335057D01*
X76406502Y-21337201D01*
X76406504Y-21337203D01*
X76406506Y-21337205D01*
X76525469Y-21442598D01*
X76532711Y-21446399D01*
X76666207Y-21516463D01*
X76743368Y-21535481D01*
X76820528Y-21554500D01*
X76820529Y-21554500D01*
X76979472Y-21554500D01*
X77030911Y-21541821D01*
X77133793Y-21516463D01*
X77274529Y-21442599D01*
X77391875Y-21338638D01*
X77455105Y-21308919D01*
X77524368Y-21318101D01*
X77577672Y-21363273D01*
X77598093Y-21430092D01*
X77597196Y-21446399D01*
X77590689Y-21499996D01*
X77590689Y-21500000D01*
X77609846Y-21657781D01*
X77636736Y-21728683D01*
X77664777Y-21802620D01*
X77666210Y-21806397D01*
X77669556Y-21811244D01*
X77756498Y-21937201D01*
X77756500Y-21937203D01*
X77756502Y-21937205D01*
X77875465Y-22042598D01*
X77875467Y-22042599D01*
X78016203Y-22116463D01*
X78034278Y-22120918D01*
X78170524Y-22154500D01*
X78170525Y-22154500D01*
X78329468Y-22154500D01*
X78383772Y-22141115D01*
X78483789Y-22116463D01*
X78624525Y-22042599D01*
X78743494Y-21937201D01*
X78744973Y-21935057D01*
X78746458Y-21933854D01*
X78748467Y-21931587D01*
X78748844Y-21931921D01*
X78799257Y-21891069D01*
X78847022Y-21881500D01*
X84290615Y-21881500D01*
X84357654Y-21901185D01*
X84378296Y-21917819D01*
X85351995Y-22891518D01*
X86304812Y-23844334D01*
X86338297Y-23905657D01*
X86333313Y-23975349D01*
X86299360Y-24024829D01*
X86256503Y-24062797D01*
X86256500Y-24062801D01*
X86166214Y-24193602D01*
X86109850Y-24342218D01*
X86090693Y-24499999D01*
X86090693Y-24500000D01*
X86109850Y-24657781D01*
X86166214Y-24806397D01*
X86203550Y-24860487D01*
X86225433Y-24926841D01*
X86225500Y-24930927D01*
X86225500Y-25475063D01*
X86240266Y-25549301D01*
X86296515Y-25633484D01*
X86317788Y-25647698D01*
X86380699Y-25689734D01*
X86380702Y-25689734D01*
X86380703Y-25689735D01*
X86405666Y-25694700D01*
X86454933Y-25704500D01*
X89505066Y-25704499D01*
X89579301Y-25689734D01*
X89663484Y-25633484D01*
X89719734Y-25549301D01*
X89729969Y-25497844D01*
X91020000Y-25497844D01*
X91026401Y-25557372D01*
X91026403Y-25557379D01*
X91076645Y-25692086D01*
X91076649Y-25692093D01*
X91162809Y-25807187D01*
X91162812Y-25807190D01*
X91277906Y-25893350D01*
X91277913Y-25893354D01*
X91412620Y-25943596D01*
X91412627Y-25943598D01*
X91472155Y-25949999D01*
X91472172Y-25950000D01*
X92770000Y-25950000D01*
X92770000Y-25200000D01*
X91020000Y-25200000D01*
X91020000Y-25497844D01*
X89729969Y-25497844D01*
X89734500Y-25475067D01*
X89734499Y-24424934D01*
X89727946Y-24391988D01*
X89734175Y-24322400D01*
X89777038Y-24267223D01*
X89842928Y-24243979D01*
X89907190Y-24258004D01*
X89908523Y-24258704D01*
X89908526Y-24258706D01*
X90049262Y-24332570D01*
X90049264Y-24332570D01*
X90049265Y-24332571D01*
X90203583Y-24370607D01*
X90203584Y-24370607D01*
X90362527Y-24370607D01*
X90413966Y-24357928D01*
X90516848Y-24332570D01*
X90657584Y-24258706D01*
X90659295Y-24257190D01*
X90660817Y-24256474D01*
X90663756Y-24254446D01*
X90664093Y-24254934D01*
X90722522Y-24227465D01*
X90791786Y-24236642D01*
X90823756Y-24257187D01*
X90825469Y-24258705D01*
X90825471Y-24258706D01*
X90953626Y-24325966D01*
X91003838Y-24374551D01*
X91020000Y-24435763D01*
X91020000Y-24700000D01*
X92770000Y-24700000D01*
X92770000Y-23950000D01*
X91970875Y-23950000D01*
X91903836Y-23930315D01*
X91858081Y-23877511D01*
X91847779Y-23811054D01*
X91859307Y-23716107D01*
X91859307Y-23716106D01*
X91840149Y-23558324D01*
X91783787Y-23409712D01*
X91765318Y-23382955D01*
X91743435Y-23316601D01*
X91760900Y-23248949D01*
X91779685Y-23224836D01*
X91803706Y-23200816D01*
X91865029Y-23167332D01*
X91891385Y-23164499D01*
X94545064Y-23164499D01*
X94545066Y-23164499D01*
X94619301Y-23149734D01*
X94703484Y-23093484D01*
X94759734Y-23009301D01*
X94774500Y-22935067D01*
X94774499Y-21884934D01*
X94759734Y-21810699D01*
X94723010Y-21755738D01*
X94703484Y-21726515D01*
X94653019Y-21692796D01*
X94619301Y-21670266D01*
X94619299Y-21670265D01*
X94619296Y-21670264D01*
X94545071Y-21655500D01*
X91612768Y-21655500D01*
X91545729Y-21635815D01*
X91499974Y-21583011D01*
X91490030Y-21513853D01*
X91494108Y-21495505D01*
X91539242Y-21346718D01*
X91559602Y-21140000D01*
X91539242Y-20933282D01*
X91494106Y-20784490D01*
X91493484Y-20714628D01*
X91530732Y-20655515D01*
X91594026Y-20625924D01*
X91612754Y-20624499D01*
X94445066Y-20624499D01*
X94519301Y-20609734D01*
X94603484Y-20553484D01*
X94659734Y-20469301D01*
X94674500Y-20395067D01*
X94674499Y-19470950D01*
X94694183Y-19403912D01*
X94746987Y-19358157D01*
X94816146Y-19348213D01*
X94879702Y-19377238D01*
X94904613Y-19406798D01*
X94925180Y-19440819D01*
X94943680Y-19471422D01*
X94950638Y-19484680D01*
X95053491Y-19713211D01*
X95058800Y-19727211D01*
X95133354Y-19966461D01*
X95136938Y-19981001D01*
X95182110Y-20227500D01*
X95183915Y-20242364D01*
X95199274Y-20496263D01*
X95199500Y-20503750D01*
X95199500Y-24154553D01*
X95179815Y-24221592D01*
X95127011Y-24267347D01*
X95057853Y-24277291D01*
X94994297Y-24248266D01*
X94966670Y-24213984D01*
X94963352Y-24207909D01*
X94877190Y-24092812D01*
X94877187Y-24092809D01*
X94762093Y-24006649D01*
X94762086Y-24006645D01*
X94627379Y-23956403D01*
X94627372Y-23956401D01*
X94567844Y-23950000D01*
X93270000Y-23950000D01*
X93270000Y-25950000D01*
X94567828Y-25950000D01*
X94567844Y-25949999D01*
X94627372Y-25943598D01*
X94627379Y-25943596D01*
X94762086Y-25893354D01*
X94762093Y-25893350D01*
X94877187Y-25807190D01*
X94877190Y-25807187D01*
X94963350Y-25692093D01*
X94966668Y-25686018D01*
X95016074Y-25636613D01*
X95084347Y-25621762D01*
X95149811Y-25646179D01*
X95191682Y-25702113D01*
X95199500Y-25745446D01*
X95199500Y-26694553D01*
X95179815Y-26761592D01*
X95127011Y-26807347D01*
X95057853Y-26817291D01*
X94994297Y-26788266D01*
X94966670Y-26753984D01*
X94963352Y-26747909D01*
X94877190Y-26632812D01*
X94877187Y-26632809D01*
X94762093Y-26546649D01*
X94762086Y-26546645D01*
X94627379Y-26496403D01*
X94627372Y-26496401D01*
X94567844Y-26490000D01*
X93270000Y-26490000D01*
X93270000Y-28490000D01*
X94567828Y-28490000D01*
X94567844Y-28489999D01*
X94627372Y-28483598D01*
X94627379Y-28483596D01*
X94762086Y-28433354D01*
X94762093Y-28433350D01*
X94877187Y-28347190D01*
X94877190Y-28347187D01*
X94963350Y-28232093D01*
X94966668Y-28226018D01*
X95016074Y-28176613D01*
X95084347Y-28161762D01*
X95149811Y-28186179D01*
X95191682Y-28242113D01*
X95199500Y-28285446D01*
X95199500Y-29234553D01*
X95179815Y-29301592D01*
X95127011Y-29347347D01*
X95057853Y-29357291D01*
X94994297Y-29328266D01*
X94966670Y-29293984D01*
X94963352Y-29287909D01*
X94877190Y-29172812D01*
X94877187Y-29172809D01*
X94762093Y-29086649D01*
X94762086Y-29086645D01*
X94627379Y-29036403D01*
X94627372Y-29036401D01*
X94567844Y-29030000D01*
X93270000Y-29030000D01*
X93270000Y-31030000D01*
X94567828Y-31030000D01*
X94567844Y-31029999D01*
X94627372Y-31023598D01*
X94627379Y-31023596D01*
X94762086Y-30973354D01*
X94762093Y-30973350D01*
X94877187Y-30887190D01*
X94877190Y-30887187D01*
X94963350Y-30772093D01*
X94966668Y-30766018D01*
X95016074Y-30716613D01*
X95084347Y-30701762D01*
X95149811Y-30726179D01*
X95191682Y-30782113D01*
X95199500Y-30825446D01*
X95199500Y-31774553D01*
X95179815Y-31841592D01*
X95127011Y-31887347D01*
X95057853Y-31897291D01*
X94994297Y-31868266D01*
X94966670Y-31833984D01*
X94963352Y-31827909D01*
X94877190Y-31712812D01*
X94877187Y-31712809D01*
X94762093Y-31626649D01*
X94762086Y-31626645D01*
X94627379Y-31576403D01*
X94627372Y-31576401D01*
X94567844Y-31570000D01*
X93270000Y-31570000D01*
X93270000Y-33570000D01*
X94567828Y-33570000D01*
X94567844Y-33569999D01*
X94627372Y-33563598D01*
X94627379Y-33563596D01*
X94762086Y-33513354D01*
X94762093Y-33513350D01*
X94877187Y-33427190D01*
X94877190Y-33427187D01*
X94963350Y-33312093D01*
X94966668Y-33306018D01*
X95016074Y-33256613D01*
X95084347Y-33241762D01*
X95149811Y-33266179D01*
X95191682Y-33322113D01*
X95199500Y-33365446D01*
X95199500Y-34314553D01*
X95179815Y-34381592D01*
X95127011Y-34427347D01*
X95057853Y-34437291D01*
X94994297Y-34408266D01*
X94966670Y-34373984D01*
X94963352Y-34367909D01*
X94877190Y-34252812D01*
X94877187Y-34252809D01*
X94762093Y-34166649D01*
X94762086Y-34166645D01*
X94627379Y-34116403D01*
X94627372Y-34116401D01*
X94567844Y-34110000D01*
X93270000Y-34110000D01*
X93270000Y-36110000D01*
X94567828Y-36110000D01*
X94567844Y-36109999D01*
X94627372Y-36103598D01*
X94627379Y-36103596D01*
X94762086Y-36053354D01*
X94762093Y-36053350D01*
X94877187Y-35967190D01*
X94877190Y-35967187D01*
X94963350Y-35852093D01*
X94966668Y-35846018D01*
X95016074Y-35796613D01*
X95084347Y-35781762D01*
X95149811Y-35806179D01*
X95191682Y-35862113D01*
X95199500Y-35905446D01*
X95199500Y-36854553D01*
X95179815Y-36921592D01*
X95127011Y-36967347D01*
X95057853Y-36977291D01*
X94994297Y-36948266D01*
X94966670Y-36913984D01*
X94963352Y-36907909D01*
X94877190Y-36792812D01*
X94877187Y-36792809D01*
X94762093Y-36706649D01*
X94762086Y-36706645D01*
X94627379Y-36656403D01*
X94627372Y-36656401D01*
X94567844Y-36650000D01*
X93270000Y-36650000D01*
X93270000Y-38650000D01*
X94567828Y-38650000D01*
X94567844Y-38649999D01*
X94627372Y-38643598D01*
X94627379Y-38643596D01*
X94762086Y-38593354D01*
X94762093Y-38593350D01*
X94877187Y-38507190D01*
X94877190Y-38507187D01*
X94963350Y-38392093D01*
X94966668Y-38386018D01*
X95016074Y-38336613D01*
X95084347Y-38321762D01*
X95149811Y-38346179D01*
X95191682Y-38402113D01*
X95199500Y-38445446D01*
X95199500Y-39394553D01*
X95179815Y-39461592D01*
X95127011Y-39507347D01*
X95057853Y-39517291D01*
X94994297Y-39488266D01*
X94966670Y-39453984D01*
X94963352Y-39447909D01*
X94877190Y-39332812D01*
X94877187Y-39332809D01*
X94762093Y-39246649D01*
X94762086Y-39246645D01*
X94627379Y-39196403D01*
X94627372Y-39196401D01*
X94567844Y-39190000D01*
X93270000Y-39190000D01*
X93270000Y-40316000D01*
X93250315Y-40383039D01*
X93197511Y-40428794D01*
X93146000Y-40440000D01*
X91020000Y-40440000D01*
X91020000Y-40737844D01*
X91026401Y-40797372D01*
X91026403Y-40797379D01*
X91076645Y-40932086D01*
X91076649Y-40932093D01*
X91162809Y-41047187D01*
X91162812Y-41047190D01*
X91201489Y-41076144D01*
X91243360Y-41132078D01*
X91248344Y-41201769D01*
X91214859Y-41263091D01*
X90501631Y-41976320D01*
X90426322Y-42051628D01*
X90426320Y-42051631D01*
X90373066Y-42143868D01*
X90345500Y-42246747D01*
X90345500Y-42928145D01*
X90325815Y-42995184D01*
X90303728Y-43020960D01*
X90256502Y-43062798D01*
X90256500Y-43062801D01*
X90166214Y-43193603D01*
X90166213Y-43193604D01*
X90159630Y-43210962D01*
X90117450Y-43266664D01*
X90051852Y-43290719D01*
X89983662Y-43275490D01*
X89956008Y-43254669D01*
X89770818Y-43069479D01*
X89737333Y-43008156D01*
X89734499Y-42981798D01*
X89734499Y-42204936D01*
X89734499Y-42204934D01*
X89719734Y-42130699D01*
X89666900Y-42051628D01*
X89663484Y-42046515D01*
X89613019Y-42012796D01*
X89579301Y-41990266D01*
X89579299Y-41990265D01*
X89579296Y-41990264D01*
X89505069Y-41975500D01*
X86454936Y-41975500D01*
X86380698Y-41990266D01*
X86296515Y-42046515D01*
X86240266Y-42130699D01*
X86240264Y-42130703D01*
X86225500Y-42204928D01*
X86225500Y-43255063D01*
X86240266Y-43329301D01*
X86296515Y-43413484D01*
X86330234Y-43436014D01*
X86380699Y-43469734D01*
X86380702Y-43469734D01*
X86380703Y-43469735D01*
X86405666Y-43474700D01*
X86454933Y-43484500D01*
X89131798Y-43484499D01*
X89198837Y-43504184D01*
X89219479Y-43520818D01*
X90209461Y-44510800D01*
X90242946Y-44572123D01*
X90237962Y-44641815D01*
X90204009Y-44691295D01*
X90161161Y-44729255D01*
X90161158Y-44729259D01*
X90070872Y-44860060D01*
X90014508Y-45008676D01*
X89995351Y-45166457D01*
X89995351Y-45166458D01*
X90014508Y-45324239D01*
X90055085Y-45431231D01*
X90070871Y-45472853D01*
X90161160Y-45603659D01*
X90161162Y-45603661D01*
X90161164Y-45603663D01*
X90280127Y-45709056D01*
X90280129Y-45709057D01*
X90408431Y-45776395D01*
X90458642Y-45824977D01*
X90474617Y-45892996D01*
X90451282Y-45958854D01*
X90396047Y-46001642D01*
X90326447Y-46007774D01*
X90321132Y-46006588D01*
X90304195Y-46002414D01*
X90255115Y-46002414D01*
X90188076Y-45982729D01*
X90167434Y-45966095D01*
X89770818Y-45569479D01*
X89737333Y-45508156D01*
X89734499Y-45481798D01*
X89734499Y-44744936D01*
X89734499Y-44744934D01*
X89719734Y-44670699D01*
X89688436Y-44623859D01*
X89663484Y-44586515D01*
X89613019Y-44552796D01*
X89579301Y-44530266D01*
X89579299Y-44530265D01*
X89579296Y-44530264D01*
X89505069Y-44515500D01*
X86454936Y-44515500D01*
X86380698Y-44530266D01*
X86296515Y-44586515D01*
X86240266Y-44670699D01*
X86240264Y-44670703D01*
X86225500Y-44744928D01*
X86225500Y-45795063D01*
X86240266Y-45869301D01*
X86296515Y-45953484D01*
X86315389Y-45966095D01*
X86380699Y-46009734D01*
X86380702Y-46009734D01*
X86380703Y-46009735D01*
X86405666Y-46014700D01*
X86454933Y-46024500D01*
X89171798Y-46024499D01*
X89238837Y-46044184D01*
X89259479Y-46060818D01*
X89559016Y-46360355D01*
X89592501Y-46421678D01*
X89587517Y-46491370D01*
X89587278Y-46492005D01*
X89584575Y-46499130D01*
X89584574Y-46499135D01*
X89565417Y-46656913D01*
X89567134Y-46671053D01*
X89555674Y-46739976D01*
X89508770Y-46791763D01*
X89444038Y-46810000D01*
X88230000Y-46810000D01*
X88230000Y-47560000D01*
X89980000Y-47560000D01*
X89980000Y-47428957D01*
X89999685Y-47361918D01*
X90052489Y-47316163D01*
X90121647Y-47306219D01*
X90133678Y-47308561D01*
X90145252Y-47311414D01*
X90145253Y-47311414D01*
X90304196Y-47311414D01*
X90355635Y-47298735D01*
X90458517Y-47273377D01*
X90479899Y-47262155D01*
X91020000Y-47262155D01*
X91020000Y-47560000D01*
X92770000Y-47560000D01*
X92770000Y-46810000D01*
X91472155Y-46810000D01*
X91412627Y-46816401D01*
X91412620Y-46816403D01*
X91277913Y-46866645D01*
X91277906Y-46866649D01*
X91162812Y-46952809D01*
X91162809Y-46952812D01*
X91076649Y-47067906D01*
X91076645Y-47067913D01*
X91026403Y-47202620D01*
X91026401Y-47202627D01*
X91020000Y-47262155D01*
X90479899Y-47262155D01*
X90599253Y-47199513D01*
X90718222Y-47094115D01*
X90808511Y-46963309D01*
X90864873Y-46814696D01*
X90884031Y-46656914D01*
X90874969Y-46582283D01*
X90886429Y-46513363D01*
X90933333Y-46461576D01*
X91000788Y-46443369D01*
X91055690Y-46457542D01*
X91170723Y-46517916D01*
X91247884Y-46536934D01*
X91325044Y-46555953D01*
X91325045Y-46555953D01*
X91483988Y-46555953D01*
X91535427Y-46543274D01*
X91638309Y-46517916D01*
X91779045Y-46444052D01*
X91898014Y-46338654D01*
X91988303Y-46207848D01*
X92027487Y-46104526D01*
X92069665Y-46048825D01*
X92135263Y-46024768D01*
X92143429Y-46024499D01*
X94545064Y-46024499D01*
X94545066Y-46024499D01*
X94619301Y-46009734D01*
X94703484Y-45953484D01*
X94759734Y-45869301D01*
X94774500Y-45795067D01*
X94774499Y-44744934D01*
X94759734Y-44670699D01*
X94728436Y-44623859D01*
X94703484Y-44586515D01*
X94653019Y-44552796D01*
X94619301Y-44530266D01*
X94619299Y-44530265D01*
X94619296Y-44530264D01*
X94545071Y-44515500D01*
X94545067Y-44515500D01*
X92339049Y-44515500D01*
X92272010Y-44495815D01*
X92226255Y-44443011D01*
X92216311Y-44373853D01*
X92223107Y-44347528D01*
X92263805Y-44240218D01*
X92282963Y-44082436D01*
X92263805Y-43924654D01*
X92207443Y-43776041D01*
X92140417Y-43678938D01*
X92118535Y-43612585D01*
X92136000Y-43544933D01*
X92187268Y-43497463D01*
X92242468Y-43484499D01*
X94545064Y-43484499D01*
X94545066Y-43484499D01*
X94619301Y-43469734D01*
X94703484Y-43413484D01*
X94759734Y-43329301D01*
X94774500Y-43255067D01*
X94774499Y-42204934D01*
X94759734Y-42130699D01*
X94706900Y-42051628D01*
X94703484Y-42046515D01*
X94653019Y-42012796D01*
X94619301Y-41990266D01*
X94619299Y-41990265D01*
X94619296Y-41990264D01*
X94545071Y-41975500D01*
X94545067Y-41975500D01*
X94199297Y-41975500D01*
X94132258Y-41955815D01*
X94086503Y-41903011D01*
X94076559Y-41833853D01*
X94083355Y-41807528D01*
X94083785Y-41806395D01*
X94140147Y-41657782D01*
X94159305Y-41500000D01*
X94146580Y-41395203D01*
X94139243Y-41334772D01*
X94140906Y-41334570D01*
X94143575Y-41273873D01*
X94183895Y-41216811D01*
X94248664Y-41190606D01*
X94260903Y-41190000D01*
X94567828Y-41190000D01*
X94567844Y-41189999D01*
X94627372Y-41183598D01*
X94627379Y-41183596D01*
X94762086Y-41133354D01*
X94762093Y-41133350D01*
X94877187Y-41047190D01*
X94877190Y-41047187D01*
X94963350Y-40932093D01*
X94966668Y-40926018D01*
X95016074Y-40876613D01*
X95084347Y-40861762D01*
X95149811Y-40886179D01*
X95191682Y-40942113D01*
X95199500Y-40985446D01*
X95199500Y-47014553D01*
X95179815Y-47081592D01*
X95127011Y-47127347D01*
X95057853Y-47137291D01*
X94994297Y-47108266D01*
X94966670Y-47073984D01*
X94963352Y-47067909D01*
X94877190Y-46952812D01*
X94877187Y-46952809D01*
X94762093Y-46866649D01*
X94762086Y-46866645D01*
X94627379Y-46816403D01*
X94627372Y-46816401D01*
X94567844Y-46810000D01*
X93270000Y-46810000D01*
X93270000Y-48810000D01*
X94567828Y-48810000D01*
X94567844Y-48809999D01*
X94627372Y-48803598D01*
X94627379Y-48803596D01*
X94762086Y-48753354D01*
X94762093Y-48753350D01*
X94877187Y-48667190D01*
X94877190Y-48667187D01*
X94963350Y-48552093D01*
X94966668Y-48546018D01*
X95016074Y-48496613D01*
X95084347Y-48481762D01*
X95149811Y-48506179D01*
X95191682Y-48562113D01*
X95199500Y-48605446D01*
X95199500Y-53918203D01*
X95179815Y-53985242D01*
X95173347Y-53990846D01*
X95197821Y-54041461D01*
X95199500Y-54061800D01*
X95199500Y-54634553D01*
X95179815Y-54701592D01*
X95127011Y-54747347D01*
X95057853Y-54757291D01*
X94994297Y-54728266D01*
X94966670Y-54693984D01*
X94963352Y-54687909D01*
X94877190Y-54572813D01*
X94851265Y-54553405D01*
X94809394Y-54497471D01*
X94804410Y-54427779D01*
X94823525Y-54383701D01*
X94883787Y-54296397D01*
X94940149Y-54147784D01*
X94952404Y-54046854D01*
X94978212Y-53986888D01*
X94956523Y-53953138D01*
X94952404Y-53933149D01*
X94940149Y-53832220D01*
X94932659Y-53812470D01*
X94883787Y-53683607D01*
X94793498Y-53552801D01*
X94793497Y-53552800D01*
X94789237Y-53546628D01*
X94791300Y-53545203D01*
X94766698Y-53492879D01*
X94767614Y-53449681D01*
X94774500Y-53415067D01*
X94774499Y-52364934D01*
X94759734Y-52290699D01*
X94711316Y-52218237D01*
X94703484Y-52206515D01*
X94653019Y-52172796D01*
X94619301Y-52150266D01*
X94619299Y-52150265D01*
X94619296Y-52150264D01*
X94545071Y-52135500D01*
X94545067Y-52135500D01*
X91776750Y-52135500D01*
X91709711Y-52115815D01*
X91663956Y-52063011D01*
X91653654Y-51996553D01*
X91659307Y-51950000D01*
X91640149Y-51792218D01*
X91583787Y-51643605D01*
X91493498Y-51512799D01*
X91493495Y-51512796D01*
X91493493Y-51512794D01*
X91374530Y-51407401D01*
X91233791Y-51333536D01*
X91079472Y-51295500D01*
X91079471Y-51295500D01*
X90920529Y-51295500D01*
X90920528Y-51295500D01*
X90766208Y-51333536D01*
X90625469Y-51407401D01*
X90506506Y-51512794D01*
X90506500Y-51512801D01*
X90416214Y-51643602D01*
X90359850Y-51792218D01*
X90340693Y-51949999D01*
X90340693Y-51950000D01*
X90359850Y-52107781D01*
X90416214Y-52256397D01*
X90439891Y-52290699D01*
X90506502Y-52387201D01*
X90506504Y-52387203D01*
X90506506Y-52387205D01*
X90625469Y-52492598D01*
X90625471Y-52492599D01*
X90766207Y-52566463D01*
X90843368Y-52585481D01*
X90920528Y-52604500D01*
X90920529Y-52604500D01*
X91079469Y-52604500D01*
X91079471Y-52604500D01*
X91079472Y-52604499D01*
X91085240Y-52603799D01*
X91154164Y-52615256D01*
X91187874Y-52639213D01*
X91229181Y-52680520D01*
X91262666Y-52741843D01*
X91265500Y-52768201D01*
X91265500Y-52957725D01*
X91245815Y-53024764D01*
X91193011Y-53070519D01*
X91123853Y-53080463D01*
X91111825Y-53078122D01*
X90979472Y-53045500D01*
X90979471Y-53045500D01*
X90820529Y-53045500D01*
X90820528Y-53045500D01*
X90666208Y-53083536D01*
X90525469Y-53157401D01*
X90406506Y-53262794D01*
X90406500Y-53262801D01*
X90316214Y-53393602D01*
X90259850Y-53542218D01*
X90240693Y-53699999D01*
X90240693Y-53700000D01*
X90259850Y-53857781D01*
X90282766Y-53918203D01*
X90316213Y-54006395D01*
X90406502Y-54137201D01*
X90406504Y-54137203D01*
X90406506Y-54137205D01*
X90525469Y-54242598D01*
X90525471Y-54242599D01*
X90666207Y-54316463D01*
X90743368Y-54335481D01*
X90820528Y-54354500D01*
X90820529Y-54354500D01*
X90979471Y-54354500D01*
X90998952Y-54349698D01*
X91060718Y-54350318D01*
X91109257Y-54363325D01*
X91168915Y-54399688D01*
X91199444Y-54462535D01*
X91191149Y-54531910D01*
X91164848Y-54570774D01*
X91162808Y-54572813D01*
X91076649Y-54687906D01*
X91076645Y-54687913D01*
X91026403Y-54822620D01*
X91026401Y-54822627D01*
X91020000Y-54882155D01*
X91020000Y-55180000D01*
X93146000Y-55180000D01*
X93213039Y-55199685D01*
X93258794Y-55252489D01*
X93270000Y-55304000D01*
X93270000Y-56430000D01*
X94567828Y-56430000D01*
X94567844Y-56429999D01*
X94627372Y-56423598D01*
X94627379Y-56423596D01*
X94762086Y-56373354D01*
X94762093Y-56373350D01*
X94877187Y-56287190D01*
X94877190Y-56287187D01*
X94963350Y-56172093D01*
X94966668Y-56166018D01*
X95016074Y-56116613D01*
X95084347Y-56101762D01*
X95149811Y-56126179D01*
X95191682Y-56182113D01*
X95199500Y-56225446D01*
X95199500Y-62254553D01*
X95179815Y-62321592D01*
X95127011Y-62367347D01*
X95057853Y-62377291D01*
X94994297Y-62348266D01*
X94966670Y-62313984D01*
X94963352Y-62307909D01*
X94877190Y-62192812D01*
X94877187Y-62192809D01*
X94762093Y-62106649D01*
X94762086Y-62106645D01*
X94627379Y-62056403D01*
X94627372Y-62056401D01*
X94567844Y-62050000D01*
X93270000Y-62050000D01*
X93270000Y-63176000D01*
X93250315Y-63243039D01*
X93197511Y-63288794D01*
X93146000Y-63300000D01*
X91020000Y-63300000D01*
X91020000Y-63597844D01*
X91026401Y-63657372D01*
X91026403Y-63657380D01*
X91034156Y-63678165D01*
X91039142Y-63747856D01*
X91005658Y-63809180D01*
X90944335Y-63842666D01*
X90917975Y-63845500D01*
X90082025Y-63845500D01*
X90014986Y-63825815D01*
X89969231Y-63773011D01*
X89959287Y-63703853D01*
X89965844Y-63678165D01*
X89973596Y-63657380D01*
X89973598Y-63657372D01*
X89979999Y-63597844D01*
X89980000Y-63597827D01*
X89980000Y-63300000D01*
X85980000Y-63300000D01*
X85980000Y-63597844D01*
X85986401Y-63657372D01*
X85986403Y-63657380D01*
X85994156Y-63678165D01*
X85999142Y-63747856D01*
X85965658Y-63809180D01*
X85904335Y-63842666D01*
X85877975Y-63845500D01*
X56370494Y-63845500D01*
X56303455Y-63825815D01*
X56257700Y-63773011D01*
X56247756Y-63703853D01*
X56268444Y-63651060D01*
X56333787Y-63556395D01*
X56390149Y-63407782D01*
X56409307Y-63250000D01*
X56390149Y-63092218D01*
X56333787Y-62943605D01*
X56243498Y-62812799D01*
X56243495Y-62812796D01*
X56243493Y-62812794D01*
X56124530Y-62707401D01*
X55983791Y-62633536D01*
X55829472Y-62595500D01*
X55829471Y-62595500D01*
X55670529Y-62595500D01*
X55670528Y-62595500D01*
X55516208Y-62633536D01*
X55375469Y-62707401D01*
X55256506Y-62812794D01*
X55256502Y-62812799D01*
X55236387Y-62841940D01*
X55182106Y-62885930D01*
X55134338Y-62895500D01*
X54898499Y-62895500D01*
X54831460Y-62875815D01*
X54785705Y-62823011D01*
X54774499Y-62771500D01*
X54774499Y-62524936D01*
X54774499Y-62524934D01*
X54759734Y-62450699D01*
X54710684Y-62377291D01*
X54703484Y-62366515D01*
X54636251Y-62321592D01*
X54619301Y-62310266D01*
X54619299Y-62310265D01*
X54619296Y-62310264D01*
X54545069Y-62295500D01*
X51494934Y-62295500D01*
X51416827Y-62311036D01*
X51347235Y-62304807D01*
X51292059Y-62261943D01*
X51268816Y-62196053D01*
X51284885Y-62128056D01*
X51290581Y-62118988D01*
X51329812Y-62062152D01*
X51333785Y-62056398D01*
X51333785Y-62056397D01*
X51333787Y-62056395D01*
X51390149Y-61907782D01*
X51409307Y-61750000D01*
X51404012Y-61706395D01*
X51390149Y-61592218D01*
X51377089Y-61557782D01*
X51333787Y-61443605D01*
X51333782Y-61443598D01*
X51330701Y-61437727D01*
X51316976Y-61369218D01*
X51342469Y-61304165D01*
X51399085Y-61263221D01*
X51464689Y-61258484D01*
X51494933Y-61264500D01*
X52970456Y-61264499D01*
X53037495Y-61284184D01*
X53083250Y-61336987D01*
X53093552Y-61373552D01*
X53109850Y-61507781D01*
X53166214Y-61656397D01*
X53200727Y-61706397D01*
X53256502Y-61787201D01*
X53256504Y-61787203D01*
X53256506Y-61787205D01*
X53375469Y-61892598D01*
X53375471Y-61892599D01*
X53516207Y-61966463D01*
X53572131Y-61980247D01*
X53670528Y-62004500D01*
X53670529Y-62004500D01*
X53829472Y-62004500D01*
X53880911Y-61991821D01*
X53983793Y-61966463D01*
X54124529Y-61892599D01*
X54243498Y-61787201D01*
X54333787Y-61656395D01*
X54390149Y-61507782D01*
X54403236Y-61399999D01*
X85340693Y-61399999D01*
X85340693Y-61400000D01*
X85359850Y-61557781D01*
X85416214Y-61706397D01*
X85446311Y-61750000D01*
X85506502Y-61837201D01*
X85506504Y-61837203D01*
X85506506Y-61837205D01*
X85625469Y-61942598D01*
X85625471Y-61942599D01*
X85766207Y-62016463D01*
X85822407Y-62030315D01*
X85920528Y-62054500D01*
X85978628Y-62054500D01*
X86045667Y-62074185D01*
X86091422Y-62126989D01*
X86101366Y-62196147D01*
X86077895Y-62252811D01*
X86036646Y-62307911D01*
X86036645Y-62307913D01*
X85986403Y-62442620D01*
X85986401Y-62442627D01*
X85980000Y-62502155D01*
X85980000Y-62800000D01*
X87730000Y-62800000D01*
X88230000Y-62800000D01*
X89980000Y-62800000D01*
X89980000Y-62502172D01*
X89979999Y-62502155D01*
X91020000Y-62502155D01*
X91020000Y-62800000D01*
X92770000Y-62800000D01*
X92770000Y-62050000D01*
X91472155Y-62050000D01*
X91412627Y-62056401D01*
X91412620Y-62056403D01*
X91277913Y-62106645D01*
X91277906Y-62106649D01*
X91162812Y-62192809D01*
X91162809Y-62192812D01*
X91076649Y-62307906D01*
X91076645Y-62307913D01*
X91026403Y-62442620D01*
X91026401Y-62442627D01*
X91020000Y-62502155D01*
X89979999Y-62502155D01*
X89973598Y-62442627D01*
X89973596Y-62442620D01*
X89923354Y-62307913D01*
X89923350Y-62307906D01*
X89837190Y-62192812D01*
X89837187Y-62192809D01*
X89722093Y-62106649D01*
X89722086Y-62106645D01*
X89587379Y-62056403D01*
X89587372Y-62056401D01*
X89527844Y-62050000D01*
X88230000Y-62050000D01*
X88230000Y-62800000D01*
X87730000Y-62800000D01*
X87730000Y-62050000D01*
X86580259Y-62050000D01*
X86513220Y-62030315D01*
X86467465Y-61977511D01*
X86457521Y-61908353D01*
X86486546Y-61844797D01*
X86488677Y-61842641D01*
X86493493Y-61837205D01*
X86493498Y-61837201D01*
X86583787Y-61706395D01*
X86640149Y-61557782D01*
X86659307Y-61400000D01*
X86659307Y-61399999D01*
X86659307Y-61393393D01*
X86678992Y-61326354D01*
X86695626Y-61305712D01*
X86700520Y-61300818D01*
X86761843Y-61267333D01*
X86788201Y-61264499D01*
X89505064Y-61264499D01*
X89505066Y-61264499D01*
X89579301Y-61249734D01*
X89663484Y-61193484D01*
X89719734Y-61109301D01*
X89734500Y-61035067D01*
X89734499Y-59999999D01*
X90590693Y-59999999D01*
X90590693Y-60000000D01*
X90609850Y-60157781D01*
X90648618Y-60260000D01*
X90666213Y-60306395D01*
X90756502Y-60437201D01*
X90756504Y-60437203D01*
X90756506Y-60437205D01*
X90875469Y-60542598D01*
X90875471Y-60542599D01*
X91016207Y-60616463D01*
X91170529Y-60654500D01*
X91170531Y-60654500D01*
X91171176Y-60654659D01*
X91231556Y-60689815D01*
X91263345Y-60752034D01*
X91265501Y-60775056D01*
X91265501Y-61035066D01*
X91277144Y-61093602D01*
X91280266Y-61109301D01*
X91336515Y-61193484D01*
X91357344Y-61207401D01*
X91420699Y-61249734D01*
X91420702Y-61249734D01*
X91420703Y-61249735D01*
X91445666Y-61254700D01*
X91494933Y-61264500D01*
X94545066Y-61264499D01*
X94619301Y-61249734D01*
X94703484Y-61193484D01*
X94759734Y-61109301D01*
X94774500Y-61035067D01*
X94774499Y-59984934D01*
X94759734Y-59910699D01*
X94741068Y-59882765D01*
X94703484Y-59826515D01*
X94653019Y-59792796D01*
X94619301Y-59770266D01*
X94619299Y-59770265D01*
X94619296Y-59770264D01*
X94545071Y-59755500D01*
X94545067Y-59755500D01*
X92818201Y-59755500D01*
X92751162Y-59735815D01*
X92730520Y-59719181D01*
X92727669Y-59716330D01*
X92727668Y-59716329D01*
X92646832Y-59669659D01*
X92646833Y-59669659D01*
X92616778Y-59661606D01*
X92556671Y-59645500D01*
X92556669Y-59645500D01*
X91865662Y-59645500D01*
X91798623Y-59625815D01*
X91763613Y-59591941D01*
X91743498Y-59562799D01*
X91743494Y-59562795D01*
X91743493Y-59562794D01*
X91624530Y-59457401D01*
X91483791Y-59383536D01*
X91329472Y-59345500D01*
X91329471Y-59345500D01*
X91170529Y-59345500D01*
X91170528Y-59345500D01*
X91016208Y-59383536D01*
X90875469Y-59457401D01*
X90756506Y-59562794D01*
X90756500Y-59562801D01*
X90666214Y-59693602D01*
X90609850Y-59842218D01*
X90590693Y-59999999D01*
X89734499Y-59999999D01*
X89734499Y-59984934D01*
X89719734Y-59910699D01*
X89701068Y-59882765D01*
X89663484Y-59826515D01*
X89613019Y-59792796D01*
X89579301Y-59770266D01*
X89579299Y-59770265D01*
X89579296Y-59770264D01*
X89505069Y-59755500D01*
X86454936Y-59755500D01*
X86380698Y-59770266D01*
X86296515Y-59826515D01*
X86240266Y-59910699D01*
X86240264Y-59910703D01*
X86225500Y-59984928D01*
X86225500Y-60623263D01*
X86205815Y-60690302D01*
X86153011Y-60736057D01*
X86086562Y-60746360D01*
X86079475Y-60745500D01*
X86079471Y-60745500D01*
X85920529Y-60745500D01*
X85920528Y-60745500D01*
X85766208Y-60783536D01*
X85625469Y-60857401D01*
X85506506Y-60962794D01*
X85506500Y-60962801D01*
X85416214Y-61093602D01*
X85359850Y-61242218D01*
X85340693Y-61399999D01*
X54403236Y-61399999D01*
X54406447Y-61373552D01*
X54434069Y-61309375D01*
X54492003Y-61270318D01*
X54529543Y-61264499D01*
X54545064Y-61264499D01*
X54545066Y-61264499D01*
X54619301Y-61249734D01*
X54703484Y-61193484D01*
X54759734Y-61109301D01*
X54774500Y-61035067D01*
X54774499Y-59984934D01*
X54759734Y-59910699D01*
X54741068Y-59882765D01*
X54703484Y-59826515D01*
X54653019Y-59792796D01*
X54619301Y-59770266D01*
X54619299Y-59770265D01*
X54619296Y-59770264D01*
X54545069Y-59755500D01*
X51494936Y-59755500D01*
X51420698Y-59770266D01*
X51336515Y-59826515D01*
X51280266Y-59910699D01*
X51280264Y-59910703D01*
X51265500Y-59984928D01*
X51265500Y-61035063D01*
X51265501Y-61035066D01*
X51269556Y-61055457D01*
X51263328Y-61125048D01*
X51220465Y-61180225D01*
X51154575Y-61203468D01*
X51090314Y-61189443D01*
X50983791Y-61133536D01*
X50829472Y-61095500D01*
X50829471Y-61095500D01*
X50670529Y-61095500D01*
X50670528Y-61095500D01*
X50516208Y-61133536D01*
X50375469Y-61207401D01*
X50256506Y-61312794D01*
X50256500Y-61312801D01*
X50166214Y-61443602D01*
X50109850Y-61592218D01*
X50090693Y-61749999D01*
X50090693Y-61750000D01*
X50095562Y-61790101D01*
X50084101Y-61859024D01*
X50037197Y-61910810D01*
X49969742Y-61929017D01*
X49957531Y-61928144D01*
X49955825Y-61927937D01*
X49955816Y-61927937D01*
X49796874Y-61927937D01*
X49796873Y-61927937D01*
X49642553Y-61965973D01*
X49501814Y-62039838D01*
X49382851Y-62145231D01*
X49382847Y-62145236D01*
X49362732Y-62174377D01*
X49308451Y-62218367D01*
X49260683Y-62227937D01*
X48400892Y-62227937D01*
X48355811Y-62240016D01*
X48310729Y-62252096D01*
X48310726Y-62252098D01*
X48269255Y-62276041D01*
X48269249Y-62276045D01*
X48264317Y-62278892D01*
X48202325Y-62295500D01*
X46454936Y-62295500D01*
X46380698Y-62310266D01*
X46296515Y-62366515D01*
X46240266Y-62450699D01*
X46240264Y-62450703D01*
X46225500Y-62524928D01*
X46225500Y-63575063D01*
X46240266Y-63649301D01*
X46296515Y-63733484D01*
X46315515Y-63746179D01*
X46380699Y-63789734D01*
X46380702Y-63789734D01*
X46380703Y-63789735D01*
X46392538Y-63792089D01*
X46454933Y-63804500D01*
X49505066Y-63804499D01*
X49579301Y-63789734D01*
X49663484Y-63733484D01*
X49719734Y-63649301D01*
X49734500Y-63575067D01*
X49734499Y-63360936D01*
X49754183Y-63293898D01*
X49806987Y-63248143D01*
X49858499Y-63236937D01*
X49955817Y-63236937D01*
X50032977Y-63217918D01*
X50110138Y-63198900D01*
X50163874Y-63170696D01*
X50232382Y-63156971D01*
X50297436Y-63182464D01*
X50338380Y-63239079D01*
X50345500Y-63280493D01*
X50345500Y-63426747D01*
X50345500Y-63533253D01*
X50373066Y-63636131D01*
X50426320Y-63728369D01*
X50426322Y-63728371D01*
X50804374Y-64106423D01*
X50837859Y-64167746D01*
X50840693Y-64194104D01*
X50840693Y-64200000D01*
X50859850Y-64357781D01*
X50916214Y-64506397D01*
X50973921Y-64590000D01*
X51006502Y-64637201D01*
X51058049Y-64682868D01*
X51095175Y-64742056D01*
X51094407Y-64811921D01*
X51080268Y-64839789D01*
X51080895Y-64840132D01*
X51076645Y-64847913D01*
X51026403Y-64982620D01*
X51026401Y-64982627D01*
X51020000Y-65042155D01*
X51020000Y-65340000D01*
X55020000Y-65340000D01*
X55020000Y-65042172D01*
X55019999Y-65042155D01*
X55013598Y-64982627D01*
X55013596Y-64982620D01*
X54963354Y-64847913D01*
X54959103Y-64840128D01*
X54961751Y-64838681D01*
X54942604Y-64787350D01*
X54957454Y-64719076D01*
X55006858Y-64669670D01*
X55066288Y-64654500D01*
X86264911Y-64654500D01*
X86331950Y-64674185D01*
X86377705Y-64726989D01*
X86387649Y-64796147D01*
X86358624Y-64859703D01*
X86333802Y-64881602D01*
X86296515Y-64906515D01*
X86241024Y-64989564D01*
X86187411Y-65034369D01*
X86118086Y-65043076D01*
X86108249Y-65041070D01*
X86079474Y-65033978D01*
X86079471Y-65033978D01*
X85920529Y-65033978D01*
X85920528Y-65033978D01*
X85766208Y-65072014D01*
X85625469Y-65145879D01*
X85506506Y-65251272D01*
X85506500Y-65251279D01*
X85416214Y-65382080D01*
X85359850Y-65530696D01*
X85340693Y-65688477D01*
X85340693Y-65688478D01*
X85359850Y-65846259D01*
X85400427Y-65953251D01*
X85416213Y-65994873D01*
X85506502Y-66125679D01*
X85506504Y-66125681D01*
X85506506Y-66125683D01*
X85625469Y-66231076D01*
X85625471Y-66231077D01*
X85766207Y-66304941D01*
X85820841Y-66318407D01*
X85920528Y-66342978D01*
X85920529Y-66342978D01*
X86079472Y-66342978D01*
X86148280Y-66326018D01*
X86233793Y-66304941D01*
X86233795Y-66304940D01*
X86240805Y-66302282D01*
X86241676Y-66304580D01*
X86298544Y-66293184D01*
X86356558Y-66313604D01*
X86380696Y-66329732D01*
X86380699Y-66329734D01*
X86380702Y-66329734D01*
X86380703Y-66329735D01*
X86405666Y-66334700D01*
X86454933Y-66344500D01*
X89387231Y-66344499D01*
X89454270Y-66364184D01*
X89500025Y-66416988D01*
X89509969Y-66486146D01*
X89505892Y-66504494D01*
X89460757Y-66653283D01*
X89440398Y-66859999D01*
X89453581Y-66993846D01*
X89440562Y-67062492D01*
X89392497Y-67113202D01*
X89330178Y-67130000D01*
X88230000Y-67130000D01*
X88230000Y-67880000D01*
X89979999Y-67880000D01*
X89985595Y-67874404D01*
X90046917Y-67840918D01*
X90109269Y-67843422D01*
X90293282Y-67899242D01*
X90500000Y-67919602D01*
X90706718Y-67899242D01*
X90890729Y-67843422D01*
X90960593Y-67842800D01*
X91014403Y-67874403D01*
X91020000Y-67880000D01*
X92770000Y-67880000D01*
X92770000Y-67130000D01*
X91669822Y-67130000D01*
X91602783Y-67110315D01*
X91557028Y-67057511D01*
X91546419Y-66993846D01*
X91559602Y-66860000D01*
X91539242Y-66653282D01*
X91494106Y-66504490D01*
X91493484Y-66434628D01*
X91530732Y-66375515D01*
X91594026Y-66345924D01*
X91612755Y-66344499D01*
X94545066Y-66344499D01*
X94619301Y-66329734D01*
X94703484Y-66273484D01*
X94759734Y-66189301D01*
X94774500Y-66115067D01*
X94774499Y-65064934D01*
X94759734Y-64990699D01*
X94711316Y-64918237D01*
X94703484Y-64906515D01*
X94654497Y-64873783D01*
X94609692Y-64820170D01*
X94600985Y-64750845D01*
X94631140Y-64687818D01*
X94641161Y-64677866D01*
X94645316Y-64674185D01*
X94743498Y-64587203D01*
X94833787Y-64456397D01*
X94890149Y-64307784D01*
X94909307Y-64150002D01*
X94890149Y-63992220D01*
X94888554Y-63988016D01*
X94883185Y-63918356D01*
X94905229Y-63869731D01*
X94963352Y-63792089D01*
X94966668Y-63786018D01*
X95016074Y-63736613D01*
X95084347Y-63721762D01*
X95149811Y-63746179D01*
X95191682Y-63802113D01*
X95199500Y-63845446D01*
X95199500Y-67334553D01*
X95179815Y-67401592D01*
X95127011Y-67447347D01*
X95057853Y-67457291D01*
X94994297Y-67428266D01*
X94966670Y-67393984D01*
X94963352Y-67387909D01*
X94877190Y-67272812D01*
X94877187Y-67272809D01*
X94762093Y-67186649D01*
X94762086Y-67186645D01*
X94627379Y-67136403D01*
X94627372Y-67136401D01*
X94567844Y-67130000D01*
X93270000Y-67130000D01*
X93270000Y-68256000D01*
X93250315Y-68323039D01*
X93197511Y-68368794D01*
X93146000Y-68380000D01*
X91020000Y-68380000D01*
X91020000Y-68677839D01*
X91023270Y-68708242D01*
X91010866Y-68777002D01*
X90963257Y-68828140D01*
X90899981Y-68845500D01*
X90100019Y-68845500D01*
X90032980Y-68825815D01*
X89987225Y-68773011D01*
X89976730Y-68708242D01*
X89979999Y-68677839D01*
X89980000Y-68677827D01*
X89980000Y-68380000D01*
X85980000Y-68380000D01*
X85980000Y-68677839D01*
X85983270Y-68708242D01*
X85970866Y-68777002D01*
X85923257Y-68828140D01*
X85859981Y-68845500D01*
X77068911Y-68845500D01*
X77001872Y-68825815D01*
X76981230Y-68809181D01*
X75754204Y-67582155D01*
X85980000Y-67582155D01*
X85980000Y-67880000D01*
X87730000Y-67880000D01*
X87730000Y-67130000D01*
X86432155Y-67130000D01*
X86372627Y-67136401D01*
X86372620Y-67136403D01*
X86237913Y-67186645D01*
X86237906Y-67186649D01*
X86122812Y-67272809D01*
X86122809Y-67272812D01*
X86036649Y-67387906D01*
X86036645Y-67387913D01*
X85986403Y-67522620D01*
X85986401Y-67522627D01*
X85980000Y-67582155D01*
X75754204Y-67582155D01*
X74898371Y-66726322D01*
X74898369Y-66726320D01*
X74806131Y-66673066D01*
X74703253Y-66645500D01*
X61303253Y-66645500D01*
X61196747Y-66645500D01*
X61093868Y-66673066D01*
X61001631Y-66726320D01*
X61001628Y-66726322D01*
X58618770Y-69109181D01*
X58557447Y-69142666D01*
X58531089Y-69145500D01*
X56521474Y-69145500D01*
X56454435Y-69125815D01*
X56408680Y-69073011D01*
X56398736Y-69003853D01*
X56405532Y-68977529D01*
X56412734Y-68958538D01*
X56420480Y-68938113D01*
X56439638Y-68780331D01*
X56424428Y-68655068D01*
X56420480Y-68622549D01*
X56410705Y-68596774D01*
X56364118Y-68473936D01*
X56273829Y-68343130D01*
X56273826Y-68343127D01*
X56273824Y-68343125D01*
X56154861Y-68237732D01*
X56014122Y-68163867D01*
X55859803Y-68125831D01*
X55859802Y-68125831D01*
X55700860Y-68125831D01*
X55700858Y-68125831D01*
X55695078Y-68126533D01*
X55626155Y-68115069D01*
X55592456Y-68091117D01*
X55347669Y-67846330D01*
X55347668Y-67846329D01*
X55266832Y-67799659D01*
X55266833Y-67799659D01*
X55236778Y-67791606D01*
X55176671Y-67775500D01*
X55176669Y-67775500D01*
X54898499Y-67775500D01*
X54831460Y-67755815D01*
X54785705Y-67703011D01*
X54774499Y-67651500D01*
X54774499Y-67604936D01*
X54774499Y-67604934D01*
X54759734Y-67530699D01*
X54718394Y-67468830D01*
X54703484Y-67446515D01*
X54636251Y-67401592D01*
X54619301Y-67390266D01*
X54619299Y-67390265D01*
X54619296Y-67390264D01*
X54545071Y-67375500D01*
X51612768Y-67375500D01*
X51545729Y-67355815D01*
X51499974Y-67303011D01*
X51490030Y-67233853D01*
X51494108Y-67215505D01*
X51539242Y-67066718D01*
X51559602Y-66860000D01*
X51546419Y-66726153D01*
X51559438Y-66657508D01*
X51607503Y-66606798D01*
X51669822Y-66590000D01*
X52770000Y-66590000D01*
X53270000Y-66590000D01*
X54567828Y-66590000D01*
X54567844Y-66589999D01*
X54627372Y-66583598D01*
X54627379Y-66583596D01*
X54762086Y-66533354D01*
X54762093Y-66533350D01*
X54877187Y-66447190D01*
X54877190Y-66447187D01*
X54963350Y-66332093D01*
X54963354Y-66332086D01*
X55013596Y-66197379D01*
X55013598Y-66197372D01*
X55019999Y-66137844D01*
X55020000Y-66137827D01*
X55020000Y-65840000D01*
X53270000Y-65840000D01*
X53270000Y-66590000D01*
X52770000Y-66590000D01*
X52770000Y-65840000D01*
X51019999Y-65840000D01*
X51014402Y-65845597D01*
X50953079Y-65879082D01*
X50890727Y-65876576D01*
X50706716Y-65820757D01*
X50500000Y-65800398D01*
X50293283Y-65820757D01*
X50109272Y-65876576D01*
X50039405Y-65877199D01*
X49985596Y-65845596D01*
X49980000Y-65840000D01*
X48230000Y-65840000D01*
X48230000Y-66590000D01*
X49330178Y-66590000D01*
X49397217Y-66609685D01*
X49442972Y-66662489D01*
X49453580Y-66726152D01*
X49453564Y-66726322D01*
X49440398Y-66860000D01*
X49460757Y-67066716D01*
X49487059Y-67153422D01*
X49505891Y-67215504D01*
X49505892Y-67215505D01*
X49506515Y-67285372D01*
X49469267Y-67344485D01*
X49405973Y-67374076D01*
X49387231Y-67375500D01*
X46454936Y-67375500D01*
X46380698Y-67390266D01*
X46296515Y-67446515D01*
X46240266Y-67530699D01*
X46240264Y-67530703D01*
X46225500Y-67604928D01*
X46225500Y-68329032D01*
X46205815Y-68396071D01*
X46153011Y-68441826D01*
X46083853Y-68451770D01*
X46020297Y-68422745D01*
X45988424Y-68379923D01*
X45983415Y-68368794D01*
X45946507Y-68286785D01*
X45941199Y-68272788D01*
X45928586Y-68232313D01*
X45866644Y-68033536D01*
X45863061Y-68018998D01*
X45859722Y-68000776D01*
X45817888Y-67772495D01*
X45816084Y-67757635D01*
X45815912Y-67754798D01*
X45800726Y-67503736D01*
X45800500Y-67496249D01*
X45800500Y-66385446D01*
X45820185Y-66318407D01*
X45872989Y-66272652D01*
X45942147Y-66262708D01*
X46005703Y-66291733D01*
X46033332Y-66326018D01*
X46036649Y-66332093D01*
X46122809Y-66447187D01*
X46122812Y-66447190D01*
X46237906Y-66533350D01*
X46237913Y-66533354D01*
X46372620Y-66583596D01*
X46372627Y-66583598D01*
X46432155Y-66589999D01*
X46432172Y-66590000D01*
X47730000Y-66590000D01*
X47730000Y-65340000D01*
X48230000Y-65340000D01*
X49980000Y-65340000D01*
X49980000Y-65042172D01*
X49979999Y-65042155D01*
X49973598Y-64982627D01*
X49973596Y-64982620D01*
X49923354Y-64847913D01*
X49923350Y-64847906D01*
X49837190Y-64732812D01*
X49837187Y-64732809D01*
X49722093Y-64646649D01*
X49722086Y-64646645D01*
X49587379Y-64596403D01*
X49587372Y-64596401D01*
X49527844Y-64590000D01*
X48230000Y-64590000D01*
X48230000Y-65340000D01*
X47730000Y-65340000D01*
X47730000Y-64590000D01*
X46432155Y-64590000D01*
X46372627Y-64596401D01*
X46372620Y-64596403D01*
X46237913Y-64646645D01*
X46237906Y-64646649D01*
X46122812Y-64732809D01*
X46122809Y-64732812D01*
X46036647Y-64847909D01*
X46033330Y-64853984D01*
X45983923Y-64903387D01*
X45915649Y-64918237D01*
X45850186Y-64893817D01*
X45808317Y-64837882D01*
X45800500Y-64794553D01*
X45800500Y-61305446D01*
X45820185Y-61238407D01*
X45872989Y-61192652D01*
X45942147Y-61182708D01*
X46005703Y-61211733D01*
X46033332Y-61246018D01*
X46036649Y-61252093D01*
X46122809Y-61367187D01*
X46122812Y-61367190D01*
X46237906Y-61453350D01*
X46237913Y-61453354D01*
X46372620Y-61503596D01*
X46372627Y-61503598D01*
X46432155Y-61509999D01*
X46432172Y-61510000D01*
X47730000Y-61510000D01*
X48230000Y-61510000D01*
X49527828Y-61510000D01*
X49527844Y-61509999D01*
X49587372Y-61503598D01*
X49587379Y-61503596D01*
X49722086Y-61453354D01*
X49722093Y-61453350D01*
X49837187Y-61367190D01*
X49837190Y-61367187D01*
X49923350Y-61252093D01*
X49923354Y-61252086D01*
X49973596Y-61117379D01*
X49973598Y-61117372D01*
X49979999Y-61057844D01*
X49980000Y-61057827D01*
X49980000Y-60760000D01*
X48230000Y-60760000D01*
X48230000Y-61510000D01*
X47730000Y-61510000D01*
X47730000Y-60260000D01*
X48230000Y-60260000D01*
X49980000Y-60260000D01*
X49980000Y-59962172D01*
X49979999Y-59962155D01*
X49973598Y-59902627D01*
X49973596Y-59902620D01*
X49923354Y-59767913D01*
X49923350Y-59767906D01*
X49837190Y-59652812D01*
X49837187Y-59652809D01*
X49722093Y-59566649D01*
X49722086Y-59566645D01*
X49587379Y-59516403D01*
X49587372Y-59516401D01*
X49527844Y-59510000D01*
X48230000Y-59510000D01*
X48230000Y-60260000D01*
X47730000Y-60260000D01*
X47730000Y-59905394D01*
X47749685Y-59838355D01*
X47751950Y-59834954D01*
X47766540Y-59813817D01*
X47833787Y-59716393D01*
X47890149Y-59567780D01*
X47909307Y-59409998D01*
X47890149Y-59252216D01*
X47833787Y-59103603D01*
X47791679Y-59042599D01*
X47751950Y-58985041D01*
X47746990Y-58970000D01*
X48230000Y-58970000D01*
X49527828Y-58970000D01*
X49527844Y-58969999D01*
X49587372Y-58963598D01*
X49587379Y-58963596D01*
X49722086Y-58913354D01*
X49722093Y-58913350D01*
X49837187Y-58827190D01*
X49837190Y-58827187D01*
X49923350Y-58712093D01*
X49923354Y-58712086D01*
X49973596Y-58577379D01*
X49973598Y-58577372D01*
X49979999Y-58517844D01*
X51020000Y-58517844D01*
X51026401Y-58577372D01*
X51026403Y-58577379D01*
X51076645Y-58712086D01*
X51076649Y-58712093D01*
X51162809Y-58827187D01*
X51162812Y-58827190D01*
X51277906Y-58913350D01*
X51277913Y-58913354D01*
X51412620Y-58963596D01*
X51412627Y-58963598D01*
X51472155Y-58969999D01*
X51472172Y-58970000D01*
X52770000Y-58970000D01*
X53270000Y-58970000D01*
X54567828Y-58970000D01*
X54567844Y-58969999D01*
X54627372Y-58963598D01*
X54627379Y-58963596D01*
X54762086Y-58913354D01*
X54762093Y-58913350D01*
X54877187Y-58827190D01*
X54877190Y-58827187D01*
X54963350Y-58712093D01*
X54963354Y-58712086D01*
X55013596Y-58577379D01*
X55013598Y-58577372D01*
X55019999Y-58517844D01*
X55020000Y-58517827D01*
X55020000Y-58499999D01*
X85340693Y-58499999D01*
X85340693Y-58500000D01*
X85359850Y-58657781D01*
X85416214Y-58806397D01*
X85456023Y-58864070D01*
X85506502Y-58937201D01*
X85506504Y-58937203D01*
X85506506Y-58937205D01*
X85625469Y-59042598D01*
X85625471Y-59042599D01*
X85766207Y-59116463D01*
X85843368Y-59135481D01*
X85920528Y-59154500D01*
X85920529Y-59154500D01*
X86079472Y-59154500D01*
X86130911Y-59141821D01*
X86233793Y-59116463D01*
X86374529Y-59042599D01*
X86493498Y-58937201D01*
X86513612Y-58908059D01*
X86567894Y-58864070D01*
X86615662Y-58854500D01*
X86646669Y-58854500D01*
X86646671Y-58854500D01*
X86736832Y-58830341D01*
X86817668Y-58783671D01*
X86840520Y-58760818D01*
X86901842Y-58727333D01*
X86928202Y-58724499D01*
X89505064Y-58724499D01*
X89505066Y-58724499D01*
X89579301Y-58709734D01*
X89663484Y-58653484D01*
X89719734Y-58569301D01*
X89734500Y-58495067D01*
X89734500Y-57999999D01*
X90340693Y-57999999D01*
X90340693Y-58000000D01*
X90359850Y-58157781D01*
X90373437Y-58193605D01*
X90416213Y-58306395D01*
X90506502Y-58437201D01*
X90506504Y-58437203D01*
X90506506Y-58437205D01*
X90625469Y-58542598D01*
X90625471Y-58542599D01*
X90766207Y-58616463D01*
X90843368Y-58635481D01*
X90920528Y-58654500D01*
X90920529Y-58654500D01*
X91079472Y-58654500D01*
X91218599Y-58620208D01*
X91288401Y-58623277D01*
X91326246Y-58646871D01*
X91326361Y-58646699D01*
X91331808Y-58650339D01*
X91335955Y-58652924D01*
X91336514Y-58653483D01*
X91342948Y-58657782D01*
X91420699Y-58709734D01*
X91420702Y-58709734D01*
X91420703Y-58709735D01*
X91445666Y-58714700D01*
X91494933Y-58724500D01*
X94545066Y-58724499D01*
X94619301Y-58709734D01*
X94703484Y-58653484D01*
X94759734Y-58569301D01*
X94774500Y-58495067D01*
X94774499Y-57444934D01*
X94759734Y-57370699D01*
X94711316Y-57298237D01*
X94703484Y-57286515D01*
X94653019Y-57252796D01*
X94619301Y-57230266D01*
X94619299Y-57230265D01*
X94619296Y-57230264D01*
X94545069Y-57215500D01*
X91494936Y-57215500D01*
X91420698Y-57230266D01*
X91336515Y-57286515D01*
X91314652Y-57319236D01*
X91261039Y-57364040D01*
X91191714Y-57372746D01*
X91181876Y-57370740D01*
X91079472Y-57345500D01*
X91079471Y-57345500D01*
X90920529Y-57345500D01*
X90920528Y-57345500D01*
X90766208Y-57383536D01*
X90625469Y-57457401D01*
X90506506Y-57562794D01*
X90506500Y-57562801D01*
X90416214Y-57693602D01*
X90359850Y-57842218D01*
X90340693Y-57999999D01*
X89734500Y-57999999D01*
X89734499Y-57444934D01*
X89719734Y-57370699D01*
X89671316Y-57298237D01*
X89663484Y-57286515D01*
X89613019Y-57252796D01*
X89579301Y-57230266D01*
X89579299Y-57230265D01*
X89579296Y-57230264D01*
X89505069Y-57215500D01*
X86454936Y-57215500D01*
X86380698Y-57230266D01*
X86296515Y-57286515D01*
X86240266Y-57370699D01*
X86240264Y-57370703D01*
X86225500Y-57444928D01*
X86225500Y-57723263D01*
X86205815Y-57790302D01*
X86153011Y-57836057D01*
X86086562Y-57846360D01*
X86079475Y-57845500D01*
X86079471Y-57845500D01*
X85920529Y-57845500D01*
X85920528Y-57845500D01*
X85766208Y-57883536D01*
X85625469Y-57957401D01*
X85506506Y-58062794D01*
X85506500Y-58062801D01*
X85416214Y-58193602D01*
X85359850Y-58342218D01*
X85340693Y-58499999D01*
X55020000Y-58499999D01*
X55020000Y-58220000D01*
X53270000Y-58220000D01*
X53270000Y-58970000D01*
X52770000Y-58970000D01*
X52770000Y-58220000D01*
X51020000Y-58220000D01*
X51020000Y-58517844D01*
X49979999Y-58517844D01*
X49980000Y-58517827D01*
X49980000Y-58220000D01*
X48230000Y-58220000D01*
X48230000Y-58970000D01*
X47746990Y-58970000D01*
X47730067Y-58918686D01*
X47730000Y-58914601D01*
X47730000Y-57720000D01*
X48230000Y-57720000D01*
X49980000Y-57720000D01*
X49980000Y-57422172D01*
X49979999Y-57422155D01*
X51020000Y-57422155D01*
X51020000Y-57720000D01*
X52770000Y-57720000D01*
X53270000Y-57720000D01*
X55020000Y-57720000D01*
X55020000Y-57422172D01*
X55019999Y-57422155D01*
X55013598Y-57362627D01*
X55013596Y-57362620D01*
X54963354Y-57227913D01*
X54963350Y-57227906D01*
X54877190Y-57112812D01*
X54877187Y-57112809D01*
X54762093Y-57026649D01*
X54762086Y-57026645D01*
X54627379Y-56976403D01*
X54627372Y-56976401D01*
X54567844Y-56970000D01*
X53270000Y-56970000D01*
X53270000Y-57720000D01*
X52770000Y-57720000D01*
X52770000Y-56970000D01*
X51472155Y-56970000D01*
X51412627Y-56976401D01*
X51412620Y-56976403D01*
X51277913Y-57026645D01*
X51277906Y-57026649D01*
X51162812Y-57112809D01*
X51162809Y-57112812D01*
X51076649Y-57227906D01*
X51076645Y-57227913D01*
X51026403Y-57362620D01*
X51026401Y-57362627D01*
X51020000Y-57422155D01*
X49979999Y-57422155D01*
X49973598Y-57362627D01*
X49973596Y-57362620D01*
X49923354Y-57227913D01*
X49923350Y-57227906D01*
X49837190Y-57112812D01*
X49837187Y-57112809D01*
X49722093Y-57026649D01*
X49722086Y-57026645D01*
X49587379Y-56976403D01*
X49587372Y-56976401D01*
X49527844Y-56970000D01*
X48230000Y-56970000D01*
X48230000Y-57720000D01*
X47730000Y-57720000D01*
X47730000Y-56970000D01*
X46432155Y-56970000D01*
X46372627Y-56976401D01*
X46372620Y-56976403D01*
X46237913Y-57026645D01*
X46237906Y-57026649D01*
X46122812Y-57112809D01*
X46122809Y-57112812D01*
X46036647Y-57227909D01*
X46033330Y-57233984D01*
X45983923Y-57283387D01*
X45915649Y-57298237D01*
X45850186Y-57273817D01*
X45808317Y-57217882D01*
X45800500Y-57174553D01*
X45800500Y-56225446D01*
X45820185Y-56158407D01*
X45872989Y-56112652D01*
X45942147Y-56102708D01*
X46005703Y-56131733D01*
X46033332Y-56166018D01*
X46036649Y-56172093D01*
X46122809Y-56287187D01*
X46122812Y-56287190D01*
X46237906Y-56373350D01*
X46237913Y-56373354D01*
X46372620Y-56423596D01*
X46372627Y-56423598D01*
X46432155Y-56429999D01*
X46432172Y-56430000D01*
X47730000Y-56430000D01*
X48230000Y-56430000D01*
X49527828Y-56430000D01*
X49527844Y-56429999D01*
X49587372Y-56423598D01*
X49587379Y-56423596D01*
X49722086Y-56373354D01*
X49722093Y-56373350D01*
X49837187Y-56287190D01*
X49837190Y-56287187D01*
X49923350Y-56172093D01*
X49923354Y-56172086D01*
X49973596Y-56037379D01*
X49973598Y-56037372D01*
X49977617Y-55999999D01*
X50590693Y-55999999D01*
X50590693Y-56000000D01*
X50609850Y-56157781D01*
X50635513Y-56225446D01*
X50658929Y-56287190D01*
X50666214Y-56306397D01*
X50736388Y-56408061D01*
X50756502Y-56437201D01*
X50756504Y-56437203D01*
X50756506Y-56437205D01*
X50875469Y-56542598D01*
X50875471Y-56542599D01*
X51016207Y-56616463D01*
X51093368Y-56635481D01*
X51170528Y-56654500D01*
X51170529Y-56654500D01*
X51329472Y-56654500D01*
X51380911Y-56641821D01*
X51483793Y-56616463D01*
X51624529Y-56542599D01*
X51743498Y-56437201D01*
X51763612Y-56408059D01*
X51817894Y-56364070D01*
X51865662Y-56354500D01*
X52496669Y-56354500D01*
X52496671Y-56354500D01*
X52586832Y-56330341D01*
X52667668Y-56283671D01*
X52730520Y-56220817D01*
X52791843Y-56187333D01*
X52818202Y-56184499D01*
X54545064Y-56184499D01*
X54545066Y-56184499D01*
X54619301Y-56169734D01*
X54703484Y-56113484D01*
X54759734Y-56029301D01*
X54774500Y-55955067D01*
X54774499Y-54904934D01*
X54759734Y-54830699D01*
X54741068Y-54802765D01*
X54738400Y-54798772D01*
X85235218Y-54798772D01*
X85235218Y-54798773D01*
X85254375Y-54956554D01*
X85294952Y-55063546D01*
X85310738Y-55105168D01*
X85401027Y-55235974D01*
X85401029Y-55235976D01*
X85401031Y-55235978D01*
X85519994Y-55341371D01*
X85519996Y-55341372D01*
X85660732Y-55415236D01*
X85737893Y-55434254D01*
X85815053Y-55453273D01*
X85856000Y-55453273D01*
X85923039Y-55472958D01*
X85968794Y-55525762D01*
X85980000Y-55577273D01*
X85980000Y-55977844D01*
X85986401Y-56037372D01*
X85986403Y-56037379D01*
X86036645Y-56172086D01*
X86036649Y-56172093D01*
X86122809Y-56287187D01*
X86122812Y-56287190D01*
X86237906Y-56373350D01*
X86237913Y-56373354D01*
X86372620Y-56423596D01*
X86372627Y-56423598D01*
X86432155Y-56429999D01*
X86432172Y-56430000D01*
X87730000Y-56430000D01*
X88230000Y-56430000D01*
X89527828Y-56430000D01*
X89527844Y-56429999D01*
X89587372Y-56423598D01*
X89587379Y-56423596D01*
X89722086Y-56373354D01*
X89722093Y-56373350D01*
X89837187Y-56287190D01*
X89837190Y-56287187D01*
X89923350Y-56172093D01*
X89923354Y-56172086D01*
X89973596Y-56037379D01*
X89973598Y-56037372D01*
X89979999Y-55977844D01*
X91020000Y-55977844D01*
X91026401Y-56037372D01*
X91026403Y-56037379D01*
X91076645Y-56172086D01*
X91076649Y-56172093D01*
X91162809Y-56287187D01*
X91162812Y-56287190D01*
X91277906Y-56373350D01*
X91277913Y-56373354D01*
X91412620Y-56423596D01*
X91412627Y-56423598D01*
X91472155Y-56429999D01*
X91472172Y-56430000D01*
X92770000Y-56430000D01*
X92770000Y-55680000D01*
X91020000Y-55680000D01*
X91020000Y-55977844D01*
X89979999Y-55977844D01*
X89980000Y-55977827D01*
X89980000Y-55680000D01*
X88230000Y-55680000D01*
X88230000Y-56430000D01*
X87730000Y-56430000D01*
X87730000Y-55180000D01*
X88230000Y-55180000D01*
X89980000Y-55180000D01*
X89980000Y-54882172D01*
X89979999Y-54882155D01*
X89973598Y-54822627D01*
X89973596Y-54822620D01*
X89923354Y-54687913D01*
X89923350Y-54687906D01*
X89837190Y-54572812D01*
X89837187Y-54572809D01*
X89722093Y-54486649D01*
X89722086Y-54486645D01*
X89587379Y-54436403D01*
X89587372Y-54436401D01*
X89527844Y-54430000D01*
X88230000Y-54430000D01*
X88230000Y-55180000D01*
X87730000Y-55180000D01*
X87730000Y-54430000D01*
X86500336Y-54430000D01*
X86433297Y-54410315D01*
X86398287Y-54376441D01*
X86388026Y-54361576D01*
X86388024Y-54361574D01*
X86388023Y-54361572D01*
X86388020Y-54361569D01*
X86388018Y-54361567D01*
X86301961Y-54285327D01*
X86264834Y-54226138D01*
X86265602Y-54156272D01*
X86296505Y-54104833D01*
X86720520Y-53680817D01*
X86781843Y-53647333D01*
X86808201Y-53644499D01*
X89505064Y-53644499D01*
X89505066Y-53644499D01*
X89579301Y-53629734D01*
X89663484Y-53573484D01*
X89719734Y-53489301D01*
X89734500Y-53415067D01*
X89734499Y-52364934D01*
X89719734Y-52290699D01*
X89671316Y-52218237D01*
X89663484Y-52206515D01*
X89613019Y-52172796D01*
X89579301Y-52150266D01*
X89579299Y-52150265D01*
X89579296Y-52150264D01*
X89505069Y-52135500D01*
X86454936Y-52135500D01*
X86380698Y-52150266D01*
X86296515Y-52206515D01*
X86240266Y-52290699D01*
X86240264Y-52290703D01*
X86225500Y-52364928D01*
X86225500Y-53121798D01*
X86205815Y-53188837D01*
X86189181Y-53209479D01*
X85676857Y-53721804D01*
X85610855Y-53787805D01*
X85610853Y-53787808D01*
X85564184Y-53868642D01*
X85540025Y-53958805D01*
X85540025Y-54182622D01*
X85520340Y-54249661D01*
X85498253Y-54275437D01*
X85401027Y-54361571D01*
X85401025Y-54361574D01*
X85310739Y-54492375D01*
X85254375Y-54640991D01*
X85235218Y-54798772D01*
X54738400Y-54798772D01*
X54703484Y-54746515D01*
X54636251Y-54701592D01*
X54619301Y-54690266D01*
X54619299Y-54690265D01*
X54619296Y-54690264D01*
X54545071Y-54675500D01*
X53506078Y-54675500D01*
X53439039Y-54655815D01*
X53393284Y-54603011D01*
X53383340Y-54533853D01*
X53412365Y-54470297D01*
X53423839Y-54458695D01*
X53443589Y-54441199D01*
X53533878Y-54310393D01*
X53590240Y-54161780D01*
X53609398Y-54003998D01*
X53607321Y-53986888D01*
X53590240Y-53846215D01*
X53577442Y-53812470D01*
X53572075Y-53742807D01*
X53605222Y-53681301D01*
X53666360Y-53647479D01*
X53693384Y-53644499D01*
X54545064Y-53644499D01*
X54545066Y-53644499D01*
X54619301Y-53629734D01*
X54703484Y-53573484D01*
X54759734Y-53489301D01*
X54774500Y-53415067D01*
X54774499Y-52364934D01*
X54759734Y-52290699D01*
X54711316Y-52218237D01*
X54703484Y-52206515D01*
X54653019Y-52172796D01*
X54619301Y-52150266D01*
X54619299Y-52150265D01*
X54619296Y-52150264D01*
X54545069Y-52135500D01*
X51494936Y-52135500D01*
X51420698Y-52150266D01*
X51336515Y-52206515D01*
X51280266Y-52290699D01*
X51280264Y-52290703D01*
X51265500Y-52364928D01*
X51265500Y-53415063D01*
X51280266Y-53489301D01*
X51336515Y-53573484D01*
X51363827Y-53591733D01*
X51420699Y-53629734D01*
X51420702Y-53629734D01*
X51420703Y-53629735D01*
X51445666Y-53634700D01*
X51494933Y-53644500D01*
X52206798Y-53644499D01*
X52273837Y-53664183D01*
X52319592Y-53716987D01*
X52329536Y-53786146D01*
X52322740Y-53812470D01*
X52309941Y-53846215D01*
X52290784Y-54003997D01*
X52290784Y-54003998D01*
X52309941Y-54161779D01*
X52366305Y-54310395D01*
X52408485Y-54371503D01*
X52456593Y-54441199D01*
X52456595Y-54441201D01*
X52456597Y-54441203D01*
X52476330Y-54458685D01*
X52513457Y-54517874D01*
X52512689Y-54587740D01*
X52474271Y-54646099D01*
X52410401Y-54674424D01*
X52394103Y-54675500D01*
X51494936Y-54675500D01*
X51420698Y-54690266D01*
X51336515Y-54746515D01*
X51280266Y-54830699D01*
X51280264Y-54830703D01*
X51265500Y-54904928D01*
X51265500Y-55224943D01*
X51245815Y-55291982D01*
X51193011Y-55337737D01*
X51171176Y-55345340D01*
X51016208Y-55383536D01*
X50875469Y-55457401D01*
X50756506Y-55562794D01*
X50756500Y-55562801D01*
X50666214Y-55693602D01*
X50609850Y-55842218D01*
X50590693Y-55999999D01*
X49977617Y-55999999D01*
X49979999Y-55977844D01*
X49980000Y-55977827D01*
X49980000Y-55680000D01*
X48230000Y-55680000D01*
X48230000Y-56430000D01*
X47730000Y-56430000D01*
X47730000Y-55180000D01*
X48230000Y-55180000D01*
X49980000Y-55180000D01*
X49980000Y-54882172D01*
X49979999Y-54882155D01*
X49973598Y-54822627D01*
X49973596Y-54822620D01*
X49923354Y-54687913D01*
X49923350Y-54687906D01*
X49837190Y-54572812D01*
X49837187Y-54572809D01*
X49722093Y-54486649D01*
X49722086Y-54486645D01*
X49587379Y-54436403D01*
X49587372Y-54436401D01*
X49527844Y-54430000D01*
X48230000Y-54430000D01*
X48230000Y-55180000D01*
X47730000Y-55180000D01*
X47730000Y-54430000D01*
X46432155Y-54430000D01*
X46372627Y-54436401D01*
X46372620Y-54436403D01*
X46237913Y-54486645D01*
X46237906Y-54486649D01*
X46122812Y-54572809D01*
X46122809Y-54572812D01*
X46036647Y-54687909D01*
X46033330Y-54693984D01*
X45983923Y-54743387D01*
X45915649Y-54758237D01*
X45850186Y-54733817D01*
X45808317Y-54677882D01*
X45800500Y-54634553D01*
X45800500Y-53685446D01*
X45820185Y-53618407D01*
X45872989Y-53572652D01*
X45942147Y-53562708D01*
X46005703Y-53591733D01*
X46033332Y-53626018D01*
X46036649Y-53632093D01*
X46122809Y-53747187D01*
X46122812Y-53747190D01*
X46237906Y-53833350D01*
X46237913Y-53833354D01*
X46372620Y-53883596D01*
X46372627Y-53883598D01*
X46432155Y-53889999D01*
X46432172Y-53890000D01*
X47730000Y-53890000D01*
X48230000Y-53890000D01*
X49527828Y-53890000D01*
X49527844Y-53889999D01*
X49587372Y-53883598D01*
X49587379Y-53883596D01*
X49722086Y-53833354D01*
X49722093Y-53833350D01*
X49837187Y-53747190D01*
X49837190Y-53747187D01*
X49923350Y-53632093D01*
X49923354Y-53632086D01*
X49973596Y-53497379D01*
X49973598Y-53497372D01*
X49979999Y-53437844D01*
X49980000Y-53437827D01*
X49980000Y-53140000D01*
X48230000Y-53140000D01*
X48230000Y-53890000D01*
X47730000Y-53890000D01*
X47730000Y-52640000D01*
X48230000Y-52640000D01*
X49980000Y-52640000D01*
X49980000Y-52342172D01*
X49979999Y-52342155D01*
X49973598Y-52282627D01*
X49973596Y-52282620D01*
X49923354Y-52147913D01*
X49923350Y-52147906D01*
X49837190Y-52032812D01*
X49837187Y-52032809D01*
X49722093Y-51946649D01*
X49722086Y-51946645D01*
X49587379Y-51896403D01*
X49587372Y-51896401D01*
X49527844Y-51890000D01*
X48230000Y-51890000D01*
X48230000Y-52640000D01*
X47730000Y-52640000D01*
X47730000Y-51890000D01*
X46432155Y-51890000D01*
X46372627Y-51896401D01*
X46372620Y-51896403D01*
X46237913Y-51946645D01*
X46237906Y-51946649D01*
X46122812Y-52032809D01*
X46122809Y-52032812D01*
X46036647Y-52147909D01*
X46033330Y-52153984D01*
X45983923Y-52203387D01*
X45915649Y-52218237D01*
X45850186Y-52193817D01*
X45808317Y-52137882D01*
X45800500Y-52094553D01*
X45800500Y-51145446D01*
X45820185Y-51078407D01*
X45872989Y-51032652D01*
X45942147Y-51022708D01*
X46005703Y-51051733D01*
X46033332Y-51086018D01*
X46036649Y-51092093D01*
X46122809Y-51207187D01*
X46122812Y-51207190D01*
X46237906Y-51293350D01*
X46237913Y-51293354D01*
X46372620Y-51343596D01*
X46372627Y-51343598D01*
X46432155Y-51349999D01*
X46432172Y-51350000D01*
X47730000Y-51350000D01*
X48230000Y-51350000D01*
X49527828Y-51350000D01*
X49527844Y-51349999D01*
X49587372Y-51343598D01*
X49587379Y-51343596D01*
X49722086Y-51293354D01*
X49722093Y-51293350D01*
X49837187Y-51207190D01*
X49837190Y-51207187D01*
X49923350Y-51092093D01*
X49923354Y-51092086D01*
X49973596Y-50957379D01*
X49973598Y-50957372D01*
X49979999Y-50897844D01*
X49980000Y-50897827D01*
X49980000Y-50600000D01*
X48230000Y-50600000D01*
X48230000Y-51350000D01*
X47730000Y-51350000D01*
X47730000Y-50249999D01*
X50590693Y-50249999D01*
X50590693Y-50250000D01*
X50609850Y-50407781D01*
X50650427Y-50514773D01*
X50666213Y-50556395D01*
X50756502Y-50687201D01*
X50756504Y-50687203D01*
X50756506Y-50687205D01*
X50875469Y-50792598D01*
X50875471Y-50792599D01*
X51016207Y-50866463D01*
X51093368Y-50885481D01*
X51170528Y-50904500D01*
X51170529Y-50904500D01*
X51184052Y-50904500D01*
X51251091Y-50924185D01*
X51287154Y-50959609D01*
X51336515Y-51033484D01*
X51363827Y-51051733D01*
X51420699Y-51089734D01*
X51420702Y-51089734D01*
X51420703Y-51089735D01*
X51445666Y-51094700D01*
X51494933Y-51104500D01*
X54545066Y-51104499D01*
X54619301Y-51089734D01*
X54703484Y-51033484D01*
X54759734Y-50949301D01*
X54774500Y-50875067D01*
X54774499Y-50249999D01*
X85310362Y-50249999D01*
X85310362Y-50250000D01*
X85329519Y-50407781D01*
X85370096Y-50514773D01*
X85385882Y-50556395D01*
X85476171Y-50687201D01*
X85476173Y-50687203D01*
X85476175Y-50687205D01*
X85595138Y-50792598D01*
X85595140Y-50792599D01*
X85735876Y-50866463D01*
X85813037Y-50885481D01*
X85890197Y-50904500D01*
X85890198Y-50904500D01*
X86049142Y-50904500D01*
X86049142Y-50904499D01*
X86103083Y-50891204D01*
X86172885Y-50894272D01*
X86229948Y-50934591D01*
X86235862Y-50942709D01*
X86240265Y-50949299D01*
X86240266Y-50949301D01*
X86245659Y-50957372D01*
X86296515Y-51033484D01*
X86323827Y-51051733D01*
X86380699Y-51089734D01*
X86380702Y-51089734D01*
X86380703Y-51089735D01*
X86405666Y-51094700D01*
X86454933Y-51104500D01*
X89505066Y-51104499D01*
X89579301Y-51089734D01*
X89663484Y-51033484D01*
X89719734Y-50949301D01*
X89734500Y-50875067D01*
X89734499Y-49824934D01*
X89719734Y-49750699D01*
X89690803Y-49707401D01*
X89663484Y-49666515D01*
X89587740Y-49615905D01*
X89579301Y-49610266D01*
X89579299Y-49610265D01*
X89579296Y-49610264D01*
X89505069Y-49595500D01*
X86454936Y-49595500D01*
X86380698Y-49610266D01*
X86344490Y-49634460D01*
X86277812Y-49655337D01*
X86217977Y-49641155D01*
X86203462Y-49633537D01*
X86203458Y-49633536D01*
X86049141Y-49595500D01*
X86049140Y-49595500D01*
X85890198Y-49595500D01*
X85890197Y-49595500D01*
X85735877Y-49633536D01*
X85595138Y-49707401D01*
X85476175Y-49812794D01*
X85476169Y-49812801D01*
X85385883Y-49943602D01*
X85329519Y-50092218D01*
X85310362Y-50249999D01*
X54774499Y-50249999D01*
X54774499Y-49824934D01*
X54759734Y-49750699D01*
X54730803Y-49707401D01*
X54703484Y-49666515D01*
X54627740Y-49615905D01*
X54619301Y-49610266D01*
X54619299Y-49610265D01*
X54619296Y-49610264D01*
X54545069Y-49595500D01*
X51494936Y-49595500D01*
X51463780Y-49601697D01*
X51430433Y-49608329D01*
X51376571Y-49607109D01*
X51329471Y-49595500D01*
X51170529Y-49595500D01*
X51170528Y-49595500D01*
X51016208Y-49633536D01*
X50875469Y-49707401D01*
X50756506Y-49812794D01*
X50756500Y-49812801D01*
X50666214Y-49943602D01*
X50609850Y-50092218D01*
X50590693Y-50249999D01*
X47730000Y-50249999D01*
X47730000Y-50100000D01*
X48230000Y-50100000D01*
X49980000Y-50100000D01*
X49980000Y-49802172D01*
X49979999Y-49802155D01*
X49973598Y-49742627D01*
X49973596Y-49742620D01*
X49923354Y-49607913D01*
X49923350Y-49607906D01*
X49842570Y-49499999D01*
X90590693Y-49499999D01*
X90590693Y-49500000D01*
X90609850Y-49657781D01*
X90617616Y-49678257D01*
X90664611Y-49802172D01*
X90666214Y-49806397D01*
X90679011Y-49824936D01*
X90756502Y-49937201D01*
X90756504Y-49937203D01*
X90756506Y-49937205D01*
X90875469Y-50042598D01*
X90875471Y-50042599D01*
X91016207Y-50116463D01*
X91170529Y-50154500D01*
X91170530Y-50154500D01*
X91171175Y-50154659D01*
X91231556Y-50189815D01*
X91263344Y-50252035D01*
X91265500Y-50275056D01*
X91265500Y-50875063D01*
X91280266Y-50949301D01*
X91336515Y-51033484D01*
X91363827Y-51051733D01*
X91420699Y-51089734D01*
X91420702Y-51089734D01*
X91420703Y-51089735D01*
X91445666Y-51094700D01*
X91494933Y-51104500D01*
X94545066Y-51104499D01*
X94619301Y-51089734D01*
X94703484Y-51033484D01*
X94759734Y-50949301D01*
X94774500Y-50875067D01*
X94774499Y-49824934D01*
X94759734Y-49750699D01*
X94730803Y-49707401D01*
X94703484Y-49666515D01*
X94627740Y-49615905D01*
X94619301Y-49610266D01*
X94619299Y-49610265D01*
X94619296Y-49610264D01*
X94545071Y-49595500D01*
X94545067Y-49595500D01*
X92030757Y-49595500D01*
X91963718Y-49575815D01*
X91917963Y-49523011D01*
X91907661Y-49486446D01*
X91890149Y-49342218D01*
X91833787Y-49193605D01*
X91743498Y-49062799D01*
X91743495Y-49062796D01*
X91743493Y-49062794D01*
X91702881Y-49026815D01*
X91665754Y-48967626D01*
X91666522Y-48897760D01*
X91704940Y-48839401D01*
X91768810Y-48811076D01*
X91785108Y-48810000D01*
X92770000Y-48810000D01*
X92770000Y-48060000D01*
X91020000Y-48060000D01*
X91020000Y-48357844D01*
X91026401Y-48417372D01*
X91026403Y-48417379D01*
X91076645Y-48552086D01*
X91076647Y-48552089D01*
X91164490Y-48669431D01*
X91188908Y-48734896D01*
X91174057Y-48803169D01*
X91124652Y-48852575D01*
X91094901Y-48864139D01*
X91016211Y-48883535D01*
X91016210Y-48883535D01*
X90875469Y-48957401D01*
X90756506Y-49062794D01*
X90756500Y-49062801D01*
X90666214Y-49193602D01*
X90609850Y-49342218D01*
X90590693Y-49499999D01*
X49842570Y-49499999D01*
X49837190Y-49492812D01*
X49837187Y-49492809D01*
X49722093Y-49406649D01*
X49722086Y-49406645D01*
X49587379Y-49356403D01*
X49587372Y-49356401D01*
X49527844Y-49350000D01*
X48230000Y-49350000D01*
X48230000Y-50100000D01*
X47730000Y-50100000D01*
X47730000Y-49350000D01*
X46432155Y-49350000D01*
X46372627Y-49356401D01*
X46372620Y-49356403D01*
X46237913Y-49406645D01*
X46237906Y-49406649D01*
X46122812Y-49492809D01*
X46122809Y-49492812D01*
X46036647Y-49607909D01*
X46033330Y-49613984D01*
X45983923Y-49663387D01*
X45915649Y-49678237D01*
X45850186Y-49653817D01*
X45808317Y-49597882D01*
X45800500Y-49554553D01*
X45800500Y-48605446D01*
X45820185Y-48538407D01*
X45872989Y-48492652D01*
X45942147Y-48482708D01*
X46005703Y-48511733D01*
X46033332Y-48546018D01*
X46036649Y-48552093D01*
X46122809Y-48667187D01*
X46122812Y-48667190D01*
X46237906Y-48753350D01*
X46237913Y-48753354D01*
X46372620Y-48803596D01*
X46372627Y-48803598D01*
X46432155Y-48809999D01*
X46432172Y-48810000D01*
X47730000Y-48810000D01*
X48230000Y-48810000D01*
X49527828Y-48810000D01*
X49527844Y-48809999D01*
X49587372Y-48803598D01*
X49587379Y-48803596D01*
X49722086Y-48753354D01*
X49722093Y-48753350D01*
X49837187Y-48667190D01*
X49837190Y-48667187D01*
X49923350Y-48552093D01*
X49923354Y-48552086D01*
X49973596Y-48417379D01*
X49973598Y-48417372D01*
X49979999Y-48357844D01*
X49980000Y-48357827D01*
X49980000Y-48060000D01*
X48230000Y-48060000D01*
X48230000Y-48810000D01*
X47730000Y-48810000D01*
X47730000Y-47560000D01*
X48230000Y-47560000D01*
X49980000Y-47560000D01*
X49980000Y-47284928D01*
X51265500Y-47284928D01*
X51265500Y-48335063D01*
X51280266Y-48409301D01*
X51336515Y-48493484D01*
X51355515Y-48506179D01*
X51420699Y-48549734D01*
X51420702Y-48549734D01*
X51420703Y-48549735D01*
X51445666Y-48554700D01*
X51494933Y-48564500D01*
X53221797Y-48564499D01*
X53288836Y-48584184D01*
X53309478Y-48600818D01*
X53337002Y-48628342D01*
X53365261Y-48672049D01*
X53415152Y-48803598D01*
X53416214Y-48806397D01*
X53418701Y-48810000D01*
X53506502Y-48937201D01*
X53506504Y-48937203D01*
X53506506Y-48937205D01*
X53625469Y-49042598D01*
X53625471Y-49042599D01*
X53766207Y-49116463D01*
X53843368Y-49135481D01*
X53920528Y-49154500D01*
X53920529Y-49154500D01*
X54079472Y-49154500D01*
X54130911Y-49141821D01*
X54233793Y-49116463D01*
X54374529Y-49042599D01*
X54493498Y-48937201D01*
X54583787Y-48806395D01*
X54640149Y-48657782D01*
X54649404Y-48581556D01*
X54677025Y-48517379D01*
X54703191Y-48493777D01*
X54703483Y-48493485D01*
X54711316Y-48481762D01*
X54759734Y-48409301D01*
X54769969Y-48357844D01*
X85980000Y-48357844D01*
X85986401Y-48417372D01*
X85986403Y-48417379D01*
X86036645Y-48552086D01*
X86036649Y-48552093D01*
X86122809Y-48667187D01*
X86122812Y-48667190D01*
X86237906Y-48753350D01*
X86237913Y-48753354D01*
X86372620Y-48803596D01*
X86372627Y-48803598D01*
X86432155Y-48809999D01*
X86432172Y-48810000D01*
X87730000Y-48810000D01*
X88230000Y-48810000D01*
X89527828Y-48810000D01*
X89527844Y-48809999D01*
X89587372Y-48803598D01*
X89587379Y-48803596D01*
X89722086Y-48753354D01*
X89722093Y-48753350D01*
X89837187Y-48667190D01*
X89837190Y-48667187D01*
X89923350Y-48552093D01*
X89923354Y-48552086D01*
X89973596Y-48417379D01*
X89973598Y-48417372D01*
X89979999Y-48357844D01*
X89980000Y-48357827D01*
X89980000Y-48060000D01*
X88230000Y-48060000D01*
X88230000Y-48810000D01*
X87730000Y-48810000D01*
X87730000Y-48060000D01*
X85980000Y-48060000D01*
X85980000Y-48357844D01*
X54769969Y-48357844D01*
X54774500Y-48335067D01*
X54774499Y-47284934D01*
X54769968Y-47262155D01*
X85980000Y-47262155D01*
X85980000Y-47560000D01*
X87730000Y-47560000D01*
X87730000Y-46810000D01*
X86432155Y-46810000D01*
X86372627Y-46816401D01*
X86372620Y-46816403D01*
X86237913Y-46866645D01*
X86237906Y-46866649D01*
X86122812Y-46952809D01*
X86122809Y-46952812D01*
X86036649Y-47067906D01*
X86036645Y-47067913D01*
X85986403Y-47202620D01*
X85986401Y-47202627D01*
X85980000Y-47262155D01*
X54769968Y-47262155D01*
X54759734Y-47210699D01*
X54710684Y-47137291D01*
X54703484Y-47126515D01*
X54636251Y-47081592D01*
X54619301Y-47070266D01*
X54619299Y-47070265D01*
X54619296Y-47070264D01*
X54545069Y-47055500D01*
X51494936Y-47055500D01*
X51420698Y-47070266D01*
X51336515Y-47126515D01*
X51280266Y-47210699D01*
X51280264Y-47210703D01*
X51265500Y-47284928D01*
X49980000Y-47284928D01*
X49980000Y-47262172D01*
X49979999Y-47262155D01*
X49973598Y-47202627D01*
X49973596Y-47202620D01*
X49923354Y-47067913D01*
X49923350Y-47067906D01*
X49837190Y-46952812D01*
X49837187Y-46952809D01*
X49722093Y-46866649D01*
X49722086Y-46866645D01*
X49587379Y-46816403D01*
X49587372Y-46816401D01*
X49527844Y-46810000D01*
X48230000Y-46810000D01*
X48230000Y-47560000D01*
X47730000Y-47560000D01*
X47730000Y-46810000D01*
X46432155Y-46810000D01*
X46372627Y-46816401D01*
X46372620Y-46816403D01*
X46237913Y-46866645D01*
X46237906Y-46866649D01*
X46122812Y-46952809D01*
X46122809Y-46952812D01*
X46036647Y-47067909D01*
X46033330Y-47073984D01*
X45983923Y-47123387D01*
X45915649Y-47138237D01*
X45850186Y-47113817D01*
X45808317Y-47057882D01*
X45800500Y-47014553D01*
X45800500Y-46065446D01*
X45820185Y-45998407D01*
X45872989Y-45952652D01*
X45942147Y-45942708D01*
X46005703Y-45971733D01*
X46033332Y-46006018D01*
X46036649Y-46012093D01*
X46122809Y-46127187D01*
X46122812Y-46127190D01*
X46237906Y-46213350D01*
X46237913Y-46213354D01*
X46372620Y-46263596D01*
X46372627Y-46263598D01*
X46432155Y-46269999D01*
X46432172Y-46270000D01*
X47730000Y-46270000D01*
X48230000Y-46270000D01*
X49527828Y-46270000D01*
X49527844Y-46269999D01*
X49587372Y-46263598D01*
X49587379Y-46263596D01*
X49722086Y-46213354D01*
X49722093Y-46213350D01*
X49837187Y-46127190D01*
X49837190Y-46127187D01*
X49923350Y-46012093D01*
X49923354Y-46012086D01*
X49973596Y-45877379D01*
X49973598Y-45877372D01*
X49979999Y-45817844D01*
X49980000Y-45817827D01*
X49980000Y-45749999D01*
X50840693Y-45749999D01*
X50840693Y-45750000D01*
X50859850Y-45907781D01*
X50897773Y-46007774D01*
X50910416Y-46041111D01*
X50916214Y-46056397D01*
X50949437Y-46104528D01*
X51006502Y-46187201D01*
X51006504Y-46187203D01*
X51006506Y-46187205D01*
X51125469Y-46292598D01*
X51125471Y-46292599D01*
X51266207Y-46366463D01*
X51343368Y-46385481D01*
X51420528Y-46404500D01*
X51420529Y-46404500D01*
X51579472Y-46404500D01*
X51630911Y-46391821D01*
X51733793Y-46366463D01*
X51874529Y-46292599D01*
X51993498Y-46187201D01*
X52013612Y-46158059D01*
X52067894Y-46114070D01*
X52115662Y-46104500D01*
X52586669Y-46104500D01*
X52586671Y-46104500D01*
X52676832Y-46080341D01*
X52744781Y-46041110D01*
X52806780Y-46024499D01*
X54545064Y-46024499D01*
X54545066Y-46024499D01*
X54619301Y-46009734D01*
X54703484Y-45953484D01*
X54759734Y-45869301D01*
X54774500Y-45795067D01*
X54774499Y-44744934D01*
X54759734Y-44670699D01*
X54728436Y-44623859D01*
X54703484Y-44586515D01*
X54653019Y-44552796D01*
X54619301Y-44530266D01*
X54619299Y-44530265D01*
X54619296Y-44530264D01*
X54545069Y-44515500D01*
X51494936Y-44515500D01*
X51420698Y-44530266D01*
X51336515Y-44586515D01*
X51280266Y-44670699D01*
X51280264Y-44670703D01*
X51265500Y-44744928D01*
X51265500Y-45058947D01*
X51245815Y-45125986D01*
X51199127Y-45168743D01*
X51125471Y-45207401D01*
X51125466Y-45207404D01*
X51006506Y-45312794D01*
X51006500Y-45312801D01*
X50916214Y-45443602D01*
X50859850Y-45592218D01*
X50840693Y-45749999D01*
X49980000Y-45749999D01*
X49980000Y-45520000D01*
X48230000Y-45520000D01*
X48230000Y-46270000D01*
X47730000Y-46270000D01*
X47730000Y-45020000D01*
X48230000Y-45020000D01*
X49980000Y-45020000D01*
X49980000Y-44722172D01*
X49979999Y-44722155D01*
X49973598Y-44662627D01*
X49973596Y-44662620D01*
X49923354Y-44527913D01*
X49923350Y-44527906D01*
X49837190Y-44412812D01*
X49837187Y-44412809D01*
X49722093Y-44326649D01*
X49722086Y-44326645D01*
X49587379Y-44276403D01*
X49587372Y-44276401D01*
X49527844Y-44270000D01*
X48230000Y-44270000D01*
X48230000Y-45020000D01*
X47730000Y-45020000D01*
X47730000Y-44270000D01*
X46432155Y-44270000D01*
X46372627Y-44276401D01*
X46372620Y-44276403D01*
X46237913Y-44326645D01*
X46237906Y-44326649D01*
X46122812Y-44412809D01*
X46122809Y-44412812D01*
X46036647Y-44527909D01*
X46033330Y-44533984D01*
X45983923Y-44583387D01*
X45915649Y-44598237D01*
X45850186Y-44573817D01*
X45808317Y-44517882D01*
X45800500Y-44474553D01*
X45800500Y-39664928D01*
X46225500Y-39664928D01*
X46225500Y-40715063D01*
X46240266Y-40789301D01*
X46296515Y-40873484D01*
X46311561Y-40883537D01*
X46380699Y-40929734D01*
X46380702Y-40929734D01*
X46380703Y-40929735D01*
X46405666Y-40934700D01*
X46454933Y-40944500D01*
X48825950Y-40944499D01*
X48892989Y-40964184D01*
X48938744Y-41016987D01*
X48948688Y-41086146D01*
X48919663Y-41149702D01*
X48908182Y-41161310D01*
X48906506Y-41162794D01*
X48906500Y-41162801D01*
X48816214Y-41293602D01*
X48759850Y-41442218D01*
X48740693Y-41599999D01*
X48740693Y-41600000D01*
X48759851Y-41757782D01*
X48778717Y-41807529D01*
X48784084Y-41877193D01*
X48750936Y-41938699D01*
X48689798Y-41972520D01*
X48662775Y-41975500D01*
X46454936Y-41975500D01*
X46380698Y-41990266D01*
X46296515Y-42046515D01*
X46240266Y-42130699D01*
X46240264Y-42130703D01*
X46225500Y-42204928D01*
X46225500Y-43255063D01*
X46240266Y-43329301D01*
X46296515Y-43413484D01*
X46330234Y-43436014D01*
X46380699Y-43469734D01*
X46380702Y-43469734D01*
X46380703Y-43469735D01*
X46405666Y-43474700D01*
X46454933Y-43484500D01*
X49505066Y-43484499D01*
X49579301Y-43469734D01*
X49663484Y-43413484D01*
X49719734Y-43329301D01*
X49734500Y-43255067D01*
X49734499Y-42437639D01*
X49738724Y-42405546D01*
X49751853Y-42356548D01*
X49754500Y-42346671D01*
X49754500Y-42216150D01*
X49774185Y-42149111D01*
X49796273Y-42123335D01*
X49877213Y-42051628D01*
X49893498Y-42037201D01*
X49983787Y-41906395D01*
X50040149Y-41757782D01*
X50059307Y-41600000D01*
X50054789Y-41562794D01*
X50040149Y-41442218D01*
X50017894Y-41383537D01*
X49983787Y-41293605D01*
X49893498Y-41162799D01*
X49893495Y-41162796D01*
X49893493Y-41162794D01*
X49774529Y-41057401D01*
X49774527Y-41057399D01*
X49723397Y-41030564D01*
X49673184Y-40981979D01*
X49657210Y-40913960D01*
X49677920Y-40851878D01*
X49719734Y-40789301D01*
X49729969Y-40737844D01*
X51020000Y-40737844D01*
X51026401Y-40797372D01*
X51026403Y-40797379D01*
X51076645Y-40932086D01*
X51076649Y-40932093D01*
X51162809Y-41047187D01*
X51162812Y-41047190D01*
X51277906Y-41133350D01*
X51277913Y-41133354D01*
X51412620Y-41183596D01*
X51412627Y-41183598D01*
X51472155Y-41189999D01*
X51472172Y-41190000D01*
X52881873Y-41190000D01*
X52948912Y-41209685D01*
X52994667Y-41262489D01*
X53004611Y-41331647D01*
X52975586Y-41395203D01*
X52939500Y-41423795D01*
X52909416Y-41439584D01*
X52875468Y-41457402D01*
X52756506Y-41562794D01*
X52756500Y-41562801D01*
X52666214Y-41693602D01*
X52609851Y-41842217D01*
X52609848Y-41842226D01*
X52606907Y-41866450D01*
X52579284Y-41930627D01*
X52521349Y-41969682D01*
X52483812Y-41975500D01*
X51494936Y-41975500D01*
X51420698Y-41990266D01*
X51336515Y-42046515D01*
X51280266Y-42130699D01*
X51280264Y-42130703D01*
X51265500Y-42204928D01*
X51265500Y-43255063D01*
X51280266Y-43329301D01*
X51336515Y-43413484D01*
X51370234Y-43436014D01*
X51420699Y-43469734D01*
X51420702Y-43469734D01*
X51420703Y-43469735D01*
X51445666Y-43474700D01*
X51494933Y-43484500D01*
X54545066Y-43484499D01*
X54619301Y-43469734D01*
X54703484Y-43413484D01*
X54759734Y-43329301D01*
X54774500Y-43255067D01*
X54774499Y-42204934D01*
X54759734Y-42130699D01*
X54706900Y-42051628D01*
X54703484Y-42046515D01*
X54653019Y-42012796D01*
X54619301Y-41990266D01*
X54619299Y-41990265D01*
X54619296Y-41990264D01*
X54545071Y-41975500D01*
X54545067Y-41975500D01*
X54016187Y-41975500D01*
X53949148Y-41955815D01*
X53903393Y-41903011D01*
X53893091Y-41866447D01*
X53890149Y-41842218D01*
X53890149Y-41842217D01*
X53833787Y-41693605D01*
X53743498Y-41562799D01*
X53743495Y-41562796D01*
X53743493Y-41562794D01*
X53624531Y-41457402D01*
X53595600Y-41442218D01*
X53560499Y-41423795D01*
X53510289Y-41375212D01*
X53494314Y-41307193D01*
X53517649Y-41241335D01*
X53572885Y-41198548D01*
X53618127Y-41190000D01*
X54567828Y-41190000D01*
X54567844Y-41189999D01*
X54627372Y-41183598D01*
X54627379Y-41183596D01*
X54762086Y-41133354D01*
X54762093Y-41133350D01*
X54877187Y-41047190D01*
X54877190Y-41047187D01*
X54963350Y-40932093D01*
X54963354Y-40932086D01*
X55013596Y-40797379D01*
X55013598Y-40797372D01*
X55019999Y-40737844D01*
X85980000Y-40737844D01*
X85986401Y-40797372D01*
X85986403Y-40797379D01*
X86036645Y-40932086D01*
X86036649Y-40932093D01*
X86122809Y-41047187D01*
X86122812Y-41047190D01*
X86237906Y-41133350D01*
X86237913Y-41133354D01*
X86372620Y-41183596D01*
X86372627Y-41183598D01*
X86432155Y-41189999D01*
X86432172Y-41190000D01*
X87730000Y-41190000D01*
X88230000Y-41190000D01*
X89527828Y-41190000D01*
X89527844Y-41189999D01*
X89587372Y-41183598D01*
X89587379Y-41183596D01*
X89722086Y-41133354D01*
X89722093Y-41133350D01*
X89837187Y-41047190D01*
X89837190Y-41047187D01*
X89923350Y-40932093D01*
X89923354Y-40932086D01*
X89973596Y-40797379D01*
X89973598Y-40797372D01*
X89979999Y-40737844D01*
X89980000Y-40737827D01*
X89980000Y-40440000D01*
X88230000Y-40440000D01*
X88230000Y-41190000D01*
X87730000Y-41190000D01*
X87730000Y-40440000D01*
X85980000Y-40440000D01*
X85980000Y-40737844D01*
X55019999Y-40737844D01*
X55020000Y-40737827D01*
X55020000Y-40440000D01*
X51020000Y-40440000D01*
X51020000Y-40737844D01*
X49729969Y-40737844D01*
X49734500Y-40715067D01*
X49734499Y-39664934D01*
X49729968Y-39642155D01*
X51020000Y-39642155D01*
X51020000Y-39940000D01*
X52770000Y-39940000D01*
X53270000Y-39940000D01*
X55020000Y-39940000D01*
X55020000Y-39642172D01*
X55019999Y-39642155D01*
X85980000Y-39642155D01*
X85980000Y-39940000D01*
X87730000Y-39940000D01*
X87730000Y-39190000D01*
X86432155Y-39190000D01*
X86372627Y-39196401D01*
X86372620Y-39196403D01*
X86237913Y-39246645D01*
X86237906Y-39246649D01*
X86122812Y-39332809D01*
X86122809Y-39332812D01*
X86036649Y-39447906D01*
X86036645Y-39447913D01*
X85986403Y-39582620D01*
X85986401Y-39582627D01*
X85980000Y-39642155D01*
X55019999Y-39642155D01*
X55013598Y-39582627D01*
X55013596Y-39582620D01*
X54963354Y-39447913D01*
X54963350Y-39447906D01*
X54877190Y-39332812D01*
X54877187Y-39332809D01*
X54762093Y-39246649D01*
X54762086Y-39246645D01*
X54627379Y-39196403D01*
X54627372Y-39196401D01*
X54567844Y-39190000D01*
X53270000Y-39190000D01*
X53270000Y-39940000D01*
X52770000Y-39940000D01*
X52770000Y-39190000D01*
X51472155Y-39190000D01*
X51412627Y-39196401D01*
X51412620Y-39196403D01*
X51277913Y-39246645D01*
X51277906Y-39246649D01*
X51162812Y-39332809D01*
X51162809Y-39332812D01*
X51076649Y-39447906D01*
X51076645Y-39447913D01*
X51026403Y-39582620D01*
X51026401Y-39582627D01*
X51020000Y-39642155D01*
X49729968Y-39642155D01*
X49719734Y-39590699D01*
X49670684Y-39517291D01*
X49663484Y-39506515D01*
X49640966Y-39491469D01*
X49596162Y-39437856D01*
X49587456Y-39368531D01*
X49617612Y-39305504D01*
X49627617Y-39295566D01*
X49693498Y-39237201D01*
X49783787Y-39106395D01*
X49840149Y-38957782D01*
X49859307Y-38800000D01*
X49840149Y-38642218D01*
X49829330Y-38613693D01*
X49823964Y-38544030D01*
X49846006Y-38495411D01*
X49923353Y-38392088D01*
X49923354Y-38392086D01*
X49973596Y-38257379D01*
X49973598Y-38257372D01*
X49979999Y-38197844D01*
X49980000Y-38197827D01*
X49980000Y-37900000D01*
X48230000Y-37900000D01*
X48230000Y-38650000D01*
X48418939Y-38650000D01*
X48485978Y-38669685D01*
X48531733Y-38722489D01*
X48542035Y-38788945D01*
X48540693Y-38799998D01*
X48540693Y-38800000D01*
X48559850Y-38957781D01*
X48597250Y-39056395D01*
X48610636Y-39091691D01*
X48616214Y-39106397D01*
X48709165Y-39241060D01*
X48731048Y-39307415D01*
X48713582Y-39375066D01*
X48662315Y-39422536D01*
X48607115Y-39435500D01*
X46454936Y-39435500D01*
X46380698Y-39450266D01*
X46296515Y-39506515D01*
X46240266Y-39590699D01*
X46240264Y-39590703D01*
X46225500Y-39664928D01*
X45800500Y-39664928D01*
X45800500Y-38445446D01*
X45820185Y-38378407D01*
X45872989Y-38332652D01*
X45942147Y-38322708D01*
X46005703Y-38351733D01*
X46033332Y-38386018D01*
X46036649Y-38392093D01*
X46122809Y-38507187D01*
X46122812Y-38507190D01*
X46237906Y-38593350D01*
X46237913Y-38593354D01*
X46372620Y-38643596D01*
X46372627Y-38643598D01*
X46432155Y-38649999D01*
X46432172Y-38650000D01*
X47730000Y-38650000D01*
X47730000Y-37400000D01*
X48230000Y-37400000D01*
X49980000Y-37400000D01*
X49980000Y-37124928D01*
X51265500Y-37124928D01*
X51265500Y-38175063D01*
X51280266Y-38249301D01*
X51336515Y-38333484D01*
X51355515Y-38346179D01*
X51420699Y-38389734D01*
X51420702Y-38389734D01*
X51420703Y-38389735D01*
X51445666Y-38394700D01*
X51494933Y-38404500D01*
X54545066Y-38404499D01*
X54619301Y-38389734D01*
X54642167Y-38374455D01*
X54708842Y-38353578D01*
X54758604Y-38365372D01*
X54759199Y-38363805D01*
X54766206Y-38366463D01*
X54920528Y-38404500D01*
X54920529Y-38404500D01*
X55079472Y-38404500D01*
X55154455Y-38386018D01*
X55233793Y-38366463D01*
X55374529Y-38292599D01*
X55493498Y-38187201D01*
X55583787Y-38056395D01*
X55640149Y-37907782D01*
X55659307Y-37750000D01*
X55640149Y-37592218D01*
X55583787Y-37443605D01*
X55493498Y-37312799D01*
X55493495Y-37312796D01*
X55493493Y-37312794D01*
X55374530Y-37207401D01*
X55233791Y-37133536D01*
X55079472Y-37095500D01*
X55079471Y-37095500D01*
X54920529Y-37095500D01*
X54920524Y-37095500D01*
X54892623Y-37102377D01*
X54822820Y-37099307D01*
X54765759Y-37058986D01*
X54759847Y-37050870D01*
X54759734Y-37050701D01*
X54759734Y-37050699D01*
X54703484Y-36966516D01*
X54698801Y-36963387D01*
X54636251Y-36921592D01*
X54619301Y-36910266D01*
X54619299Y-36910265D01*
X54619296Y-36910264D01*
X54545069Y-36895500D01*
X51494936Y-36895500D01*
X51420698Y-36910266D01*
X51336515Y-36966515D01*
X51280266Y-37050699D01*
X51280264Y-37050703D01*
X51265500Y-37124928D01*
X49980000Y-37124928D01*
X49980000Y-37102172D01*
X49979999Y-37102155D01*
X49973598Y-37042627D01*
X49973596Y-37042620D01*
X49923354Y-36907913D01*
X49923350Y-36907906D01*
X49837190Y-36792812D01*
X49837187Y-36792809D01*
X49722093Y-36706649D01*
X49722086Y-36706645D01*
X49587379Y-36656403D01*
X49587372Y-36656401D01*
X49527844Y-36650000D01*
X48230000Y-36650000D01*
X48230000Y-37400000D01*
X47730000Y-37400000D01*
X47730000Y-36650000D01*
X46432155Y-36650000D01*
X46372627Y-36656401D01*
X46372620Y-36656403D01*
X46237913Y-36706645D01*
X46237906Y-36706649D01*
X46122812Y-36792809D01*
X46122809Y-36792812D01*
X46036647Y-36907909D01*
X46033330Y-36913984D01*
X45983923Y-36963387D01*
X45915649Y-36978237D01*
X45850186Y-36953817D01*
X45808317Y-36897882D01*
X45800500Y-36854553D01*
X45800500Y-34584928D01*
X46225500Y-34584928D01*
X46225500Y-35635063D01*
X46240266Y-35709301D01*
X46296515Y-35793484D01*
X46315515Y-35806179D01*
X46380699Y-35849734D01*
X46380702Y-35849734D01*
X46380703Y-35849735D01*
X46405666Y-35854700D01*
X46454933Y-35864500D01*
X49505066Y-35864499D01*
X49579301Y-35849734D01*
X49663484Y-35793484D01*
X49719528Y-35709608D01*
X49773140Y-35664804D01*
X49822630Y-35654500D01*
X49829472Y-35654500D01*
X49908297Y-35635071D01*
X49983793Y-35616463D01*
X50124529Y-35542599D01*
X50243498Y-35437201D01*
X50333787Y-35306395D01*
X50390149Y-35157782D01*
X50409307Y-35000000D01*
X50390149Y-34842218D01*
X50333787Y-34693605D01*
X50258773Y-34584928D01*
X51265500Y-34584928D01*
X51265500Y-35635063D01*
X51280266Y-35709301D01*
X51336515Y-35793484D01*
X51355515Y-35806179D01*
X51420699Y-35849734D01*
X51420702Y-35849734D01*
X51420703Y-35849735D01*
X51445666Y-35854700D01*
X51494933Y-35864500D01*
X54545066Y-35864499D01*
X54619301Y-35849734D01*
X54703484Y-35793484D01*
X54759734Y-35709301D01*
X54774500Y-35635067D01*
X54774499Y-35443546D01*
X54794183Y-35376507D01*
X54816267Y-35350735D01*
X54887983Y-35287201D01*
X54978272Y-35156395D01*
X55034634Y-35007782D01*
X55053792Y-34850000D01*
X55034634Y-34692218D01*
X54993944Y-34584928D01*
X86225500Y-34584928D01*
X86225500Y-35635063D01*
X86240266Y-35709301D01*
X86296515Y-35793484D01*
X86315515Y-35806179D01*
X86380699Y-35849734D01*
X86380702Y-35849734D01*
X86380703Y-35849735D01*
X86405666Y-35854700D01*
X86454933Y-35864500D01*
X87232386Y-35864499D01*
X87299425Y-35884183D01*
X87345180Y-35936987D01*
X87355124Y-36006146D01*
X87326099Y-36069702D01*
X87314614Y-36081314D01*
X87256502Y-36132796D01*
X87256500Y-36132799D01*
X87166214Y-36263600D01*
X87109850Y-36412216D01*
X87090693Y-36569997D01*
X87090693Y-36569998D01*
X87109851Y-36727781D01*
X87111646Y-36735064D01*
X87110361Y-36735380D01*
X87115121Y-36797200D01*
X87081969Y-36858704D01*
X87020829Y-36892521D01*
X86993813Y-36895500D01*
X86454936Y-36895500D01*
X86380698Y-36910266D01*
X86296515Y-36966515D01*
X86240266Y-37050699D01*
X86240264Y-37050703D01*
X86225500Y-37124928D01*
X86225500Y-38175063D01*
X86240266Y-38249301D01*
X86296515Y-38333484D01*
X86315515Y-38346179D01*
X86380699Y-38389734D01*
X86380702Y-38389734D01*
X86380703Y-38389735D01*
X86405666Y-38394700D01*
X86454933Y-38404500D01*
X88751398Y-38404499D01*
X88818437Y-38424184D01*
X88864192Y-38476987D01*
X88874136Y-38546146D01*
X88867340Y-38572470D01*
X88859851Y-38592217D01*
X88840693Y-38749999D01*
X88840693Y-38750000D01*
X88859850Y-38907781D01*
X88878715Y-38957524D01*
X88903180Y-39022030D01*
X88908547Y-39091691D01*
X88875400Y-39153198D01*
X88814262Y-39187019D01*
X88787238Y-39190000D01*
X88230000Y-39190000D01*
X88230000Y-39940000D01*
X89980000Y-39940000D01*
X89980000Y-39642172D01*
X89979999Y-39642155D01*
X91020000Y-39642155D01*
X91020000Y-39940000D01*
X92770000Y-39940000D01*
X92770000Y-39190000D01*
X91472155Y-39190000D01*
X91412627Y-39196401D01*
X91412620Y-39196403D01*
X91277913Y-39246645D01*
X91277906Y-39246649D01*
X91162812Y-39332809D01*
X91162809Y-39332812D01*
X91076649Y-39447906D01*
X91076645Y-39447913D01*
X91026403Y-39582620D01*
X91026401Y-39582627D01*
X91020000Y-39642155D01*
X89979999Y-39642155D01*
X89973598Y-39582627D01*
X89973596Y-39582620D01*
X89923354Y-39447913D01*
X89923353Y-39447911D01*
X89902407Y-39419931D01*
X89877990Y-39354467D01*
X89892841Y-39286194D01*
X89919447Y-39252805D01*
X89983113Y-39196401D01*
X89993498Y-39187201D01*
X90083787Y-39056395D01*
X90140149Y-38907782D01*
X90159307Y-38750000D01*
X90140149Y-38592218D01*
X90083787Y-38443605D01*
X89993498Y-38312799D01*
X89993495Y-38312796D01*
X89993493Y-38312794D01*
X89894580Y-38225165D01*
X89877443Y-38197844D01*
X91020000Y-38197844D01*
X91026401Y-38257372D01*
X91026403Y-38257379D01*
X91076645Y-38392086D01*
X91076649Y-38392093D01*
X91162809Y-38507187D01*
X91162812Y-38507190D01*
X91277906Y-38593350D01*
X91277913Y-38593354D01*
X91412620Y-38643596D01*
X91412627Y-38643598D01*
X91472155Y-38649999D01*
X91472172Y-38650000D01*
X92770000Y-38650000D01*
X92770000Y-37900000D01*
X91020000Y-37900000D01*
X91020000Y-38197844D01*
X89877443Y-38197844D01*
X89857453Y-38165976D01*
X89856022Y-38159014D01*
X89854500Y-38153333D01*
X89854500Y-38153329D01*
X89830341Y-38063168D01*
X89783671Y-37982332D01*
X89770818Y-37969479D01*
X89737333Y-37908156D01*
X89734499Y-37881798D01*
X89734499Y-37124936D01*
X89734499Y-37124934D01*
X89729968Y-37102155D01*
X91020000Y-37102155D01*
X91020000Y-37400000D01*
X92770000Y-37400000D01*
X92770000Y-36650000D01*
X91472155Y-36650000D01*
X91412627Y-36656401D01*
X91412620Y-36656403D01*
X91277913Y-36706645D01*
X91277906Y-36706649D01*
X91162812Y-36792809D01*
X91162809Y-36792812D01*
X91076649Y-36907906D01*
X91076645Y-36907913D01*
X91026403Y-37042620D01*
X91026401Y-37042627D01*
X91020000Y-37102155D01*
X89729968Y-37102155D01*
X89719734Y-37050699D01*
X89670684Y-36977291D01*
X89663484Y-36966515D01*
X89596251Y-36921592D01*
X89579301Y-36910266D01*
X89579299Y-36910265D01*
X89579296Y-36910264D01*
X89505071Y-36895500D01*
X89505067Y-36895500D01*
X88506186Y-36895500D01*
X88439147Y-36875815D01*
X88393392Y-36823011D01*
X88383448Y-36753853D01*
X88389500Y-36730410D01*
X88390146Y-36727785D01*
X88390149Y-36727780D01*
X88409307Y-36569998D01*
X88390149Y-36412216D01*
X88333787Y-36263603D01*
X88243498Y-36132797D01*
X88185385Y-36081313D01*
X88148260Y-36022124D01*
X88149028Y-35952259D01*
X88187446Y-35893899D01*
X88251317Y-35865575D01*
X88267614Y-35864499D01*
X89505064Y-35864499D01*
X89505066Y-35864499D01*
X89579301Y-35849734D01*
X89663484Y-35793484D01*
X89719734Y-35709301D01*
X89729969Y-35657844D01*
X91020000Y-35657844D01*
X91026401Y-35717372D01*
X91026403Y-35717379D01*
X91076645Y-35852086D01*
X91076649Y-35852093D01*
X91162809Y-35967187D01*
X91162812Y-35967190D01*
X91277906Y-36053350D01*
X91277913Y-36053354D01*
X91412620Y-36103596D01*
X91412627Y-36103598D01*
X91472155Y-36109999D01*
X91472172Y-36110000D01*
X92770000Y-36110000D01*
X92770000Y-35360000D01*
X91020000Y-35360000D01*
X91020000Y-35657844D01*
X89729969Y-35657844D01*
X89734500Y-35635067D01*
X89734499Y-34584934D01*
X89729968Y-34562155D01*
X91020000Y-34562155D01*
X91020000Y-34860000D01*
X92770000Y-34860000D01*
X92770000Y-34110000D01*
X91472155Y-34110000D01*
X91412627Y-34116401D01*
X91412620Y-34116403D01*
X91277913Y-34166645D01*
X91277906Y-34166649D01*
X91162812Y-34252809D01*
X91162809Y-34252812D01*
X91076649Y-34367906D01*
X91076645Y-34367913D01*
X91026403Y-34502620D01*
X91026401Y-34502627D01*
X91020000Y-34562155D01*
X89729968Y-34562155D01*
X89719734Y-34510699D01*
X89670684Y-34437291D01*
X89663484Y-34426515D01*
X89599162Y-34383537D01*
X89579301Y-34370266D01*
X89579299Y-34370265D01*
X89579296Y-34370264D01*
X89505069Y-34355500D01*
X86454936Y-34355500D01*
X86380698Y-34370266D01*
X86296515Y-34426515D01*
X86240266Y-34510699D01*
X86240264Y-34510703D01*
X86225500Y-34584928D01*
X54993944Y-34584928D01*
X54978272Y-34543605D01*
X54887983Y-34412799D01*
X54887980Y-34412796D01*
X54887978Y-34412794D01*
X54769015Y-34307401D01*
X54628276Y-34233536D01*
X54473957Y-34195500D01*
X54473956Y-34195500D01*
X54315014Y-34195500D01*
X54315013Y-34195500D01*
X54160693Y-34233536D01*
X54019954Y-34307401D01*
X54000862Y-34324316D01*
X53937629Y-34354037D01*
X53918636Y-34355500D01*
X51494936Y-34355500D01*
X51420698Y-34370266D01*
X51336515Y-34426515D01*
X51280266Y-34510699D01*
X51280264Y-34510703D01*
X51265500Y-34584928D01*
X50258773Y-34584928D01*
X50243498Y-34562799D01*
X50243495Y-34562796D01*
X50243493Y-34562794D01*
X50124530Y-34457401D01*
X49983791Y-34383536D01*
X49829472Y-34345500D01*
X49829471Y-34345500D01*
X49670529Y-34345500D01*
X49670528Y-34345500D01*
X49600977Y-34362642D01*
X49547114Y-34363863D01*
X49522334Y-34358934D01*
X49505067Y-34355500D01*
X49505066Y-34355500D01*
X46454936Y-34355500D01*
X46380698Y-34370266D01*
X46296515Y-34426515D01*
X46240266Y-34510699D01*
X46240264Y-34510703D01*
X46225500Y-34584928D01*
X45800500Y-34584928D01*
X45800500Y-25745446D01*
X45820185Y-25678407D01*
X45872989Y-25632652D01*
X45942147Y-25622708D01*
X46005703Y-25651733D01*
X46033332Y-25686018D01*
X46036649Y-25692093D01*
X46122809Y-25807187D01*
X46122812Y-25807190D01*
X46237906Y-25893350D01*
X46237913Y-25893354D01*
X46372620Y-25943596D01*
X46372627Y-25943598D01*
X46432155Y-25949999D01*
X46432172Y-25950000D01*
X47730000Y-25950000D01*
X48230000Y-25950000D01*
X49527828Y-25950000D01*
X49527844Y-25949999D01*
X49587372Y-25943598D01*
X49587379Y-25943596D01*
X49722086Y-25893354D01*
X49722093Y-25893350D01*
X49837187Y-25807190D01*
X49837190Y-25807187D01*
X49923350Y-25692093D01*
X49923354Y-25692086D01*
X49973596Y-25557379D01*
X49973598Y-25557372D01*
X49979999Y-25497844D01*
X49980000Y-25497827D01*
X49980000Y-25200000D01*
X48230000Y-25200000D01*
X48230000Y-25950000D01*
X47730000Y-25950000D01*
X47730000Y-24700000D01*
X48230000Y-24700000D01*
X49980000Y-24700000D01*
X49980000Y-24402172D01*
X49979999Y-24402155D01*
X49973598Y-24342627D01*
X49973596Y-24342620D01*
X49923354Y-24207913D01*
X49923350Y-24207906D01*
X49837190Y-24092812D01*
X49837187Y-24092809D01*
X49722093Y-24006649D01*
X49722086Y-24006645D01*
X49587379Y-23956403D01*
X49587372Y-23956401D01*
X49527844Y-23950000D01*
X48230000Y-23950000D01*
X48230000Y-24700000D01*
X47730000Y-24700000D01*
X47730000Y-23950000D01*
X46432155Y-23950000D01*
X46372627Y-23956401D01*
X46372620Y-23956403D01*
X46237913Y-24006645D01*
X46237906Y-24006649D01*
X46122812Y-24092809D01*
X46122809Y-24092812D01*
X46036647Y-24207909D01*
X46033330Y-24213984D01*
X45983923Y-24263387D01*
X45915649Y-24278237D01*
X45850186Y-24253817D01*
X45808317Y-24197882D01*
X45800500Y-24154553D01*
X45800500Y-21884928D01*
X46225500Y-21884928D01*
X46225500Y-22935063D01*
X46240266Y-23009301D01*
X46296515Y-23093484D01*
X46330234Y-23116014D01*
X46380699Y-23149734D01*
X46380702Y-23149734D01*
X46380703Y-23149735D01*
X46405666Y-23154700D01*
X46454933Y-23164500D01*
X47672214Y-23164499D01*
X47739253Y-23184184D01*
X47774264Y-23218059D01*
X47856502Y-23337201D01*
X47856504Y-23337203D01*
X47856506Y-23337205D01*
X47975469Y-23442598D01*
X47975471Y-23442599D01*
X48116207Y-23516463D01*
X48193368Y-23535481D01*
X48270528Y-23554500D01*
X48270529Y-23554500D01*
X48429472Y-23554500D01*
X48480911Y-23541821D01*
X48583793Y-23516463D01*
X48724529Y-23442599D01*
X48843498Y-23337201D01*
X48925736Y-23218059D01*
X48980019Y-23174069D01*
X49027786Y-23164499D01*
X49505064Y-23164499D01*
X49505066Y-23164499D01*
X49579301Y-23149734D01*
X49663484Y-23093484D01*
X49719734Y-23009301D01*
X49734500Y-22935067D01*
X49734499Y-22133397D01*
X49754183Y-22066359D01*
X49806987Y-22020604D01*
X49876146Y-22010660D01*
X49916952Y-22024040D01*
X50094503Y-22118943D01*
X50094505Y-22118943D01*
X50094508Y-22118945D01*
X50293282Y-22179242D01*
X50500000Y-22199602D01*
X50706718Y-22179242D01*
X50905492Y-22118945D01*
X50905496Y-22118943D01*
X51083047Y-22024040D01*
X51151449Y-22009798D01*
X51216693Y-22034798D01*
X51258064Y-22091103D01*
X51265500Y-22133398D01*
X51265500Y-22665542D01*
X51248888Y-22727539D01*
X51219659Y-22778168D01*
X51218103Y-22783977D01*
X51195500Y-22868330D01*
X51195500Y-23148912D01*
X51175815Y-23215951D01*
X51146987Y-23247287D01*
X51118868Y-23268863D01*
X51021968Y-23395144D01*
X50961061Y-23542190D01*
X50961060Y-23542194D01*
X50940284Y-23699999D01*
X50940284Y-23700000D01*
X50961060Y-23857805D01*
X50961061Y-23857809D01*
X51021968Y-24004855D01*
X51021969Y-24004856D01*
X51021970Y-24004858D01*
X51118866Y-24131134D01*
X51235611Y-24220716D01*
X51276812Y-24277143D01*
X51281741Y-24343281D01*
X51265500Y-24424934D01*
X51265500Y-25475063D01*
X51280266Y-25549301D01*
X51336515Y-25633484D01*
X51357788Y-25647698D01*
X51420699Y-25689734D01*
X51420702Y-25689734D01*
X51420703Y-25689735D01*
X51445666Y-25694700D01*
X51494933Y-25704500D01*
X54251798Y-25704499D01*
X54318837Y-25724184D01*
X54339479Y-25740818D01*
X55522480Y-26923819D01*
X55555965Y-26985142D01*
X55550981Y-27054834D01*
X55509109Y-27110767D01*
X55443645Y-27135184D01*
X55434799Y-27135500D01*
X54898499Y-27135500D01*
X54831460Y-27115815D01*
X54785705Y-27063011D01*
X54774499Y-27011500D01*
X54774499Y-26964936D01*
X54774499Y-26964934D01*
X54759734Y-26890699D01*
X54710684Y-26817291D01*
X54703484Y-26806515D01*
X54636251Y-26761592D01*
X54619301Y-26750266D01*
X54619299Y-26750265D01*
X54619296Y-26750264D01*
X54545069Y-26735500D01*
X51494936Y-26735500D01*
X51420698Y-26750266D01*
X51336515Y-26806515D01*
X51280266Y-26890699D01*
X51280264Y-26890703D01*
X51265500Y-26964928D01*
X51265500Y-26964931D01*
X51265500Y-26964933D01*
X51265500Y-27435881D01*
X51265501Y-27811500D01*
X51245817Y-27878539D01*
X51193013Y-27924294D01*
X51141501Y-27935500D01*
X50018912Y-27935500D01*
X49951873Y-27915815D01*
X49931231Y-27899181D01*
X49770818Y-27738768D01*
X49737333Y-27677445D01*
X49734499Y-27651087D01*
X49734499Y-26964936D01*
X49734499Y-26964934D01*
X49719734Y-26890699D01*
X49670684Y-26817291D01*
X49663484Y-26806515D01*
X49596251Y-26761592D01*
X49579301Y-26750266D01*
X49579299Y-26750265D01*
X49579296Y-26750264D01*
X49505069Y-26735500D01*
X46454936Y-26735500D01*
X46380698Y-26750266D01*
X46296515Y-26806515D01*
X46240266Y-26890699D01*
X46240264Y-26890703D01*
X46225500Y-26964928D01*
X46225500Y-28015063D01*
X46240266Y-28089301D01*
X46296515Y-28173484D01*
X46330234Y-28196014D01*
X46380699Y-28229734D01*
X46380702Y-28229734D01*
X46380703Y-28229735D01*
X46405666Y-28234700D01*
X46454933Y-28244500D01*
X47659811Y-28244499D01*
X47726849Y-28264184D01*
X47772604Y-28316987D01*
X47782548Y-28386146D01*
X47753523Y-28449702D01*
X47742039Y-28461313D01*
X47706503Y-28492795D01*
X47706500Y-28492799D01*
X47616214Y-28623600D01*
X47559850Y-28772216D01*
X47540693Y-28929997D01*
X47540693Y-28929998D01*
X47559850Y-29087780D01*
X47567341Y-29107531D01*
X47572707Y-29177194D01*
X47539558Y-29238700D01*
X47478419Y-29272520D01*
X47451398Y-29275500D01*
X46454936Y-29275500D01*
X46380698Y-29290266D01*
X46296515Y-29346515D01*
X46240266Y-29430699D01*
X46240264Y-29430703D01*
X46225500Y-29504928D01*
X46225500Y-30555063D01*
X46240266Y-30629301D01*
X46296515Y-30713484D01*
X46315515Y-30726179D01*
X46380699Y-30769734D01*
X46380702Y-30769734D01*
X46380703Y-30769735D01*
X46405666Y-30774700D01*
X46454933Y-30784500D01*
X48779003Y-30784499D01*
X48846042Y-30804184D01*
X48891797Y-30856987D01*
X48902099Y-30923442D01*
X48900006Y-30940683D01*
X48900006Y-30940687D01*
X48919163Y-31098468D01*
X48925988Y-31116463D01*
X48975526Y-31247082D01*
X49065815Y-31377888D01*
X49065817Y-31377890D01*
X49065819Y-31377892D01*
X49184782Y-31483285D01*
X49184784Y-31483286D01*
X49325520Y-31557150D01*
X49363718Y-31566565D01*
X49382129Y-31571103D01*
X49442510Y-31606259D01*
X49474298Y-31668479D01*
X49467402Y-31738007D01*
X49424011Y-31792770D01*
X49357901Y-31815380D01*
X49352454Y-31815500D01*
X46454936Y-31815500D01*
X46380698Y-31830266D01*
X46296515Y-31886515D01*
X46240266Y-31970699D01*
X46240264Y-31970703D01*
X46225500Y-32044928D01*
X46225500Y-33095063D01*
X46240266Y-33169301D01*
X46296515Y-33253484D01*
X46315515Y-33266179D01*
X46380699Y-33309734D01*
X46380702Y-33309734D01*
X46380703Y-33309735D01*
X46405666Y-33314700D01*
X46454933Y-33324500D01*
X49405687Y-33324499D01*
X49463311Y-33338702D01*
X49497463Y-33356625D01*
X49516206Y-33366462D01*
X49516206Y-33366463D01*
X49670528Y-33404500D01*
X49670529Y-33404500D01*
X49829472Y-33404500D01*
X49880911Y-33391821D01*
X49983793Y-33366463D01*
X50124529Y-33292599D01*
X50243498Y-33187201D01*
X50291372Y-33117844D01*
X51020000Y-33117844D01*
X51026401Y-33177372D01*
X51026403Y-33177379D01*
X51076645Y-33312086D01*
X51076649Y-33312093D01*
X51162809Y-33427187D01*
X51162812Y-33427190D01*
X51277906Y-33513350D01*
X51277913Y-33513354D01*
X51412620Y-33563596D01*
X51412627Y-33563598D01*
X51472155Y-33569999D01*
X51472172Y-33570000D01*
X52770000Y-33570000D01*
X53270000Y-33570000D01*
X54567828Y-33570000D01*
X54567844Y-33569999D01*
X54627372Y-33563598D01*
X54627379Y-33563596D01*
X54762086Y-33513354D01*
X54762093Y-33513350D01*
X54877187Y-33427190D01*
X54877190Y-33427187D01*
X54963350Y-33312093D01*
X54963354Y-33312086D01*
X55013596Y-33177379D01*
X55013598Y-33177372D01*
X55019999Y-33117844D01*
X55020000Y-33117827D01*
X55020000Y-32820000D01*
X53270000Y-32820000D01*
X53270000Y-33570000D01*
X52770000Y-33570000D01*
X52770000Y-32820000D01*
X51020000Y-32820000D01*
X51020000Y-33117844D01*
X50291372Y-33117844D01*
X50333787Y-33056395D01*
X50390149Y-32907782D01*
X50409307Y-32750000D01*
X50390149Y-32592218D01*
X50333787Y-32443605D01*
X50243498Y-32312799D01*
X50243495Y-32312796D01*
X50243493Y-32312794D01*
X50124530Y-32207401D01*
X49983791Y-32133536D01*
X49822189Y-32093705D01*
X49822634Y-32091898D01*
X49767426Y-32068135D01*
X49736430Y-32022155D01*
X51020000Y-32022155D01*
X51020000Y-32320000D01*
X52770000Y-32320000D01*
X53270000Y-32320000D01*
X55020000Y-32320000D01*
X55020000Y-32044928D01*
X86225500Y-32044928D01*
X86225500Y-33095063D01*
X86240266Y-33169301D01*
X86296515Y-33253484D01*
X86315515Y-33266179D01*
X86380699Y-33309734D01*
X86380702Y-33309734D01*
X86380703Y-33309735D01*
X86405666Y-33314700D01*
X86454933Y-33324500D01*
X89155687Y-33324499D01*
X89213311Y-33338702D01*
X89247463Y-33356625D01*
X89266206Y-33366462D01*
X89266206Y-33366463D01*
X89420528Y-33404500D01*
X89420529Y-33404500D01*
X89579472Y-33404500D01*
X89630911Y-33391821D01*
X89733793Y-33366463D01*
X89874529Y-33292599D01*
X89993498Y-33187201D01*
X90041372Y-33117844D01*
X91020000Y-33117844D01*
X91026401Y-33177372D01*
X91026403Y-33177379D01*
X91076645Y-33312086D01*
X91076649Y-33312093D01*
X91162809Y-33427187D01*
X91162812Y-33427190D01*
X91277906Y-33513350D01*
X91277913Y-33513354D01*
X91412620Y-33563596D01*
X91412627Y-33563598D01*
X91472155Y-33569999D01*
X91472172Y-33570000D01*
X92770000Y-33570000D01*
X92770000Y-32820000D01*
X91020000Y-32820000D01*
X91020000Y-33117844D01*
X90041372Y-33117844D01*
X90083787Y-33056395D01*
X90140149Y-32907782D01*
X90159307Y-32750000D01*
X90140149Y-32592218D01*
X90083787Y-32443605D01*
X89993498Y-32312799D01*
X89993495Y-32312796D01*
X89993493Y-32312794D01*
X89874529Y-32207401D01*
X89874530Y-32207401D01*
X89800872Y-32168742D01*
X89750660Y-32120157D01*
X89734499Y-32058946D01*
X89734499Y-32044936D01*
X89734499Y-32044934D01*
X89729968Y-32022155D01*
X91020000Y-32022155D01*
X91020000Y-32320000D01*
X92770000Y-32320000D01*
X92770000Y-31570000D01*
X91472155Y-31570000D01*
X91412627Y-31576401D01*
X91412620Y-31576403D01*
X91277913Y-31626645D01*
X91277906Y-31626649D01*
X91162812Y-31712809D01*
X91162809Y-31712812D01*
X91076649Y-31827906D01*
X91076645Y-31827913D01*
X91026403Y-31962620D01*
X91026401Y-31962627D01*
X91020000Y-32022155D01*
X89729968Y-32022155D01*
X89719734Y-31970699D01*
X89670684Y-31897291D01*
X89663484Y-31886515D01*
X89596251Y-31841592D01*
X89579301Y-31830266D01*
X89579299Y-31830265D01*
X89579296Y-31830264D01*
X89505069Y-31815500D01*
X86454936Y-31815500D01*
X86380698Y-31830266D01*
X86296515Y-31886515D01*
X86240266Y-31970699D01*
X86240264Y-31970703D01*
X86225500Y-32044928D01*
X55020000Y-32044928D01*
X55020000Y-32022172D01*
X55019999Y-32022155D01*
X55013598Y-31962627D01*
X55013596Y-31962620D01*
X54963354Y-31827913D01*
X54963350Y-31827906D01*
X54877190Y-31712812D01*
X54877187Y-31712809D01*
X54762093Y-31626649D01*
X54762086Y-31626645D01*
X54627379Y-31576403D01*
X54627372Y-31576401D01*
X54567844Y-31570000D01*
X53270000Y-31570000D01*
X53270000Y-32320000D01*
X52770000Y-32320000D01*
X52770000Y-31570000D01*
X51472155Y-31570000D01*
X51412627Y-31576401D01*
X51412620Y-31576403D01*
X51277913Y-31626645D01*
X51277906Y-31626649D01*
X51162812Y-31712809D01*
X51162809Y-31712812D01*
X51076649Y-31827906D01*
X51076645Y-31827913D01*
X51026403Y-31962620D01*
X51026401Y-31962627D01*
X51020000Y-32022155D01*
X49736430Y-32022155D01*
X49728371Y-32010200D01*
X49724937Y-31996859D01*
X49719734Y-31970699D01*
X49670684Y-31897291D01*
X49663484Y-31886515D01*
X49569146Y-31823481D01*
X49571182Y-31820433D01*
X49533297Y-31789898D01*
X49511239Y-31723602D01*
X49528524Y-31655904D01*
X49579666Y-31608298D01*
X49635160Y-31595187D01*
X49638785Y-31595187D01*
X49690224Y-31582508D01*
X49793106Y-31557150D01*
X49933842Y-31483286D01*
X50052811Y-31377888D01*
X50143100Y-31247082D01*
X50199462Y-31098469D01*
X50218620Y-30940687D01*
X50199462Y-30782905D01*
X50143100Y-30634292D01*
X50052811Y-30503486D01*
X49955584Y-30417350D01*
X49918459Y-30358161D01*
X49913813Y-30324536D01*
X49913813Y-30315986D01*
X49913814Y-30315973D01*
X49913814Y-30212643D01*
X49910426Y-30199999D01*
X49889655Y-30122482D01*
X49889651Y-30122475D01*
X49842988Y-30041651D01*
X49842982Y-30041643D01*
X49770818Y-29969479D01*
X49737333Y-29908156D01*
X49734499Y-29881798D01*
X49734499Y-29668500D01*
X49754184Y-29601461D01*
X49806988Y-29555706D01*
X49858499Y-29544500D01*
X50464021Y-29544500D01*
X50531060Y-29564185D01*
X50546244Y-29575681D01*
X50652363Y-29669695D01*
X50793099Y-29743559D01*
X50845124Y-29756382D01*
X50947420Y-29781596D01*
X50947421Y-29781596D01*
X51106362Y-29781596D01*
X51106363Y-29781596D01*
X51111819Y-29780251D01*
X51181619Y-29783316D01*
X51238684Y-29823632D01*
X51264894Y-29888399D01*
X51265500Y-29900646D01*
X51265500Y-30555063D01*
X51280266Y-30629301D01*
X51336515Y-30713484D01*
X51355515Y-30726179D01*
X51420699Y-30769734D01*
X51420702Y-30769734D01*
X51420703Y-30769735D01*
X51445666Y-30774700D01*
X51494933Y-30784500D01*
X54545066Y-30784499D01*
X54619301Y-30769734D01*
X54703484Y-30713484D01*
X54759734Y-30629301D01*
X54774500Y-30555067D01*
X54774500Y-30508500D01*
X54794185Y-30441461D01*
X54846989Y-30395706D01*
X54898500Y-30384500D01*
X67896876Y-30384500D01*
X67963915Y-30404185D01*
X67979103Y-30415685D01*
X68025469Y-30456762D01*
X68025471Y-30456763D01*
X68166207Y-30530627D01*
X68243368Y-30549645D01*
X68320528Y-30568664D01*
X68320529Y-30568664D01*
X68479472Y-30568664D01*
X68534652Y-30555063D01*
X68633793Y-30530627D01*
X68774529Y-30456763D01*
X68893498Y-30351365D01*
X68983787Y-30220559D01*
X68991584Y-30199999D01*
X70540693Y-30199999D01*
X70540693Y-30200000D01*
X70559850Y-30357781D01*
X70597390Y-30456763D01*
X70615109Y-30503485D01*
X70616214Y-30506397D01*
X70659194Y-30568664D01*
X70706502Y-30637201D01*
X70706504Y-30637203D01*
X70706506Y-30637205D01*
X70825469Y-30742598D01*
X70825471Y-30742599D01*
X70966207Y-30816463D01*
X71022508Y-30830340D01*
X71120528Y-30854500D01*
X71120529Y-30854500D01*
X71279472Y-30854500D01*
X71330911Y-30841821D01*
X71433793Y-30816463D01*
X71574529Y-30742599D01*
X71693498Y-30637201D01*
X71783787Y-30506395D01*
X71786213Y-30499999D01*
X85840693Y-30499999D01*
X85840693Y-30500000D01*
X85859850Y-30657781D01*
X85880976Y-30713484D01*
X85915374Y-30804184D01*
X85916214Y-30806397D01*
X85951134Y-30856987D01*
X86006502Y-30937201D01*
X86006504Y-30937203D01*
X86006506Y-30937205D01*
X86125469Y-31042598D01*
X86125471Y-31042599D01*
X86266207Y-31116463D01*
X86343368Y-31135481D01*
X86420528Y-31154500D01*
X86420529Y-31154500D01*
X86579472Y-31154500D01*
X86630911Y-31141821D01*
X86733793Y-31116463D01*
X86874529Y-31042599D01*
X86993498Y-30937201D01*
X87013612Y-30908059D01*
X87067894Y-30864070D01*
X87115662Y-30854500D01*
X87556669Y-30854500D01*
X87556671Y-30854500D01*
X87646832Y-30830341D01*
X87697458Y-30801111D01*
X87759458Y-30784499D01*
X89505064Y-30784499D01*
X89505066Y-30784499D01*
X89579301Y-30769734D01*
X89663484Y-30713484D01*
X89719734Y-30629301D01*
X89729969Y-30577844D01*
X91020000Y-30577844D01*
X91026401Y-30637372D01*
X91026403Y-30637379D01*
X91076645Y-30772086D01*
X91076649Y-30772093D01*
X91162809Y-30887187D01*
X91162812Y-30887190D01*
X91277906Y-30973350D01*
X91277913Y-30973354D01*
X91412620Y-31023596D01*
X91412627Y-31023598D01*
X91472155Y-31029999D01*
X91472172Y-31030000D01*
X92770000Y-31030000D01*
X92770000Y-30280000D01*
X91020000Y-30280000D01*
X91020000Y-30577844D01*
X89729969Y-30577844D01*
X89734500Y-30555067D01*
X89734499Y-29504934D01*
X89729968Y-29482155D01*
X91020000Y-29482155D01*
X91020000Y-29780000D01*
X92770000Y-29780000D01*
X92770000Y-29030000D01*
X91472155Y-29030000D01*
X91412627Y-29036401D01*
X91412620Y-29036403D01*
X91277913Y-29086645D01*
X91277906Y-29086649D01*
X91162812Y-29172809D01*
X91162809Y-29172812D01*
X91076649Y-29287906D01*
X91076645Y-29287913D01*
X91026403Y-29422620D01*
X91026401Y-29422627D01*
X91020000Y-29482155D01*
X89729968Y-29482155D01*
X89719734Y-29430699D01*
X89701068Y-29402765D01*
X89663484Y-29346515D01*
X89596251Y-29301592D01*
X89579301Y-29290266D01*
X89579299Y-29290265D01*
X89579296Y-29290264D01*
X89505069Y-29275500D01*
X86454936Y-29275500D01*
X86380698Y-29290266D01*
X86296515Y-29346515D01*
X86240266Y-29430699D01*
X86240264Y-29430703D01*
X86225500Y-29504928D01*
X86225500Y-29829940D01*
X86205815Y-29896979D01*
X86159127Y-29939736D01*
X86125474Y-29957398D01*
X86125468Y-29957402D01*
X86006506Y-30062794D01*
X86006500Y-30062801D01*
X85916214Y-30193602D01*
X85859850Y-30342218D01*
X85840693Y-30499999D01*
X71786213Y-30499999D01*
X71840149Y-30357782D01*
X71859307Y-30200000D01*
X71853614Y-30153118D01*
X71865074Y-30084197D01*
X71889026Y-30050495D01*
X73712664Y-28226856D01*
X73773985Y-28193373D01*
X73843677Y-28198357D01*
X73899610Y-28240229D01*
X73914904Y-28267087D01*
X73971968Y-28404855D01*
X73971969Y-28404857D01*
X73971970Y-28404858D01*
X74068866Y-28531134D01*
X74195142Y-28628030D01*
X74195143Y-28628030D01*
X74195144Y-28628031D01*
X74239480Y-28646395D01*
X74342194Y-28688940D01*
X74481640Y-28707298D01*
X74499999Y-28709716D01*
X74500000Y-28709716D01*
X74500001Y-28709716D01*
X74516446Y-28707550D01*
X74657806Y-28688940D01*
X74804858Y-28628030D01*
X74931134Y-28531134D01*
X74931368Y-28530828D01*
X74931995Y-28530013D01*
X74932962Y-28529306D01*
X74936881Y-28525388D01*
X74937492Y-28525999D01*
X74988423Y-28488810D01*
X75030370Y-28481500D01*
X76969630Y-28481500D01*
X77036669Y-28501185D01*
X77063051Y-28525455D01*
X77063119Y-28525388D01*
X77064743Y-28527012D01*
X77068005Y-28530013D01*
X77068863Y-28531131D01*
X77068864Y-28531132D01*
X77068866Y-28531134D01*
X77195142Y-28628030D01*
X77195143Y-28628030D01*
X77195144Y-28628031D01*
X77239480Y-28646395D01*
X77342194Y-28688940D01*
X77481640Y-28707298D01*
X77499999Y-28709716D01*
X77500000Y-28709716D01*
X77500001Y-28709716D01*
X77516446Y-28707550D01*
X77657806Y-28688940D01*
X77804858Y-28628030D01*
X77931134Y-28531134D01*
X78028030Y-28404858D01*
X78088940Y-28257806D01*
X78109716Y-28100000D01*
X78108691Y-28092218D01*
X78107298Y-28081640D01*
X78088940Y-27942194D01*
X78048333Y-27844159D01*
X78028031Y-27795144D01*
X78028030Y-27795143D01*
X78028030Y-27795142D01*
X77931134Y-27668866D01*
X77804858Y-27571970D01*
X77804857Y-27571969D01*
X77804855Y-27571968D01*
X77657809Y-27511061D01*
X77657807Y-27511060D01*
X77657806Y-27511060D01*
X77578903Y-27500672D01*
X77500001Y-27490284D01*
X77499999Y-27490284D01*
X77342194Y-27511060D01*
X77342190Y-27511061D01*
X77195144Y-27571968D01*
X77068863Y-27668868D01*
X77068005Y-27669987D01*
X77067037Y-27670693D01*
X77063119Y-27674612D01*
X77062507Y-27674000D01*
X77011577Y-27711190D01*
X76969630Y-27718500D01*
X76729639Y-27718500D01*
X76662600Y-27698815D01*
X76616845Y-27646011D01*
X76606901Y-27576853D01*
X76613695Y-27550532D01*
X76640149Y-27480782D01*
X76659307Y-27323000D01*
X76640149Y-27165218D01*
X76583787Y-27016605D01*
X76548117Y-26964928D01*
X86225500Y-26964928D01*
X86225500Y-28015063D01*
X86240266Y-28089301D01*
X86296515Y-28173484D01*
X86330234Y-28196014D01*
X86380699Y-28229734D01*
X86380702Y-28229734D01*
X86380703Y-28229735D01*
X86405666Y-28234700D01*
X86454933Y-28244500D01*
X88730170Y-28244499D01*
X88797209Y-28264184D01*
X88842964Y-28316987D01*
X88853266Y-28353552D01*
X88859850Y-28407781D01*
X88887809Y-28481500D01*
X88905284Y-28527579D01*
X88916214Y-28556397D01*
X88942068Y-28593853D01*
X89006502Y-28687201D01*
X89006504Y-28687203D01*
X89006506Y-28687205D01*
X89125469Y-28792598D01*
X89125471Y-28792599D01*
X89266207Y-28866463D01*
X89343368Y-28885481D01*
X89420528Y-28904500D01*
X89420529Y-28904500D01*
X89579472Y-28904500D01*
X89630911Y-28891821D01*
X89733793Y-28866463D01*
X89874529Y-28792599D01*
X89993498Y-28687201D01*
X90083787Y-28556395D01*
X90140149Y-28407782D01*
X90159307Y-28250000D01*
X90156846Y-28229735D01*
X90140149Y-28092218D01*
X90139043Y-28089301D01*
X90119528Y-28037844D01*
X91020000Y-28037844D01*
X91026401Y-28097372D01*
X91026403Y-28097379D01*
X91076645Y-28232086D01*
X91076649Y-28232093D01*
X91162809Y-28347187D01*
X91162812Y-28347190D01*
X91277906Y-28433350D01*
X91277913Y-28433354D01*
X91412620Y-28483596D01*
X91412627Y-28483598D01*
X91472155Y-28489999D01*
X91472172Y-28490000D01*
X92770000Y-28490000D01*
X92770000Y-27740000D01*
X91020000Y-27740000D01*
X91020000Y-28037844D01*
X90119528Y-28037844D01*
X90083787Y-27943605D01*
X89993498Y-27812799D01*
X89993495Y-27812796D01*
X89993493Y-27812794D01*
X89874529Y-27707401D01*
X89874530Y-27707401D01*
X89800872Y-27668742D01*
X89750660Y-27620157D01*
X89734499Y-27558946D01*
X89734499Y-26964936D01*
X89734499Y-26964934D01*
X89729968Y-26942155D01*
X91020000Y-26942155D01*
X91020000Y-27240000D01*
X92770000Y-27240000D01*
X92770000Y-26490000D01*
X91472155Y-26490000D01*
X91412627Y-26496401D01*
X91412620Y-26496403D01*
X91277913Y-26546645D01*
X91277906Y-26546649D01*
X91162812Y-26632809D01*
X91162809Y-26632812D01*
X91076649Y-26747906D01*
X91076645Y-26747913D01*
X91026403Y-26882620D01*
X91026401Y-26882627D01*
X91020000Y-26942155D01*
X89729968Y-26942155D01*
X89719734Y-26890699D01*
X89670684Y-26817291D01*
X89663484Y-26806515D01*
X89596251Y-26761592D01*
X89579301Y-26750266D01*
X89579299Y-26750265D01*
X89579296Y-26750264D01*
X89505069Y-26735500D01*
X86454936Y-26735500D01*
X86380698Y-26750266D01*
X86296515Y-26806515D01*
X86240266Y-26890699D01*
X86240264Y-26890703D01*
X86225500Y-26964928D01*
X76548117Y-26964928D01*
X76493498Y-26885799D01*
X76493495Y-26885796D01*
X76493493Y-26885794D01*
X76374530Y-26780401D01*
X76233791Y-26706536D01*
X76079472Y-26668500D01*
X76079471Y-26668500D01*
X75920529Y-26668500D01*
X75920528Y-26668500D01*
X75766208Y-26706536D01*
X75625469Y-26780401D01*
X75506506Y-26885794D01*
X75506501Y-26885800D01*
X75505023Y-26887942D01*
X75503537Y-26889145D01*
X75501529Y-26891413D01*
X75501151Y-26891078D01*
X75450739Y-26931931D01*
X75402974Y-26941500D01*
X74026775Y-26941500D01*
X73954003Y-26960999D01*
X73929745Y-26967499D01*
X73842754Y-27017723D01*
X73842751Y-27017725D01*
X73771722Y-27088755D01*
X71351295Y-29509181D01*
X71289972Y-29542666D01*
X71263614Y-29545500D01*
X71120528Y-29545500D01*
X70966208Y-29583536D01*
X70825469Y-29657401D01*
X70706506Y-29762794D01*
X70706500Y-29762801D01*
X70616214Y-29893602D01*
X70559850Y-30042218D01*
X70540693Y-30199999D01*
X68991584Y-30199999D01*
X69040149Y-30071946D01*
X69059307Y-29914164D01*
X69049080Y-29829940D01*
X69040149Y-29756382D01*
X69009474Y-29675500D01*
X68983787Y-29607769D01*
X68893498Y-29476963D01*
X68893495Y-29476960D01*
X68893493Y-29476958D01*
X68774530Y-29371565D01*
X68633791Y-29297700D01*
X68479472Y-29259664D01*
X68479471Y-29259664D01*
X68320529Y-29259664D01*
X68320528Y-29259664D01*
X68166208Y-29297700D01*
X68025469Y-29371565D01*
X67906506Y-29476958D01*
X67906500Y-29476965D01*
X67816212Y-29607769D01*
X67815505Y-29609118D01*
X67814725Y-29609923D01*
X67811952Y-29613942D01*
X67811284Y-29613480D01*
X67766924Y-29659334D01*
X67705705Y-29675500D01*
X63445911Y-29675500D01*
X63378872Y-29655815D01*
X63333117Y-29603011D01*
X63323173Y-29533853D01*
X63352198Y-29470297D01*
X63358230Y-29463819D01*
X63881229Y-28940819D01*
X63942552Y-28907334D01*
X63968910Y-28904500D01*
X64079472Y-28904500D01*
X64130911Y-28891821D01*
X64233793Y-28866463D01*
X64374529Y-28792599D01*
X64493498Y-28687201D01*
X64583787Y-28556395D01*
X64640149Y-28407782D01*
X64659307Y-28250000D01*
X64640149Y-28092218D01*
X64609905Y-28012471D01*
X64604538Y-27942808D01*
X64637685Y-27881302D01*
X64698823Y-27847480D01*
X64725847Y-27844500D01*
X69171699Y-27844500D01*
X69238738Y-27864185D01*
X69259380Y-27880819D01*
X69285385Y-27906824D01*
X69318870Y-27968147D01*
X69320800Y-28009450D01*
X69310974Y-28090380D01*
X69310974Y-28090381D01*
X69330131Y-28248162D01*
X69386495Y-28396778D01*
X69458562Y-28501185D01*
X69476783Y-28527582D01*
X69476785Y-28527584D01*
X69476787Y-28527586D01*
X69595750Y-28632979D01*
X69595752Y-28632980D01*
X69736488Y-28706844D01*
X69772885Y-28715815D01*
X69890809Y-28744881D01*
X69890810Y-28744881D01*
X70049753Y-28744881D01*
X70101192Y-28732202D01*
X70204074Y-28706844D01*
X70344810Y-28632980D01*
X70463779Y-28527582D01*
X70554068Y-28396776D01*
X70610430Y-28248163D01*
X70629588Y-28090381D01*
X70621887Y-28026961D01*
X70610430Y-27932599D01*
X70590792Y-27880819D01*
X70554068Y-27783986D01*
X70463779Y-27653180D01*
X70463776Y-27653177D01*
X70463774Y-27653175D01*
X70391786Y-27589399D01*
X70354659Y-27530210D01*
X70355427Y-27460344D01*
X70393845Y-27401985D01*
X70444338Y-27376187D01*
X70483793Y-27366463D01*
X70624529Y-27292599D01*
X70743498Y-27187201D01*
X70833787Y-27056395D01*
X70890149Y-26907782D01*
X70909307Y-26750000D01*
X70907546Y-26735500D01*
X70890149Y-26592218D01*
X70872865Y-26546645D01*
X70833787Y-26443605D01*
X70743498Y-26312799D01*
X70743495Y-26312796D01*
X70743493Y-26312794D01*
X70624530Y-26207401D01*
X70483791Y-26133536D01*
X70329472Y-26095500D01*
X70329471Y-26095500D01*
X70170529Y-26095500D01*
X70170528Y-26095500D01*
X70016208Y-26133536D01*
X69875469Y-26207401D01*
X69756506Y-26312794D01*
X69756500Y-26312801D01*
X69666214Y-26443602D01*
X69666213Y-26443605D01*
X69627134Y-26546649D01*
X69619995Y-26565472D01*
X69577817Y-26621174D01*
X69512219Y-26645231D01*
X69504053Y-26645500D01*
X56298201Y-26645500D01*
X56231162Y-26625815D01*
X56210520Y-26609181D01*
X54851338Y-25249999D01*
X62340693Y-25249999D01*
X62340693Y-25250000D01*
X62359850Y-25407781D01*
X62394001Y-25497827D01*
X62410980Y-25542598D01*
X62416214Y-25556397D01*
X62478806Y-25647076D01*
X62506502Y-25687201D01*
X62506504Y-25687203D01*
X62506506Y-25687205D01*
X62625469Y-25792598D01*
X62625471Y-25792599D01*
X62766207Y-25866463D01*
X62843368Y-25885481D01*
X62920528Y-25904500D01*
X62920529Y-25904500D01*
X63079472Y-25904500D01*
X63130911Y-25891821D01*
X63233793Y-25866463D01*
X63374529Y-25792599D01*
X63391251Y-25777784D01*
X63495210Y-25685685D01*
X63558443Y-25655963D01*
X63577437Y-25654500D01*
X68303252Y-25654500D01*
X68303253Y-25654500D01*
X68328636Y-25647697D01*
X68390409Y-25647076D01*
X68392933Y-25647698D01*
X68420526Y-25654499D01*
X68420527Y-25654500D01*
X68420529Y-25654500D01*
X68579472Y-25654500D01*
X68630911Y-25641821D01*
X68733793Y-25616463D01*
X68874529Y-25542599D01*
X68993498Y-25437201D01*
X69083787Y-25306395D01*
X69140149Y-25157782D01*
X69159307Y-25000000D01*
X69152459Y-24943605D01*
X69140149Y-24842218D01*
X69111042Y-24765471D01*
X69083787Y-24693605D01*
X68993498Y-24562799D01*
X68993495Y-24562796D01*
X68993493Y-24562794D01*
X68874530Y-24457401D01*
X68733791Y-24383536D01*
X68579472Y-24345500D01*
X68579471Y-24345500D01*
X68420529Y-24345500D01*
X68420528Y-24345500D01*
X68266208Y-24383536D01*
X68125469Y-24457401D01*
X68006506Y-24562794D01*
X68006500Y-24562801D01*
X67916214Y-24693603D01*
X67916213Y-24693604D01*
X67888958Y-24765471D01*
X67846780Y-24821174D01*
X67781182Y-24845231D01*
X67773016Y-24845500D01*
X63577437Y-24845500D01*
X63510398Y-24825815D01*
X63495210Y-24814315D01*
X63374530Y-24707401D01*
X63233791Y-24633536D01*
X63079472Y-24595500D01*
X63079471Y-24595500D01*
X62920529Y-24595500D01*
X62920528Y-24595500D01*
X62766208Y-24633536D01*
X62625469Y-24707401D01*
X62506506Y-24812794D01*
X62506500Y-24812801D01*
X62416214Y-24943602D01*
X62359850Y-25092218D01*
X62340693Y-25249999D01*
X54851338Y-25249999D01*
X54810818Y-25209479D01*
X54777333Y-25148156D01*
X54774499Y-25121798D01*
X54774499Y-24424936D01*
X54774499Y-24424934D01*
X54759734Y-24350699D01*
X54710585Y-24277143D01*
X54703484Y-24266515D01*
X54636251Y-24221592D01*
X54619301Y-24210266D01*
X54619299Y-24210265D01*
X54619296Y-24210264D01*
X54545071Y-24195500D01*
X54545067Y-24195500D01*
X52182737Y-24195500D01*
X52115698Y-24175815D01*
X52069943Y-24123011D01*
X52059999Y-24053853D01*
X52075350Y-24009500D01*
X52078025Y-24004864D01*
X52078030Y-24004858D01*
X52138940Y-23857806D01*
X52159716Y-23700000D01*
X52138940Y-23542194D01*
X52078030Y-23395142D01*
X52078029Y-23395141D01*
X52078029Y-23395140D01*
X52054123Y-23363986D01*
X52028928Y-23298817D01*
X52042966Y-23230372D01*
X52091779Y-23180382D01*
X52152498Y-23164499D01*
X54545064Y-23164499D01*
X54545066Y-23164499D01*
X54619301Y-23149734D01*
X54703484Y-23093484D01*
X54759734Y-23009301D01*
X54774500Y-22935067D01*
X54774499Y-21884934D01*
X54759734Y-21810699D01*
X54723010Y-21755738D01*
X54703484Y-21726515D01*
X54653019Y-21692796D01*
X54619301Y-21670266D01*
X54619299Y-21670265D01*
X54619296Y-21670264D01*
X54545071Y-21655500D01*
X54545067Y-21655500D01*
X53519618Y-21655500D01*
X53452579Y-21635815D01*
X53406824Y-21583011D01*
X53399846Y-21563602D01*
X53375501Y-21472746D01*
X53325276Y-21385753D01*
X53254247Y-21314724D01*
X52884247Y-20944724D01*
X52864870Y-20933537D01*
X52852900Y-20926626D01*
X52825821Y-20910991D01*
X52785775Y-20874046D01*
X52747737Y-20818940D01*
X52725853Y-20752586D01*
X52743318Y-20684934D01*
X52794585Y-20637464D01*
X52849786Y-20624499D01*
X54545064Y-20624499D01*
X54545066Y-20624499D01*
X54619301Y-20609734D01*
X54703484Y-20553484D01*
X54759734Y-20469301D01*
X54774500Y-20395067D01*
X54774499Y-19344934D01*
X54759734Y-19270699D01*
X54741068Y-19242765D01*
X54703484Y-19186515D01*
X54638674Y-19143211D01*
X54619301Y-19130266D01*
X54619299Y-19130265D01*
X54619296Y-19130264D01*
X54545071Y-19115500D01*
X54545067Y-19115500D01*
X52228068Y-19115500D01*
X52161029Y-19095815D01*
X52137411Y-19074088D01*
X52136885Y-19074616D01*
X52131136Y-19068867D01*
X52004859Y-18971970D01*
X52004856Y-18971969D01*
X51857809Y-18911061D01*
X51857807Y-18911060D01*
X51857806Y-18911060D01*
X51778903Y-18900672D01*
X51700001Y-18890284D01*
X51699999Y-18890284D01*
X51542194Y-18911060D01*
X51542190Y-18911061D01*
X51395144Y-18971968D01*
X51268866Y-19068866D01*
X51171968Y-19195144D01*
X51111061Y-19342190D01*
X51111060Y-19342194D01*
X51091207Y-19492993D01*
X51090284Y-19500000D01*
X51102946Y-19596179D01*
X51111060Y-19657805D01*
X51111061Y-19657809D01*
X51171969Y-19804856D01*
X51171970Y-19804858D01*
X51239876Y-19893355D01*
X51265070Y-19958524D01*
X51265500Y-19968841D01*
X51265500Y-20146601D01*
X51245815Y-20213640D01*
X51193011Y-20259395D01*
X51123853Y-20269339D01*
X51083047Y-20255959D01*
X50905496Y-20161056D01*
X50706716Y-20100757D01*
X50500000Y-20080398D01*
X50293283Y-20100757D01*
X50094503Y-20161056D01*
X50062453Y-20178188D01*
X49994050Y-20192430D01*
X49928806Y-20167430D01*
X49918811Y-20153826D01*
X49916319Y-20156319D01*
X49880000Y-20120000D01*
X48230000Y-20120000D01*
X48230000Y-20870000D01*
X49330178Y-20870000D01*
X49397217Y-20889685D01*
X49442972Y-20942489D01*
X49453580Y-21006152D01*
X49448016Y-21062652D01*
X49440398Y-21140000D01*
X49460757Y-21346716D01*
X49486049Y-21430092D01*
X49505891Y-21495504D01*
X49505892Y-21495505D01*
X49506515Y-21565372D01*
X49469267Y-21624485D01*
X49405973Y-21654076D01*
X49387231Y-21655500D01*
X46454936Y-21655500D01*
X46380698Y-21670266D01*
X46296515Y-21726515D01*
X46240266Y-21810699D01*
X46240264Y-21810703D01*
X46225500Y-21884928D01*
X45800500Y-21884928D01*
X45800500Y-20503750D01*
X45800726Y-20496263D01*
X45802750Y-20462799D01*
X45816084Y-20242359D01*
X45817889Y-20227500D01*
X45834031Y-20139413D01*
X45865477Y-20077022D01*
X45925664Y-20041535D01*
X45995482Y-20044221D01*
X46052765Y-20084226D01*
X46079325Y-20148851D01*
X46080000Y-20161767D01*
X46080000Y-20417844D01*
X46086401Y-20477372D01*
X46086403Y-20477379D01*
X46136645Y-20612086D01*
X46136649Y-20612093D01*
X46222809Y-20727187D01*
X46222812Y-20727190D01*
X46337906Y-20813350D01*
X46337913Y-20813354D01*
X46472620Y-20863596D01*
X46472627Y-20863598D01*
X46532155Y-20869999D01*
X46532172Y-20870000D01*
X47730000Y-20870000D01*
X47730000Y-19620000D01*
X48230000Y-19620000D01*
X49880000Y-19620000D01*
X49880000Y-19322172D01*
X49879999Y-19322155D01*
X49873598Y-19262627D01*
X49873596Y-19262620D01*
X49823354Y-19127913D01*
X49823350Y-19127906D01*
X49737190Y-19012812D01*
X49737187Y-19012809D01*
X49622093Y-18926649D01*
X49622086Y-18926645D01*
X49487379Y-18876403D01*
X49487372Y-18876401D01*
X49427844Y-18870000D01*
X48230000Y-18870000D01*
X48230000Y-19620000D01*
X47730000Y-19620000D01*
X47730000Y-18870000D01*
X46897342Y-18870000D01*
X46830303Y-18850315D01*
X46784548Y-18797511D01*
X46774604Y-18728353D01*
X46803629Y-18664797D01*
X46833192Y-18639883D01*
X46971421Y-18556320D01*
X46984680Y-18549361D01*
X47081685Y-18505703D01*
X47213219Y-18446504D01*
X47227202Y-18441202D01*
X47466467Y-18366643D01*
X47480995Y-18363062D01*
X47727506Y-18317888D01*
X47742359Y-18316084D01*
X47996264Y-18300726D01*
X48003751Y-18300500D01*
X48047595Y-18300500D01*
X62870615Y-18300500D01*
X62937654Y-18320185D01*
G37*
%TD.AperFunction*%
%TA.AperFunction,Conductor*%
G36*
X85923039Y-19424185D02*
G01*
X85968794Y-19476989D01*
X85980000Y-19528500D01*
X85980000Y-19620000D01*
X89980000Y-19620000D01*
X89980000Y-19528500D01*
X89999685Y-19461461D01*
X90052489Y-19415706D01*
X90104000Y-19404500D01*
X90981089Y-19404500D01*
X91048128Y-19424185D01*
X91068770Y-19440819D01*
X91329181Y-19701230D01*
X91362666Y-19762553D01*
X91365500Y-19788911D01*
X91365500Y-20223974D01*
X91345815Y-20291013D01*
X91293011Y-20336768D01*
X91223853Y-20346712D01*
X91162836Y-20319828D01*
X91088683Y-20258973D01*
X91088677Y-20258969D01*
X90905496Y-20161056D01*
X90706716Y-20100757D01*
X90500000Y-20080398D01*
X90293283Y-20100757D01*
X90109272Y-20156576D01*
X90039405Y-20157199D01*
X89985596Y-20125596D01*
X89980000Y-20120000D01*
X88230000Y-20120000D01*
X88230000Y-20870000D01*
X89330178Y-20870000D01*
X89397217Y-20889685D01*
X89442972Y-20942489D01*
X89453580Y-21006152D01*
X89440398Y-21140000D01*
X89443925Y-21175815D01*
X89453581Y-21273846D01*
X89440562Y-21342492D01*
X89392497Y-21393202D01*
X89330178Y-21410000D01*
X88230000Y-21410000D01*
X88230000Y-22160000D01*
X89979999Y-22160000D01*
X89985595Y-22154404D01*
X90046917Y-22120918D01*
X90109269Y-22123422D01*
X90293282Y-22179242D01*
X90500000Y-22199602D01*
X90706718Y-22179242D01*
X90905492Y-22118945D01*
X90905496Y-22118943D01*
X91083047Y-22024040D01*
X91151449Y-22009798D01*
X91216693Y-22034798D01*
X91258064Y-22091103D01*
X91265500Y-22133398D01*
X91265500Y-22608614D01*
X91245815Y-22675653D01*
X91229181Y-22696295D01*
X90783999Y-23141476D01*
X90722676Y-23174961D01*
X90652984Y-23169977D01*
X90638693Y-23163592D01*
X90516846Y-23099643D01*
X90362527Y-23061607D01*
X90362526Y-23061607D01*
X90203584Y-23061607D01*
X90203582Y-23061607D01*
X90133674Y-23078837D01*
X90063872Y-23075767D01*
X90006810Y-23035447D01*
X89980605Y-22970678D01*
X89980000Y-22958440D01*
X89980000Y-22660000D01*
X87854000Y-22660000D01*
X87786961Y-22640315D01*
X87741206Y-22587511D01*
X87730000Y-22536000D01*
X87730000Y-21410000D01*
X86432155Y-21410000D01*
X86372627Y-21416401D01*
X86372620Y-21416403D01*
X86237913Y-21466645D01*
X86237906Y-21466649D01*
X86122812Y-21552809D01*
X86122809Y-21552812D01*
X86036649Y-21667906D01*
X86036645Y-21667913D01*
X85986403Y-21802620D01*
X85986401Y-21802627D01*
X85980000Y-21862155D01*
X85980000Y-22141115D01*
X85960315Y-22208154D01*
X85907511Y-22253909D01*
X85838353Y-22263853D01*
X85774797Y-22234828D01*
X85768319Y-22228796D01*
X84734248Y-21194725D01*
X84734244Y-21194722D01*
X84732301Y-21193600D01*
X84732301Y-21193599D01*
X84647260Y-21144502D01*
X84647255Y-21144499D01*
X84622996Y-21137999D01*
X84550225Y-21118500D01*
X84550222Y-21118500D01*
X78847022Y-21118500D01*
X78779983Y-21098815D01*
X78748515Y-21068369D01*
X78748467Y-21068413D01*
X78747905Y-21067779D01*
X78744973Y-21064942D01*
X78743494Y-21062799D01*
X78743490Y-21062796D01*
X78743489Y-21062794D01*
X78624526Y-20957401D01*
X78483787Y-20883536D01*
X78329468Y-20845500D01*
X78329467Y-20845500D01*
X78170525Y-20845500D01*
X78170524Y-20845500D01*
X78016204Y-20883536D01*
X77875465Y-20957401D01*
X77758122Y-21061359D01*
X77694889Y-21091081D01*
X77625626Y-21081897D01*
X77572322Y-21036725D01*
X77551902Y-20969906D01*
X77552799Y-20953597D01*
X77553877Y-20944724D01*
X77559307Y-20900000D01*
X77558346Y-20892089D01*
X77540149Y-20742218D01*
X77537225Y-20734508D01*
X77483787Y-20593605D01*
X77393498Y-20462799D01*
X77393495Y-20462796D01*
X77393493Y-20462794D01*
X77342755Y-20417844D01*
X85980000Y-20417844D01*
X85986401Y-20477372D01*
X85986403Y-20477379D01*
X86036645Y-20612086D01*
X86036649Y-20612093D01*
X86122809Y-20727187D01*
X86122812Y-20727190D01*
X86237906Y-20813350D01*
X86237913Y-20813354D01*
X86372620Y-20863596D01*
X86372627Y-20863598D01*
X86432155Y-20869999D01*
X86432172Y-20870000D01*
X87730000Y-20870000D01*
X87730000Y-20120000D01*
X85980000Y-20120000D01*
X85980000Y-20417844D01*
X77342755Y-20417844D01*
X77274530Y-20357401D01*
X77133791Y-20283536D01*
X76979472Y-20245500D01*
X76979471Y-20245500D01*
X76820529Y-20245500D01*
X76820528Y-20245500D01*
X76666208Y-20283536D01*
X76525469Y-20357401D01*
X76406506Y-20462794D01*
X76406501Y-20462800D01*
X76405023Y-20464942D01*
X76403537Y-20466145D01*
X76401529Y-20468413D01*
X76401151Y-20468078D01*
X76350739Y-20508931D01*
X76302974Y-20518500D01*
X74163572Y-20518500D01*
X74096533Y-20498815D01*
X74050778Y-20446011D01*
X74040834Y-20376853D01*
X74069859Y-20313297D01*
X74075891Y-20306819D01*
X74941891Y-19440819D01*
X75003214Y-19407334D01*
X75029572Y-19404500D01*
X85856000Y-19404500D01*
X85923039Y-19424185D01*
G37*
%TD.AperFunction*%
%TA.AperFunction,Conductor*%
G36*
X68877513Y-19024185D02*
G01*
X68923268Y-19076989D01*
X68933212Y-19146147D01*
X68917646Y-19185886D01*
X68919694Y-19186961D01*
X68916208Y-19193601D01*
X68859844Y-19342218D01*
X68840687Y-19499999D01*
X68840687Y-19500000D01*
X68859844Y-19657781D01*
X68883459Y-19720047D01*
X68916207Y-19806395D01*
X68916208Y-19806396D01*
X68919048Y-19811808D01*
X68932769Y-19880317D01*
X68907273Y-19945369D01*
X68850655Y-19986310D01*
X68809248Y-19993428D01*
X66914089Y-19993428D01*
X66870115Y-19985369D01*
X66865283Y-19983536D01*
X66710964Y-19945500D01*
X66710963Y-19945500D01*
X66552021Y-19945500D01*
X66552020Y-19945500D01*
X66397700Y-19983536D01*
X66256959Y-20057402D01*
X66253518Y-20059778D01*
X66250602Y-20060739D01*
X66250321Y-20060887D01*
X66250296Y-20060840D01*
X66187162Y-20081656D01*
X66119511Y-20064186D01*
X66101303Y-20050000D01*
X65183012Y-20050000D01*
X65215925Y-19992993D01*
X65250000Y-19865826D01*
X65250000Y-19734174D01*
X65215925Y-19607007D01*
X65183012Y-19550000D01*
X66100000Y-19550000D01*
X66100000Y-19128500D01*
X66119685Y-19061461D01*
X66172489Y-19015706D01*
X66224000Y-19004500D01*
X68810474Y-19004500D01*
X68877513Y-19024185D01*
G37*
%TD.AperFunction*%
%TD*%
M02*
