%TF.GenerationSoftware,KiCad,Pcbnew,8.0.7-8.0.7-0~ubuntu22.04.1*%
%TF.CreationDate,2024-12-10T17:00:38-05:00*%
%TF.ProjectId,breakout-tt07-qfn,62726561-6b6f-4757-942d-747430372d71,1.1*%
%TF.SameCoordinates,PX2b64660PY42c1d80*%
%TF.FileFunction,AssemblyDrawing,Bot*%
%FSLAX46Y46*%
G04 Gerber Fmt 4.6, Leading zero omitted, Abs format (unit mm)*
G04 Created by KiCad (PCBNEW 8.0.7-8.0.7-0~ubuntu22.04.1) date 2024-12-10 17:00:38*
%MOMM*%
%LPD*%
G01*
G04 APERTURE LIST*
%ADD10C,0.150000*%
%ADD11C,0.100000*%
G04 APERTURE END LIST*
D10*
X90761904Y-70973866D02*
X90714285Y-70926247D01*
X90714285Y-70926247D02*
X90619047Y-70878628D01*
X90619047Y-70878628D02*
X90428571Y-70973866D01*
X90428571Y-70973866D02*
X90333333Y-70926247D01*
X90333333Y-70926247D02*
X90285714Y-70878628D01*
X91714285Y-44359580D02*
X91761904Y-44407200D01*
X91761904Y-44407200D02*
X91904761Y-44454819D01*
X91904761Y-44454819D02*
X91999999Y-44454819D01*
X91999999Y-44454819D02*
X92142856Y-44407200D01*
X92142856Y-44407200D02*
X92238094Y-44311961D01*
X92238094Y-44311961D02*
X92285713Y-44216723D01*
X92285713Y-44216723D02*
X92333332Y-44026247D01*
X92333332Y-44026247D02*
X92333332Y-43883390D01*
X92333332Y-43883390D02*
X92285713Y-43692914D01*
X92285713Y-43692914D02*
X92238094Y-43597676D01*
X92238094Y-43597676D02*
X92142856Y-43502438D01*
X92142856Y-43502438D02*
X91999999Y-43454819D01*
X91999999Y-43454819D02*
X91904761Y-43454819D01*
X91904761Y-43454819D02*
X91761904Y-43502438D01*
X91761904Y-43502438D02*
X91714285Y-43550057D01*
X91095237Y-43454819D02*
X90904761Y-43454819D01*
X90904761Y-43454819D02*
X90809523Y-43502438D01*
X90809523Y-43502438D02*
X90714285Y-43597676D01*
X90714285Y-43597676D02*
X90666666Y-43788152D01*
X90666666Y-43788152D02*
X90666666Y-44121485D01*
X90666666Y-44121485D02*
X90714285Y-44311961D01*
X90714285Y-44311961D02*
X90809523Y-44407200D01*
X90809523Y-44407200D02*
X90904761Y-44454819D01*
X90904761Y-44454819D02*
X91095237Y-44454819D01*
X91095237Y-44454819D02*
X91190475Y-44407200D01*
X91190475Y-44407200D02*
X91285713Y-44311961D01*
X91285713Y-44311961D02*
X91333332Y-44121485D01*
X91333332Y-44121485D02*
X91333332Y-43788152D01*
X91333332Y-43788152D02*
X91285713Y-43597676D01*
X91285713Y-43597676D02*
X91190475Y-43502438D01*
X91190475Y-43502438D02*
X91095237Y-43454819D01*
X90238094Y-44454819D02*
X90238094Y-43454819D01*
X90238094Y-43454819D02*
X89666666Y-44454819D01*
X89666666Y-44454819D02*
X89666666Y-43454819D01*
X89238094Y-43550057D02*
X89190475Y-43502438D01*
X89190475Y-43502438D02*
X89095237Y-43454819D01*
X89095237Y-43454819D02*
X88857142Y-43454819D01*
X88857142Y-43454819D02*
X88761904Y-43502438D01*
X88761904Y-43502438D02*
X88714285Y-43550057D01*
X88714285Y-43550057D02*
X88666666Y-43645295D01*
X88666666Y-43645295D02*
X88666666Y-43740533D01*
X88666666Y-43740533D02*
X88714285Y-43883390D01*
X88714285Y-43883390D02*
X89285713Y-44454819D01*
X89285713Y-44454819D02*
X88666666Y-44454819D01*
X67598895Y-65912867D02*
X66932229Y-65912867D01*
X66932229Y-65912867D02*
X67598895Y-66912867D01*
X67598895Y-66912867D02*
X66932229Y-66912867D01*
X66598895Y-66008105D02*
X66551276Y-65960486D01*
X66551276Y-65960486D02*
X66456038Y-65912867D01*
X66456038Y-65912867D02*
X66217943Y-65912867D01*
X66217943Y-65912867D02*
X66122705Y-65960486D01*
X66122705Y-65960486D02*
X66075086Y-66008105D01*
X66075086Y-66008105D02*
X66027467Y-66103343D01*
X66027467Y-66103343D02*
X66027467Y-66198581D01*
X66027467Y-66198581D02*
X66075086Y-66341438D01*
X66075086Y-66341438D02*
X66646514Y-66912867D01*
X66646514Y-66912867D02*
X66027467Y-66912867D01*
X65646514Y-66627152D02*
X65170324Y-66627152D01*
X65741752Y-66912867D02*
X65408419Y-65912867D01*
X65408419Y-65912867D02*
X65075086Y-66912867D01*
X64979848Y-67008105D02*
X64217943Y-67008105D01*
X63836990Y-66912867D02*
X63932228Y-66865248D01*
X63932228Y-66865248D02*
X63979847Y-66770009D01*
X63979847Y-66770009D02*
X63979847Y-65912867D01*
X63313180Y-66912867D02*
X63408418Y-66865248D01*
X63408418Y-66865248D02*
X63456037Y-66817628D01*
X63456037Y-66817628D02*
X63503656Y-66722390D01*
X63503656Y-66722390D02*
X63503656Y-66436676D01*
X63503656Y-66436676D02*
X63456037Y-66341438D01*
X63456037Y-66341438D02*
X63408418Y-66293819D01*
X63408418Y-66293819D02*
X63313180Y-66246200D01*
X63313180Y-66246200D02*
X63170323Y-66246200D01*
X63170323Y-66246200D02*
X63075085Y-66293819D01*
X63075085Y-66293819D02*
X63027466Y-66341438D01*
X63027466Y-66341438D02*
X62979847Y-66436676D01*
X62979847Y-66436676D02*
X62979847Y-66722390D01*
X62979847Y-66722390D02*
X63027466Y-66817628D01*
X63027466Y-66817628D02*
X63075085Y-66865248D01*
X63075085Y-66865248D02*
X63170323Y-66912867D01*
X63170323Y-66912867D02*
X63313180Y-66912867D01*
X62122704Y-66246200D02*
X62122704Y-67055724D01*
X62122704Y-67055724D02*
X62170323Y-67150962D01*
X62170323Y-67150962D02*
X62217942Y-67198581D01*
X62217942Y-67198581D02*
X62313180Y-67246200D01*
X62313180Y-67246200D02*
X62456037Y-67246200D01*
X62456037Y-67246200D02*
X62551275Y-67198581D01*
X62122704Y-66865248D02*
X62217942Y-66912867D01*
X62217942Y-66912867D02*
X62408418Y-66912867D01*
X62408418Y-66912867D02*
X62503656Y-66865248D01*
X62503656Y-66865248D02*
X62551275Y-66817628D01*
X62551275Y-66817628D02*
X62598894Y-66722390D01*
X62598894Y-66722390D02*
X62598894Y-66436676D01*
X62598894Y-66436676D02*
X62551275Y-66341438D01*
X62551275Y-66341438D02*
X62503656Y-66293819D01*
X62503656Y-66293819D02*
X62408418Y-66246200D01*
X62408418Y-66246200D02*
X62217942Y-66246200D01*
X62217942Y-66246200D02*
X62122704Y-66293819D01*
X61503656Y-66912867D02*
X61598894Y-66865248D01*
X61598894Y-66865248D02*
X61646513Y-66817628D01*
X61646513Y-66817628D02*
X61694132Y-66722390D01*
X61694132Y-66722390D02*
X61694132Y-66436676D01*
X61694132Y-66436676D02*
X61646513Y-66341438D01*
X61646513Y-66341438D02*
X61598894Y-66293819D01*
X61598894Y-66293819D02*
X61503656Y-66246200D01*
X61503656Y-66246200D02*
X61360799Y-66246200D01*
X61360799Y-66246200D02*
X61265561Y-66293819D01*
X61265561Y-66293819D02*
X61217942Y-66341438D01*
X61217942Y-66341438D02*
X61170323Y-66436676D01*
X61170323Y-66436676D02*
X61170323Y-66722390D01*
X61170323Y-66722390D02*
X61217942Y-66817628D01*
X61217942Y-66817628D02*
X61265561Y-66865248D01*
X61265561Y-66865248D02*
X61360799Y-66912867D01*
X61360799Y-66912867D02*
X61503656Y-66912867D01*
X63545180Y-39616666D02*
X63545180Y-39045238D01*
X62545180Y-39330952D02*
X63545180Y-39330952D01*
X63545180Y-38854761D02*
X63545180Y-38283333D01*
X62545180Y-38569047D02*
X63545180Y-38569047D01*
X62449942Y-38188095D02*
X62449942Y-37426190D01*
X62545180Y-37045237D02*
X62592800Y-37140475D01*
X62592800Y-37140475D02*
X62688038Y-37188094D01*
X62688038Y-37188094D02*
X63545180Y-37188094D01*
X62545180Y-36521427D02*
X62592800Y-36616665D01*
X62592800Y-36616665D02*
X62640419Y-36664284D01*
X62640419Y-36664284D02*
X62735657Y-36711903D01*
X62735657Y-36711903D02*
X63021371Y-36711903D01*
X63021371Y-36711903D02*
X63116609Y-36664284D01*
X63116609Y-36664284D02*
X63164228Y-36616665D01*
X63164228Y-36616665D02*
X63211847Y-36521427D01*
X63211847Y-36521427D02*
X63211847Y-36378570D01*
X63211847Y-36378570D02*
X63164228Y-36283332D01*
X63164228Y-36283332D02*
X63116609Y-36235713D01*
X63116609Y-36235713D02*
X63021371Y-36188094D01*
X63021371Y-36188094D02*
X62735657Y-36188094D01*
X62735657Y-36188094D02*
X62640419Y-36235713D01*
X62640419Y-36235713D02*
X62592800Y-36283332D01*
X62592800Y-36283332D02*
X62545180Y-36378570D01*
X62545180Y-36378570D02*
X62545180Y-36521427D01*
X63211847Y-35330951D02*
X62402323Y-35330951D01*
X62402323Y-35330951D02*
X62307085Y-35378570D01*
X62307085Y-35378570D02*
X62259466Y-35426189D01*
X62259466Y-35426189D02*
X62211847Y-35521427D01*
X62211847Y-35521427D02*
X62211847Y-35664284D01*
X62211847Y-35664284D02*
X62259466Y-35759522D01*
X62592800Y-35330951D02*
X62545180Y-35426189D01*
X62545180Y-35426189D02*
X62545180Y-35616665D01*
X62545180Y-35616665D02*
X62592800Y-35711903D01*
X62592800Y-35711903D02*
X62640419Y-35759522D01*
X62640419Y-35759522D02*
X62735657Y-35807141D01*
X62735657Y-35807141D02*
X63021371Y-35807141D01*
X63021371Y-35807141D02*
X63116609Y-35759522D01*
X63116609Y-35759522D02*
X63164228Y-35711903D01*
X63164228Y-35711903D02*
X63211847Y-35616665D01*
X63211847Y-35616665D02*
X63211847Y-35426189D01*
X63211847Y-35426189D02*
X63164228Y-35330951D01*
X62545180Y-34711903D02*
X62592800Y-34807141D01*
X62592800Y-34807141D02*
X62640419Y-34854760D01*
X62640419Y-34854760D02*
X62735657Y-34902379D01*
X62735657Y-34902379D02*
X63021371Y-34902379D01*
X63021371Y-34902379D02*
X63116609Y-34854760D01*
X63116609Y-34854760D02*
X63164228Y-34807141D01*
X63164228Y-34807141D02*
X63211847Y-34711903D01*
X63211847Y-34711903D02*
X63211847Y-34569046D01*
X63211847Y-34569046D02*
X63164228Y-34473808D01*
X63164228Y-34473808D02*
X63116609Y-34426189D01*
X63116609Y-34426189D02*
X63021371Y-34378570D01*
X63021371Y-34378570D02*
X62735657Y-34378570D01*
X62735657Y-34378570D02*
X62640419Y-34426189D01*
X62640419Y-34426189D02*
X62592800Y-34473808D01*
X62592800Y-34473808D02*
X62545180Y-34569046D01*
X62545180Y-34569046D02*
X62545180Y-34711903D01*
X50761904Y-70973866D02*
X50714285Y-70926247D01*
X50714285Y-70926247D02*
X50619047Y-70878628D01*
X50619047Y-70878628D02*
X50428571Y-70973866D01*
X50428571Y-70973866D02*
X50333333Y-70926247D01*
X50333333Y-70926247D02*
X50285714Y-70878628D01*
X50859580Y-42785714D02*
X50907200Y-42738095D01*
X50907200Y-42738095D02*
X50954819Y-42595238D01*
X50954819Y-42595238D02*
X50954819Y-42500000D01*
X50954819Y-42500000D02*
X50907200Y-42357143D01*
X50907200Y-42357143D02*
X50811961Y-42261905D01*
X50811961Y-42261905D02*
X50716723Y-42214286D01*
X50716723Y-42214286D02*
X50526247Y-42166667D01*
X50526247Y-42166667D02*
X50383390Y-42166667D01*
X50383390Y-42166667D02*
X50192914Y-42214286D01*
X50192914Y-42214286D02*
X50097676Y-42261905D01*
X50097676Y-42261905D02*
X50002438Y-42357143D01*
X50002438Y-42357143D02*
X49954819Y-42500000D01*
X49954819Y-42500000D02*
X49954819Y-42595238D01*
X49954819Y-42595238D02*
X50002438Y-42738095D01*
X50002438Y-42738095D02*
X50050057Y-42785714D01*
X49954819Y-43404762D02*
X49954819Y-43595238D01*
X49954819Y-43595238D02*
X50002438Y-43690476D01*
X50002438Y-43690476D02*
X50097676Y-43785714D01*
X50097676Y-43785714D02*
X50288152Y-43833333D01*
X50288152Y-43833333D02*
X50621485Y-43833333D01*
X50621485Y-43833333D02*
X50811961Y-43785714D01*
X50811961Y-43785714D02*
X50907200Y-43690476D01*
X50907200Y-43690476D02*
X50954819Y-43595238D01*
X50954819Y-43595238D02*
X50954819Y-43404762D01*
X50954819Y-43404762D02*
X50907200Y-43309524D01*
X50907200Y-43309524D02*
X50811961Y-43214286D01*
X50811961Y-43214286D02*
X50621485Y-43166667D01*
X50621485Y-43166667D02*
X50288152Y-43166667D01*
X50288152Y-43166667D02*
X50097676Y-43214286D01*
X50097676Y-43214286D02*
X50002438Y-43309524D01*
X50002438Y-43309524D02*
X49954819Y-43404762D01*
X50954819Y-44261905D02*
X49954819Y-44261905D01*
X49954819Y-44261905D02*
X50954819Y-44833333D01*
X50954819Y-44833333D02*
X49954819Y-44833333D01*
X50954819Y-45833333D02*
X50954819Y-45261905D01*
X50954819Y-45547619D02*
X49954819Y-45547619D01*
X49954819Y-45547619D02*
X50097676Y-45452381D01*
X50097676Y-45452381D02*
X50192914Y-45357143D01*
X50192914Y-45357143D02*
X50240533Y-45261905D01*
D11*
%TO.C,CON2*%
X86580000Y-19550000D02*
X87960000Y-19550000D01*
X86580000Y-20190000D02*
X86580000Y-19550000D01*
X86580000Y-22090000D02*
X87960000Y-22090000D01*
X86580000Y-22730000D02*
X86580000Y-22090000D01*
X86580000Y-24630000D02*
X87960000Y-24630000D01*
X86580000Y-25270000D02*
X86580000Y-24630000D01*
X86580000Y-27170000D02*
X87960000Y-27170000D01*
X86580000Y-27810000D02*
X86580000Y-27170000D01*
X86580000Y-29710000D02*
X87960000Y-29710000D01*
X86580000Y-30350000D02*
X86580000Y-29710000D01*
X86580000Y-32250000D02*
X87960000Y-32250000D01*
X86580000Y-32890000D02*
X86580000Y-32250000D01*
X86580000Y-34790000D02*
X87960000Y-34790000D01*
X86580000Y-35430000D02*
X86580000Y-34790000D01*
X86580000Y-37330000D02*
X87960000Y-37330000D01*
X86580000Y-37970000D02*
X86580000Y-37330000D01*
X86580000Y-39870000D02*
X87960000Y-39870000D01*
X86580000Y-40510000D02*
X86580000Y-39870000D01*
X86580000Y-42410000D02*
X87960000Y-42410000D01*
X86580000Y-43050000D02*
X86580000Y-42410000D01*
X86580000Y-44950000D02*
X87960000Y-44950000D01*
X86580000Y-45590000D02*
X86580000Y-44950000D01*
X86580000Y-47490000D02*
X87960000Y-47490000D01*
X86580000Y-48130000D02*
X86580000Y-47490000D01*
X86580000Y-50030000D02*
X87960000Y-50030000D01*
X86580000Y-50670000D02*
X86580000Y-50030000D01*
X86580000Y-52570000D02*
X87960000Y-52570000D01*
X86580000Y-53210000D02*
X86580000Y-52570000D01*
X86580000Y-55110000D02*
X87960000Y-55110000D01*
X86580000Y-55750000D02*
X86580000Y-55110000D01*
X86580000Y-57650000D02*
X87960000Y-57650000D01*
X86580000Y-58290000D02*
X86580000Y-57650000D01*
X86580000Y-60190000D02*
X87960000Y-60190000D01*
X86580000Y-60830000D02*
X86580000Y-60190000D01*
X86580000Y-62730000D02*
X87960000Y-62730000D01*
X86580000Y-63370000D02*
X86580000Y-62730000D01*
X86580000Y-65270000D02*
X87960000Y-65270000D01*
X86580000Y-65910000D02*
X86580000Y-65270000D01*
X86580000Y-67810000D02*
X87960000Y-67810000D01*
X86580000Y-68450000D02*
X86580000Y-67810000D01*
X87960000Y-19600000D02*
X88960000Y-18600000D01*
X87960000Y-20190000D02*
X86580000Y-20190000D01*
X87960000Y-22730000D02*
X86580000Y-22730000D01*
X87960000Y-25270000D02*
X86580000Y-25270000D01*
X87960000Y-27810000D02*
X86580000Y-27810000D01*
X87960000Y-30350000D02*
X86580000Y-30350000D01*
X87960000Y-32890000D02*
X86580000Y-32890000D01*
X87960000Y-35430000D02*
X86580000Y-35430000D01*
X87960000Y-37970000D02*
X86580000Y-37970000D01*
X87960000Y-40510000D02*
X86580000Y-40510000D01*
X87960000Y-43050000D02*
X86580000Y-43050000D01*
X87960000Y-45590000D02*
X86580000Y-45590000D01*
X87960000Y-48130000D02*
X86580000Y-48130000D01*
X87960000Y-50670000D02*
X86580000Y-50670000D01*
X87960000Y-53210000D02*
X86580000Y-53210000D01*
X87960000Y-55750000D02*
X86580000Y-55750000D01*
X87960000Y-58290000D02*
X86580000Y-58290000D01*
X87960000Y-60830000D02*
X86580000Y-60830000D01*
X87960000Y-63370000D02*
X86580000Y-63370000D01*
X87960000Y-65910000D02*
X86580000Y-65910000D01*
X87960000Y-68450000D02*
X86580000Y-68450000D01*
X87960000Y-69400000D02*
X87960000Y-19600000D01*
X88960000Y-18600000D02*
X93040000Y-18600000D01*
X93040000Y-18600000D02*
X93040000Y-69400000D01*
X93040000Y-19550000D02*
X94420000Y-19550000D01*
X93040000Y-22090000D02*
X94420000Y-22090000D01*
X93040000Y-24630000D02*
X94420000Y-24630000D01*
X93040000Y-27170000D02*
X94420000Y-27170000D01*
X93040000Y-29710000D02*
X94420000Y-29710000D01*
X93040000Y-32250000D02*
X94420000Y-32250000D01*
X93040000Y-34790000D02*
X94420000Y-34790000D01*
X93040000Y-37330000D02*
X94420000Y-37330000D01*
X93040000Y-39870000D02*
X94420000Y-39870000D01*
X93040000Y-42410000D02*
X94420000Y-42410000D01*
X93040000Y-44950000D02*
X94420000Y-44950000D01*
X93040000Y-47490000D02*
X94420000Y-47490000D01*
X93040000Y-50030000D02*
X94420000Y-50030000D01*
X93040000Y-52570000D02*
X94420000Y-52570000D01*
X93040000Y-55110000D02*
X94420000Y-55110000D01*
X93040000Y-57650000D02*
X94420000Y-57650000D01*
X93040000Y-60190000D02*
X94420000Y-60190000D01*
X93040000Y-62730000D02*
X94420000Y-62730000D01*
X93040000Y-65270000D02*
X94420000Y-65270000D01*
X93040000Y-67810000D02*
X94420000Y-67810000D01*
X93040000Y-69400000D02*
X87960000Y-69400000D01*
X94420000Y-19550000D02*
X94420000Y-20190000D01*
X94420000Y-20190000D02*
X93040000Y-20190000D01*
X94420000Y-22090000D02*
X94420000Y-22730000D01*
X94420000Y-22730000D02*
X93040000Y-22730000D01*
X94420000Y-24630000D02*
X94420000Y-25270000D01*
X94420000Y-25270000D02*
X93040000Y-25270000D01*
X94420000Y-27170000D02*
X94420000Y-27810000D01*
X94420000Y-27810000D02*
X93040000Y-27810000D01*
X94420000Y-29710000D02*
X94420000Y-30350000D01*
X94420000Y-30350000D02*
X93040000Y-30350000D01*
X94420000Y-32250000D02*
X94420000Y-32890000D01*
X94420000Y-32890000D02*
X93040000Y-32890000D01*
X94420000Y-34790000D02*
X94420000Y-35430000D01*
X94420000Y-35430000D02*
X93040000Y-35430000D01*
X94420000Y-37330000D02*
X94420000Y-37970000D01*
X94420000Y-37970000D02*
X93040000Y-37970000D01*
X94420000Y-39870000D02*
X94420000Y-40510000D01*
X94420000Y-40510000D02*
X93040000Y-40510000D01*
X94420000Y-42410000D02*
X94420000Y-43050000D01*
X94420000Y-43050000D02*
X93040000Y-43050000D01*
X94420000Y-44950000D02*
X94420000Y-45590000D01*
X94420000Y-45590000D02*
X93040000Y-45590000D01*
X94420000Y-47490000D02*
X94420000Y-48130000D01*
X94420000Y-48130000D02*
X93040000Y-48130000D01*
X94420000Y-50030000D02*
X94420000Y-50670000D01*
X94420000Y-50670000D02*
X93040000Y-50670000D01*
X94420000Y-52570000D02*
X94420000Y-53210000D01*
X94420000Y-53210000D02*
X93040000Y-53210000D01*
X94420000Y-55110000D02*
X94420000Y-55750000D01*
X94420000Y-55750000D02*
X93040000Y-55750000D01*
X94420000Y-57650000D02*
X94420000Y-58290000D01*
X94420000Y-58290000D02*
X93040000Y-58290000D01*
X94420000Y-60190000D02*
X94420000Y-60830000D01*
X94420000Y-60830000D02*
X93040000Y-60830000D01*
X94420000Y-62730000D02*
X94420000Y-63370000D01*
X94420000Y-63370000D02*
X93040000Y-63370000D01*
X94420000Y-65270000D02*
X94420000Y-65910000D01*
X94420000Y-65910000D02*
X93040000Y-65910000D01*
X94420000Y-67810000D02*
X94420000Y-68450000D01*
X94420000Y-68450000D02*
X93040000Y-68450000D01*
%TO.C,CON1*%
X46580000Y-19550000D02*
X47960000Y-19550000D01*
X46580000Y-20190000D02*
X46580000Y-19550000D01*
X46580000Y-22090000D02*
X47960000Y-22090000D01*
X46580000Y-22730000D02*
X46580000Y-22090000D01*
X46580000Y-24630000D02*
X47960000Y-24630000D01*
X46580000Y-25270000D02*
X46580000Y-24630000D01*
X46580000Y-27170000D02*
X47960000Y-27170000D01*
X46580000Y-27810000D02*
X46580000Y-27170000D01*
X46580000Y-29710000D02*
X47960000Y-29710000D01*
X46580000Y-30350000D02*
X46580000Y-29710000D01*
X46580000Y-32250000D02*
X47960000Y-32250000D01*
X46580000Y-32890000D02*
X46580000Y-32250000D01*
X46580000Y-34790000D02*
X47960000Y-34790000D01*
X46580000Y-35430000D02*
X46580000Y-34790000D01*
X46580000Y-37330000D02*
X47960000Y-37330000D01*
X46580000Y-37970000D02*
X46580000Y-37330000D01*
X46580000Y-39870000D02*
X47960000Y-39870000D01*
X46580000Y-40510000D02*
X46580000Y-39870000D01*
X46580000Y-42410000D02*
X47960000Y-42410000D01*
X46580000Y-43050000D02*
X46580000Y-42410000D01*
X46580000Y-44950000D02*
X47960000Y-44950000D01*
X46580000Y-45590000D02*
X46580000Y-44950000D01*
X46580000Y-47490000D02*
X47960000Y-47490000D01*
X46580000Y-48130000D02*
X46580000Y-47490000D01*
X46580000Y-50030000D02*
X47960000Y-50030000D01*
X46580000Y-50670000D02*
X46580000Y-50030000D01*
X46580000Y-52570000D02*
X47960000Y-52570000D01*
X46580000Y-53210000D02*
X46580000Y-52570000D01*
X46580000Y-55110000D02*
X47960000Y-55110000D01*
X46580000Y-55750000D02*
X46580000Y-55110000D01*
X46580000Y-57650000D02*
X47960000Y-57650000D01*
X46580000Y-58290000D02*
X46580000Y-57650000D01*
X46580000Y-60190000D02*
X47960000Y-60190000D01*
X46580000Y-60830000D02*
X46580000Y-60190000D01*
X46580000Y-62730000D02*
X47960000Y-62730000D01*
X46580000Y-63370000D02*
X46580000Y-62730000D01*
X46580000Y-65270000D02*
X47960000Y-65270000D01*
X46580000Y-65910000D02*
X46580000Y-65270000D01*
X46580000Y-67810000D02*
X47960000Y-67810000D01*
X46580000Y-68450000D02*
X46580000Y-67810000D01*
X47960000Y-19600000D02*
X48960000Y-18600000D01*
X47960000Y-20190000D02*
X46580000Y-20190000D01*
X47960000Y-22730000D02*
X46580000Y-22730000D01*
X47960000Y-25270000D02*
X46580000Y-25270000D01*
X47960000Y-27810000D02*
X46580000Y-27810000D01*
X47960000Y-30350000D02*
X46580000Y-30350000D01*
X47960000Y-32890000D02*
X46580000Y-32890000D01*
X47960000Y-35430000D02*
X46580000Y-35430000D01*
X47960000Y-37970000D02*
X46580000Y-37970000D01*
X47960000Y-40510000D02*
X46580000Y-40510000D01*
X47960000Y-43050000D02*
X46580000Y-43050000D01*
X47960000Y-45590000D02*
X46580000Y-45590000D01*
X47960000Y-48130000D02*
X46580000Y-48130000D01*
X47960000Y-50670000D02*
X46580000Y-50670000D01*
X47960000Y-53210000D02*
X46580000Y-53210000D01*
X47960000Y-55750000D02*
X46580000Y-55750000D01*
X47960000Y-58290000D02*
X46580000Y-58290000D01*
X47960000Y-60830000D02*
X46580000Y-60830000D01*
X47960000Y-63370000D02*
X46580000Y-63370000D01*
X47960000Y-65910000D02*
X46580000Y-65910000D01*
X47960000Y-68450000D02*
X46580000Y-68450000D01*
X47960000Y-69400000D02*
X47960000Y-19600000D01*
X48960000Y-18600000D02*
X53040000Y-18600000D01*
X53040000Y-18600000D02*
X53040000Y-69400000D01*
X53040000Y-19550000D02*
X54420000Y-19550000D01*
X53040000Y-22090000D02*
X54420000Y-22090000D01*
X53040000Y-24630000D02*
X54420000Y-24630000D01*
X53040000Y-27170000D02*
X54420000Y-27170000D01*
X53040000Y-29710000D02*
X54420000Y-29710000D01*
X53040000Y-32250000D02*
X54420000Y-32250000D01*
X53040000Y-34790000D02*
X54420000Y-34790000D01*
X53040000Y-37330000D02*
X54420000Y-37330000D01*
X53040000Y-39870000D02*
X54420000Y-39870000D01*
X53040000Y-42410000D02*
X54420000Y-42410000D01*
X53040000Y-44950000D02*
X54420000Y-44950000D01*
X53040000Y-47490000D02*
X54420000Y-47490000D01*
X53040000Y-50030000D02*
X54420000Y-50030000D01*
X53040000Y-52570000D02*
X54420000Y-52570000D01*
X53040000Y-55110000D02*
X54420000Y-55110000D01*
X53040000Y-57650000D02*
X54420000Y-57650000D01*
X53040000Y-60190000D02*
X54420000Y-60190000D01*
X53040000Y-62730000D02*
X54420000Y-62730000D01*
X53040000Y-65270000D02*
X54420000Y-65270000D01*
X53040000Y-67810000D02*
X54420000Y-67810000D01*
X53040000Y-69400000D02*
X47960000Y-69400000D01*
X54420000Y-19550000D02*
X54420000Y-20190000D01*
X54420000Y-20190000D02*
X53040000Y-20190000D01*
X54420000Y-22090000D02*
X54420000Y-22730000D01*
X54420000Y-22730000D02*
X53040000Y-22730000D01*
X54420000Y-24630000D02*
X54420000Y-25270000D01*
X54420000Y-25270000D02*
X53040000Y-25270000D01*
X54420000Y-27170000D02*
X54420000Y-27810000D01*
X54420000Y-27810000D02*
X53040000Y-27810000D01*
X54420000Y-29710000D02*
X54420000Y-30350000D01*
X54420000Y-30350000D02*
X53040000Y-30350000D01*
X54420000Y-32250000D02*
X54420000Y-32890000D01*
X54420000Y-32890000D02*
X53040000Y-32890000D01*
X54420000Y-34790000D02*
X54420000Y-35430000D01*
X54420000Y-35430000D02*
X53040000Y-35430000D01*
X54420000Y-37330000D02*
X54420000Y-37970000D01*
X54420000Y-37970000D02*
X53040000Y-37970000D01*
X54420000Y-39870000D02*
X54420000Y-40510000D01*
X54420000Y-40510000D02*
X53040000Y-40510000D01*
X54420000Y-42410000D02*
X54420000Y-43050000D01*
X54420000Y-43050000D02*
X53040000Y-43050000D01*
X54420000Y-44950000D02*
X54420000Y-45590000D01*
X54420000Y-45590000D02*
X53040000Y-45590000D01*
X54420000Y-47490000D02*
X54420000Y-48130000D01*
X54420000Y-48130000D02*
X53040000Y-48130000D01*
X54420000Y-50030000D02*
X54420000Y-50670000D01*
X54420000Y-50670000D02*
X53040000Y-50670000D01*
X54420000Y-52570000D02*
X54420000Y-53210000D01*
X54420000Y-53210000D02*
X53040000Y-53210000D01*
X54420000Y-55110000D02*
X54420000Y-55750000D01*
X54420000Y-55750000D02*
X53040000Y-55750000D01*
X54420000Y-57650000D02*
X54420000Y-58290000D01*
X54420000Y-58290000D02*
X53040000Y-58290000D01*
X54420000Y-60190000D02*
X54420000Y-60830000D01*
X54420000Y-60830000D02*
X53040000Y-60830000D01*
X54420000Y-62730000D02*
X54420000Y-63370000D01*
X54420000Y-63370000D02*
X53040000Y-63370000D01*
X54420000Y-65270000D02*
X54420000Y-65910000D01*
X54420000Y-65910000D02*
X53040000Y-65910000D01*
X54420000Y-67810000D02*
X54420000Y-68450000D01*
X54420000Y-68450000D02*
X53040000Y-68450000D01*
%TD*%
M02*
