M48
; DRILL file {KiCad 8.0.7-8.0.7-0~ubuntu22.04.1} date 2024-12-10T17:00:38-0500
; FORMAT={-:-/ absolute / metric / decimal}
; #@! TF.CreationDate,2024-12-10T17:00:38-05:00
; #@! TF.GenerationSoftware,Kicad,Pcbnew,8.0.7-8.0.7-0~ubuntu22.04.1
; #@! TF.FileFunction,MixedPlating,1,2
FMAT,2
METRIC
; #@! TA.AperFunction,Plated,PTH,ViaDrill
T1C0.300
; #@! TA.AperFunction,Plated,PTH,ComponentDrill
T2C0.300
; #@! TA.AperFunction,Plated,PTH,ViaDrill
T3C0.400
; #@! TA.AperFunction,Plated,PTH,ComponentDrill
T4C0.400
; #@! TA.AperFunction,Plated,PTH,ComponentDrill
T5C1.000
; #@! TA.AperFunction,NonPlated,NPTH,ComponentDrill
T6C1.300
%
G90
G05
T1
X51.55Y-23.7
X51.7Y-19.5
X63.25Y-40.308
X63.674Y-47.939
X65.3Y-50.2
X70.25Y-48.25
X71.2Y-36.4
X74.5Y-28.1
X76.044Y-41.272
X77.5Y-28.1
X78.75Y-41.9
T2
X48.3Y-69.3
X50.1Y-18.7
X51.0Y-68.8
X55.2Y-21.85
X60.4Y-62.6
X60.95Y-18.7
X61.2Y-50.4
X62.4Y-41.8
X62.5Y-43.6
X64.7Y-56.1
X65.8Y-57.1
X68.0Y-54.8
X69.1Y-40.95
X69.1Y-43.5
X71.3Y-32.7
X71.7Y-40.95
X71.7Y-43.5
X72.8Y-51.4
X72.8Y-53.4
X72.8Y-55.4
X72.8Y-57.5
X72.8Y-59.6
X75.35Y-31.55
X75.9Y-37.4
X76.8Y-39.6
X78.2Y-65.0
X79.3Y-44.6
X81.5Y-41.9
X85.1Y-57.7
X85.1Y-60.9
T3
X47.25Y-59.41
X48.2Y-28.93
X48.35Y-22.9
X49.2Y-38.8
X49.4Y-41.6
X49.5Y-69.3
X49.559Y-30.941
X49.75Y-32.75
X49.75Y-35.0
X49.876Y-62.582
X50.25Y-68.25
X50.6Y-26.65
X50.75Y-61.75
X51.027Y-29.127
X51.25Y-50.25
X51.25Y-56.0
X51.5Y-45.75
X51.5Y-64.2
X52.15Y-65.05
X52.25Y-21.25
X52.9Y-56.9
X52.9Y-59.41
X52.95Y-54.004
X53.0Y-49.25
X53.25Y-42.0
X53.3Y-46.5
X53.75Y-61.35
X54.0Y-48.5
X54.0Y-53.99
X54.394Y-34.85
X55.0Y-37.75
X55.2Y-43.7
X55.75Y-63.25
X55.78Y-68.78
X56.5Y-39.2
X56.7Y-59.8
X56.8Y-46.2
X56.8Y-49.7
X56.8Y-56.825
X56.9Y-42.2
X56.9Y-53.1
X58.09Y-28.34
X58.7Y-57.5
X58.8Y-45.1
X58.8Y-50.6
X60.4Y-39.4
X60.6Y-53.3
X60.7Y-42.3
X62.2Y-56.1
X63.0Y-25.25
X64.0Y-28.25
X66.631Y-20.6
X67.5Y-28.25
X67.75Y-33.6
X68.043Y-48.305
X68.4Y-29.914
X68.5Y-25.0
X69.5Y-19.5
X69.97Y-28.09
X70.25Y-26.75
X70.371Y-18.7
X71.2Y-30.2
X71.25Y-21.55
X71.901Y-22.349
X73.025Y-36.425
X74.0Y-18.75
X74.0Y-34.25
X74.9Y-34.3
X75.4Y-21.95
X75.5Y-50.0
X76.0Y-27.323
X76.7Y-49.5
X76.9Y-20.9
X78.25Y-21.5
X79.0Y-37.5
X79.8Y-22.5
X79.9Y-25.5
X79.9Y-38.9
X80.0Y-29.4
X81.7Y-34.9
X81.713Y-33.4
X81.8Y-27.9
X83.6Y-22.5
X83.7Y-36.0
X83.8Y-25.6
X83.8Y-29.3
X83.8Y-32.7
X83.8Y-39.1
X84.1Y-42.4
X85.7Y-41.5
X85.7Y-47.8
X85.895Y-54.799
X85.97Y-50.25
X86.0Y-58.5
X86.0Y-61.4
X86.0Y-65.688
X86.5Y-30.5
X86.5Y-36.55
X86.75Y-24.5
X87.2Y-33.67
X87.3Y-39.9
X87.484Y-26.05
X87.6Y-28.6
X87.75Y-36.57
X88.0Y-21.2
X89.5Y-28.25
X89.5Y-32.75
X89.5Y-38.75
X90.225Y-46.657
X90.283Y-23.716
X90.5Y-68.26
X90.655Y-45.166
X90.7Y-24.7
X90.75Y-43.5
X90.9Y-53.7
X91.0Y-51.95
X91.0Y-58.0
X91.2Y-23.716
X91.25Y-49.5
X91.25Y-60.0
X91.25Y-65.0
X91.405Y-45.901
X91.624Y-44.082
X92.5Y-18.75
X92.5Y-69.25
X93.5Y-41.5
X93.5Y-56.6
X93.5Y-61.61
X93.6Y-27.6
X93.6Y-39.0
X93.7Y-35.1
X94.25Y-64.15
X94.3Y-53.99
X94.8Y-46.5
T4
X46.8Y-23.7
X46.8Y-28.8
X46.8Y-33.8
X46.8Y-41.5
X46.8Y-49.0
X46.8Y-56.7
X46.8Y-64.3
X48.55Y-54.2
X48.9Y-61.8
X49.0Y-59.2
X49.7Y-33.9
X50.5Y-36.5
X50.5Y-41.5
X50.5Y-46.6
X50.55Y-38.85
X51.7Y-54.2
X52.3Y-31.3
X56.8Y-65.1
X56.8Y-68.0
X57.4Y-26.1
X57.4Y-31.3
X61.0Y-69.1
X61.65Y-23.2
X61.75Y-26.0
X66.9Y-63.3
X66.9Y-65.6
X66.9Y-69.1
X68.4Y-19.4
X74.1Y-63.3
X74.1Y-65.6
X74.1Y-69.1
X75.15Y-20.0
X75.9Y-46.9
X78.0Y-52.9
X78.7Y-55.2
X79.3Y-20.65
X81.9Y-52.1
X82.1Y-19.9
X85.1Y-51.1
X85.1Y-55.7
X85.1Y-59.3
X85.1Y-63.0
X85.4Y-66.9
X89.45Y-54.45
X90.3Y-59.1
X90.4Y-50.8
X90.5Y-61.7
X90.6Y-30.0
X90.6Y-36.6
X91.0Y-40.4
X91.2Y-47.1
X93.0Y-21.2
X93.8Y-66.9
T5
X57.13Y-19.8
X59.67Y-19.8
X62.21Y-19.8
X64.75Y-19.8
T6
X50.5Y-21.14
X50.5Y-66.86
X90.5Y-21.14
X90.5Y-66.86
M30
