%TF.GenerationSoftware,KiCad,Pcbnew,8.0.7-8.0.7-0~ubuntu22.04.1*%
%TF.CreationDate,2024-12-10T17:00:38-05:00*%
%TF.ProjectId,breakout-tt07-qfn,62726561-6b6f-4757-942d-747430372d71,1.1*%
%TF.SameCoordinates,PX2b64660PY42c1d80*%
%TF.FileFunction,Plated,1,2,PTH,Drill*%
%TF.FilePolarity,Positive*%
%FSLAX46Y46*%
G04 Gerber Fmt 4.6, Leading zero omitted, Abs format (unit mm)*
G04 Created by KiCad (PCBNEW 8.0.7-8.0.7-0~ubuntu22.04.1) date 2024-12-10 17:00:38*
%MOMM*%
%LPD*%
G01*
G04 APERTURE LIST*
%TA.AperFunction,ViaDrill*%
%ADD10C,0.300000*%
%TD*%
%TA.AperFunction,ComponentDrill*%
%ADD11C,0.300000*%
%TD*%
%TA.AperFunction,ViaDrill*%
%ADD12C,0.400000*%
%TD*%
%TA.AperFunction,ComponentDrill*%
%ADD13C,0.400000*%
%TD*%
%TA.AperFunction,ComponentDrill*%
%ADD14C,1.000000*%
%TD*%
G04 APERTURE END LIST*
D10*
X51550000Y-23700000D03*
X51700000Y-19500000D03*
X63250004Y-40308092D03*
X63673909Y-47939336D03*
X65300000Y-50200000D03*
X70250000Y-48250000D03*
X71200000Y-36400000D03*
X74500000Y-28100000D03*
X76043906Y-41272142D03*
X77500000Y-28100000D03*
X78750002Y-41900003D03*
D11*
%TO.C,STITCHM1*%
X48300000Y-69300000D03*
X50100000Y-18700000D03*
X51000000Y-68800000D03*
X55200000Y-21850000D03*
X60400000Y-62600000D03*
X60950000Y-18700000D03*
X61200000Y-50400000D03*
X62400000Y-41800000D03*
X62500000Y-43600000D03*
X64700000Y-56100000D03*
X65800000Y-57100000D03*
X68000000Y-54800000D03*
X69100000Y-40950000D03*
X69100000Y-43500000D03*
X71300000Y-32700000D03*
X71700000Y-40950000D03*
X71700000Y-43500000D03*
X72800000Y-51400000D03*
X72800000Y-53400000D03*
X72800000Y-55400000D03*
X72800000Y-57500000D03*
X72800000Y-59600000D03*
X75350000Y-31550000D03*
X75900000Y-37400000D03*
X76800000Y-39600000D03*
X78200000Y-65000000D03*
X79300000Y-44600000D03*
X81500000Y-41900000D03*
X85100000Y-57700000D03*
X85100000Y-60900000D03*
%TD*%
D12*
X47250000Y-59409998D03*
X48200000Y-28929998D03*
X48350000Y-22900000D03*
X49200000Y-38800000D03*
X49400000Y-41600000D03*
X49500000Y-69300000D03*
X49559313Y-30940687D03*
X49750000Y-32750000D03*
X49750000Y-35000000D03*
X49876345Y-62582437D03*
X50250000Y-68250000D03*
X50600000Y-26650000D03*
X50750000Y-61750000D03*
X51026892Y-29127096D03*
X51250000Y-50250000D03*
X51250000Y-56000000D03*
X51500000Y-45750000D03*
X51500000Y-64200000D03*
X52150000Y-65050000D03*
X52250000Y-21250000D03*
X52900000Y-56900000D03*
X52900000Y-59409998D03*
X52950091Y-54003998D03*
X53000000Y-49249998D03*
X53250000Y-42000000D03*
X53300000Y-46500000D03*
X53750000Y-61350000D03*
X54000000Y-48500000D03*
X54000000Y-53990002D03*
X54394485Y-34850000D03*
X55000000Y-37750000D03*
X55200000Y-43700000D03*
X55750000Y-63250000D03*
X55780331Y-68780331D03*
X56500000Y-39200000D03*
X56700000Y-59800000D03*
X56800000Y-46200000D03*
X56800000Y-49700000D03*
X56800000Y-56825000D03*
X56900000Y-42200000D03*
X56900000Y-53100000D03*
X58090000Y-28340000D03*
X58700000Y-57500000D03*
X58800000Y-45100000D03*
X58800000Y-50600000D03*
X60400000Y-39400000D03*
X60600000Y-53300000D03*
X60700000Y-42300000D03*
X62200000Y-56100000D03*
X63000000Y-25250000D03*
X64000000Y-28250000D03*
X66631492Y-20600000D03*
X67500000Y-28250000D03*
X67750000Y-33600000D03*
X68043309Y-48304755D03*
X68400000Y-29914164D03*
X68500000Y-25000000D03*
X69499994Y-19500000D03*
X69970281Y-28090381D03*
X70250000Y-26750000D03*
X70370711Y-18700000D03*
X71200000Y-30200000D03*
X71250000Y-21550000D03*
X71901080Y-22348919D03*
X73025000Y-36425000D03*
X74000000Y-18750000D03*
X74000000Y-34250000D03*
X74900000Y-34300010D03*
X75400000Y-21950000D03*
X75500000Y-50000000D03*
X76000000Y-27323000D03*
X76700000Y-49500000D03*
X76900000Y-20900000D03*
X78249996Y-21500000D03*
X79000000Y-37500000D03*
X79800000Y-22500000D03*
X79900000Y-25500000D03*
X79900000Y-38900000D03*
X80000000Y-29400000D03*
X81700000Y-34900000D03*
X81712754Y-33400000D03*
X81800000Y-27900000D03*
X83600000Y-22500000D03*
X83700000Y-36000000D03*
X83800000Y-25600000D03*
X83800000Y-29300000D03*
X83800000Y-32700000D03*
X83800000Y-39100000D03*
X84100000Y-42400000D03*
X85700000Y-41500004D03*
X85700000Y-47800000D03*
X85894525Y-54798773D03*
X85969669Y-50250000D03*
X86000000Y-58500000D03*
X86000000Y-61400000D03*
X86000000Y-65688478D03*
X86500000Y-30500000D03*
X86500000Y-36549998D03*
X86750000Y-24500000D03*
X87200000Y-33670002D03*
X87300000Y-39900000D03*
X87484415Y-26050000D03*
X87600000Y-28600000D03*
X87750000Y-36569998D03*
X88000000Y-21200000D03*
X89500000Y-28250000D03*
X89500000Y-32750000D03*
X89500000Y-38750000D03*
X90224724Y-46656914D03*
X90283055Y-23716107D03*
X90500000Y-68260003D03*
X90654658Y-45166458D03*
X90700000Y-24700000D03*
X90750000Y-43500000D03*
X90900000Y-53700000D03*
X91000000Y-51950000D03*
X91000000Y-58000000D03*
X91200000Y-23716107D03*
X91250000Y-49500000D03*
X91250000Y-60000000D03*
X91250000Y-65000000D03*
X91404516Y-45901453D03*
X91623656Y-44082436D03*
X92500000Y-18750000D03*
X92500000Y-69250000D03*
X93499998Y-41500000D03*
X93500000Y-56600000D03*
X93500000Y-61610002D03*
X93600000Y-27600000D03*
X93600000Y-39000000D03*
X93700000Y-35100000D03*
X94250000Y-64150002D03*
X94300000Y-53990002D03*
X94800000Y-46500000D03*
D13*
%TO.C,STITCHB1*%
X46800000Y-23700000D03*
X46800000Y-28800000D03*
X46800000Y-33800000D03*
X46800000Y-41500000D03*
X46800000Y-49000000D03*
X46800000Y-56700000D03*
X46800000Y-64300000D03*
X48550000Y-54200000D03*
X48900000Y-61800000D03*
X49000000Y-59200000D03*
X49700000Y-33900000D03*
X50500000Y-36500000D03*
X50500000Y-41500000D03*
X50500000Y-46600000D03*
X50550000Y-38850000D03*
X51700000Y-54200000D03*
X52300000Y-31300000D03*
X56800000Y-65100000D03*
X56800000Y-68000000D03*
X57400000Y-26100000D03*
X57400000Y-31300000D03*
X61000000Y-69100000D03*
X61650000Y-23200000D03*
X61750000Y-26000000D03*
X66900000Y-63300000D03*
X66900000Y-65600000D03*
X66900000Y-69100000D03*
X68400000Y-19400000D03*
X74100000Y-63300000D03*
X74100000Y-65600000D03*
X74100000Y-69100000D03*
X75150000Y-20000000D03*
X75900000Y-46900000D03*
X78000000Y-52900000D03*
X78700000Y-55200000D03*
X79300000Y-20650000D03*
X81900000Y-52100000D03*
X82100000Y-19900000D03*
X85100000Y-51100000D03*
X85100000Y-55700000D03*
X85100000Y-59300000D03*
X85100000Y-63000000D03*
X85400000Y-66900000D03*
X89450000Y-54450000D03*
X90300000Y-59100000D03*
X90400000Y-50800000D03*
X90500000Y-61700000D03*
X90600000Y-30000000D03*
X90600000Y-36600000D03*
X91000000Y-40400000D03*
X91200000Y-47100000D03*
X93000000Y-21200000D03*
X93800000Y-66900000D03*
D14*
%TO.C,J1*%
X57130000Y-19800000D03*
X59670000Y-19800000D03*
X62210000Y-19800000D03*
X64750000Y-19800000D03*
M02*
