G04 #@! TF.GenerationSoftware,KiCad,Pcbnew,9.0.9-9.0.9~ubuntu24.04.1*
G04 #@! TF.CreationDate,2026-07-09T13:34:27-04:00*
G04 #@! TF.ProjectId,icebreaker-pmod-7segment,69636562-7265-4616-9b65-722d706d6f64,2.0*
G04 #@! TF.SameCoordinates,Original*
G04 #@! TF.FileFunction,AssemblyDrawing,Top*
%FSLAX46Y46*%
G04 Gerber Fmt 4.6, Leading zero omitted, Abs format (unit mm)*
G04 Created by KiCad (PCBNEW 9.0.9-9.0.9~ubuntu24.04.1) date 2026-07-09 13:34:27*
%MOMM*%
%LPD*%
G01*
G04 APERTURE LIST*
%ADD10C,0.150000*%
%ADD11C,0.060000*%
%ADD12C,0.040000*%
%ADD13C,0.110000*%
%ADD14C,0.075000*%
%ADD15C,0.100000*%
%ADD16C,0.120000*%
%ADD17C,0.332843*%
G04 APERTURE END LIST*
D10*
X43484819Y-47342857D02*
X43484819Y-47914285D01*
X43484819Y-47628571D02*
X42484819Y-47628571D01*
X42484819Y-47628571D02*
X42627676Y-47723809D01*
X42627676Y-47723809D02*
X42722914Y-47819047D01*
X42722914Y-47819047D02*
X42770533Y-47914285D01*
X42484819Y-46723809D02*
X42484819Y-46628571D01*
X42484819Y-46628571D02*
X42532438Y-46533333D01*
X42532438Y-46533333D02*
X42580057Y-46485714D01*
X42580057Y-46485714D02*
X42675295Y-46438095D01*
X42675295Y-46438095D02*
X42865771Y-46390476D01*
X42865771Y-46390476D02*
X43103866Y-46390476D01*
X43103866Y-46390476D02*
X43294342Y-46438095D01*
X43294342Y-46438095D02*
X43389580Y-46485714D01*
X43389580Y-46485714D02*
X43437200Y-46533333D01*
X43437200Y-46533333D02*
X43484819Y-46628571D01*
X43484819Y-46628571D02*
X43484819Y-46723809D01*
X43484819Y-46723809D02*
X43437200Y-46819047D01*
X43437200Y-46819047D02*
X43389580Y-46866666D01*
X43389580Y-46866666D02*
X43294342Y-46914285D01*
X43294342Y-46914285D02*
X43103866Y-46961904D01*
X43103866Y-46961904D02*
X42865771Y-46961904D01*
X42865771Y-46961904D02*
X42675295Y-46914285D01*
X42675295Y-46914285D02*
X42580057Y-46866666D01*
X42580057Y-46866666D02*
X42532438Y-46819047D01*
X42532438Y-46819047D02*
X42484819Y-46723809D01*
X42818152Y-45533333D02*
X43484819Y-45533333D01*
X42818152Y-45961904D02*
X43341961Y-45961904D01*
X43341961Y-45961904D02*
X43437200Y-45914285D01*
X43437200Y-45914285D02*
X43484819Y-45819047D01*
X43484819Y-45819047D02*
X43484819Y-45676190D01*
X43484819Y-45676190D02*
X43437200Y-45580952D01*
X43437200Y-45580952D02*
X43389580Y-45533333D01*
D11*
X41743832Y-46766666D02*
X41762880Y-46785714D01*
X41762880Y-46785714D02*
X41781927Y-46842856D01*
X41781927Y-46842856D02*
X41781927Y-46880952D01*
X41781927Y-46880952D02*
X41762880Y-46938095D01*
X41762880Y-46938095D02*
X41724784Y-46976190D01*
X41724784Y-46976190D02*
X41686689Y-46995237D01*
X41686689Y-46995237D02*
X41610499Y-47014285D01*
X41610499Y-47014285D02*
X41553356Y-47014285D01*
X41553356Y-47014285D02*
X41477165Y-46995237D01*
X41477165Y-46995237D02*
X41439070Y-46976190D01*
X41439070Y-46976190D02*
X41400975Y-46938095D01*
X41400975Y-46938095D02*
X41381927Y-46880952D01*
X41381927Y-46880952D02*
X41381927Y-46842856D01*
X41381927Y-46842856D02*
X41400975Y-46785714D01*
X41400975Y-46785714D02*
X41420022Y-46766666D01*
X41781927Y-46385714D02*
X41781927Y-46614285D01*
X41781927Y-46499999D02*
X41381927Y-46499999D01*
X41381927Y-46499999D02*
X41439070Y-46538095D01*
X41439070Y-46538095D02*
X41477165Y-46576190D01*
X41477165Y-46576190D02*
X41496213Y-46614285D01*
D10*
X44714819Y-47919047D02*
X44714819Y-48490475D01*
X44714819Y-48204761D02*
X43714819Y-48204761D01*
X43714819Y-48204761D02*
X43857676Y-48299999D01*
X43857676Y-48299999D02*
X43952914Y-48395237D01*
X43952914Y-48395237D02*
X44000533Y-48490475D01*
X43714819Y-47299999D02*
X43714819Y-47204761D01*
X43714819Y-47204761D02*
X43762438Y-47109523D01*
X43762438Y-47109523D02*
X43810057Y-47061904D01*
X43810057Y-47061904D02*
X43905295Y-47014285D01*
X43905295Y-47014285D02*
X44095771Y-46966666D01*
X44095771Y-46966666D02*
X44333866Y-46966666D01*
X44333866Y-46966666D02*
X44524342Y-47014285D01*
X44524342Y-47014285D02*
X44619580Y-47061904D01*
X44619580Y-47061904D02*
X44667200Y-47109523D01*
X44667200Y-47109523D02*
X44714819Y-47204761D01*
X44714819Y-47204761D02*
X44714819Y-47299999D01*
X44714819Y-47299999D02*
X44667200Y-47395237D01*
X44667200Y-47395237D02*
X44619580Y-47442856D01*
X44619580Y-47442856D02*
X44524342Y-47490475D01*
X44524342Y-47490475D02*
X44333866Y-47538094D01*
X44333866Y-47538094D02*
X44095771Y-47538094D01*
X44095771Y-47538094D02*
X43905295Y-47490475D01*
X43905295Y-47490475D02*
X43810057Y-47442856D01*
X43810057Y-47442856D02*
X43762438Y-47395237D01*
X43762438Y-47395237D02*
X43714819Y-47299999D01*
X43714819Y-46347618D02*
X43714819Y-46252380D01*
X43714819Y-46252380D02*
X43762438Y-46157142D01*
X43762438Y-46157142D02*
X43810057Y-46109523D01*
X43810057Y-46109523D02*
X43905295Y-46061904D01*
X43905295Y-46061904D02*
X44095771Y-46014285D01*
X44095771Y-46014285D02*
X44333866Y-46014285D01*
X44333866Y-46014285D02*
X44524342Y-46061904D01*
X44524342Y-46061904D02*
X44619580Y-46109523D01*
X44619580Y-46109523D02*
X44667200Y-46157142D01*
X44667200Y-46157142D02*
X44714819Y-46252380D01*
X44714819Y-46252380D02*
X44714819Y-46347618D01*
X44714819Y-46347618D02*
X44667200Y-46442856D01*
X44667200Y-46442856D02*
X44619580Y-46490475D01*
X44619580Y-46490475D02*
X44524342Y-46538094D01*
X44524342Y-46538094D02*
X44333866Y-46585713D01*
X44333866Y-46585713D02*
X44095771Y-46585713D01*
X44095771Y-46585713D02*
X43905295Y-46538094D01*
X43905295Y-46538094D02*
X43810057Y-46490475D01*
X43810057Y-46490475D02*
X43762438Y-46442856D01*
X43762438Y-46442856D02*
X43714819Y-46347618D01*
X44048152Y-45585713D02*
X44714819Y-45585713D01*
X44143390Y-45585713D02*
X44095771Y-45538094D01*
X44095771Y-45538094D02*
X44048152Y-45442856D01*
X44048152Y-45442856D02*
X44048152Y-45299999D01*
X44048152Y-45299999D02*
X44095771Y-45204761D01*
X44095771Y-45204761D02*
X44191009Y-45157142D01*
X44191009Y-45157142D02*
X44714819Y-45157142D01*
D12*
X43189765Y-46841666D02*
X43201670Y-46853570D01*
X43201670Y-46853570D02*
X43213574Y-46889285D01*
X43213574Y-46889285D02*
X43213574Y-46913094D01*
X43213574Y-46913094D02*
X43201670Y-46948808D01*
X43201670Y-46948808D02*
X43177860Y-46972618D01*
X43177860Y-46972618D02*
X43154050Y-46984523D01*
X43154050Y-46984523D02*
X43106431Y-46996427D01*
X43106431Y-46996427D02*
X43070717Y-46996427D01*
X43070717Y-46996427D02*
X43023098Y-46984523D01*
X43023098Y-46984523D02*
X42999289Y-46972618D01*
X42999289Y-46972618D02*
X42975479Y-46948808D01*
X42975479Y-46948808D02*
X42963574Y-46913094D01*
X42963574Y-46913094D02*
X42963574Y-46889285D01*
X42963574Y-46889285D02*
X42975479Y-46853570D01*
X42975479Y-46853570D02*
X42987384Y-46841666D01*
X42987384Y-46746427D02*
X42975479Y-46734523D01*
X42975479Y-46734523D02*
X42963574Y-46710713D01*
X42963574Y-46710713D02*
X42963574Y-46651189D01*
X42963574Y-46651189D02*
X42975479Y-46627380D01*
X42975479Y-46627380D02*
X42987384Y-46615475D01*
X42987384Y-46615475D02*
X43011193Y-46603570D01*
X43011193Y-46603570D02*
X43035003Y-46603570D01*
X43035003Y-46603570D02*
X43070717Y-46615475D01*
X43070717Y-46615475D02*
X43213574Y-46758332D01*
X43213574Y-46758332D02*
X43213574Y-46603570D01*
D10*
X47051673Y-46354819D02*
X47051673Y-45354819D01*
X47051673Y-45354819D02*
X47289768Y-45354819D01*
X47289768Y-45354819D02*
X47432625Y-45402438D01*
X47432625Y-45402438D02*
X47527863Y-45497676D01*
X47527863Y-45497676D02*
X47575482Y-45592914D01*
X47575482Y-45592914D02*
X47623101Y-45783390D01*
X47623101Y-45783390D02*
X47623101Y-45926247D01*
X47623101Y-45926247D02*
X47575482Y-46116723D01*
X47575482Y-46116723D02*
X47527863Y-46211961D01*
X47527863Y-46211961D02*
X47432625Y-46307200D01*
X47432625Y-46307200D02*
X47289768Y-46354819D01*
X47289768Y-46354819D02*
X47051673Y-46354819D01*
X48051673Y-46354819D02*
X48051673Y-45354819D01*
X48051673Y-45354819D02*
X48385006Y-46069104D01*
X48385006Y-46069104D02*
X48718339Y-45354819D01*
X48718339Y-45354819D02*
X48718339Y-46354819D01*
X49194530Y-46354819D02*
X49194530Y-45354819D01*
X49194530Y-45354819D02*
X49765958Y-46354819D01*
X49765958Y-46354819D02*
X49765958Y-45354819D01*
X50194530Y-45450057D02*
X50242149Y-45402438D01*
X50242149Y-45402438D02*
X50337387Y-45354819D01*
X50337387Y-45354819D02*
X50575482Y-45354819D01*
X50575482Y-45354819D02*
X50670720Y-45402438D01*
X50670720Y-45402438D02*
X50718339Y-45450057D01*
X50718339Y-45450057D02*
X50765958Y-45545295D01*
X50765958Y-45545295D02*
X50765958Y-45640533D01*
X50765958Y-45640533D02*
X50718339Y-45783390D01*
X50718339Y-45783390D02*
X50146911Y-46354819D01*
X50146911Y-46354819D02*
X50765958Y-46354819D01*
X51385006Y-45354819D02*
X51480244Y-45354819D01*
X51480244Y-45354819D02*
X51575482Y-45402438D01*
X51575482Y-45402438D02*
X51623101Y-45450057D01*
X51623101Y-45450057D02*
X51670720Y-45545295D01*
X51670720Y-45545295D02*
X51718339Y-45735771D01*
X51718339Y-45735771D02*
X51718339Y-45973866D01*
X51718339Y-45973866D02*
X51670720Y-46164342D01*
X51670720Y-46164342D02*
X51623101Y-46259580D01*
X51623101Y-46259580D02*
X51575482Y-46307200D01*
X51575482Y-46307200D02*
X51480244Y-46354819D01*
X51480244Y-46354819D02*
X51385006Y-46354819D01*
X51385006Y-46354819D02*
X51289768Y-46307200D01*
X51289768Y-46307200D02*
X51242149Y-46259580D01*
X51242149Y-46259580D02*
X51194530Y-46164342D01*
X51194530Y-46164342D02*
X51146911Y-45973866D01*
X51146911Y-45973866D02*
X51146911Y-45735771D01*
X51146911Y-45735771D02*
X51194530Y-45545295D01*
X51194530Y-45545295D02*
X51242149Y-45450057D01*
X51242149Y-45450057D02*
X51289768Y-45402438D01*
X51289768Y-45402438D02*
X51385006Y-45354819D01*
X52337387Y-45354819D02*
X52432625Y-45354819D01*
X52432625Y-45354819D02*
X52527863Y-45402438D01*
X52527863Y-45402438D02*
X52575482Y-45450057D01*
X52575482Y-45450057D02*
X52623101Y-45545295D01*
X52623101Y-45545295D02*
X52670720Y-45735771D01*
X52670720Y-45735771D02*
X52670720Y-45973866D01*
X52670720Y-45973866D02*
X52623101Y-46164342D01*
X52623101Y-46164342D02*
X52575482Y-46259580D01*
X52575482Y-46259580D02*
X52527863Y-46307200D01*
X52527863Y-46307200D02*
X52432625Y-46354819D01*
X52432625Y-46354819D02*
X52337387Y-46354819D01*
X52337387Y-46354819D02*
X52242149Y-46307200D01*
X52242149Y-46307200D02*
X52194530Y-46259580D01*
X52194530Y-46259580D02*
X52146911Y-46164342D01*
X52146911Y-46164342D02*
X52099292Y-45973866D01*
X52099292Y-45973866D02*
X52099292Y-45735771D01*
X52099292Y-45735771D02*
X52146911Y-45545295D01*
X52146911Y-45545295D02*
X52194530Y-45450057D01*
X52194530Y-45450057D02*
X52242149Y-45402438D01*
X52242149Y-45402438D02*
X52337387Y-45354819D01*
X53575482Y-45354819D02*
X53099292Y-45354819D01*
X53099292Y-45354819D02*
X53051673Y-45831009D01*
X53051673Y-45831009D02*
X53099292Y-45783390D01*
X53099292Y-45783390D02*
X53194530Y-45735771D01*
X53194530Y-45735771D02*
X53432625Y-45735771D01*
X53432625Y-45735771D02*
X53527863Y-45783390D01*
X53527863Y-45783390D02*
X53575482Y-45831009D01*
X53575482Y-45831009D02*
X53623101Y-45926247D01*
X53623101Y-45926247D02*
X53623101Y-46164342D01*
X53623101Y-46164342D02*
X53575482Y-46259580D01*
X53575482Y-46259580D02*
X53527863Y-46307200D01*
X53527863Y-46307200D02*
X53432625Y-46354819D01*
X53432625Y-46354819D02*
X53194530Y-46354819D01*
X53194530Y-46354819D02*
X53099292Y-46307200D01*
X53099292Y-46307200D02*
X53051673Y-46259580D01*
X54051673Y-46354819D02*
X54051673Y-45354819D01*
X54623101Y-46354819D02*
X54194530Y-45783390D01*
X54623101Y-45354819D02*
X54051673Y-45926247D01*
D13*
X50745006Y-48695937D02*
X50676435Y-48661651D01*
X50676435Y-48661651D02*
X50607863Y-48593080D01*
X50607863Y-48593080D02*
X50505006Y-48490222D01*
X50505006Y-48490222D02*
X50436435Y-48455937D01*
X50436435Y-48455937D02*
X50367863Y-48455937D01*
X50402149Y-48627365D02*
X50333578Y-48593080D01*
X50333578Y-48593080D02*
X50265006Y-48524508D01*
X50265006Y-48524508D02*
X50230720Y-48387365D01*
X50230720Y-48387365D02*
X50230720Y-48147365D01*
X50230720Y-48147365D02*
X50265006Y-48010222D01*
X50265006Y-48010222D02*
X50333578Y-47941651D01*
X50333578Y-47941651D02*
X50402149Y-47907365D01*
X50402149Y-47907365D02*
X50539292Y-47907365D01*
X50539292Y-47907365D02*
X50607863Y-47941651D01*
X50607863Y-47941651D02*
X50676435Y-48010222D01*
X50676435Y-48010222D02*
X50710720Y-48147365D01*
X50710720Y-48147365D02*
X50710720Y-48387365D01*
X50710720Y-48387365D02*
X50676435Y-48524508D01*
X50676435Y-48524508D02*
X50607863Y-48593080D01*
X50607863Y-48593080D02*
X50539292Y-48627365D01*
X50539292Y-48627365D02*
X50402149Y-48627365D01*
X51327864Y-48147365D02*
X51327864Y-48627365D01*
X51156435Y-47873080D02*
X50985006Y-48387365D01*
X50985006Y-48387365D02*
X51430721Y-48387365D01*
D10*
X40585714Y-43554819D02*
X40109524Y-43554819D01*
X40109524Y-43554819D02*
X40061905Y-44031009D01*
X40061905Y-44031009D02*
X40109524Y-43983390D01*
X40109524Y-43983390D02*
X40204762Y-43935771D01*
X40204762Y-43935771D02*
X40442857Y-43935771D01*
X40442857Y-43935771D02*
X40538095Y-43983390D01*
X40538095Y-43983390D02*
X40585714Y-44031009D01*
X40585714Y-44031009D02*
X40633333Y-44126247D01*
X40633333Y-44126247D02*
X40633333Y-44364342D01*
X40633333Y-44364342D02*
X40585714Y-44459580D01*
X40585714Y-44459580D02*
X40538095Y-44507200D01*
X40538095Y-44507200D02*
X40442857Y-44554819D01*
X40442857Y-44554819D02*
X40204762Y-44554819D01*
X40204762Y-44554819D02*
X40109524Y-44507200D01*
X40109524Y-44507200D02*
X40061905Y-44459580D01*
X41585714Y-44554819D02*
X41014286Y-44554819D01*
X41300000Y-44554819D02*
X41300000Y-43554819D01*
X41300000Y-43554819D02*
X41204762Y-43697676D01*
X41204762Y-43697676D02*
X41109524Y-43792914D01*
X41109524Y-43792914D02*
X41014286Y-43840533D01*
X42204762Y-43554819D02*
X42300000Y-43554819D01*
X42300000Y-43554819D02*
X42395238Y-43602438D01*
X42395238Y-43602438D02*
X42442857Y-43650057D01*
X42442857Y-43650057D02*
X42490476Y-43745295D01*
X42490476Y-43745295D02*
X42538095Y-43935771D01*
X42538095Y-43935771D02*
X42538095Y-44173866D01*
X42538095Y-44173866D02*
X42490476Y-44364342D01*
X42490476Y-44364342D02*
X42442857Y-44459580D01*
X42442857Y-44459580D02*
X42395238Y-44507200D01*
X42395238Y-44507200D02*
X42300000Y-44554819D01*
X42300000Y-44554819D02*
X42204762Y-44554819D01*
X42204762Y-44554819D02*
X42109524Y-44507200D01*
X42109524Y-44507200D02*
X42061905Y-44459580D01*
X42061905Y-44459580D02*
X42014286Y-44364342D01*
X42014286Y-44364342D02*
X41966667Y-44173866D01*
X41966667Y-44173866D02*
X41966667Y-43935771D01*
X41966667Y-43935771D02*
X42014286Y-43745295D01*
X42014286Y-43745295D02*
X42061905Y-43650057D01*
X42061905Y-43650057D02*
X42109524Y-43602438D01*
X42109524Y-43602438D02*
X42204762Y-43554819D01*
X43538095Y-44554819D02*
X43204762Y-44078628D01*
X42966667Y-44554819D02*
X42966667Y-43554819D01*
X42966667Y-43554819D02*
X43347619Y-43554819D01*
X43347619Y-43554819D02*
X43442857Y-43602438D01*
X43442857Y-43602438D02*
X43490476Y-43650057D01*
X43490476Y-43650057D02*
X43538095Y-43745295D01*
X43538095Y-43745295D02*
X43538095Y-43888152D01*
X43538095Y-43888152D02*
X43490476Y-43983390D01*
X43490476Y-43983390D02*
X43442857Y-44031009D01*
X43442857Y-44031009D02*
X43347619Y-44078628D01*
X43347619Y-44078628D02*
X42966667Y-44078628D01*
D14*
X42027409Y-41645238D02*
X41789314Y-41811904D01*
X42027409Y-41930952D02*
X41527409Y-41930952D01*
X41527409Y-41930952D02*
X41527409Y-41740476D01*
X41527409Y-41740476D02*
X41551219Y-41692857D01*
X41551219Y-41692857D02*
X41575028Y-41669047D01*
X41575028Y-41669047D02*
X41622647Y-41645238D01*
X41622647Y-41645238D02*
X41694076Y-41645238D01*
X41694076Y-41645238D02*
X41741695Y-41669047D01*
X41741695Y-41669047D02*
X41765504Y-41692857D01*
X41765504Y-41692857D02*
X41789314Y-41740476D01*
X41789314Y-41740476D02*
X41789314Y-41930952D01*
X42027409Y-41430952D02*
X41527409Y-41430952D01*
X41527409Y-41430952D02*
X42027409Y-41145238D01*
X42027409Y-41145238D02*
X41527409Y-41145238D01*
X41575028Y-40930951D02*
X41551219Y-40907142D01*
X41551219Y-40907142D02*
X41527409Y-40859523D01*
X41527409Y-40859523D02*
X41527409Y-40740475D01*
X41527409Y-40740475D02*
X41551219Y-40692856D01*
X41551219Y-40692856D02*
X41575028Y-40669047D01*
X41575028Y-40669047D02*
X41622647Y-40645237D01*
X41622647Y-40645237D02*
X41670266Y-40645237D01*
X41670266Y-40645237D02*
X41741695Y-40669047D01*
X41741695Y-40669047D02*
X42027409Y-40954761D01*
X42027409Y-40954761D02*
X42027409Y-40645237D01*
D10*
X55968397Y-42704762D02*
X55968397Y-43276190D01*
X55968397Y-42990476D02*
X54968397Y-42990476D01*
X54968397Y-42990476D02*
X55111254Y-43085714D01*
X55111254Y-43085714D02*
X55206492Y-43180952D01*
X55206492Y-43180952D02*
X55254111Y-43276190D01*
X54968397Y-41800000D02*
X54968397Y-42276190D01*
X54968397Y-42276190D02*
X55444587Y-42323809D01*
X55444587Y-42323809D02*
X55396968Y-42276190D01*
X55396968Y-42276190D02*
X55349349Y-42180952D01*
X55349349Y-42180952D02*
X55349349Y-41942857D01*
X55349349Y-41942857D02*
X55396968Y-41847619D01*
X55396968Y-41847619D02*
X55444587Y-41800000D01*
X55444587Y-41800000D02*
X55539825Y-41752381D01*
X55539825Y-41752381D02*
X55777920Y-41752381D01*
X55777920Y-41752381D02*
X55873158Y-41800000D01*
X55873158Y-41800000D02*
X55920778Y-41847619D01*
X55920778Y-41847619D02*
X55968397Y-41942857D01*
X55968397Y-41942857D02*
X55968397Y-42180952D01*
X55968397Y-42180952D02*
X55920778Y-42276190D01*
X55920778Y-42276190D02*
X55873158Y-42323809D01*
X54968397Y-41419047D02*
X54968397Y-40752381D01*
X54968397Y-40752381D02*
X55968397Y-41180952D01*
X55968397Y-39847619D02*
X55968397Y-40419047D01*
X55968397Y-40133333D02*
X54968397Y-40133333D01*
X54968397Y-40133333D02*
X55111254Y-40228571D01*
X55111254Y-40228571D02*
X55206492Y-40323809D01*
X55206492Y-40323809D02*
X55254111Y-40419047D01*
X55968397Y-38895238D02*
X55968397Y-39466666D01*
X55968397Y-39180952D02*
X54968397Y-39180952D01*
X54968397Y-39180952D02*
X55111254Y-39276190D01*
X55111254Y-39276190D02*
X55206492Y-39371428D01*
X55206492Y-39371428D02*
X55254111Y-39466666D01*
X55063635Y-38514285D02*
X55016016Y-38466666D01*
X55016016Y-38466666D02*
X54968397Y-38371428D01*
X54968397Y-38371428D02*
X54968397Y-38133333D01*
X54968397Y-38133333D02*
X55016016Y-38038095D01*
X55016016Y-38038095D02*
X55063635Y-37990476D01*
X55063635Y-37990476D02*
X55158873Y-37942857D01*
X55158873Y-37942857D02*
X55254111Y-37942857D01*
X55254111Y-37942857D02*
X55396968Y-37990476D01*
X55396968Y-37990476D02*
X55968397Y-38561904D01*
X55968397Y-38561904D02*
X55968397Y-37942857D01*
X54968397Y-37657142D02*
X55968397Y-37323809D01*
X55968397Y-37323809D02*
X54968397Y-36990476D01*
X55968397Y-36133333D02*
X55968397Y-36704761D01*
X55968397Y-36419047D02*
X54968397Y-36419047D01*
X54968397Y-36419047D02*
X55111254Y-36514285D01*
X55111254Y-36514285D02*
X55206492Y-36609523D01*
X55206492Y-36609523D02*
X55254111Y-36704761D01*
X55063635Y-35752380D02*
X55016016Y-35704761D01*
X55016016Y-35704761D02*
X54968397Y-35609523D01*
X54968397Y-35609523D02*
X54968397Y-35371428D01*
X54968397Y-35371428D02*
X55016016Y-35276190D01*
X55016016Y-35276190D02*
X55063635Y-35228571D01*
X55063635Y-35228571D02*
X55158873Y-35180952D01*
X55158873Y-35180952D02*
X55254111Y-35180952D01*
X55254111Y-35180952D02*
X55396968Y-35228571D01*
X55396968Y-35228571D02*
X55968397Y-35799999D01*
X55968397Y-35799999D02*
X55968397Y-35180952D01*
X54968397Y-34847618D02*
X54968397Y-34180952D01*
X54968397Y-34180952D02*
X55968397Y-34609523D01*
X54968397Y-33609523D02*
X54968397Y-33514285D01*
X54968397Y-33514285D02*
X55016016Y-33419047D01*
X55016016Y-33419047D02*
X55063635Y-33371428D01*
X55063635Y-33371428D02*
X55158873Y-33323809D01*
X55158873Y-33323809D02*
X55349349Y-33276190D01*
X55349349Y-33276190D02*
X55587444Y-33276190D01*
X55587444Y-33276190D02*
X55777920Y-33323809D01*
X55777920Y-33323809D02*
X55873158Y-33371428D01*
X55873158Y-33371428D02*
X55920778Y-33419047D01*
X55920778Y-33419047D02*
X55968397Y-33514285D01*
X55968397Y-33514285D02*
X55968397Y-33609523D01*
X55968397Y-33609523D02*
X55920778Y-33704761D01*
X55920778Y-33704761D02*
X55873158Y-33752380D01*
X55873158Y-33752380D02*
X55777920Y-33799999D01*
X55777920Y-33799999D02*
X55587444Y-33847618D01*
X55587444Y-33847618D02*
X55349349Y-33847618D01*
X55349349Y-33847618D02*
X55158873Y-33799999D01*
X55158873Y-33799999D02*
X55063635Y-33752380D01*
X55063635Y-33752380D02*
X55016016Y-33704761D01*
X55016016Y-33704761D02*
X54968397Y-33609523D01*
X54968397Y-32657142D02*
X54968397Y-32561904D01*
X54968397Y-32561904D02*
X55016016Y-32466666D01*
X55016016Y-32466666D02*
X55063635Y-32419047D01*
X55063635Y-32419047D02*
X55158873Y-32371428D01*
X55158873Y-32371428D02*
X55349349Y-32323809D01*
X55349349Y-32323809D02*
X55587444Y-32323809D01*
X55587444Y-32323809D02*
X55777920Y-32371428D01*
X55777920Y-32371428D02*
X55873158Y-32419047D01*
X55873158Y-32419047D02*
X55920778Y-32466666D01*
X55920778Y-32466666D02*
X55968397Y-32561904D01*
X55968397Y-32561904D02*
X55968397Y-32657142D01*
X55968397Y-32657142D02*
X55920778Y-32752380D01*
X55920778Y-32752380D02*
X55873158Y-32799999D01*
X55873158Y-32799999D02*
X55777920Y-32847618D01*
X55777920Y-32847618D02*
X55587444Y-32895237D01*
X55587444Y-32895237D02*
X55349349Y-32895237D01*
X55349349Y-32895237D02*
X55158873Y-32847618D01*
X55158873Y-32847618D02*
X55063635Y-32799999D01*
X55063635Y-32799999D02*
X55016016Y-32752380D01*
X55016016Y-32752380D02*
X54968397Y-32657142D01*
X47083397Y-42163220D02*
X47892920Y-42163220D01*
X47892920Y-42163220D02*
X47988158Y-42115601D01*
X47988158Y-42115601D02*
X48035778Y-42067982D01*
X48035778Y-42067982D02*
X48083397Y-41972744D01*
X48083397Y-41972744D02*
X48083397Y-41782268D01*
X48083397Y-41782268D02*
X48035778Y-41687030D01*
X48035778Y-41687030D02*
X47988158Y-41639411D01*
X47988158Y-41639411D02*
X47892920Y-41591792D01*
X47892920Y-41591792D02*
X47083397Y-41591792D01*
X47178635Y-41163220D02*
X47131016Y-41115601D01*
X47131016Y-41115601D02*
X47083397Y-41020363D01*
X47083397Y-41020363D02*
X47083397Y-40782268D01*
X47083397Y-40782268D02*
X47131016Y-40687030D01*
X47131016Y-40687030D02*
X47178635Y-40639411D01*
X47178635Y-40639411D02*
X47273873Y-40591792D01*
X47273873Y-40591792D02*
X47369111Y-40591792D01*
X47369111Y-40591792D02*
X47511968Y-40639411D01*
X47511968Y-40639411D02*
X48083397Y-41210839D01*
X48083397Y-41210839D02*
X48083397Y-40591792D01*
X56651673Y-46354819D02*
X56651673Y-45354819D01*
X56651673Y-45354819D02*
X56889768Y-45354819D01*
X56889768Y-45354819D02*
X57032625Y-45402438D01*
X57032625Y-45402438D02*
X57127863Y-45497676D01*
X57127863Y-45497676D02*
X57175482Y-45592914D01*
X57175482Y-45592914D02*
X57223101Y-45783390D01*
X57223101Y-45783390D02*
X57223101Y-45926247D01*
X57223101Y-45926247D02*
X57175482Y-46116723D01*
X57175482Y-46116723D02*
X57127863Y-46211961D01*
X57127863Y-46211961D02*
X57032625Y-46307200D01*
X57032625Y-46307200D02*
X56889768Y-46354819D01*
X56889768Y-46354819D02*
X56651673Y-46354819D01*
X57651673Y-46354819D02*
X57651673Y-45354819D01*
X57651673Y-45354819D02*
X57985006Y-46069104D01*
X57985006Y-46069104D02*
X58318339Y-45354819D01*
X58318339Y-45354819D02*
X58318339Y-46354819D01*
X58794530Y-46354819D02*
X58794530Y-45354819D01*
X58794530Y-45354819D02*
X59365958Y-46354819D01*
X59365958Y-46354819D02*
X59365958Y-45354819D01*
X59794530Y-45450057D02*
X59842149Y-45402438D01*
X59842149Y-45402438D02*
X59937387Y-45354819D01*
X59937387Y-45354819D02*
X60175482Y-45354819D01*
X60175482Y-45354819D02*
X60270720Y-45402438D01*
X60270720Y-45402438D02*
X60318339Y-45450057D01*
X60318339Y-45450057D02*
X60365958Y-45545295D01*
X60365958Y-45545295D02*
X60365958Y-45640533D01*
X60365958Y-45640533D02*
X60318339Y-45783390D01*
X60318339Y-45783390D02*
X59746911Y-46354819D01*
X59746911Y-46354819D02*
X60365958Y-46354819D01*
X60985006Y-45354819D02*
X61080244Y-45354819D01*
X61080244Y-45354819D02*
X61175482Y-45402438D01*
X61175482Y-45402438D02*
X61223101Y-45450057D01*
X61223101Y-45450057D02*
X61270720Y-45545295D01*
X61270720Y-45545295D02*
X61318339Y-45735771D01*
X61318339Y-45735771D02*
X61318339Y-45973866D01*
X61318339Y-45973866D02*
X61270720Y-46164342D01*
X61270720Y-46164342D02*
X61223101Y-46259580D01*
X61223101Y-46259580D02*
X61175482Y-46307200D01*
X61175482Y-46307200D02*
X61080244Y-46354819D01*
X61080244Y-46354819D02*
X60985006Y-46354819D01*
X60985006Y-46354819D02*
X60889768Y-46307200D01*
X60889768Y-46307200D02*
X60842149Y-46259580D01*
X60842149Y-46259580D02*
X60794530Y-46164342D01*
X60794530Y-46164342D02*
X60746911Y-45973866D01*
X60746911Y-45973866D02*
X60746911Y-45735771D01*
X60746911Y-45735771D02*
X60794530Y-45545295D01*
X60794530Y-45545295D02*
X60842149Y-45450057D01*
X60842149Y-45450057D02*
X60889768Y-45402438D01*
X60889768Y-45402438D02*
X60985006Y-45354819D01*
X61937387Y-45354819D02*
X62032625Y-45354819D01*
X62032625Y-45354819D02*
X62127863Y-45402438D01*
X62127863Y-45402438D02*
X62175482Y-45450057D01*
X62175482Y-45450057D02*
X62223101Y-45545295D01*
X62223101Y-45545295D02*
X62270720Y-45735771D01*
X62270720Y-45735771D02*
X62270720Y-45973866D01*
X62270720Y-45973866D02*
X62223101Y-46164342D01*
X62223101Y-46164342D02*
X62175482Y-46259580D01*
X62175482Y-46259580D02*
X62127863Y-46307200D01*
X62127863Y-46307200D02*
X62032625Y-46354819D01*
X62032625Y-46354819D02*
X61937387Y-46354819D01*
X61937387Y-46354819D02*
X61842149Y-46307200D01*
X61842149Y-46307200D02*
X61794530Y-46259580D01*
X61794530Y-46259580D02*
X61746911Y-46164342D01*
X61746911Y-46164342D02*
X61699292Y-45973866D01*
X61699292Y-45973866D02*
X61699292Y-45735771D01*
X61699292Y-45735771D02*
X61746911Y-45545295D01*
X61746911Y-45545295D02*
X61794530Y-45450057D01*
X61794530Y-45450057D02*
X61842149Y-45402438D01*
X61842149Y-45402438D02*
X61937387Y-45354819D01*
X63175482Y-45354819D02*
X62699292Y-45354819D01*
X62699292Y-45354819D02*
X62651673Y-45831009D01*
X62651673Y-45831009D02*
X62699292Y-45783390D01*
X62699292Y-45783390D02*
X62794530Y-45735771D01*
X62794530Y-45735771D02*
X63032625Y-45735771D01*
X63032625Y-45735771D02*
X63127863Y-45783390D01*
X63127863Y-45783390D02*
X63175482Y-45831009D01*
X63175482Y-45831009D02*
X63223101Y-45926247D01*
X63223101Y-45926247D02*
X63223101Y-46164342D01*
X63223101Y-46164342D02*
X63175482Y-46259580D01*
X63175482Y-46259580D02*
X63127863Y-46307200D01*
X63127863Y-46307200D02*
X63032625Y-46354819D01*
X63032625Y-46354819D02*
X62794530Y-46354819D01*
X62794530Y-46354819D02*
X62699292Y-46307200D01*
X62699292Y-46307200D02*
X62651673Y-46259580D01*
X63651673Y-46354819D02*
X63651673Y-45354819D01*
X64223101Y-46354819D02*
X63794530Y-45783390D01*
X64223101Y-45354819D02*
X63651673Y-45926247D01*
D13*
X60809515Y-48368571D02*
X60775229Y-48437142D01*
X60775229Y-48437142D02*
X60706658Y-48505714D01*
X60706658Y-48505714D02*
X60603800Y-48608571D01*
X60603800Y-48608571D02*
X60569515Y-48677142D01*
X60569515Y-48677142D02*
X60569515Y-48745714D01*
X60740943Y-48711428D02*
X60706658Y-48780000D01*
X60706658Y-48780000D02*
X60638086Y-48848571D01*
X60638086Y-48848571D02*
X60500943Y-48882857D01*
X60500943Y-48882857D02*
X60260943Y-48882857D01*
X60260943Y-48882857D02*
X60123800Y-48848571D01*
X60123800Y-48848571D02*
X60055229Y-48780000D01*
X60055229Y-48780000D02*
X60020943Y-48711428D01*
X60020943Y-48711428D02*
X60020943Y-48574285D01*
X60020943Y-48574285D02*
X60055229Y-48505714D01*
X60055229Y-48505714D02*
X60123800Y-48437142D01*
X60123800Y-48437142D02*
X60260943Y-48402857D01*
X60260943Y-48402857D02*
X60500943Y-48402857D01*
X60500943Y-48402857D02*
X60638086Y-48437142D01*
X60638086Y-48437142D02*
X60706658Y-48505714D01*
X60706658Y-48505714D02*
X60740943Y-48574285D01*
X60740943Y-48574285D02*
X60740943Y-48711428D01*
X60020943Y-48162856D02*
X60020943Y-47717142D01*
X60020943Y-47717142D02*
X60295229Y-47957142D01*
X60295229Y-47957142D02*
X60295229Y-47854285D01*
X60295229Y-47854285D02*
X60329515Y-47785714D01*
X60329515Y-47785714D02*
X60363800Y-47751428D01*
X60363800Y-47751428D02*
X60432372Y-47717142D01*
X60432372Y-47717142D02*
X60603800Y-47717142D01*
X60603800Y-47717142D02*
X60672372Y-47751428D01*
X60672372Y-47751428D02*
X60706658Y-47785714D01*
X60706658Y-47785714D02*
X60740943Y-47854285D01*
X60740943Y-47854285D02*
X60740943Y-48059999D01*
X60740943Y-48059999D02*
X60706658Y-48128571D01*
X60706658Y-48128571D02*
X60672372Y-48162856D01*
D10*
X47594530Y-49924819D02*
X47023102Y-49924819D01*
X47308816Y-49924819D02*
X47308816Y-48924819D01*
X47308816Y-48924819D02*
X47213578Y-49067676D01*
X47213578Y-49067676D02*
X47118340Y-49162914D01*
X47118340Y-49162914D02*
X47023102Y-49210533D01*
X48023102Y-49924819D02*
X48023102Y-48924819D01*
X48118340Y-49543866D02*
X48404054Y-49924819D01*
X48404054Y-49258152D02*
X48023102Y-49639104D01*
D12*
X47670245Y-48418200D02*
X47583578Y-48294391D01*
X47521673Y-48418200D02*
X47521673Y-48158200D01*
X47521673Y-48158200D02*
X47620721Y-48158200D01*
X47620721Y-48158200D02*
X47645483Y-48170581D01*
X47645483Y-48170581D02*
X47657864Y-48182962D01*
X47657864Y-48182962D02*
X47670245Y-48207724D01*
X47670245Y-48207724D02*
X47670245Y-48244867D01*
X47670245Y-48244867D02*
X47657864Y-48269629D01*
X47657864Y-48269629D02*
X47645483Y-48282010D01*
X47645483Y-48282010D02*
X47620721Y-48294391D01*
X47620721Y-48294391D02*
X47521673Y-48294391D01*
X47893102Y-48244867D02*
X47893102Y-48418200D01*
X47831197Y-48145820D02*
X47769292Y-48331534D01*
X47769292Y-48331534D02*
X47930245Y-48331534D01*
D10*
X23137856Y-32034819D02*
X22566428Y-32034819D01*
X22852142Y-32034819D02*
X22852142Y-31034819D01*
X22852142Y-31034819D02*
X22756904Y-31177676D01*
X22756904Y-31177676D02*
X22661666Y-31272914D01*
X22661666Y-31272914D02*
X22566428Y-31320533D01*
X23756904Y-31034819D02*
X23852142Y-31034819D01*
X23852142Y-31034819D02*
X23947380Y-31082438D01*
X23947380Y-31082438D02*
X23994999Y-31130057D01*
X23994999Y-31130057D02*
X24042618Y-31225295D01*
X24042618Y-31225295D02*
X24090237Y-31415771D01*
X24090237Y-31415771D02*
X24090237Y-31653866D01*
X24090237Y-31653866D02*
X24042618Y-31844342D01*
X24042618Y-31844342D02*
X23994999Y-31939580D01*
X23994999Y-31939580D02*
X23947380Y-31987200D01*
X23947380Y-31987200D02*
X23852142Y-32034819D01*
X23852142Y-32034819D02*
X23756904Y-32034819D01*
X23756904Y-32034819D02*
X23661666Y-31987200D01*
X23661666Y-31987200D02*
X23614047Y-31939580D01*
X23614047Y-31939580D02*
X23566428Y-31844342D01*
X23566428Y-31844342D02*
X23518809Y-31653866D01*
X23518809Y-31653866D02*
X23518809Y-31415771D01*
X23518809Y-31415771D02*
X23566428Y-31225295D01*
X23566428Y-31225295D02*
X23614047Y-31130057D01*
X23614047Y-31130057D02*
X23661666Y-31082438D01*
X23661666Y-31082438D02*
X23756904Y-31034819D01*
X25042618Y-32034819D02*
X24471190Y-32034819D01*
X24756904Y-32034819D02*
X24756904Y-31034819D01*
X24756904Y-31034819D02*
X24661666Y-31177676D01*
X24661666Y-31177676D02*
X24566428Y-31272914D01*
X24566428Y-31272914D02*
X24471190Y-31320533D01*
X25423571Y-31130057D02*
X25471190Y-31082438D01*
X25471190Y-31082438D02*
X25566428Y-31034819D01*
X25566428Y-31034819D02*
X25804523Y-31034819D01*
X25804523Y-31034819D02*
X25899761Y-31082438D01*
X25899761Y-31082438D02*
X25947380Y-31130057D01*
X25947380Y-31130057D02*
X25994999Y-31225295D01*
X25994999Y-31225295D02*
X25994999Y-31320533D01*
X25994999Y-31320533D02*
X25947380Y-31463390D01*
X25947380Y-31463390D02*
X25375952Y-32034819D01*
X25375952Y-32034819D02*
X25994999Y-32034819D01*
X26471190Y-32034819D02*
X26661666Y-32034819D01*
X26661666Y-32034819D02*
X26756904Y-31987200D01*
X26756904Y-31987200D02*
X26804523Y-31939580D01*
X26804523Y-31939580D02*
X26899761Y-31796723D01*
X26899761Y-31796723D02*
X26947380Y-31606247D01*
X26947380Y-31606247D02*
X26947380Y-31225295D01*
X26947380Y-31225295D02*
X26899761Y-31130057D01*
X26899761Y-31130057D02*
X26852142Y-31082438D01*
X26852142Y-31082438D02*
X26756904Y-31034819D01*
X26756904Y-31034819D02*
X26566428Y-31034819D01*
X26566428Y-31034819D02*
X26471190Y-31082438D01*
X26471190Y-31082438D02*
X26423571Y-31130057D01*
X26423571Y-31130057D02*
X26375952Y-31225295D01*
X26375952Y-31225295D02*
X26375952Y-31463390D01*
X26375952Y-31463390D02*
X26423571Y-31558628D01*
X26423571Y-31558628D02*
X26471190Y-31606247D01*
X26471190Y-31606247D02*
X26566428Y-31653866D01*
X26566428Y-31653866D02*
X26756904Y-31653866D01*
X26756904Y-31653866D02*
X26852142Y-31606247D01*
X26852142Y-31606247D02*
X26899761Y-31558628D01*
X26899761Y-31558628D02*
X26947380Y-31463390D01*
X27280714Y-31034819D02*
X27899761Y-31034819D01*
X27899761Y-31034819D02*
X27566428Y-31415771D01*
X27566428Y-31415771D02*
X27709285Y-31415771D01*
X27709285Y-31415771D02*
X27804523Y-31463390D01*
X27804523Y-31463390D02*
X27852142Y-31511009D01*
X27852142Y-31511009D02*
X27899761Y-31606247D01*
X27899761Y-31606247D02*
X27899761Y-31844342D01*
X27899761Y-31844342D02*
X27852142Y-31939580D01*
X27852142Y-31939580D02*
X27804523Y-31987200D01*
X27804523Y-31987200D02*
X27709285Y-32034819D01*
X27709285Y-32034819D02*
X27423571Y-32034819D01*
X27423571Y-32034819D02*
X27328333Y-31987200D01*
X27328333Y-31987200D02*
X27280714Y-31939580D01*
X28471190Y-31463390D02*
X28375952Y-31415771D01*
X28375952Y-31415771D02*
X28328333Y-31368152D01*
X28328333Y-31368152D02*
X28280714Y-31272914D01*
X28280714Y-31272914D02*
X28280714Y-31225295D01*
X28280714Y-31225295D02*
X28328333Y-31130057D01*
X28328333Y-31130057D02*
X28375952Y-31082438D01*
X28375952Y-31082438D02*
X28471190Y-31034819D01*
X28471190Y-31034819D02*
X28661666Y-31034819D01*
X28661666Y-31034819D02*
X28756904Y-31082438D01*
X28756904Y-31082438D02*
X28804523Y-31130057D01*
X28804523Y-31130057D02*
X28852142Y-31225295D01*
X28852142Y-31225295D02*
X28852142Y-31272914D01*
X28852142Y-31272914D02*
X28804523Y-31368152D01*
X28804523Y-31368152D02*
X28756904Y-31415771D01*
X28756904Y-31415771D02*
X28661666Y-31463390D01*
X28661666Y-31463390D02*
X28471190Y-31463390D01*
X28471190Y-31463390D02*
X28375952Y-31511009D01*
X28375952Y-31511009D02*
X28328333Y-31558628D01*
X28328333Y-31558628D02*
X28280714Y-31653866D01*
X28280714Y-31653866D02*
X28280714Y-31844342D01*
X28280714Y-31844342D02*
X28328333Y-31939580D01*
X28328333Y-31939580D02*
X28375952Y-31987200D01*
X28375952Y-31987200D02*
X28471190Y-32034819D01*
X28471190Y-32034819D02*
X28661666Y-32034819D01*
X28661666Y-32034819D02*
X28756904Y-31987200D01*
X28756904Y-31987200D02*
X28804523Y-31939580D01*
X28804523Y-31939580D02*
X28852142Y-31844342D01*
X28852142Y-31844342D02*
X28852142Y-31653866D01*
X28852142Y-31653866D02*
X28804523Y-31558628D01*
X28804523Y-31558628D02*
X28756904Y-31511009D01*
X28756904Y-31511009D02*
X28661666Y-31463390D01*
X29233095Y-31130057D02*
X29280714Y-31082438D01*
X29280714Y-31082438D02*
X29375952Y-31034819D01*
X29375952Y-31034819D02*
X29614047Y-31034819D01*
X29614047Y-31034819D02*
X29709285Y-31082438D01*
X29709285Y-31082438D02*
X29756904Y-31130057D01*
X29756904Y-31130057D02*
X29804523Y-31225295D01*
X29804523Y-31225295D02*
X29804523Y-31320533D01*
X29804523Y-31320533D02*
X29756904Y-31463390D01*
X29756904Y-31463390D02*
X29185476Y-32034819D01*
X29185476Y-32034819D02*
X29804523Y-32034819D01*
X30233095Y-31653866D02*
X30995000Y-31653866D01*
X31518809Y-32034819D02*
X31709285Y-32034819D01*
X31709285Y-32034819D02*
X31804523Y-31987200D01*
X31804523Y-31987200D02*
X31852142Y-31939580D01*
X31852142Y-31939580D02*
X31947380Y-31796723D01*
X31947380Y-31796723D02*
X31994999Y-31606247D01*
X31994999Y-31606247D02*
X31994999Y-31225295D01*
X31994999Y-31225295D02*
X31947380Y-31130057D01*
X31947380Y-31130057D02*
X31899761Y-31082438D01*
X31899761Y-31082438D02*
X31804523Y-31034819D01*
X31804523Y-31034819D02*
X31614047Y-31034819D01*
X31614047Y-31034819D02*
X31518809Y-31082438D01*
X31518809Y-31082438D02*
X31471190Y-31130057D01*
X31471190Y-31130057D02*
X31423571Y-31225295D01*
X31423571Y-31225295D02*
X31423571Y-31463390D01*
X31423571Y-31463390D02*
X31471190Y-31558628D01*
X31471190Y-31558628D02*
X31518809Y-31606247D01*
X31518809Y-31606247D02*
X31614047Y-31653866D01*
X31614047Y-31653866D02*
X31804523Y-31653866D01*
X31804523Y-31653866D02*
X31899761Y-31606247D01*
X31899761Y-31606247D02*
X31947380Y-31558628D01*
X31947380Y-31558628D02*
X31994999Y-31463390D01*
X32947380Y-32034819D02*
X32375952Y-32034819D01*
X32661666Y-32034819D02*
X32661666Y-31034819D01*
X32661666Y-31034819D02*
X32566428Y-31177676D01*
X32566428Y-31177676D02*
X32471190Y-31272914D01*
X32471190Y-31272914D02*
X32375952Y-31320533D01*
X33328333Y-31130057D02*
X33375952Y-31082438D01*
X33375952Y-31082438D02*
X33471190Y-31034819D01*
X33471190Y-31034819D02*
X33709285Y-31034819D01*
X33709285Y-31034819D02*
X33804523Y-31082438D01*
X33804523Y-31082438D02*
X33852142Y-31130057D01*
X33852142Y-31130057D02*
X33899761Y-31225295D01*
X33899761Y-31225295D02*
X33899761Y-31320533D01*
X33899761Y-31320533D02*
X33852142Y-31463390D01*
X33852142Y-31463390D02*
X33280714Y-32034819D01*
X33280714Y-32034819D02*
X33899761Y-32034819D01*
X34518809Y-31034819D02*
X34614047Y-31034819D01*
X34614047Y-31034819D02*
X34709285Y-31082438D01*
X34709285Y-31082438D02*
X34756904Y-31130057D01*
X34756904Y-31130057D02*
X34804523Y-31225295D01*
X34804523Y-31225295D02*
X34852142Y-31415771D01*
X34852142Y-31415771D02*
X34852142Y-31653866D01*
X34852142Y-31653866D02*
X34804523Y-31844342D01*
X34804523Y-31844342D02*
X34756904Y-31939580D01*
X34756904Y-31939580D02*
X34709285Y-31987200D01*
X34709285Y-31987200D02*
X34614047Y-32034819D01*
X34614047Y-32034819D02*
X34518809Y-32034819D01*
X34518809Y-32034819D02*
X34423571Y-31987200D01*
X34423571Y-31987200D02*
X34375952Y-31939580D01*
X34375952Y-31939580D02*
X34328333Y-31844342D01*
X34328333Y-31844342D02*
X34280714Y-31653866D01*
X34280714Y-31653866D02*
X34280714Y-31415771D01*
X34280714Y-31415771D02*
X34328333Y-31225295D01*
X34328333Y-31225295D02*
X34375952Y-31130057D01*
X34375952Y-31130057D02*
X34423571Y-31082438D01*
X34423571Y-31082438D02*
X34518809Y-31034819D01*
X35471190Y-31034819D02*
X35566428Y-31034819D01*
X35566428Y-31034819D02*
X35661666Y-31082438D01*
X35661666Y-31082438D02*
X35709285Y-31130057D01*
X35709285Y-31130057D02*
X35756904Y-31225295D01*
X35756904Y-31225295D02*
X35804523Y-31415771D01*
X35804523Y-31415771D02*
X35804523Y-31653866D01*
X35804523Y-31653866D02*
X35756904Y-31844342D01*
X35756904Y-31844342D02*
X35709285Y-31939580D01*
X35709285Y-31939580D02*
X35661666Y-31987200D01*
X35661666Y-31987200D02*
X35566428Y-32034819D01*
X35566428Y-32034819D02*
X35471190Y-32034819D01*
X35471190Y-32034819D02*
X35375952Y-31987200D01*
X35375952Y-31987200D02*
X35328333Y-31939580D01*
X35328333Y-31939580D02*
X35280714Y-31844342D01*
X35280714Y-31844342D02*
X35233095Y-31653866D01*
X35233095Y-31653866D02*
X35233095Y-31415771D01*
X35233095Y-31415771D02*
X35280714Y-31225295D01*
X35280714Y-31225295D02*
X35328333Y-31130057D01*
X35328333Y-31130057D02*
X35375952Y-31082438D01*
X35375952Y-31082438D02*
X35471190Y-31034819D01*
X36756904Y-32034819D02*
X36185476Y-32034819D01*
X36471190Y-32034819D02*
X36471190Y-31034819D01*
X36471190Y-31034819D02*
X36375952Y-31177676D01*
X36375952Y-31177676D02*
X36280714Y-31272914D01*
X36280714Y-31272914D02*
X36185476Y-31320533D01*
X37518809Y-31511009D02*
X37661666Y-31558628D01*
X37661666Y-31558628D02*
X37709285Y-31606247D01*
X37709285Y-31606247D02*
X37756904Y-31701485D01*
X37756904Y-31701485D02*
X37756904Y-31844342D01*
X37756904Y-31844342D02*
X37709285Y-31939580D01*
X37709285Y-31939580D02*
X37661666Y-31987200D01*
X37661666Y-31987200D02*
X37566428Y-32034819D01*
X37566428Y-32034819D02*
X37185476Y-32034819D01*
X37185476Y-32034819D02*
X37185476Y-31034819D01*
X37185476Y-31034819D02*
X37518809Y-31034819D01*
X37518809Y-31034819D02*
X37614047Y-31082438D01*
X37614047Y-31082438D02*
X37661666Y-31130057D01*
X37661666Y-31130057D02*
X37709285Y-31225295D01*
X37709285Y-31225295D02*
X37709285Y-31320533D01*
X37709285Y-31320533D02*
X37661666Y-31415771D01*
X37661666Y-31415771D02*
X37614047Y-31463390D01*
X37614047Y-31463390D02*
X37518809Y-31511009D01*
X37518809Y-31511009D02*
X37185476Y-31511009D01*
X38661666Y-32034819D02*
X38185476Y-32034819D01*
X38185476Y-32034819D02*
X38185476Y-31034819D01*
X39328333Y-31511009D02*
X38995000Y-31511009D01*
X38995000Y-32034819D02*
X38995000Y-31034819D01*
X38995000Y-31034819D02*
X39471190Y-31034819D01*
X30794819Y-40533333D02*
X31509104Y-40533333D01*
X31509104Y-40533333D02*
X31651961Y-40580952D01*
X31651961Y-40580952D02*
X31747200Y-40676190D01*
X31747200Y-40676190D02*
X31794819Y-40819047D01*
X31794819Y-40819047D02*
X31794819Y-40914285D01*
X31794819Y-39533333D02*
X31794819Y-40104761D01*
X31794819Y-39819047D02*
X30794819Y-39819047D01*
X30794819Y-39819047D02*
X30937676Y-39914285D01*
X30937676Y-39914285D02*
X31032914Y-40009523D01*
X31032914Y-40009523D02*
X31080533Y-40104761D01*
X57194530Y-49924819D02*
X56623102Y-49924819D01*
X56908816Y-49924819D02*
X56908816Y-48924819D01*
X56908816Y-48924819D02*
X56813578Y-49067676D01*
X56813578Y-49067676D02*
X56718340Y-49162914D01*
X56718340Y-49162914D02*
X56623102Y-49210533D01*
X57623102Y-49924819D02*
X57623102Y-48924819D01*
X57718340Y-49543866D02*
X58004054Y-49924819D01*
X58004054Y-49258152D02*
X57623102Y-49639104D01*
D12*
X57270245Y-48418200D02*
X57183578Y-48294391D01*
X57121673Y-48418200D02*
X57121673Y-48158200D01*
X57121673Y-48158200D02*
X57220721Y-48158200D01*
X57220721Y-48158200D02*
X57245483Y-48170581D01*
X57245483Y-48170581D02*
X57257864Y-48182962D01*
X57257864Y-48182962D02*
X57270245Y-48207724D01*
X57270245Y-48207724D02*
X57270245Y-48244867D01*
X57270245Y-48244867D02*
X57257864Y-48269629D01*
X57257864Y-48269629D02*
X57245483Y-48282010D01*
X57245483Y-48282010D02*
X57220721Y-48294391D01*
X57220721Y-48294391D02*
X57121673Y-48294391D01*
X57356911Y-48158200D02*
X57517864Y-48158200D01*
X57517864Y-48158200D02*
X57431197Y-48257248D01*
X57431197Y-48257248D02*
X57468340Y-48257248D01*
X57468340Y-48257248D02*
X57493102Y-48269629D01*
X57493102Y-48269629D02*
X57505483Y-48282010D01*
X57505483Y-48282010D02*
X57517864Y-48306772D01*
X57517864Y-48306772D02*
X57517864Y-48368677D01*
X57517864Y-48368677D02*
X57505483Y-48393439D01*
X57505483Y-48393439D02*
X57493102Y-48405820D01*
X57493102Y-48405820D02*
X57468340Y-48418200D01*
X57468340Y-48418200D02*
X57394054Y-48418200D01*
X57394054Y-48418200D02*
X57369292Y-48405820D01*
X57369292Y-48405820D02*
X57356911Y-48393439D01*
D10*
X64354819Y-42704762D02*
X64354819Y-43276190D01*
X64354819Y-42990476D02*
X63354819Y-42990476D01*
X63354819Y-42990476D02*
X63497676Y-43085714D01*
X63497676Y-43085714D02*
X63592914Y-43180952D01*
X63592914Y-43180952D02*
X63640533Y-43276190D01*
X63354819Y-41800000D02*
X63354819Y-42276190D01*
X63354819Y-42276190D02*
X63831009Y-42323809D01*
X63831009Y-42323809D02*
X63783390Y-42276190D01*
X63783390Y-42276190D02*
X63735771Y-42180952D01*
X63735771Y-42180952D02*
X63735771Y-41942857D01*
X63735771Y-41942857D02*
X63783390Y-41847619D01*
X63783390Y-41847619D02*
X63831009Y-41800000D01*
X63831009Y-41800000D02*
X63926247Y-41752381D01*
X63926247Y-41752381D02*
X64164342Y-41752381D01*
X64164342Y-41752381D02*
X64259580Y-41800000D01*
X64259580Y-41800000D02*
X64307200Y-41847619D01*
X64307200Y-41847619D02*
X64354819Y-41942857D01*
X64354819Y-41942857D02*
X64354819Y-42180952D01*
X64354819Y-42180952D02*
X64307200Y-42276190D01*
X64307200Y-42276190D02*
X64259580Y-42323809D01*
X63354819Y-41419047D02*
X63354819Y-40752381D01*
X63354819Y-40752381D02*
X64354819Y-41180952D01*
X64354819Y-39847619D02*
X64354819Y-40419047D01*
X64354819Y-40133333D02*
X63354819Y-40133333D01*
X63354819Y-40133333D02*
X63497676Y-40228571D01*
X63497676Y-40228571D02*
X63592914Y-40323809D01*
X63592914Y-40323809D02*
X63640533Y-40419047D01*
X64354819Y-38895238D02*
X64354819Y-39466666D01*
X64354819Y-39180952D02*
X63354819Y-39180952D01*
X63354819Y-39180952D02*
X63497676Y-39276190D01*
X63497676Y-39276190D02*
X63592914Y-39371428D01*
X63592914Y-39371428D02*
X63640533Y-39466666D01*
X63450057Y-38514285D02*
X63402438Y-38466666D01*
X63402438Y-38466666D02*
X63354819Y-38371428D01*
X63354819Y-38371428D02*
X63354819Y-38133333D01*
X63354819Y-38133333D02*
X63402438Y-38038095D01*
X63402438Y-38038095D02*
X63450057Y-37990476D01*
X63450057Y-37990476D02*
X63545295Y-37942857D01*
X63545295Y-37942857D02*
X63640533Y-37942857D01*
X63640533Y-37942857D02*
X63783390Y-37990476D01*
X63783390Y-37990476D02*
X64354819Y-38561904D01*
X64354819Y-38561904D02*
X64354819Y-37942857D01*
X63354819Y-37657142D02*
X64354819Y-37323809D01*
X64354819Y-37323809D02*
X63354819Y-36990476D01*
X64354819Y-36133333D02*
X64354819Y-36704761D01*
X64354819Y-36419047D02*
X63354819Y-36419047D01*
X63354819Y-36419047D02*
X63497676Y-36514285D01*
X63497676Y-36514285D02*
X63592914Y-36609523D01*
X63592914Y-36609523D02*
X63640533Y-36704761D01*
X63450057Y-35752380D02*
X63402438Y-35704761D01*
X63402438Y-35704761D02*
X63354819Y-35609523D01*
X63354819Y-35609523D02*
X63354819Y-35371428D01*
X63354819Y-35371428D02*
X63402438Y-35276190D01*
X63402438Y-35276190D02*
X63450057Y-35228571D01*
X63450057Y-35228571D02*
X63545295Y-35180952D01*
X63545295Y-35180952D02*
X63640533Y-35180952D01*
X63640533Y-35180952D02*
X63783390Y-35228571D01*
X63783390Y-35228571D02*
X64354819Y-35799999D01*
X64354819Y-35799999D02*
X64354819Y-35180952D01*
X63354819Y-34847618D02*
X63354819Y-34180952D01*
X63354819Y-34180952D02*
X64354819Y-34609523D01*
X63354819Y-33609523D02*
X63354819Y-33514285D01*
X63354819Y-33514285D02*
X63402438Y-33419047D01*
X63402438Y-33419047D02*
X63450057Y-33371428D01*
X63450057Y-33371428D02*
X63545295Y-33323809D01*
X63545295Y-33323809D02*
X63735771Y-33276190D01*
X63735771Y-33276190D02*
X63973866Y-33276190D01*
X63973866Y-33276190D02*
X64164342Y-33323809D01*
X64164342Y-33323809D02*
X64259580Y-33371428D01*
X64259580Y-33371428D02*
X64307200Y-33419047D01*
X64307200Y-33419047D02*
X64354819Y-33514285D01*
X64354819Y-33514285D02*
X64354819Y-33609523D01*
X64354819Y-33609523D02*
X64307200Y-33704761D01*
X64307200Y-33704761D02*
X64259580Y-33752380D01*
X64259580Y-33752380D02*
X64164342Y-33799999D01*
X64164342Y-33799999D02*
X63973866Y-33847618D01*
X63973866Y-33847618D02*
X63735771Y-33847618D01*
X63735771Y-33847618D02*
X63545295Y-33799999D01*
X63545295Y-33799999D02*
X63450057Y-33752380D01*
X63450057Y-33752380D02*
X63402438Y-33704761D01*
X63402438Y-33704761D02*
X63354819Y-33609523D01*
X63354819Y-32657142D02*
X63354819Y-32561904D01*
X63354819Y-32561904D02*
X63402438Y-32466666D01*
X63402438Y-32466666D02*
X63450057Y-32419047D01*
X63450057Y-32419047D02*
X63545295Y-32371428D01*
X63545295Y-32371428D02*
X63735771Y-32323809D01*
X63735771Y-32323809D02*
X63973866Y-32323809D01*
X63973866Y-32323809D02*
X64164342Y-32371428D01*
X64164342Y-32371428D02*
X64259580Y-32419047D01*
X64259580Y-32419047D02*
X64307200Y-32466666D01*
X64307200Y-32466666D02*
X64354819Y-32561904D01*
X64354819Y-32561904D02*
X64354819Y-32657142D01*
X64354819Y-32657142D02*
X64307200Y-32752380D01*
X64307200Y-32752380D02*
X64259580Y-32799999D01*
X64259580Y-32799999D02*
X64164342Y-32847618D01*
X64164342Y-32847618D02*
X63973866Y-32895237D01*
X63973866Y-32895237D02*
X63735771Y-32895237D01*
X63735771Y-32895237D02*
X63545295Y-32847618D01*
X63545295Y-32847618D02*
X63450057Y-32799999D01*
X63450057Y-32799999D02*
X63402438Y-32752380D01*
X63402438Y-32752380D02*
X63354819Y-32657142D01*
X55469819Y-42163220D02*
X56279342Y-42163220D01*
X56279342Y-42163220D02*
X56374580Y-42115601D01*
X56374580Y-42115601D02*
X56422200Y-42067982D01*
X56422200Y-42067982D02*
X56469819Y-41972744D01*
X56469819Y-41972744D02*
X56469819Y-41782268D01*
X56469819Y-41782268D02*
X56422200Y-41687030D01*
X56422200Y-41687030D02*
X56374580Y-41639411D01*
X56374580Y-41639411D02*
X56279342Y-41591792D01*
X56279342Y-41591792D02*
X55469819Y-41591792D01*
X55803152Y-40687030D02*
X56469819Y-40687030D01*
X55422200Y-40925125D02*
X56136485Y-41163220D01*
X56136485Y-41163220D02*
X56136485Y-40544173D01*
X43684819Y-46495238D02*
X43684819Y-47066666D01*
X43684819Y-46780952D02*
X42684819Y-46780952D01*
X42684819Y-46780952D02*
X42827676Y-46876190D01*
X42827676Y-46876190D02*
X42922914Y-46971428D01*
X42922914Y-46971428D02*
X42970533Y-47066666D01*
X42684819Y-45876190D02*
X42684819Y-45780952D01*
X42684819Y-45780952D02*
X42732438Y-45685714D01*
X42732438Y-45685714D02*
X42780057Y-45638095D01*
X42780057Y-45638095D02*
X42875295Y-45590476D01*
X42875295Y-45590476D02*
X43065771Y-45542857D01*
X43065771Y-45542857D02*
X43303866Y-45542857D01*
X43303866Y-45542857D02*
X43494342Y-45590476D01*
X43494342Y-45590476D02*
X43589580Y-45638095D01*
X43589580Y-45638095D02*
X43637200Y-45685714D01*
X43637200Y-45685714D02*
X43684819Y-45780952D01*
X43684819Y-45780952D02*
X43684819Y-45876190D01*
X43684819Y-45876190D02*
X43637200Y-45971428D01*
X43637200Y-45971428D02*
X43589580Y-46019047D01*
X43589580Y-46019047D02*
X43494342Y-46066666D01*
X43494342Y-46066666D02*
X43303866Y-46114285D01*
X43303866Y-46114285D02*
X43065771Y-46114285D01*
X43065771Y-46114285D02*
X42875295Y-46066666D01*
X42875295Y-46066666D02*
X42780057Y-46019047D01*
X42780057Y-46019047D02*
X42732438Y-45971428D01*
X42732438Y-45971428D02*
X42684819Y-45876190D01*
X43684819Y-45114285D02*
X42684819Y-45114285D01*
X43303866Y-45019047D02*
X43684819Y-44733333D01*
X43018152Y-44733333D02*
X43399104Y-45114285D01*
D12*
X44518200Y-45943332D02*
X44394391Y-46029999D01*
X44518200Y-46091904D02*
X44258200Y-46091904D01*
X44258200Y-46091904D02*
X44258200Y-45992856D01*
X44258200Y-45992856D02*
X44270581Y-45968094D01*
X44270581Y-45968094D02*
X44282962Y-45955713D01*
X44282962Y-45955713D02*
X44307724Y-45943332D01*
X44307724Y-45943332D02*
X44344867Y-45943332D01*
X44344867Y-45943332D02*
X44369629Y-45955713D01*
X44369629Y-45955713D02*
X44382010Y-45968094D01*
X44382010Y-45968094D02*
X44394391Y-45992856D01*
X44394391Y-45992856D02*
X44394391Y-46091904D01*
X44518200Y-45695713D02*
X44518200Y-45844285D01*
X44518200Y-45769999D02*
X44258200Y-45769999D01*
X44258200Y-45769999D02*
X44295343Y-45794761D01*
X44295343Y-45794761D02*
X44320105Y-45819523D01*
X44320105Y-45819523D02*
X44332486Y-45844285D01*
D10*
X40585714Y-37054819D02*
X40109524Y-37054819D01*
X40109524Y-37054819D02*
X40061905Y-37531009D01*
X40061905Y-37531009D02*
X40109524Y-37483390D01*
X40109524Y-37483390D02*
X40204762Y-37435771D01*
X40204762Y-37435771D02*
X40442857Y-37435771D01*
X40442857Y-37435771D02*
X40538095Y-37483390D01*
X40538095Y-37483390D02*
X40585714Y-37531009D01*
X40585714Y-37531009D02*
X40633333Y-37626247D01*
X40633333Y-37626247D02*
X40633333Y-37864342D01*
X40633333Y-37864342D02*
X40585714Y-37959580D01*
X40585714Y-37959580D02*
X40538095Y-38007200D01*
X40538095Y-38007200D02*
X40442857Y-38054819D01*
X40442857Y-38054819D02*
X40204762Y-38054819D01*
X40204762Y-38054819D02*
X40109524Y-38007200D01*
X40109524Y-38007200D02*
X40061905Y-37959580D01*
X41585714Y-38054819D02*
X41014286Y-38054819D01*
X41300000Y-38054819D02*
X41300000Y-37054819D01*
X41300000Y-37054819D02*
X41204762Y-37197676D01*
X41204762Y-37197676D02*
X41109524Y-37292914D01*
X41109524Y-37292914D02*
X41014286Y-37340533D01*
X42204762Y-37054819D02*
X42300000Y-37054819D01*
X42300000Y-37054819D02*
X42395238Y-37102438D01*
X42395238Y-37102438D02*
X42442857Y-37150057D01*
X42442857Y-37150057D02*
X42490476Y-37245295D01*
X42490476Y-37245295D02*
X42538095Y-37435771D01*
X42538095Y-37435771D02*
X42538095Y-37673866D01*
X42538095Y-37673866D02*
X42490476Y-37864342D01*
X42490476Y-37864342D02*
X42442857Y-37959580D01*
X42442857Y-37959580D02*
X42395238Y-38007200D01*
X42395238Y-38007200D02*
X42300000Y-38054819D01*
X42300000Y-38054819D02*
X42204762Y-38054819D01*
X42204762Y-38054819D02*
X42109524Y-38007200D01*
X42109524Y-38007200D02*
X42061905Y-37959580D01*
X42061905Y-37959580D02*
X42014286Y-37864342D01*
X42014286Y-37864342D02*
X41966667Y-37673866D01*
X41966667Y-37673866D02*
X41966667Y-37435771D01*
X41966667Y-37435771D02*
X42014286Y-37245295D01*
X42014286Y-37245295D02*
X42061905Y-37150057D01*
X42061905Y-37150057D02*
X42109524Y-37102438D01*
X42109524Y-37102438D02*
X42204762Y-37054819D01*
X43538095Y-38054819D02*
X43204762Y-37578628D01*
X42966667Y-38054819D02*
X42966667Y-37054819D01*
X42966667Y-37054819D02*
X43347619Y-37054819D01*
X43347619Y-37054819D02*
X43442857Y-37102438D01*
X43442857Y-37102438D02*
X43490476Y-37150057D01*
X43490476Y-37150057D02*
X43538095Y-37245295D01*
X43538095Y-37245295D02*
X43538095Y-37388152D01*
X43538095Y-37388152D02*
X43490476Y-37483390D01*
X43490476Y-37483390D02*
X43442857Y-37531009D01*
X43442857Y-37531009D02*
X43347619Y-37578628D01*
X43347619Y-37578628D02*
X42966667Y-37578628D01*
D14*
X42027409Y-35145238D02*
X41789314Y-35311904D01*
X42027409Y-35430952D02*
X41527409Y-35430952D01*
X41527409Y-35430952D02*
X41527409Y-35240476D01*
X41527409Y-35240476D02*
X41551219Y-35192857D01*
X41551219Y-35192857D02*
X41575028Y-35169047D01*
X41575028Y-35169047D02*
X41622647Y-35145238D01*
X41622647Y-35145238D02*
X41694076Y-35145238D01*
X41694076Y-35145238D02*
X41741695Y-35169047D01*
X41741695Y-35169047D02*
X41765504Y-35192857D01*
X41765504Y-35192857D02*
X41789314Y-35240476D01*
X41789314Y-35240476D02*
X41789314Y-35430952D01*
X42027409Y-34930952D02*
X41527409Y-34930952D01*
X41527409Y-34930952D02*
X42027409Y-34645238D01*
X42027409Y-34645238D02*
X41527409Y-34645238D01*
X42027409Y-34145237D02*
X42027409Y-34430951D01*
X42027409Y-34288094D02*
X41527409Y-34288094D01*
X41527409Y-34288094D02*
X41598838Y-34335713D01*
X41598838Y-34335713D02*
X41646457Y-34383332D01*
X41646457Y-34383332D02*
X41670266Y-34430951D01*
D15*
X41200000Y-47500000D02*
X42000000Y-47500000D01*
X42000000Y-45900000D01*
X41200000Y-45900000D01*
X41200000Y-47500000D01*
X42850000Y-47300000D02*
X43350000Y-47300000D01*
X43350000Y-46300000D01*
X42850000Y-46300000D01*
X42850000Y-47300000D01*
X51463578Y-49425000D02*
X51138578Y-49750000D01*
X50163578Y-49750000D01*
X50163578Y-46850000D01*
X51463578Y-46850000D01*
X51463578Y-49425000D01*
X41000000Y-39700000D02*
X42600000Y-39700000D01*
X41000000Y-42900000D02*
X41000000Y-39700000D01*
X42600000Y-39700000D02*
X42600000Y-42900000D01*
X42600000Y-42900000D02*
X41000000Y-42900000D01*
D16*
X46813578Y-44500000D02*
X54813578Y-44500000D01*
X54813578Y-32500000D01*
X46813578Y-32500000D01*
X46813578Y-44500000D01*
X53113578Y-42100000D02*
X53713578Y-42100000D01*
X53713578Y-41500000D01*
X53113578Y-41500000D01*
X53113578Y-42100000D01*
G36*
X53113578Y-42100000D02*
G01*
X53713578Y-42100000D01*
X53713578Y-41500000D01*
X53113578Y-41500000D01*
X53113578Y-42100000D01*
G37*
D17*
X47079999Y-45100000D02*
G75*
G02*
X46747157Y-45100000I-166421J0D01*
G01*
X46747157Y-45100000D02*
G75*
G02*
X47079999Y-45100000I166421J0D01*
G01*
D16*
X49513578Y-36000000D02*
X49513578Y-38000000D01*
X49013578Y-38500000D01*
X49013578Y-35500000D01*
X49513578Y-36000000D01*
G36*
X49513578Y-36000000D02*
G01*
X49513578Y-38000000D01*
X49013578Y-38500000D01*
X49013578Y-35500000D01*
X49513578Y-36000000D01*
G37*
X49513578Y-39300000D02*
X49513578Y-41300000D01*
X49013578Y-41800000D01*
X49013578Y-38800000D01*
X49513578Y-39300000D01*
G36*
X49513578Y-39300000D02*
G01*
X49513578Y-41300000D01*
X49013578Y-41800000D01*
X49013578Y-38800000D01*
X49513578Y-39300000D01*
G37*
X51813578Y-35700000D02*
X49813578Y-35700000D01*
X49313578Y-35200000D01*
X52313578Y-35200000D01*
X51813578Y-35700000D01*
G36*
X51813578Y-35700000D02*
G01*
X49813578Y-35700000D01*
X49313578Y-35200000D01*
X52313578Y-35200000D01*
X51813578Y-35700000D01*
G37*
X52313578Y-42100000D02*
X49313578Y-42100000D01*
X49813578Y-41600000D01*
X51813578Y-41600000D01*
X52313578Y-42100000D01*
G36*
X52313578Y-42100000D02*
G01*
X49313578Y-42100000D01*
X49813578Y-41600000D01*
X51813578Y-41600000D01*
X52313578Y-42100000D01*
G37*
X52613578Y-38500000D02*
X52113578Y-38000000D01*
X52113578Y-36000000D01*
X52613578Y-35500000D01*
X52613578Y-38500000D01*
G36*
X52613578Y-38500000D02*
G01*
X52113578Y-38000000D01*
X52113578Y-36000000D01*
X52613578Y-35500000D01*
X52613578Y-38500000D01*
G37*
X52613578Y-41800000D02*
X52113578Y-41300000D01*
X52113578Y-39300000D01*
X52613578Y-38800000D01*
X52613578Y-41800000D01*
G36*
X52613578Y-41800000D02*
G01*
X52113578Y-41300000D01*
X52113578Y-39300000D01*
X52613578Y-38800000D01*
X52613578Y-41800000D01*
G37*
X51913578Y-38600000D02*
X51513578Y-38900000D01*
X50113578Y-38900000D01*
X49613578Y-38600000D01*
X50113578Y-38300000D01*
X51513578Y-38300000D01*
X51913578Y-38600000D01*
G36*
X51913578Y-38600000D02*
G01*
X51513578Y-38900000D01*
X50113578Y-38900000D01*
X49613578Y-38600000D01*
X50113578Y-38300000D01*
X51513578Y-38300000D01*
X51913578Y-38600000D01*
G37*
D15*
X61063578Y-49425000D02*
X60738578Y-49750000D01*
X59763578Y-49750000D01*
X59763578Y-46850000D01*
X61063578Y-46850000D01*
X61063578Y-49425000D01*
X47188578Y-48030000D02*
X48238578Y-48030000D01*
X48238578Y-48570000D01*
X47188578Y-48570000D01*
X47188578Y-48030000D01*
X24070000Y-34170000D02*
X24070000Y-33530000D01*
X24070000Y-36710000D02*
X24070000Y-36070000D01*
X24070000Y-39250000D02*
X24070000Y-38610000D01*
X24070000Y-41790000D02*
X24070000Y-41150000D01*
X24070000Y-44330000D02*
X24070000Y-43690000D01*
X24070000Y-46870000D02*
X24070000Y-46230000D01*
X30070000Y-32580000D02*
X32610000Y-32580000D01*
X30070000Y-33530000D02*
X24070000Y-33530000D01*
X30070000Y-34170000D02*
X24070000Y-34170000D01*
X30070000Y-36070000D02*
X24070000Y-36070000D01*
X30070000Y-36710000D02*
X24070000Y-36710000D01*
X30070000Y-38610000D02*
X24070000Y-38610000D01*
X30070000Y-39250000D02*
X24070000Y-39250000D01*
X30070000Y-41150000D02*
X24070000Y-41150000D01*
X30070000Y-41790000D02*
X24070000Y-41790000D01*
X30070000Y-43690000D02*
X24070000Y-43690000D01*
X30070000Y-44330000D02*
X24070000Y-44330000D01*
X30070000Y-46230000D02*
X24070000Y-46230000D01*
X30070000Y-46870000D02*
X24070000Y-46870000D01*
X30070000Y-47820000D02*
X30070000Y-32580000D01*
X31975000Y-47820000D02*
X30070000Y-47820000D01*
X32610000Y-32580000D02*
X32610000Y-47185000D01*
X32610000Y-47185000D02*
X31975000Y-47820000D01*
X36970000Y-33530000D02*
X32610000Y-33530000D01*
X36970000Y-34170000D02*
X32610000Y-34170000D01*
X36970000Y-34170000D02*
X36970000Y-33530000D01*
X36970000Y-36070000D02*
X32610000Y-36070000D01*
X36970000Y-36710000D02*
X32610000Y-36710000D01*
X36970000Y-36710000D02*
X36970000Y-36070000D01*
X36970000Y-38610000D02*
X32610000Y-38610000D01*
X36970000Y-39250000D02*
X32610000Y-39250000D01*
X36970000Y-39250000D02*
X36970000Y-38610000D01*
X36970000Y-41150000D02*
X32610000Y-41150000D01*
X36970000Y-41790000D02*
X32610000Y-41790000D01*
X36970000Y-41790000D02*
X36970000Y-41150000D01*
X36970000Y-43690000D02*
X32610000Y-43690000D01*
X36970000Y-44330000D02*
X32610000Y-44330000D01*
X36970000Y-44330000D02*
X36970000Y-43690000D01*
X36970000Y-46230000D02*
X32610000Y-46230000D01*
X36970000Y-46870000D02*
X32610000Y-46870000D01*
X36970000Y-46870000D02*
X36970000Y-46230000D01*
X56788578Y-48030000D02*
X57838578Y-48030000D01*
X57838578Y-48570000D01*
X56788578Y-48570000D01*
X56788578Y-48030000D01*
D16*
X55200000Y-44500000D02*
X63200000Y-44500000D01*
X63200000Y-32500000D01*
X55200000Y-32500000D01*
X55200000Y-44500000D01*
X61500000Y-42100000D02*
X62100000Y-42100000D01*
X62100000Y-41500000D01*
X61500000Y-41500000D01*
X61500000Y-42100000D01*
G36*
X61500000Y-42100000D02*
G01*
X62100000Y-42100000D01*
X62100000Y-41500000D01*
X61500000Y-41500000D01*
X61500000Y-42100000D01*
G37*
D17*
X55466421Y-45100000D02*
G75*
G02*
X55133579Y-45100000I-166421J0D01*
G01*
X55133579Y-45100000D02*
G75*
G02*
X55466421Y-45100000I166421J0D01*
G01*
D16*
X57900000Y-36000000D02*
X57900000Y-38000000D01*
X57400000Y-38500000D01*
X57400000Y-35500000D01*
X57900000Y-36000000D01*
G36*
X57900000Y-36000000D02*
G01*
X57900000Y-38000000D01*
X57400000Y-38500000D01*
X57400000Y-35500000D01*
X57900000Y-36000000D01*
G37*
X57900000Y-39300000D02*
X57900000Y-41300000D01*
X57400000Y-41800000D01*
X57400000Y-38800000D01*
X57900000Y-39300000D01*
G36*
X57900000Y-39300000D02*
G01*
X57900000Y-41300000D01*
X57400000Y-41800000D01*
X57400000Y-38800000D01*
X57900000Y-39300000D01*
G37*
X60200000Y-35700000D02*
X58200000Y-35700000D01*
X57700000Y-35200000D01*
X60700000Y-35200000D01*
X60200000Y-35700000D01*
G36*
X60200000Y-35700000D02*
G01*
X58200000Y-35700000D01*
X57700000Y-35200000D01*
X60700000Y-35200000D01*
X60200000Y-35700000D01*
G37*
X60700000Y-42100000D02*
X57700000Y-42100000D01*
X58200000Y-41600000D01*
X60200000Y-41600000D01*
X60700000Y-42100000D01*
G36*
X60700000Y-42100000D02*
G01*
X57700000Y-42100000D01*
X58200000Y-41600000D01*
X60200000Y-41600000D01*
X60700000Y-42100000D01*
G37*
X61000000Y-38500000D02*
X60500000Y-38000000D01*
X60500000Y-36000000D01*
X61000000Y-35500000D01*
X61000000Y-38500000D01*
G36*
X61000000Y-38500000D02*
G01*
X60500000Y-38000000D01*
X60500000Y-36000000D01*
X61000000Y-35500000D01*
X61000000Y-38500000D01*
G37*
X61000000Y-41800000D02*
X60500000Y-41300000D01*
X60500000Y-39300000D01*
X61000000Y-38800000D01*
X61000000Y-41800000D01*
G36*
X61000000Y-41800000D02*
G01*
X60500000Y-41300000D01*
X60500000Y-39300000D01*
X61000000Y-38800000D01*
X61000000Y-41800000D01*
G37*
X60300000Y-38600000D02*
X59900000Y-38900000D01*
X58500000Y-38900000D01*
X58000000Y-38600000D01*
X58500000Y-38300000D01*
X59900000Y-38300000D01*
X60300000Y-38600000D01*
G36*
X60300000Y-38600000D02*
G01*
X59900000Y-38900000D01*
X58500000Y-38900000D01*
X58000000Y-38600000D01*
X58500000Y-38300000D01*
X59900000Y-38300000D01*
X60300000Y-38600000D01*
G37*
D15*
X44670000Y-45375000D02*
X44130000Y-45375000D01*
X44130000Y-46425000D01*
X44670000Y-46425000D01*
X44670000Y-45375000D01*
X41000000Y-33200000D02*
X42600000Y-33200000D01*
X41000000Y-36400000D02*
X41000000Y-33200000D01*
X42600000Y-33200000D02*
X42600000Y-36400000D01*
X42600000Y-36400000D02*
X41000000Y-36400000D01*
M02*
