G04 #@! TF.GenerationSoftware,KiCad,Pcbnew,9.0.9-9.0.9~ubuntu24.04.1*
G04 #@! TF.CreationDate,2026-07-09T13:34:27-04:00*
G04 #@! TF.ProjectId,icebreaker-pmod-7segment,69636562-7265-4616-9b65-722d706d6f64,2.0*
G04 #@! TF.SameCoordinates,Original*
G04 #@! TF.FileFunction,Copper,L2,Bot*
G04 #@! TF.FilePolarity,Positive*
%FSLAX46Y46*%
G04 Gerber Fmt 4.6, Leading zero omitted, Abs format (unit mm)*
G04 Created by KiCad (PCBNEW 9.0.9-9.0.9~ubuntu24.04.1) date 2026-07-09 13:34:27*
%MOMM*%
%LPD*%
G01*
G04 APERTURE LIST*
G04 #@! TA.AperFunction,ComponentPad*
%ADD10C,0.820000*%
G04 #@! TD*
G04 #@! TA.AperFunction,ComponentPad*
%ADD11R,1.700000X1.700000*%
G04 #@! TD*
G04 #@! TA.AperFunction,ComponentPad*
%ADD12O,1.700000X1.700000*%
G04 #@! TD*
G04 #@! TA.AperFunction,ComponentPad*
%ADD13C,1.700000*%
G04 #@! TD*
G04 #@! TA.AperFunction,ViaPad*
%ADD14C,0.800000*%
G04 #@! TD*
G04 #@! TA.AperFunction,ViaPad*
%ADD15C,0.650000*%
G04 #@! TD*
G04 #@! TA.AperFunction,Conductor*
%ADD16C,0.300000*%
G04 #@! TD*
G04 #@! TA.AperFunction,Conductor*
%ADD17C,0.250000*%
G04 #@! TD*
G04 APERTURE END LIST*
D10*
X38700000Y-49300000D03*
X53800000Y-40300000D03*
X31100000Y-35100000D03*
X58300000Y-49300000D03*
X63050000Y-38200000D03*
X41000000Y-38200000D03*
X44600000Y-31000000D03*
X56400000Y-31000000D03*
X48600000Y-47200000D03*
X46300000Y-49300000D03*
X62100000Y-42000000D03*
X48600000Y-36900000D03*
X62900000Y-31000000D03*
X38700000Y-31000000D03*
D11*
X36650000Y-33850000D03*
D12*
X36650000Y-36390000D03*
X36650000Y-38930000D03*
X36650000Y-41470000D03*
X36650000Y-44010000D03*
D13*
X36650000Y-46550000D03*
D12*
X34110000Y-33850000D03*
X34110000Y-36390000D03*
X34110000Y-38930000D03*
X34110000Y-41470000D03*
X34110000Y-44010000D03*
X34110000Y-46550000D03*
D10*
X46300000Y-39200000D03*
X31100000Y-45300000D03*
X52900000Y-38200000D03*
X31100000Y-31000000D03*
X58100000Y-42000000D03*
X31100000Y-49300000D03*
X31100000Y-40400000D03*
D14*
X61300000Y-48250000D03*
X41600000Y-44700000D03*
X45650000Y-46400000D03*
D15*
X63175000Y-47400000D03*
D14*
X43100000Y-45200000D03*
X53500000Y-47300000D03*
X47500000Y-49400000D03*
X55900000Y-48300000D03*
D15*
X59300000Y-42200000D03*
X59200000Y-34700000D03*
D14*
X59000000Y-47300000D03*
D15*
X38900000Y-32500000D03*
X38500000Y-40900000D03*
X39700000Y-39900000D03*
X39900000Y-34500000D03*
D14*
X50900000Y-42275000D03*
X49900000Y-47500000D03*
D15*
X50800000Y-34599998D03*
X52300000Y-42200000D03*
X60700000Y-39400000D03*
X52700000Y-39400000D03*
X60800000Y-42200000D03*
X46100000Y-34350000D03*
X46200000Y-30825000D03*
X53813577Y-34613577D03*
X54000000Y-37900000D03*
X49400000Y-34600000D03*
X49400000Y-36100000D03*
X52400000Y-37100000D03*
X52342526Y-34542524D03*
X47700000Y-39200000D03*
X47700000Y-42200000D03*
X62700000Y-49200000D03*
X62600000Y-46050000D03*
D16*
X55900000Y-48450000D02*
X55900000Y-48300000D01*
X47500000Y-49400000D02*
X54950000Y-49400000D01*
X54950000Y-49400000D02*
X55900000Y-48450000D01*
X59300000Y-42400000D02*
X59300000Y-47000000D01*
D17*
X59200000Y-42300000D02*
X59300000Y-42400000D01*
X59300000Y-47000000D02*
X59000000Y-47300000D01*
D16*
X59200000Y-34700000D02*
X59200000Y-42300000D01*
D17*
X38500000Y-32900000D02*
X38500000Y-40900000D01*
X38900000Y-32500000D02*
X38500000Y-32900000D01*
X39900000Y-39700000D02*
X39900000Y-34500000D01*
X39700000Y-39900000D02*
X39900000Y-39700000D01*
X49900000Y-47400000D02*
X49900000Y-47500000D01*
X50800000Y-42200000D02*
X50900000Y-42300000D01*
D16*
X50900000Y-42300000D02*
X50900000Y-46400000D01*
X50900000Y-46400000D02*
X49900000Y-47400000D01*
X50800000Y-34600000D02*
X50800000Y-42200000D01*
D17*
X60700000Y-42400000D02*
X60800000Y-42500000D01*
X60700000Y-39400000D02*
X60700000Y-42400000D01*
X52700000Y-41800000D02*
X52700000Y-39400000D01*
X52300000Y-42200000D02*
X52700000Y-41800000D01*
X46100000Y-30925000D02*
X46100000Y-34350000D01*
X46200000Y-30825000D02*
X46100000Y-30925000D01*
X54000000Y-37900000D02*
X54000000Y-34800000D01*
X54000000Y-34800000D02*
X53813577Y-34613577D01*
X49400000Y-34500000D02*
X49400000Y-36100000D01*
X52400000Y-34600000D02*
X52400000Y-37100000D01*
X47700000Y-42000000D02*
X47700000Y-39200000D01*
X62700000Y-49200000D02*
X62400000Y-48900000D01*
X62400000Y-48900000D02*
X62400000Y-46250000D01*
X62400000Y-46250000D02*
X62600000Y-46050000D01*
G04 #@! TA.AperFunction,Conductor*
G36*
X36184075Y-43817007D02*
G01*
X36150000Y-43944174D01*
X36150000Y-44075826D01*
X36184075Y-44202993D01*
X36216988Y-44260000D01*
X34543012Y-44260000D01*
X34575925Y-44202993D01*
X34610000Y-44075826D01*
X34610000Y-43944174D01*
X34575925Y-43817007D01*
X34543012Y-43760000D01*
X36216988Y-43760000D01*
X36184075Y-43817007D01*
G37*
G04 #@! TD.AperFunction*
G04 #@! TA.AperFunction,Conductor*
G36*
X45495911Y-30506435D02*
G01*
X45516951Y-30507563D01*
X45528765Y-30516082D01*
X45542737Y-30520185D01*
X45556530Y-30536103D01*
X45573623Y-30548429D01*
X45578956Y-30561984D01*
X45588492Y-30572989D01*
X45591490Y-30593841D01*
X45599204Y-30613447D01*
X45597874Y-30638244D01*
X45598436Y-30642147D01*
X45597315Y-30648691D01*
X45574500Y-30763389D01*
X45574500Y-30886610D01*
X45598535Y-31007444D01*
X45598538Y-31007454D01*
X45645687Y-31121283D01*
X45653602Y-31133128D01*
X45674480Y-31199805D01*
X45674500Y-31202019D01*
X45674500Y-33839546D01*
X45654815Y-33906585D01*
X45638181Y-33927227D01*
X45614144Y-33951263D01*
X45614141Y-33951267D01*
X45545692Y-34053707D01*
X45545687Y-34053716D01*
X45498538Y-34167545D01*
X45498535Y-34167555D01*
X45474500Y-34288389D01*
X45474500Y-34411610D01*
X45498535Y-34532444D01*
X45498537Y-34532452D01*
X45500998Y-34538394D01*
X45545687Y-34646283D01*
X45545692Y-34646292D01*
X45614141Y-34748732D01*
X45614144Y-34748736D01*
X45701263Y-34835855D01*
X45701267Y-34835858D01*
X45803707Y-34904307D01*
X45803716Y-34904312D01*
X45817132Y-34909869D01*
X45917548Y-34951463D01*
X46038389Y-34975499D01*
X46038393Y-34975500D01*
X46038394Y-34975500D01*
X46161607Y-34975500D01*
X46161608Y-34975499D01*
X46282452Y-34951463D01*
X46396286Y-34904311D01*
X46498733Y-34835858D01*
X46585858Y-34748733D01*
X46654311Y-34646286D01*
X46699004Y-34538389D01*
X48774500Y-34538389D01*
X48774500Y-34661610D01*
X48798535Y-34782444D01*
X48798538Y-34782454D01*
X48845687Y-34896283D01*
X48845692Y-34896292D01*
X48914140Y-34998731D01*
X48914141Y-34998732D01*
X48914142Y-34998733D01*
X48938181Y-35022772D01*
X48971666Y-35084093D01*
X48974500Y-35110453D01*
X48974500Y-35589546D01*
X48954815Y-35656585D01*
X48938181Y-35677227D01*
X48914144Y-35701263D01*
X48914141Y-35701267D01*
X48845692Y-35803707D01*
X48845687Y-35803716D01*
X48798538Y-35917545D01*
X48798535Y-35917555D01*
X48774500Y-36038389D01*
X48774500Y-36161610D01*
X48798535Y-36282444D01*
X48798538Y-36282454D01*
X48845687Y-36396283D01*
X48845692Y-36396292D01*
X48914141Y-36498732D01*
X48914144Y-36498736D01*
X49001263Y-36585855D01*
X49001267Y-36585858D01*
X49103707Y-36654307D01*
X49103716Y-36654312D01*
X49116024Y-36659410D01*
X49217548Y-36701463D01*
X49338389Y-36725499D01*
X49338393Y-36725500D01*
X49338394Y-36725500D01*
X49461607Y-36725500D01*
X49461608Y-36725499D01*
X49582452Y-36701463D01*
X49696286Y-36654311D01*
X49798733Y-36585858D01*
X49885858Y-36498733D01*
X49954311Y-36396286D01*
X50001463Y-36282452D01*
X50025500Y-36161606D01*
X50025500Y-36038394D01*
X50001463Y-35917548D01*
X49954311Y-35803714D01*
X49954310Y-35803713D01*
X49954307Y-35803707D01*
X49885858Y-35701267D01*
X49885855Y-35701263D01*
X49861819Y-35677227D01*
X49828334Y-35615904D01*
X49825500Y-35589546D01*
X49825500Y-35110453D01*
X49845185Y-35043414D01*
X49861815Y-35022775D01*
X49885858Y-34998733D01*
X49954311Y-34896286D01*
X49954313Y-34896281D01*
X49954314Y-34896280D01*
X49978116Y-34838815D01*
X49985439Y-34821134D01*
X50029279Y-34766732D01*
X50095573Y-34744667D01*
X50163273Y-34761946D01*
X50210883Y-34813083D01*
X50214561Y-34821135D01*
X50245687Y-34896280D01*
X50245692Y-34896290D01*
X50314141Y-34998730D01*
X50318007Y-35003441D01*
X50316809Y-35004423D01*
X50346662Y-35059075D01*
X50349500Y-35085451D01*
X50349500Y-41800399D01*
X50329815Y-41867438D01*
X50328602Y-41869290D01*
X50279228Y-41943182D01*
X50279221Y-41943195D01*
X50226421Y-42070667D01*
X50226418Y-42070677D01*
X50199500Y-42206004D01*
X50199500Y-42206007D01*
X50199500Y-42343993D01*
X50199500Y-42343995D01*
X50199499Y-42343995D01*
X50226418Y-42479322D01*
X50226421Y-42479332D01*
X50279221Y-42606804D01*
X50279228Y-42606817D01*
X50355884Y-42721540D01*
X50355885Y-42721541D01*
X50355886Y-42721542D01*
X50413182Y-42778838D01*
X50446666Y-42840159D01*
X50449500Y-42866518D01*
X50449500Y-46162035D01*
X50429815Y-46229074D01*
X50413181Y-46249716D01*
X49898038Y-46764858D01*
X49836715Y-46798343D01*
X49834549Y-46798794D01*
X49695677Y-46826418D01*
X49695667Y-46826421D01*
X49568195Y-46879221D01*
X49568182Y-46879228D01*
X49453458Y-46955885D01*
X49453454Y-46955888D01*
X49355888Y-47053454D01*
X49355885Y-47053458D01*
X49279228Y-47168182D01*
X49279221Y-47168195D01*
X49226421Y-47295667D01*
X49226418Y-47295677D01*
X49199501Y-47430998D01*
X49199500Y-47431004D01*
X49199500Y-47431005D01*
X49199500Y-47431007D01*
X49199500Y-47568993D01*
X49199500Y-47568995D01*
X49199499Y-47568995D01*
X49226418Y-47704322D01*
X49226421Y-47704332D01*
X49279221Y-47831804D01*
X49279228Y-47831817D01*
X49355885Y-47946541D01*
X49355888Y-47946545D01*
X49453454Y-48044111D01*
X49453458Y-48044114D01*
X49568182Y-48120771D01*
X49568195Y-48120778D01*
X49695667Y-48173578D01*
X49695672Y-48173580D01*
X49695676Y-48173580D01*
X49695677Y-48173581D01*
X49831004Y-48200500D01*
X49831007Y-48200500D01*
X49968995Y-48200500D01*
X50060041Y-48182389D01*
X50104328Y-48173580D01*
X50231811Y-48120775D01*
X50346542Y-48044114D01*
X50444114Y-47946542D01*
X50520775Y-47831811D01*
X50573580Y-47704328D01*
X50582389Y-47660041D01*
X50600500Y-47568995D01*
X50600500Y-47431005D01*
X50597768Y-47417272D01*
X50598475Y-47409363D01*
X50595701Y-47401925D01*
X50601545Y-47375060D01*
X50602088Y-47368995D01*
X58299499Y-47368995D01*
X58326418Y-47504322D01*
X58326421Y-47504332D01*
X58379221Y-47631804D01*
X58379228Y-47631817D01*
X58455885Y-47746541D01*
X58455888Y-47746545D01*
X58553454Y-47844111D01*
X58553458Y-47844114D01*
X58668182Y-47920771D01*
X58668195Y-47920778D01*
X58782640Y-47968182D01*
X58795672Y-47973580D01*
X58795676Y-47973580D01*
X58795677Y-47973581D01*
X58931004Y-48000500D01*
X58931007Y-48000500D01*
X59068995Y-48000500D01*
X59160041Y-47982389D01*
X59204328Y-47973580D01*
X59331811Y-47920775D01*
X59446542Y-47844114D01*
X59544114Y-47746542D01*
X59620775Y-47631811D01*
X59673580Y-47504328D01*
X59688851Y-47427558D01*
X59700500Y-47368995D01*
X59700500Y-47240538D01*
X59717114Y-47178536D01*
X59719799Y-47173886D01*
X59750500Y-47059309D01*
X59750500Y-42685453D01*
X59770185Y-42618414D01*
X59782148Y-42603570D01*
X59781993Y-42603443D01*
X59785855Y-42598736D01*
X59785858Y-42598733D01*
X59854311Y-42496286D01*
X59901463Y-42382452D01*
X59925500Y-42261606D01*
X59925500Y-42138394D01*
X59901463Y-42017548D01*
X59857594Y-41911639D01*
X59854312Y-41903716D01*
X59854307Y-41903707D01*
X59785858Y-41801267D01*
X59785855Y-41801263D01*
X59698735Y-41714143D01*
X59695835Y-41711763D01*
X59694724Y-41710132D01*
X59694426Y-41709834D01*
X59694482Y-41709777D01*
X59656500Y-41654017D01*
X59650500Y-41615910D01*
X59650500Y-39338389D01*
X60074500Y-39338389D01*
X60074500Y-39461610D01*
X60098535Y-39582444D01*
X60098538Y-39582454D01*
X60145687Y-39696283D01*
X60145692Y-39696292D01*
X60214140Y-39798731D01*
X60214141Y-39798732D01*
X60214142Y-39798733D01*
X60238181Y-39822772D01*
X60271666Y-39884093D01*
X60274500Y-39910453D01*
X60274500Y-41822980D01*
X60254815Y-41890019D01*
X60253603Y-41891870D01*
X60245688Y-41903715D01*
X60198538Y-42017545D01*
X60198535Y-42017555D01*
X60174500Y-42138389D01*
X60174500Y-42261610D01*
X60198535Y-42382444D01*
X60198538Y-42382454D01*
X60245687Y-42496283D01*
X60245692Y-42496292D01*
X60314141Y-42598732D01*
X60314144Y-42598736D01*
X60324534Y-42609126D01*
X60344239Y-42634805D01*
X60359515Y-42661263D01*
X60538737Y-42840484D01*
X60583828Y-42866518D01*
X60635757Y-42896500D01*
X60635758Y-42896501D01*
X60635760Y-42896501D01*
X60635763Y-42896503D01*
X60743981Y-42925500D01*
X60743983Y-42925500D01*
X60856016Y-42925500D01*
X60856018Y-42925500D01*
X60964237Y-42896503D01*
X61061263Y-42840484D01*
X61140484Y-42761263D01*
X61160320Y-42726904D01*
X61194551Y-42690361D01*
X61194026Y-42689721D01*
X61198736Y-42685856D01*
X61285855Y-42598736D01*
X61285858Y-42598733D01*
X61354311Y-42496286D01*
X61401463Y-42382452D01*
X61425500Y-42261606D01*
X61425500Y-42138394D01*
X61401463Y-42017548D01*
X61357594Y-41911639D01*
X61354312Y-41903716D01*
X61354307Y-41903707D01*
X61285858Y-41801267D01*
X61285855Y-41801263D01*
X61198734Y-41714142D01*
X61180607Y-41702030D01*
X61135803Y-41648417D01*
X61125500Y-41598929D01*
X61125500Y-39910453D01*
X61145185Y-39843414D01*
X61161815Y-39822775D01*
X61185858Y-39798733D01*
X61254311Y-39696286D01*
X61301463Y-39582452D01*
X61325500Y-39461606D01*
X61325500Y-39338394D01*
X61301463Y-39217548D01*
X61254311Y-39103714D01*
X61254310Y-39103713D01*
X61254307Y-39103707D01*
X61185858Y-39001267D01*
X61185855Y-39001263D01*
X61098736Y-38914144D01*
X61098732Y-38914141D01*
X60996292Y-38845692D01*
X60996283Y-38845687D01*
X60903477Y-38807246D01*
X60882452Y-38798537D01*
X60882448Y-38798536D01*
X60882444Y-38798535D01*
X60761610Y-38774500D01*
X60761606Y-38774500D01*
X60638394Y-38774500D01*
X60638389Y-38774500D01*
X60517555Y-38798535D01*
X60517545Y-38798538D01*
X60403716Y-38845687D01*
X60403707Y-38845692D01*
X60301267Y-38914141D01*
X60301263Y-38914144D01*
X60214144Y-39001263D01*
X60214141Y-39001267D01*
X60145692Y-39103707D01*
X60145687Y-39103716D01*
X60098538Y-39217545D01*
X60098535Y-39217555D01*
X60074500Y-39338389D01*
X59650500Y-39338389D01*
X59650500Y-35185453D01*
X59670185Y-35118414D01*
X59682148Y-35103570D01*
X59681993Y-35103443D01*
X59685853Y-35098737D01*
X59685858Y-35098733D01*
X59754311Y-34996286D01*
X59801463Y-34882452D01*
X59825500Y-34761606D01*
X59825500Y-34638394D01*
X59801463Y-34517548D01*
X59760041Y-34417548D01*
X59754312Y-34403716D01*
X59754307Y-34403707D01*
X59685858Y-34301267D01*
X59685855Y-34301263D01*
X59598736Y-34214144D01*
X59598732Y-34214141D01*
X59496292Y-34145692D01*
X59496283Y-34145687D01*
X59403477Y-34107246D01*
X59382452Y-34098537D01*
X59382448Y-34098536D01*
X59382444Y-34098535D01*
X59261610Y-34074500D01*
X59261606Y-34074500D01*
X59138394Y-34074500D01*
X59138389Y-34074500D01*
X59017555Y-34098535D01*
X59017545Y-34098538D01*
X58903716Y-34145687D01*
X58903707Y-34145692D01*
X58801267Y-34214141D01*
X58801263Y-34214144D01*
X58714144Y-34301263D01*
X58714141Y-34301267D01*
X58645692Y-34403707D01*
X58645687Y-34403716D01*
X58598538Y-34517545D01*
X58598535Y-34517555D01*
X58574500Y-34638389D01*
X58574500Y-34761610D01*
X58596610Y-34872764D01*
X58598537Y-34882452D01*
X58604267Y-34896286D01*
X58645687Y-34996283D01*
X58645692Y-34996292D01*
X58714141Y-35098732D01*
X58718007Y-35103443D01*
X58716809Y-35104425D01*
X58746662Y-35159077D01*
X58749500Y-35185453D01*
X58749500Y-41869848D01*
X58740061Y-41917301D01*
X58698538Y-42017545D01*
X58698535Y-42017555D01*
X58674500Y-42138389D01*
X58674500Y-42261610D01*
X58698535Y-42382444D01*
X58698538Y-42382454D01*
X58745687Y-42496283D01*
X58745692Y-42496292D01*
X58814141Y-42598732D01*
X58818007Y-42603443D01*
X58816809Y-42604425D01*
X58846662Y-42659077D01*
X58849500Y-42685453D01*
X58849500Y-46521269D01*
X58829815Y-46588308D01*
X58777011Y-46634063D01*
X58772953Y-46635830D01*
X58668192Y-46679223D01*
X58668182Y-46679228D01*
X58553458Y-46755885D01*
X58553454Y-46755888D01*
X58455888Y-46853454D01*
X58455885Y-46853458D01*
X58379228Y-46968182D01*
X58379221Y-46968195D01*
X58326421Y-47095667D01*
X58326418Y-47095677D01*
X58299500Y-47231004D01*
X58299500Y-47231007D01*
X58299500Y-47368993D01*
X58299500Y-47368995D01*
X58299499Y-47368995D01*
X50602088Y-47368995D01*
X50603995Y-47347680D01*
X50609243Y-47339670D01*
X50610553Y-47333652D01*
X50631704Y-47305398D01*
X50883648Y-47053454D01*
X51260490Y-46676613D01*
X51319799Y-46573886D01*
X51350500Y-46459309D01*
X51350500Y-42866518D01*
X51370185Y-42799479D01*
X51386814Y-42778841D01*
X51444114Y-42721542D01*
X51520775Y-42606811D01*
X51520776Y-42606808D01*
X51520778Y-42606805D01*
X51546329Y-42545118D01*
X51590169Y-42490714D01*
X51656463Y-42468649D01*
X51724163Y-42485928D01*
X51763992Y-42523679D01*
X51814141Y-42598732D01*
X51814144Y-42598736D01*
X51901263Y-42685855D01*
X51901267Y-42685858D01*
X52003707Y-42754307D01*
X52003713Y-42754310D01*
X52003714Y-42754311D01*
X52117548Y-42801463D01*
X52186390Y-42815156D01*
X52238389Y-42825499D01*
X52238393Y-42825500D01*
X52238394Y-42825500D01*
X52361607Y-42825500D01*
X52361608Y-42825499D01*
X52482452Y-42801463D01*
X52596286Y-42754311D01*
X52698733Y-42685858D01*
X52785858Y-42598733D01*
X52854311Y-42496286D01*
X52901463Y-42382452D01*
X52925500Y-42261606D01*
X52925500Y-42227610D01*
X52945185Y-42160571D01*
X52961819Y-42139929D01*
X52963359Y-42138389D01*
X53040484Y-42061264D01*
X53053044Y-42039511D01*
X53096503Y-41964237D01*
X53107449Y-41923387D01*
X53125500Y-41856019D01*
X53125500Y-41743982D01*
X53125500Y-39910453D01*
X53145185Y-39843414D01*
X53161815Y-39822775D01*
X53185858Y-39798733D01*
X53254311Y-39696286D01*
X53301463Y-39582452D01*
X53325500Y-39461606D01*
X53325500Y-39338394D01*
X53301463Y-39217548D01*
X53254311Y-39103714D01*
X53254310Y-39103713D01*
X53254307Y-39103707D01*
X53185858Y-39001267D01*
X53185855Y-39001263D01*
X53098736Y-38914144D01*
X53098732Y-38914141D01*
X52996292Y-38845692D01*
X52996283Y-38845687D01*
X52903477Y-38807246D01*
X52882452Y-38798537D01*
X52882448Y-38798536D01*
X52882444Y-38798535D01*
X52761610Y-38774500D01*
X52761606Y-38774500D01*
X52638394Y-38774500D01*
X52638389Y-38774500D01*
X52517555Y-38798535D01*
X52517545Y-38798538D01*
X52403716Y-38845687D01*
X52403707Y-38845692D01*
X52301267Y-38914141D01*
X52301263Y-38914144D01*
X52214144Y-39001263D01*
X52214141Y-39001267D01*
X52145692Y-39103707D01*
X52145687Y-39103716D01*
X52098538Y-39217545D01*
X52098535Y-39217555D01*
X52074500Y-39338389D01*
X52074500Y-39461610D01*
X52098535Y-39582444D01*
X52098538Y-39582454D01*
X52145687Y-39696283D01*
X52145692Y-39696292D01*
X52214140Y-39798731D01*
X52214141Y-39798732D01*
X52214142Y-39798733D01*
X52238181Y-39822772D01*
X52271666Y-39884093D01*
X52274500Y-39910453D01*
X52274500Y-41465553D01*
X52254815Y-41532592D01*
X52202011Y-41578347D01*
X52174692Y-41587170D01*
X52117554Y-41598535D01*
X52117545Y-41598538D01*
X52003716Y-41645687D01*
X52003707Y-41645692D01*
X51901267Y-41714141D01*
X51901263Y-41714144D01*
X51814144Y-41801263D01*
X51814141Y-41801267D01*
X51745692Y-41903707D01*
X51745686Y-41903719D01*
X51738301Y-41921548D01*
X51694459Y-41975951D01*
X51628164Y-41998014D01*
X51560465Y-41980734D01*
X51520639Y-41942984D01*
X51444114Y-41828458D01*
X51444111Y-41828454D01*
X51346545Y-41730888D01*
X51346538Y-41730883D01*
X51305608Y-41703533D01*
X51260803Y-41649920D01*
X51250500Y-41600432D01*
X51250500Y-35085451D01*
X51270185Y-35018412D01*
X51282148Y-35003568D01*
X51281993Y-35003441D01*
X51285856Y-34998733D01*
X51285858Y-34998731D01*
X51354311Y-34896284D01*
X51401463Y-34782450D01*
X51425500Y-34661604D01*
X51425500Y-34538392D01*
X51424319Y-34532454D01*
X51417668Y-34499015D01*
X51417668Y-34499012D01*
X51414068Y-34480913D01*
X51717026Y-34480913D01*
X51717026Y-34604134D01*
X51741061Y-34724968D01*
X51741063Y-34724976D01*
X51742131Y-34727554D01*
X51788213Y-34838807D01*
X51788218Y-34838816D01*
X51856666Y-34941255D01*
X51856667Y-34941256D01*
X51856668Y-34941257D01*
X51938182Y-35022771D01*
X51971666Y-35084092D01*
X51974500Y-35110451D01*
X51974500Y-36589546D01*
X51954815Y-36656585D01*
X51938181Y-36677227D01*
X51914144Y-36701263D01*
X51914141Y-36701267D01*
X51845692Y-36803707D01*
X51845687Y-36803716D01*
X51798538Y-36917545D01*
X51798535Y-36917555D01*
X51774500Y-37038389D01*
X51774500Y-37161610D01*
X51798535Y-37282444D01*
X51798538Y-37282454D01*
X51845687Y-37396283D01*
X51845692Y-37396292D01*
X51914141Y-37498732D01*
X51914144Y-37498736D01*
X52001263Y-37585855D01*
X52001267Y-37585858D01*
X52103707Y-37654307D01*
X52103713Y-37654310D01*
X52103714Y-37654311D01*
X52217548Y-37701463D01*
X52298451Y-37717555D01*
X52338389Y-37725499D01*
X52338393Y-37725500D01*
X52338394Y-37725500D01*
X52461607Y-37725500D01*
X52461608Y-37725499D01*
X52582452Y-37701463D01*
X52696286Y-37654311D01*
X52798733Y-37585858D01*
X52885858Y-37498733D01*
X52954311Y-37396286D01*
X53001463Y-37282452D01*
X53025500Y-37161606D01*
X53025500Y-37038394D01*
X53001463Y-36917548D01*
X52954311Y-36803714D01*
X52954310Y-36803713D01*
X52954307Y-36803707D01*
X52885858Y-36701267D01*
X52885855Y-36701263D01*
X52861819Y-36677227D01*
X52828334Y-36615904D01*
X52825500Y-36589546D01*
X52825500Y-34983188D01*
X52845185Y-34916149D01*
X52846398Y-34914297D01*
X52853070Y-34904312D01*
X52896837Y-34838810D01*
X52943989Y-34724976D01*
X52949367Y-34697934D01*
X52981748Y-34636026D01*
X53042463Y-34601450D01*
X53112233Y-34605187D01*
X53168906Y-34646051D01*
X53192601Y-34697933D01*
X53212112Y-34796023D01*
X53212113Y-34796027D01*
X53212114Y-34796029D01*
X53212223Y-34796292D01*
X53259264Y-34909860D01*
X53259269Y-34909869D01*
X53327718Y-35012309D01*
X53327721Y-35012313D01*
X53414840Y-35099432D01*
X53414848Y-35099438D01*
X53519390Y-35169291D01*
X53564196Y-35222903D01*
X53574500Y-35272393D01*
X53574500Y-37389546D01*
X53554815Y-37456585D01*
X53538181Y-37477227D01*
X53514144Y-37501263D01*
X53514141Y-37501267D01*
X53445692Y-37603707D01*
X53445687Y-37603716D01*
X53398538Y-37717545D01*
X53398535Y-37717555D01*
X53374500Y-37838389D01*
X53374500Y-37961610D01*
X53398535Y-38082444D01*
X53398538Y-38082454D01*
X53445687Y-38196283D01*
X53445692Y-38196292D01*
X53514141Y-38298732D01*
X53514144Y-38298736D01*
X53601263Y-38385855D01*
X53601267Y-38385858D01*
X53703707Y-38454307D01*
X53703713Y-38454310D01*
X53703714Y-38454311D01*
X53817548Y-38501463D01*
X53938389Y-38525499D01*
X53938393Y-38525500D01*
X53938394Y-38525500D01*
X54061607Y-38525500D01*
X54061608Y-38525499D01*
X54182452Y-38501463D01*
X54296286Y-38454311D01*
X54398733Y-38385858D01*
X54485858Y-38298733D01*
X54554311Y-38196286D01*
X54601463Y-38082452D01*
X54625500Y-37961606D01*
X54625500Y-37838394D01*
X54601463Y-37717548D01*
X54554311Y-37603714D01*
X54554310Y-37603713D01*
X54554307Y-37603707D01*
X54485858Y-37501267D01*
X54485855Y-37501263D01*
X54461819Y-37477227D01*
X54428334Y-37415904D01*
X54425500Y-37389546D01*
X54425500Y-34755650D01*
X54427883Y-34731458D01*
X54429172Y-34724978D01*
X54439077Y-34675183D01*
X54439077Y-34551971D01*
X54415040Y-34431125D01*
X54376597Y-34338316D01*
X54367889Y-34317293D01*
X54367884Y-34317284D01*
X54299435Y-34214844D01*
X54299432Y-34214840D01*
X54212313Y-34127721D01*
X54212309Y-34127718D01*
X54109869Y-34059269D01*
X54109860Y-34059264D01*
X54017054Y-34020823D01*
X53996029Y-34012114D01*
X53996025Y-34012113D01*
X53996021Y-34012112D01*
X53875187Y-33988077D01*
X53875183Y-33988077D01*
X53751971Y-33988077D01*
X53751966Y-33988077D01*
X53631132Y-34012112D01*
X53631122Y-34012115D01*
X53517293Y-34059264D01*
X53517284Y-34059269D01*
X53414844Y-34127718D01*
X53414840Y-34127721D01*
X53327721Y-34214840D01*
X53327718Y-34214844D01*
X53259269Y-34317284D01*
X53259264Y-34317293D01*
X53212115Y-34431122D01*
X53212112Y-34431132D01*
X53206735Y-34458166D01*
X53174351Y-34520077D01*
X53113635Y-34554651D01*
X53043865Y-34550912D01*
X52987193Y-34510046D01*
X52963501Y-34458166D01*
X52949328Y-34386913D01*
X52943989Y-34360072D01*
X52896837Y-34246238D01*
X52896836Y-34246237D01*
X52896833Y-34246231D01*
X52828384Y-34143791D01*
X52828381Y-34143787D01*
X52741262Y-34056668D01*
X52741258Y-34056665D01*
X52638818Y-33988216D01*
X52638809Y-33988211D01*
X52524980Y-33941062D01*
X52524981Y-33941062D01*
X52524978Y-33941061D01*
X52524974Y-33941060D01*
X52524970Y-33941059D01*
X52404136Y-33917024D01*
X52404132Y-33917024D01*
X52280920Y-33917024D01*
X52280915Y-33917024D01*
X52160081Y-33941059D01*
X52160071Y-33941062D01*
X52046242Y-33988211D01*
X52046233Y-33988216D01*
X51943793Y-34056665D01*
X51943789Y-34056668D01*
X51856670Y-34143787D01*
X51856667Y-34143791D01*
X51788218Y-34246231D01*
X51788213Y-34246240D01*
X51741064Y-34360069D01*
X51741061Y-34360079D01*
X51717026Y-34480913D01*
X51414068Y-34480913D01*
X51404163Y-34431122D01*
X51401463Y-34417546D01*
X51360041Y-34317545D01*
X51354312Y-34303714D01*
X51354307Y-34303705D01*
X51285858Y-34201265D01*
X51285855Y-34201261D01*
X51198736Y-34114142D01*
X51198732Y-34114139D01*
X51096292Y-34045690D01*
X51096283Y-34045685D01*
X50982459Y-33998538D01*
X50982452Y-33998535D01*
X50982448Y-33998534D01*
X50982444Y-33998533D01*
X50861610Y-33974498D01*
X50861606Y-33974498D01*
X50738394Y-33974498D01*
X50738389Y-33974498D01*
X50617555Y-33998533D01*
X50617545Y-33998536D01*
X50503716Y-34045685D01*
X50503707Y-34045690D01*
X50401267Y-34114139D01*
X50401263Y-34114142D01*
X50314144Y-34201261D01*
X50314141Y-34201265D01*
X50245692Y-34303705D01*
X50245689Y-34303711D01*
X50214560Y-34378863D01*
X50170718Y-34433266D01*
X50104424Y-34455330D01*
X50036725Y-34438050D01*
X49989115Y-34386913D01*
X49985438Y-34378861D01*
X49954314Y-34303720D01*
X49954307Y-34303707D01*
X49885858Y-34201267D01*
X49885855Y-34201263D01*
X49798736Y-34114144D01*
X49798732Y-34114141D01*
X49696292Y-34045692D01*
X49696283Y-34045687D01*
X49582454Y-33998538D01*
X49582455Y-33998538D01*
X49582452Y-33998537D01*
X49582448Y-33998536D01*
X49582444Y-33998535D01*
X49461610Y-33974500D01*
X49461606Y-33974500D01*
X49338394Y-33974500D01*
X49338389Y-33974500D01*
X49217555Y-33998535D01*
X49217545Y-33998538D01*
X49103716Y-34045687D01*
X49103707Y-34045692D01*
X49001267Y-34114141D01*
X49001263Y-34114144D01*
X48914144Y-34201263D01*
X48914141Y-34201267D01*
X48845692Y-34303707D01*
X48845687Y-34303716D01*
X48798538Y-34417545D01*
X48798535Y-34417555D01*
X48774500Y-34538389D01*
X46699004Y-34538389D01*
X46701463Y-34532452D01*
X46704426Y-34517555D01*
X46706305Y-34508111D01*
X46721616Y-34431132D01*
X46725500Y-34411606D01*
X46725500Y-34288394D01*
X46701463Y-34167548D01*
X46655534Y-34056666D01*
X46654312Y-34053716D01*
X46654307Y-34053707D01*
X46585858Y-33951267D01*
X46585855Y-33951263D01*
X46561819Y-33927227D01*
X46528334Y-33865904D01*
X46525500Y-33839546D01*
X46525500Y-31426069D01*
X46545185Y-31359030D01*
X46580609Y-31322967D01*
X46598733Y-31310858D01*
X46685858Y-31223733D01*
X46754311Y-31121286D01*
X46801463Y-31007452D01*
X46825500Y-30886606D01*
X46825500Y-30763394D01*
X46812969Y-30700395D01*
X46802685Y-30648691D01*
X46808912Y-30579099D01*
X46851776Y-30523922D01*
X46917665Y-30500678D01*
X46924302Y-30500500D01*
X62934108Y-30500500D01*
X62993040Y-30500500D01*
X63006922Y-30501280D01*
X63023878Y-30503190D01*
X63097268Y-30511458D01*
X63124333Y-30517636D01*
X63203539Y-30545351D01*
X63228549Y-30557395D01*
X63299606Y-30602043D01*
X63321313Y-30619355D01*
X63380644Y-30678686D01*
X63397957Y-30700395D01*
X63442602Y-30771447D01*
X63454649Y-30796464D01*
X63482362Y-30875662D01*
X63488541Y-30902734D01*
X63498720Y-30993076D01*
X63499500Y-31006959D01*
X63499500Y-48872261D01*
X63479815Y-48939300D01*
X63427011Y-48985055D01*
X63357853Y-48994999D01*
X63294297Y-48965974D01*
X63260940Y-48919716D01*
X63254313Y-48903719D01*
X63254307Y-48903707D01*
X63185858Y-48801267D01*
X63185855Y-48801263D01*
X63098736Y-48714144D01*
X63098732Y-48714141D01*
X62996292Y-48645692D01*
X62996282Y-48645687D01*
X62902047Y-48606653D01*
X62847643Y-48562811D01*
X62825579Y-48496517D01*
X62825500Y-48492092D01*
X62825500Y-46716469D01*
X62845185Y-46649430D01*
X62891057Y-46607105D01*
X62896275Y-46604315D01*
X62896286Y-46604311D01*
X62998733Y-46535858D01*
X63085858Y-46448733D01*
X63154311Y-46346286D01*
X63201463Y-46232452D01*
X63225500Y-46111606D01*
X63225500Y-45988394D01*
X63201463Y-45867548D01*
X63154311Y-45753714D01*
X63154310Y-45753713D01*
X63154307Y-45753707D01*
X63085858Y-45651267D01*
X63085855Y-45651263D01*
X62998736Y-45564144D01*
X62998732Y-45564141D01*
X62896292Y-45495692D01*
X62896283Y-45495687D01*
X62782454Y-45448538D01*
X62782455Y-45448538D01*
X62782452Y-45448537D01*
X62782448Y-45448536D01*
X62782444Y-45448535D01*
X62661610Y-45424500D01*
X62661606Y-45424500D01*
X62538394Y-45424500D01*
X62538389Y-45424500D01*
X62417555Y-45448535D01*
X62417545Y-45448538D01*
X62303716Y-45495687D01*
X62303707Y-45495692D01*
X62201267Y-45564141D01*
X62201263Y-45564144D01*
X62114144Y-45651263D01*
X62114141Y-45651267D01*
X62045692Y-45753707D01*
X62045687Y-45753716D01*
X61998538Y-45867545D01*
X61998535Y-45867555D01*
X61974500Y-45988389D01*
X61974500Y-45988393D01*
X61974500Y-45988394D01*
X61974500Y-46111606D01*
X61974501Y-46111610D01*
X61978264Y-46130529D01*
X61976422Y-46186808D01*
X61974500Y-46193980D01*
X61974500Y-46193982D01*
X61974500Y-48843982D01*
X61974500Y-48956018D01*
X61983402Y-48989239D01*
X62003497Y-49064236D01*
X62003498Y-49064239D01*
X62057887Y-49158443D01*
X62074500Y-49220443D01*
X62074500Y-49261610D01*
X62098535Y-49382444D01*
X62098538Y-49382454D01*
X62145687Y-49496283D01*
X62145692Y-49496292D01*
X62217526Y-49603798D01*
X62215979Y-49604831D01*
X62239897Y-49661143D01*
X62228107Y-49730011D01*
X62180955Y-49781572D01*
X62116731Y-49799500D01*
X55486966Y-49799500D01*
X55419927Y-49779815D01*
X55374172Y-49727011D01*
X55364228Y-49657853D01*
X55393253Y-49594297D01*
X55399285Y-49587819D01*
X55848708Y-49138394D01*
X55964379Y-49022722D01*
X56025700Y-48989239D01*
X56027718Y-48988818D01*
X56104328Y-48973580D01*
X56231811Y-48920775D01*
X56346542Y-48844114D01*
X56444114Y-48746542D01*
X56520775Y-48631811D01*
X56573580Y-48504328D01*
X56600500Y-48368993D01*
X56600500Y-48231007D01*
X56600500Y-48231004D01*
X56573581Y-48095677D01*
X56573580Y-48095676D01*
X56573580Y-48095672D01*
X56534159Y-48000500D01*
X56520778Y-47968195D01*
X56520771Y-47968182D01*
X56444114Y-47853458D01*
X56444111Y-47853454D01*
X56346545Y-47755888D01*
X56346541Y-47755885D01*
X56231817Y-47679228D01*
X56231804Y-47679221D01*
X56104332Y-47626421D01*
X56104322Y-47626418D01*
X55968995Y-47599500D01*
X55968993Y-47599500D01*
X55831007Y-47599500D01*
X55831005Y-47599500D01*
X55695677Y-47626418D01*
X55695667Y-47626421D01*
X55568195Y-47679221D01*
X55568182Y-47679228D01*
X55453458Y-47755885D01*
X55453454Y-47755888D01*
X55355888Y-47853454D01*
X55355885Y-47853458D01*
X55279228Y-47968182D01*
X55279221Y-47968195D01*
X55226421Y-48095667D01*
X55226418Y-48095677D01*
X55199500Y-48231004D01*
X55199500Y-48231007D01*
X55199500Y-48368993D01*
X55199500Y-48368995D01*
X55199499Y-48368995D01*
X55210527Y-48424431D01*
X55204300Y-48494023D01*
X55176591Y-48536304D01*
X54799716Y-48913181D01*
X54738393Y-48946666D01*
X54712035Y-48949500D01*
X48091518Y-48949500D01*
X48024479Y-48929815D01*
X48003841Y-48913185D01*
X47946542Y-48855886D01*
X47946541Y-48855885D01*
X47946540Y-48855884D01*
X47831817Y-48779228D01*
X47831804Y-48779221D01*
X47704332Y-48726421D01*
X47704322Y-48726418D01*
X47568995Y-48699500D01*
X47568993Y-48699500D01*
X47431007Y-48699500D01*
X47431005Y-48699500D01*
X47295677Y-48726418D01*
X47295667Y-48726421D01*
X47168195Y-48779221D01*
X47168182Y-48779228D01*
X47053458Y-48855885D01*
X47053454Y-48855888D01*
X46955888Y-48953454D01*
X46955885Y-48953458D01*
X46879228Y-49068182D01*
X46879221Y-49068195D01*
X46826421Y-49195667D01*
X46826418Y-49195677D01*
X46799500Y-49331004D01*
X46799500Y-49331007D01*
X46799500Y-49468993D01*
X46799500Y-49468995D01*
X46799499Y-49468995D01*
X46826418Y-49604322D01*
X46826420Y-49604328D01*
X46833455Y-49621313D01*
X46836245Y-49628047D01*
X46843714Y-49697516D01*
X46812439Y-49759996D01*
X46752350Y-49795648D01*
X46721684Y-49799500D01*
X31006960Y-49799500D01*
X30993077Y-49798720D01*
X30902734Y-49788541D01*
X30875662Y-49782362D01*
X30796464Y-49754649D01*
X30771447Y-49742602D01*
X30700395Y-49697957D01*
X30678686Y-49680644D01*
X30619355Y-49621313D01*
X30602042Y-49599604D01*
X30601495Y-49598733D01*
X30557395Y-49528549D01*
X30545351Y-49503539D01*
X30517636Y-49424333D01*
X30511458Y-49397264D01*
X30509789Y-49382454D01*
X30501280Y-49306922D01*
X30500500Y-49293040D01*
X30500500Y-43760000D01*
X32782769Y-43760000D01*
X33676988Y-43760000D01*
X33644075Y-43817007D01*
X33610000Y-43944174D01*
X33610000Y-44075826D01*
X33644075Y-44202993D01*
X33676988Y-44260000D01*
X32782769Y-44260000D01*
X32793242Y-44326126D01*
X32793242Y-44326129D01*
X32858904Y-44528217D01*
X32955379Y-44717557D01*
X33080272Y-44889459D01*
X33080276Y-44889464D01*
X33230535Y-45039723D01*
X33230540Y-45039727D01*
X33402442Y-45164620D01*
X33591780Y-45261094D01*
X33620705Y-45270492D01*
X33678381Y-45309929D01*
X33705580Y-45374287D01*
X33693667Y-45443134D01*
X33646424Y-45494610D01*
X33638685Y-45498908D01*
X33507004Y-45566004D01*
X33360505Y-45672441D01*
X33360500Y-45672445D01*
X33232445Y-45800500D01*
X33232441Y-45800505D01*
X33126006Y-45947002D01*
X33043788Y-46108360D01*
X33043787Y-46108363D01*
X32987829Y-46280589D01*
X32959500Y-46459448D01*
X32959500Y-46640551D01*
X32987829Y-46819410D01*
X33043787Y-46991636D01*
X33043788Y-46991639D01*
X33126006Y-47152997D01*
X33232441Y-47299494D01*
X33232445Y-47299499D01*
X33360500Y-47427554D01*
X33360505Y-47427558D01*
X33466163Y-47504322D01*
X33507006Y-47533996D01*
X33612484Y-47587740D01*
X33668360Y-47616211D01*
X33668363Y-47616212D01*
X33716392Y-47631817D01*
X33840591Y-47672171D01*
X33923429Y-47685291D01*
X34019449Y-47700500D01*
X34019454Y-47700500D01*
X34200551Y-47700500D01*
X34287259Y-47686765D01*
X34379409Y-47672171D01*
X34551639Y-47616211D01*
X34712994Y-47533996D01*
X34859501Y-47427553D01*
X34987553Y-47299501D01*
X35093996Y-47152994D01*
X35176211Y-46991639D01*
X35232171Y-46819409D01*
X35248475Y-46716469D01*
X35257527Y-46659321D01*
X35287456Y-46596186D01*
X35346768Y-46559255D01*
X35416630Y-46560253D01*
X35474863Y-46598863D01*
X35502473Y-46659321D01*
X35527829Y-46819410D01*
X35583787Y-46991636D01*
X35583788Y-46991639D01*
X35666006Y-47152997D01*
X35772441Y-47299494D01*
X35772445Y-47299499D01*
X35900500Y-47427554D01*
X35900505Y-47427558D01*
X36006163Y-47504322D01*
X36047006Y-47533996D01*
X36152484Y-47587740D01*
X36208360Y-47616211D01*
X36208363Y-47616212D01*
X36256392Y-47631817D01*
X36380591Y-47672171D01*
X36463429Y-47685291D01*
X36559449Y-47700500D01*
X36559454Y-47700500D01*
X36740551Y-47700500D01*
X36827259Y-47686765D01*
X36919409Y-47672171D01*
X37091639Y-47616211D01*
X37252994Y-47533996D01*
X37399501Y-47427553D01*
X37527553Y-47299501D01*
X37633996Y-47152994D01*
X37716211Y-46991639D01*
X37772171Y-46819409D01*
X37788475Y-46716469D01*
X37800500Y-46640551D01*
X37800500Y-46459448D01*
X37782576Y-46346286D01*
X37772171Y-46280591D01*
X37741700Y-46186808D01*
X37716212Y-46108363D01*
X37716211Y-46108360D01*
X37655084Y-45988394D01*
X37633996Y-45947006D01*
X37576265Y-45867545D01*
X37527558Y-45800505D01*
X37527554Y-45800500D01*
X37399499Y-45672445D01*
X37399494Y-45672441D01*
X37252995Y-45566004D01*
X37121314Y-45498908D01*
X37070519Y-45450934D01*
X37053724Y-45383113D01*
X37076262Y-45316978D01*
X37130977Y-45273527D01*
X37139295Y-45270492D01*
X37168217Y-45261095D01*
X37357557Y-45164620D01*
X37529459Y-45039727D01*
X37529464Y-45039723D01*
X37679723Y-44889464D01*
X37679727Y-44889459D01*
X37804620Y-44717557D01*
X37901095Y-44528217D01*
X37966757Y-44326129D01*
X37966757Y-44326126D01*
X37977231Y-44260000D01*
X37083012Y-44260000D01*
X37115925Y-44202993D01*
X37150000Y-44075826D01*
X37150000Y-43944174D01*
X37115925Y-43817007D01*
X37083012Y-43760000D01*
X37977231Y-43760000D01*
X37966757Y-43693873D01*
X37966757Y-43693870D01*
X37901095Y-43491782D01*
X37804620Y-43302442D01*
X37679727Y-43130540D01*
X37679723Y-43130535D01*
X37529464Y-42980276D01*
X37529459Y-42980272D01*
X37357557Y-42855379D01*
X37168217Y-42758904D01*
X37139292Y-42749506D01*
X37081616Y-42710068D01*
X37054418Y-42645710D01*
X37066333Y-42576863D01*
X37113577Y-42525388D01*
X37121315Y-42521090D01*
X37252994Y-42453996D01*
X37399501Y-42347553D01*
X37527553Y-42219501D01*
X37633996Y-42072994D01*
X37716211Y-41911639D01*
X37772171Y-41739409D01*
X37787015Y-41645687D01*
X37800500Y-41560551D01*
X37800500Y-41384454D01*
X37820185Y-41317415D01*
X37872989Y-41271660D01*
X37942147Y-41261716D01*
X38005703Y-41290741D01*
X38012181Y-41296773D01*
X38101263Y-41385855D01*
X38101267Y-41385858D01*
X38203707Y-41454307D01*
X38203713Y-41454310D01*
X38203714Y-41454311D01*
X38317548Y-41501463D01*
X38438389Y-41525499D01*
X38438393Y-41525500D01*
X38438394Y-41525500D01*
X38561607Y-41525500D01*
X38561608Y-41525499D01*
X38682452Y-41501463D01*
X38796286Y-41454311D01*
X38898733Y-41385858D01*
X38985858Y-41298733D01*
X39054311Y-41196286D01*
X39101463Y-41082452D01*
X39125500Y-40961606D01*
X39125500Y-40838394D01*
X39101463Y-40717548D01*
X39054311Y-40603714D01*
X39054310Y-40603713D01*
X39054307Y-40603707D01*
X38985858Y-40501267D01*
X38985855Y-40501263D01*
X38961819Y-40477227D01*
X38947115Y-40450299D01*
X38930523Y-40424481D01*
X38929631Y-40418280D01*
X38928334Y-40415904D01*
X38925500Y-40389546D01*
X38925500Y-40275523D01*
X38945185Y-40208484D01*
X38997989Y-40162729D01*
X39067147Y-40152785D01*
X39130703Y-40181810D01*
X39152602Y-40206632D01*
X39214141Y-40298733D01*
X39301263Y-40385855D01*
X39301267Y-40385858D01*
X39403707Y-40454307D01*
X39403713Y-40454310D01*
X39403714Y-40454311D01*
X39517548Y-40501463D01*
X39638389Y-40525499D01*
X39638393Y-40525500D01*
X39638394Y-40525500D01*
X39761607Y-40525500D01*
X39761608Y-40525499D01*
X39882452Y-40501463D01*
X39996286Y-40454311D01*
X40098733Y-40385858D01*
X40185858Y-40298733D01*
X40254311Y-40196286D01*
X40301463Y-40082452D01*
X40325500Y-39961606D01*
X40325500Y-39838394D01*
X40321736Y-39819472D01*
X40323581Y-39763178D01*
X40325500Y-39756018D01*
X40325500Y-39138389D01*
X47074500Y-39138389D01*
X47074500Y-39261610D01*
X47098535Y-39382444D01*
X47098538Y-39382454D01*
X47145687Y-39496283D01*
X47145692Y-39496292D01*
X47214140Y-39598731D01*
X47214141Y-39598732D01*
X47214142Y-39598733D01*
X47238181Y-39622772D01*
X47271666Y-39684093D01*
X47274500Y-39710453D01*
X47274500Y-41689546D01*
X47254815Y-41756585D01*
X47238181Y-41777227D01*
X47214144Y-41801263D01*
X47214141Y-41801267D01*
X47145692Y-41903707D01*
X47145687Y-41903716D01*
X47098538Y-42017545D01*
X47098535Y-42017555D01*
X47074500Y-42138389D01*
X47074500Y-42261610D01*
X47098535Y-42382444D01*
X47098538Y-42382454D01*
X47145687Y-42496283D01*
X47145692Y-42496292D01*
X47214141Y-42598732D01*
X47214144Y-42598736D01*
X47301263Y-42685855D01*
X47301267Y-42685858D01*
X47403707Y-42754307D01*
X47403713Y-42754310D01*
X47403714Y-42754311D01*
X47517548Y-42801463D01*
X47586390Y-42815156D01*
X47638389Y-42825499D01*
X47638393Y-42825500D01*
X47638394Y-42825500D01*
X47761607Y-42825500D01*
X47761608Y-42825499D01*
X47882452Y-42801463D01*
X47996286Y-42754311D01*
X48098733Y-42685858D01*
X48185858Y-42598733D01*
X48254311Y-42496286D01*
X48301463Y-42382452D01*
X48325500Y-42261606D01*
X48325500Y-42138394D01*
X48301463Y-42017548D01*
X48257594Y-41911639D01*
X48254312Y-41903716D01*
X48254307Y-41903707D01*
X48185858Y-41801267D01*
X48185855Y-41801263D01*
X48161819Y-41777227D01*
X48128334Y-41715904D01*
X48125500Y-41689546D01*
X48125500Y-39710453D01*
X48145185Y-39643414D01*
X48161815Y-39622775D01*
X48185858Y-39598733D01*
X48254311Y-39496286D01*
X48301463Y-39382452D01*
X48325500Y-39261606D01*
X48325500Y-39138394D01*
X48301463Y-39017548D01*
X48258631Y-38914144D01*
X48254312Y-38903716D01*
X48254307Y-38903707D01*
X48185858Y-38801267D01*
X48185855Y-38801263D01*
X48098736Y-38714144D01*
X48098732Y-38714141D01*
X47996292Y-38645692D01*
X47996283Y-38645687D01*
X47882454Y-38598538D01*
X47882455Y-38598538D01*
X47882452Y-38598537D01*
X47882448Y-38598536D01*
X47882444Y-38598535D01*
X47761610Y-38574500D01*
X47761606Y-38574500D01*
X47638394Y-38574500D01*
X47638389Y-38574500D01*
X47517555Y-38598535D01*
X47517545Y-38598538D01*
X47403716Y-38645687D01*
X47403707Y-38645692D01*
X47301267Y-38714141D01*
X47301263Y-38714144D01*
X47214144Y-38801263D01*
X47214141Y-38801267D01*
X47145692Y-38903707D01*
X47145687Y-38903716D01*
X47098538Y-39017545D01*
X47098535Y-39017555D01*
X47074500Y-39138389D01*
X40325500Y-39138389D01*
X40325500Y-35010453D01*
X40345185Y-34943414D01*
X40361815Y-34922775D01*
X40385858Y-34898733D01*
X40454311Y-34796286D01*
X40501463Y-34682452D01*
X40525500Y-34561606D01*
X40525500Y-34438394D01*
X40501463Y-34317548D01*
X40458631Y-34214144D01*
X40454312Y-34203716D01*
X40454307Y-34203707D01*
X40385858Y-34101267D01*
X40385855Y-34101263D01*
X40298736Y-34014144D01*
X40298732Y-34014141D01*
X40196292Y-33945692D01*
X40196283Y-33945687D01*
X40082454Y-33898538D01*
X40082455Y-33898538D01*
X40082452Y-33898537D01*
X40082448Y-33898536D01*
X40082444Y-33898535D01*
X39961610Y-33874500D01*
X39961606Y-33874500D01*
X39838394Y-33874500D01*
X39838389Y-33874500D01*
X39717555Y-33898535D01*
X39717545Y-33898538D01*
X39603716Y-33945687D01*
X39603707Y-33945692D01*
X39501267Y-34014141D01*
X39501263Y-34014144D01*
X39414144Y-34101263D01*
X39414141Y-34101267D01*
X39345692Y-34203707D01*
X39345687Y-34203716D01*
X39298538Y-34317545D01*
X39298535Y-34317555D01*
X39274500Y-34438389D01*
X39274500Y-34561610D01*
X39294391Y-34661608D01*
X39298537Y-34682452D01*
X39304952Y-34697938D01*
X39345687Y-34796283D01*
X39345692Y-34796292D01*
X39414140Y-34898731D01*
X39414141Y-34898732D01*
X39414142Y-34898733D01*
X39438181Y-34922772D01*
X39471666Y-34984093D01*
X39474500Y-35010453D01*
X39474500Y-39233530D01*
X39454815Y-39300569D01*
X39408959Y-39342885D01*
X39403712Y-39345689D01*
X39301271Y-39414138D01*
X39301263Y-39414144D01*
X39214144Y-39501263D01*
X39214141Y-39501267D01*
X39152602Y-39593367D01*
X39098990Y-39638172D01*
X39029665Y-39646879D01*
X38966637Y-39616724D01*
X38929918Y-39557281D01*
X38925500Y-39524476D01*
X38925500Y-33234446D01*
X38945185Y-33167407D01*
X38997989Y-33121652D01*
X39025302Y-33112830D01*
X39082452Y-33101463D01*
X39196286Y-33054311D01*
X39298733Y-32985858D01*
X39385858Y-32898733D01*
X39454311Y-32796286D01*
X39501463Y-32682452D01*
X39525500Y-32561606D01*
X39525500Y-32438394D01*
X39501463Y-32317548D01*
X39454311Y-32203714D01*
X39454310Y-32203713D01*
X39454307Y-32203707D01*
X39385858Y-32101267D01*
X39385855Y-32101263D01*
X39298736Y-32014144D01*
X39298732Y-32014141D01*
X39196292Y-31945692D01*
X39196283Y-31945687D01*
X39082454Y-31898538D01*
X39082455Y-31898538D01*
X39082452Y-31898537D01*
X39082448Y-31898536D01*
X39082444Y-31898535D01*
X38961610Y-31874500D01*
X38961606Y-31874500D01*
X38838394Y-31874500D01*
X38838389Y-31874500D01*
X38717555Y-31898535D01*
X38717545Y-31898538D01*
X38603716Y-31945687D01*
X38603707Y-31945692D01*
X38501267Y-32014141D01*
X38501263Y-32014144D01*
X38414144Y-32101263D01*
X38414141Y-32101267D01*
X38345692Y-32203707D01*
X38345687Y-32203716D01*
X38298538Y-32317545D01*
X38298535Y-32317555D01*
X38274500Y-32438389D01*
X38274500Y-32472390D01*
X38254815Y-32539429D01*
X38238181Y-32560071D01*
X38159517Y-32638734D01*
X38159513Y-32638740D01*
X38103498Y-32735760D01*
X38103497Y-32735763D01*
X38074500Y-32843982D01*
X38074500Y-40389546D01*
X38054815Y-40456585D01*
X38038181Y-40477227D01*
X38014144Y-40501263D01*
X38014141Y-40501267D01*
X37945692Y-40603707D01*
X37945687Y-40603716D01*
X37898538Y-40717545D01*
X37898535Y-40717555D01*
X37873311Y-40844369D01*
X37871581Y-40844024D01*
X37848528Y-40901074D01*
X37791483Y-40941418D01*
X37721682Y-40944516D01*
X37661287Y-40909386D01*
X37640822Y-40880403D01*
X37633996Y-40867006D01*
X37633994Y-40867003D01*
X37633993Y-40867001D01*
X37527558Y-40720505D01*
X37527554Y-40720500D01*
X37399499Y-40592445D01*
X37399494Y-40592441D01*
X37252997Y-40486006D01*
X37252996Y-40486005D01*
X37252994Y-40486004D01*
X37195256Y-40456585D01*
X37091639Y-40403788D01*
X37091636Y-40403787D01*
X36919410Y-40347829D01*
X36759321Y-40322473D01*
X36696186Y-40292544D01*
X36659255Y-40233232D01*
X36660253Y-40163370D01*
X36698863Y-40105137D01*
X36759321Y-40077527D01*
X36829425Y-40066422D01*
X36919409Y-40052171D01*
X37091639Y-39996211D01*
X37252994Y-39913996D01*
X37399501Y-39807553D01*
X37527553Y-39679501D01*
X37633996Y-39532994D01*
X37716211Y-39371639D01*
X37772171Y-39199409D01*
X37787329Y-39103707D01*
X37800500Y-39020551D01*
X37800500Y-38839448D01*
X37780653Y-38714144D01*
X37772171Y-38660591D01*
X37728278Y-38525499D01*
X37716212Y-38488363D01*
X37716211Y-38488360D01*
X37687740Y-38432484D01*
X37633996Y-38327006D01*
X37613454Y-38298732D01*
X37527558Y-38180505D01*
X37527554Y-38180500D01*
X37399499Y-38052445D01*
X37399494Y-38052441D01*
X37252997Y-37946006D01*
X37252996Y-37946005D01*
X37252994Y-37946004D01*
X37201300Y-37919664D01*
X37091639Y-37863788D01*
X37091636Y-37863787D01*
X36919410Y-37807829D01*
X36759321Y-37782473D01*
X36696186Y-37752544D01*
X36659255Y-37693232D01*
X36660253Y-37623370D01*
X36698863Y-37565137D01*
X36759321Y-37537527D01*
X36829425Y-37526422D01*
X36919409Y-37512171D01*
X37091639Y-37456211D01*
X37252994Y-37373996D01*
X37399501Y-37267553D01*
X37527553Y-37139501D01*
X37633996Y-36992994D01*
X37716211Y-36831639D01*
X37772171Y-36659409D01*
X37786765Y-36567259D01*
X37800500Y-36480551D01*
X37800500Y-36299448D01*
X37784019Y-36195397D01*
X37772171Y-36120591D01*
X37716211Y-35948361D01*
X37716211Y-35948360D01*
X37687740Y-35892484D01*
X37633996Y-35787006D01*
X37620396Y-35768287D01*
X37527558Y-35640505D01*
X37527554Y-35640500D01*
X37399499Y-35512445D01*
X37399494Y-35512441D01*
X37252997Y-35406006D01*
X37252996Y-35406005D01*
X37252994Y-35406004D01*
X37201300Y-35379664D01*
X37091639Y-35323788D01*
X37091636Y-35323787D01*
X36919410Y-35267829D01*
X36787728Y-35246972D01*
X36724594Y-35217042D01*
X36687663Y-35157731D01*
X36688661Y-35087868D01*
X36727271Y-35029636D01*
X36791235Y-35001522D01*
X36807120Y-35000499D01*
X37544864Y-35000499D01*
X37544879Y-35000497D01*
X37544882Y-35000497D01*
X37569987Y-34997586D01*
X37569988Y-34997585D01*
X37569991Y-34997585D01*
X37672765Y-34952206D01*
X37752206Y-34872765D01*
X37797585Y-34769991D01*
X37800500Y-34744865D01*
X37800499Y-32955136D01*
X37800497Y-32955117D01*
X37797586Y-32930012D01*
X37797585Y-32930010D01*
X37797585Y-32930009D01*
X37752206Y-32827235D01*
X37672765Y-32747794D01*
X37672763Y-32747793D01*
X37569992Y-32702415D01*
X37544865Y-32699500D01*
X35755143Y-32699500D01*
X35755117Y-32699502D01*
X35730012Y-32702413D01*
X35730008Y-32702415D01*
X35627235Y-32747793D01*
X35547794Y-32827234D01*
X35502415Y-32930006D01*
X35502415Y-32930008D01*
X35499500Y-32955131D01*
X35499500Y-33692871D01*
X35479815Y-33759910D01*
X35427011Y-33805665D01*
X35357853Y-33815609D01*
X35294297Y-33786584D01*
X35256523Y-33727806D01*
X35253027Y-33712269D01*
X35246107Y-33668585D01*
X35232171Y-33580591D01*
X35176211Y-33408361D01*
X35176211Y-33408360D01*
X35147740Y-33352484D01*
X35093996Y-33247006D01*
X35080396Y-33228287D01*
X34987558Y-33100505D01*
X34987554Y-33100500D01*
X34859499Y-32972445D01*
X34859494Y-32972441D01*
X34712997Y-32866006D01*
X34712996Y-32866005D01*
X34712994Y-32866004D01*
X34636906Y-32827235D01*
X34551639Y-32783788D01*
X34551636Y-32783787D01*
X34379410Y-32727829D01*
X34200551Y-32699500D01*
X34200546Y-32699500D01*
X34019454Y-32699500D01*
X34019449Y-32699500D01*
X33840589Y-32727829D01*
X33668363Y-32783787D01*
X33668360Y-32783788D01*
X33507002Y-32866006D01*
X33360505Y-32972441D01*
X33360500Y-32972445D01*
X33232445Y-33100500D01*
X33232441Y-33100505D01*
X33126006Y-33247002D01*
X33043788Y-33408360D01*
X33043787Y-33408363D01*
X32987829Y-33580589D01*
X32959500Y-33759448D01*
X32959500Y-33940551D01*
X32987829Y-34119410D01*
X33043787Y-34291636D01*
X33043788Y-34291639D01*
X33078661Y-34360079D01*
X33118564Y-34438393D01*
X33126006Y-34452997D01*
X33232441Y-34599494D01*
X33232445Y-34599499D01*
X33360500Y-34727554D01*
X33360505Y-34727558D01*
X33478222Y-34813083D01*
X33507006Y-34833996D01*
X33583094Y-34872765D01*
X33668360Y-34916211D01*
X33668363Y-34916212D01*
X33745440Y-34941255D01*
X33840591Y-34972171D01*
X33910150Y-34983188D01*
X34000678Y-34997527D01*
X34063813Y-35027456D01*
X34100744Y-35086768D01*
X34099746Y-35156631D01*
X34061136Y-35214863D01*
X34000678Y-35242473D01*
X33840589Y-35267829D01*
X33668363Y-35323787D01*
X33668360Y-35323788D01*
X33507002Y-35406006D01*
X33360505Y-35512441D01*
X33360500Y-35512445D01*
X33232445Y-35640500D01*
X33232441Y-35640505D01*
X33126006Y-35787002D01*
X33043788Y-35948360D01*
X33043787Y-35948363D01*
X32987829Y-36120589D01*
X32959500Y-36299448D01*
X32959500Y-36480551D01*
X32987829Y-36659410D01*
X33043787Y-36831636D01*
X33043788Y-36831639D01*
X33126006Y-36992997D01*
X33232441Y-37139494D01*
X33232445Y-37139499D01*
X33360500Y-37267554D01*
X33360505Y-37267558D01*
X33488287Y-37360396D01*
X33507006Y-37373996D01*
X33589255Y-37415904D01*
X33668360Y-37456211D01*
X33668363Y-37456212D01*
X33754476Y-37484191D01*
X33840591Y-37512171D01*
X33913639Y-37523740D01*
X34000678Y-37537527D01*
X34063813Y-37567456D01*
X34100744Y-37626768D01*
X34099746Y-37696631D01*
X34061136Y-37754863D01*
X34000678Y-37782473D01*
X33840589Y-37807829D01*
X33668363Y-37863787D01*
X33668360Y-37863788D01*
X33507002Y-37946006D01*
X33360505Y-38052441D01*
X33360500Y-38052445D01*
X33232445Y-38180500D01*
X33232441Y-38180505D01*
X33126006Y-38327002D01*
X33043788Y-38488360D01*
X33043787Y-38488363D01*
X32987829Y-38660589D01*
X32959500Y-38839448D01*
X32959500Y-39020551D01*
X32987829Y-39199410D01*
X33043787Y-39371636D01*
X33043788Y-39371639D01*
X33126006Y-39532997D01*
X33232441Y-39679494D01*
X33232445Y-39679499D01*
X33360500Y-39807554D01*
X33360505Y-39807558D01*
X33431435Y-39859091D01*
X33507006Y-39913996D01*
X33600447Y-39961607D01*
X33668360Y-39996211D01*
X33668363Y-39996212D01*
X33754476Y-40024191D01*
X33840591Y-40052171D01*
X33913639Y-40063740D01*
X34000678Y-40077527D01*
X34063813Y-40107456D01*
X34100744Y-40166768D01*
X34099746Y-40236631D01*
X34061136Y-40294863D01*
X34000678Y-40322473D01*
X33840589Y-40347829D01*
X33668363Y-40403787D01*
X33668360Y-40403788D01*
X33507002Y-40486006D01*
X33360505Y-40592441D01*
X33360500Y-40592445D01*
X33232445Y-40720500D01*
X33232441Y-40720505D01*
X33126006Y-40867002D01*
X33043788Y-41028360D01*
X33043787Y-41028363D01*
X32987829Y-41200589D01*
X32959500Y-41379448D01*
X32959500Y-41560551D01*
X32987829Y-41739410D01*
X33043787Y-41911636D01*
X33043788Y-41911639D01*
X33097751Y-42017545D01*
X33124823Y-42070677D01*
X33126006Y-42072997D01*
X33232441Y-42219494D01*
X33232445Y-42219499D01*
X33360500Y-42347554D01*
X33360505Y-42347558D01*
X33408536Y-42382454D01*
X33507006Y-42453996D01*
X33590016Y-42496292D01*
X33638684Y-42521090D01*
X33689480Y-42569065D01*
X33706275Y-42636886D01*
X33683737Y-42703021D01*
X33629022Y-42746472D01*
X33620708Y-42749506D01*
X33591781Y-42758905D01*
X33402442Y-42855379D01*
X33230540Y-42980272D01*
X33230535Y-42980276D01*
X33080276Y-43130535D01*
X33080272Y-43130540D01*
X32955379Y-43302442D01*
X32858904Y-43491782D01*
X32793242Y-43693870D01*
X32793242Y-43693873D01*
X32782769Y-43760000D01*
X30500500Y-43760000D01*
X30500500Y-31006959D01*
X30501280Y-30993077D01*
X30501320Y-30992717D01*
X30511459Y-30902727D01*
X30517635Y-30875668D01*
X30545353Y-30796457D01*
X30557393Y-30771453D01*
X30602046Y-30700389D01*
X30619351Y-30678690D01*
X30678690Y-30619351D01*
X30700389Y-30602046D01*
X30771453Y-30557393D01*
X30796457Y-30545353D01*
X30875668Y-30517635D01*
X30902729Y-30511459D01*
X30978753Y-30502893D01*
X30993078Y-30501280D01*
X31006960Y-30500500D01*
X31065892Y-30500500D01*
X45475698Y-30500500D01*
X45495911Y-30506435D01*
G37*
G04 #@! TD.AperFunction*
M02*
