M48
; DRILL file {KiCad 9.0.9-9.0.9~ubuntu24.04.1} date 2026-07-09T13:34:27-0400
; FORMAT={-:-/ absolute / metric / decimal}
; #@! TF.CreationDate,2026-07-09T13:34:27-04:00
; #@! TF.GenerationSoftware,Kicad,Pcbnew,9.0.9-9.0.9~ubuntu24.04.1
; #@! TF.FileFunction,MixedPlating,1,2
FMAT,2
METRIC
; #@! TA.AperFunction,Plated,PTH,ViaDrill
T1C0.300
; #@! TA.AperFunction,Plated,PTH,ViaDrill
T2C0.400
; #@! TA.AperFunction,Plated,PTH,ComponentDrill
T3C0.400
; #@! TA.AperFunction,Plated,PTH,ComponentDrill
T4C1.000
%
G90
G05
T1
X38.5Y-40.9
X38.9Y-32.5
X39.7Y-39.9
X39.9Y-34.5
X46.1Y-34.35
X46.2Y-30.825
X47.7Y-39.2
X47.7Y-42.2
X49.4Y-34.6
X49.4Y-36.1
X50.8Y-34.6
X52.3Y-42.2
X52.343Y-34.543
X52.4Y-37.1
X52.7Y-39.4
X53.814Y-34.614
X54.0Y-37.9
X59.2Y-34.7
X59.3Y-42.2
X60.7Y-39.4
X60.8Y-42.2
X62.6Y-46.05
X62.7Y-49.2
X63.175Y-47.4
T2
X41.6Y-44.7
X43.1Y-45.2
X45.65Y-46.4
X47.5Y-49.4
X49.9Y-47.5
X50.9Y-42.275
X53.5Y-47.3
X55.9Y-48.3
X59.0Y-47.3
X61.3Y-48.25
T3
X31.1Y-31.0
X31.1Y-35.1
X31.1Y-40.4
X31.1Y-45.3
X31.1Y-49.3
X38.7Y-31.0
X38.7Y-49.3
X41.0Y-38.2
X44.6Y-31.0
X46.3Y-39.2
X46.3Y-49.3
X48.6Y-36.9
X48.6Y-47.2
X52.9Y-38.2
X53.8Y-40.3
X56.4Y-31.0
X58.1Y-42.0
X58.3Y-49.3
X62.1Y-42.0
X62.9Y-31.0
X63.05Y-38.2
T4
X34.11Y-33.85
X34.11Y-36.39
X34.11Y-38.93
X34.11Y-41.47
X34.11Y-44.01
X34.11Y-46.55
X36.65Y-33.85
X36.65Y-36.39
X36.65Y-38.93
X36.65Y-41.47
X36.65Y-44.01
X36.65Y-46.55
M30
