G04 #@! TF.GenerationSoftware,KiCad,Pcbnew,9.0.9-9.0.9~ubuntu24.04.1*
G04 #@! TF.CreationDate,2026-07-09T13:34:27-04:00*
G04 #@! TF.ProjectId,icebreaker-pmod-7segment,69636562-7265-4616-9b65-722d706d6f64,2.0*
G04 #@! TF.SameCoordinates,Original*
G04 #@! TF.FileFunction,Soldermask,Top*
G04 #@! TF.FilePolarity,Negative*
%FSLAX46Y46*%
G04 Gerber Fmt 4.6, Leading zero omitted, Abs format (unit mm)*
G04 Created by KiCad (PCBNEW 9.0.9-9.0.9~ubuntu24.04.1) date 2026-07-09 13:34:27*
%MOMM*%
%LPD*%
G01*
G04 APERTURE LIST*
G04 Aperture macros list*
%AMRoundRect*
0 Rectangle with rounded corners*
0 $1 Rounding radius*
0 $2 $3 $4 $5 $6 $7 $8 $9 X,Y pos of 4 corners*
0 Add a 4 corners polygon primitive as box body*
4,1,4,$2,$3,$4,$5,$6,$7,$8,$9,$2,$3,0*
0 Add four circle primitives for the rounded corners*
1,1,$1+$1,$2,$3*
1,1,$1+$1,$4,$5*
1,1,$1+$1,$6,$7*
1,1,$1+$1,$8,$9*
0 Add four rect primitives between the rounded corners*
20,1,$1+$1,$2,$3,$4,$5,0*
20,1,$1+$1,$4,$5,$6,$7,0*
20,1,$1+$1,$6,$7,$8,$9,0*
20,1,$1+$1,$8,$9,$2,$3,0*%
G04 Aperture macros list end*
%ADD10RoundRect,0.225000X0.250000X-0.225000X0.250000X0.225000X-0.250000X0.225000X-0.250000X-0.225000X0*%
%ADD11RoundRect,0.140000X0.170000X-0.140000X0.170000X0.140000X-0.170000X0.140000X-0.170000X-0.140000X0*%
%ADD12RoundRect,0.150000X0.587500X0.150000X-0.587500X0.150000X-0.587500X-0.150000X0.587500X-0.150000X0*%
%ADD13R,0.800000X0.500000*%
%ADD14R,0.800000X0.400000*%
%ADD15RoundRect,0.200000X0.300000X-0.950000X0.300000X0.950000X-0.300000X0.950000X-0.300000X-0.950000X0*%
%ADD16R,1.000000X2.300000*%
%ADD17RoundRect,0.135000X-0.135000X-0.185000X0.135000X-0.185000X0.135000X0.185000X-0.135000X0.185000X0*%
%ADD18R,1.700000X1.700000*%
%ADD19O,1.700000X1.700000*%
%ADD20C,1.700000*%
%ADD21RoundRect,0.135000X-0.185000X0.135000X-0.185000X-0.135000X0.185000X-0.135000X0.185000X0.135000X0*%
G04 APERTURE END LIST*
D10*
X41600000Y-47475000D03*
X41600000Y-45925000D03*
D11*
X43100000Y-47280000D03*
X43100000Y-46320000D03*
D12*
X51751078Y-49250000D03*
X51751078Y-47350000D03*
X49876078Y-48300000D03*
D13*
X40900000Y-40100000D03*
D14*
X40900000Y-40900000D03*
X40900000Y-41700000D03*
D13*
X40900000Y-42500000D03*
X42700000Y-42500000D03*
D14*
X42700000Y-41700000D03*
X42700000Y-40900000D03*
D13*
X42700000Y-40100000D03*
D15*
X47813578Y-43950000D03*
D16*
X49313578Y-43950000D03*
X50813578Y-43950000D03*
X52313578Y-43950000D03*
X53813578Y-43950000D03*
X53813578Y-33050000D03*
X52313578Y-33050000D03*
X50813578Y-33050000D03*
X49313578Y-33050000D03*
X47813578Y-33050000D03*
D12*
X61351078Y-49250000D03*
X61351078Y-47350000D03*
X59476078Y-48300000D03*
D17*
X47203578Y-48300000D03*
X48223578Y-48300000D03*
D18*
X36650000Y-33850000D03*
D19*
X36650000Y-36390000D03*
X36650000Y-38930000D03*
X36650000Y-41470000D03*
X36650000Y-44010000D03*
D20*
X36650000Y-46550000D03*
D19*
X34110000Y-33850000D03*
X34110000Y-36390000D03*
X34110000Y-38930000D03*
X34110000Y-41470000D03*
X34110000Y-44010000D03*
X34110000Y-46550000D03*
D17*
X56803578Y-48300000D03*
X57823578Y-48300000D03*
D15*
X56200000Y-43950000D03*
D16*
X57700000Y-43950000D03*
X59200000Y-43950000D03*
X60700000Y-43950000D03*
X62200000Y-43950000D03*
X62200000Y-33050000D03*
X60700000Y-33050000D03*
X59200000Y-33050000D03*
X57700000Y-33050000D03*
X56200000Y-33050000D03*
D21*
X44400000Y-45390000D03*
X44400000Y-46410000D03*
D13*
X40900000Y-33600000D03*
D14*
X40900000Y-34400000D03*
X40900000Y-35200000D03*
D13*
X40900000Y-36000000D03*
X42700000Y-36000000D03*
D14*
X42700000Y-35200000D03*
X42700000Y-34400000D03*
D13*
X42700000Y-33600000D03*
M02*
