G04 #@! TF.GenerationSoftware,KiCad,Pcbnew,10.0.5-10.0.5~ubuntu24.04.1*
G04 #@! TF.CreationDate,2026-08-19T12:02:01-04:00*
G04 #@! TF.ProjectId,breakout-ihp-qfn,62726561-6b6f-4757-942d-6968702d7166,1.2*
G04 #@! TF.SameCoordinates,PX6bc3e40PY5e69ec0*
G04 #@! TF.FileFunction,Copper,L4,Bot*
G04 #@! TF.FilePolarity,Positive*
%FSLAX46Y46*%
G04 Gerber Fmt 4.6, Leading zero omitted, Abs format (unit mm)*
G04 Created by KiCad (PCBNEW 10.0.5-10.0.5~ubuntu24.04.1) date 2026-08-19 12:02:01*
%MOMM*%
%LPD*%
G01*
G04 APERTURE LIST*
G04 #@! TA.AperFunction,ComponentPad*
%ADD10C,0.620000*%
G04 #@! TD*
G04 #@! TA.AperFunction,ComponentPad*
%ADD11C,0.820000*%
G04 #@! TD*
G04 #@! TA.AperFunction,ComponentPad*
%ADD12R,1.700000X1.700000*%
G04 #@! TD*
G04 #@! TA.AperFunction,ComponentPad*
%ADD13C,1.700000*%
G04 #@! TD*
G04 #@! TA.AperFunction,SMDPad,CuDef*
%ADD14R,1.600000X0.300000*%
G04 #@! TD*
G04 #@! TA.AperFunction,SMDPad,CuDef*
%ADD15R,1.800000X0.800000*%
G04 #@! TD*
G04 #@! TA.AperFunction,ViaPad*
%ADD16C,0.800000*%
G04 #@! TD*
G04 #@! TA.AperFunction,ViaPad*
%ADD17C,0.600000*%
G04 #@! TD*
G04 #@! TA.AperFunction,ViaPad*
%ADD18C,0.500000*%
G04 #@! TD*
G04 #@! TA.AperFunction,ViaPad*
%ADD19C,0.650000*%
G04 #@! TD*
G04 #@! TA.AperFunction,Conductor*
%ADD20C,0.400000*%
G04 #@! TD*
G04 #@! TA.AperFunction,Conductor*
%ADD21C,0.160000*%
G04 #@! TD*
G04 #@! TA.AperFunction,Conductor*
%ADD22C,0.200000*%
G04 #@! TD*
G04 #@! TA.AperFunction,Conductor*
%ADD23C,0.180000*%
G04 #@! TD*
G04 #@! TA.AperFunction,Conductor*
%ADD24C,0.450000*%
G04 #@! TD*
G04 #@! TA.AperFunction,Conductor*
%ADD25C,0.300000*%
G04 #@! TD*
G04 #@! TA.AperFunction,Conductor*
%ADD26C,0.350000*%
G04 #@! TD*
G04 #@! TA.AperFunction,Conductor*
%ADD27C,0.250000*%
G04 #@! TD*
G04 #@! TA.AperFunction,Conductor*
%ADD28C,0.220000*%
G04 #@! TD*
G04 APERTURE END LIST*
D10*
X138000000Y-74000000D03*
X144900000Y-76500000D03*
D11*
X124900000Y-98000000D03*
X152900000Y-98000000D03*
X160200000Y-73300000D03*
D10*
X141300000Y-75400000D03*
D11*
X136900000Y-98000000D03*
X145900000Y-81400000D03*
X153700000Y-60000000D03*
X116100000Y-53200000D03*
D10*
X156400000Y-56200000D03*
D11*
X114000000Y-55400000D03*
X141800000Y-65600000D03*
X140900000Y-98000000D03*
X114100000Y-82100000D03*
D10*
X158200000Y-59000000D03*
D11*
X135600000Y-58000000D03*
D12*
X153200000Y-52700000D03*
D13*
X150660000Y-52700000D03*
X148120000Y-52700000D03*
X145580000Y-52700000D03*
X143040000Y-52700000D03*
X140500000Y-52700000D03*
X137960000Y-52700000D03*
X135420000Y-52700000D03*
X132880000Y-52700000D03*
X130340000Y-52700000D03*
X127800000Y-52700000D03*
X125260000Y-52700000D03*
D11*
X115600000Y-80600000D03*
D10*
X148600000Y-56400000D03*
D11*
X134800000Y-93200000D03*
X114100000Y-90100000D03*
D10*
X141300000Y-72600000D03*
D11*
X144200000Y-93000000D03*
X161400000Y-97300000D03*
X150400000Y-85900000D03*
X144900000Y-98000000D03*
X153700000Y-69800000D03*
X148900000Y-98000000D03*
X160200000Y-93500000D03*
D10*
X145800000Y-79100000D03*
X138000000Y-71300000D03*
D11*
X120900000Y-98000000D03*
X114000000Y-60700000D03*
X160200000Y-65300000D03*
X131800000Y-58800000D03*
X141800000Y-61000000D03*
X114000000Y-50800000D03*
X114100000Y-86100000D03*
X132900000Y-98000000D03*
X158200000Y-76800000D03*
X150700000Y-55400000D03*
X156900000Y-98000000D03*
X160200000Y-77300000D03*
D10*
X145100000Y-68100000D03*
D11*
X150900000Y-69800000D03*
X141500000Y-58900000D03*
D10*
X145300000Y-90900000D03*
X156200000Y-49900000D03*
D11*
X162000000Y-86900000D03*
X120800000Y-62400000D03*
D10*
X134800000Y-72600000D03*
D11*
X129400000Y-56400000D03*
X141300000Y-86600000D03*
X144700000Y-57100000D03*
X114100000Y-94100000D03*
X147600000Y-84000000D03*
X116900000Y-98000000D03*
X118000000Y-60900000D03*
X122600000Y-80400000D03*
X128900000Y-98000000D03*
D10*
X134800000Y-75400000D03*
D11*
X150300000Y-92400000D03*
X144600000Y-63800000D03*
X150600000Y-62600000D03*
X162000000Y-82300000D03*
D10*
X138200000Y-77300000D03*
D11*
X160200000Y-69300000D03*
D14*
X117200000Y-63750000D03*
X120800000Y-63750000D03*
X117200000Y-64250000D03*
X120800000Y-64250000D03*
X117200000Y-64750000D03*
X120800000Y-64750000D03*
X117200000Y-65250000D03*
X120800000Y-65250000D03*
X117200000Y-65750000D03*
X120800000Y-65750000D03*
X117200000Y-66250000D03*
X120800000Y-66250000D03*
X117200000Y-66750000D03*
X120800000Y-66750000D03*
X117200000Y-67250000D03*
X120800000Y-67250000D03*
X117200000Y-67750000D03*
X120800000Y-67750000D03*
X117200000Y-68250000D03*
X120800000Y-68250000D03*
X117200000Y-68750000D03*
X120800000Y-68750000D03*
X117200000Y-69250000D03*
X120800000Y-69250000D03*
X117200000Y-69750000D03*
X120800000Y-69750000D03*
X117200000Y-70250000D03*
X120800000Y-70250000D03*
X117200000Y-70750000D03*
X120800000Y-70750000D03*
X117200000Y-71250000D03*
X120800000Y-71250000D03*
X117200000Y-71750000D03*
X120800000Y-71750000D03*
X117200000Y-72250000D03*
X120800000Y-72250000D03*
X117200000Y-72750000D03*
X120800000Y-72750000D03*
X117200000Y-73250000D03*
X120800000Y-73250000D03*
X117200000Y-73750000D03*
X120800000Y-73750000D03*
X117200000Y-74250000D03*
X120800000Y-74250000D03*
X117200000Y-74750000D03*
X120800000Y-74750000D03*
X117200000Y-75250000D03*
X120800000Y-75250000D03*
X117200000Y-75750000D03*
X120800000Y-75750000D03*
X117200000Y-76250000D03*
X120800000Y-76250000D03*
X117200000Y-76750000D03*
X120800000Y-76750000D03*
X117200000Y-77250000D03*
X120800000Y-77250000D03*
X117200000Y-77750000D03*
X120800000Y-77750000D03*
X117200000Y-78250000D03*
X120800000Y-78250000D03*
D15*
X119000000Y-62050000D03*
X119000000Y-79950000D03*
D14*
X155200000Y-80000000D03*
X158800000Y-80000000D03*
X155200000Y-80500000D03*
X158800000Y-80500000D03*
X155200000Y-81000000D03*
X158800000Y-81000000D03*
X155200000Y-81500000D03*
X158800000Y-81500000D03*
X155200000Y-82000000D03*
X158800000Y-82000000D03*
X155200000Y-82500000D03*
X158800000Y-82500000D03*
X155200000Y-83000000D03*
X158800000Y-83000000D03*
X155200000Y-83500000D03*
X158800000Y-83500000D03*
X155200000Y-84000000D03*
X158800000Y-84000000D03*
X155200000Y-84500000D03*
X158800000Y-84500000D03*
X155200000Y-85000000D03*
X158800000Y-85000000D03*
X155200000Y-85500000D03*
X158800000Y-85500000D03*
X155200000Y-86000000D03*
X158800000Y-86000000D03*
X155200000Y-86500000D03*
X158800000Y-86500000D03*
X155200000Y-87000000D03*
X158800000Y-87000000D03*
X155200000Y-87500000D03*
X158800000Y-87500000D03*
X155200000Y-88000000D03*
X158800000Y-88000000D03*
X155200000Y-88500000D03*
X158800000Y-88500000D03*
X155200000Y-89000000D03*
X158800000Y-89000000D03*
X155200000Y-89500000D03*
X158800000Y-89500000D03*
X155200000Y-90000000D03*
X158800000Y-90000000D03*
X155200000Y-90500000D03*
X158800000Y-90500000D03*
X155200000Y-91000000D03*
X158800000Y-91000000D03*
X155200000Y-91500000D03*
X158800000Y-91500000D03*
X155200000Y-92000000D03*
X158800000Y-92000000D03*
D15*
X157000000Y-78300000D03*
X157000000Y-93700000D03*
D16*
X157400000Y-51622457D03*
D17*
X115393800Y-77590818D03*
X128900000Y-75300000D03*
D16*
X122700000Y-51150000D03*
D17*
X160100000Y-82700000D03*
X121900000Y-58200000D03*
X138500000Y-63400000D03*
X135400000Y-66400000D03*
X135740581Y-70700000D03*
D18*
X123068247Y-75160000D03*
D17*
X138186386Y-81542158D03*
D18*
X123374773Y-72883294D03*
X122456126Y-72104883D03*
D17*
X121028552Y-56126142D03*
X121000000Y-54200000D03*
X146700000Y-95300000D03*
X122900000Y-54200000D03*
X133500000Y-66500000D03*
X153075828Y-90914307D03*
X161749000Y-90300003D03*
D16*
X118151000Y-50873235D03*
D17*
X114600000Y-63700000D03*
D18*
X122040007Y-69271657D03*
D19*
X160000000Y-56600000D03*
D17*
X145000000Y-72150000D03*
X134800000Y-70700000D03*
X144976431Y-74015352D03*
X138600000Y-66100000D03*
X155200000Y-79000000D03*
X142800000Y-81100000D03*
D19*
X160000000Y-54500000D03*
D17*
X142800000Y-67300000D03*
X151600000Y-95600000D03*
X115025735Y-70125735D03*
X159900000Y-62500000D03*
X153800000Y-88100000D03*
X160100000Y-86500000D03*
D18*
X122300000Y-66200000D03*
D17*
X152835570Y-82350000D03*
X125200000Y-69452577D03*
X123750001Y-58349999D03*
X114400000Y-74088103D03*
X114541050Y-76354499D03*
X136550985Y-82398000D03*
X148100000Y-93300000D03*
D18*
X126500000Y-68200000D03*
D17*
X114313137Y-67908038D03*
D18*
X154400000Y-62500000D03*
D17*
X114749990Y-72048796D03*
D16*
X161325000Y-57600000D03*
D17*
X145000000Y-70150000D03*
D18*
X122158234Y-65078873D03*
D17*
X138249999Y-70450000D03*
D18*
X122343103Y-70805463D03*
D17*
X115100000Y-66100000D03*
X137800000Y-83180000D03*
D18*
X122100000Y-67270000D03*
D16*
X161142438Y-52057045D03*
D17*
X127700000Y-69500000D03*
X130000000Y-69300000D03*
X117200000Y-80800000D03*
D18*
X122855030Y-68202577D03*
X122030525Y-77215171D03*
D17*
X128500000Y-72800000D03*
X153848575Y-85548575D03*
X135200000Y-77300000D03*
X139745073Y-85689593D03*
X141300000Y-70700000D03*
X140200000Y-57100000D03*
D16*
X161100000Y-49922457D03*
D17*
X153849998Y-89600000D03*
X138000000Y-61740000D03*
X146700000Y-96800000D03*
X141300000Y-77300000D03*
X160100000Y-84500000D03*
X136400000Y-63800000D03*
X160100000Y-80775000D03*
D18*
X122100000Y-74200000D03*
D17*
X135000000Y-81500000D03*
X139500000Y-61000000D03*
D16*
X134306130Y-57256678D03*
D17*
X142800000Y-80200000D03*
D16*
X134499999Y-58100000D03*
D17*
X146700000Y-80300000D03*
D16*
X146700000Y-56300000D03*
X146700000Y-57200000D03*
X146600000Y-82500000D03*
X147900000Y-55600000D03*
X147000000Y-55200000D03*
D19*
X138800000Y-82800000D03*
D17*
X138840000Y-67626823D03*
X141100000Y-55200000D03*
D16*
X147600000Y-82500000D03*
D17*
X140200000Y-55200000D03*
D19*
X138800000Y-82150000D03*
D16*
X133500000Y-58900000D03*
D17*
X133593478Y-69040000D03*
X135300000Y-92200000D03*
X148300000Y-92250000D03*
X147500000Y-92250000D03*
D16*
X148700000Y-59200000D03*
X124700000Y-54500000D03*
D17*
X142400000Y-68500000D03*
D16*
X132720340Y-58274091D03*
X124700000Y-55400000D03*
D17*
X134600000Y-91900000D03*
D16*
X148650000Y-58150000D03*
D17*
X161425000Y-55400000D03*
X158300000Y-55300000D03*
X151600000Y-91600000D03*
X144050000Y-91300000D03*
X149525000Y-63600000D03*
X144575000Y-90200000D03*
X152800000Y-90100002D03*
X154500000Y-63600000D03*
X160900000Y-94207690D03*
X143600000Y-94200000D03*
X160534517Y-91091512D03*
X161000000Y-64500000D03*
X145600000Y-64500000D03*
X114700000Y-78700000D03*
D18*
X115663037Y-64344528D03*
D16*
X155149761Y-49951457D03*
X159200000Y-78900000D03*
X119500000Y-49900000D03*
X159200000Y-77900000D03*
X154000000Y-49951457D03*
X117500000Y-49900000D03*
D17*
X162200000Y-89479250D03*
X154700000Y-96400000D03*
X162200000Y-96300000D03*
X161600000Y-95700000D03*
X152800000Y-95800000D03*
X161550000Y-88023107D03*
X115800000Y-79500000D03*
D16*
X162100000Y-80100000D03*
X116000000Y-52000000D03*
X161942438Y-50824469D03*
X162100000Y-51700000D03*
X115100000Y-52000000D03*
X114750000Y-61800000D03*
X162100000Y-81100000D03*
X114756179Y-62762923D03*
D17*
X144300000Y-75300000D03*
X145677192Y-74496432D03*
X144297263Y-73406561D03*
X145800000Y-72800000D03*
X144300000Y-71700000D03*
X145800000Y-70800000D03*
X144428784Y-69520542D03*
X145926681Y-68846692D03*
X141200000Y-59900000D03*
X140300000Y-60500000D03*
X139900000Y-61700000D03*
X139340000Y-62600000D03*
X137600000Y-63758831D03*
X136800000Y-64500000D03*
X136300000Y-65800000D03*
X135944700Y-67446808D03*
D18*
X115100000Y-64840000D03*
X114500000Y-65500000D03*
X115700000Y-66600000D03*
X115099637Y-67037372D03*
X115103985Y-67787362D03*
X114300000Y-68700000D03*
X115300000Y-69400000D03*
X115737990Y-70854508D03*
X115257253Y-71430178D03*
X115124603Y-72751486D03*
X115788713Y-73100000D03*
X115150233Y-73527755D03*
X115783334Y-74843581D03*
X114900000Y-74800000D03*
X114800000Y-75500000D03*
X136029000Y-79700000D03*
D17*
X136285058Y-80965208D03*
X136819000Y-81626578D03*
X137634700Y-82346225D03*
X139000000Y-83600000D03*
X139800000Y-84200000D03*
X140340000Y-84800439D03*
X140900000Y-85600000D03*
D20*
X143040000Y-52700000D02*
X144320000Y-51420000D01*
X144320000Y-51420000D02*
X157197543Y-51420000D01*
X141762000Y-51422000D02*
X129078000Y-51422000D01*
X143040000Y-52700000D02*
X141762000Y-51422000D01*
X129078000Y-51422000D02*
X127800000Y-52700000D01*
X157197543Y-51420000D02*
X157400000Y-51622457D01*
D21*
X120800000Y-71250000D02*
X122049997Y-71250000D01*
D22*
X116202927Y-72100000D02*
X114801194Y-72100000D01*
X136550985Y-82453588D02*
X136550985Y-82398000D01*
X159875000Y-81000000D02*
X160100000Y-80775000D01*
X114313137Y-67908038D02*
X114105099Y-67700000D01*
D21*
X116332037Y-64250000D02*
X115782037Y-63700000D01*
D22*
X152977018Y-82350000D02*
X152835570Y-82350000D01*
D23*
X138600000Y-66400000D02*
X138600000Y-66100000D01*
D22*
X115200000Y-66100000D02*
X115100000Y-66100000D01*
X115350000Y-66050000D02*
X115300000Y-66000000D01*
D21*
X122049997Y-71250000D02*
X122299998Y-70999999D01*
X123374773Y-72883294D02*
X123483294Y-72883294D01*
X122299998Y-70999999D02*
X125400000Y-71000000D01*
D22*
X118277765Y-51000000D02*
X118151000Y-50873235D01*
X153000000Y-82327018D02*
X152977018Y-82350000D01*
D21*
X115782037Y-63700000D02*
X114600000Y-63700000D01*
D22*
X115025735Y-70125735D02*
X115000000Y-70100000D01*
X162200000Y-88500000D02*
X162200000Y-86800000D01*
X118077765Y-50800000D02*
X118151000Y-50873235D01*
X113600000Y-61100000D02*
X113600000Y-67700000D01*
X160300000Y-91900000D02*
X161700000Y-91900000D01*
X136404573Y-82600000D02*
X136550985Y-82453588D01*
X161700000Y-89000000D02*
X162200000Y-88500000D01*
X120750000Y-62650000D02*
X120800000Y-62700000D01*
X120800000Y-72250000D02*
X122403646Y-72250000D01*
D24*
X162275000Y-56925000D02*
X162275000Y-54125000D01*
D21*
X123058067Y-73200000D02*
X123374773Y-72883294D01*
D22*
X117200000Y-74250000D02*
X117150000Y-74200000D01*
D23*
X122204372Y-65250000D02*
X122204372Y-64995628D01*
X122307460Y-66250000D02*
X122450000Y-66250000D01*
D22*
X153200000Y-90898000D02*
X153092135Y-90898000D01*
D21*
X137960000Y-61700000D02*
X138000000Y-61740000D01*
D22*
X152985570Y-82500000D02*
X152835570Y-82350000D01*
X158800000Y-81000000D02*
X159875000Y-81000000D01*
D21*
X122080000Y-67250000D02*
X122100000Y-67270000D01*
D22*
X114801194Y-72100000D02*
X114749990Y-72048796D01*
X117200000Y-72250000D02*
X117131000Y-72181000D01*
X116200000Y-66250000D02*
X116000000Y-66050000D01*
X114100000Y-66800000D02*
X114100000Y-67694901D01*
D25*
X117200000Y-78250000D02*
X117200000Y-80600000D01*
D22*
X117200000Y-76250000D02*
X114645549Y-76250000D01*
X126500000Y-68200000D02*
X126452577Y-68200000D01*
D21*
X139734666Y-85700000D02*
X139745073Y-85689593D01*
D24*
X162275000Y-54125000D02*
X161142438Y-52992438D01*
D23*
X128500000Y-68500000D02*
X132100000Y-68500000D01*
D22*
X120800000Y-70750000D02*
X122287640Y-70750000D01*
X161900000Y-86500000D02*
X160100000Y-86500000D01*
X116283928Y-72181000D02*
X116202927Y-72100000D01*
X122700000Y-51150000D02*
X122550000Y-51000000D01*
X155200000Y-91000000D02*
X153161521Y-91000000D01*
X158800000Y-89000000D02*
X161700000Y-89000000D01*
X114100000Y-67694901D02*
X114313137Y-67908038D01*
X117200000Y-70250000D02*
X115850000Y-70250000D01*
D23*
X120800000Y-74250000D02*
X122050000Y-74250000D01*
D22*
X155200000Y-80000000D02*
X155200000Y-79200000D01*
X114806099Y-68401000D02*
X114313137Y-67908038D01*
X155200000Y-90000000D02*
X154249998Y-90000000D01*
X154249998Y-90000000D02*
X153849998Y-89600000D01*
X159900000Y-91500000D02*
X160300000Y-91900000D01*
X161700000Y-91900000D02*
X162000000Y-91600000D01*
X116000000Y-66050000D02*
X115350000Y-66050000D01*
X114645549Y-76250000D02*
X114541050Y-76354499D01*
X162000000Y-91600000D02*
X162000000Y-90551003D01*
X122550000Y-51000000D02*
X118277765Y-51000000D01*
X115734618Y-77250000D02*
X115393800Y-77590818D01*
D21*
X138400000Y-63300000D02*
X138500000Y-63400000D01*
X120800000Y-75250000D02*
X122978247Y-75250000D01*
D22*
X114511897Y-74200000D02*
X114400000Y-74088103D01*
X113600000Y-71200000D02*
X114448796Y-72048796D01*
X122018350Y-69250000D02*
X122040007Y-69271657D01*
X115850000Y-70250000D02*
X115725735Y-70125735D01*
D21*
X121698971Y-73200000D02*
X123058067Y-73200000D01*
D22*
X162000000Y-90551003D02*
X161749000Y-90300003D01*
X155200000Y-88000000D02*
X153900000Y-88000000D01*
D21*
X120800000Y-68250000D02*
X122750000Y-68250000D01*
D22*
X116036144Y-68401000D02*
X114806099Y-68401000D01*
X117150000Y-74200000D02*
X114511897Y-74200000D01*
D23*
X126000000Y-71000000D02*
X128500000Y-68500000D01*
D22*
X117131000Y-72181000D02*
X116283928Y-72181000D01*
D24*
X161600000Y-57600000D02*
X162275000Y-56925000D01*
D22*
X114000000Y-50800000D02*
X118077765Y-50800000D01*
X115100000Y-66100000D02*
X114800000Y-66100000D01*
X115725735Y-70125735D02*
X115025735Y-70125735D01*
X120800000Y-69250000D02*
X122018350Y-69250000D01*
X115300000Y-66000000D02*
X115200000Y-66100000D01*
X159900000Y-82500000D02*
X160100000Y-82700000D01*
X116187144Y-68250000D02*
X116036144Y-68401000D01*
D21*
X120800000Y-65250000D02*
X122204372Y-65250000D01*
D22*
X155200000Y-79200000D02*
X155200000Y-79000000D01*
X158800000Y-91500000D02*
X159900000Y-91500000D01*
X158800000Y-82500000D02*
X159900000Y-82500000D01*
X153848575Y-85251425D02*
X153848575Y-85548575D01*
X153092135Y-90898000D02*
X153075828Y-90914307D01*
X113601000Y-81601000D02*
X113601000Y-77294549D01*
D24*
X161142438Y-52992438D02*
X161142438Y-52057045D01*
D22*
X154100000Y-85000000D02*
X153848575Y-85251425D01*
X114105099Y-67700000D02*
X113600000Y-67700000D01*
D21*
X120800000Y-66250000D02*
X122307460Y-66250000D01*
D22*
X160100000Y-84500000D02*
X158800000Y-84500000D01*
X114448796Y-72048796D02*
X114749990Y-72048796D01*
X155200000Y-82500000D02*
X152985570Y-82500000D01*
X160100000Y-86500000D02*
X158800000Y-86500000D01*
X117200000Y-68250000D02*
X116187144Y-68250000D01*
X120800000Y-62700000D02*
X120800000Y-63750000D01*
X114100000Y-82100000D02*
X113601000Y-81601000D01*
X162200000Y-86800000D02*
X161900000Y-86500000D01*
D21*
X121648971Y-73250000D02*
X121698971Y-73200000D01*
D23*
X136600000Y-68400000D02*
X138600000Y-66400000D01*
D21*
X120800000Y-73250000D02*
X121648971Y-73250000D01*
D22*
X158800000Y-90500000D02*
X161549003Y-90500000D01*
D23*
X125400000Y-71000000D02*
X126000000Y-71000000D01*
D22*
X153900000Y-88000000D02*
X153800000Y-88100000D01*
D24*
X161325000Y-57600000D02*
X161600000Y-57600000D01*
D25*
X117200000Y-80600000D02*
X117200000Y-80800000D01*
D23*
X132200000Y-68400000D02*
X136600000Y-68400000D01*
D21*
X117200000Y-64250000D02*
X116332037Y-64250000D01*
D22*
X117200000Y-66250000D02*
X116200000Y-66250000D01*
X114800000Y-66100000D02*
X114100000Y-66800000D01*
X117200000Y-77250000D02*
X115734618Y-77250000D01*
X114000000Y-60700000D02*
X113600000Y-61100000D01*
D21*
X120800000Y-67250000D02*
X122080000Y-67250000D01*
D22*
X161549003Y-90500000D02*
X161749000Y-90300003D01*
D21*
X120800000Y-77250000D02*
X122000000Y-77250000D01*
X138400000Y-63200000D02*
X138400000Y-63300000D01*
X122978247Y-75250000D02*
X123068247Y-75160000D01*
D22*
X113600000Y-67700000D02*
X113600000Y-71200000D01*
X113601000Y-77294549D02*
X114541050Y-76354499D01*
D21*
X134900000Y-81400000D02*
X135000000Y-81500000D01*
D23*
X132100000Y-68500000D02*
X132200000Y-68400000D01*
D22*
X122299998Y-70762358D02*
X122299998Y-70999999D01*
D23*
X122050000Y-74250000D02*
X122100000Y-74200000D01*
D22*
X155200000Y-85000000D02*
X154100000Y-85000000D01*
X153161521Y-91000000D02*
X153075828Y-90914307D01*
X122287640Y-70750000D02*
X122299998Y-70762358D01*
D20*
X135564475Y-56200000D02*
X146600000Y-56200000D01*
X146700001Y-56300001D02*
X146700000Y-56300000D01*
X134499999Y-57264476D02*
X134499999Y-58100000D01*
X146600000Y-80200000D02*
X146700000Y-80300000D01*
X134499999Y-57264476D02*
X135564475Y-56200000D01*
X146700000Y-56300000D02*
X146700000Y-57200000D01*
X142800000Y-80200000D02*
X146600000Y-80200000D01*
X146600000Y-56200000D02*
X146700001Y-56300001D01*
D26*
X139038880Y-82561120D02*
X139038880Y-67825703D01*
D20*
X139100000Y-82500000D02*
X146600000Y-82500000D01*
X146600000Y-82500000D02*
X147600000Y-82500000D01*
D26*
X139038880Y-67825703D02*
X138840000Y-67626823D01*
D20*
X147500000Y-55200000D02*
X147900000Y-55600000D01*
X139100000Y-82500000D02*
X138800000Y-82800000D01*
X140200000Y-55200000D02*
X147500000Y-55200000D01*
X138800000Y-82800000D02*
X138800000Y-82150000D01*
X148650000Y-58150000D02*
X148650000Y-59150000D01*
X133346249Y-58900000D02*
X140000000Y-58900000D01*
D26*
X148650000Y-58150000D02*
X148500000Y-58000000D01*
D20*
X140900000Y-58000000D02*
X142400000Y-58000000D01*
D26*
X148650000Y-59150000D02*
X148700000Y-59200000D01*
D20*
X148500000Y-58000000D02*
X142400000Y-58000000D01*
X128800000Y-54500000D02*
X132574091Y-58274091D01*
X132720340Y-58274091D02*
X133346249Y-58900000D01*
X124700000Y-54500000D02*
X124700000Y-55400000D01*
X132574091Y-58274091D02*
X132720340Y-58274091D01*
X124700000Y-54500000D02*
X128800000Y-54500000D01*
X140000000Y-58900000D02*
X140900000Y-58000000D01*
D26*
X134600000Y-91900000D02*
X134900000Y-92200000D01*
X134900000Y-92200000D02*
X148250000Y-92200000D01*
X148250000Y-92200000D02*
X148300000Y-92250000D01*
D22*
X158300000Y-55300000D02*
X161400000Y-55300000D01*
X161400000Y-55300000D02*
X161425000Y-55325000D01*
X161425000Y-55325000D02*
X161425000Y-55400000D01*
D27*
X154000000Y-91600000D02*
X153300000Y-91600000D01*
D22*
X155200000Y-91500000D02*
X154100000Y-91500000D01*
D27*
X153300000Y-91600000D02*
X144350000Y-91600000D01*
D22*
X154100000Y-91500000D02*
X154000000Y-91600000D01*
D27*
X144350000Y-91600000D02*
X144050000Y-91300000D01*
D22*
X153229708Y-90100002D02*
X152800000Y-90100002D01*
X144599998Y-90100002D02*
X144575000Y-90125000D01*
X144575000Y-90125000D02*
X144575000Y-90200000D01*
D25*
X154500000Y-63600000D02*
X149525000Y-63600000D01*
D22*
X152800000Y-90100002D02*
X144599998Y-90100002D01*
X153629706Y-90500000D02*
X153229708Y-90100002D01*
X155200000Y-90500000D02*
X153629706Y-90500000D01*
X144000000Y-94600000D02*
X160507690Y-94600000D01*
X160443005Y-91000000D02*
X160534517Y-91091512D01*
X158800000Y-91000000D02*
X160443005Y-91000000D01*
D25*
X145600000Y-64500000D02*
X161000000Y-64500000D01*
D22*
X160507690Y-94600000D02*
X160900000Y-94207690D01*
X143600000Y-94200000D02*
X144000000Y-94600000D01*
X115315379Y-76750000D02*
X114700000Y-77365379D01*
X114700000Y-77365379D02*
X114700000Y-78700000D01*
X117200000Y-76750000D02*
X115315379Y-76750000D01*
X117200000Y-64750000D02*
X116068509Y-64750000D01*
X115607565Y-64400000D02*
X115663037Y-64344528D01*
X116068509Y-64750000D02*
X115663037Y-64344528D01*
D20*
X158800000Y-80000000D02*
X158800000Y-79300000D01*
X158800000Y-79300000D02*
X159200000Y-78900000D01*
D26*
X155149761Y-49951457D02*
X155098304Y-49900000D01*
D20*
X117600000Y-49800000D02*
X117500000Y-49900000D01*
X154998304Y-49800000D02*
X117600000Y-49800000D01*
X155098304Y-49900000D02*
X154998304Y-49800000D01*
D22*
X158800000Y-80500000D02*
X159450000Y-80500000D01*
D25*
X158800000Y-80500000D02*
X158800000Y-80000000D01*
D20*
X159200000Y-78900000D02*
X159200000Y-77900000D01*
D22*
X154800000Y-96300000D02*
X154700000Y-96400000D01*
X158800000Y-89500000D02*
X162179250Y-89500000D01*
X162200000Y-96300000D02*
X154800000Y-96300000D01*
X162179250Y-89500000D02*
X162200000Y-89479250D01*
X160241460Y-88058540D02*
X161514567Y-88058540D01*
X159800000Y-88500000D02*
X160241460Y-88058540D01*
X158800000Y-88500000D02*
X159800000Y-88500000D01*
X161600000Y-95700000D02*
X152900000Y-95700000D01*
X161514567Y-88058540D02*
X161550000Y-88023107D01*
X152900000Y-95700000D02*
X152800000Y-95800000D01*
D28*
X116168000Y-77750000D02*
X115800000Y-78118000D01*
X115800000Y-78118000D02*
X115800000Y-79500000D01*
X117200000Y-77750000D02*
X116168000Y-77750000D01*
D27*
X117200000Y-63750000D02*
X116550000Y-63750000D01*
D25*
X160100000Y-81500000D02*
X158800000Y-81500000D01*
D20*
X123200000Y-52000000D02*
X124427543Y-50772457D01*
D22*
X162050000Y-81050000D02*
X162100000Y-81100000D01*
D20*
X161890426Y-50772457D02*
X161942438Y-50824469D01*
D26*
X114750000Y-61800000D02*
X114750000Y-62756744D01*
D20*
X115100000Y-52000000D02*
X123200000Y-52000000D01*
X124427543Y-50772457D02*
X161890426Y-50772457D01*
D25*
X161942438Y-51542438D02*
X162100000Y-51700000D01*
D26*
X162100000Y-81100000D02*
X161700000Y-81500000D01*
D25*
X116000000Y-63200000D02*
X115193256Y-63200000D01*
X116550000Y-63750000D02*
X116000000Y-63200000D01*
X160100000Y-81500000D02*
X160100000Y-82000000D01*
X161942438Y-50824469D02*
X161942438Y-51542438D01*
D27*
X114750000Y-62756744D02*
X114756179Y-62762923D01*
D25*
X115193256Y-63200000D02*
X114756179Y-62762923D01*
X158800000Y-82000000D02*
X160100000Y-82000000D01*
D20*
X162100000Y-80100000D02*
X162100000Y-81100000D01*
D26*
X161700000Y-81500000D02*
X160100000Y-81500000D01*
D22*
X144900000Y-75300000D02*
X144300000Y-75300000D01*
X148000000Y-78400000D02*
X144900000Y-75300000D01*
X155200000Y-84500000D02*
X151000000Y-84500000D01*
X151000000Y-84500000D02*
X148000000Y-81500000D01*
X148000000Y-81500000D02*
X148000000Y-78400000D01*
X145677192Y-74877192D02*
X148700000Y-77900000D01*
X148700000Y-77900000D02*
X148700000Y-81200000D01*
X151500000Y-84000000D02*
X155200000Y-84000000D01*
X145677192Y-74496432D02*
X145677192Y-74877192D01*
X148700000Y-81200000D02*
X151500000Y-84000000D01*
X145506561Y-73406561D02*
X144297263Y-73406561D01*
X152000000Y-83500000D02*
X149400000Y-80900000D01*
X149400000Y-80900000D02*
X149400000Y-77300000D01*
X149400000Y-77300000D02*
X145506561Y-73406561D01*
X155200000Y-83500000D02*
X152000000Y-83500000D01*
X150100000Y-76900000D02*
X150100000Y-80605181D01*
X145800000Y-72800000D02*
X146000000Y-72800000D01*
X150100000Y-80605181D02*
X152494819Y-83000000D01*
X146000000Y-72800000D02*
X150100000Y-76900000D01*
X152494819Y-83000000D02*
X155200000Y-83000000D01*
X153350000Y-82000000D02*
X155200000Y-82000000D01*
X145700000Y-71500000D02*
X150800000Y-76600000D01*
X150800000Y-76600000D02*
X150800000Y-79450000D01*
X144300000Y-71700000D02*
X144500000Y-71500000D01*
X150800000Y-79450000D02*
X153350000Y-82000000D01*
X144500000Y-71500000D02*
X145700000Y-71500000D01*
X146200000Y-70800000D02*
X151500000Y-76100000D01*
X151500000Y-76100000D02*
X151500000Y-79315075D01*
X151500000Y-79315075D02*
X153684925Y-81500000D01*
X153684925Y-81500000D02*
X155200000Y-81500000D01*
X145800000Y-70800000D02*
X146200000Y-70800000D01*
X145920542Y-69520542D02*
X144428784Y-69520542D01*
X154100000Y-81000000D02*
X152200000Y-79100000D01*
X152200000Y-79100000D02*
X152200000Y-75800000D01*
X155200000Y-81000000D02*
X154100000Y-81000000D01*
X152200000Y-75800000D02*
X145920542Y-69520542D01*
X154300000Y-80500000D02*
X152800000Y-79000000D01*
X155200000Y-80500000D02*
X154300000Y-80500000D01*
X146446692Y-68846692D02*
X145926681Y-68846692D01*
X152800000Y-75200000D02*
X146446692Y-68846692D01*
X152800000Y-79000000D02*
X152800000Y-75200000D01*
X126120473Y-59800000D02*
X141100000Y-59800000D01*
X141100000Y-59800000D02*
X141200000Y-59900000D01*
X120800000Y-64250000D02*
X121670473Y-64250000D01*
X121670473Y-64250000D02*
X126120473Y-59800000D01*
D28*
X126100301Y-60400000D02*
X140200000Y-60400000D01*
X140200000Y-60400000D02*
X140300000Y-60500000D01*
X120800000Y-64750000D02*
X121750301Y-64750000D01*
X121750301Y-64750000D02*
X126100301Y-60400000D01*
X121774727Y-65750000D02*
X120799998Y-65750000D01*
X121891000Y-65633727D02*
X121774727Y-65750000D01*
X126920000Y-61080000D02*
X122366273Y-65633727D01*
X138893381Y-61700000D02*
X138273381Y-61080000D01*
X139900000Y-61700000D02*
X138893381Y-61700000D01*
D23*
X120800000Y-65750000D02*
X120799998Y-65750000D01*
D28*
X122366273Y-65633727D02*
X121891000Y-65633727D01*
X138273381Y-61080000D02*
X126920000Y-61080000D01*
D23*
X122550000Y-66750000D02*
X123000000Y-66300000D01*
D28*
X139140000Y-62400000D02*
X139340000Y-62600000D01*
X126900000Y-62400000D02*
X139140000Y-62400000D01*
D23*
X120800000Y-66750000D02*
X122550000Y-66750000D01*
D28*
X123000000Y-66300000D02*
X126900000Y-62400000D01*
X122500363Y-67791000D02*
X120840998Y-67791000D01*
X120840998Y-67791000D02*
X120799998Y-67750000D01*
X137600000Y-63758831D02*
X137021169Y-63180000D01*
D23*
X120800000Y-67750000D02*
X120850000Y-67800000D01*
D21*
X120850000Y-67800000D02*
X120800000Y-67750000D01*
D28*
X127111364Y-63180000D02*
X122500363Y-67791000D01*
D21*
X120800000Y-67750000D02*
X120799998Y-67750000D01*
D28*
X137021169Y-63180000D02*
X127111364Y-63180000D01*
X127332915Y-64500000D02*
X123082915Y-68750000D01*
X123082915Y-68750000D02*
X120799998Y-68750000D01*
D21*
X120799998Y-68750000D02*
X120800000Y-68750000D01*
D28*
X136800000Y-64500000D02*
X127332915Y-64500000D01*
D21*
X120850000Y-69800000D02*
X122299998Y-69800000D01*
X122299998Y-69800000D02*
X122349998Y-69750000D01*
D28*
X136300000Y-65800000D02*
X136200000Y-65700000D01*
X127500000Y-65700000D02*
X123450000Y-69750000D01*
X123450000Y-69750000D02*
X122349998Y-69750000D01*
D21*
X120800000Y-69750000D02*
X120850000Y-69800000D01*
D28*
X136200000Y-65700000D02*
X127500000Y-65700000D01*
D22*
X128100000Y-67400000D02*
X135897892Y-67400000D01*
X135897892Y-67400000D02*
X135944700Y-67446808D01*
D23*
X120800000Y-70250000D02*
X125250000Y-70250000D01*
D22*
X125250000Y-70250000D02*
X128100000Y-67400000D01*
X115747617Y-65100000D02*
X115360000Y-65100000D01*
X115897617Y-65250000D02*
X115747617Y-65100000D01*
X117200000Y-65250000D02*
X115897617Y-65250000D01*
X115360000Y-65100000D02*
X115100000Y-64840000D01*
X116221015Y-65650000D02*
X115731931Y-65650000D01*
X117200000Y-65750000D02*
X116321016Y-65750000D01*
X115731931Y-65650000D02*
X115581931Y-65500000D01*
X115581931Y-65500000D02*
X114500000Y-65500000D01*
X116321016Y-65750000D02*
X116221015Y-65650000D01*
X115806801Y-66650000D02*
X115756801Y-66600000D01*
X115906801Y-66750000D02*
X115806801Y-66650000D01*
X115756801Y-66600000D02*
X115700000Y-66600000D01*
X117200000Y-66750000D02*
X115906801Y-66750000D01*
X117200000Y-67250000D02*
X115312265Y-67250000D01*
X115312265Y-67250000D02*
X115099637Y-67037372D01*
X115141347Y-67750000D02*
X115103985Y-67787362D01*
X117200000Y-67750000D02*
X115141347Y-67750000D01*
X117200000Y-68750000D02*
X117139478Y-68810522D01*
X114300000Y-68800000D02*
X114300000Y-68700000D01*
X117139478Y-68810522D02*
X114310522Y-68810522D01*
X114310522Y-68810522D02*
X114300000Y-68800000D01*
X116250000Y-69250000D02*
X116100000Y-69400000D01*
X117200000Y-69250000D02*
X116250000Y-69250000D01*
X116100000Y-69400000D02*
X115300000Y-69400000D01*
X117200000Y-71250000D02*
X116133482Y-71250000D01*
X116133482Y-71250000D02*
X115737990Y-70854508D01*
X116418611Y-71750000D02*
X116368610Y-71700000D01*
X117200000Y-71750000D02*
X116418611Y-71750000D01*
X115527075Y-71700000D02*
X115257253Y-71430178D01*
X116368610Y-71700000D02*
X115527075Y-71700000D01*
X115151486Y-72751486D02*
X115124603Y-72751486D01*
X115200000Y-72800000D02*
X115151486Y-72751486D01*
X116037242Y-72500000D02*
X115376089Y-72500000D01*
X116287242Y-72750000D02*
X116037242Y-72500000D01*
X117200000Y-72750000D02*
X116287242Y-72750000D01*
X115376089Y-72500000D02*
X115124603Y-72751486D01*
X115938713Y-73250000D02*
X115788713Y-73100000D01*
X117200000Y-73250000D02*
X115938713Y-73250000D01*
X115372478Y-73750000D02*
X115150233Y-73527755D01*
X117200000Y-73750000D02*
X115372478Y-73750000D01*
X115842228Y-74850000D02*
X115835809Y-74843581D01*
X117200000Y-74750000D02*
X115942228Y-74750000D01*
X115835809Y-74843581D02*
X115783334Y-74843581D01*
X115942228Y-74750000D02*
X115842228Y-74850000D01*
X114923337Y-74798597D02*
X114901403Y-74798597D01*
X115543740Y-75419000D02*
X114923337Y-74798597D01*
X114901403Y-74798597D02*
X114900000Y-74800000D01*
X116200000Y-75250000D02*
X116031000Y-75419000D01*
X117200000Y-75250000D02*
X116200000Y-75250000D01*
X116031000Y-75419000D02*
X115543740Y-75419000D01*
X114831988Y-75543016D02*
X114831988Y-75531988D01*
X115088972Y-75800000D02*
X114831988Y-75543016D01*
X117150000Y-75800000D02*
X115088972Y-75800000D01*
X114831988Y-75531988D02*
X114800000Y-75500000D01*
X117200000Y-75750000D02*
X117150000Y-75800000D01*
D23*
X122016687Y-71750000D02*
X122392303Y-71374384D01*
D22*
X124211158Y-71750000D02*
X132240215Y-79779057D01*
D23*
X123835542Y-71374384D02*
X124211158Y-71750000D01*
X120800000Y-71750000D02*
X122016687Y-71750000D01*
D22*
X132240215Y-79779057D02*
X135949943Y-79779057D01*
X135949943Y-79779057D02*
X136029000Y-79700000D01*
D23*
X122392303Y-71374384D02*
X123835542Y-71374384D01*
D28*
X132075646Y-80760000D02*
X123673200Y-72357554D01*
X136399145Y-81004224D02*
X136154921Y-80760000D01*
X122673680Y-72750000D02*
X120799998Y-72750000D01*
D23*
X120800000Y-72750000D02*
X120799998Y-72750000D01*
D28*
X123673200Y-72357554D02*
X123066126Y-72357554D01*
X123066126Y-72357554D02*
X122673680Y-72750000D01*
X136154921Y-80760000D02*
X132075646Y-80760000D01*
X136700000Y-81740000D02*
X136026690Y-81740000D01*
D23*
X123782560Y-73570000D02*
X124156280Y-73943720D01*
X120800000Y-73750000D02*
X121643946Y-73750000D01*
D28*
X136026690Y-81740000D02*
X135606690Y-82160000D01*
D23*
X121823946Y-73570000D02*
X123782560Y-73570000D01*
X121643946Y-73750000D02*
X121823946Y-73570000D01*
D28*
X135606690Y-82160000D02*
X132372560Y-82160000D01*
X132372560Y-82160000D02*
X124156280Y-73943720D01*
D23*
X122755613Y-74570000D02*
X123622908Y-74570000D01*
D28*
X132110908Y-83058000D02*
X136952778Y-83058000D01*
D23*
X122625613Y-74700000D02*
X122755613Y-74570000D01*
D28*
X136952778Y-83058000D02*
X137634700Y-82376078D01*
D23*
X123622908Y-74570000D02*
X123802908Y-74750000D01*
X120850000Y-74700000D02*
X122625613Y-74700000D01*
X120800000Y-74750000D02*
X120850000Y-74700000D01*
D28*
X123802908Y-74750000D02*
X132110908Y-83058000D01*
X137634700Y-82376078D02*
X137634700Y-82346225D01*
X139000000Y-83600000D02*
X138760000Y-83840000D01*
D23*
X120800000Y-75750000D02*
X123699820Y-75750000D01*
D28*
X138760000Y-83840000D02*
X131789820Y-83840000D01*
D23*
X123699820Y-75750000D02*
X123974910Y-76025090D01*
D28*
X131789820Y-83840000D02*
X123974910Y-76025090D01*
D22*
X121642988Y-76204486D02*
X123104486Y-76204486D01*
X123104486Y-76204486D02*
X131400000Y-84500000D01*
X121597474Y-76250000D02*
X121642988Y-76204486D01*
X139200000Y-84500000D02*
X139500000Y-84200000D01*
X120800000Y-76250000D02*
X121597474Y-76250000D01*
X131400000Y-84500000D02*
X139200000Y-84500000D01*
X139500000Y-84200000D02*
X139800000Y-84200000D01*
D28*
X130700000Y-85100000D02*
X122291000Y-76691000D01*
X121633025Y-76750000D02*
X120799998Y-76750000D01*
X140340000Y-84800439D02*
X140040439Y-85100000D01*
X122291000Y-76691000D02*
X121692025Y-76691000D01*
D23*
X120800000Y-76750000D02*
X120799998Y-76750000D01*
D28*
X140040439Y-85100000D02*
X130700000Y-85100000D01*
X121692025Y-76691000D02*
X121633025Y-76750000D01*
X140150407Y-86349593D02*
X130419593Y-86349593D01*
X140900000Y-85600000D02*
X140150407Y-86349593D01*
X121820000Y-77750000D02*
X120799998Y-77750000D01*
D23*
X120799998Y-77750000D02*
X120800000Y-77750000D01*
D28*
X130419593Y-86349593D02*
X121820000Y-77750000D01*
G04 #@! TA.AperFunction,Conductor*
G36*
X117293039Y-78100184D02*
G01*
X117338794Y-78152988D01*
X117350000Y-78204499D01*
X117350000Y-78900000D01*
X117876000Y-78900000D01*
X117943039Y-78919685D01*
X117988794Y-78972489D01*
X118000000Y-79024000D01*
X118000000Y-79338371D01*
X117980315Y-79405410D01*
X117975698Y-79411140D01*
X117929972Y-79479572D01*
X117929971Y-79479576D01*
X117919500Y-79532218D01*
X117919500Y-80367774D01*
X117929973Y-80420428D01*
X117929974Y-80420431D01*
X117969867Y-80480134D01*
X118029569Y-80520025D01*
X118029572Y-80520027D01*
X118029575Y-80520027D01*
X118029576Y-80520028D01*
X118055897Y-80525263D01*
X118082223Y-80530500D01*
X119917776Y-80530499D01*
X119970428Y-80520027D01*
X120030133Y-80480133D01*
X120070027Y-80420428D01*
X120080500Y-80367777D01*
X120080499Y-79532224D01*
X120070027Y-79479572D01*
X120070025Y-79479570D01*
X120070025Y-79479567D01*
X120023349Y-79409714D01*
X120026312Y-79407733D01*
X120002828Y-79364704D01*
X120000000Y-79338371D01*
X120000000Y-78704499D01*
X120019685Y-78637460D01*
X120072489Y-78591705D01*
X120124000Y-78580499D01*
X120401084Y-78580499D01*
X120448536Y-78589937D01*
X120534415Y-78625510D01*
X120710317Y-78660499D01*
X120710321Y-78660500D01*
X120710322Y-78660500D01*
X121391497Y-78660500D01*
X121458536Y-78680185D01*
X121479178Y-78696819D01*
X129709235Y-86926876D01*
X129709264Y-86926907D01*
X129839179Y-87056822D01*
X129839183Y-87056825D01*
X129988302Y-87156464D01*
X129988311Y-87156469D01*
X130015609Y-87167776D01*
X130154010Y-87225104D01*
X130329911Y-87260092D01*
X130329915Y-87260093D01*
X130329916Y-87260093D01*
X140240085Y-87260093D01*
X140240086Y-87260092D01*
X140415990Y-87225104D01*
X140581691Y-87156468D01*
X140730817Y-87056825D01*
X140857639Y-86930003D01*
X140857639Y-86930001D01*
X140867847Y-86919794D01*
X140867848Y-86919791D01*
X141232019Y-86555621D01*
X141272242Y-86528744D01*
X141373914Y-86486632D01*
X141537782Y-86377139D01*
X141677139Y-86237782D01*
X141786632Y-86073914D01*
X141862051Y-85891835D01*
X141890264Y-85750000D01*
X141900500Y-85698543D01*
X141900500Y-85501456D01*
X141862052Y-85308170D01*
X141862051Y-85308169D01*
X141862051Y-85308165D01*
X141858876Y-85300499D01*
X141786635Y-85126092D01*
X141786628Y-85126079D01*
X141677139Y-84962218D01*
X141677136Y-84962214D01*
X141537782Y-84822860D01*
X141380715Y-84717912D01*
X141335910Y-84664300D01*
X141327989Y-84639001D01*
X141321342Y-84605587D01*
X141302051Y-84508604D01*
X141287718Y-84474000D01*
X141226635Y-84326531D01*
X141226628Y-84326518D01*
X141117139Y-84162657D01*
X141117136Y-84162653D01*
X140977782Y-84023299D01*
X140813919Y-83913810D01*
X140813916Y-83913808D01*
X140813914Y-83913807D01*
X140801579Y-83908698D01*
X140747178Y-83864857D01*
X140734478Y-83841600D01*
X140686632Y-83726086D01*
X140597967Y-83593390D01*
X140577090Y-83526713D01*
X140595575Y-83459333D01*
X140647553Y-83412643D01*
X140701070Y-83400500D01*
X145926859Y-83400500D01*
X145993898Y-83420185D01*
X145999745Y-83424182D01*
X146023207Y-83441229D01*
X146023208Y-83441229D01*
X146023212Y-83441232D01*
X146177555Y-83519873D01*
X146342299Y-83573402D01*
X146513389Y-83600500D01*
X146513390Y-83600500D01*
X146686610Y-83600500D01*
X146686611Y-83600500D01*
X146857701Y-83573402D01*
X147022445Y-83519873D01*
X147043704Y-83509040D01*
X147112372Y-83496144D01*
X147156294Y-83509040D01*
X147177555Y-83519873D01*
X147342299Y-83573402D01*
X147513389Y-83600500D01*
X147513390Y-83600500D01*
X147686610Y-83600500D01*
X147686611Y-83600500D01*
X147857701Y-83573402D01*
X148022445Y-83519873D01*
X148176788Y-83441232D01*
X148316928Y-83339414D01*
X148424453Y-83231888D01*
X148485772Y-83198406D01*
X148555464Y-83203390D01*
X148599812Y-83231891D01*
X150489707Y-85121786D01*
X150489711Y-85121789D01*
X150620814Y-85209390D01*
X150620818Y-85209392D01*
X150620821Y-85209394D01*
X150766503Y-85269738D01*
X150921153Y-85300499D01*
X150921157Y-85300500D01*
X150921158Y-85300500D01*
X151078844Y-85300500D01*
X151078845Y-85300499D01*
X151233497Y-85269738D01*
X151379179Y-85209394D01*
X151510289Y-85121789D01*
X151621789Y-85010289D01*
X151709394Y-84879179D01*
X151713327Y-84869685D01*
X151718563Y-84857046D01*
X151762404Y-84802643D01*
X151828699Y-84780579D01*
X151833123Y-84780500D01*
X153779138Y-84780500D01*
X153846177Y-84800185D01*
X153866819Y-84816819D01*
X153900000Y-84850000D01*
X155076000Y-84850000D01*
X155143039Y-84869685D01*
X155188794Y-84922489D01*
X155200000Y-84974000D01*
X155200000Y-85026000D01*
X155180315Y-85093039D01*
X155127511Y-85138794D01*
X155076000Y-85150000D01*
X153900000Y-85150000D01*
X153900000Y-85197844D01*
X153906401Y-85257372D01*
X153906403Y-85257379D01*
X153956645Y-85392086D01*
X153956649Y-85392093D01*
X154042809Y-85507187D01*
X154042812Y-85507190D01*
X154157905Y-85593349D01*
X154159514Y-85594228D01*
X154160810Y-85595524D01*
X154165011Y-85598669D01*
X154164559Y-85599272D01*
X154208921Y-85643632D01*
X154221707Y-85678871D01*
X154231043Y-85725807D01*
X154231043Y-85774189D01*
X154219500Y-85832219D01*
X154219500Y-86167773D01*
X154219501Y-86167776D01*
X154229973Y-86220428D01*
X154229974Y-86220429D01*
X154231044Y-86225808D01*
X154231043Y-86274189D01*
X154219500Y-86332219D01*
X154219500Y-86667773D01*
X154219501Y-86667776D01*
X154229973Y-86720428D01*
X154229974Y-86720429D01*
X154231044Y-86725808D01*
X154231043Y-86774189D01*
X154219500Y-86832219D01*
X154219500Y-87167773D01*
X154219501Y-87167776D01*
X154229973Y-87220428D01*
X154229974Y-87220429D01*
X154231044Y-87225808D01*
X154231043Y-87274192D01*
X154221705Y-87321132D01*
X154189318Y-87383042D01*
X154159531Y-87405762D01*
X154157916Y-87406643D01*
X154042809Y-87492813D01*
X153956649Y-87607906D01*
X153956645Y-87607913D01*
X153906403Y-87742620D01*
X153906401Y-87742627D01*
X153900000Y-87802155D01*
X153900000Y-87850000D01*
X155076000Y-87850000D01*
X155143039Y-87869685D01*
X155188794Y-87922489D01*
X155200000Y-87974000D01*
X155200000Y-88026000D01*
X155180315Y-88093039D01*
X155127511Y-88138794D01*
X155076000Y-88150000D01*
X153900000Y-88150000D01*
X153900000Y-88197844D01*
X153906401Y-88257372D01*
X153906403Y-88257379D01*
X153956645Y-88392086D01*
X153956649Y-88392093D01*
X154042809Y-88507187D01*
X154042812Y-88507190D01*
X154157905Y-88593349D01*
X154159514Y-88594228D01*
X154160810Y-88595524D01*
X154165011Y-88598669D01*
X154164559Y-88599272D01*
X154208921Y-88643632D01*
X154221707Y-88678871D01*
X154231043Y-88725807D01*
X154231043Y-88774189D01*
X154219500Y-88832219D01*
X154219500Y-89167773D01*
X154219501Y-89167776D01*
X154229973Y-89220428D01*
X154229974Y-89220429D01*
X154231044Y-89225808D01*
X154231043Y-89274192D01*
X154221705Y-89321132D01*
X154189318Y-89383042D01*
X154159531Y-89405762D01*
X154157916Y-89406643D01*
X154042810Y-89492812D01*
X154005180Y-89543079D01*
X153949246Y-89584949D01*
X153879554Y-89589933D01*
X153818233Y-89556448D01*
X153740000Y-89478215D01*
X153739996Y-89478212D01*
X153608893Y-89390611D01*
X153608880Y-89390604D01*
X153463207Y-89330265D01*
X153457371Y-89328495D01*
X153457763Y-89327201D01*
X153422270Y-89312498D01*
X153273920Y-89213373D01*
X153273907Y-89213366D01*
X153091839Y-89137952D01*
X153091829Y-89137949D01*
X152898543Y-89099502D01*
X152898541Y-89099502D01*
X152701459Y-89099502D01*
X152701457Y-89099502D01*
X152508170Y-89137949D01*
X152508160Y-89137952D01*
X152326088Y-89213368D01*
X152228456Y-89278604D01*
X152161778Y-89299482D01*
X152159565Y-89299502D01*
X145040102Y-89299502D01*
X144992651Y-89290063D01*
X144866835Y-89237949D01*
X144866829Y-89237947D01*
X144673543Y-89199500D01*
X144673541Y-89199500D01*
X144476459Y-89199500D01*
X144476457Y-89199500D01*
X144283170Y-89237947D01*
X144283160Y-89237950D01*
X144101092Y-89313364D01*
X144101079Y-89313371D01*
X143937218Y-89422860D01*
X143937214Y-89422863D01*
X143797863Y-89562214D01*
X143797860Y-89562218D01*
X143688371Y-89726079D01*
X143688364Y-89726092D01*
X143612950Y-89908160D01*
X143612947Y-89908170D01*
X143574500Y-90101456D01*
X143574500Y-90298540D01*
X143578683Y-90319572D01*
X143572454Y-90389163D01*
X143529590Y-90444340D01*
X143525956Y-90446863D01*
X143412218Y-90522860D01*
X143412214Y-90522863D01*
X143272863Y-90662214D01*
X143272860Y-90662218D01*
X143163371Y-90826079D01*
X143163364Y-90826092D01*
X143087950Y-91008160D01*
X143087947Y-91008170D01*
X143049499Y-91201456D01*
X143048903Y-91207519D01*
X143047480Y-91207378D01*
X143029815Y-91267539D01*
X142977011Y-91313294D01*
X142925500Y-91324500D01*
X135825455Y-91324500D01*
X135778003Y-91315061D01*
X135591839Y-91237950D01*
X135591829Y-91237947D01*
X135398543Y-91199500D01*
X135398541Y-91199500D01*
X135365783Y-91199500D01*
X135298744Y-91179815D01*
X135278101Y-91163180D01*
X135237785Y-91122863D01*
X135237781Y-91122860D01*
X135073920Y-91013371D01*
X135073907Y-91013364D01*
X134891839Y-90937950D01*
X134891829Y-90937947D01*
X134698543Y-90899500D01*
X134698541Y-90899500D01*
X134501459Y-90899500D01*
X134501457Y-90899500D01*
X134308170Y-90937947D01*
X134308160Y-90937950D01*
X134126092Y-91013364D01*
X134126079Y-91013371D01*
X133962218Y-91122860D01*
X133962214Y-91122863D01*
X133822863Y-91262214D01*
X133822860Y-91262218D01*
X133713371Y-91426079D01*
X133713364Y-91426092D01*
X133637950Y-91608160D01*
X133637947Y-91608170D01*
X133599500Y-91801456D01*
X133599500Y-91801459D01*
X133599500Y-91998541D01*
X133599500Y-91998543D01*
X133599499Y-91998543D01*
X133637947Y-92191829D01*
X133637950Y-92191839D01*
X133713364Y-92373907D01*
X133713371Y-92373920D01*
X133822860Y-92537781D01*
X133822863Y-92537785D01*
X133962214Y-92677136D01*
X133962218Y-92677139D01*
X134126079Y-92786628D01*
X134126088Y-92786633D01*
X134313794Y-92864383D01*
X134313178Y-92865868D01*
X134335925Y-92878023D01*
X134336836Y-92876661D01*
X134485288Y-92975854D01*
X134485301Y-92975861D01*
X134609091Y-93027136D01*
X134644626Y-93041855D01*
X134763972Y-93065594D01*
X134783391Y-93069457D01*
X134820206Y-93084704D01*
X134820712Y-93083759D01*
X134826080Y-93086628D01*
X134826086Y-93086632D01*
X134826092Y-93086634D01*
X134826093Y-93086635D01*
X135008160Y-93162049D01*
X135008165Y-93162051D01*
X135008169Y-93162051D01*
X135008170Y-93162052D01*
X135201456Y-93200500D01*
X135201459Y-93200500D01*
X135398543Y-93200500D01*
X135528582Y-93174632D01*
X135591835Y-93162051D01*
X135653212Y-93136628D01*
X135778003Y-93084939D01*
X135825455Y-93075500D01*
X143076960Y-93075500D01*
X143143999Y-93095185D01*
X143189754Y-93147989D01*
X143199698Y-93217147D01*
X143170673Y-93280703D01*
X143130870Y-93309402D01*
X143131456Y-93310498D01*
X143126079Y-93313371D01*
X142962218Y-93422860D01*
X142962214Y-93422863D01*
X142822863Y-93562214D01*
X142822860Y-93562218D01*
X142713371Y-93726079D01*
X142713364Y-93726092D01*
X142637950Y-93908160D01*
X142637947Y-93908170D01*
X142599500Y-94101456D01*
X142599500Y-94101459D01*
X142599500Y-94298541D01*
X142599500Y-94298543D01*
X142599499Y-94298543D01*
X142637947Y-94491829D01*
X142637950Y-94491839D01*
X142713364Y-94673907D01*
X142713371Y-94673920D01*
X142822860Y-94837781D01*
X142822863Y-94837785D01*
X142962214Y-94977136D01*
X142962218Y-94977139D01*
X143126079Y-95086628D01*
X143126092Y-95086635D01*
X143211250Y-95121908D01*
X143308165Y-95162051D01*
X143423326Y-95184957D01*
X143485235Y-95217341D01*
X143486814Y-95218893D01*
X143489710Y-95221789D01*
X143542635Y-95257152D01*
X143620821Y-95309394D01*
X143723833Y-95352062D01*
X143766502Y-95369737D01*
X143921152Y-95400499D01*
X143921155Y-95400500D01*
X143921157Y-95400500D01*
X143921158Y-95400500D01*
X151708270Y-95400500D01*
X151775309Y-95420185D01*
X151821064Y-95472989D01*
X151831008Y-95542147D01*
X151829887Y-95548691D01*
X151799500Y-95701454D01*
X151799500Y-95701459D01*
X151799500Y-95898541D01*
X151799500Y-95898543D01*
X151799499Y-95898543D01*
X151837947Y-96091829D01*
X151837950Y-96091839D01*
X151913364Y-96273907D01*
X151913371Y-96273920D01*
X152022860Y-96437781D01*
X152022863Y-96437785D01*
X152162214Y-96577136D01*
X152162218Y-96577139D01*
X152326079Y-96686628D01*
X152326092Y-96686635D01*
X152508160Y-96762049D01*
X152508165Y-96762051D01*
X152508169Y-96762051D01*
X152508170Y-96762052D01*
X152701456Y-96800500D01*
X152701459Y-96800500D01*
X152898543Y-96800500D01*
X153028582Y-96774632D01*
X153091835Y-96762051D01*
X153232655Y-96703721D01*
X153273907Y-96686635D01*
X153273907Y-96686634D01*
X153273914Y-96686632D01*
X153437782Y-96577139D01*
X153478101Y-96536820D01*
X153539424Y-96503334D01*
X153565783Y-96500500D01*
X153598126Y-96500500D01*
X153665165Y-96520185D01*
X153710920Y-96572989D01*
X153719743Y-96600309D01*
X153737946Y-96691827D01*
X153737949Y-96691836D01*
X153813364Y-96873907D01*
X153813371Y-96873920D01*
X153922860Y-97037781D01*
X153922863Y-97037785D01*
X154062214Y-97177136D01*
X154062218Y-97177139D01*
X154226079Y-97286628D01*
X154226092Y-97286635D01*
X154408160Y-97362049D01*
X154408165Y-97362051D01*
X154408169Y-97362051D01*
X154408170Y-97362052D01*
X154601456Y-97400500D01*
X154601459Y-97400500D01*
X154798543Y-97400500D01*
X154928582Y-97374632D01*
X154991835Y-97362051D01*
X155173914Y-97286632D01*
X155337782Y-97177139D01*
X155378101Y-97136820D01*
X155439424Y-97103334D01*
X155465783Y-97100500D01*
X161559565Y-97100500D01*
X161626604Y-97120185D01*
X161628456Y-97121398D01*
X161726086Y-97186632D01*
X161726087Y-97186632D01*
X161726088Y-97186633D01*
X161908160Y-97262049D01*
X161908165Y-97262051D01*
X161908169Y-97262051D01*
X161908170Y-97262052D01*
X162101456Y-97300500D01*
X162304633Y-97300500D01*
X162304633Y-97303109D01*
X162362123Y-97313979D01*
X162412860Y-97362016D01*
X162429573Y-97429857D01*
X162421875Y-97467728D01*
X162367093Y-97614605D01*
X162359743Y-97630699D01*
X162265709Y-97802908D01*
X162256144Y-97817791D01*
X162138561Y-97974864D01*
X162126975Y-97988235D01*
X161988235Y-98126975D01*
X161974864Y-98138561D01*
X161817791Y-98256144D01*
X161802908Y-98265709D01*
X161630699Y-98359743D01*
X161614605Y-98367093D01*
X161430765Y-98435661D01*
X161413790Y-98440645D01*
X161222068Y-98482351D01*
X161204557Y-98484869D01*
X161023779Y-98497799D01*
X161004417Y-98499184D01*
X160995572Y-98499500D01*
X115004428Y-98499500D01*
X114995582Y-98499184D01*
X114973622Y-98497613D01*
X114795442Y-98484869D01*
X114777931Y-98482351D01*
X114586209Y-98440645D01*
X114569234Y-98435661D01*
X114385394Y-98367093D01*
X114369300Y-98359743D01*
X114197091Y-98265709D01*
X114182208Y-98256144D01*
X114025135Y-98138561D01*
X114011764Y-98126975D01*
X113873024Y-97988235D01*
X113861438Y-97974864D01*
X113743855Y-97817791D01*
X113734290Y-97802908D01*
X113640256Y-97630699D01*
X113632909Y-97614611D01*
X113564336Y-97430760D01*
X113559354Y-97413790D01*
X113548099Y-97362052D01*
X113517647Y-97222063D01*
X113515130Y-97204556D01*
X113510285Y-97136820D01*
X113500816Y-97004418D01*
X113500500Y-96995572D01*
X113500500Y-79041972D01*
X113520185Y-78974933D01*
X113572989Y-78929178D01*
X113642147Y-78919234D01*
X113705703Y-78948259D01*
X113739061Y-78994520D01*
X113813364Y-79173907D01*
X113813371Y-79173920D01*
X113922860Y-79337781D01*
X113922863Y-79337785D01*
X114062214Y-79477136D01*
X114062218Y-79477139D01*
X114226079Y-79586628D01*
X114226092Y-79586635D01*
X114378624Y-79649815D01*
X114408165Y-79662051D01*
X114408169Y-79662051D01*
X114408170Y-79662052D01*
X114601456Y-79700500D01*
X114718278Y-79700500D01*
X114785317Y-79720185D01*
X114831072Y-79772989D01*
X114836937Y-79788501D01*
X114837947Y-79791832D01*
X114913364Y-79973907D01*
X114913371Y-79973920D01*
X115022860Y-80137781D01*
X115022863Y-80137785D01*
X115162214Y-80277136D01*
X115162218Y-80277139D01*
X115326079Y-80386628D01*
X115326092Y-80386635D01*
X115508160Y-80462049D01*
X115508165Y-80462051D01*
X115508169Y-80462051D01*
X115508170Y-80462052D01*
X115701456Y-80500500D01*
X115701459Y-80500500D01*
X115898543Y-80500500D01*
X116028582Y-80474632D01*
X116091835Y-80462051D01*
X116273914Y-80386632D01*
X116437782Y-80277139D01*
X116577139Y-80137782D01*
X116686632Y-79973914D01*
X116762051Y-79791835D01*
X116776303Y-79720185D01*
X116800500Y-79598543D01*
X116800500Y-79401456D01*
X116762052Y-79208170D01*
X116762051Y-79208169D01*
X116762051Y-79208165D01*
X116705422Y-79071451D01*
X116697954Y-79001983D01*
X116729229Y-78939504D01*
X116789318Y-78903852D01*
X116819984Y-78900000D01*
X117050000Y-78900000D01*
X117050000Y-78204499D01*
X117069685Y-78137460D01*
X117122489Y-78091705D01*
X117174000Y-78080499D01*
X117226000Y-78080499D01*
X117293039Y-78100184D01*
G37*
G04 #@! TD.AperFunction*
G04 #@! TA.AperFunction,Conductor*
G36*
X161226034Y-89800185D02*
G01*
X161271789Y-89852989D01*
X161273556Y-89857048D01*
X161313364Y-89953156D01*
X161313371Y-89953169D01*
X161422860Y-90117032D01*
X161562214Y-90256386D01*
X161562218Y-90256389D01*
X161726079Y-90365878D01*
X161726092Y-90365885D01*
X161840728Y-90413368D01*
X161908165Y-90441301D01*
X161908169Y-90441301D01*
X161908170Y-90441302D01*
X162101456Y-90479750D01*
X162101459Y-90479750D01*
X162298543Y-90479750D01*
X162351308Y-90469254D01*
X162420899Y-90475481D01*
X162476077Y-90518343D01*
X162499322Y-90584233D01*
X162499500Y-90590871D01*
X162499500Y-94885216D01*
X162479815Y-94952255D01*
X162427011Y-94998010D01*
X162357853Y-95007954D01*
X162294297Y-94978929D01*
X162287819Y-94972897D01*
X162237785Y-94922863D01*
X162237781Y-94922860D01*
X162073920Y-94813371D01*
X162073907Y-94813364D01*
X161896679Y-94739955D01*
X161842275Y-94696114D01*
X161820210Y-94629820D01*
X161829570Y-94577941D01*
X161862051Y-94499525D01*
X161900500Y-94306231D01*
X161900500Y-94109149D01*
X161900500Y-94109146D01*
X161862052Y-93915860D01*
X161862051Y-93915859D01*
X161862051Y-93915855D01*
X161788477Y-93738230D01*
X161786635Y-93733782D01*
X161786628Y-93733769D01*
X161677139Y-93569908D01*
X161677136Y-93569904D01*
X161537785Y-93430553D01*
X161537781Y-93430550D01*
X161373920Y-93321061D01*
X161373907Y-93321054D01*
X161191839Y-93245640D01*
X161191829Y-93245637D01*
X160998543Y-93207190D01*
X160998541Y-93207190D01*
X160801459Y-93207190D01*
X160801457Y-93207190D01*
X160608170Y-93245637D01*
X160608160Y-93245640D01*
X160426092Y-93321054D01*
X160426079Y-93321061D01*
X160262218Y-93430550D01*
X160262214Y-93430553D01*
X160122863Y-93569904D01*
X160122860Y-93569908D01*
X160013372Y-93733768D01*
X160013278Y-93733945D01*
X160013204Y-93734020D01*
X160009983Y-93738841D01*
X160009069Y-93738230D01*
X159964319Y-93783793D01*
X159903915Y-93799500D01*
X158204500Y-93799500D01*
X158137461Y-93779815D01*
X158091706Y-93727011D01*
X158080500Y-93675500D01*
X158080499Y-93282225D01*
X158080196Y-93280703D01*
X158070027Y-93229572D01*
X158070025Y-93229570D01*
X158070025Y-93229567D01*
X158023349Y-93159714D01*
X158026312Y-93157733D01*
X158002828Y-93114704D01*
X158000000Y-93088371D01*
X158000000Y-92454499D01*
X158019685Y-92387460D01*
X158072489Y-92341705D01*
X158124000Y-92330499D01*
X159617775Y-92330499D01*
X159617776Y-92330499D01*
X159670428Y-92320027D01*
X159730133Y-92280133D01*
X159770027Y-92220428D01*
X159778293Y-92178868D01*
X159810676Y-92116961D01*
X159840495Y-92094222D01*
X159842099Y-92093346D01*
X159962478Y-92003230D01*
X160027942Y-91978812D01*
X160084239Y-91987934D01*
X160242682Y-92053563D01*
X160242686Y-92053563D01*
X160242687Y-92053564D01*
X160435973Y-92092012D01*
X160435976Y-92092012D01*
X160633060Y-92092012D01*
X160763099Y-92066144D01*
X160826352Y-92053563D01*
X160984793Y-91987935D01*
X161008424Y-91978147D01*
X161008424Y-91978146D01*
X161008431Y-91978144D01*
X161172299Y-91868651D01*
X161311656Y-91729294D01*
X161421149Y-91565426D01*
X161496568Y-91383347D01*
X161519604Y-91267539D01*
X161535017Y-91190055D01*
X161535017Y-90992968D01*
X161496569Y-90799682D01*
X161496568Y-90799681D01*
X161496568Y-90799677D01*
X161443303Y-90671082D01*
X161421152Y-90617604D01*
X161421145Y-90617591D01*
X161311656Y-90453730D01*
X161311653Y-90453726D01*
X161172302Y-90314375D01*
X161172298Y-90314372D01*
X161008437Y-90204883D01*
X161008424Y-90204876D01*
X160826356Y-90129462D01*
X160826346Y-90129459D01*
X160633060Y-90091012D01*
X160633058Y-90091012D01*
X160435976Y-90091012D01*
X160435974Y-90091012D01*
X160242683Y-90129460D01*
X160242681Y-90129461D01*
X160191836Y-90150521D01*
X160122367Y-90157988D01*
X160059888Y-90126713D01*
X160045118Y-90110270D01*
X159957186Y-89992808D01*
X159956559Y-89992181D01*
X159956133Y-89991402D01*
X159951874Y-89985712D01*
X159952692Y-89985099D01*
X159923074Y-89930858D01*
X159928058Y-89861166D01*
X159969930Y-89805233D01*
X160035394Y-89780816D01*
X160044240Y-89780500D01*
X161158995Y-89780500D01*
X161226034Y-89800185D01*
G37*
G04 #@! TD.AperFunction*
G04 #@! TA.AperFunction,Conductor*
G36*
X155943039Y-92350184D02*
G01*
X155988794Y-92402988D01*
X156000000Y-92454499D01*
X156000000Y-93088371D01*
X155980315Y-93155410D01*
X155975698Y-93161140D01*
X155929972Y-93229572D01*
X155929971Y-93229576D01*
X155919500Y-93282218D01*
X155919500Y-93282220D01*
X155919501Y-93675500D01*
X155899817Y-93742539D01*
X155847013Y-93788294D01*
X155795501Y-93799500D01*
X144599895Y-93799500D01*
X144532856Y-93779815D01*
X144490493Y-93730926D01*
X144489502Y-93731456D01*
X144487166Y-93727086D01*
X144487101Y-93727011D01*
X144486990Y-93726756D01*
X144486628Y-93726079D01*
X144377139Y-93562218D01*
X144377136Y-93562214D01*
X144237785Y-93422863D01*
X144237781Y-93422860D01*
X144073920Y-93313371D01*
X144068544Y-93310498D01*
X144069334Y-93309019D01*
X144021187Y-93270225D01*
X143999119Y-93203932D01*
X144016395Y-93136231D01*
X144067530Y-93088619D01*
X144123040Y-93075500D01*
X146896981Y-93075500D01*
X146964020Y-93095185D01*
X146965833Y-93096372D01*
X147026086Y-93136632D01*
X147026092Y-93136634D01*
X147026093Y-93136635D01*
X147147452Y-93186903D01*
X147208165Y-93212051D01*
X147208169Y-93212051D01*
X147208170Y-93212052D01*
X147401456Y-93250500D01*
X147401459Y-93250500D01*
X147598543Y-93250500D01*
X147728582Y-93224632D01*
X147791835Y-93212051D01*
X147852547Y-93186902D01*
X147922015Y-93179433D01*
X147947451Y-93186902D01*
X147972857Y-93197426D01*
X148008159Y-93212049D01*
X148008162Y-93212049D01*
X148008165Y-93212051D01*
X148008169Y-93212051D01*
X148008170Y-93212052D01*
X148201456Y-93250500D01*
X148201459Y-93250500D01*
X148398543Y-93250500D01*
X148528582Y-93224632D01*
X148591835Y-93212051D01*
X148773914Y-93136632D01*
X148937782Y-93027139D01*
X149077139Y-92887782D01*
X149186632Y-92723914D01*
X149262051Y-92541835D01*
X149265339Y-92525307D01*
X149297725Y-92463397D01*
X149358441Y-92428823D01*
X149386956Y-92425500D01*
X150996981Y-92425500D01*
X151064020Y-92445185D01*
X151065833Y-92446372D01*
X151126086Y-92486632D01*
X151126092Y-92486634D01*
X151126093Y-92486635D01*
X151308160Y-92562049D01*
X151308165Y-92562051D01*
X151308169Y-92562051D01*
X151308170Y-92562052D01*
X151501456Y-92600500D01*
X151501459Y-92600500D01*
X151698543Y-92600500D01*
X151828582Y-92574632D01*
X151891835Y-92562051D01*
X152073914Y-92486632D01*
X152134129Y-92446397D01*
X152200805Y-92425520D01*
X152203019Y-92425500D01*
X154081307Y-92425500D01*
X154194478Y-92402988D01*
X154240789Y-92393776D01*
X154370766Y-92339937D01*
X154418218Y-92330499D01*
X155876000Y-92330499D01*
X155943039Y-92350184D01*
G37*
G04 #@! TD.AperFunction*
G04 #@! TA.AperFunction,Conductor*
G36*
X160129150Y-88852382D02*
G01*
X160143741Y-88855285D01*
X160162617Y-88859040D01*
X160162618Y-88859040D01*
X160962595Y-88859040D01*
X161029634Y-88878725D01*
X161031487Y-88879939D01*
X161076077Y-88909734D01*
X161076083Y-88909737D01*
X161076086Y-88909739D01*
X161197859Y-88960178D01*
X161252260Y-89004017D01*
X161274325Y-89070311D01*
X161264967Y-89122186D01*
X161261600Y-89130315D01*
X161258438Y-89137951D01*
X161256368Y-89142948D01*
X161212529Y-89197354D01*
X161146235Y-89219421D01*
X161141805Y-89219500D01*
X160220862Y-89219500D01*
X160213433Y-89217318D01*
X160205797Y-89218581D01*
X160180381Y-89207613D01*
X160153823Y-89199815D01*
X160144038Y-89191930D01*
X160141646Y-89190898D01*
X160138664Y-89187599D01*
X160133181Y-89183181D01*
X160100000Y-89150000D01*
X158924000Y-89150000D01*
X158856961Y-89130315D01*
X158811206Y-89077511D01*
X158800000Y-89026000D01*
X158800000Y-88974000D01*
X158819685Y-88906961D01*
X158872489Y-88861206D01*
X158924000Y-88850000D01*
X160104959Y-88850000D01*
X160129150Y-88852382D01*
G37*
G04 #@! TD.AperFunction*
G04 #@! TA.AperFunction,Conductor*
G36*
X162425397Y-82182610D02*
G01*
X162478849Y-82227607D01*
X162499487Y-82294359D01*
X162499500Y-82296128D01*
X162499500Y-87258323D01*
X162479815Y-87325362D01*
X162427011Y-87371117D01*
X162357853Y-87381061D01*
X162294297Y-87352036D01*
X162287819Y-87346004D01*
X162187785Y-87245970D01*
X162187781Y-87245967D01*
X162023920Y-87136478D01*
X162023907Y-87136471D01*
X161841839Y-87061057D01*
X161841829Y-87061054D01*
X161648543Y-87022607D01*
X161648541Y-87022607D01*
X161451459Y-87022607D01*
X161451457Y-87022607D01*
X161258170Y-87061054D01*
X161258160Y-87061057D01*
X161076092Y-87136471D01*
X161076079Y-87136478D01*
X160925427Y-87237142D01*
X160858750Y-87258020D01*
X160856536Y-87258040D01*
X160162615Y-87258040D01*
X160007970Y-87288801D01*
X160007962Y-87288803D01*
X159964170Y-87306942D01*
X159894700Y-87314409D01*
X159832222Y-87283133D01*
X159796570Y-87223044D01*
X159799065Y-87153219D01*
X159838915Y-87095827D01*
X159842408Y-87093113D01*
X159957191Y-87007186D01*
X160043350Y-86892093D01*
X160043354Y-86892086D01*
X160093596Y-86757379D01*
X160093598Y-86757372D01*
X160099999Y-86697844D01*
X160100000Y-86697827D01*
X160100000Y-86650000D01*
X158924000Y-86650000D01*
X158856961Y-86630315D01*
X158811206Y-86577511D01*
X158800000Y-86526000D01*
X158800000Y-86474000D01*
X158819685Y-86406961D01*
X158872489Y-86361206D01*
X158924000Y-86350000D01*
X160100000Y-86350000D01*
X160100000Y-86302172D01*
X160099999Y-86302155D01*
X160093598Y-86242627D01*
X160093596Y-86242620D01*
X160043354Y-86107913D01*
X160043350Y-86107906D01*
X159957190Y-85992812D01*
X159957187Y-85992809D01*
X159842093Y-85906649D01*
X159840481Y-85905769D01*
X159839181Y-85904469D01*
X159834989Y-85901331D01*
X159835440Y-85900728D01*
X159791076Y-85856363D01*
X159778292Y-85821128D01*
X159770027Y-85779572D01*
X159770026Y-85779571D01*
X159768956Y-85774188D01*
X159768957Y-85725808D01*
X159774380Y-85698543D01*
X159780500Y-85667777D01*
X159780499Y-85332224D01*
X159770027Y-85279572D01*
X159770026Y-85279571D01*
X159768956Y-85274189D01*
X159768956Y-85225811D01*
X159770027Y-85220428D01*
X159778293Y-85178868D01*
X159810676Y-85116960D01*
X159840495Y-85094222D01*
X159842099Y-85093346D01*
X159957187Y-85007190D01*
X159957190Y-85007187D01*
X160043350Y-84892093D01*
X160043354Y-84892086D01*
X160093596Y-84757379D01*
X160093598Y-84757372D01*
X160099999Y-84697844D01*
X160100000Y-84697827D01*
X160100000Y-84650000D01*
X158924000Y-84650000D01*
X158856961Y-84630315D01*
X158811206Y-84577511D01*
X158800000Y-84526000D01*
X158800000Y-84474000D01*
X158819685Y-84406961D01*
X158872489Y-84361206D01*
X158924000Y-84350000D01*
X160100000Y-84350000D01*
X160100000Y-84302172D01*
X160099999Y-84302155D01*
X160093598Y-84242627D01*
X160093596Y-84242620D01*
X160043354Y-84107913D01*
X160043350Y-84107906D01*
X159957190Y-83992812D01*
X159957187Y-83992809D01*
X159842093Y-83906649D01*
X159840481Y-83905769D01*
X159839181Y-83904469D01*
X159834989Y-83901331D01*
X159835440Y-83900728D01*
X159791076Y-83856363D01*
X159778292Y-83821128D01*
X159770027Y-83779572D01*
X159770026Y-83779571D01*
X159768956Y-83774188D01*
X159768957Y-83725808D01*
X159771321Y-83713918D01*
X159780500Y-83667777D01*
X159780499Y-83332224D01*
X159770027Y-83279572D01*
X159770026Y-83279571D01*
X159768956Y-83274189D01*
X159768956Y-83225811D01*
X159770723Y-83216928D01*
X159778293Y-83178868D01*
X159810676Y-83116960D01*
X159840495Y-83094222D01*
X159842099Y-83093346D01*
X159957187Y-83007190D01*
X159957190Y-83007187D01*
X160037290Y-82900189D01*
X160093223Y-82858318D01*
X160136556Y-82850500D01*
X160183768Y-82850500D01*
X160183769Y-82850499D01*
X160348082Y-82817816D01*
X160502863Y-82753703D01*
X160642162Y-82660626D01*
X160760626Y-82542162D01*
X160835164Y-82430609D01*
X160888776Y-82385804D01*
X160938266Y-82375500D01*
X161786231Y-82375500D01*
X161786232Y-82375499D01*
X161955374Y-82341855D01*
X162114705Y-82275858D01*
X162217569Y-82207125D01*
X162267051Y-82187758D01*
X162356107Y-82173654D01*
X162425397Y-82182610D01*
G37*
G04 #@! TD.AperFunction*
G04 #@! TA.AperFunction,Conductor*
G36*
X160942970Y-51692642D02*
G01*
X160988725Y-51745446D01*
X160998167Y-51781889D01*
X160998738Y-51781799D01*
X161019579Y-51913389D01*
X161026598Y-51957701D01*
X161080127Y-52122445D01*
X161158768Y-52276788D01*
X161260586Y-52416928D01*
X161383072Y-52539414D01*
X161523212Y-52641232D01*
X161677555Y-52719873D01*
X161842299Y-52773402D01*
X162013389Y-52800500D01*
X162013390Y-52800500D01*
X162186610Y-52800500D01*
X162186611Y-52800500D01*
X162356102Y-52773655D01*
X162425395Y-52782610D01*
X162478847Y-52827606D01*
X162499487Y-52894357D01*
X162499500Y-52896128D01*
X162499500Y-54798476D01*
X162479815Y-54865515D01*
X162427011Y-54911270D01*
X162357853Y-54921214D01*
X162294297Y-54892189D01*
X162272398Y-54867367D01*
X162202139Y-54762218D01*
X162202136Y-54762214D01*
X162062785Y-54622863D01*
X162062781Y-54622860D01*
X161898920Y-54513371D01*
X161898907Y-54513364D01*
X161716839Y-54437950D01*
X161716829Y-54437947D01*
X161523543Y-54399500D01*
X161523541Y-54399500D01*
X161326459Y-54399500D01*
X161326457Y-54399500D01*
X161133170Y-54437947D01*
X161133160Y-54437950D01*
X161007354Y-54490061D01*
X160959902Y-54499500D01*
X158940435Y-54499500D01*
X158873396Y-54479815D01*
X158871544Y-54478602D01*
X158773911Y-54413366D01*
X158591839Y-54337950D01*
X158591829Y-54337947D01*
X158398543Y-54299500D01*
X158398541Y-54299500D01*
X158201459Y-54299500D01*
X158201457Y-54299500D01*
X158008170Y-54337947D01*
X158008160Y-54337950D01*
X157826092Y-54413364D01*
X157826079Y-54413371D01*
X157662218Y-54522860D01*
X157662214Y-54522863D01*
X157522863Y-54662214D01*
X157522860Y-54662218D01*
X157413371Y-54826079D01*
X157413364Y-54826092D01*
X157337950Y-55008160D01*
X157337947Y-55008170D01*
X157299500Y-55201456D01*
X157299500Y-55201459D01*
X157299500Y-55398541D01*
X157299500Y-55398543D01*
X157299499Y-55398543D01*
X157337947Y-55591829D01*
X157337950Y-55591839D01*
X157413364Y-55773907D01*
X157413371Y-55773920D01*
X157522860Y-55937781D01*
X157522863Y-55937785D01*
X157662214Y-56077136D01*
X157662218Y-56077139D01*
X157826079Y-56186628D01*
X157826092Y-56186635D01*
X157953514Y-56239414D01*
X158008165Y-56262051D01*
X158008169Y-56262051D01*
X158008170Y-56262052D01*
X158201456Y-56300500D01*
X158201459Y-56300500D01*
X158398543Y-56300500D01*
X158528582Y-56274632D01*
X158591835Y-56262051D01*
X158773914Y-56186632D01*
X158871544Y-56121398D01*
X158938222Y-56100520D01*
X158940435Y-56100500D01*
X160659217Y-56100500D01*
X160726256Y-56120185D01*
X160746899Y-56136820D01*
X160787214Y-56177136D01*
X160787218Y-56177139D01*
X160951079Y-56286628D01*
X160951092Y-56286635D01*
X161082903Y-56341232D01*
X161133165Y-56362051D01*
X161133169Y-56362051D01*
X161133170Y-56362052D01*
X161326456Y-56400500D01*
X161326459Y-56400500D01*
X161523543Y-56400500D01*
X161653582Y-56374632D01*
X161716835Y-56362051D01*
X161898914Y-56286632D01*
X162062782Y-56177139D01*
X162202139Y-56037782D01*
X162268957Y-55937782D01*
X162272398Y-55932632D01*
X162326010Y-55887827D01*
X162395335Y-55879120D01*
X162458362Y-55909274D01*
X162495082Y-55968717D01*
X162499500Y-56001523D01*
X162499500Y-78903871D01*
X162479815Y-78970910D01*
X162427011Y-79016665D01*
X162357853Y-79026609D01*
X162356103Y-79026344D01*
X162186611Y-78999500D01*
X162013389Y-78999500D01*
X161973728Y-79005781D01*
X161842302Y-79026597D01*
X161842299Y-79026598D01*
X161681498Y-79078846D01*
X161677552Y-79080128D01*
X161523211Y-79158768D01*
X161467149Y-79199500D01*
X161383072Y-79260586D01*
X161383070Y-79260588D01*
X161383069Y-79260588D01*
X161260588Y-79383069D01*
X161260588Y-79383070D01*
X161260586Y-79383072D01*
X161238575Y-79413368D01*
X161158768Y-79523211D01*
X161080128Y-79677552D01*
X161026597Y-79842302D01*
X160999500Y-80013389D01*
X160999500Y-80186610D01*
X161026597Y-80357698D01*
X161060546Y-80462182D01*
X161062541Y-80532023D01*
X161026460Y-80591856D01*
X160963759Y-80622684D01*
X160942615Y-80624500D01*
X160117841Y-80624500D01*
X160050802Y-80604815D01*
X160018575Y-80574811D01*
X159957190Y-80492812D01*
X159957187Y-80492809D01*
X159842093Y-80406649D01*
X159840481Y-80405769D01*
X159839181Y-80404469D01*
X159834989Y-80401331D01*
X159835440Y-80400728D01*
X159791076Y-80356363D01*
X159778292Y-80321128D01*
X159770027Y-80279572D01*
X159770026Y-80279571D01*
X159768956Y-80274188D01*
X159768957Y-80225808D01*
X159774261Y-80199143D01*
X159780500Y-80167777D01*
X159780499Y-79832224D01*
X159770027Y-79779572D01*
X159770025Y-79779570D01*
X159770025Y-79779568D01*
X159730132Y-79719865D01*
X159670430Y-79679974D01*
X159670423Y-79679971D01*
X159617781Y-79669500D01*
X159617777Y-79669500D01*
X159490962Y-79669500D01*
X159423923Y-79649815D01*
X159378168Y-79597011D01*
X159368224Y-79527853D01*
X159397249Y-79464297D01*
X159428962Y-79438113D01*
X159455380Y-79422860D01*
X159556435Y-79364516D01*
X159664516Y-79256435D01*
X159740940Y-79124065D01*
X159780500Y-78976424D01*
X159780500Y-78823576D01*
X159740940Y-78675935D01*
X159664516Y-78543565D01*
X159616819Y-78495868D01*
X159583334Y-78434545D01*
X159580500Y-78408187D01*
X159580500Y-78391813D01*
X159600185Y-78324774D01*
X159616819Y-78304132D01*
X159664516Y-78256435D01*
X159740940Y-78124065D01*
X159780500Y-77976424D01*
X159780500Y-77823576D01*
X159740940Y-77675935D01*
X159664516Y-77543565D01*
X159556435Y-77435484D01*
X159424065Y-77359060D01*
X159276424Y-77319500D01*
X159123576Y-77319500D01*
X158975935Y-77359060D01*
X158975932Y-77359061D01*
X158843568Y-77435482D01*
X158843562Y-77435486D01*
X158735486Y-77543562D01*
X158735482Y-77543568D01*
X158659061Y-77675932D01*
X158659060Y-77675935D01*
X158619500Y-77823576D01*
X158619500Y-77976424D01*
X158659060Y-78124065D01*
X158735484Y-78256435D01*
X158735486Y-78256437D01*
X158783181Y-78304132D01*
X158816666Y-78365455D01*
X158819500Y-78391813D01*
X158819500Y-78408187D01*
X158799815Y-78475226D01*
X158783181Y-78495868D01*
X158735486Y-78543562D01*
X158735482Y-78543568D01*
X158659061Y-78675932D01*
X158659060Y-78675935D01*
X158619500Y-78823576D01*
X158619500Y-78891029D01*
X158599815Y-78958068D01*
X158583185Y-78978706D01*
X158566368Y-78995524D01*
X158495525Y-79066366D01*
X158495523Y-79066368D01*
X158462213Y-79124065D01*
X158445431Y-79153133D01*
X158419500Y-79249906D01*
X158419500Y-79249908D01*
X158419500Y-79545500D01*
X158399815Y-79612539D01*
X158347011Y-79658294D01*
X158295500Y-79669500D01*
X158124000Y-79669500D01*
X158056961Y-79649815D01*
X158011206Y-79597011D01*
X158000000Y-79545500D01*
X158000000Y-78911628D01*
X158019685Y-78844589D01*
X158024303Y-78838858D01*
X158051242Y-78798541D01*
X158070027Y-78770428D01*
X158080500Y-78717777D01*
X158080499Y-77882224D01*
X158070027Y-77829572D01*
X158070025Y-77829569D01*
X158070025Y-77829568D01*
X158030132Y-77769865D01*
X157970430Y-77729974D01*
X157970423Y-77729971D01*
X157917780Y-77719500D01*
X156082225Y-77719500D01*
X156029571Y-77729973D01*
X156029568Y-77729974D01*
X155969865Y-77769867D01*
X155929974Y-77829569D01*
X155929971Y-77829576D01*
X155919500Y-77882218D01*
X155919500Y-78717774D01*
X155929973Y-78770428D01*
X155929974Y-78770431D01*
X155976652Y-78840288D01*
X155973683Y-78842271D01*
X155997161Y-78885245D01*
X156000000Y-78911628D01*
X156000000Y-79226000D01*
X155980315Y-79293039D01*
X155927511Y-79338794D01*
X155876000Y-79350000D01*
X155350000Y-79350000D01*
X155350000Y-79876000D01*
X155330315Y-79943039D01*
X155277511Y-79988794D01*
X155226000Y-80000000D01*
X155174000Y-80000000D01*
X155106961Y-79980315D01*
X155061206Y-79927511D01*
X155050000Y-79876000D01*
X155050000Y-79350000D01*
X154352155Y-79350000D01*
X154292627Y-79356401D01*
X154292620Y-79356403D01*
X154157913Y-79406645D01*
X154157906Y-79406649D01*
X154042812Y-79492809D01*
X153977310Y-79580308D01*
X153921376Y-79622178D01*
X153851684Y-79627162D01*
X153790363Y-79593677D01*
X153587449Y-79390763D01*
X153553964Y-79329440D01*
X153558948Y-79259748D01*
X153560570Y-79255628D01*
X153569735Y-79233502D01*
X153569735Y-79233501D01*
X153569737Y-79233497D01*
X153600500Y-79078842D01*
X153600500Y-75121158D01*
X153598078Y-75108979D01*
X153598077Y-75108972D01*
X153598077Y-75108971D01*
X153569738Y-74966507D01*
X153569737Y-74966506D01*
X153569737Y-74966502D01*
X153545799Y-74908711D01*
X153545799Y-74908710D01*
X153509397Y-74820827D01*
X153509390Y-74820814D01*
X153421790Y-74689712D01*
X153394292Y-74662214D01*
X153310289Y-74578211D01*
X150140238Y-71408160D01*
X146956984Y-68224905D01*
X146956980Y-68224902D01*
X146825877Y-68137301D01*
X146825864Y-68137294D01*
X146680193Y-68076956D01*
X146680183Y-68076953D01*
X146555371Y-68052126D01*
X146510672Y-68033611D01*
X146400600Y-67960063D01*
X146400597Y-67960061D01*
X146400595Y-67960060D01*
X146400592Y-67960058D01*
X146400587Y-67960056D01*
X146218520Y-67884642D01*
X146218510Y-67884639D01*
X146025224Y-67846192D01*
X146025222Y-67846192D01*
X145828140Y-67846192D01*
X145828138Y-67846192D01*
X145634851Y-67884639D01*
X145634841Y-67884642D01*
X145452773Y-67960056D01*
X145452760Y-67960063D01*
X145288899Y-68069552D01*
X145288895Y-68069555D01*
X145149544Y-68208906D01*
X145149541Y-68208910D01*
X145040052Y-68372771D01*
X145040047Y-68372780D01*
X144975063Y-68529668D01*
X144931222Y-68584071D01*
X144864928Y-68606136D01*
X144813050Y-68596776D01*
X144720623Y-68558492D01*
X144720613Y-68558489D01*
X144527327Y-68520042D01*
X144527325Y-68520042D01*
X144330243Y-68520042D01*
X144330241Y-68520042D01*
X144136954Y-68558489D01*
X144136944Y-68558492D01*
X143954876Y-68633906D01*
X143954863Y-68633913D01*
X143791002Y-68743402D01*
X143790998Y-68743405D01*
X143651647Y-68882756D01*
X143651644Y-68882760D01*
X143542155Y-69046621D01*
X143542148Y-69046634D01*
X143466734Y-69228702D01*
X143466731Y-69228712D01*
X143428284Y-69421998D01*
X143428284Y-69422001D01*
X143428284Y-69619083D01*
X143428284Y-69619085D01*
X143428283Y-69619085D01*
X143466731Y-69812371D01*
X143466734Y-69812381D01*
X143542148Y-69994449D01*
X143542155Y-69994462D01*
X143651644Y-70158323D01*
X143651647Y-70158327D01*
X143790998Y-70297678D01*
X143791002Y-70297681D01*
X143954863Y-70407170D01*
X143954876Y-70407177D01*
X144133992Y-70481368D01*
X144188396Y-70525208D01*
X144210461Y-70591502D01*
X144193182Y-70659202D01*
X144142045Y-70706813D01*
X144110732Y-70717546D01*
X144008170Y-70737947D01*
X144008160Y-70737950D01*
X143826092Y-70813364D01*
X143826079Y-70813371D01*
X143662218Y-70922860D01*
X143662214Y-70922863D01*
X143522863Y-71062214D01*
X143522860Y-71062218D01*
X143413371Y-71226079D01*
X143413364Y-71226092D01*
X143337950Y-71408160D01*
X143337947Y-71408170D01*
X143299500Y-71601456D01*
X143299500Y-71601459D01*
X143299500Y-71798541D01*
X143299500Y-71798543D01*
X143299499Y-71798543D01*
X143337947Y-71991829D01*
X143337950Y-71991839D01*
X143413364Y-72173907D01*
X143413371Y-72173920D01*
X143522860Y-72337781D01*
X143522863Y-72337785D01*
X143649309Y-72464231D01*
X143682794Y-72525554D01*
X143677810Y-72595246D01*
X143649309Y-72639593D01*
X143520126Y-72768775D01*
X143520123Y-72768779D01*
X143410634Y-72932640D01*
X143410627Y-72932653D01*
X143335213Y-73114721D01*
X143335210Y-73114731D01*
X143296763Y-73308017D01*
X143296763Y-73308020D01*
X143296763Y-73505102D01*
X143296763Y-73505104D01*
X143296762Y-73505104D01*
X143335210Y-73698390D01*
X143335213Y-73698400D01*
X143410627Y-73880468D01*
X143410634Y-73880481D01*
X143520123Y-74044342D01*
X143520126Y-74044346D01*
X143659480Y-74183700D01*
X143760340Y-74251092D01*
X143805145Y-74304704D01*
X143813852Y-74374029D01*
X143783698Y-74437056D01*
X143760341Y-74457295D01*
X143662220Y-74522858D01*
X143662214Y-74522863D01*
X143522863Y-74662214D01*
X143522860Y-74662218D01*
X143413371Y-74826079D01*
X143413364Y-74826092D01*
X143337950Y-75008160D01*
X143337947Y-75008170D01*
X143299500Y-75201456D01*
X143299500Y-75201459D01*
X143299500Y-75398541D01*
X143299500Y-75398543D01*
X143299499Y-75398543D01*
X143337947Y-75591829D01*
X143337950Y-75591839D01*
X143413364Y-75773907D01*
X143413371Y-75773920D01*
X143522860Y-75937781D01*
X143522863Y-75937785D01*
X143662214Y-76077136D01*
X143662218Y-76077139D01*
X143826079Y-76186628D01*
X143826092Y-76186635D01*
X144008160Y-76262049D01*
X144008165Y-76262051D01*
X144008169Y-76262051D01*
X144008170Y-76262052D01*
X144201456Y-76300500D01*
X144201459Y-76300500D01*
X144398543Y-76300500D01*
X144528582Y-76274632D01*
X144591835Y-76262051D01*
X144612965Y-76253298D01*
X144682429Y-76245827D01*
X144744910Y-76277099D01*
X144748099Y-76280177D01*
X147163181Y-78695259D01*
X147196666Y-78756582D01*
X147199500Y-78782940D01*
X147199500Y-79238387D01*
X147179815Y-79305426D01*
X147127011Y-79351181D01*
X147057853Y-79361125D01*
X147028049Y-79352949D01*
X147015774Y-79347865D01*
X146991835Y-79337949D01*
X146991833Y-79337948D01*
X146991829Y-79337947D01*
X146798543Y-79299500D01*
X146798541Y-79299500D01*
X146688692Y-79299500D01*
X146688691Y-79299500D01*
X143265098Y-79299500D01*
X143217646Y-79290061D01*
X143091839Y-79237950D01*
X143091829Y-79237947D01*
X142898543Y-79199500D01*
X142898541Y-79199500D01*
X142701459Y-79199500D01*
X142701457Y-79199500D01*
X142508170Y-79237947D01*
X142508160Y-79237950D01*
X142326092Y-79313364D01*
X142326079Y-79313371D01*
X142162218Y-79422860D01*
X142162214Y-79422863D01*
X142022863Y-79562214D01*
X142022860Y-79562218D01*
X141913371Y-79726079D01*
X141913364Y-79726092D01*
X141837950Y-79908160D01*
X141837947Y-79908170D01*
X141799500Y-80101456D01*
X141799500Y-80101459D01*
X141799500Y-80298541D01*
X141799500Y-80298543D01*
X141799499Y-80298543D01*
X141837947Y-80491829D01*
X141837950Y-80491839D01*
X141913364Y-80673907D01*
X141913371Y-80673920D01*
X142022860Y-80837781D01*
X142022863Y-80837785D01*
X142162214Y-80977136D01*
X142162218Y-80977139D01*
X142326079Y-81086628D01*
X142326092Y-81086635D01*
X142485517Y-81152670D01*
X142508165Y-81162051D01*
X142508169Y-81162051D01*
X142508170Y-81162052D01*
X142701456Y-81200500D01*
X142701459Y-81200500D01*
X142898543Y-81200500D01*
X143028582Y-81174632D01*
X143091835Y-81162051D01*
X143189981Y-81121398D01*
X143217646Y-81109939D01*
X143265098Y-81100500D01*
X146059565Y-81100500D01*
X146126604Y-81120185D01*
X146128456Y-81121398D01*
X146226086Y-81186632D01*
X146291301Y-81213644D01*
X146345703Y-81257484D01*
X146367769Y-81323777D01*
X146350491Y-81391477D01*
X146299354Y-81439088D01*
X146282167Y-81446136D01*
X146177550Y-81480128D01*
X146023210Y-81558769D01*
X146023207Y-81558770D01*
X145999745Y-81575818D01*
X145933939Y-81599298D01*
X145926859Y-81599500D01*
X139731806Y-81599500D01*
X139664767Y-81579815D01*
X139628704Y-81544391D01*
X139596558Y-81496282D01*
X139596555Y-81496278D01*
X139453721Y-81353444D01*
X139453717Y-81353441D01*
X139428489Y-81336584D01*
X139383684Y-81282971D01*
X139373380Y-81233482D01*
X139373380Y-68717636D01*
X139393065Y-68650597D01*
X139445869Y-68604842D01*
X139449909Y-68603083D01*
X139453585Y-68601561D01*
X139458102Y-68598543D01*
X141399499Y-68598543D01*
X141437947Y-68791829D01*
X141437950Y-68791839D01*
X141513364Y-68973907D01*
X141513371Y-68973920D01*
X141622860Y-69137781D01*
X141622863Y-69137785D01*
X141762214Y-69277136D01*
X141762218Y-69277139D01*
X141926079Y-69386628D01*
X141926092Y-69386635D01*
X142026298Y-69428141D01*
X142108165Y-69462051D01*
X142108169Y-69462051D01*
X142108170Y-69462052D01*
X142301456Y-69500500D01*
X142301459Y-69500500D01*
X142498543Y-69500500D01*
X142632287Y-69473896D01*
X142691835Y-69462051D01*
X142873914Y-69386632D01*
X143037782Y-69277139D01*
X143177139Y-69137782D01*
X143286632Y-68973914D01*
X143362051Y-68791835D01*
X143381672Y-68693194D01*
X143400500Y-68598543D01*
X143400500Y-68401456D01*
X143362052Y-68208170D01*
X143362051Y-68208169D01*
X143362051Y-68208165D01*
X143352738Y-68185681D01*
X143286635Y-68026092D01*
X143286628Y-68026079D01*
X143177139Y-67862218D01*
X143177136Y-67862214D01*
X143037785Y-67722863D01*
X143037781Y-67722860D01*
X142873920Y-67613371D01*
X142873907Y-67613364D01*
X142691839Y-67537950D01*
X142691829Y-67537947D01*
X142498543Y-67499500D01*
X142498541Y-67499500D01*
X142301459Y-67499500D01*
X142301457Y-67499500D01*
X142108170Y-67537947D01*
X142108160Y-67537950D01*
X141926092Y-67613364D01*
X141926079Y-67613371D01*
X141762218Y-67722860D01*
X141762214Y-67722863D01*
X141622863Y-67862214D01*
X141622860Y-67862218D01*
X141513371Y-68026079D01*
X141513364Y-68026092D01*
X141437950Y-68208160D01*
X141437947Y-68208170D01*
X141399500Y-68401456D01*
X141399500Y-68401459D01*
X141399500Y-68598541D01*
X141399500Y-68598543D01*
X141399499Y-68598543D01*
X139458102Y-68598543D01*
X139596979Y-68505748D01*
X139718925Y-68383802D01*
X139735096Y-68359599D01*
X139757230Y-68326476D01*
X139814734Y-68240414D01*
X139814734Y-68240413D01*
X139814738Y-68240408D01*
X139880735Y-68081077D01*
X139914380Y-67911932D01*
X139914380Y-67739474D01*
X139914380Y-67739471D01*
X139914379Y-67739469D01*
X139902846Y-67681490D01*
X139880735Y-67570329D01*
X139824089Y-67433576D01*
X139817035Y-67410322D01*
X139802051Y-67334988D01*
X139734461Y-67171810D01*
X139726635Y-67152915D01*
X139726628Y-67152902D01*
X139617139Y-66989041D01*
X139617136Y-66989037D01*
X139477785Y-66849686D01*
X139477781Y-66849683D01*
X139313920Y-66740194D01*
X139313907Y-66740187D01*
X139131839Y-66664773D01*
X139131829Y-66664770D01*
X138938543Y-66626323D01*
X138938541Y-66626323D01*
X138741459Y-66626323D01*
X138741457Y-66626323D01*
X138548170Y-66664770D01*
X138548160Y-66664773D01*
X138366092Y-66740187D01*
X138366079Y-66740194D01*
X138202218Y-66849683D01*
X138202214Y-66849686D01*
X138062863Y-66989037D01*
X138062860Y-66989041D01*
X137953371Y-67152902D01*
X137953364Y-67152915D01*
X137877950Y-67334983D01*
X137877947Y-67334993D01*
X137839500Y-67528279D01*
X137839500Y-67528282D01*
X137839500Y-67725364D01*
X137839500Y-67725366D01*
X137839499Y-67725366D01*
X137877947Y-67918652D01*
X137877950Y-67918662D01*
X137953364Y-68100730D01*
X137953371Y-68100743D01*
X138062860Y-68264604D01*
X138062863Y-68264608D01*
X138202214Y-68403959D01*
X138202218Y-68403962D01*
X138366079Y-68513451D01*
X138366092Y-68513458D01*
X138466040Y-68554857D01*
X138548165Y-68588874D01*
X138577059Y-68594621D01*
X138604571Y-68600094D01*
X138666482Y-68632479D01*
X138701056Y-68693194D01*
X138704380Y-68721711D01*
X138704380Y-81021664D01*
X138684695Y-81088703D01*
X138631891Y-81134458D01*
X138604572Y-81143281D01*
X138500878Y-81163907D01*
X138500872Y-81163909D01*
X138314247Y-81241212D01*
X138314237Y-81241217D01*
X138146283Y-81353441D01*
X138118774Y-81380950D01*
X138057450Y-81414434D01*
X137987759Y-81409448D01*
X137983692Y-81407848D01*
X137926535Y-81384174D01*
X137926528Y-81384172D01*
X137855306Y-81370005D01*
X137793395Y-81337620D01*
X137764937Y-81295840D01*
X137705635Y-81152670D01*
X137705628Y-81152657D01*
X137596139Y-80988796D01*
X137596136Y-80988792D01*
X137456782Y-80849438D01*
X137299691Y-80744474D01*
X137254886Y-80690862D01*
X137254021Y-80688825D01*
X137206020Y-80572941D01*
X137206018Y-80572939D01*
X137205530Y-80571759D01*
X137201423Y-80563078D01*
X137171690Y-80491294D01*
X137164233Y-80480134D01*
X137062197Y-80327425D01*
X136933915Y-80199143D01*
X136900430Y-80137820D01*
X136905414Y-80068128D01*
X136907018Y-80064052D01*
X136942973Y-79977251D01*
X136979500Y-79793616D01*
X136979500Y-79606384D01*
X136942973Y-79422749D01*
X136887554Y-79288956D01*
X136871323Y-79249771D01*
X136871318Y-79249762D01*
X136767302Y-79094092D01*
X136767299Y-79094088D01*
X136634911Y-78961700D01*
X136634907Y-78961697D01*
X136479237Y-78857681D01*
X136479228Y-78857676D01*
X136306251Y-78786027D01*
X136306243Y-78786025D01*
X136122620Y-78749500D01*
X136122616Y-78749500D01*
X135935384Y-78749500D01*
X135935379Y-78749500D01*
X135751756Y-78786025D01*
X135751748Y-78786027D01*
X135578767Y-78857678D01*
X135573399Y-78860548D01*
X135572850Y-78859522D01*
X135512114Y-78878537D01*
X135509906Y-78878557D01*
X132664576Y-78878557D01*
X132597537Y-78858872D01*
X132576895Y-78842238D01*
X125096839Y-71362181D01*
X125063354Y-71300858D01*
X125068338Y-71231166D01*
X125110210Y-71175233D01*
X125175674Y-71150816D01*
X125184520Y-71150500D01*
X125338693Y-71150500D01*
X125338694Y-71150499D01*
X125512666Y-71115895D01*
X125676547Y-71048012D01*
X125824036Y-70949464D01*
X127793992Y-68979506D01*
X133133978Y-68979506D01*
X133133978Y-69100494D01*
X133165292Y-69217360D01*
X133225786Y-69322140D01*
X133311338Y-69407692D01*
X133416118Y-69468186D01*
X133532984Y-69499500D01*
X133532986Y-69499500D01*
X133653970Y-69499500D01*
X133653972Y-69499500D01*
X133770838Y-69468186D01*
X133875618Y-69407692D01*
X133961170Y-69322140D01*
X134021664Y-69217360D01*
X134052978Y-69100494D01*
X134052978Y-68979506D01*
X134021664Y-68862640D01*
X133961170Y-68757860D01*
X133875618Y-68672308D01*
X133770838Y-68611814D01*
X133653972Y-68580500D01*
X133532984Y-68580500D01*
X133416118Y-68611814D01*
X133416117Y-68611814D01*
X133311339Y-68672307D01*
X133311336Y-68672309D01*
X133225787Y-68757858D01*
X133225785Y-68757861D01*
X133165292Y-68862639D01*
X133165292Y-68862640D01*
X133133978Y-68979506D01*
X127793992Y-68979506D01*
X128436680Y-68336818D01*
X128498003Y-68303334D01*
X128524361Y-68300500D01*
X135383872Y-68300500D01*
X135450911Y-68320185D01*
X135452763Y-68321398D01*
X135470779Y-68333436D01*
X135470792Y-68333443D01*
X135652860Y-68408857D01*
X135652865Y-68408859D01*
X135652869Y-68408859D01*
X135652870Y-68408860D01*
X135846156Y-68447308D01*
X135846159Y-68447308D01*
X136043243Y-68447308D01*
X136183040Y-68419500D01*
X136236535Y-68408859D01*
X136377355Y-68350529D01*
X136418607Y-68333443D01*
X136418607Y-68333442D01*
X136418614Y-68333440D01*
X136582482Y-68223947D01*
X136721839Y-68084590D01*
X136831332Y-67920722D01*
X136832190Y-67918652D01*
X136887125Y-67786025D01*
X136906751Y-67738643D01*
X136919332Y-67675390D01*
X136945200Y-67545351D01*
X136945200Y-67348264D01*
X136906752Y-67154978D01*
X136906751Y-67154977D01*
X136906751Y-67154973D01*
X136896816Y-67130988D01*
X136831335Y-66972900D01*
X136831328Y-66972887D01*
X136750264Y-66851567D01*
X136729386Y-66784890D01*
X136747870Y-66717509D01*
X136784471Y-66679577D01*
X136937782Y-66577139D01*
X137077139Y-66437782D01*
X137186632Y-66273914D01*
X137262051Y-66091835D01*
X137300500Y-65898541D01*
X137300500Y-65701459D01*
X137300500Y-65701456D01*
X137262052Y-65508170D01*
X137262051Y-65508169D01*
X137262051Y-65508165D01*
X137262049Y-65508160D01*
X137260283Y-65502338D01*
X137262904Y-65501542D01*
X137256649Y-65443842D01*
X137287868Y-65381335D01*
X137309800Y-65362653D01*
X137437782Y-65277139D01*
X137577139Y-65137782D01*
X137686632Y-64973914D01*
X137757063Y-64803875D01*
X137800901Y-64749476D01*
X137847428Y-64729714D01*
X137891835Y-64720882D01*
X138073914Y-64645463D01*
X138144135Y-64598543D01*
X144599499Y-64598543D01*
X144637947Y-64791829D01*
X144637950Y-64791839D01*
X144713364Y-64973907D01*
X144713371Y-64973920D01*
X144822860Y-65137781D01*
X144822863Y-65137785D01*
X144962214Y-65277136D01*
X144962218Y-65277139D01*
X145126079Y-65386628D01*
X145126092Y-65386635D01*
X145264204Y-65443842D01*
X145308165Y-65462051D01*
X145308169Y-65462051D01*
X145308170Y-65462052D01*
X145501456Y-65500500D01*
X145501459Y-65500500D01*
X145698543Y-65500500D01*
X145828582Y-65474632D01*
X145891835Y-65462051D01*
X146073914Y-65386632D01*
X146073920Y-65386628D01*
X146096714Y-65371398D01*
X146163391Y-65350520D01*
X146165605Y-65350500D01*
X160434395Y-65350500D01*
X160501434Y-65370185D01*
X160503286Y-65371398D01*
X160526079Y-65386628D01*
X160526092Y-65386635D01*
X160664204Y-65443842D01*
X160708165Y-65462051D01*
X160708169Y-65462051D01*
X160708170Y-65462052D01*
X160901456Y-65500500D01*
X160901459Y-65500500D01*
X161098543Y-65500500D01*
X161228582Y-65474632D01*
X161291835Y-65462051D01*
X161473914Y-65386632D01*
X161637782Y-65277139D01*
X161777139Y-65137782D01*
X161886632Y-64973914D01*
X161888885Y-64968476D01*
X161919697Y-64894088D01*
X161962051Y-64791835D01*
X161991167Y-64645463D01*
X162000500Y-64598543D01*
X162000500Y-64401456D01*
X161962052Y-64208170D01*
X161962051Y-64208169D01*
X161962051Y-64208165D01*
X161917952Y-64101700D01*
X161886635Y-64026092D01*
X161886628Y-64026079D01*
X161777139Y-63862218D01*
X161777136Y-63862214D01*
X161637785Y-63722863D01*
X161637781Y-63722860D01*
X161473920Y-63613371D01*
X161473907Y-63613364D01*
X161291839Y-63537950D01*
X161291829Y-63537947D01*
X161098543Y-63499500D01*
X161098541Y-63499500D01*
X160901459Y-63499500D01*
X160901457Y-63499500D01*
X160708170Y-63537947D01*
X160708160Y-63537950D01*
X160526092Y-63613364D01*
X160526079Y-63613371D01*
X160503286Y-63628602D01*
X160436609Y-63649480D01*
X160434395Y-63649500D01*
X155624500Y-63649500D01*
X155557461Y-63629815D01*
X155511706Y-63577011D01*
X155500500Y-63525500D01*
X155500500Y-63501456D01*
X155462052Y-63308170D01*
X155462051Y-63308169D01*
X155462051Y-63308165D01*
X155455579Y-63292539D01*
X155386635Y-63126092D01*
X155386628Y-63126079D01*
X155277139Y-62962218D01*
X155277136Y-62962214D01*
X155137785Y-62822863D01*
X155137781Y-62822860D01*
X154973920Y-62713371D01*
X154973907Y-62713364D01*
X154791839Y-62637950D01*
X154791829Y-62637947D01*
X154598543Y-62599500D01*
X154598541Y-62599500D01*
X154401459Y-62599500D01*
X154401457Y-62599500D01*
X154208170Y-62637947D01*
X154208160Y-62637950D01*
X154026092Y-62713364D01*
X154026079Y-62713371D01*
X154003286Y-62728602D01*
X153936609Y-62749480D01*
X153934395Y-62749500D01*
X150090605Y-62749500D01*
X150023566Y-62729815D01*
X150021714Y-62728602D01*
X149998920Y-62713371D01*
X149998907Y-62713364D01*
X149816839Y-62637950D01*
X149816829Y-62637947D01*
X149623543Y-62599500D01*
X149623541Y-62599500D01*
X149426459Y-62599500D01*
X149426457Y-62599500D01*
X149233170Y-62637947D01*
X149233160Y-62637950D01*
X149051092Y-62713364D01*
X149051079Y-62713371D01*
X148887218Y-62822860D01*
X148887214Y-62822863D01*
X148747863Y-62962214D01*
X148747860Y-62962218D01*
X148638371Y-63126079D01*
X148638364Y-63126092D01*
X148562950Y-63308160D01*
X148562947Y-63308170D01*
X148524500Y-63501456D01*
X148524500Y-63525500D01*
X148504815Y-63592539D01*
X148452011Y-63638294D01*
X148400500Y-63649500D01*
X146165605Y-63649500D01*
X146098566Y-63629815D01*
X146096714Y-63628602D01*
X146073920Y-63613371D01*
X146073907Y-63613364D01*
X145891839Y-63537950D01*
X145891829Y-63537947D01*
X145698543Y-63499500D01*
X145698541Y-63499500D01*
X145501459Y-63499500D01*
X145501457Y-63499500D01*
X145308170Y-63537947D01*
X145308160Y-63537950D01*
X145126092Y-63613364D01*
X145126079Y-63613371D01*
X144962218Y-63722860D01*
X144962214Y-63722863D01*
X144822863Y-63862214D01*
X144822860Y-63862218D01*
X144713371Y-64026079D01*
X144713364Y-64026092D01*
X144637950Y-64208160D01*
X144637947Y-64208170D01*
X144599500Y-64401456D01*
X144599500Y-64401459D01*
X144599500Y-64598541D01*
X144599500Y-64598543D01*
X144599499Y-64598543D01*
X138144135Y-64598543D01*
X138237782Y-64535970D01*
X138377139Y-64396613D01*
X138393029Y-64372831D01*
X138424003Y-64326477D01*
X138424003Y-64326476D01*
X138486628Y-64232751D01*
X138486628Y-64232750D01*
X138486632Y-64232745D01*
X138562051Y-64050666D01*
X138599853Y-63860626D01*
X138600500Y-63857374D01*
X138600500Y-63660287D01*
X138578356Y-63548965D01*
X138584583Y-63479373D01*
X138627446Y-63424196D01*
X138693335Y-63400951D01*
X138761332Y-63417019D01*
X138768864Y-63421671D01*
X138866079Y-63486628D01*
X138866092Y-63486635D01*
X139016572Y-63548965D01*
X139048165Y-63562051D01*
X139048169Y-63562051D01*
X139048170Y-63562052D01*
X139241456Y-63600500D01*
X139241459Y-63600500D01*
X139438543Y-63600500D01*
X139568582Y-63574632D01*
X139631835Y-63562051D01*
X139813914Y-63486632D01*
X139977782Y-63377139D01*
X140117139Y-63237782D01*
X140226632Y-63073914D01*
X140302051Y-62891835D01*
X140315771Y-62822860D01*
X140340500Y-62698543D01*
X140340500Y-62675237D01*
X140360185Y-62608198D01*
X140395606Y-62572137D01*
X140537782Y-62477139D01*
X140677139Y-62337782D01*
X140786632Y-62173914D01*
X140862051Y-61991835D01*
X140900500Y-61798541D01*
X140900500Y-61601459D01*
X140900500Y-61601456D01*
X140876334Y-61479971D01*
X140864094Y-61418436D01*
X140870321Y-61348846D01*
X140913184Y-61293669D01*
X140916778Y-61291172D01*
X140937782Y-61277139D01*
X141077139Y-61137782D01*
X141186632Y-60973914D01*
X141186634Y-60973907D01*
X141189502Y-60968544D01*
X141191381Y-60969548D01*
X141229159Y-60922655D01*
X141292525Y-60901553D01*
X141292481Y-60901097D01*
X141294492Y-60900898D01*
X141295450Y-60900580D01*
X141298241Y-60900529D01*
X141298543Y-60900500D01*
X141428582Y-60874632D01*
X141491835Y-60862051D01*
X141673914Y-60786632D01*
X141837782Y-60677139D01*
X141977139Y-60537782D01*
X142086632Y-60373914D01*
X142162051Y-60191835D01*
X142192370Y-60039414D01*
X142200500Y-59998543D01*
X142200500Y-59801456D01*
X142162052Y-59608170D01*
X142162051Y-59608169D01*
X142162051Y-59608165D01*
X142162049Y-59608160D01*
X142086635Y-59426092D01*
X142086628Y-59426079D01*
X141977139Y-59262218D01*
X141977136Y-59262214D01*
X141837787Y-59122865D01*
X141834725Y-59120352D01*
X141833552Y-59118630D01*
X141833475Y-59118553D01*
X141833489Y-59118538D01*
X141795392Y-59062605D01*
X141793523Y-58992761D01*
X141829711Y-58932993D01*
X141892468Y-58902278D01*
X141913392Y-58900500D01*
X142311309Y-58900500D01*
X147488033Y-58900500D01*
X147555072Y-58920185D01*
X147600827Y-58972989D01*
X147610771Y-59042147D01*
X147610506Y-59043897D01*
X147599500Y-59113388D01*
X147599500Y-59286610D01*
X147621591Y-59426092D01*
X147626598Y-59457701D01*
X147680127Y-59622445D01*
X147758768Y-59776788D01*
X147860586Y-59916928D01*
X147983072Y-60039414D01*
X148123212Y-60141232D01*
X148277555Y-60219873D01*
X148442299Y-60273402D01*
X148613389Y-60300500D01*
X148613390Y-60300500D01*
X148786610Y-60300500D01*
X148786611Y-60300500D01*
X148957701Y-60273402D01*
X149122445Y-60219873D01*
X149276788Y-60141232D01*
X149416928Y-60039414D01*
X149539414Y-59916928D01*
X149641232Y-59776788D01*
X149719873Y-59622445D01*
X149773402Y-59457701D01*
X149800500Y-59286611D01*
X149800500Y-59113389D01*
X149773402Y-58942299D01*
X149719873Y-58777555D01*
X149671301Y-58682227D01*
X149658406Y-58613560D01*
X149669038Y-58577381D01*
X149668006Y-58576954D01*
X149669870Y-58572452D01*
X149669870Y-58572448D01*
X149669873Y-58572445D01*
X149723402Y-58407701D01*
X149750500Y-58236611D01*
X149750500Y-58063389D01*
X149723402Y-57892299D01*
X149669873Y-57727555D01*
X149591232Y-57573212D01*
X149489414Y-57433072D01*
X149366928Y-57310586D01*
X149226788Y-57208768D01*
X149072445Y-57130127D01*
X148907701Y-57076598D01*
X148907699Y-57076597D01*
X148907698Y-57076597D01*
X148776271Y-57055781D01*
X148736611Y-57049500D01*
X148563389Y-57049500D01*
X148542810Y-57052759D01*
X148392298Y-57076597D01*
X148346820Y-57091374D01*
X148340491Y-57093431D01*
X148302174Y-57099500D01*
X147904206Y-57099500D01*
X147837167Y-57079815D01*
X147791412Y-57027011D01*
X147781733Y-56994898D01*
X147773402Y-56942302D01*
X147773402Y-56942301D01*
X147773402Y-56942299D01*
X147747577Y-56862818D01*
X147745582Y-56792977D01*
X147781663Y-56733144D01*
X147844364Y-56702316D01*
X147865508Y-56700500D01*
X147986610Y-56700500D01*
X147986611Y-56700500D01*
X148157701Y-56673402D01*
X148322445Y-56619873D01*
X148476788Y-56541232D01*
X148616928Y-56439414D01*
X148739414Y-56316928D01*
X148841232Y-56176788D01*
X148919873Y-56022445D01*
X148973402Y-55857701D01*
X149000500Y-55686611D01*
X149000500Y-55513389D01*
X148973402Y-55342299D01*
X148919873Y-55177555D01*
X148841232Y-55023212D01*
X148739414Y-54883072D01*
X148616928Y-54760586D01*
X148476788Y-54658768D01*
X148322445Y-54580127D01*
X148157701Y-54526598D01*
X148157699Y-54526597D01*
X148157697Y-54526597D01*
X148126034Y-54521582D01*
X148076542Y-54502211D01*
X148074037Y-54500537D01*
X148074036Y-54500536D01*
X148039711Y-54477601D01*
X147994907Y-54423990D01*
X147986200Y-54354665D01*
X148016354Y-54291638D01*
X148075797Y-54254918D01*
X148108603Y-54250500D01*
X148242026Y-54250500D01*
X148242027Y-54250500D01*
X148483076Y-54212321D01*
X148715185Y-54136904D01*
X148932639Y-54026106D01*
X149130083Y-53882655D01*
X149302319Y-53710419D01*
X149363642Y-53676934D01*
X149433334Y-53681918D01*
X149477681Y-53710419D01*
X149649918Y-53882656D01*
X149649923Y-53882660D01*
X149818712Y-54005291D01*
X149847361Y-54026106D01*
X150064815Y-54136904D01*
X150296924Y-54212321D01*
X150537973Y-54250500D01*
X150537974Y-54250500D01*
X150782026Y-54250500D01*
X150782027Y-54250500D01*
X151023076Y-54212321D01*
X151255185Y-54136904D01*
X151472639Y-54026106D01*
X151636313Y-53907190D01*
X151670075Y-53882661D01*
X151670075Y-53882660D01*
X151670083Y-53882655D01*
X151742957Y-53809780D01*
X151804276Y-53776298D01*
X151873968Y-53781282D01*
X151929901Y-53823153D01*
X151992809Y-53907187D01*
X151992812Y-53907190D01*
X152107906Y-53993350D01*
X152107913Y-53993354D01*
X152242620Y-54043596D01*
X152242627Y-54043598D01*
X152302155Y-54049999D01*
X152302172Y-54050000D01*
X152950000Y-54050000D01*
X152950000Y-53133012D01*
X153007007Y-53165925D01*
X153134174Y-53200000D01*
X153265826Y-53200000D01*
X153392993Y-53165925D01*
X153450000Y-53133012D01*
X153450000Y-54050000D01*
X154097828Y-54050000D01*
X154097844Y-54049999D01*
X154157372Y-54043598D01*
X154157379Y-54043596D01*
X154292086Y-53993354D01*
X154292093Y-53993350D01*
X154407187Y-53907190D01*
X154407190Y-53907187D01*
X154493350Y-53792093D01*
X154493354Y-53792086D01*
X154543596Y-53657379D01*
X154543598Y-53657372D01*
X154549999Y-53597844D01*
X154550000Y-53597827D01*
X154550000Y-52950000D01*
X153633012Y-52950000D01*
X153665925Y-52892993D01*
X153700000Y-52765826D01*
X153700000Y-52634174D01*
X153665925Y-52507007D01*
X153633012Y-52450000D01*
X154550000Y-52450000D01*
X154550000Y-52444500D01*
X154569685Y-52377461D01*
X154622489Y-52331706D01*
X154674000Y-52320500D01*
X156490339Y-52320500D01*
X156557378Y-52340185D01*
X156578020Y-52356819D01*
X156683072Y-52461871D01*
X156823212Y-52563689D01*
X156977555Y-52642330D01*
X157142299Y-52695859D01*
X157313389Y-52722957D01*
X157313390Y-52722957D01*
X157486610Y-52722957D01*
X157486611Y-52722957D01*
X157657701Y-52695859D01*
X157822445Y-52642330D01*
X157976788Y-52563689D01*
X158116928Y-52461871D01*
X158239414Y-52339385D01*
X158341232Y-52199245D01*
X158419873Y-52044902D01*
X158473402Y-51880158D01*
X158489652Y-51777558D01*
X158519581Y-51714425D01*
X158578892Y-51677493D01*
X158612125Y-51672957D01*
X160875931Y-51672957D01*
X160942970Y-51692642D01*
G37*
G04 #@! TD.AperFunction*
G04 #@! TA.AperFunction,Conductor*
G36*
X113693391Y-69437833D02*
G01*
X113694090Y-69438300D01*
X113694092Y-69438302D01*
X113849769Y-69542322D01*
X114022749Y-69613973D01*
X114206379Y-69650499D01*
X114206383Y-69650500D01*
X114206384Y-69650500D01*
X114292092Y-69650500D01*
X114359131Y-69670185D01*
X114404886Y-69722989D01*
X114406653Y-69727047D01*
X114457676Y-69850227D01*
X114457681Y-69850237D01*
X114561697Y-70005907D01*
X114561700Y-70005911D01*
X114694091Y-70138302D01*
X114853928Y-70245101D01*
X114898733Y-70298713D01*
X114907440Y-70368038D01*
X114897212Y-70398324D01*
X114897999Y-70398650D01*
X114838844Y-70541460D01*
X114795002Y-70595863D01*
X114793174Y-70597108D01*
X114651345Y-70691875D01*
X114651341Y-70691878D01*
X114518953Y-70824266D01*
X114518950Y-70824270D01*
X114414934Y-70979940D01*
X114414929Y-70979949D01*
X114343280Y-71152926D01*
X114343278Y-71152934D01*
X114306753Y-71336557D01*
X114306753Y-71523798D01*
X114343278Y-71707421D01*
X114343280Y-71707429D01*
X114414929Y-71880406D01*
X114414934Y-71880415D01*
X114453137Y-71937589D01*
X114474015Y-72004266D01*
X114455531Y-72071647D01*
X114437718Y-72094160D01*
X114386298Y-72145581D01*
X114282284Y-72301248D01*
X114282279Y-72301257D01*
X114210630Y-72474234D01*
X114210628Y-72474242D01*
X114174103Y-72657865D01*
X114174103Y-72845106D01*
X114210628Y-73028729D01*
X114210631Y-73028741D01*
X114249718Y-73123106D01*
X114257187Y-73192575D01*
X114249719Y-73218009D01*
X114236260Y-73250503D01*
X114236258Y-73250506D01*
X114199733Y-73434134D01*
X114199733Y-73621375D01*
X114236258Y-73804998D01*
X114236261Y-73805010D01*
X114296674Y-73950861D01*
X114304143Y-74020330D01*
X114272867Y-74082809D01*
X114269795Y-74085994D01*
X114161697Y-74194092D01*
X114057681Y-74349762D01*
X114057676Y-74349771D01*
X113986027Y-74522748D01*
X113986025Y-74522756D01*
X113949500Y-74706379D01*
X113949500Y-74893620D01*
X113965798Y-74975555D01*
X113959571Y-75045147D01*
X113958742Y-75047199D01*
X113886027Y-75222748D01*
X113886025Y-75222756D01*
X113849500Y-75406379D01*
X113849500Y-75593620D01*
X113886025Y-75777243D01*
X113886027Y-75777251D01*
X113957676Y-75950228D01*
X113957681Y-75950237D01*
X114061697Y-76105907D01*
X114061700Y-76105911D01*
X114194088Y-76238299D01*
X114194092Y-76238302D01*
X114349762Y-76342318D01*
X114355139Y-76345192D01*
X114354462Y-76346457D01*
X114403271Y-76385780D01*
X114425344Y-76452071D01*
X114408074Y-76519773D01*
X114389105Y-76544194D01*
X114172270Y-76761030D01*
X114078213Y-76855086D01*
X114078210Y-76855090D01*
X113990609Y-76986193D01*
X113990602Y-76986206D01*
X113930264Y-77131877D01*
X113930261Y-77131889D01*
X113899500Y-77286532D01*
X113899500Y-78059565D01*
X113879815Y-78126604D01*
X113878602Y-78128456D01*
X113813366Y-78226088D01*
X113739061Y-78405479D01*
X113695220Y-78459883D01*
X113628926Y-78481948D01*
X113561227Y-78464669D01*
X113513616Y-78413532D01*
X113500500Y-78358027D01*
X113500500Y-69540935D01*
X113520185Y-69473896D01*
X113572989Y-69428141D01*
X113642147Y-69418197D01*
X113693391Y-69437833D01*
G37*
G04 #@! TD.AperFunction*
G04 #@! TA.AperFunction,Conductor*
G36*
X113705703Y-66030058D02*
G01*
X113727602Y-66054880D01*
X113761697Y-66105908D01*
X113894088Y-66238299D01*
X113894092Y-66238302D01*
X114049762Y-66342318D01*
X114049775Y-66342325D01*
X114078879Y-66354380D01*
X114200853Y-66404903D01*
X114255257Y-66448744D01*
X114277322Y-66515038D01*
X114260043Y-66582737D01*
X114257575Y-66586652D01*
X114257315Y-66587139D01*
X114185664Y-66760120D01*
X114185662Y-66760128D01*
X114149137Y-66943751D01*
X114149137Y-67130992D01*
X114185662Y-67314615D01*
X114185665Y-67314627D01*
X114208669Y-67370163D01*
X114216138Y-67439632D01*
X114208670Y-67465065D01*
X114190012Y-67510111D01*
X114190011Y-67510114D01*
X114190011Y-67510115D01*
X114190010Y-67510118D01*
X114155922Y-67681490D01*
X114123537Y-67743401D01*
X114062822Y-67777975D01*
X114058496Y-67778916D01*
X114022756Y-67786025D01*
X114022748Y-67786027D01*
X113849771Y-67857676D01*
X113849762Y-67857681D01*
X113693391Y-67962166D01*
X113626713Y-67983044D01*
X113559333Y-67964559D01*
X113512643Y-67912581D01*
X113500500Y-67859064D01*
X113500500Y-66123771D01*
X113520185Y-66056732D01*
X113572989Y-66010977D01*
X113642147Y-66001033D01*
X113705703Y-66030058D01*
G37*
G04 #@! TD.AperFunction*
G04 #@! TA.AperFunction,Conductor*
G36*
X113705703Y-63145357D02*
G01*
X113734985Y-63182776D01*
X113814945Y-63339709D01*
X113842138Y-63377136D01*
X113916765Y-63479851D01*
X114039251Y-63602337D01*
X114179391Y-63704155D01*
X114216102Y-63722860D01*
X114333729Y-63782794D01*
X114333731Y-63782794D01*
X114333734Y-63782796D01*
X114498478Y-63836325D01*
X114503066Y-63837051D01*
X114566200Y-63866976D01*
X114603135Y-63926285D01*
X114602141Y-63996148D01*
X114563535Y-64054383D01*
X114552565Y-64062627D01*
X114494088Y-64101700D01*
X114361700Y-64234088D01*
X114361697Y-64234092D01*
X114257681Y-64389762D01*
X114257676Y-64389772D01*
X114186438Y-64561755D01*
X114142597Y-64616158D01*
X114119332Y-64628862D01*
X114049772Y-64657676D01*
X114049766Y-64657679D01*
X113894096Y-64761694D01*
X113894088Y-64761700D01*
X113761700Y-64894088D01*
X113761697Y-64894092D01*
X113727602Y-64945119D01*
X113673989Y-64989924D01*
X113604664Y-64998631D01*
X113541637Y-64968476D01*
X113504918Y-64909033D01*
X113500500Y-64876228D01*
X113500500Y-63239070D01*
X113520185Y-63172031D01*
X113572989Y-63126276D01*
X113642147Y-63116332D01*
X113705703Y-63145357D01*
G37*
G04 #@! TD.AperFunction*
G04 #@! TA.AperFunction,Conductor*
G36*
X116370911Y-49520185D02*
G01*
X116416666Y-49572989D01*
X116426610Y-49642147D01*
X116426350Y-49643861D01*
X116399500Y-49813389D01*
X116399500Y-49986611D01*
X116426598Y-50157701D01*
X116480127Y-50322445D01*
X116558768Y-50476788D01*
X116660586Y-50616928D01*
X116783072Y-50739414D01*
X116923212Y-50841232D01*
X116962774Y-50861390D01*
X116969889Y-50865015D01*
X117020685Y-50912990D01*
X117037480Y-50980811D01*
X117014943Y-51046945D01*
X116960228Y-51090397D01*
X116913594Y-51099500D01*
X116673141Y-51099500D01*
X116606102Y-51079815D01*
X116600255Y-51075818D01*
X116576792Y-51058770D01*
X116576789Y-51058769D01*
X116576790Y-51058769D01*
X116576788Y-51058768D01*
X116422445Y-50980127D01*
X116257701Y-50926598D01*
X116257699Y-50926597D01*
X116257698Y-50926597D01*
X116125775Y-50905703D01*
X116086611Y-50899500D01*
X115913389Y-50899500D01*
X115881192Y-50904599D01*
X115742301Y-50926597D01*
X115588318Y-50976629D01*
X115518476Y-50978624D01*
X115511682Y-50976629D01*
X115357698Y-50926597D01*
X115225775Y-50905703D01*
X115186611Y-50899500D01*
X115013389Y-50899500D01*
X114974225Y-50905703D01*
X114842302Y-50926597D01*
X114677552Y-50980128D01*
X114523211Y-51058768D01*
X114471050Y-51096666D01*
X114383072Y-51160586D01*
X114383070Y-51160588D01*
X114383069Y-51160588D01*
X114260588Y-51283069D01*
X114260588Y-51283070D01*
X114260586Y-51283072D01*
X114216859Y-51343256D01*
X114158768Y-51423211D01*
X114080128Y-51577552D01*
X114026597Y-51742302D01*
X114004764Y-51880155D01*
X113999500Y-51913389D01*
X113999500Y-52086611D01*
X114026598Y-52257701D01*
X114080127Y-52422445D01*
X114158768Y-52576788D01*
X114260586Y-52716928D01*
X114383072Y-52839414D01*
X114523212Y-52941232D01*
X114677555Y-53019873D01*
X114842299Y-53073402D01*
X115013389Y-53100500D01*
X115013390Y-53100500D01*
X115186610Y-53100500D01*
X115186611Y-53100500D01*
X115357701Y-53073402D01*
X115511685Y-53023368D01*
X115581522Y-53021374D01*
X115588272Y-53023355D01*
X115742299Y-53073402D01*
X115913389Y-53100500D01*
X115913390Y-53100500D01*
X116086610Y-53100500D01*
X116086611Y-53100500D01*
X116257701Y-53073402D01*
X116422445Y-53019873D01*
X116576788Y-52941232D01*
X116600255Y-52924181D01*
X116666061Y-52900702D01*
X116673141Y-52900500D01*
X123288693Y-52900500D01*
X123288694Y-52900499D01*
X123462666Y-52865895D01*
X123555503Y-52827439D01*
X123624971Y-52819970D01*
X123687451Y-52851244D01*
X123723104Y-52911332D01*
X123725429Y-52922601D01*
X123747678Y-53063073D01*
X123747679Y-53063076D01*
X123792168Y-53200000D01*
X123823097Y-53295187D01*
X123933893Y-53512638D01*
X123954596Y-53541133D01*
X123978075Y-53606940D01*
X123962249Y-53674994D01*
X123941959Y-53701699D01*
X123860585Y-53783073D01*
X123758768Y-53923211D01*
X123680128Y-54077552D01*
X123680127Y-54077554D01*
X123680127Y-54077555D01*
X123664192Y-54126597D01*
X123626597Y-54242302D01*
X123599500Y-54413389D01*
X123599500Y-54586610D01*
X123626597Y-54757698D01*
X123676629Y-54911682D01*
X123678624Y-54981524D01*
X123676629Y-54988318D01*
X123626597Y-55142301D01*
X123599500Y-55313389D01*
X123599500Y-55486611D01*
X123601390Y-55498541D01*
X123626597Y-55657697D01*
X123626597Y-55657699D01*
X123626598Y-55657701D01*
X123664358Y-55773914D01*
X123680128Y-55822447D01*
X123724368Y-55909274D01*
X123758768Y-55976788D01*
X123860586Y-56116928D01*
X123983072Y-56239414D01*
X124123212Y-56341232D01*
X124277555Y-56419873D01*
X124442299Y-56473402D01*
X124613389Y-56500500D01*
X124613390Y-56500500D01*
X124786610Y-56500500D01*
X124786611Y-56500500D01*
X124957701Y-56473402D01*
X125122445Y-56419873D01*
X125276788Y-56341232D01*
X125416928Y-56239414D01*
X125539414Y-56116928D01*
X125641232Y-55976788D01*
X125719873Y-55822445D01*
X125773402Y-55657701D01*
X125797571Y-55505101D01*
X125827500Y-55441968D01*
X125886811Y-55405036D01*
X125920044Y-55400500D01*
X128375638Y-55400500D01*
X128442677Y-55420185D01*
X128463319Y-55436819D01*
X131668553Y-58642052D01*
X131698803Y-58691414D01*
X131700467Y-58696537D01*
X131700470Y-58696544D01*
X131712017Y-58719206D01*
X131724913Y-58787875D01*
X131698636Y-58852616D01*
X131641529Y-58892872D01*
X131601532Y-58899500D01*
X126031779Y-58899500D01*
X125943441Y-58917072D01*
X125899272Y-58925858D01*
X125866054Y-58932465D01*
X125857806Y-58934106D01*
X125857805Y-58934106D01*
X125693932Y-59001983D01*
X125693919Y-59001990D01*
X125546439Y-59100534D01*
X125546437Y-59100537D01*
X121583292Y-63063681D01*
X121521969Y-63097166D01*
X121495611Y-63100000D01*
X120950000Y-63100000D01*
X120950000Y-63225500D01*
X120930315Y-63292539D01*
X120877511Y-63338294D01*
X120826000Y-63349500D01*
X120774000Y-63349500D01*
X120706961Y-63329815D01*
X120661206Y-63277011D01*
X120650000Y-63225500D01*
X120650000Y-63100000D01*
X120124000Y-63100000D01*
X120056961Y-63080315D01*
X120011206Y-63027511D01*
X120000000Y-62976000D01*
X120000000Y-62661628D01*
X120019685Y-62594589D01*
X120024303Y-62588858D01*
X120035478Y-62572134D01*
X120070027Y-62520428D01*
X120080500Y-62467777D01*
X120080499Y-61632224D01*
X120070027Y-61579572D01*
X120070025Y-61579569D01*
X120070025Y-61579568D01*
X120030132Y-61519865D01*
X119970430Y-61479974D01*
X119970423Y-61479971D01*
X119917780Y-61469500D01*
X118082225Y-61469500D01*
X118029571Y-61479973D01*
X118029568Y-61479974D01*
X117969865Y-61519867D01*
X117929974Y-61579569D01*
X117929971Y-61579576D01*
X117919500Y-61632218D01*
X117919500Y-62467774D01*
X117929973Y-62520428D01*
X117929974Y-62520431D01*
X117976652Y-62590288D01*
X117973683Y-62592271D01*
X117997161Y-62635245D01*
X118000000Y-62661628D01*
X118000000Y-63295500D01*
X117980315Y-63362539D01*
X117927511Y-63408294D01*
X117876000Y-63419500D01*
X116973945Y-63419500D01*
X116906906Y-63399815D01*
X116861151Y-63347011D01*
X116851624Y-63289859D01*
X116850500Y-63289859D01*
X116850500Y-63116232D01*
X116850499Y-63116228D01*
X116846707Y-63097166D01*
X116817816Y-62951918D01*
X116753703Y-62797137D01*
X116697730Y-62713368D01*
X116660626Y-62657837D01*
X116542162Y-62539373D01*
X116402860Y-62446295D01*
X116248082Y-62382184D01*
X116248074Y-62382182D01*
X116083771Y-62349500D01*
X116083767Y-62349500D01*
X115899261Y-62349500D01*
X115832222Y-62329815D01*
X115786467Y-62277011D01*
X115776523Y-62207853D01*
X115781327Y-62187192D01*
X115823402Y-62057701D01*
X115850500Y-61886611D01*
X115850500Y-61713389D01*
X115823402Y-61542299D01*
X115769873Y-61377555D01*
X115691232Y-61223212D01*
X115589414Y-61083072D01*
X115466928Y-60960586D01*
X115326788Y-60858768D01*
X115172445Y-60780127D01*
X115007701Y-60726598D01*
X115007699Y-60726597D01*
X115007698Y-60726597D01*
X114876271Y-60705781D01*
X114836611Y-60699500D01*
X114663389Y-60699500D01*
X114623728Y-60705781D01*
X114492302Y-60726597D01*
X114327552Y-60780128D01*
X114173211Y-60858768D01*
X114093256Y-60916859D01*
X114033072Y-60960586D01*
X114033070Y-60960588D01*
X114033069Y-60960588D01*
X113910588Y-61083069D01*
X113910588Y-61083070D01*
X113910586Y-61083072D01*
X113870837Y-61137782D01*
X113808768Y-61223211D01*
X113734985Y-61368020D01*
X113687011Y-61418816D01*
X113619190Y-61435611D01*
X113553055Y-61413074D01*
X113509603Y-61358359D01*
X113500500Y-61311725D01*
X113500500Y-51004427D01*
X113500816Y-50995581D01*
X113502029Y-50978624D01*
X113515130Y-50795436D01*
X113517646Y-50777938D01*
X113559356Y-50586200D01*
X113564335Y-50569242D01*
X113632911Y-50385382D01*
X113640251Y-50369310D01*
X113734294Y-50197083D01*
X113743850Y-50182214D01*
X113861443Y-50025128D01*
X113873017Y-50011771D01*
X114011771Y-49873017D01*
X114025128Y-49861443D01*
X114182214Y-49743850D01*
X114197083Y-49734294D01*
X114369310Y-49640251D01*
X114385382Y-49632911D01*
X114569242Y-49564335D01*
X114586200Y-49559356D01*
X114777938Y-49517646D01*
X114795436Y-49515130D01*
X114995582Y-49500816D01*
X115004428Y-49500500D01*
X115065892Y-49500500D01*
X116303872Y-49500500D01*
X116370911Y-49520185D01*
G37*
G04 #@! TD.AperFunction*
G04 #@! TA.AperFunction,Conductor*
G36*
X140293676Y-57120185D02*
G01*
X140339431Y-57172989D01*
X140349375Y-57242147D01*
X140320350Y-57305703D01*
X140314318Y-57312181D01*
X139663319Y-57963181D01*
X139601996Y-57996666D01*
X139575638Y-57999500D01*
X135704205Y-57999500D01*
X135637166Y-57979815D01*
X135591411Y-57927011D01*
X135581732Y-57894898D01*
X135573401Y-57842302D01*
X135573401Y-57842299D01*
X135519872Y-57677555D01*
X135506950Y-57652194D01*
X135494054Y-57583525D01*
X135520330Y-57518784D01*
X135529744Y-57508228D01*
X135901155Y-57136819D01*
X135962478Y-57103334D01*
X135988836Y-57100500D01*
X140226637Y-57100500D01*
X140293676Y-57120185D01*
G37*
G04 #@! TD.AperFunction*
G04 #@! TA.AperFunction,Conductor*
G36*
X137494075Y-52892993D02*
G01*
X137559901Y-53007007D01*
X137652993Y-53100099D01*
X137767007Y-53165925D01*
X137830590Y-53182962D01*
X137198282Y-53815269D01*
X137198282Y-53815270D01*
X137252449Y-53854624D01*
X137441782Y-53951095D01*
X137643870Y-54016757D01*
X137853754Y-54050000D01*
X138066246Y-54050000D01*
X138276127Y-54016757D01*
X138276130Y-54016757D01*
X138478217Y-53951095D01*
X138667554Y-53854622D01*
X138721716Y-53815270D01*
X138721717Y-53815270D01*
X138089408Y-53182962D01*
X138152993Y-53165925D01*
X138267007Y-53100099D01*
X138360099Y-53007007D01*
X138425925Y-52892993D01*
X138442962Y-52829409D01*
X139079267Y-53465714D01*
X139132710Y-53476940D01*
X139174381Y-53513310D01*
X139317339Y-53710076D01*
X139317343Y-53710081D01*
X139489918Y-53882656D01*
X139489923Y-53882660D01*
X139687359Y-54026105D01*
X139687361Y-54026106D01*
X139763724Y-54065015D01*
X139776042Y-54071291D01*
X139826839Y-54119265D01*
X139843634Y-54187086D01*
X139821097Y-54253221D01*
X139767202Y-54296337D01*
X139726085Y-54313368D01*
X139726079Y-54313371D01*
X139562218Y-54422860D01*
X139562214Y-54422863D01*
X139422863Y-54562214D01*
X139422860Y-54562218D01*
X139313371Y-54726079D01*
X139313364Y-54726092D01*
X139237950Y-54908160D01*
X139237947Y-54908170D01*
X139199500Y-55101456D01*
X139199500Y-55175500D01*
X139179815Y-55242539D01*
X139127011Y-55288294D01*
X139075500Y-55299500D01*
X135475781Y-55299500D01*
X135301816Y-55334103D01*
X135301807Y-55334106D01*
X135137934Y-55401983D01*
X135137921Y-55401990D01*
X135003464Y-55491832D01*
X135003465Y-55491833D01*
X134990438Y-55500537D01*
X134371116Y-56119859D01*
X134309793Y-56153344D01*
X134283435Y-56156178D01*
X134219519Y-56156178D01*
X134179858Y-56162459D01*
X134048432Y-56183275D01*
X133883682Y-56236806D01*
X133729341Y-56315446D01*
X133649386Y-56373537D01*
X133589202Y-56417264D01*
X133589200Y-56417266D01*
X133589199Y-56417266D01*
X133466718Y-56539747D01*
X133466718Y-56539748D01*
X133466716Y-56539750D01*
X133422989Y-56599934D01*
X133364898Y-56679889D01*
X133286258Y-56834230D01*
X133232727Y-56998980D01*
X133212590Y-57126121D01*
X133182661Y-57189256D01*
X133123349Y-57226187D01*
X133053487Y-57225189D01*
X133051800Y-57224654D01*
X132978042Y-57200689D01*
X132978038Y-57200688D01*
X132846611Y-57179872D01*
X132806951Y-57173591D01*
X132806950Y-57173591D01*
X132798452Y-57173591D01*
X132731413Y-57153906D01*
X132710771Y-57137272D01*
X129746775Y-54173275D01*
X129713290Y-54111952D01*
X129718274Y-54042260D01*
X129760146Y-53986327D01*
X129825610Y-53961910D01*
X129872774Y-53967663D01*
X130023871Y-54016757D01*
X130233754Y-54050000D01*
X130446246Y-54050000D01*
X130656127Y-54016757D01*
X130656130Y-54016757D01*
X130858217Y-53951095D01*
X131047554Y-53854622D01*
X131101716Y-53815270D01*
X131101717Y-53815270D01*
X130469409Y-53182962D01*
X130532993Y-53165925D01*
X130647007Y-53100099D01*
X130740099Y-53007007D01*
X130805925Y-52892993D01*
X130822962Y-52829409D01*
X131459267Y-53465714D01*
X131512710Y-53476940D01*
X131554381Y-53513310D01*
X131697339Y-53710076D01*
X131697343Y-53710081D01*
X131869918Y-53882656D01*
X131869923Y-53882660D01*
X132038712Y-54005291D01*
X132067361Y-54026106D01*
X132284815Y-54136904D01*
X132516924Y-54212321D01*
X132757973Y-54250500D01*
X132757974Y-54250500D01*
X133002026Y-54250500D01*
X133002027Y-54250500D01*
X133243076Y-54212321D01*
X133475185Y-54136904D01*
X133692639Y-54026106D01*
X133890083Y-53882655D01*
X134062319Y-53710419D01*
X134123642Y-53676934D01*
X134193334Y-53681918D01*
X134237681Y-53710419D01*
X134409918Y-53882656D01*
X134409923Y-53882660D01*
X134578712Y-54005291D01*
X134607361Y-54026106D01*
X134824815Y-54136904D01*
X135056924Y-54212321D01*
X135297973Y-54250500D01*
X135297974Y-54250500D01*
X135542026Y-54250500D01*
X135542027Y-54250500D01*
X135783076Y-54212321D01*
X136015185Y-54136904D01*
X136232639Y-54026106D01*
X136430083Y-53882655D01*
X136602655Y-53710083D01*
X136745620Y-53513307D01*
X136800947Y-53470644D01*
X136841827Y-53464617D01*
X137477036Y-52829407D01*
X137494075Y-52892993D01*
G37*
G04 #@! TD.AperFunction*
G04 #@! TA.AperFunction,Conductor*
G36*
X118759835Y-50720185D02*
G01*
X118780477Y-50736819D01*
X118783072Y-50739414D01*
X118923212Y-50841232D01*
X118962774Y-50861390D01*
X118969889Y-50865015D01*
X119020685Y-50912990D01*
X119037480Y-50980811D01*
X119014943Y-51046945D01*
X118960228Y-51090397D01*
X118913594Y-51099500D01*
X118086406Y-51099500D01*
X118019367Y-51079815D01*
X117973612Y-51027011D01*
X117963668Y-50957853D01*
X117992693Y-50894297D01*
X118030111Y-50865015D01*
X118033893Y-50863087D01*
X118076788Y-50841232D01*
X118216928Y-50739414D01*
X118219523Y-50736819D01*
X118280846Y-50703334D01*
X118307204Y-50700500D01*
X118692796Y-50700500D01*
X118759835Y-50720185D01*
G37*
G04 #@! TD.AperFunction*
G04 #@! TA.AperFunction,Conductor*
G36*
X122993677Y-50720185D02*
G01*
X123039432Y-50772989D01*
X123049376Y-50842147D01*
X123020351Y-50905703D01*
X123014319Y-50912181D01*
X122863319Y-51063181D01*
X122801996Y-51096666D01*
X122775638Y-51099500D01*
X120086406Y-51099500D01*
X120019367Y-51079815D01*
X119973612Y-51027011D01*
X119963668Y-50957853D01*
X119992693Y-50894297D01*
X120030111Y-50865015D01*
X120033893Y-50863087D01*
X120076788Y-50841232D01*
X120216928Y-50739414D01*
X120219523Y-50736819D01*
X120280846Y-50703334D01*
X120307204Y-50700500D01*
X122926638Y-50700500D01*
X122993677Y-50720185D01*
G37*
G04 #@! TD.AperFunction*
G04 #@! TA.AperFunction,Conductor*
G36*
X161004418Y-49500816D02*
G01*
X161204557Y-49515130D01*
X161212564Y-49517888D01*
X161222066Y-49517648D01*
X161413795Y-49559355D01*
X161430760Y-49564336D01*
X161490199Y-49586506D01*
X161546132Y-49628376D01*
X161570549Y-49693840D01*
X161555698Y-49762113D01*
X161506292Y-49811519D01*
X161503161Y-49813171D01*
X161414315Y-49858441D01*
X161399760Y-49861935D01*
X161390473Y-49867635D01*
X161377172Y-49867358D01*
X161358019Y-49871957D01*
X156357293Y-49871957D01*
X156290254Y-49852272D01*
X156244499Y-49799468D01*
X156234820Y-49767355D01*
X156229583Y-49734290D01*
X156223163Y-49693756D01*
X156213109Y-49662816D01*
X156211115Y-49592978D01*
X156247195Y-49533145D01*
X156309895Y-49502316D01*
X156331041Y-49500500D01*
X160934108Y-49500500D01*
X160995572Y-49500500D01*
X161004418Y-49500816D01*
G37*
G04 #@! TD.AperFunction*
M02*
