G04 #@! TF.GenerationSoftware,KiCad,Pcbnew,10.0.5-10.0.5~ubuntu24.04.1*
G04 #@! TF.CreationDate,2026-08-19T02:51:30-04:00*
G04 #@! TF.ProjectId,breakout-ihp-qfn,62726561-6b6f-4757-942d-6968702d7166,1.2*
G04 #@! TF.SameCoordinates,PX6bc3e40PY5e69ec0*
G04 #@! TF.FileFunction,Copper,L1,Top*
G04 #@! TF.FilePolarity,Positive*
%FSLAX46Y46*%
G04 Gerber Fmt 4.6, Leading zero omitted, Abs format (unit mm)*
G04 Created by KiCad (PCBNEW 10.0.5-10.0.5~ubuntu24.04.1) date 2026-08-19 02:51:30*
%MOMM*%
%LPD*%
G01*
G04 APERTURE LIST*
G04 Aperture macros list*
%AMRoundRect*
0 Rectangle with rounded corners*
0 $1 Rounding radius*
0 $2 $3 $4 $5 $6 $7 $8 $9 X,Y pos of 4 corners*
0 Add a 4 corners polygon primitive as box body*
4,1,4,$2,$3,$4,$5,$6,$7,$8,$9,$2,$3,0*
0 Add four circle primitives for the rounded corners*
1,1,$1+$1,$2,$3*
1,1,$1+$1,$4,$5*
1,1,$1+$1,$6,$7*
1,1,$1+$1,$8,$9*
0 Add four rect primitives between the rounded corners*
20,1,$1+$1,$2,$3,$4,$5,0*
20,1,$1+$1,$4,$5,$6,$7,0*
20,1,$1+$1,$6,$7,$8,$9,0*
20,1,$1+$1,$8,$9,$2,$3,0*%
%AMFreePoly0*
4,1,15,0.150000,0.147118,0.179264,0.147118,0.233336,0.124720,0.274720,0.083336,0.297118,0.029264,0.297118,-0.029264,0.274720,-0.083336,0.233336,-0.124720,0.179264,-0.147118,0.150000,-0.147118,0.150000,-0.150000,-0.150000,-0.150000,-0.150000,0.150000,0.150000,0.150000,0.150000,0.147118,0.150000,0.147118,$1*%
G04 Aperture macros list end*
G04 #@! TA.AperFunction,SMDPad,CuDef*
%ADD10RoundRect,0.140000X-0.140000X-0.170000X0.140000X-0.170000X0.140000X0.170000X-0.140000X0.170000X0*%
G04 #@! TD*
G04 #@! TA.AperFunction,ComponentPad*
%ADD11C,0.620000*%
G04 #@! TD*
G04 #@! TA.AperFunction,ComponentPad*
%ADD12C,0.820000*%
G04 #@! TD*
G04 #@! TA.AperFunction,SMDPad,CuDef*
%ADD13RoundRect,0.225000X-0.250000X0.225000X-0.250000X-0.225000X0.250000X-0.225000X0.250000X0.225000X0*%
G04 #@! TD*
G04 #@! TA.AperFunction,SMDPad,CuDef*
%ADD14RoundRect,0.225000X-0.225000X-0.250000X0.225000X-0.250000X0.225000X0.250000X-0.225000X0.250000X0*%
G04 #@! TD*
G04 #@! TA.AperFunction,SMDPad,CuDef*
%ADD15C,1.000000*%
G04 #@! TD*
G04 #@! TA.AperFunction,SMDPad,CuDef*
%ADD16RoundRect,0.250000X0.262500X0.450000X-0.262500X0.450000X-0.262500X-0.450000X0.262500X-0.450000X0*%
G04 #@! TD*
G04 #@! TA.AperFunction,SMDPad,CuDef*
%ADD17RoundRect,0.140000X0.170000X-0.140000X0.170000X0.140000X-0.170000X0.140000X-0.170000X-0.140000X0*%
G04 #@! TD*
G04 #@! TA.AperFunction,SMDPad,CuDef*
%ADD18RoundRect,0.140000X-0.170000X0.140000X-0.170000X-0.140000X0.170000X-0.140000X0.170000X0.140000X0*%
G04 #@! TD*
G04 #@! TA.AperFunction,SMDPad,CuDef*
%ADD19RoundRect,0.200000X0.275000X-0.200000X0.275000X0.200000X-0.275000X0.200000X-0.275000X-0.200000X0*%
G04 #@! TD*
G04 #@! TA.AperFunction,ComponentPad*
%ADD20R,1.700000X1.700000*%
G04 #@! TD*
G04 #@! TA.AperFunction,ComponentPad*
%ADD21C,1.700000*%
G04 #@! TD*
G04 #@! TA.AperFunction,SMDPad,CuDef*
%ADD22RoundRect,0.135000X0.185000X-0.135000X0.185000X0.135000X-0.185000X0.135000X-0.185000X-0.135000X0*%
G04 #@! TD*
G04 #@! TA.AperFunction,SMDPad,CuDef*
%ADD23RoundRect,0.150000X0.150000X-0.512500X0.150000X0.512500X-0.150000X0.512500X-0.150000X-0.512500X0*%
G04 #@! TD*
G04 #@! TA.AperFunction,SMDPad,CuDef*
%ADD24RoundRect,0.135000X-0.185000X0.135000X-0.185000X-0.135000X0.185000X-0.135000X0.185000X0.135000X0*%
G04 #@! TD*
G04 #@! TA.AperFunction,SMDPad,CuDef*
%ADD25R,0.750000X0.300000*%
G04 #@! TD*
G04 #@! TA.AperFunction,SMDPad,CuDef*
%ADD26R,1.750000X1.450000*%
G04 #@! TD*
G04 #@! TA.AperFunction,SMDPad,CuDef*
%ADD27RoundRect,0.200000X-0.275000X0.200000X-0.275000X-0.200000X0.275000X-0.200000X0.275000X0.200000X0*%
G04 #@! TD*
G04 #@! TA.AperFunction,SMDPad,CuDef*
%ADD28FreePoly0,180.000000*%
G04 #@! TD*
G04 #@! TA.AperFunction,SMDPad,CuDef*
%ADD29FreePoly0,270.000000*%
G04 #@! TD*
G04 #@! TA.AperFunction,SMDPad,CuDef*
%ADD30FreePoly0,0.000000*%
G04 #@! TD*
G04 #@! TA.AperFunction,SMDPad,CuDef*
%ADD31FreePoly0,90.000000*%
G04 #@! TD*
G04 #@! TA.AperFunction,SMDPad,CuDef*
%ADD32RoundRect,0.150000X0.900000X0.900000X-0.900000X0.900000X-0.900000X-0.900000X0.900000X-0.900000X0*%
G04 #@! TD*
G04 #@! TA.AperFunction,ViaPad*
%ADD33C,0.800000*%
G04 #@! TD*
G04 #@! TA.AperFunction,ViaPad*
%ADD34C,0.600000*%
G04 #@! TD*
G04 #@! TA.AperFunction,ViaPad*
%ADD35C,0.500000*%
G04 #@! TD*
G04 #@! TA.AperFunction,ViaPad*
%ADD36C,0.650000*%
G04 #@! TD*
G04 #@! TA.AperFunction,Conductor*
%ADD37C,0.350000*%
G04 #@! TD*
G04 #@! TA.AperFunction,Conductor*
%ADD38C,0.300000*%
G04 #@! TD*
G04 #@! TA.AperFunction,Conductor*
%ADD39C,0.400000*%
G04 #@! TD*
G04 #@! TA.AperFunction,Conductor*
%ADD40C,0.200000*%
G04 #@! TD*
G04 #@! TA.AperFunction,Conductor*
%ADD41C,0.450000*%
G04 #@! TD*
G04 #@! TA.AperFunction,Conductor*
%ADD42C,0.250000*%
G04 #@! TD*
G04 #@! TA.AperFunction,Conductor*
%ADD43C,0.220000*%
G04 #@! TD*
G04 #@! TA.AperFunction,Conductor*
%ADD44C,0.550000*%
G04 #@! TD*
G04 #@! TA.AperFunction,Conductor*
%ADD45C,0.500000*%
G04 #@! TD*
G04 #@! TA.AperFunction,Conductor*
%ADD46C,0.180000*%
G04 #@! TD*
G04 APERTURE END LIST*
D10*
X159470000Y-50462500D03*
X160430000Y-50462500D03*
D11*
X138000000Y-74000000D03*
X144900000Y-76500000D03*
D12*
X124900000Y-98000000D03*
D13*
X131850000Y-55225000D03*
X131850000Y-56775000D03*
D14*
X159175000Y-51662500D03*
X160725000Y-51662500D03*
D15*
X116000000Y-50500000D03*
D12*
X152900000Y-98000000D03*
D16*
X143012500Y-56300000D03*
X141187500Y-56300000D03*
D12*
X160200000Y-73300000D03*
D11*
X141300000Y-75400000D03*
D16*
X127412500Y-56350000D03*
X125587500Y-56350000D03*
D12*
X136900000Y-98000000D03*
X145900000Y-81400000D03*
X153700000Y-60000000D03*
X116100000Y-53200000D03*
D15*
X159500000Y-97500000D03*
X114500000Y-97500000D03*
D11*
X156400000Y-56200000D03*
D12*
X114000000Y-55400000D03*
X141800000Y-65600000D03*
X140900000Y-98000000D03*
X114100000Y-82100000D03*
D17*
X135200000Y-67980000D03*
X135200000Y-67020000D03*
D11*
X158200000Y-59000000D03*
D12*
X135600000Y-58000000D03*
D13*
X123750000Y-55525000D03*
X123750000Y-57075000D03*
X139250000Y-55575000D03*
X139250000Y-57125000D03*
D18*
X142200000Y-80120000D03*
X142200000Y-81080000D03*
X135300000Y-80120000D03*
X135300000Y-81080000D03*
D19*
X157450000Y-54987500D03*
X157450000Y-53337500D03*
D14*
X159025000Y-57562500D03*
X160575000Y-57562500D03*
D20*
X153200000Y-52700000D03*
D21*
X150660000Y-52700000D03*
X148120000Y-52700000D03*
X145580000Y-52700000D03*
X143040000Y-52700000D03*
X140500000Y-52700000D03*
X137960000Y-52700000D03*
X135420000Y-52700000D03*
X132880000Y-52700000D03*
X130340000Y-52700000D03*
X127800000Y-52700000D03*
X125260000Y-52700000D03*
D12*
X115600000Y-80600000D03*
D11*
X148600000Y-56400000D03*
D12*
X134800000Y-93200000D03*
X114100000Y-90100000D03*
D11*
X141300000Y-72600000D03*
D12*
X144200000Y-93000000D03*
D15*
X114700000Y-79700000D03*
D22*
X161000000Y-63510000D03*
X161000000Y-62490000D03*
D10*
X148120000Y-94200000D03*
X149080000Y-94200000D03*
D17*
X118900000Y-51680000D03*
X118900000Y-50720000D03*
D15*
X116000000Y-63700000D03*
D14*
X120225000Y-51100000D03*
X121775000Y-51100000D03*
D12*
X161400000Y-97300000D03*
D23*
X159050000Y-55637500D03*
X160000000Y-55637500D03*
X160950000Y-55637500D03*
X160950000Y-53362500D03*
X159050000Y-53362500D03*
D12*
X150400000Y-85900000D03*
X144900000Y-98000000D03*
X153700000Y-69800000D03*
D16*
X135312500Y-56300000D03*
X133487500Y-56300000D03*
D12*
X148900000Y-98000000D03*
X160200000Y-93500000D03*
D11*
X145800000Y-79100000D03*
X138000000Y-71300000D03*
D18*
X138500000Y-80320000D03*
X138500000Y-81280000D03*
D19*
X118400000Y-54525000D03*
X118400000Y-52875000D03*
D12*
X120900000Y-98000000D03*
X114000000Y-60700000D03*
X160200000Y-65300000D03*
X131800000Y-58800000D03*
X141800000Y-61000000D03*
D17*
X138600000Y-67780000D03*
X138600000Y-66820000D03*
D12*
X114000000Y-50800000D03*
X114100000Y-86100000D03*
X132900000Y-98000000D03*
X158200000Y-76800000D03*
X150700000Y-55400000D03*
X156900000Y-98000000D03*
X160200000Y-77300000D03*
D11*
X145100000Y-68100000D03*
D12*
X150900000Y-69800000D03*
X141500000Y-58900000D03*
D11*
X145300000Y-90900000D03*
X156200000Y-49900000D03*
D12*
X162000000Y-86900000D03*
X120800000Y-62400000D03*
D22*
X155100000Y-63510000D03*
X155100000Y-62490000D03*
D11*
X134800000Y-72600000D03*
D12*
X129400000Y-56400000D03*
D17*
X142000000Y-67980000D03*
X142000000Y-67020000D03*
D19*
X159400000Y-60987500D03*
X159400000Y-59337500D03*
D24*
X154000000Y-95090000D03*
X154000000Y-96110000D03*
D12*
X141300000Y-86600000D03*
D24*
X152700000Y-94290000D03*
X152700000Y-95310000D03*
D12*
X144700000Y-57100000D03*
X114100000Y-94100000D03*
X147600000Y-84000000D03*
X116900000Y-98000000D03*
D14*
X120325000Y-57100000D03*
X121875000Y-57100000D03*
D12*
X118000000Y-60900000D03*
D25*
X147787500Y-95287500D03*
X147787500Y-95787500D03*
X147787500Y-96287500D03*
X147787500Y-96787500D03*
X150687500Y-96787500D03*
X150687500Y-96287500D03*
X150687500Y-95787500D03*
X150687500Y-95287500D03*
D26*
X149237500Y-96037500D03*
D12*
X122600000Y-80400000D03*
X128900000Y-98000000D03*
D11*
X134800000Y-75400000D03*
D23*
X120050000Y-55137500D03*
X121000000Y-55137500D03*
X121950000Y-55137500D03*
X121950000Y-52862500D03*
X120050000Y-52862500D03*
D12*
X150300000Y-92400000D03*
D15*
X116500000Y-79700000D03*
D19*
X160900000Y-60987500D03*
X160900000Y-59337500D03*
D27*
X116100000Y-55975000D03*
X116100000Y-57625000D03*
D12*
X144600000Y-63800000D03*
X150600000Y-62600000D03*
D27*
X117610000Y-55950000D03*
X117610000Y-57600000D03*
D17*
X133800000Y-67980000D03*
X133800000Y-67020000D03*
D12*
X162000000Y-82300000D03*
D28*
X142225000Y-77750000D03*
X142225000Y-77250000D03*
X142225000Y-76750000D03*
X142225000Y-76250000D03*
X142225000Y-75750000D03*
X142225000Y-75250000D03*
X142225000Y-74750000D03*
X142225000Y-74250000D03*
X142225000Y-73750000D03*
X142225000Y-73250000D03*
X142225000Y-72750000D03*
X142225000Y-72250000D03*
X142225000Y-71750000D03*
X142225000Y-71250000D03*
X142225000Y-70750000D03*
X142225000Y-70250000D03*
D29*
X141750000Y-69775000D03*
X141250000Y-69775000D03*
X140750000Y-69775000D03*
X140250000Y-69775000D03*
X139750000Y-69775000D03*
X139250000Y-69775000D03*
X138750000Y-69775000D03*
X138250000Y-69775000D03*
X137750000Y-69775000D03*
X137250000Y-69775000D03*
X136750000Y-69775000D03*
X136250000Y-69775000D03*
X135750000Y-69775000D03*
X135250000Y-69775000D03*
X134750000Y-69775000D03*
X134250000Y-69775000D03*
D30*
X133775000Y-70250000D03*
X133775000Y-70750000D03*
X133775000Y-71250000D03*
X133775000Y-71750000D03*
X133775000Y-72250000D03*
X133775000Y-72750000D03*
X133775000Y-73250000D03*
X133775000Y-73750000D03*
X133775000Y-74250000D03*
X133775000Y-74750000D03*
X133775000Y-75250000D03*
X133775000Y-75750000D03*
X133775000Y-76250000D03*
X133775000Y-76750000D03*
X133775000Y-77250000D03*
X133775000Y-77750000D03*
D31*
X134250000Y-78225000D03*
X134750000Y-78225000D03*
X135250000Y-78225000D03*
X135750000Y-78225000D03*
X136250000Y-78225000D03*
X136750000Y-78225000D03*
X137250000Y-78225000D03*
X137750000Y-78225000D03*
X138250000Y-78225000D03*
X138750000Y-78225000D03*
X139250000Y-78225000D03*
X139750000Y-78225000D03*
X140250000Y-78225000D03*
X140750000Y-78225000D03*
X141250000Y-78225000D03*
X141750000Y-78225000D03*
D32*
X139350000Y-75350000D03*
X139350000Y-72650000D03*
X136650000Y-75350000D03*
X136650000Y-72650000D03*
D11*
X138200000Y-77300000D03*
D12*
X160200000Y-69300000D03*
D33*
X157400000Y-51622457D03*
D34*
X115393800Y-77590818D03*
X128900000Y-75300000D03*
D33*
X122700000Y-51150000D03*
D34*
X160100000Y-82700000D03*
X121900000Y-58200000D03*
X138500000Y-63400000D03*
X135400000Y-66400000D03*
X135740581Y-70700000D03*
D35*
X123068247Y-75160000D03*
D34*
X138186386Y-81542158D03*
D35*
X123374773Y-72883294D03*
X122456126Y-72104883D03*
D34*
X121028552Y-56126142D03*
X121000000Y-54200000D03*
X146700000Y-95300000D03*
X122900000Y-54200000D03*
X133500000Y-66500000D03*
X153075828Y-90914307D03*
X161749000Y-90300003D03*
D33*
X118151000Y-50873235D03*
D34*
X114600000Y-63700000D03*
D35*
X122040007Y-69271657D03*
D36*
X160000000Y-56600000D03*
D34*
X145000000Y-72150000D03*
X134800000Y-70700000D03*
X144976431Y-74015352D03*
X138600000Y-66100000D03*
X155200000Y-79000000D03*
X142800000Y-81100000D03*
D36*
X160000000Y-54500000D03*
D34*
X142800000Y-67300000D03*
X151600000Y-95600000D03*
X115025735Y-70125735D03*
X159900000Y-62500000D03*
X153800000Y-88100000D03*
X160100000Y-86500000D03*
D35*
X122300000Y-66200000D03*
D34*
X152835570Y-82350000D03*
X125200000Y-69452577D03*
X123750001Y-58349999D03*
X114400000Y-74088103D03*
X114541050Y-76354499D03*
X136550985Y-82398000D03*
X148100000Y-93300000D03*
D35*
X126500000Y-68200000D03*
D34*
X114313137Y-67908038D03*
D35*
X154400000Y-62500000D03*
D34*
X114749990Y-72048796D03*
D33*
X161325000Y-57600000D03*
D34*
X145000000Y-70150000D03*
D35*
X122158234Y-65078873D03*
D34*
X138249999Y-70450000D03*
D35*
X122343103Y-70805463D03*
D34*
X115100000Y-66100000D03*
X137800000Y-83180000D03*
D35*
X122100000Y-67270000D03*
D33*
X161142438Y-52057045D03*
D34*
X127700000Y-69500000D03*
X130000000Y-69300000D03*
X117200000Y-80800000D03*
D35*
X122855030Y-68202577D03*
X122030525Y-77215171D03*
D34*
X128500000Y-72800000D03*
X153848575Y-85548575D03*
X135200000Y-77300000D03*
X139745073Y-85689593D03*
X141300000Y-70700000D03*
X140200000Y-57100000D03*
D33*
X161100000Y-49922457D03*
D34*
X153849998Y-89600000D03*
X138000000Y-61740000D03*
X146700000Y-96800000D03*
X141300000Y-77300000D03*
X160100000Y-84500000D03*
X136400000Y-63800000D03*
X160100000Y-80775000D03*
D35*
X122100000Y-74200000D03*
D34*
X135000000Y-81500000D03*
X139500000Y-61000000D03*
D33*
X134306130Y-57256678D03*
D34*
X142800000Y-80200000D03*
D33*
X134499999Y-58100000D03*
D34*
X146700000Y-80300000D03*
D33*
X146700000Y-56300000D03*
X146700000Y-57200000D03*
X146600000Y-82500000D03*
X147900000Y-55600000D03*
X147000000Y-55200000D03*
D36*
X138800000Y-82800000D03*
D34*
X138840000Y-67626823D03*
X141100000Y-55200000D03*
D33*
X147600000Y-82500000D03*
D34*
X140200000Y-55200000D03*
D36*
X138800000Y-82150000D03*
D33*
X133500000Y-58900000D03*
D34*
X133593478Y-69040000D03*
X135300000Y-92200000D03*
X148300000Y-92250000D03*
X147500000Y-92250000D03*
D33*
X148700000Y-59200000D03*
X124700000Y-54500000D03*
D34*
X142400000Y-68500000D03*
D33*
X132720340Y-58274091D03*
X124700000Y-55400000D03*
D34*
X134600000Y-91900000D03*
D33*
X148650000Y-58150000D03*
D34*
X161425000Y-55400000D03*
X158300000Y-55300000D03*
X151600000Y-91600000D03*
X144050000Y-91300000D03*
X149525000Y-63600000D03*
X144575000Y-90200000D03*
X152800000Y-90100002D03*
X154500000Y-63600000D03*
X160900000Y-94207690D03*
X143600000Y-94200000D03*
X160534517Y-91091512D03*
X161000000Y-64500000D03*
X145600000Y-64500000D03*
X114700000Y-78700000D03*
D35*
X115663037Y-64344528D03*
D33*
X155149761Y-49951457D03*
X159200000Y-78900000D03*
X119500000Y-49900000D03*
X159200000Y-77900000D03*
X154000000Y-49951457D03*
X117500000Y-49900000D03*
D34*
X162200000Y-89479250D03*
X154700000Y-96400000D03*
X162200000Y-96300000D03*
X161600000Y-95700000D03*
X152800000Y-95800000D03*
X161550000Y-88023107D03*
X115800000Y-79500000D03*
D33*
X162100000Y-80100000D03*
X116000000Y-52000000D03*
X161942438Y-50824469D03*
X162100000Y-51700000D03*
X115100000Y-52000000D03*
X114750000Y-61800000D03*
X162100000Y-81100000D03*
X114756179Y-62762923D03*
D34*
X144300000Y-75300000D03*
X145677192Y-74496432D03*
X144297263Y-73406561D03*
X145800000Y-72800000D03*
X144300000Y-71700000D03*
X145800000Y-70800000D03*
X144428784Y-69520542D03*
X145926681Y-68846692D03*
X141200000Y-59900000D03*
X140300000Y-60500000D03*
X139900000Y-61700000D03*
X139340000Y-62600000D03*
X137600000Y-63758831D03*
X136800000Y-64500000D03*
X136300000Y-65800000D03*
X135944700Y-67446808D03*
D35*
X115100000Y-64840000D03*
X114500000Y-65500000D03*
X115700000Y-66600000D03*
X115099637Y-67037372D03*
X115103985Y-67787362D03*
X114300000Y-68700000D03*
X115300000Y-69400000D03*
X115737990Y-70854508D03*
X115257253Y-71430178D03*
X115124603Y-72751486D03*
X115788713Y-73100000D03*
X115150233Y-73527755D03*
X115783334Y-74843581D03*
X114900000Y-74800000D03*
X114800000Y-75500000D03*
X136029000Y-79700000D03*
D34*
X136285058Y-80965208D03*
X136819000Y-81626578D03*
X137634700Y-82346225D03*
X139000000Y-83600000D03*
X139800000Y-84200000D03*
X140340000Y-84800439D03*
X140900000Y-85600000D03*
D37*
X159175000Y-51662500D02*
X157900000Y-51662500D01*
D38*
X157475000Y-53362500D02*
X157450000Y-53337500D01*
X159050000Y-51787500D02*
X159175000Y-51662500D01*
D39*
X143112500Y-52772500D02*
X143040000Y-52700000D01*
X127412500Y-56350000D02*
X127412500Y-53087500D01*
X143012500Y-56300000D02*
X143112500Y-56200000D01*
D38*
X159050000Y-53362500D02*
X159050000Y-51787500D01*
D39*
X157900000Y-51662500D02*
X157859957Y-51622457D01*
X127412500Y-53087500D02*
X127800000Y-52700000D01*
D38*
X159050000Y-53362500D02*
X157475000Y-53362500D01*
X159470000Y-51367500D02*
X159175000Y-51662500D01*
D39*
X157859957Y-51622457D02*
X157400000Y-51622457D01*
X143112500Y-56200000D02*
X143112500Y-52772500D01*
D38*
X159470000Y-50462500D02*
X159470000Y-51367500D01*
X122900000Y-54200000D02*
X122800000Y-54300000D01*
D40*
X145400000Y-76500000D02*
X144900000Y-76500000D01*
X138600000Y-66820000D02*
X138600000Y-66100000D01*
X141250000Y-70650000D02*
X141300000Y-70700000D01*
X122040007Y-69271657D02*
X122168350Y-69400000D01*
X122400039Y-72048796D02*
X122456126Y-72104883D01*
X123068247Y-75160000D02*
X123208247Y-75300000D01*
X113600000Y-81600000D02*
X114100000Y-82100000D01*
D38*
X121875000Y-57100000D02*
X121875000Y-58175000D01*
D40*
X161000000Y-62490000D02*
X159910000Y-62490000D01*
X141250000Y-78225000D02*
X141250000Y-77350000D01*
X147787500Y-96787500D02*
X147787500Y-97687500D01*
X113600000Y-67194901D02*
X114313137Y-67908038D01*
D37*
X142780000Y-81080000D02*
X142800000Y-81100000D01*
X118304235Y-50720000D02*
X118151000Y-50873235D01*
D40*
X145700000Y-81200000D02*
X145700000Y-76800000D01*
X138250000Y-77550000D02*
X138200000Y-77500000D01*
D38*
X122800000Y-54300000D02*
X122800000Y-56175000D01*
D40*
X121000000Y-55137500D02*
X121000000Y-56097590D01*
X135200000Y-77300000D02*
X135250000Y-77350000D01*
D41*
X161119545Y-52057045D02*
X161142438Y-52057045D01*
D40*
X148120000Y-93320000D02*
X148100000Y-93300000D01*
X145900000Y-81400000D02*
X145700000Y-81200000D01*
X135681162Y-70900000D02*
X135740581Y-70840581D01*
X134800000Y-75400000D02*
X141300000Y-75400000D01*
X114749990Y-72048796D02*
X113848796Y-72048796D01*
X147787500Y-95287500D02*
X146712500Y-95287500D01*
D38*
X123750000Y-57075000D02*
X123750001Y-58349999D01*
D39*
X140175000Y-57125000D02*
X140200000Y-57100000D01*
D40*
X114749990Y-72048796D02*
X122400039Y-72048796D01*
X127700000Y-69500000D02*
X127600000Y-69400000D01*
X138200000Y-77500000D02*
X138200000Y-77300000D01*
D38*
X121875000Y-58175000D02*
X121900000Y-58200000D01*
D40*
X134800000Y-70700000D02*
X134800000Y-70900000D01*
X155100000Y-62490000D02*
X154410000Y-62490000D01*
X138500000Y-81257550D02*
X138500000Y-81280000D01*
X134750000Y-70650000D02*
X134800000Y-70700000D01*
X122168350Y-69400000D02*
X125147423Y-69400000D01*
D37*
X118000000Y-51024235D02*
X118151000Y-50873235D01*
D40*
X138000000Y-71300000D02*
X138000000Y-77100000D01*
X121000000Y-55137500D02*
X121000000Y-54200000D01*
D37*
X118900000Y-50720000D02*
X118304235Y-50720000D01*
D40*
X135300000Y-81200000D02*
X135000000Y-81500000D01*
X125252577Y-69400000D02*
X125200000Y-69452577D01*
X142000000Y-81080000D02*
X142200000Y-81080000D01*
D38*
X160000000Y-52387500D02*
X160725000Y-51662500D01*
D40*
X123208247Y-75300000D02*
X128900000Y-75300000D01*
X127600000Y-69400000D02*
X125252577Y-69400000D01*
X145700000Y-76800000D02*
X145400000Y-76500000D01*
X141980000Y-67020000D02*
X142000000Y-67020000D01*
X147787500Y-96787500D02*
X146712500Y-96787500D01*
X142000000Y-67020000D02*
X142520000Y-67020000D01*
D37*
X160612500Y-57600000D02*
X160000000Y-56987500D01*
D40*
X114000000Y-60700000D02*
X113600000Y-61100000D01*
X113925735Y-70125735D02*
X115025735Y-70125735D01*
X113601000Y-71801000D02*
X113601000Y-69801000D01*
X138479555Y-66820000D02*
X138600000Y-66820000D01*
X113601000Y-67908038D02*
X113601000Y-69801000D01*
X134800000Y-72600000D02*
X141300000Y-72600000D01*
X138000000Y-71300000D02*
X138000000Y-70699999D01*
X138000000Y-70699999D02*
X138249999Y-70450000D01*
X159910000Y-62490000D02*
X159900000Y-62500000D01*
D38*
X121875000Y-57100000D02*
X123725000Y-57100000D01*
D40*
X146712500Y-96787500D02*
X146700000Y-96800000D01*
X135740581Y-70840581D02*
X135740581Y-70700000D01*
X138237842Y-81542158D02*
X138186386Y-81542158D01*
X138000000Y-77100000D02*
X138200000Y-77300000D01*
D38*
X160660044Y-49922457D02*
X161100000Y-49922457D01*
D40*
X113848796Y-72048796D02*
X113601000Y-71801000D01*
D37*
X142200000Y-81080000D02*
X142780000Y-81080000D01*
D40*
X154410000Y-62490000D02*
X154400000Y-62500000D01*
X134800000Y-70900000D02*
X135681162Y-70900000D01*
X134800000Y-70900000D02*
X134800000Y-72600000D01*
X148120000Y-94200000D02*
X148120000Y-93320000D01*
X113600000Y-61100000D02*
X113600000Y-67194901D01*
X135740581Y-69784419D02*
X135740581Y-70700000D01*
X113600000Y-77295549D02*
X113600000Y-81600000D01*
X141300000Y-72600000D02*
X141300000Y-70700000D01*
X121000000Y-56097590D02*
X121028552Y-56126142D01*
X147787500Y-97687500D02*
X148100000Y-98000000D01*
D41*
X160725000Y-51662500D02*
X161119545Y-52057045D01*
D40*
X138250000Y-69775000D02*
X138250000Y-70449999D01*
X114400000Y-74088103D02*
X114511897Y-74200000D01*
X150687500Y-95787500D02*
X151412500Y-95787500D01*
X135300000Y-81080000D02*
X135300000Y-81200000D01*
D41*
X160612500Y-57600000D02*
X161325000Y-57600000D01*
D37*
X160000000Y-56600000D02*
X160000000Y-55637500D01*
D40*
X141250000Y-77350000D02*
X141300000Y-77300000D01*
D38*
X160000000Y-53200000D02*
X160000000Y-53100000D01*
D40*
X133800000Y-67020000D02*
X133800000Y-66800000D01*
D38*
X160000000Y-53100000D02*
X160000000Y-52387500D01*
D40*
X114511897Y-74200000D02*
X122100000Y-74200000D01*
X123458067Y-72800000D02*
X123374773Y-72883294D01*
X128500000Y-72800000D02*
X123458067Y-72800000D01*
X135750000Y-69775000D02*
X135740581Y-69784419D01*
X135200000Y-67020000D02*
X135200000Y-66600000D01*
X138250000Y-70449999D02*
X138249999Y-70450000D01*
X146712500Y-95287500D02*
X146700000Y-95300000D01*
X133800000Y-66800000D02*
X133500000Y-66500000D01*
D42*
X131850000Y-56775000D02*
X131600000Y-57025000D01*
D40*
X148100000Y-98000000D02*
X148900000Y-98000000D01*
D39*
X123725000Y-57100000D02*
X123750000Y-57075000D01*
D40*
X114313137Y-67908038D02*
X113601000Y-67908038D01*
X151412500Y-95787500D02*
X151600000Y-95600000D01*
X135200000Y-66600000D02*
X135400000Y-66400000D01*
X114541050Y-76354499D02*
X113600000Y-77295549D01*
D42*
X131600000Y-57025000D02*
X131600000Y-58600000D01*
D40*
X134750000Y-69775000D02*
X134750000Y-70650000D01*
D39*
X139250000Y-57125000D02*
X140175000Y-57125000D01*
D40*
X141250000Y-69775000D02*
X141250000Y-70650000D01*
X142520000Y-67020000D02*
X142800000Y-67300000D01*
D38*
X160000000Y-55637500D02*
X160000000Y-53200000D01*
D40*
X138250000Y-78225000D02*
X138250000Y-77550000D01*
X135250000Y-77350000D02*
X135250000Y-78225000D01*
D37*
X160000000Y-56987500D02*
X160000000Y-56600000D01*
D38*
X160430000Y-50152501D02*
X160660044Y-49922457D01*
D39*
X121775000Y-51100000D02*
X122650000Y-51100000D01*
D40*
X138500000Y-81280000D02*
X138237842Y-81542158D01*
X125147423Y-69400000D02*
X125200000Y-69452577D01*
D42*
X131600000Y-58600000D02*
X131800000Y-58800000D01*
D40*
X113601000Y-69801000D02*
X113925735Y-70125735D01*
D38*
X122800000Y-56175000D02*
X122050000Y-56925000D01*
D39*
X122650000Y-51100000D02*
X122700000Y-51150000D01*
X134350000Y-57950001D02*
X134350000Y-57300550D01*
X146700000Y-56300000D02*
X146700000Y-80300000D01*
X131850000Y-53730000D02*
X131850000Y-55225000D01*
X133487500Y-56300000D02*
X134306128Y-57118628D01*
D38*
X142800000Y-80200000D02*
X142280000Y-80200000D01*
D40*
X135250000Y-69775000D02*
X135250000Y-68030000D01*
D39*
X134306128Y-57118628D02*
X134306128Y-57256678D01*
D37*
X134499999Y-58100000D02*
X134350000Y-57950001D01*
D39*
X131850000Y-55225000D02*
X132812500Y-55225000D01*
D37*
X134350000Y-57300550D02*
X134306128Y-57256678D01*
D39*
X133487500Y-55900000D02*
X133487500Y-56300000D01*
D38*
X134890001Y-67980000D02*
X134500000Y-67589999D01*
D39*
X132880000Y-52700000D02*
X131850000Y-53730000D01*
D38*
X134500000Y-67589999D02*
X134499999Y-58100000D01*
D40*
X142200000Y-80120000D02*
X142170000Y-80120000D01*
D39*
X132812500Y-55225000D02*
X133487500Y-55900000D01*
D38*
X142280000Y-80200000D02*
X142200000Y-80120000D01*
D40*
X141750000Y-79700000D02*
X141750000Y-78225000D01*
D38*
X135200000Y-67980000D02*
X134890001Y-67980000D01*
D40*
X135250000Y-68030000D02*
X135200000Y-67980000D01*
X142170000Y-80120000D02*
X141750000Y-79700000D01*
X138500000Y-80342450D02*
X139111000Y-80953450D01*
D39*
X147700000Y-55800000D02*
X147700000Y-82400000D01*
X138800000Y-82150000D02*
X138800000Y-82800000D01*
D40*
X138750000Y-78225000D02*
X138750000Y-80070000D01*
X138750000Y-67930000D02*
X138600000Y-67780000D01*
X138799251Y-67780000D02*
X138840000Y-67739251D01*
D39*
X139250000Y-55575000D02*
X139475000Y-55575000D01*
D40*
X139111000Y-81839000D02*
X138800000Y-82150000D01*
D38*
X147300000Y-82500000D02*
X146600000Y-82500000D01*
D40*
X139111000Y-80953450D02*
X139111000Y-81839000D01*
X138840000Y-67739251D02*
X138840000Y-67626823D01*
X138600000Y-67780000D02*
X138799251Y-67780000D01*
D43*
X138750000Y-67930000D02*
X138750000Y-69775000D01*
D39*
X147900000Y-55600000D02*
X147700000Y-55800000D01*
X139250000Y-53950000D02*
X140500000Y-52700000D01*
X141100000Y-56212500D02*
X141187500Y-56300000D01*
X140200000Y-55200000D02*
X141100000Y-55200000D01*
D37*
X147700000Y-82400000D02*
X147600000Y-82500000D01*
D40*
X138750000Y-80070000D02*
X138500000Y-80320000D01*
D39*
X139250000Y-55575000D02*
X139250000Y-53950000D01*
X141187500Y-56300000D02*
X141187500Y-56200000D01*
X139850000Y-55200000D02*
X140200000Y-55200000D01*
X139475000Y-55575000D02*
X139850000Y-55200000D01*
D40*
X138500000Y-80320000D02*
X138500000Y-80342450D01*
D37*
X147600000Y-82500000D02*
X147300000Y-82500000D01*
D39*
X139300000Y-55525000D02*
X139250000Y-55575000D01*
X147900000Y-55600000D02*
X147500000Y-55200000D01*
X147500000Y-55200000D02*
X147000000Y-55200000D01*
X141100000Y-55200000D02*
X141100000Y-56212500D01*
X124700000Y-55200000D02*
X124700000Y-54500000D01*
D40*
X149080000Y-93030000D02*
X148300000Y-92250000D01*
D39*
X124762500Y-55525000D02*
X125587500Y-56350000D01*
D40*
X149500000Y-94200000D02*
X150587500Y-95287500D01*
X150687500Y-95287500D02*
X150912500Y-95287500D01*
D38*
X133650000Y-68130000D02*
X133650000Y-68983478D01*
D40*
X150912500Y-95287500D02*
X151910000Y-94290000D01*
D39*
X124375000Y-55525000D02*
X124700000Y-55200000D01*
X147500000Y-92250000D02*
X148300000Y-92250000D01*
D38*
X132700000Y-67189999D02*
X132700000Y-58294431D01*
D40*
X149080000Y-94200000D02*
X149080000Y-93030000D01*
D39*
X148700000Y-91850000D02*
X148700000Y-58200000D01*
D40*
X142400000Y-68380000D02*
X142400000Y-68500000D01*
D38*
X133350000Y-58900000D02*
X133500000Y-58900000D01*
D39*
X132724091Y-58274091D02*
X132874091Y-58274091D01*
D42*
X134250000Y-69775000D02*
X134250000Y-69696522D01*
D38*
X148700000Y-58200000D02*
X148650000Y-58150000D01*
D39*
X132874091Y-58274091D02*
X133350000Y-58750000D01*
X123750000Y-55525000D02*
X124375000Y-55525000D01*
D40*
X150587500Y-95287500D02*
X150687500Y-95287500D01*
X149080000Y-94200000D02*
X149500000Y-94200000D01*
D38*
X132700000Y-58294431D02*
X132720340Y-58274091D01*
D40*
X153200000Y-94290000D02*
X154000000Y-95090000D01*
D39*
X125260000Y-53940000D02*
X124700000Y-54500000D01*
D38*
X133650000Y-68983478D02*
X133593478Y-69040000D01*
X132720340Y-58274091D02*
X132724091Y-58274091D01*
X135230000Y-80120000D02*
X135300000Y-80120000D01*
X134900000Y-92200000D02*
X135300000Y-92200000D01*
X134300000Y-91600000D02*
X134300000Y-81050000D01*
D39*
X123750000Y-55525000D02*
X124762500Y-55525000D01*
D37*
X142000000Y-67980000D02*
X142400000Y-68380000D01*
D40*
X135300000Y-80120000D02*
X135300000Y-79604984D01*
D39*
X133350000Y-58750000D02*
X133350000Y-58900000D01*
D40*
X135750000Y-79154984D02*
X135750000Y-78225000D01*
D38*
X134300000Y-81050000D02*
X135230000Y-80120000D01*
X133800000Y-67980000D02*
X133490001Y-67980000D01*
D42*
X134250000Y-69696522D02*
X133593478Y-69040000D01*
D38*
X134600000Y-91900000D02*
X134300000Y-91600000D01*
D40*
X135300000Y-79604984D02*
X135750000Y-79154984D01*
X152700000Y-94290000D02*
X153200000Y-94290000D01*
D38*
X133490001Y-67980000D02*
X132700000Y-67189999D01*
X134600000Y-91900000D02*
X134900000Y-92200000D01*
D39*
X148300000Y-92250000D02*
X148700000Y-91850000D01*
D38*
X133800000Y-67980000D02*
X133650000Y-68130000D01*
D40*
X141750000Y-68230000D02*
X142000000Y-67980000D01*
D39*
X125260000Y-52700000D02*
X125260000Y-53940000D01*
D40*
X151910000Y-94290000D02*
X152700000Y-94290000D01*
X141750000Y-69775000D02*
X141750000Y-68230000D01*
D41*
X161249999Y-55337501D02*
X161362501Y-55337501D01*
D38*
X159050000Y-58987500D02*
X159400000Y-59337500D01*
D41*
X160950000Y-55637500D02*
X161249999Y-55337501D01*
D38*
X159050000Y-57362500D02*
X159050000Y-58987500D01*
X157450000Y-54987500D02*
X158687500Y-54987500D01*
X158687500Y-54987500D02*
X159050000Y-55350000D01*
X159050000Y-55637500D02*
X159050000Y-57537500D01*
X159050000Y-55350000D02*
X159050000Y-55637500D01*
X159400000Y-59337500D02*
X160900000Y-59337500D01*
D41*
X161362501Y-55337501D02*
X161425000Y-55400000D01*
D38*
X159050000Y-57537500D02*
X159025000Y-57562500D01*
X151900000Y-53940000D02*
X151900000Y-91300000D01*
X151900000Y-91300000D02*
X151600000Y-91600000D01*
D42*
X143900000Y-77600000D02*
X143900000Y-91150000D01*
D38*
X150660000Y-52700000D02*
X151900000Y-53940000D01*
D42*
X143900000Y-91150000D02*
X144050001Y-91300001D01*
D40*
X144050000Y-91300000D02*
X144050001Y-91300001D01*
D42*
X142225000Y-77250000D02*
X143550000Y-77250000D01*
X143550000Y-77250000D02*
X143900000Y-77600000D01*
D38*
X152800000Y-90100002D02*
X152700000Y-90000002D01*
X152700000Y-88210050D02*
X154500000Y-86410050D01*
D40*
X143750000Y-76750000D02*
X142225000Y-76750000D01*
D38*
X149525000Y-54105000D02*
X149525000Y-63600000D01*
X148120000Y-52700000D02*
X149525000Y-54105000D01*
X155100000Y-63510000D02*
X154590000Y-63510000D01*
X154500000Y-86410050D02*
X154500000Y-63600000D01*
D40*
X144575000Y-90200000D02*
X144400000Y-90025000D01*
X144400000Y-90025000D02*
X144400000Y-77400000D01*
D38*
X152700000Y-90000002D02*
X152700000Y-88210050D01*
X154590000Y-63510000D02*
X154500000Y-63600000D01*
D40*
X144400000Y-77400000D02*
X143750000Y-76750000D01*
X143400000Y-94000000D02*
X143400000Y-78000000D01*
X143400000Y-78000000D02*
X143150000Y-77750000D01*
D38*
X145580000Y-52700000D02*
X145580000Y-64480000D01*
X160500000Y-91056995D02*
X160534517Y-91091512D01*
X160961537Y-91518532D02*
X160534517Y-91091512D01*
X161000000Y-64500000D02*
X161000000Y-87583157D01*
X160500000Y-88083157D02*
X160500000Y-91056995D01*
D40*
X143600000Y-94200000D02*
X143400000Y-94000000D01*
D38*
X160961537Y-94146153D02*
X160961537Y-91518532D01*
X145580000Y-64480000D02*
X145600000Y-64500000D01*
X161000000Y-87583157D02*
X160500000Y-88083157D01*
X161000000Y-64500000D02*
X161000000Y-63510000D01*
D40*
X143150000Y-77750000D02*
X142225000Y-77750000D01*
X160900000Y-94207690D02*
X160961537Y-94146153D01*
D39*
X135312500Y-56300000D02*
X135400000Y-56212500D01*
D38*
X119645000Y-51680000D02*
X120225000Y-51100000D01*
X118412500Y-52862500D02*
X118400000Y-52875000D01*
D39*
X135400000Y-52720000D02*
X135420000Y-52700000D01*
D38*
X118400000Y-52180000D02*
X118900000Y-51680000D01*
X118400000Y-52875000D02*
X118400000Y-52180000D01*
D39*
X132720000Y-50000000D02*
X135420000Y-52700000D01*
X120225000Y-51100000D02*
X121325000Y-50000000D01*
D38*
X120050000Y-52862500D02*
X118412500Y-52862500D01*
D39*
X121325000Y-50000000D02*
X132720000Y-50000000D01*
D44*
X120225000Y-51100000D02*
X120225000Y-51325000D01*
D38*
X118900000Y-51680000D02*
X119645000Y-51680000D01*
D39*
X135400000Y-56212500D02*
X135400000Y-52720000D01*
D40*
X134062500Y-78800000D02*
X134250000Y-78612500D01*
X114800000Y-78800000D02*
X134062500Y-78800000D01*
D38*
X114700000Y-79700000D02*
X114700000Y-78700000D01*
D40*
X114700000Y-78700000D02*
X114800000Y-78800000D01*
X134250000Y-78612500D02*
X134250000Y-78225000D01*
X132946001Y-68146001D02*
X132946001Y-70046001D01*
X115663037Y-64344528D02*
X116907565Y-63100000D01*
X115663037Y-64344528D02*
X116000000Y-64007565D01*
X116907565Y-63100000D02*
X127900000Y-63100000D01*
X133150000Y-70250000D02*
X133775000Y-70250000D01*
X127900000Y-63100000D02*
X132946001Y-68146001D01*
X132946001Y-70046001D02*
X133150000Y-70250000D01*
D38*
X120150000Y-57100000D02*
X120325000Y-57100000D01*
X120150000Y-57100000D02*
X120325000Y-56925000D01*
X119012500Y-55137500D02*
X118400000Y-54525000D01*
D40*
X120050000Y-54230761D02*
X120730761Y-53550000D01*
D38*
X119650000Y-57600000D02*
X120150000Y-57100000D01*
X116100000Y-57625000D02*
X117585000Y-57625000D01*
D40*
X120730761Y-53550000D02*
X121333032Y-53550000D01*
X120050000Y-55137500D02*
X120050000Y-54230761D01*
D38*
X120050000Y-55137500D02*
X119012500Y-55137500D01*
D40*
X121333032Y-53550000D02*
X121950000Y-54166968D01*
D38*
X117585000Y-57625000D02*
X117610000Y-57600000D01*
X120100000Y-55187500D02*
X120050000Y-55137500D01*
X120325000Y-57100000D02*
X120100000Y-56875000D01*
X117610000Y-57600000D02*
X119650000Y-57600000D01*
X120100000Y-56875000D02*
X120100000Y-55187500D01*
X120150000Y-57100000D02*
X120468130Y-57100000D01*
D40*
X121950000Y-54166968D02*
X121950000Y-55137500D01*
D41*
X159200000Y-78900000D02*
X159100000Y-78800000D01*
D39*
X117301000Y-55641000D02*
X117301000Y-50099000D01*
D41*
X158925000Y-60987500D02*
X155144157Y-57206657D01*
D39*
X117610000Y-55950000D02*
X117301000Y-55641000D01*
X117301000Y-50099000D02*
X117500000Y-49900000D01*
D41*
X159100000Y-78800000D02*
X159100000Y-67000000D01*
D45*
X159400000Y-60987500D02*
X158925000Y-60987500D01*
D42*
X117325000Y-50075000D02*
X117500000Y-49900000D01*
D41*
X155144157Y-57206657D02*
X155144157Y-49957061D01*
D37*
X155144157Y-49957061D02*
X155149761Y-49951457D01*
D39*
X117500000Y-49900000D02*
X119500000Y-49900000D01*
D41*
X159100000Y-61287500D02*
X159100000Y-67000000D01*
D39*
X159400000Y-60987500D02*
X159100000Y-61287500D01*
D44*
X154000000Y-49951457D02*
X155149761Y-49951457D01*
D40*
X162200000Y-96300000D02*
X162369239Y-96130761D01*
X162369239Y-96130761D02*
X162369239Y-89648489D01*
X154000000Y-96110000D02*
X154410000Y-96110000D01*
X150687500Y-96787500D02*
X153322500Y-96787500D01*
X153322500Y-96787500D02*
X154000000Y-96110000D01*
X162369239Y-89648489D02*
X162200000Y-89479250D01*
X154410000Y-96110000D02*
X154700000Y-96400000D01*
X160950000Y-88623107D02*
X161550000Y-88023107D01*
X161600000Y-95700000D02*
X161550000Y-95650000D01*
X152312500Y-96287500D02*
X152800000Y-95800000D01*
X160950000Y-90620239D02*
X160950000Y-88623107D01*
X161550000Y-95650000D02*
X161550000Y-91220239D01*
X150687500Y-96287500D02*
X152312500Y-96287500D01*
X161550000Y-91220239D02*
X160950000Y-90620239D01*
D38*
X134750000Y-79150000D02*
X134400000Y-79500000D01*
X115800000Y-79500000D02*
X134400000Y-79500000D01*
D42*
X134750000Y-79150000D02*
X134750000Y-78225000D01*
D43*
X116000000Y-79700000D02*
X115800000Y-79500000D01*
D41*
X162100000Y-62187500D02*
X160900000Y-60987500D01*
D39*
X114750000Y-62650000D02*
X114800000Y-62700000D01*
D41*
X162200000Y-51082031D02*
X161942438Y-50824469D01*
D39*
X114750000Y-61800000D02*
X114750000Y-62650000D01*
X116075000Y-56000000D02*
X116100000Y-55975000D01*
D41*
X160912500Y-60987500D02*
X162200000Y-59700000D01*
X162200000Y-59700000D02*
X162200000Y-51082031D01*
D39*
X115000000Y-54600000D02*
X115000000Y-61550000D01*
D38*
X115000000Y-52100000D02*
X115100000Y-52000000D01*
D39*
X115000000Y-54600000D02*
X115000000Y-52100000D01*
X115000000Y-61550000D02*
X114750000Y-61800000D01*
D41*
X160900000Y-60987500D02*
X160912500Y-60987500D01*
D39*
X115000000Y-56000000D02*
X116075000Y-56000000D01*
D41*
X162100000Y-81100000D02*
X162100000Y-62187500D01*
D44*
X116000000Y-52000000D02*
X115100000Y-52000000D01*
D40*
X144300000Y-75300000D02*
X144300000Y-74895016D01*
X144300000Y-74895016D02*
X143154984Y-73750000D01*
X143154984Y-73750000D02*
X142225000Y-73750000D01*
X145677192Y-74496432D02*
X145467063Y-74706561D01*
X144678024Y-74706561D02*
X143221463Y-73250000D01*
X145467063Y-74706561D02*
X144678024Y-74706561D01*
X143221463Y-73250000D02*
X142225000Y-73250000D01*
X144297263Y-73406561D02*
X143640702Y-72750000D01*
X143640702Y-72750000D02*
X142225000Y-72750000D01*
X145700000Y-72900000D02*
X145800000Y-72800000D01*
X144027051Y-72250000D02*
X144677051Y-72900000D01*
X142225000Y-72250000D02*
X144027051Y-72250000D01*
X144677051Y-72900000D02*
X145700000Y-72900000D01*
X144250000Y-71750000D02*
X144300000Y-71700000D01*
X142225000Y-71750000D02*
X144250000Y-71750000D01*
X145800000Y-70800000D02*
X145600000Y-71000000D01*
X143750000Y-71250000D02*
X142225000Y-71250000D01*
X144000000Y-71000000D02*
X143750000Y-71250000D01*
X145600000Y-71000000D02*
X144000000Y-71000000D01*
X144428784Y-69520542D02*
X143199326Y-70750000D01*
X143199326Y-70750000D02*
X142225000Y-70750000D01*
X142750000Y-70250000D02*
X142225000Y-70250000D01*
X144153308Y-68846692D02*
X142750000Y-70250000D01*
X145926681Y-68846692D02*
X144153308Y-68846692D01*
D43*
X140750000Y-68547817D02*
X141000000Y-68297817D01*
X141000000Y-68297817D02*
X141000000Y-60100000D01*
X141000000Y-60100000D02*
X141200000Y-59900000D01*
X140750000Y-69775000D02*
X140750000Y-68547817D01*
X140250000Y-68453847D02*
X140538880Y-68164967D01*
X140538880Y-60738880D02*
X140300000Y-60500000D01*
X140250000Y-69775000D02*
X140250000Y-68453847D01*
X140538880Y-68164967D02*
X140538880Y-60738880D01*
X139750000Y-68359877D02*
X140000000Y-68109877D01*
X140000000Y-68109877D02*
X140000000Y-61800000D01*
X139750000Y-69775000D02*
X139750000Y-68359877D01*
X140000000Y-61800000D02*
X139900000Y-61700000D01*
X139340000Y-62600000D02*
X139500000Y-62760000D01*
X139500000Y-68015907D02*
X139250000Y-68265907D01*
X139500000Y-62760000D02*
X139500000Y-68015907D01*
X139250000Y-68265907D02*
X139250000Y-69775000D01*
X137600000Y-63758831D02*
X137750000Y-63908831D01*
X137750000Y-63908831D02*
X137750000Y-69775000D01*
X137250000Y-64950000D02*
X137250000Y-69775000D01*
X136800000Y-64500000D02*
X137250000Y-64950000D01*
X136750000Y-69775000D02*
X136750000Y-66250000D01*
X136750000Y-66250000D02*
X136300000Y-65800000D01*
D40*
X136250000Y-67752108D02*
X135944700Y-67446808D01*
X136250000Y-69775000D02*
X136250000Y-67752108D01*
X132400000Y-68300000D02*
X132400000Y-70304984D01*
X116904472Y-64895528D02*
X118200000Y-63600000D01*
X132400000Y-70304984D02*
X132845016Y-70750000D01*
X132845016Y-70750000D02*
X133775000Y-70750000D01*
X115100000Y-64840000D02*
X115155528Y-64895528D01*
X127700000Y-63600000D02*
X132400000Y-68300000D01*
X118200000Y-63600000D02*
X127700000Y-63600000D01*
X115155528Y-64895528D02*
X116904472Y-64895528D01*
X117800000Y-65500000D02*
X119200000Y-64100000D01*
X127465685Y-64100000D02*
X131900000Y-68534315D01*
X132777916Y-71250000D02*
X133775000Y-71250000D01*
X119200000Y-64100000D02*
X127465685Y-64100000D01*
X114500000Y-65500000D02*
X117800000Y-65500000D01*
X131900000Y-68534315D02*
X131900000Y-70372084D01*
X131900000Y-70372084D02*
X132777916Y-71250000D01*
X131400000Y-70437770D02*
X132712230Y-71750000D01*
X115700000Y-66600000D02*
X118200000Y-66600000D01*
X131400000Y-68900000D02*
X131400000Y-70437770D01*
X120272127Y-64527873D02*
X127027873Y-64527873D01*
X132712230Y-71750000D02*
X133775000Y-71750000D01*
X127027873Y-64527873D02*
X131400000Y-68900000D01*
X118200000Y-66600000D02*
X120272127Y-64527873D01*
X132645130Y-72250000D02*
X133775000Y-72250000D01*
X115099637Y-67037372D02*
X115213265Y-67151000D01*
X119599000Y-67151000D02*
X121120127Y-65629873D01*
X130900000Y-70504870D02*
X132645130Y-72250000D01*
X115037372Y-67037372D02*
X115099637Y-67037372D01*
X121120127Y-65629873D02*
X127229873Y-65629873D01*
X130900000Y-69300000D02*
X130900000Y-70504870D01*
X115213265Y-67151000D02*
X119599000Y-67151000D01*
X127229873Y-65629873D02*
X130900000Y-69300000D01*
X127432022Y-67602577D02*
X132579445Y-72750000D01*
X115115041Y-67798418D02*
X115103985Y-67787362D01*
D46*
X122406736Y-67798418D02*
X122602577Y-67602577D01*
D40*
X132579445Y-72750000D02*
X133775000Y-72750000D01*
X122602577Y-67602577D02*
X127432022Y-67602577D01*
D46*
X115115041Y-67798418D02*
X122406736Y-67798418D01*
D40*
X114325252Y-68725252D02*
X122529176Y-68725252D01*
X128066337Y-68802577D02*
X132513760Y-73250000D01*
X132513760Y-73250000D02*
X133775000Y-73250000D01*
X122529176Y-68725252D02*
X122606501Y-68802577D01*
X114300000Y-68700000D02*
X114325252Y-68725252D01*
X122606501Y-68802577D02*
X128066337Y-68802577D01*
X132381370Y-73750000D02*
X133775000Y-73750000D01*
X115300000Y-69400000D02*
X115705463Y-69805463D01*
X125000000Y-70200000D02*
X128831370Y-70200000D01*
X115705463Y-69805463D02*
X124605463Y-69805463D01*
X128831370Y-70200000D02*
X132381370Y-73750000D01*
X124605463Y-69805463D02*
X125000000Y-70200000D01*
X132315685Y-74250000D02*
X133775000Y-74250000D01*
X123400863Y-70900863D02*
X128966548Y-70900863D01*
X116446008Y-70205463D02*
X122705463Y-70205463D01*
X115753393Y-70898078D02*
X116446008Y-70205463D01*
X128966548Y-70900863D02*
X132315685Y-74250000D01*
X122705463Y-70205463D02*
X123400863Y-70900863D01*
X132218629Y-74750000D02*
X133775000Y-74750000D01*
X115227596Y-71544685D02*
X115227596Y-71459835D01*
X115227596Y-71459835D02*
X115281968Y-71405463D01*
X115281968Y-71405463D02*
X128874092Y-71405463D01*
X128874092Y-71405463D02*
X132218629Y-74750000D01*
X132052944Y-75250000D02*
X133775000Y-75250000D01*
X115200000Y-72800000D02*
X115500000Y-72500000D01*
X122207597Y-72704883D02*
X122704655Y-72704883D01*
X122002714Y-72500000D02*
X122207597Y-72704883D01*
X122704655Y-72704883D02*
X123259538Y-72150000D01*
X123259538Y-72150000D02*
X128952944Y-72150000D01*
X115500000Y-72500000D02*
X122002714Y-72500000D01*
X128952944Y-72150000D02*
X132052944Y-75250000D01*
X115788713Y-73100000D02*
X115851158Y-73162445D01*
X122997132Y-73500000D02*
X129737259Y-73500000D01*
X131987259Y-75750000D02*
X133775000Y-75750000D01*
X122659577Y-73162445D02*
X122997132Y-73500000D01*
X129737259Y-73500000D02*
X131987259Y-75750000D01*
X115851158Y-73162445D02*
X122659577Y-73162445D01*
X129491852Y-73991852D02*
X131750000Y-76250000D01*
X115221866Y-73545771D02*
X115376095Y-73700000D01*
X121751471Y-73700000D02*
X121851471Y-73600000D01*
X122748714Y-73991852D02*
X129491852Y-73991852D01*
X121851471Y-73600000D02*
X122356862Y-73600000D01*
X131750000Y-76250000D02*
X133775000Y-76250000D01*
X115376095Y-73700000D02*
X121751471Y-73700000D01*
X122356862Y-73600000D02*
X122748714Y-73991852D01*
X115842228Y-74850000D02*
X115892228Y-74800000D01*
X122819718Y-74560000D02*
X129494314Y-74560000D01*
X131684314Y-76750000D02*
X133775000Y-76750000D01*
X122579718Y-74800000D02*
X122819718Y-74560000D01*
X129494314Y-74560000D02*
X131684314Y-76750000D01*
X115892228Y-74800000D02*
X122579718Y-74800000D01*
X130234314Y-76000000D02*
X131484314Y-77250000D01*
X131484314Y-77250000D02*
X133775000Y-77250000D01*
X116124740Y-76000000D02*
X130234314Y-76000000D01*
X114923337Y-74798597D02*
X116124740Y-76000000D01*
X114831988Y-75543016D02*
X115842472Y-76553500D01*
X115842472Y-76553500D02*
X129933897Y-76553500D01*
X129933897Y-76553500D02*
X131130397Y-77750000D01*
X131130397Y-77750000D02*
X133775000Y-77750000D01*
D43*
X136250000Y-79479000D02*
X136250000Y-78225000D01*
X136029000Y-79700000D02*
X136250000Y-79479000D01*
X136285058Y-80965208D02*
X136639000Y-80611266D01*
X136750000Y-79572970D02*
X136750000Y-78225000D01*
X136639000Y-80611266D02*
X136639000Y-79683970D01*
X136639000Y-79683970D02*
X136750000Y-79572970D01*
X137059000Y-79857940D02*
X137250000Y-79666940D01*
X137250000Y-79666940D02*
X137250000Y-78225000D01*
X137059000Y-81386578D02*
X137059000Y-79857940D01*
X136819000Y-81626578D02*
X137059000Y-81386578D01*
X137479000Y-80031910D02*
X137750000Y-79760910D01*
X137750000Y-79760910D02*
X137750000Y-78225000D01*
X137634700Y-82346225D02*
X137479000Y-82190525D01*
X137479000Y-82190525D02*
X137479000Y-80031910D01*
X139000000Y-83600000D02*
X139521000Y-83079000D01*
X139250000Y-80512622D02*
X139250000Y-78225000D01*
X139521001Y-80783623D02*
X139250000Y-80512622D01*
X139521000Y-83079000D02*
X139521001Y-80783623D01*
X139941000Y-84059000D02*
X139941000Y-80609654D01*
X139800000Y-84200000D02*
X139941000Y-84059000D01*
X139750000Y-80418652D02*
X139750000Y-78225000D01*
X139941000Y-80609654D02*
X139750000Y-80418652D01*
X140340000Y-84800439D02*
X140500000Y-84640439D01*
X140500000Y-80300000D02*
X140250000Y-80050000D01*
X140500000Y-84640439D02*
X140500000Y-80300000D01*
X140250000Y-80050000D02*
X140250000Y-78225000D01*
X140900000Y-85600000D02*
X141000000Y-85500000D01*
X141000000Y-85500000D02*
X141000000Y-80006030D01*
X140750000Y-79756030D02*
X140750000Y-78225000D01*
X141000000Y-80006030D02*
X140750000Y-79756030D01*
G04 #@! TA.AperFunction,Conductor*
G36*
X153450000Y-54050000D02*
G01*
X154094657Y-54050000D01*
X154161696Y-54069685D01*
X154207451Y-54122489D01*
X154218657Y-54174000D01*
X154218657Y-57115503D01*
X154218657Y-57297811D01*
X154218657Y-57297813D01*
X154218656Y-57297813D01*
X154254222Y-57476609D01*
X154254225Y-57476619D01*
X154323988Y-57645044D01*
X154323990Y-57645048D01*
X154425270Y-57796624D01*
X154425276Y-57796632D01*
X158106867Y-61478222D01*
X158122288Y-61497012D01*
X158153602Y-61543876D01*
X158174480Y-61610553D01*
X158174500Y-61612767D01*
X158174500Y-67091154D01*
X158174500Y-67091156D01*
X158174499Y-67091156D01*
X158210065Y-67269952D01*
X158210068Y-67269962D01*
X158279831Y-67438387D01*
X158279833Y-67438391D01*
X158381113Y-67589967D01*
X158381119Y-67589975D01*
X158510025Y-67718881D01*
X158510028Y-67718883D01*
X158639390Y-67805320D01*
X158684196Y-67858931D01*
X158694500Y-67908422D01*
X158694500Y-77581325D01*
X158677888Y-77643324D01*
X158659060Y-77675934D01*
X158659060Y-77675935D01*
X158619500Y-77823576D01*
X158619500Y-77976423D01*
X158659060Y-78124067D01*
X158677886Y-78156672D01*
X158694500Y-78218674D01*
X158694500Y-78581325D01*
X158677888Y-78643324D01*
X158659060Y-78675934D01*
X158659060Y-78675935D01*
X158619500Y-78823576D01*
X158619500Y-78976424D01*
X158659060Y-79124065D01*
X158735484Y-79256435D01*
X158843565Y-79364516D01*
X158975935Y-79440940D01*
X159123576Y-79480500D01*
X159123578Y-79480500D01*
X159276422Y-79480500D01*
X159276424Y-79480500D01*
X159424065Y-79440940D01*
X159556435Y-79364516D01*
X159664516Y-79256435D01*
X159740940Y-79124065D01*
X159780500Y-78976424D01*
X159780500Y-78823576D01*
X159740940Y-78675935D01*
X159664516Y-78543565D01*
X159608631Y-78487680D01*
X159575147Y-78426356D01*
X159580132Y-78356664D01*
X159608628Y-78312322D01*
X159664516Y-78256435D01*
X159740940Y-78124065D01*
X159780500Y-77976424D01*
X159780500Y-77823576D01*
X159740940Y-77675935D01*
X159664516Y-77543565D01*
X159556435Y-77435484D01*
X159556434Y-77435483D01*
X159554015Y-77433627D01*
X159552491Y-77431540D01*
X159550688Y-77429737D01*
X159550969Y-77429455D01*
X159512811Y-77377200D01*
X159505500Y-77335250D01*
X159505500Y-67908422D01*
X159525185Y-67841383D01*
X159560608Y-67805320D01*
X159689972Y-67718883D01*
X159818883Y-67589972D01*
X159860399Y-67527839D01*
X159922398Y-67435051D01*
X159976010Y-67390245D01*
X160045335Y-67381538D01*
X160108362Y-67411692D01*
X160145082Y-67471135D01*
X160149500Y-67503941D01*
X160149500Y-87179505D01*
X160129815Y-87246544D01*
X160113181Y-87267186D01*
X159839375Y-87540991D01*
X159839372Y-87540995D01*
X159746297Y-87680290D01*
X159707058Y-87775024D01*
X159682184Y-87835074D01*
X159682182Y-87835082D01*
X159649500Y-87999385D01*
X159649500Y-90589034D01*
X159640061Y-90636486D01*
X159572467Y-90799672D01*
X159572464Y-90799682D01*
X159534017Y-90992968D01*
X159534017Y-90992971D01*
X159534017Y-91190053D01*
X159534017Y-91190055D01*
X159534016Y-91190055D01*
X159572464Y-91383341D01*
X159572467Y-91383351D01*
X159647881Y-91565419D01*
X159647888Y-91565432D01*
X159757377Y-91729293D01*
X159757380Y-91729297D01*
X159896731Y-91868648D01*
X159896739Y-91868654D01*
X160055927Y-91975020D01*
X160100733Y-92028632D01*
X160111037Y-92078122D01*
X160111037Y-93549989D01*
X160091352Y-93617028D01*
X160090139Y-93618880D01*
X160013371Y-93733770D01*
X160013364Y-93733783D01*
X159937950Y-93915850D01*
X159937947Y-93915860D01*
X159899500Y-94109146D01*
X159899500Y-94109149D01*
X159899500Y-94306231D01*
X159899500Y-94306233D01*
X159899499Y-94306233D01*
X159937947Y-94499519D01*
X159937950Y-94499529D01*
X160013364Y-94681597D01*
X160013371Y-94681610D01*
X160122860Y-94845471D01*
X160122863Y-94845475D01*
X160262214Y-94984826D01*
X160262218Y-94984829D01*
X160426079Y-95094318D01*
X160426091Y-95094325D01*
X160530328Y-95137500D01*
X160603322Y-95167735D01*
X160657725Y-95211574D01*
X160679790Y-95277868D01*
X160670430Y-95329747D01*
X160637950Y-95408160D01*
X160637947Y-95408170D01*
X160599500Y-95601456D01*
X160599500Y-95601459D01*
X160599500Y-95798541D01*
X160599500Y-95798543D01*
X160599499Y-95798543D01*
X160637947Y-95991829D01*
X160637950Y-95991839D01*
X160713364Y-96173907D01*
X160713371Y-96173920D01*
X160822860Y-96337781D01*
X160822863Y-96337785D01*
X160962214Y-96477136D01*
X160962218Y-96477139D01*
X161126079Y-96586628D01*
X161126083Y-96586630D01*
X161126086Y-96586632D01*
X161211062Y-96621830D01*
X161265464Y-96665669D01*
X161278169Y-96688937D01*
X161313366Y-96773910D01*
X161313371Y-96773920D01*
X161422860Y-96937781D01*
X161422863Y-96937785D01*
X161562214Y-97077136D01*
X161562218Y-97077139D01*
X161726079Y-97186628D01*
X161726092Y-97186635D01*
X161904372Y-97260480D01*
X161908165Y-97262051D01*
X161908169Y-97262051D01*
X161908170Y-97262052D01*
X162101456Y-97300500D01*
X162304633Y-97300500D01*
X162304633Y-97303109D01*
X162362123Y-97313979D01*
X162412860Y-97362016D01*
X162429573Y-97429857D01*
X162421875Y-97467728D01*
X162367093Y-97614605D01*
X162359743Y-97630699D01*
X162265709Y-97802908D01*
X162256144Y-97817791D01*
X162138561Y-97974864D01*
X162126975Y-97988235D01*
X161988235Y-98126975D01*
X161974864Y-98138561D01*
X161817791Y-98256144D01*
X161802908Y-98265709D01*
X161630699Y-98359743D01*
X161614605Y-98367093D01*
X161430765Y-98435661D01*
X161413790Y-98440645D01*
X161222068Y-98482351D01*
X161204557Y-98484869D01*
X161023779Y-98497799D01*
X161004417Y-98499184D01*
X160995572Y-98499500D01*
X160356204Y-98499500D01*
X160289165Y-98479815D01*
X160243410Y-98427011D01*
X160233466Y-98357853D01*
X160262491Y-98294297D01*
X160268523Y-98287819D01*
X160300198Y-98256144D01*
X160339414Y-98216928D01*
X160441232Y-98076788D01*
X160519873Y-97922445D01*
X160573402Y-97757701D01*
X160600500Y-97586611D01*
X160600500Y-97413389D01*
X160573402Y-97242299D01*
X160519873Y-97077555D01*
X160441232Y-96923212D01*
X160339414Y-96783072D01*
X160216928Y-96660586D01*
X160076788Y-96558768D01*
X159922445Y-96480127D01*
X159757701Y-96426598D01*
X159757699Y-96426597D01*
X159757698Y-96426597D01*
X159626271Y-96405781D01*
X159586611Y-96399500D01*
X159413389Y-96399500D01*
X159373728Y-96405781D01*
X159242302Y-96426597D01*
X159077552Y-96480128D01*
X158923211Y-96558768D01*
X158880687Y-96589664D01*
X158783072Y-96660586D01*
X158783070Y-96660588D01*
X158783069Y-96660588D01*
X158660588Y-96783069D01*
X158660588Y-96783070D01*
X158660586Y-96783072D01*
X158616859Y-96843256D01*
X158558768Y-96923211D01*
X158480128Y-97077552D01*
X158426597Y-97242302D01*
X158413100Y-97327519D01*
X158399500Y-97413389D01*
X158399500Y-97586611D01*
X158426598Y-97757701D01*
X158480127Y-97922445D01*
X158558768Y-98076788D01*
X158660586Y-98216928D01*
X158660588Y-98216930D01*
X158731477Y-98287819D01*
X158764962Y-98349142D01*
X158759978Y-98418834D01*
X158718106Y-98474767D01*
X158652642Y-98499184D01*
X158643796Y-98499500D01*
X115356204Y-98499500D01*
X115289165Y-98479815D01*
X115243410Y-98427011D01*
X115233466Y-98357853D01*
X115262491Y-98294297D01*
X115268523Y-98287819D01*
X115300198Y-98256144D01*
X115339414Y-98216928D01*
X115441232Y-98076788D01*
X115519873Y-97922445D01*
X115573402Y-97757701D01*
X115600500Y-97586611D01*
X115600500Y-97413389D01*
X115573402Y-97242299D01*
X115519873Y-97077555D01*
X115441232Y-96923212D01*
X115339414Y-96783072D01*
X115216928Y-96660586D01*
X115076788Y-96558768D01*
X114922445Y-96480127D01*
X114757701Y-96426598D01*
X114757699Y-96426597D01*
X114757698Y-96426597D01*
X114626271Y-96405781D01*
X114586611Y-96399500D01*
X114413389Y-96399500D01*
X114373728Y-96405781D01*
X114242302Y-96426597D01*
X114077552Y-96480128D01*
X113923211Y-96558768D01*
X113880687Y-96589664D01*
X113783072Y-96660586D01*
X113783070Y-96660588D01*
X113783069Y-96660588D01*
X113712181Y-96731477D01*
X113650858Y-96764962D01*
X113581166Y-96759978D01*
X113525233Y-96718106D01*
X113500816Y-96652642D01*
X113500500Y-96643796D01*
X113500500Y-80473075D01*
X113520185Y-80406036D01*
X113572989Y-80360281D01*
X113642147Y-80350337D01*
X113705703Y-80379362D01*
X113724815Y-80400186D01*
X113784310Y-80482073D01*
X113917927Y-80615690D01*
X114070801Y-80726760D01*
X114150347Y-80767290D01*
X114239163Y-80812545D01*
X114239165Y-80812545D01*
X114239168Y-80812547D01*
X114335497Y-80843846D01*
X114418881Y-80870940D01*
X114605514Y-80900500D01*
X114605519Y-80900500D01*
X114794486Y-80900500D01*
X114981118Y-80870940D01*
X115160832Y-80812547D01*
X115329199Y-80726760D01*
X115482073Y-80615690D01*
X115567682Y-80530079D01*
X115629005Y-80496594D01*
X115679555Y-80496143D01*
X115701459Y-80500500D01*
X115857683Y-80500500D01*
X115881876Y-80502883D01*
X115920172Y-80510501D01*
X115920173Y-80510501D01*
X116079830Y-80510501D01*
X116217014Y-80483212D01*
X116236414Y-80479353D01*
X116383916Y-80418256D01*
X116409145Y-80401397D01*
X116475822Y-80380520D01*
X116478036Y-80380500D01*
X116567024Y-80380500D01*
X116567025Y-80380499D01*
X116610847Y-80371783D01*
X116698487Y-80354351D01*
X116698490Y-80354349D01*
X116698495Y-80354349D01*
X116764411Y-80327045D01*
X116822332Y-80303055D01*
X116822335Y-80303053D01*
X116822338Y-80303052D01*
X116933794Y-80228579D01*
X117028579Y-80133794D01*
X117103052Y-80022338D01*
X117150806Y-79907047D01*
X117194646Y-79852644D01*
X117260940Y-79830579D01*
X117265367Y-79830500D01*
X134017348Y-79830500D01*
X134084387Y-79850185D01*
X134130142Y-79902989D01*
X134140086Y-79972147D01*
X134111061Y-80035703D01*
X134105029Y-80042181D01*
X133639375Y-80507834D01*
X133639372Y-80507838D01*
X133546297Y-80647133D01*
X133511442Y-80731283D01*
X133482184Y-80801917D01*
X133482182Y-80801925D01*
X133449500Y-80966228D01*
X133449500Y-91683771D01*
X133481004Y-91842153D01*
X133482183Y-91848081D01*
X133546296Y-92002863D01*
X133546297Y-92002866D01*
X133609572Y-92097563D01*
X133628087Y-92142261D01*
X133637947Y-92191830D01*
X133637950Y-92191839D01*
X133713364Y-92373907D01*
X133713371Y-92373920D01*
X133822860Y-92537781D01*
X133822863Y-92537785D01*
X133962214Y-92677136D01*
X133962218Y-92677139D01*
X134126079Y-92786628D01*
X134126092Y-92786635D01*
X134235333Y-92831883D01*
X134308165Y-92862051D01*
X134357738Y-92871911D01*
X134402436Y-92890426D01*
X134432666Y-92910625D01*
X134497137Y-92953704D01*
X134606584Y-92999037D01*
X134651918Y-93017816D01*
X134685893Y-93024573D01*
X134729072Y-93033163D01*
X134773770Y-93051677D01*
X134826077Y-93086626D01*
X134826086Y-93086632D01*
X134826092Y-93086634D01*
X134826093Y-93086635D01*
X134946805Y-93136635D01*
X135008165Y-93162051D01*
X135008169Y-93162051D01*
X135008170Y-93162052D01*
X135201456Y-93200500D01*
X135201459Y-93200500D01*
X135398543Y-93200500D01*
X135565713Y-93167247D01*
X135591835Y-93162051D01*
X135773914Y-93086632D01*
X135937782Y-92977139D01*
X136077139Y-92837782D01*
X136186632Y-92673914D01*
X136262051Y-92491835D01*
X136285509Y-92373907D01*
X136300500Y-92298543D01*
X136300500Y-92101456D01*
X136262052Y-91908170D01*
X136262051Y-91908169D01*
X136262051Y-91908165D01*
X136255287Y-91891834D01*
X136186635Y-91726092D01*
X136186628Y-91726079D01*
X136077139Y-91562218D01*
X136077136Y-91562214D01*
X135937785Y-91422863D01*
X135937781Y-91422860D01*
X135773920Y-91313371D01*
X135773907Y-91313364D01*
X135591839Y-91237950D01*
X135591829Y-91237947D01*
X135398543Y-91199500D01*
X135398541Y-91199500D01*
X135365783Y-91199500D01*
X135298744Y-91179815D01*
X135278101Y-91163180D01*
X135237785Y-91122863D01*
X135237781Y-91122860D01*
X135205609Y-91101363D01*
X135160804Y-91047750D01*
X135150500Y-90998261D01*
X135150500Y-81463965D01*
X135170185Y-81396926D01*
X135222989Y-81351171D01*
X135292147Y-81341227D01*
X135355703Y-81370252D01*
X135389062Y-81416514D01*
X135398425Y-81439121D01*
X135398429Y-81439128D01*
X135425825Y-81480128D01*
X135507919Y-81602990D01*
X135513678Y-81608749D01*
X135547165Y-81670069D01*
X135550000Y-81696433D01*
X135550000Y-81858789D01*
X135570908Y-81857145D01*
X135688415Y-81823007D01*
X135758285Y-81823207D01*
X135791900Y-81838981D01*
X135806376Y-81848654D01*
X135851180Y-81902267D01*
X135856141Y-81915751D01*
X135856948Y-81918412D01*
X135932364Y-82100485D01*
X135932371Y-82100498D01*
X136041860Y-82264359D01*
X136041863Y-82264363D01*
X136181214Y-82403714D01*
X136181218Y-82403717D01*
X136345079Y-82513206D01*
X136345092Y-82513213D01*
X136527163Y-82588628D01*
X136527165Y-82588629D01*
X136598394Y-82602797D01*
X136660303Y-82635181D01*
X136688762Y-82676962D01*
X136748064Y-82820132D01*
X136748071Y-82820145D01*
X136857560Y-82984006D01*
X136857563Y-82984010D01*
X136996914Y-83123361D01*
X136996918Y-83123364D01*
X137160779Y-83232853D01*
X137160792Y-83232860D01*
X137342860Y-83308274D01*
X137342865Y-83308276D01*
X137342869Y-83308276D01*
X137342870Y-83308277D01*
X137536156Y-83346725D01*
X137536159Y-83346725D01*
X137733242Y-83346725D01*
X137749454Y-83343499D01*
X137827378Y-83327999D01*
X137896966Y-83334225D01*
X137952144Y-83377087D01*
X137954671Y-83380727D01*
X137979455Y-83417820D01*
X138000332Y-83484497D01*
X137999756Y-83498851D01*
X137999500Y-83501452D01*
X137999500Y-83501459D01*
X137999500Y-83698541D01*
X137999500Y-83698543D01*
X137999499Y-83698543D01*
X138037947Y-83891829D01*
X138037950Y-83891839D01*
X138113364Y-84073907D01*
X138113371Y-84073920D01*
X138222860Y-84237781D01*
X138222863Y-84237785D01*
X138362214Y-84377136D01*
X138362218Y-84377139D01*
X138526079Y-84486628D01*
X138526092Y-84486635D01*
X138611250Y-84521908D01*
X138708165Y-84562051D01*
X138816293Y-84583558D01*
X138878201Y-84615942D01*
X138906660Y-84657720D01*
X138913368Y-84673914D01*
X138913370Y-84673917D01*
X138913371Y-84673919D01*
X139022860Y-84837782D01*
X139162217Y-84977139D01*
X139326080Y-85086628D01*
X139326086Y-85086632D01*
X139338416Y-85091739D01*
X139392819Y-85135580D01*
X139405524Y-85158847D01*
X139453368Y-85274353D01*
X139453369Y-85274355D01*
X139453371Y-85274358D01*
X139562860Y-85438221D01*
X139702217Y-85577578D01*
X139859284Y-85682526D01*
X139904089Y-85736138D01*
X139912010Y-85761436D01*
X139937947Y-85891829D01*
X139937950Y-85891839D01*
X140013364Y-86073907D01*
X140013371Y-86073920D01*
X140122860Y-86237781D01*
X140122863Y-86237785D01*
X140262214Y-86377136D01*
X140262218Y-86377139D01*
X140426079Y-86486628D01*
X140426092Y-86486635D01*
X140608160Y-86562049D01*
X140608165Y-86562051D01*
X140608169Y-86562051D01*
X140608170Y-86562052D01*
X140801456Y-86600500D01*
X140801459Y-86600500D01*
X140998543Y-86600500D01*
X141128582Y-86574632D01*
X141191835Y-86562051D01*
X141373914Y-86486632D01*
X141537782Y-86377139D01*
X141677139Y-86237782D01*
X141786632Y-86073914D01*
X141862051Y-85891835D01*
X141887989Y-85761436D01*
X141900500Y-85698543D01*
X141900500Y-85652161D01*
X141902883Y-85627968D01*
X141910500Y-85589678D01*
X141910500Y-81949542D01*
X141930185Y-81882503D01*
X141950000Y-81858877D01*
X141950000Y-81224499D01*
X141969685Y-81157460D01*
X142022489Y-81111705D01*
X142073996Y-81100499D01*
X142326000Y-81100499D01*
X142393039Y-81120184D01*
X142438794Y-81172988D01*
X142450000Y-81224499D01*
X142450000Y-81858789D01*
X142465776Y-81857549D01*
X142534153Y-81871916D01*
X142583908Y-81920969D01*
X142599500Y-81981167D01*
X142599500Y-94084933D01*
X142599417Y-94084933D01*
X142599417Y-94095369D01*
X142599500Y-94095369D01*
X142599500Y-94101459D01*
X142599500Y-94298541D01*
X142599500Y-94298543D01*
X142599499Y-94298543D01*
X142637947Y-94491829D01*
X142637950Y-94491839D01*
X142713364Y-94673907D01*
X142713371Y-94673920D01*
X142822860Y-94837781D01*
X142822863Y-94837785D01*
X142962214Y-94977136D01*
X142962218Y-94977139D01*
X143126079Y-95086628D01*
X143126092Y-95086635D01*
X143248893Y-95137500D01*
X143308165Y-95162051D01*
X143308169Y-95162051D01*
X143308170Y-95162052D01*
X143501456Y-95200500D01*
X143501459Y-95200500D01*
X143698543Y-95200500D01*
X143853175Y-95169741D01*
X143891835Y-95162051D01*
X144073914Y-95086632D01*
X144237782Y-94977139D01*
X144377139Y-94837782D01*
X144486632Y-94673914D01*
X144562051Y-94491835D01*
X144588130Y-94360728D01*
X144600500Y-94298543D01*
X144600500Y-94101456D01*
X144562052Y-93908170D01*
X144562051Y-93908169D01*
X144562051Y-93908165D01*
X144562049Y-93908160D01*
X144486635Y-93726092D01*
X144486628Y-93726079D01*
X144377139Y-93562218D01*
X144377136Y-93562214D01*
X144236819Y-93421897D01*
X144203334Y-93360574D01*
X144200500Y-93334216D01*
X144200500Y-92391928D01*
X144220185Y-92324889D01*
X144272989Y-92279134D01*
X144300303Y-92270311D01*
X144341835Y-92262051D01*
X144523914Y-92186632D01*
X144687782Y-92077139D01*
X144827139Y-91937782D01*
X144936632Y-91773914D01*
X145012051Y-91591835D01*
X145045662Y-91422863D01*
X145050500Y-91398543D01*
X145050500Y-91201459D01*
X145050110Y-91199500D01*
X145046317Y-91180430D01*
X145052543Y-91110840D01*
X145095405Y-91055662D01*
X145098996Y-91053167D01*
X145212782Y-90977139D01*
X145352139Y-90837782D01*
X145461632Y-90673914D01*
X145537051Y-90491835D01*
X145575500Y-90298541D01*
X145575500Y-90101459D01*
X145575500Y-90101456D01*
X145537052Y-89908170D01*
X145537051Y-89908169D01*
X145537051Y-89908165D01*
X145495629Y-89808162D01*
X145461635Y-89726092D01*
X145461628Y-89726079D01*
X145352139Y-89562218D01*
X145352136Y-89562214D01*
X145236819Y-89446897D01*
X145203334Y-89385574D01*
X145200500Y-89359216D01*
X145200500Y-77321155D01*
X145200499Y-77321153D01*
X145188910Y-77262892D01*
X145169737Y-77166503D01*
X145143053Y-77102081D01*
X145109397Y-77020827D01*
X145109390Y-77020814D01*
X145021790Y-76889712D01*
X144966078Y-76834000D01*
X144910289Y-76778211D01*
X144583259Y-76451181D01*
X144549774Y-76389858D01*
X144554758Y-76320166D01*
X144596630Y-76264233D01*
X144623478Y-76248943D01*
X144773914Y-76186632D01*
X144937782Y-76077139D01*
X145077139Y-75937782D01*
X145186632Y-75773914D01*
X145208896Y-75720163D01*
X145264382Y-75586208D01*
X145266345Y-75587021D01*
X145299355Y-75536638D01*
X145363163Y-75508173D01*
X145379731Y-75507061D01*
X145545906Y-75507061D01*
X145545906Y-75507060D01*
X145584847Y-75499314D01*
X145609038Y-75496932D01*
X145675500Y-75496932D01*
X145742539Y-75516617D01*
X145788294Y-75569421D01*
X145799500Y-75620932D01*
X145799500Y-79834902D01*
X145790061Y-79882354D01*
X145737949Y-80008163D01*
X145737947Y-80008171D01*
X145699500Y-80201456D01*
X145699500Y-80201459D01*
X145699500Y-80398541D01*
X145699500Y-80398543D01*
X145699499Y-80398543D01*
X145737947Y-80591829D01*
X145737950Y-80591839D01*
X145813364Y-80773907D01*
X145813371Y-80773920D01*
X145922860Y-80937781D01*
X145922863Y-80937785D01*
X146062214Y-81077136D01*
X146062218Y-81077139D01*
X146226079Y-81186628D01*
X146226086Y-81186632D01*
X146291301Y-81213644D01*
X146345703Y-81257484D01*
X146367769Y-81323777D01*
X146350491Y-81391477D01*
X146299354Y-81439088D01*
X146282167Y-81446136D01*
X146177550Y-81480128D01*
X146023211Y-81558768D01*
X145962350Y-81602987D01*
X145883072Y-81660586D01*
X145883070Y-81660588D01*
X145883069Y-81660588D01*
X145760588Y-81783069D01*
X145760588Y-81783070D01*
X145760586Y-81783072D01*
X145731426Y-81823207D01*
X145658768Y-81923211D01*
X145580128Y-82077552D01*
X145526597Y-82242302D01*
X145501032Y-82403714D01*
X145499500Y-82413389D01*
X145499500Y-82586611D01*
X145526598Y-82757701D01*
X145580127Y-82922445D01*
X145658768Y-83076788D01*
X145760586Y-83216928D01*
X145883072Y-83339414D01*
X146023212Y-83441232D01*
X146177555Y-83519873D01*
X146342299Y-83573402D01*
X146513389Y-83600500D01*
X146513390Y-83600500D01*
X146686610Y-83600500D01*
X146686611Y-83600500D01*
X146857701Y-83573402D01*
X147022445Y-83519873D01*
X147043704Y-83509040D01*
X147112372Y-83496144D01*
X147156294Y-83509040D01*
X147177555Y-83519873D01*
X147342299Y-83573402D01*
X147513389Y-83600500D01*
X147513390Y-83600500D01*
X147675500Y-83600500D01*
X147742539Y-83620185D01*
X147788294Y-83672989D01*
X147799500Y-83724500D01*
X147799500Y-91138378D01*
X147779815Y-91205417D01*
X147727011Y-91251172D01*
X147657853Y-91261116D01*
X147651310Y-91259996D01*
X147598541Y-91249500D01*
X147401459Y-91249500D01*
X147401457Y-91249500D01*
X147208170Y-91287947D01*
X147208160Y-91287950D01*
X147026092Y-91363364D01*
X147026079Y-91363371D01*
X146862218Y-91472860D01*
X146862214Y-91472863D01*
X146722863Y-91612214D01*
X146722860Y-91612218D01*
X146613371Y-91776079D01*
X146613364Y-91776092D01*
X146537950Y-91958160D01*
X146537947Y-91958170D01*
X146499500Y-92151456D01*
X146499500Y-92151459D01*
X146499500Y-92348541D01*
X146499500Y-92348543D01*
X146499499Y-92348543D01*
X146537947Y-92541829D01*
X146537950Y-92541839D01*
X146613364Y-92723907D01*
X146613371Y-92723920D01*
X146722860Y-92887781D01*
X146722863Y-92887785D01*
X146862214Y-93027136D01*
X146862218Y-93027139D01*
X147026079Y-93136628D01*
X147026092Y-93136635D01*
X147180278Y-93200500D01*
X147208165Y-93212051D01*
X147208169Y-93212051D01*
X147208170Y-93212052D01*
X147401456Y-93250500D01*
X147587529Y-93250500D01*
X147654568Y-93270185D01*
X147700323Y-93322989D01*
X147710267Y-93392147D01*
X147681242Y-93455703D01*
X147650650Y-93481232D01*
X147584625Y-93520278D01*
X147584616Y-93520285D01*
X147470285Y-93634616D01*
X147470278Y-93634625D01*
X147387968Y-93773804D01*
X147387966Y-93773809D01*
X147342855Y-93929081D01*
X147342854Y-93929087D01*
X147341209Y-93949999D01*
X147341210Y-93950000D01*
X147975500Y-93950000D01*
X148042539Y-93969685D01*
X148088294Y-94022489D01*
X148099500Y-94074000D01*
X148099501Y-94326000D01*
X148079817Y-94393039D01*
X148027013Y-94438794D01*
X147975501Y-94450000D01*
X147341210Y-94450000D01*
X147342854Y-94470910D01*
X147352394Y-94503745D01*
X147352194Y-94573614D01*
X147314251Y-94632284D01*
X147276651Y-94654521D01*
X147170412Y-94694146D01*
X147170406Y-94694149D01*
X147055312Y-94780309D01*
X147055309Y-94780312D01*
X146969149Y-94895406D01*
X146969145Y-94895413D01*
X146918903Y-95030120D01*
X146918901Y-95030127D01*
X146912500Y-95089655D01*
X146912500Y-95137500D01*
X147538000Y-95137500D01*
X147605039Y-95157185D01*
X147650794Y-95209989D01*
X147662000Y-95261500D01*
X147662000Y-95313500D01*
X147642315Y-95380539D01*
X147589511Y-95426294D01*
X147538000Y-95437500D01*
X146912500Y-95437500D01*
X146912500Y-95485335D01*
X146916683Y-95524248D01*
X146916683Y-95550752D01*
X146912500Y-95589664D01*
X146912500Y-95637500D01*
X147538000Y-95637500D01*
X147605039Y-95657185D01*
X147650794Y-95709989D01*
X147662000Y-95761500D01*
X147662000Y-95813500D01*
X147642315Y-95880539D01*
X147589511Y-95926294D01*
X147538000Y-95937500D01*
X146912500Y-95937500D01*
X146912500Y-95985335D01*
X146916683Y-96024248D01*
X146916683Y-96050752D01*
X146912500Y-96089664D01*
X146912500Y-96137500D01*
X147538000Y-96137500D01*
X147605039Y-96157185D01*
X147650794Y-96209989D01*
X147662000Y-96261500D01*
X147662000Y-96313500D01*
X147642315Y-96380539D01*
X147589511Y-96426294D01*
X147538000Y-96437500D01*
X146912500Y-96437500D01*
X146912500Y-96485335D01*
X146916683Y-96524248D01*
X146916683Y-96550752D01*
X146912500Y-96589664D01*
X146912500Y-96637500D01*
X147538000Y-96637500D01*
X147605039Y-96657185D01*
X147650794Y-96709989D01*
X147662000Y-96761500D01*
X147662000Y-96813500D01*
X147642315Y-96880539D01*
X147589511Y-96926294D01*
X147538000Y-96937500D01*
X146912500Y-96937500D01*
X146912500Y-96985344D01*
X146918901Y-97044872D01*
X146918903Y-97044879D01*
X146969145Y-97179586D01*
X146969149Y-97179593D01*
X147055309Y-97294687D01*
X147055312Y-97294690D01*
X147170406Y-97380850D01*
X147170413Y-97380854D01*
X147305120Y-97431096D01*
X147305127Y-97431098D01*
X147364655Y-97437499D01*
X147364672Y-97437500D01*
X147637500Y-97437500D01*
X147637500Y-97327519D01*
X147657185Y-97260480D01*
X147709989Y-97214725D01*
X147779147Y-97204781D01*
X147842703Y-97233806D01*
X147849181Y-97239838D01*
X147901181Y-97291838D01*
X147934666Y-97353161D01*
X147937500Y-97379519D01*
X147937500Y-97437500D01*
X148155181Y-97437500D01*
X148192069Y-97443114D01*
X148205310Y-97447239D01*
X148235304Y-97456586D01*
X148305884Y-97463000D01*
X149796268Y-97463000D01*
X149863307Y-97482685D01*
X149872735Y-97489385D01*
X149877307Y-97492966D01*
X149877312Y-97492969D01*
X149877315Y-97492972D01*
X150022894Y-97580978D01*
X150185304Y-97631586D01*
X150255884Y-97638000D01*
X150255887Y-97638000D01*
X151119113Y-97638000D01*
X151119116Y-97638000D01*
X151189696Y-97631586D01*
X151311555Y-97593614D01*
X151348444Y-97588000D01*
X153401344Y-97588000D01*
X153401345Y-97587999D01*
X153555997Y-97557237D01*
X153701679Y-97496894D01*
X153832789Y-97409289D01*
X153991891Y-97250185D01*
X154053212Y-97216701D01*
X154122903Y-97221685D01*
X154148458Y-97234762D01*
X154226086Y-97286632D01*
X154226088Y-97286633D01*
X154226092Y-97286635D01*
X154408160Y-97362049D01*
X154408165Y-97362051D01*
X154408169Y-97362051D01*
X154408170Y-97362052D01*
X154601456Y-97400500D01*
X154601459Y-97400500D01*
X154798543Y-97400500D01*
X154928582Y-97374632D01*
X154991835Y-97362051D01*
X155173914Y-97286632D01*
X155337782Y-97177139D01*
X155477139Y-97037782D01*
X155586632Y-96873914D01*
X155662051Y-96691835D01*
X155682374Y-96589664D01*
X155700500Y-96498543D01*
X155700500Y-96301456D01*
X155662052Y-96108170D01*
X155662051Y-96108169D01*
X155662051Y-96108165D01*
X155613866Y-95991835D01*
X155586635Y-95926092D01*
X155586628Y-95926079D01*
X155477139Y-95762218D01*
X155477136Y-95762214D01*
X155337785Y-95622863D01*
X155337781Y-95622860D01*
X155173920Y-95513371D01*
X155173910Y-95513366D01*
X155091535Y-95479245D01*
X155037132Y-95435404D01*
X155015067Y-95369109D01*
X155017691Y-95343988D01*
X155016885Y-95343862D01*
X155017732Y-95338464D01*
X155017732Y-95338461D01*
X155017733Y-95338458D01*
X155020500Y-95297655D01*
X155020499Y-94882346D01*
X155017733Y-94841542D01*
X154973875Y-94665182D01*
X154893129Y-94502373D01*
X154779272Y-94360728D01*
X154736069Y-94326000D01*
X154637626Y-94246870D01*
X154474819Y-94166125D01*
X154298460Y-94122267D01*
X154298461Y-94122267D01*
X154273976Y-94120606D01*
X154257655Y-94119500D01*
X154257653Y-94119500D01*
X154212940Y-94119500D01*
X154145901Y-94099815D01*
X154125259Y-94083181D01*
X153710292Y-93668213D01*
X153710288Y-93668210D01*
X153579185Y-93580609D01*
X153579176Y-93580604D01*
X153440475Y-93523153D01*
X153410241Y-93505240D01*
X153337627Y-93446871D01*
X153293948Y-93425208D01*
X153174819Y-93366125D01*
X152998460Y-93322267D01*
X152998461Y-93322267D01*
X152978056Y-93320883D01*
X152957655Y-93319500D01*
X152957652Y-93319500D01*
X152442346Y-93319500D01*
X152442342Y-93319501D01*
X152401544Y-93322266D01*
X152401543Y-93322266D01*
X152225180Y-93366125D01*
X152062376Y-93446869D01*
X152062374Y-93446870D01*
X152062373Y-93446871D01*
X152043367Y-93462148D01*
X151978786Y-93488806D01*
X151965682Y-93489500D01*
X151831155Y-93489500D01*
X151676510Y-93520261D01*
X151676498Y-93520264D01*
X151530827Y-93580602D01*
X151530814Y-93580609D01*
X151399711Y-93668210D01*
X151399707Y-93668213D01*
X150837680Y-94230240D01*
X150776357Y-94263725D01*
X150706665Y-94258741D01*
X150662318Y-94230240D01*
X150010292Y-93578213D01*
X149935608Y-93528310D01*
X149890804Y-93474697D01*
X149880500Y-93425208D01*
X149880500Y-92951159D01*
X149872438Y-92910626D01*
X149872438Y-92910625D01*
X149857949Y-92837782D01*
X149849738Y-92796503D01*
X149789394Y-92650821D01*
X149789392Y-92650818D01*
X149789390Y-92650814D01*
X149701789Y-92519711D01*
X149701786Y-92519707D01*
X149545063Y-92362984D01*
X149511578Y-92301661D01*
X149516562Y-92231969D01*
X149518183Y-92227851D01*
X149565894Y-92112666D01*
X149568124Y-92101459D01*
X149600499Y-91938695D01*
X149600500Y-91938693D01*
X149600500Y-64706847D01*
X149620185Y-64639808D01*
X149672989Y-64594053D01*
X149700309Y-64585230D01*
X149737436Y-64577844D01*
X149816835Y-64562051D01*
X149998914Y-64486632D01*
X150162782Y-64377139D01*
X150302139Y-64237782D01*
X150411632Y-64073914D01*
X150487051Y-63891835D01*
X150499632Y-63828582D01*
X150525500Y-63698543D01*
X150525500Y-63501456D01*
X150487052Y-63308170D01*
X150487051Y-63308169D01*
X150487051Y-63308165D01*
X150477423Y-63284920D01*
X150411635Y-63126093D01*
X150411634Y-63126092D01*
X150411632Y-63126086D01*
X150396396Y-63103284D01*
X150375520Y-63036607D01*
X150375500Y-63034395D01*
X150375500Y-54369951D01*
X150395185Y-54302912D01*
X150447989Y-54257157D01*
X150517147Y-54247213D01*
X150518737Y-54247453D01*
X150537973Y-54250500D01*
X150537978Y-54250500D01*
X150782026Y-54250500D01*
X150782027Y-54250500D01*
X150906102Y-54230848D01*
X150975395Y-54239802D01*
X151028847Y-54284799D01*
X151049487Y-54351550D01*
X151049500Y-54353321D01*
X151049500Y-90698261D01*
X151029815Y-90765300D01*
X150994391Y-90801363D01*
X150962218Y-90822860D01*
X150962214Y-90822863D01*
X150822863Y-90962214D01*
X150822860Y-90962218D01*
X150713371Y-91126079D01*
X150713364Y-91126092D01*
X150637950Y-91308160D01*
X150637947Y-91308170D01*
X150599500Y-91501456D01*
X150599500Y-91501459D01*
X150599500Y-91698541D01*
X150599500Y-91698543D01*
X150599499Y-91698543D01*
X150637947Y-91891829D01*
X150637950Y-91891839D01*
X150713364Y-92073907D01*
X150713371Y-92073920D01*
X150822860Y-92237781D01*
X150822863Y-92237785D01*
X150962214Y-92377136D01*
X150962218Y-92377139D01*
X151126079Y-92486628D01*
X151126092Y-92486635D01*
X151308160Y-92562049D01*
X151308165Y-92562051D01*
X151308169Y-92562051D01*
X151308170Y-92562052D01*
X151501456Y-92600500D01*
X151501459Y-92600500D01*
X151698543Y-92600500D01*
X151828582Y-92574632D01*
X151891835Y-92562051D01*
X152073914Y-92486632D01*
X152237782Y-92377139D01*
X152377139Y-92237782D01*
X152486632Y-92073914D01*
X152562051Y-91891835D01*
X152571911Y-91842259D01*
X152590426Y-91797562D01*
X152653704Y-91702863D01*
X152710632Y-91565426D01*
X152717816Y-91548082D01*
X152727091Y-91501456D01*
X152750499Y-91383771D01*
X152750500Y-91383768D01*
X152750500Y-91224502D01*
X152770185Y-91157463D01*
X152822989Y-91111708D01*
X152874500Y-91100502D01*
X152898543Y-91100502D01*
X153028582Y-91074634D01*
X153091835Y-91062053D01*
X153273914Y-90986634D01*
X153437782Y-90877141D01*
X153577139Y-90737784D01*
X153686632Y-90573916D01*
X153762051Y-90391837D01*
X153800500Y-90198543D01*
X153800500Y-90001461D01*
X153800500Y-90001458D01*
X153762052Y-89808172D01*
X153762051Y-89808171D01*
X153762051Y-89808167D01*
X153728052Y-89726086D01*
X153686635Y-89626094D01*
X153686628Y-89626081D01*
X153573755Y-89457155D01*
X153575278Y-89456137D01*
X153551331Y-89399725D01*
X153550500Y-89385391D01*
X153550500Y-88126282D01*
X153550499Y-88126278D01*
X153517816Y-87961968D01*
X153517811Y-87961957D01*
X153516048Y-87956141D01*
X153518407Y-87955425D01*
X153512068Y-87896746D01*
X153543310Y-87834250D01*
X153546401Y-87831044D01*
X154692722Y-86684723D01*
X154692727Y-86684720D01*
X154702930Y-86674516D01*
X154702932Y-86674516D01*
X154764466Y-86612982D01*
X154793871Y-86562051D01*
X154807977Y-86537619D01*
X154830500Y-86453561D01*
X154830500Y-86366539D01*
X154830500Y-64628889D01*
X154850185Y-64561850D01*
X154902989Y-64516095D01*
X154907006Y-64514345D01*
X154965935Y-64489936D01*
X155013385Y-64480499D01*
X155357655Y-64480499D01*
X155357655Y-64480498D01*
X155398458Y-64477733D01*
X155574818Y-64433875D01*
X155737627Y-64353129D01*
X155879272Y-64239272D01*
X155993129Y-64097627D01*
X156073875Y-63934818D01*
X156117733Y-63758458D01*
X156120500Y-63717655D01*
X156120499Y-63302346D01*
X156120499Y-63302338D01*
X156117733Y-63261544D01*
X156117733Y-63261543D01*
X156117733Y-63261542D01*
X156073875Y-63085182D01*
X155993129Y-62922373D01*
X155993125Y-62922367D01*
X155940242Y-62856577D01*
X155940236Y-62856571D01*
X155879272Y-62780728D01*
X155737627Y-62666871D01*
X155737626Y-62666870D01*
X155574819Y-62586125D01*
X155398460Y-62542267D01*
X155398461Y-62542267D01*
X155373976Y-62540606D01*
X155357655Y-62539500D01*
X155357653Y-62539500D01*
X154842346Y-62539500D01*
X154842342Y-62539501D01*
X154801544Y-62542266D01*
X154801543Y-62542266D01*
X154625178Y-62586126D01*
X154624250Y-62586587D01*
X154623351Y-62586797D01*
X154618870Y-62588444D01*
X154618668Y-62587895D01*
X154569154Y-62599500D01*
X154401457Y-62599500D01*
X154208170Y-62637947D01*
X154208160Y-62637950D01*
X154026092Y-62713364D01*
X154026079Y-62713371D01*
X153862218Y-62822860D01*
X153862214Y-62822863D01*
X153722863Y-62962214D01*
X153722860Y-62962218D01*
X153613371Y-63126079D01*
X153613364Y-63126092D01*
X153537950Y-63308160D01*
X153537947Y-63308170D01*
X153499500Y-63501456D01*
X153499500Y-63501459D01*
X153499500Y-63698541D01*
X153499500Y-63698543D01*
X153499499Y-63698543D01*
X153537947Y-63891829D01*
X153537950Y-63891839D01*
X153613364Y-64073907D01*
X153613371Y-64073920D01*
X153722860Y-64237781D01*
X153722863Y-64237785D01*
X153862217Y-64377139D01*
X153981665Y-64456951D01*
X154026086Y-64486632D01*
X154092953Y-64514328D01*
X154147355Y-64558168D01*
X154169421Y-64624462D01*
X154169500Y-64628889D01*
X154169500Y-86221789D01*
X154149815Y-86288828D01*
X154133181Y-86309470D01*
X153079030Y-87363620D01*
X153017707Y-87397105D01*
X152954338Y-87392573D01*
X152953905Y-87394001D01*
X152948074Y-87392231D01*
X152850309Y-87372785D01*
X152788398Y-87340400D01*
X152753823Y-87279684D01*
X152750500Y-87251168D01*
X152750500Y-62240000D01*
X154287156Y-62240000D01*
X154850000Y-62240000D01*
X155350000Y-62240000D01*
X155912844Y-62240000D01*
X155872404Y-62100805D01*
X155790738Y-61962714D01*
X155790731Y-61962705D01*
X155677294Y-61849268D01*
X155677285Y-61849261D01*
X155539191Y-61767593D01*
X155539188Y-61767592D01*
X155385130Y-61722834D01*
X155350000Y-61720068D01*
X155350000Y-62240000D01*
X154850000Y-62240000D01*
X154850000Y-61720068D01*
X154849999Y-61720068D01*
X154814869Y-61722834D01*
X154814868Y-61722834D01*
X154660811Y-61767592D01*
X154660808Y-61767593D01*
X154522714Y-61849261D01*
X154522705Y-61849268D01*
X154409268Y-61962705D01*
X154409261Y-61962714D01*
X154327595Y-62100805D01*
X154287156Y-62240000D01*
X152750500Y-62240000D01*
X152750500Y-54174000D01*
X152770185Y-54106961D01*
X152822989Y-54061206D01*
X152874500Y-54050000D01*
X152950000Y-54050000D01*
X152950000Y-53133012D01*
X153007007Y-53165925D01*
X153134174Y-53200000D01*
X153265826Y-53200000D01*
X153392993Y-53165925D01*
X153450000Y-53133012D01*
X153450000Y-54050000D01*
G37*
G04 #@! TD.AperFunction*
G04 #@! TA.AperFunction,Conductor*
G36*
X162425395Y-82182610D02*
G01*
X162478847Y-82227606D01*
X162499487Y-82294357D01*
X162499500Y-82296128D01*
X162499500Y-87258323D01*
X162479815Y-87325362D01*
X162427011Y-87371117D01*
X162357853Y-87381061D01*
X162294297Y-87352036D01*
X162287819Y-87346004D01*
X162187785Y-87245970D01*
X162187781Y-87245967D01*
X162023920Y-87136478D01*
X162023910Y-87136473D01*
X161927047Y-87096351D01*
X161872644Y-87052510D01*
X161850579Y-86986216D01*
X161850500Y-86981790D01*
X161850500Y-82319885D01*
X161870185Y-82252846D01*
X161922989Y-82207091D01*
X161992147Y-82197147D01*
X161993705Y-82197382D01*
X162013389Y-82200500D01*
X162013395Y-82200500D01*
X162186610Y-82200500D01*
X162186611Y-82200500D01*
X162356102Y-82173655D01*
X162425395Y-82182610D01*
G37*
G04 #@! TD.AperFunction*
G04 #@! TA.AperFunction,Conductor*
G36*
X113693391Y-69437833D02*
G01*
X113694090Y-69438300D01*
X113694092Y-69438302D01*
X113833652Y-69531553D01*
X113849763Y-69542318D01*
X113849771Y-69542323D01*
X113864812Y-69548553D01*
X114022749Y-69613973D01*
X114206379Y-69650499D01*
X114206383Y-69650500D01*
X114206384Y-69650500D01*
X114292092Y-69650500D01*
X114359131Y-69670185D01*
X114404886Y-69722989D01*
X114406653Y-69727047D01*
X114457676Y-69850227D01*
X114457681Y-69850237D01*
X114561697Y-70005907D01*
X114561700Y-70005911D01*
X114694091Y-70138302D01*
X114853928Y-70245101D01*
X114898733Y-70298713D01*
X114907440Y-70368038D01*
X114897212Y-70398324D01*
X114897999Y-70398650D01*
X114838844Y-70541460D01*
X114795002Y-70595863D01*
X114793174Y-70597108D01*
X114651345Y-70691875D01*
X114651341Y-70691878D01*
X114518953Y-70824266D01*
X114518950Y-70824270D01*
X114414934Y-70979940D01*
X114414929Y-70979949D01*
X114343280Y-71152926D01*
X114343278Y-71152934D01*
X114306753Y-71336557D01*
X114306753Y-71523798D01*
X114343278Y-71707421D01*
X114343280Y-71707429D01*
X114414929Y-71880406D01*
X114414934Y-71880415D01*
X114453137Y-71937589D01*
X114474015Y-72004266D01*
X114455531Y-72071647D01*
X114437718Y-72094160D01*
X114386298Y-72145581D01*
X114282284Y-72301248D01*
X114282279Y-72301257D01*
X114210630Y-72474234D01*
X114210628Y-72474242D01*
X114174103Y-72657865D01*
X114174103Y-72845106D01*
X114210628Y-73028729D01*
X114210631Y-73028741D01*
X114249718Y-73123106D01*
X114257187Y-73192575D01*
X114249719Y-73218009D01*
X114236260Y-73250503D01*
X114236258Y-73250506D01*
X114199733Y-73434134D01*
X114199733Y-73621375D01*
X114236258Y-73804998D01*
X114236261Y-73805010D01*
X114296674Y-73950861D01*
X114304143Y-74020330D01*
X114272867Y-74082809D01*
X114269795Y-74085994D01*
X114161697Y-74194092D01*
X114057681Y-74349762D01*
X114057676Y-74349771D01*
X113986027Y-74522748D01*
X113986025Y-74522756D01*
X113949500Y-74706379D01*
X113949500Y-74893620D01*
X113965798Y-74975555D01*
X113959571Y-75045147D01*
X113958742Y-75047199D01*
X113886027Y-75222748D01*
X113886025Y-75222756D01*
X113849500Y-75406379D01*
X113849500Y-75593620D01*
X113886025Y-75777243D01*
X113886027Y-75777251D01*
X113957676Y-75950228D01*
X113957681Y-75950237D01*
X114061697Y-76105907D01*
X114061700Y-76105911D01*
X114194088Y-76238299D01*
X114194092Y-76238302D01*
X114349762Y-76342318D01*
X114349771Y-76342323D01*
X114374314Y-76352489D01*
X114522749Y-76413973D01*
X114545920Y-76418581D01*
X114607831Y-76450965D01*
X114609412Y-76452518D01*
X115332177Y-77175284D01*
X115332184Y-77175290D01*
X115463291Y-77262892D01*
X115463292Y-77262892D01*
X115463293Y-77262893D01*
X115608975Y-77323237D01*
X115608979Y-77323237D01*
X115608980Y-77323238D01*
X115763626Y-77354000D01*
X115763629Y-77354000D01*
X115921316Y-77354000D01*
X115921317Y-77353999D01*
X116075969Y-77323237D01*
X116221651Y-77262893D01*
X116352761Y-77175289D01*
X116464261Y-77063789D01*
X116551865Y-76932679D01*
X116551867Y-76932675D01*
X116561034Y-76910546D01*
X116604875Y-76856143D01*
X116671170Y-76834079D01*
X116675594Y-76834000D01*
X129100775Y-76834000D01*
X129167814Y-76853685D01*
X129213569Y-76906489D01*
X129215326Y-76910525D01*
X129219583Y-76920802D01*
X129224502Y-76932678D01*
X129224506Y-76932685D01*
X129312107Y-77063788D01*
X129312110Y-77063792D01*
X130577137Y-78328819D01*
X130610622Y-78390142D01*
X130605638Y-78459834D01*
X130563766Y-78515767D01*
X130498302Y-78540184D01*
X130489456Y-78540500D01*
X116116872Y-78540500D01*
X116092680Y-78538117D01*
X115898543Y-78499500D01*
X115898541Y-78499500D01*
X115781722Y-78499500D01*
X115714683Y-78479815D01*
X115668928Y-78427011D01*
X115663064Y-78411503D01*
X115662052Y-78408168D01*
X115661185Y-78406076D01*
X115600801Y-78260293D01*
X115586635Y-78226092D01*
X115586628Y-78226079D01*
X115477139Y-78062218D01*
X115477136Y-78062214D01*
X115337785Y-77922863D01*
X115337781Y-77922860D01*
X115173920Y-77813371D01*
X115173907Y-77813364D01*
X114991839Y-77737950D01*
X114991829Y-77737947D01*
X114798543Y-77699500D01*
X114798541Y-77699500D01*
X114601459Y-77699500D01*
X114601457Y-77699500D01*
X114408170Y-77737947D01*
X114408160Y-77737950D01*
X114226092Y-77813364D01*
X114226079Y-77813371D01*
X114062218Y-77922860D01*
X114062214Y-77922863D01*
X113922863Y-78062214D01*
X113922860Y-78062218D01*
X113813371Y-78226079D01*
X113813364Y-78226092D01*
X113739061Y-78405479D01*
X113695220Y-78459883D01*
X113628926Y-78481948D01*
X113561227Y-78464669D01*
X113513616Y-78413532D01*
X113500500Y-78358027D01*
X113500500Y-69540935D01*
X113520185Y-69473896D01*
X113572989Y-69428141D01*
X113642147Y-69418197D01*
X113693391Y-69437833D01*
G37*
G04 #@! TD.AperFunction*
G04 #@! TA.AperFunction,Conductor*
G36*
X134730404Y-68909605D02*
G01*
X134738448Y-68913595D01*
X134817279Y-68933199D01*
X134877585Y-68968480D01*
X134909244Y-69030765D01*
X134902203Y-69100279D01*
X134900000Y-69103354D01*
X134900000Y-69700680D01*
X134932666Y-69760504D01*
X134935500Y-69786862D01*
X134935500Y-69913138D01*
X134915815Y-69980177D01*
X134900000Y-69999802D01*
X134900000Y-70560212D01*
X134973097Y-70541556D01*
X135028219Y-70518724D01*
X135028235Y-70518717D01*
X135076986Y-70495393D01*
X135076992Y-70495389D01*
X135173797Y-70422921D01*
X135239262Y-70398503D01*
X135307535Y-70413354D01*
X135330971Y-70429938D01*
X135348157Y-70445375D01*
X135348162Y-70445379D01*
X135471769Y-70518719D01*
X135471768Y-70518719D01*
X135526903Y-70541556D01*
X135526907Y-70541558D01*
X135577890Y-70559544D01*
X135599999Y-70562722D01*
X135619115Y-70546159D01*
X135682671Y-70517133D01*
X135751829Y-70527076D01*
X135769207Y-70536766D01*
X135823453Y-70573013D01*
X135823455Y-70573014D01*
X135823459Y-70573016D01*
X135893630Y-70602081D01*
X135987334Y-70640894D01*
X135987336Y-70640894D01*
X135987341Y-70640896D01*
X136161304Y-70675499D01*
X136161307Y-70675500D01*
X136161309Y-70675500D01*
X136338692Y-70675500D01*
X136364878Y-70670290D01*
X136450178Y-70653323D01*
X136498559Y-70653323D01*
X136660322Y-70685499D01*
X136660323Y-70685500D01*
X136660324Y-70685500D01*
X136839678Y-70685500D01*
X136934295Y-70666678D01*
X136975809Y-70658421D01*
X137024191Y-70658421D01*
X137054998Y-70664549D01*
X137160321Y-70685500D01*
X137160324Y-70685500D01*
X137339678Y-70685500D01*
X137434295Y-70666678D01*
X137475809Y-70658421D01*
X137524191Y-70658421D01*
X137554998Y-70664549D01*
X137660321Y-70685500D01*
X137660324Y-70685500D01*
X137839677Y-70685500D01*
X137839678Y-70685499D01*
X137898311Y-70673836D01*
X138015575Y-70650512D01*
X138015578Y-70650510D01*
X138015583Y-70650510D01*
X138164213Y-70588946D01*
X138181277Y-70581878D01*
X138181277Y-70581877D01*
X138181284Y-70581875D01*
X138239506Y-70542971D01*
X138306183Y-70522093D01*
X138373563Y-70540577D01*
X138384469Y-70548149D01*
X138399999Y-70560213D01*
X138473097Y-70541556D01*
X138528219Y-70518724D01*
X138528236Y-70518717D01*
X138578730Y-70494558D01*
X138647700Y-70483380D01*
X138701137Y-70503311D01*
X138818716Y-70581875D01*
X138818718Y-70581876D01*
X138818722Y-70581878D01*
X138928993Y-70627553D01*
X138984417Y-70650510D01*
X138984419Y-70650510D01*
X138984424Y-70650512D01*
X139160319Y-70685499D01*
X139160323Y-70685500D01*
X139160324Y-70685500D01*
X139339678Y-70685500D01*
X139434295Y-70666678D01*
X139475809Y-70658421D01*
X139524191Y-70658421D01*
X139554998Y-70664549D01*
X139660321Y-70685500D01*
X139660324Y-70685500D01*
X139839678Y-70685500D01*
X139934295Y-70666678D01*
X139975809Y-70658421D01*
X140024191Y-70658421D01*
X140054998Y-70664549D01*
X140160321Y-70685500D01*
X140160324Y-70685500D01*
X140339678Y-70685500D01*
X140434295Y-70666678D01*
X140475809Y-70658421D01*
X140524191Y-70658421D01*
X140554998Y-70664549D01*
X140660321Y-70685500D01*
X140660324Y-70685500D01*
X140839677Y-70685500D01*
X140839678Y-70685499D01*
X140898311Y-70673836D01*
X141015575Y-70650512D01*
X141015578Y-70650510D01*
X141015583Y-70650510D01*
X141164213Y-70588946D01*
X141181277Y-70581878D01*
X141181277Y-70581877D01*
X141181284Y-70581875D01*
X141239506Y-70542971D01*
X141306183Y-70522093D01*
X141373563Y-70540577D01*
X141384469Y-70548149D01*
X141399999Y-70560213D01*
X141473097Y-70541556D01*
X141528219Y-70518724D01*
X141528235Y-70518717D01*
X141576986Y-70495393D01*
X141576992Y-70495389D01*
X141596433Y-70480836D01*
X141661896Y-70456418D01*
X141730170Y-70471269D01*
X141779576Y-70520673D01*
X141794429Y-70588946D01*
X141785307Y-70627553D01*
X141773022Y-70657212D01*
X141773020Y-70657217D01*
X141760500Y-70720160D01*
X141760500Y-70720163D01*
X141760500Y-70779837D01*
X141760500Y-70779839D01*
X141760499Y-70779839D01*
X141773020Y-70842782D01*
X141773023Y-70842792D01*
X141795856Y-70897917D01*
X141795857Y-70897919D01*
X141818035Y-70931111D01*
X141838912Y-70997789D01*
X141820426Y-71065168D01*
X141818035Y-71068889D01*
X141795857Y-71102080D01*
X141795856Y-71102082D01*
X141773023Y-71157207D01*
X141773020Y-71157217D01*
X141760500Y-71220160D01*
X141760500Y-71220163D01*
X141760500Y-71279837D01*
X141760500Y-71279839D01*
X141760499Y-71279839D01*
X141773020Y-71342782D01*
X141773023Y-71342792D01*
X141795856Y-71397917D01*
X141795857Y-71397919D01*
X141818035Y-71431111D01*
X141838912Y-71497789D01*
X141820426Y-71565168D01*
X141818035Y-71568889D01*
X141795857Y-71602080D01*
X141795856Y-71602082D01*
X141773023Y-71657207D01*
X141773020Y-71657217D01*
X141760500Y-71720160D01*
X141760500Y-71720163D01*
X141760500Y-71779837D01*
X141760500Y-71779839D01*
X141760499Y-71779839D01*
X141773020Y-71842782D01*
X141773023Y-71842792D01*
X141795856Y-71897917D01*
X141795857Y-71897919D01*
X141818035Y-71931111D01*
X141838912Y-71997789D01*
X141820426Y-72065168D01*
X141818035Y-72068889D01*
X141795857Y-72102080D01*
X141795856Y-72102082D01*
X141773023Y-72157207D01*
X141773020Y-72157217D01*
X141760500Y-72220160D01*
X141760500Y-72220163D01*
X141760500Y-72279837D01*
X141760500Y-72279839D01*
X141760499Y-72279839D01*
X141773020Y-72342782D01*
X141773023Y-72342792D01*
X141795856Y-72397917D01*
X141795857Y-72397919D01*
X141818035Y-72431111D01*
X141838912Y-72497789D01*
X141820426Y-72565168D01*
X141818035Y-72568889D01*
X141795857Y-72602080D01*
X141795856Y-72602082D01*
X141773023Y-72657207D01*
X141773020Y-72657217D01*
X141760500Y-72720160D01*
X141760500Y-72720163D01*
X141760500Y-72779837D01*
X141760500Y-72779839D01*
X141760499Y-72779839D01*
X141773020Y-72842782D01*
X141773023Y-72842792D01*
X141795856Y-72897917D01*
X141795857Y-72897919D01*
X141818035Y-72931111D01*
X141838912Y-72997789D01*
X141820426Y-73065168D01*
X141818035Y-73068889D01*
X141795857Y-73102080D01*
X141795856Y-73102082D01*
X141773023Y-73157207D01*
X141773020Y-73157217D01*
X141760500Y-73220160D01*
X141760500Y-73220163D01*
X141760500Y-73279837D01*
X141760500Y-73279839D01*
X141760499Y-73279839D01*
X141773020Y-73342782D01*
X141773023Y-73342792D01*
X141795856Y-73397917D01*
X141795857Y-73397919D01*
X141818035Y-73431111D01*
X141838912Y-73497789D01*
X141820426Y-73565168D01*
X141818035Y-73568889D01*
X141795857Y-73602080D01*
X141795856Y-73602082D01*
X141773023Y-73657207D01*
X141773020Y-73657217D01*
X141760500Y-73720160D01*
X141760500Y-73720163D01*
X141760500Y-73779837D01*
X141760500Y-73779839D01*
X141760499Y-73779839D01*
X141773020Y-73842782D01*
X141773023Y-73842792D01*
X141795856Y-73897917D01*
X141795857Y-73897919D01*
X141818035Y-73931111D01*
X141838912Y-73997789D01*
X141820426Y-74065168D01*
X141818035Y-74068889D01*
X141795857Y-74102080D01*
X141795856Y-74102082D01*
X141773023Y-74157207D01*
X141773020Y-74157217D01*
X141760500Y-74220160D01*
X141760500Y-74220163D01*
X141760500Y-74279837D01*
X141760500Y-74279839D01*
X141760499Y-74279839D01*
X141773020Y-74342782D01*
X141773023Y-74342792D01*
X141795856Y-74397917D01*
X141795857Y-74397919D01*
X141818035Y-74431111D01*
X141838912Y-74497789D01*
X141820426Y-74565168D01*
X141818035Y-74568889D01*
X141795857Y-74602080D01*
X141795856Y-74602082D01*
X141773023Y-74657207D01*
X141773020Y-74657217D01*
X141760500Y-74720160D01*
X141760500Y-74720163D01*
X141760500Y-74779837D01*
X141760500Y-74779839D01*
X141760499Y-74779839D01*
X141773020Y-74842782D01*
X141773023Y-74842792D01*
X141795856Y-74897917D01*
X141795857Y-74897919D01*
X141818035Y-74931111D01*
X141838912Y-74997789D01*
X141820426Y-75065168D01*
X141818035Y-75068889D01*
X141795857Y-75102080D01*
X141795856Y-75102082D01*
X141773023Y-75157207D01*
X141773020Y-75157217D01*
X141760500Y-75220160D01*
X141760500Y-75220163D01*
X141760500Y-75279837D01*
X141760500Y-75279839D01*
X141760499Y-75279839D01*
X141773020Y-75342782D01*
X141773023Y-75342792D01*
X141795856Y-75397917D01*
X141795857Y-75397919D01*
X141818035Y-75431111D01*
X141838912Y-75497789D01*
X141820426Y-75565168D01*
X141818035Y-75568889D01*
X141795857Y-75602080D01*
X141795856Y-75602082D01*
X141773023Y-75657207D01*
X141773020Y-75657217D01*
X141760500Y-75720160D01*
X141760500Y-75720163D01*
X141760500Y-75779837D01*
X141760500Y-75779839D01*
X141760499Y-75779839D01*
X141773020Y-75842782D01*
X141773023Y-75842792D01*
X141795856Y-75897917D01*
X141795857Y-75897919D01*
X141818035Y-75931111D01*
X141838912Y-75997789D01*
X141820426Y-76065168D01*
X141818035Y-76068889D01*
X141795857Y-76102080D01*
X141795856Y-76102082D01*
X141773023Y-76157207D01*
X141773020Y-76157217D01*
X141760500Y-76220160D01*
X141760500Y-76220163D01*
X141760500Y-76279837D01*
X141760500Y-76279839D01*
X141760499Y-76279839D01*
X141773020Y-76342782D01*
X141773023Y-76342792D01*
X141795856Y-76397917D01*
X141795857Y-76397919D01*
X141818035Y-76431111D01*
X141838912Y-76497789D01*
X141820426Y-76565168D01*
X141818035Y-76568889D01*
X141795857Y-76602080D01*
X141795856Y-76602082D01*
X141773023Y-76657207D01*
X141773020Y-76657217D01*
X141760500Y-76720160D01*
X141760500Y-76720163D01*
X141760500Y-76779837D01*
X141760500Y-76779839D01*
X141760499Y-76779839D01*
X141773020Y-76842782D01*
X141773023Y-76842792D01*
X141795856Y-76897917D01*
X141795857Y-76897919D01*
X141818035Y-76931111D01*
X141838912Y-76997789D01*
X141820426Y-77065168D01*
X141818035Y-77068889D01*
X141795857Y-77102080D01*
X141795856Y-77102082D01*
X141773023Y-77157207D01*
X141773020Y-77157217D01*
X141760500Y-77220160D01*
X141760500Y-77220163D01*
X141760500Y-77279837D01*
X141760500Y-77279839D01*
X141760499Y-77279839D01*
X141773020Y-77342782D01*
X141773022Y-77342787D01*
X141786272Y-77374777D01*
X141793739Y-77444246D01*
X141762464Y-77506725D01*
X141702374Y-77542377D01*
X141632549Y-77539882D01*
X141608436Y-77528870D01*
X141528225Y-77481278D01*
X141473096Y-77458443D01*
X141473070Y-77458433D01*
X141422119Y-77440458D01*
X141422108Y-77440455D01*
X141399999Y-77437275D01*
X141388717Y-77447052D01*
X141325161Y-77476075D01*
X141256003Y-77466130D01*
X141238626Y-77456439D01*
X141181290Y-77418128D01*
X141181277Y-77418121D01*
X141015584Y-77349490D01*
X141015575Y-77349487D01*
X140839680Y-77314500D01*
X140839676Y-77314500D01*
X140660324Y-77314500D01*
X140660319Y-77314500D01*
X140524191Y-77341578D01*
X140475809Y-77341578D01*
X140339680Y-77314500D01*
X140339676Y-77314500D01*
X140160324Y-77314500D01*
X140160319Y-77314500D01*
X140024191Y-77341578D01*
X139975809Y-77341578D01*
X139839680Y-77314500D01*
X139839676Y-77314500D01*
X139660324Y-77314500D01*
X139660319Y-77314500D01*
X139524191Y-77341578D01*
X139475809Y-77341578D01*
X139339680Y-77314500D01*
X139339676Y-77314500D01*
X139160324Y-77314500D01*
X139160319Y-77314500D01*
X138984424Y-77349487D01*
X138984415Y-77349490D01*
X138818722Y-77418121D01*
X138818709Y-77418128D01*
X138696994Y-77499456D01*
X138630316Y-77520334D01*
X138564830Y-77502996D01*
X138528229Y-77481279D01*
X138473096Y-77458443D01*
X138473070Y-77458433D01*
X138422119Y-77440458D01*
X138422108Y-77440455D01*
X138399999Y-77437275D01*
X138388717Y-77447052D01*
X138325161Y-77476075D01*
X138256003Y-77466130D01*
X138238626Y-77456439D01*
X138181290Y-77418128D01*
X138181277Y-77418121D01*
X138015584Y-77349490D01*
X138015575Y-77349487D01*
X137839680Y-77314500D01*
X137839676Y-77314500D01*
X137660324Y-77314500D01*
X137660319Y-77314500D01*
X137524191Y-77341578D01*
X137475809Y-77341578D01*
X137339680Y-77314500D01*
X137339676Y-77314500D01*
X137160324Y-77314500D01*
X137160319Y-77314500D01*
X137024191Y-77341578D01*
X136975809Y-77341578D01*
X136839680Y-77314500D01*
X136839676Y-77314500D01*
X136660324Y-77314500D01*
X136660319Y-77314500D01*
X136524191Y-77341578D01*
X136475809Y-77341578D01*
X136339680Y-77314500D01*
X136339676Y-77314500D01*
X136160324Y-77314500D01*
X136160319Y-77314500D01*
X135984424Y-77349487D01*
X135984415Y-77349490D01*
X135818722Y-77418121D01*
X135818709Y-77418128D01*
X135696994Y-77499456D01*
X135630316Y-77520334D01*
X135564830Y-77502996D01*
X135528229Y-77481279D01*
X135473096Y-77458443D01*
X135473070Y-77458433D01*
X135422119Y-77440458D01*
X135422108Y-77440455D01*
X135400000Y-77437276D01*
X135400000Y-77873164D01*
X135390561Y-77920617D01*
X135374490Y-77959415D01*
X135374489Y-77959418D01*
X135356433Y-78050192D01*
X135324048Y-78112103D01*
X135263332Y-78146677D01*
X135234816Y-78150000D01*
X135224000Y-78150000D01*
X135156961Y-78130315D01*
X135111206Y-78077511D01*
X135100000Y-78026000D01*
X135100000Y-77439785D01*
X135099999Y-77439784D01*
X135026918Y-77458437D01*
X135026903Y-77458442D01*
X134971780Y-77481275D01*
X134971764Y-77481282D01*
X134923013Y-77504606D01*
X134923008Y-77504609D01*
X134807944Y-77590746D01*
X134807933Y-77590756D01*
X134765762Y-77632927D01*
X134765728Y-77632963D01*
X134729626Y-77673155D01*
X134729616Y-77673168D01*
X134695717Y-77730302D01*
X134683942Y-77741263D01*
X134676133Y-77755329D01*
X134650779Y-77772139D01*
X134644580Y-77777912D01*
X134641028Y-77778605D01*
X134636529Y-77781589D01*
X134602079Y-77795858D01*
X134568889Y-77818035D01*
X134502211Y-77838912D01*
X134434832Y-77820426D01*
X134431111Y-77818035D01*
X134397919Y-77795857D01*
X134397917Y-77795856D01*
X134342792Y-77773023D01*
X134342783Y-77773020D01*
X134327452Y-77769971D01*
X134302716Y-77757031D01*
X134276633Y-77747092D01*
X134272183Y-77741059D01*
X134265541Y-77737585D01*
X134251727Y-77713325D01*
X134235159Y-77690863D01*
X134234677Y-77683383D01*
X134230968Y-77676869D01*
X134230033Y-77672574D01*
X134226978Y-77657212D01*
X134221750Y-77644590D01*
X134204143Y-77602083D01*
X134181965Y-77568891D01*
X134161087Y-77502214D01*
X134179571Y-77434833D01*
X134181965Y-77431109D01*
X134182882Y-77429737D01*
X134204142Y-77397919D01*
X134226978Y-77342788D01*
X134239500Y-77279837D01*
X134239500Y-77220163D01*
X134239500Y-77220160D01*
X134226979Y-77157217D01*
X134226978Y-77157216D01*
X134226978Y-77157212D01*
X134204142Y-77102081D01*
X134181964Y-77068889D01*
X134161087Y-77002214D01*
X134179571Y-76934833D01*
X134181965Y-76931109D01*
X134204142Y-76897919D01*
X134226978Y-76842788D01*
X134239500Y-76779837D01*
X134239500Y-76720163D01*
X134239500Y-76720160D01*
X134226979Y-76657217D01*
X134226978Y-76657216D01*
X134226978Y-76657212D01*
X134204142Y-76602081D01*
X134181964Y-76568889D01*
X134161087Y-76502214D01*
X134179571Y-76434833D01*
X134181965Y-76431109D01*
X134204142Y-76397919D01*
X134226978Y-76342788D01*
X134232376Y-76315649D01*
X135100000Y-76315649D01*
X135102899Y-76352489D01*
X135102900Y-76352495D01*
X135148716Y-76510193D01*
X135148717Y-76510196D01*
X135232314Y-76651552D01*
X135232321Y-76651561D01*
X135348438Y-76767678D01*
X135348447Y-76767685D01*
X135489803Y-76851282D01*
X135489806Y-76851283D01*
X135647504Y-76897099D01*
X135647510Y-76897100D01*
X135684350Y-76899999D01*
X135684366Y-76900000D01*
X136400000Y-76900000D01*
X136900000Y-76900000D01*
X137615634Y-76900000D01*
X137615649Y-76899999D01*
X137652489Y-76897100D01*
X137652495Y-76897099D01*
X137810193Y-76851283D01*
X137810196Y-76851282D01*
X137936879Y-76776363D01*
X138004603Y-76759180D01*
X138063121Y-76776363D01*
X138189803Y-76851282D01*
X138189806Y-76851283D01*
X138347504Y-76897099D01*
X138347510Y-76897100D01*
X138384350Y-76899999D01*
X138384366Y-76900000D01*
X139100000Y-76900000D01*
X139600000Y-76900000D01*
X140315634Y-76900000D01*
X140315649Y-76899999D01*
X140352489Y-76897100D01*
X140352495Y-76897099D01*
X140510193Y-76851283D01*
X140510196Y-76851282D01*
X140651552Y-76767685D01*
X140651561Y-76767678D01*
X140767678Y-76651561D01*
X140767685Y-76651552D01*
X140851282Y-76510196D01*
X140851283Y-76510193D01*
X140897099Y-76352495D01*
X140897100Y-76352489D01*
X140899999Y-76315649D01*
X140900000Y-76315634D01*
X140900000Y-75600000D01*
X139600000Y-75600000D01*
X139600000Y-76900000D01*
X139100000Y-76900000D01*
X139100000Y-75600000D01*
X136900000Y-75600000D01*
X136900000Y-76900000D01*
X136400000Y-76900000D01*
X136400000Y-75600000D01*
X135100000Y-75600000D01*
X135100000Y-76315649D01*
X134232376Y-76315649D01*
X134232379Y-76315634D01*
X134239500Y-76279839D01*
X134239500Y-76220160D01*
X134226979Y-76157217D01*
X134226978Y-76157216D01*
X134226978Y-76157212D01*
X134214966Y-76128213D01*
X134204143Y-76102083D01*
X134202760Y-76100013D01*
X134181964Y-76068889D01*
X134161087Y-76002214D01*
X134179571Y-75934833D01*
X134181965Y-75931109D01*
X134204142Y-75897919D01*
X134226978Y-75842788D01*
X134239500Y-75779837D01*
X134239500Y-75720163D01*
X134239500Y-75720160D01*
X134226979Y-75657217D01*
X134226978Y-75657216D01*
X134226978Y-75657212D01*
X134204142Y-75602081D01*
X134181259Y-75567834D01*
X134180608Y-75566816D01*
X134171164Y-75534397D01*
X134161087Y-75502214D01*
X134161427Y-75500972D01*
X134161067Y-75499735D01*
X134170644Y-75467374D01*
X134179571Y-75434833D01*
X134180875Y-75432803D01*
X134180895Y-75432738D01*
X134180946Y-75432693D01*
X134181965Y-75431109D01*
X134204142Y-75397919D01*
X134226978Y-75342788D01*
X134239500Y-75279837D01*
X134239500Y-75220163D01*
X134239500Y-75220160D01*
X134226979Y-75157217D01*
X134226978Y-75157216D01*
X134226978Y-75157212D01*
X134226976Y-75157207D01*
X134204143Y-75102083D01*
X134202875Y-75100185D01*
X134181964Y-75068889D01*
X134161087Y-75002214D01*
X134179571Y-74934833D01*
X134181965Y-74931109D01*
X134204142Y-74897919D01*
X134226978Y-74842788D01*
X134239500Y-74779837D01*
X134239500Y-74720163D01*
X134239500Y-74720160D01*
X134226979Y-74657217D01*
X134226978Y-74657216D01*
X134226978Y-74657212D01*
X134214769Y-74627736D01*
X134204143Y-74602083D01*
X134202760Y-74600013D01*
X134181964Y-74568889D01*
X134161087Y-74502214D01*
X134179571Y-74434833D01*
X134181965Y-74431109D01*
X134204142Y-74397919D01*
X134226978Y-74342788D01*
X134239500Y-74279837D01*
X134239500Y-74220163D01*
X134239500Y-74220160D01*
X134226979Y-74157217D01*
X134226978Y-74157216D01*
X134226978Y-74157212D01*
X134204142Y-74102081D01*
X134181964Y-74068889D01*
X134161087Y-74002214D01*
X134179571Y-73934833D01*
X134181965Y-73931109D01*
X134204142Y-73897919D01*
X134226978Y-73842788D01*
X134234493Y-73805010D01*
X134239500Y-73779839D01*
X134239500Y-73720160D01*
X134226979Y-73657217D01*
X134226978Y-73657216D01*
X134226978Y-73657212D01*
X134209762Y-73615649D01*
X135100000Y-73615649D01*
X135102899Y-73652489D01*
X135102900Y-73652495D01*
X135148716Y-73810193D01*
X135148719Y-73810200D01*
X135223636Y-73936880D01*
X135240819Y-74004604D01*
X135223636Y-74063120D01*
X135148719Y-74189799D01*
X135148716Y-74189806D01*
X135102900Y-74347504D01*
X135102899Y-74347510D01*
X135100000Y-74384350D01*
X135100000Y-75100000D01*
X136400000Y-75100000D01*
X136900000Y-75100000D01*
X139100000Y-75100000D01*
X139600000Y-75100000D01*
X140900000Y-75100000D01*
X140900000Y-74384365D01*
X140899999Y-74384350D01*
X140897100Y-74347510D01*
X140897099Y-74347504D01*
X140851283Y-74189806D01*
X140851282Y-74189803D01*
X140776363Y-74063121D01*
X140759180Y-73995397D01*
X140776363Y-73936879D01*
X140851282Y-73810196D01*
X140851283Y-73810193D01*
X140897099Y-73652495D01*
X140897100Y-73652489D01*
X140899999Y-73615649D01*
X140900000Y-73615634D01*
X140900000Y-72900000D01*
X139600000Y-72900000D01*
X139600000Y-75100000D01*
X139100000Y-75100000D01*
X139100000Y-72900000D01*
X136900000Y-72900000D01*
X136900000Y-75100000D01*
X136400000Y-75100000D01*
X136400000Y-72900000D01*
X135100000Y-72900000D01*
X135100000Y-73615649D01*
X134209762Y-73615649D01*
X134204142Y-73602081D01*
X134181964Y-73568889D01*
X134161087Y-73502214D01*
X134179571Y-73434833D01*
X134181965Y-73431109D01*
X134204142Y-73397919D01*
X134226978Y-73342788D01*
X134239500Y-73279837D01*
X134239500Y-73220163D01*
X134239500Y-73220160D01*
X134226979Y-73157217D01*
X134226978Y-73157216D01*
X134226978Y-73157212D01*
X134204142Y-73102081D01*
X134181964Y-73068889D01*
X134161087Y-73002214D01*
X134171728Y-72949698D01*
X134176046Y-72939966D01*
X134204142Y-72897919D01*
X134226978Y-72842788D01*
X134234410Y-72805424D01*
X134239500Y-72779839D01*
X134239500Y-72720160D01*
X134226979Y-72657217D01*
X134226978Y-72657216D01*
X134226978Y-72657212D01*
X134204142Y-72602081D01*
X134181964Y-72568889D01*
X134161087Y-72502214D01*
X134179571Y-72434833D01*
X134181965Y-72431109D01*
X134204142Y-72397919D01*
X134226978Y-72342788D01*
X134239500Y-72279837D01*
X134239500Y-72220163D01*
X134239500Y-72220160D01*
X134226979Y-72157217D01*
X134226978Y-72157216D01*
X134226978Y-72157212D01*
X134211904Y-72120821D01*
X134204143Y-72102083D01*
X134198849Y-72094160D01*
X134181964Y-72068889D01*
X134161087Y-72002214D01*
X134179571Y-71934833D01*
X134181965Y-71931109D01*
X134193819Y-71913368D01*
X134204142Y-71897919D01*
X134226978Y-71842788D01*
X134235489Y-71800000D01*
X134239500Y-71779839D01*
X134239500Y-71720160D01*
X134238968Y-71717489D01*
X134232376Y-71684350D01*
X135100000Y-71684350D01*
X135100000Y-72400000D01*
X136400000Y-72400000D01*
X136900000Y-72400000D01*
X139100000Y-72400000D01*
X139600000Y-72400000D01*
X140900000Y-72400000D01*
X140900000Y-71684365D01*
X140899999Y-71684350D01*
X140897100Y-71647510D01*
X140897099Y-71647504D01*
X140851283Y-71489806D01*
X140851282Y-71489803D01*
X140767685Y-71348447D01*
X140767678Y-71348438D01*
X140651561Y-71232321D01*
X140651552Y-71232314D01*
X140510196Y-71148717D01*
X140510193Y-71148716D01*
X140352495Y-71102900D01*
X140352489Y-71102899D01*
X140315649Y-71100000D01*
X139600000Y-71100000D01*
X139600000Y-72400000D01*
X139100000Y-72400000D01*
X139100000Y-71100000D01*
X138384350Y-71100000D01*
X138347510Y-71102899D01*
X138347504Y-71102900D01*
X138189806Y-71148716D01*
X138189799Y-71148719D01*
X138063120Y-71223636D01*
X137995396Y-71240819D01*
X137936880Y-71223636D01*
X137810200Y-71148719D01*
X137810193Y-71148716D01*
X137652495Y-71102900D01*
X137652489Y-71102899D01*
X137615649Y-71100000D01*
X136900000Y-71100000D01*
X136900000Y-72400000D01*
X136400000Y-72400000D01*
X136400000Y-71100000D01*
X135684350Y-71100000D01*
X135647510Y-71102899D01*
X135647504Y-71102900D01*
X135489806Y-71148716D01*
X135489803Y-71148717D01*
X135348447Y-71232314D01*
X135348438Y-71232321D01*
X135232321Y-71348438D01*
X135232314Y-71348447D01*
X135148717Y-71489803D01*
X135148716Y-71489806D01*
X135102900Y-71647504D01*
X135102899Y-71647510D01*
X135100000Y-71684350D01*
X134232376Y-71684350D01*
X134226978Y-71657212D01*
X134204142Y-71602081D01*
X134174833Y-71558217D01*
X134170042Y-71546318D01*
X134167846Y-71523800D01*
X134161087Y-71502214D01*
X134164520Y-71489696D01*
X134163261Y-71476778D01*
X134173585Y-71456651D01*
X134179571Y-71434833D01*
X134181965Y-71431109D01*
X134204142Y-71397919D01*
X134226978Y-71342788D01*
X134239500Y-71279837D01*
X134239500Y-71220163D01*
X134239500Y-71220160D01*
X134226979Y-71157217D01*
X134226978Y-71157216D01*
X134226978Y-71157212D01*
X134204142Y-71102081D01*
X134181964Y-71068889D01*
X134161087Y-71002214D01*
X134179571Y-70934833D01*
X134181965Y-70931109D01*
X134204142Y-70897919D01*
X134226978Y-70842788D01*
X134239500Y-70779837D01*
X134239500Y-70720163D01*
X134239500Y-70720160D01*
X134226979Y-70657217D01*
X134226978Y-70657216D01*
X134226978Y-70657212D01*
X134213727Y-70625223D01*
X134206259Y-70555754D01*
X134237534Y-70493275D01*
X134297623Y-70457623D01*
X134367448Y-70460117D01*
X134391563Y-70471130D01*
X134471769Y-70518719D01*
X134471768Y-70518719D01*
X134526903Y-70541556D01*
X134526907Y-70541558D01*
X134577890Y-70559544D01*
X134600000Y-70562722D01*
X134600000Y-69120000D01*
X134590815Y-69111449D01*
X134555163Y-69051360D01*
X134557657Y-68981535D01*
X134597505Y-68924143D01*
X134662056Y-68897404D01*
X134730404Y-68909605D01*
G37*
G04 #@! TD.AperFunction*
G04 #@! TA.AperFunction,Conductor*
G36*
X129178413Y-75380185D02*
G01*
X129199055Y-75396819D01*
X129310055Y-75507819D01*
X129343540Y-75569142D01*
X129338556Y-75638834D01*
X129296684Y-75694767D01*
X129231220Y-75719184D01*
X129222374Y-75719500D01*
X123053225Y-75719500D01*
X122986186Y-75699815D01*
X122940431Y-75647011D01*
X122930487Y-75577853D01*
X122959512Y-75514297D01*
X122984334Y-75492398D01*
X123045860Y-75451287D01*
X123090007Y-75421789D01*
X123090010Y-75421786D01*
X123114978Y-75396819D01*
X123176301Y-75363334D01*
X123202659Y-75360500D01*
X129111374Y-75360500D01*
X129178413Y-75380185D01*
G37*
G04 #@! TD.AperFunction*
G04 #@! TA.AperFunction,Conductor*
G36*
X121649110Y-74000185D02*
G01*
X121685173Y-74035609D01*
X121735071Y-74110287D01*
X121735072Y-74110288D01*
X121735073Y-74110289D01*
X121868574Y-74243790D01*
X121902058Y-74305111D01*
X121897074Y-74374803D01*
X121883996Y-74400358D01*
X121870328Y-74420814D01*
X121870320Y-74420828D01*
X121861157Y-74442952D01*
X121817316Y-74497356D01*
X121751022Y-74519421D01*
X121746596Y-74519500D01*
X116760763Y-74519500D01*
X116693724Y-74499815D01*
X116647969Y-74447011D01*
X116646202Y-74442952D01*
X116625659Y-74393356D01*
X116625652Y-74393343D01*
X116521636Y-74237673D01*
X116521633Y-74237669D01*
X116476145Y-74192181D01*
X116442660Y-74130858D01*
X116447644Y-74061166D01*
X116489516Y-74005233D01*
X116554980Y-73980816D01*
X116563826Y-73980500D01*
X121582071Y-73980500D01*
X121649110Y-74000185D01*
G37*
G04 #@! TD.AperFunction*
G04 #@! TA.AperFunction,Conductor*
G36*
X121452349Y-71705648D02*
G01*
X121498104Y-71758452D01*
X121508048Y-71827610D01*
X121479023Y-71891166D01*
X121472991Y-71897644D01*
X121380927Y-71989707D01*
X121380924Y-71989711D01*
X121293323Y-72120814D01*
X121293319Y-72120821D01*
X121287232Y-72135518D01*
X121284152Y-72142952D01*
X121240314Y-72197355D01*
X121174020Y-72219421D01*
X121169592Y-72219500D01*
X116333122Y-72219500D01*
X116266083Y-72199815D01*
X116220328Y-72147011D01*
X116218570Y-72142974D01*
X116209394Y-72120821D01*
X116209390Y-72120814D01*
X116118405Y-71984646D01*
X116120230Y-71983426D01*
X116096775Y-71928207D01*
X116105379Y-71866395D01*
X116148411Y-71762508D01*
X116192253Y-71708106D01*
X116258547Y-71686042D01*
X116262972Y-71685963D01*
X121385310Y-71685963D01*
X121452349Y-71705648D01*
G37*
G04 #@! TD.AperFunction*
G04 #@! TA.AperFunction,Conductor*
G36*
X121939380Y-70505648D02*
G01*
X121985135Y-70558452D01*
X121986892Y-70562488D01*
X121987752Y-70564562D01*
X121996068Y-70584641D01*
X121996072Y-70584648D01*
X122083673Y-70715751D01*
X122083676Y-70715755D01*
X122281203Y-70913282D01*
X122314688Y-70974605D01*
X122309704Y-71044297D01*
X122267832Y-71100230D01*
X122202368Y-71124647D01*
X122193522Y-71124963D01*
X116804409Y-71124963D01*
X116737370Y-71105278D01*
X116691615Y-71052474D01*
X116681671Y-70983316D01*
X116682792Y-70976772D01*
X116688489Y-70948127D01*
X116688490Y-70948125D01*
X116688490Y-70760891D01*
X116688489Y-70760887D01*
X116663281Y-70634154D01*
X116669508Y-70564562D01*
X116712371Y-70509385D01*
X116778261Y-70486141D01*
X116784898Y-70485963D01*
X121872341Y-70485963D01*
X121939380Y-70505648D01*
G37*
G04 #@! TD.AperFunction*
G04 #@! TA.AperFunction,Conductor*
G36*
X121763093Y-69025437D02*
G01*
X121808848Y-69078241D01*
X121810605Y-69082277D01*
X121811459Y-69084337D01*
X121819781Y-69104430D01*
X121819785Y-69104437D01*
X121907385Y-69235539D01*
X121907386Y-69235540D01*
X121907387Y-69235541D01*
X121984712Y-69312866D01*
X121985128Y-69313282D01*
X122018613Y-69374605D01*
X122013629Y-69444297D01*
X121971757Y-69500230D01*
X121906293Y-69524647D01*
X121897447Y-69524963D01*
X116538585Y-69524963D01*
X116471546Y-69505278D01*
X116425791Y-69452474D01*
X116424025Y-69448417D01*
X116414859Y-69426290D01*
X116414854Y-69426281D01*
X116327257Y-69295181D01*
X116327254Y-69295178D01*
X116327253Y-69295177D01*
X116327251Y-69295174D01*
X116255254Y-69223176D01*
X116221771Y-69161854D01*
X116221330Y-69159736D01*
X116220175Y-69153928D01*
X116226411Y-69084337D01*
X116269281Y-69029165D01*
X116335174Y-69005929D01*
X116341795Y-69005752D01*
X121696054Y-69005752D01*
X121763093Y-69025437D01*
G37*
G04 #@! TD.AperFunction*
G04 #@! TA.AperFunction,Conductor*
G36*
X137494075Y-52892993D02*
G01*
X137559901Y-53007007D01*
X137652993Y-53100099D01*
X137767007Y-53165925D01*
X137830590Y-53182962D01*
X137198282Y-53815269D01*
X137198282Y-53815270D01*
X137252449Y-53854624D01*
X137441782Y-53951095D01*
X137643870Y-54016757D01*
X137853754Y-54050000D01*
X138066245Y-54050000D01*
X138206101Y-54027848D01*
X138275395Y-54036802D01*
X138328847Y-54081798D01*
X138349487Y-54148550D01*
X138349500Y-54150321D01*
X138349500Y-54638756D01*
X138329815Y-54705795D01*
X138321866Y-54716790D01*
X138316443Y-54723489D01*
X138219534Y-54843161D01*
X138131212Y-55016504D01*
X138080858Y-55204425D01*
X138074501Y-55285204D01*
X138074500Y-55285229D01*
X138074500Y-55864783D01*
X138080858Y-55945574D01*
X138080858Y-55945577D01*
X138080859Y-55945578D01*
X138131212Y-56133496D01*
X138219535Y-56306840D01*
X138290982Y-56395069D01*
X138331387Y-56444966D01*
X138358279Y-56509454D01*
X138346037Y-56578243D01*
X138340565Y-56588090D01*
X138338458Y-56591505D01*
X138338452Y-56591518D01*
X138285144Y-56752393D01*
X138275000Y-56851677D01*
X138275000Y-56875000D01*
X139126000Y-56875000D01*
X139193039Y-56894685D01*
X139238794Y-56947489D01*
X139250000Y-56999000D01*
X139250000Y-57125000D01*
X139376000Y-57125000D01*
X139443039Y-57144685D01*
X139488794Y-57197489D01*
X139500000Y-57249000D01*
X139500000Y-58074999D01*
X139548308Y-58074999D01*
X139548322Y-58074998D01*
X139647607Y-58064855D01*
X139808481Y-58011547D01*
X139808492Y-58011542D01*
X139952728Y-57922575D01*
X139952732Y-57922572D01*
X140072572Y-57802732D01*
X140072575Y-57802728D01*
X140161542Y-57658492D01*
X140161545Y-57658484D01*
X140184398Y-57589518D01*
X140224170Y-57532072D01*
X140288686Y-57505248D01*
X140357462Y-57517562D01*
X140380466Y-57532419D01*
X140399246Y-57547733D01*
X140494965Y-57597732D01*
X140570594Y-57637237D01*
X140756448Y-57690417D01*
X140869862Y-57700500D01*
X140869870Y-57700500D01*
X141505130Y-57700500D01*
X141505138Y-57700500D01*
X141618552Y-57690417D01*
X141804406Y-57637237D01*
X141975751Y-57547734D01*
X142021638Y-57510317D01*
X142086033Y-57483207D01*
X142154863Y-57495215D01*
X142178360Y-57510316D01*
X142200628Y-57528473D01*
X142224246Y-57547732D01*
X142224247Y-57547732D01*
X142224249Y-57547734D01*
X142395594Y-57637237D01*
X142581448Y-57690417D01*
X142694862Y-57700500D01*
X142694870Y-57700500D01*
X143330130Y-57700500D01*
X143330138Y-57700500D01*
X143443552Y-57690417D01*
X143629406Y-57637237D01*
X143800751Y-57547734D01*
X143950571Y-57425571D01*
X144072734Y-57275751D01*
X144162237Y-57104406D01*
X144215417Y-56918552D01*
X144225500Y-56805138D01*
X144225500Y-55794862D01*
X144215417Y-55681448D01*
X144162237Y-55495594D01*
X144072734Y-55324249D01*
X144072731Y-55324246D01*
X144072730Y-55324243D01*
X144040898Y-55285204D01*
X144013789Y-55220808D01*
X144013000Y-55206844D01*
X144013000Y-53971100D01*
X144032685Y-53904061D01*
X144049319Y-53883419D01*
X144222319Y-53710419D01*
X144283642Y-53676934D01*
X144353334Y-53681918D01*
X144397681Y-53710419D01*
X144569920Y-53882658D01*
X144608727Y-53910852D01*
X144659499Y-53947740D01*
X144678384Y-53961460D01*
X144721051Y-54016790D01*
X144729500Y-54061779D01*
X144729500Y-63964845D01*
X144715582Y-64020409D01*
X144715699Y-64020458D01*
X144715372Y-64021245D01*
X144714859Y-64023297D01*
X144713366Y-64026089D01*
X144637950Y-64208160D01*
X144637947Y-64208170D01*
X144599500Y-64401456D01*
X144599500Y-64401459D01*
X144599500Y-64598541D01*
X144599500Y-64598543D01*
X144599499Y-64598543D01*
X144637947Y-64791829D01*
X144637950Y-64791839D01*
X144713364Y-64973907D01*
X144713371Y-64973920D01*
X144822860Y-65137781D01*
X144822863Y-65137785D01*
X144962214Y-65277136D01*
X144962218Y-65277139D01*
X145126079Y-65386628D01*
X145126092Y-65386635D01*
X145308160Y-65462049D01*
X145308165Y-65462051D01*
X145308169Y-65462051D01*
X145308170Y-65462052D01*
X145501456Y-65500500D01*
X145675500Y-65500500D01*
X145742539Y-65520185D01*
X145788294Y-65572989D01*
X145799500Y-65624500D01*
X145799500Y-67750124D01*
X145779815Y-67817163D01*
X145727011Y-67862918D01*
X145699693Y-67871741D01*
X145634850Y-67884639D01*
X145634841Y-67884642D01*
X145452769Y-67960058D01*
X145355137Y-68025294D01*
X145288459Y-68046172D01*
X145286246Y-68046192D01*
X144074463Y-68046192D01*
X143919818Y-68076953D01*
X143919806Y-68076956D01*
X143774135Y-68137294D01*
X143774122Y-68137301D01*
X143643019Y-68224902D01*
X143575483Y-68292438D01*
X143514159Y-68325922D01*
X143444468Y-68320937D01*
X143388534Y-68279066D01*
X143366185Y-68228948D01*
X143362051Y-68208165D01*
X143352738Y-68185681D01*
X143286635Y-68026092D01*
X143286628Y-68026079D01*
X143177140Y-67862219D01*
X143120240Y-67805319D01*
X143037782Y-67722861D01*
X143037778Y-67722858D01*
X143033070Y-67718994D01*
X143034438Y-67717327D01*
X142995883Y-67671170D01*
X142989256Y-67651634D01*
X142973922Y-67589975D01*
X142963595Y-67548448D01*
X142917462Y-67455429D01*
X142882368Y-67384667D01*
X142882366Y-67384664D01*
X142841142Y-67333379D01*
X142827773Y-67300991D01*
X142792739Y-67254329D01*
X142779067Y-67250315D01*
X142768419Y-67242647D01*
X142625335Y-67127633D01*
X142461554Y-67046406D01*
X142461552Y-67046405D01*
X142341190Y-67016472D01*
X142341187Y-67016471D01*
X142284137Y-67002284D01*
X142243083Y-66999500D01*
X142173864Y-66999500D01*
X142034500Y-66999500D01*
X141967461Y-66979815D01*
X141921706Y-66927011D01*
X141910500Y-66875500D01*
X141910500Y-66757950D01*
X142250000Y-66757950D01*
X142368795Y-66770000D01*
X142804504Y-66770000D01*
X142762031Y-66623804D01*
X142679721Y-66484625D01*
X142679714Y-66484616D01*
X142565383Y-66370285D01*
X142565374Y-66370278D01*
X142426195Y-66287968D01*
X142426190Y-66287966D01*
X142270918Y-66242855D01*
X142270912Y-66242854D01*
X142250000Y-66241209D01*
X142250000Y-66757950D01*
X141910500Y-66757950D01*
X141910500Y-60655783D01*
X141930185Y-60588744D01*
X141946815Y-60568105D01*
X141977139Y-60537782D01*
X142086632Y-60373914D01*
X142162051Y-60191835D01*
X142195021Y-60026086D01*
X142200500Y-59998543D01*
X142200500Y-59801456D01*
X142162052Y-59608170D01*
X142162051Y-59608169D01*
X142162051Y-59608165D01*
X142117041Y-59499500D01*
X142086635Y-59426092D01*
X142086628Y-59426079D01*
X141977139Y-59262218D01*
X141977136Y-59262214D01*
X141837785Y-59122863D01*
X141837781Y-59122860D01*
X141673920Y-59013371D01*
X141673907Y-59013364D01*
X141491839Y-58937950D01*
X141491829Y-58937947D01*
X141298543Y-58899500D01*
X141298541Y-58899500D01*
X141101459Y-58899500D01*
X141101457Y-58899500D01*
X140908170Y-58937947D01*
X140908160Y-58937950D01*
X140726092Y-59013364D01*
X140726079Y-59013371D01*
X140562218Y-59122860D01*
X140562214Y-59122863D01*
X140422863Y-59262214D01*
X140422860Y-59262218D01*
X140313371Y-59426079D01*
X140310498Y-59431456D01*
X140308618Y-59430451D01*
X140270841Y-59477345D01*
X140207474Y-59498446D01*
X140207519Y-59498903D01*
X140205507Y-59499101D01*
X140204550Y-59499420D01*
X140201758Y-59499470D01*
X140201456Y-59499499D01*
X140008170Y-59537947D01*
X140008160Y-59537950D01*
X139826092Y-59613364D01*
X139826079Y-59613371D01*
X139662218Y-59722860D01*
X139662214Y-59722863D01*
X139522863Y-59862214D01*
X139522860Y-59862218D01*
X139413371Y-60026079D01*
X139413364Y-60026092D01*
X139337950Y-60208160D01*
X139337947Y-60208170D01*
X139299500Y-60401456D01*
X139299500Y-60598545D01*
X139335904Y-60781561D01*
X139329677Y-60851153D01*
X139286814Y-60906330D01*
X139283182Y-60908851D01*
X139262222Y-60922857D01*
X139262214Y-60922863D01*
X139122863Y-61062214D01*
X139122860Y-61062218D01*
X139013371Y-61226079D01*
X139013364Y-61226092D01*
X138937950Y-61408160D01*
X138937947Y-61408170D01*
X138899500Y-61601456D01*
X138899500Y-61624762D01*
X138879815Y-61691801D01*
X138844391Y-61727864D01*
X138702217Y-61822860D01*
X138562863Y-61962214D01*
X138562860Y-61962218D01*
X138453371Y-62126079D01*
X138453364Y-62126092D01*
X138377950Y-62308160D01*
X138377947Y-62308170D01*
X138339500Y-62501456D01*
X138339500Y-62698545D01*
X138361643Y-62809866D01*
X138355416Y-62879458D01*
X138312553Y-62934635D01*
X138246663Y-62957879D01*
X138178666Y-62941811D01*
X138171136Y-62937159D01*
X138073925Y-62872205D01*
X138073907Y-62872195D01*
X137891839Y-62796781D01*
X137891829Y-62796778D01*
X137698543Y-62758331D01*
X137698541Y-62758331D01*
X137501459Y-62758331D01*
X137501457Y-62758331D01*
X137308170Y-62796778D01*
X137308160Y-62796781D01*
X137126092Y-62872195D01*
X137126079Y-62872202D01*
X136962218Y-62981691D01*
X136962214Y-62981694D01*
X136822863Y-63121045D01*
X136822860Y-63121049D01*
X136713371Y-63284910D01*
X136713366Y-63284920D01*
X136642937Y-63454951D01*
X136599096Y-63509354D01*
X136552570Y-63529115D01*
X136508167Y-63537948D01*
X136508162Y-63537949D01*
X136326092Y-63613364D01*
X136326079Y-63613371D01*
X136162218Y-63722860D01*
X136162214Y-63722863D01*
X136022863Y-63862214D01*
X136022860Y-63862218D01*
X135913371Y-64026079D01*
X135913364Y-64026092D01*
X135837950Y-64208160D01*
X135837947Y-64208170D01*
X135799500Y-64401456D01*
X135799500Y-64401459D01*
X135799500Y-64598541D01*
X135799500Y-64598543D01*
X135799499Y-64598543D01*
X135837947Y-64791828D01*
X135839716Y-64797658D01*
X135837127Y-64798443D01*
X135843318Y-64856334D01*
X135812009Y-64918796D01*
X135790192Y-64937351D01*
X135662218Y-65022860D01*
X135662214Y-65022863D01*
X135562180Y-65122898D01*
X135500857Y-65156383D01*
X135431165Y-65151399D01*
X135375232Y-65109527D01*
X135350815Y-65044063D01*
X135350499Y-65035217D01*
X135350499Y-58841959D01*
X135370184Y-58774920D01*
X135374172Y-58769085D01*
X135441231Y-58676788D01*
X135519872Y-58522445D01*
X135573401Y-58357701D01*
X135600499Y-58186611D01*
X135600499Y-58013389D01*
X135573401Y-57842299D01*
X135573400Y-57842297D01*
X135572814Y-57838594D01*
X135581769Y-57769300D01*
X135626765Y-57715849D01*
X135684305Y-57695684D01*
X135743552Y-57690417D01*
X135929406Y-57637237D01*
X136100751Y-57547734D01*
X136250571Y-57425571D01*
X136272790Y-57398322D01*
X138275001Y-57398322D01*
X138285144Y-57497607D01*
X138338452Y-57658481D01*
X138338457Y-57658492D01*
X138427424Y-57802728D01*
X138427427Y-57802732D01*
X138547267Y-57922572D01*
X138547271Y-57922575D01*
X138691507Y-58011542D01*
X138691518Y-58011547D01*
X138852393Y-58064855D01*
X138951683Y-58074999D01*
X138999999Y-58074998D01*
X139000000Y-58074998D01*
X139000000Y-57375000D01*
X138275001Y-57375000D01*
X138275001Y-57398322D01*
X136272790Y-57398322D01*
X136372734Y-57275751D01*
X136462237Y-57104406D01*
X136515417Y-56918552D01*
X136525500Y-56805138D01*
X136525500Y-55794862D01*
X136515417Y-55681448D01*
X136462237Y-55495594D01*
X136372734Y-55324249D01*
X136372731Y-55324246D01*
X136372730Y-55324243D01*
X136328398Y-55269874D01*
X136301289Y-55205478D01*
X136300500Y-55191514D01*
X136300500Y-54039983D01*
X136320185Y-53972944D01*
X136351616Y-53939664D01*
X136371617Y-53925133D01*
X136425341Y-53886100D01*
X136430079Y-53882658D01*
X136430079Y-53882657D01*
X136430083Y-53882655D01*
X136602655Y-53710083D01*
X136745620Y-53513307D01*
X136800947Y-53470644D01*
X136841827Y-53464617D01*
X137477036Y-52829407D01*
X137494075Y-52892993D01*
G37*
G04 #@! TD.AperFunction*
G04 #@! TA.AperFunction,Conductor*
G36*
X113705703Y-66030058D02*
G01*
X113727602Y-66054880D01*
X113761697Y-66105908D01*
X113894088Y-66238299D01*
X113894092Y-66238302D01*
X114049762Y-66342318D01*
X114049775Y-66342325D01*
X114117260Y-66370278D01*
X114200853Y-66404903D01*
X114255257Y-66448744D01*
X114277322Y-66515038D01*
X114260043Y-66582737D01*
X114257575Y-66586652D01*
X114257315Y-66587139D01*
X114185664Y-66760120D01*
X114185662Y-66760128D01*
X114149137Y-66943751D01*
X114149137Y-67130992D01*
X114185662Y-67314615D01*
X114185665Y-67314627D01*
X114208669Y-67370163D01*
X114216138Y-67439632D01*
X114208670Y-67465065D01*
X114190012Y-67510111D01*
X114190011Y-67510114D01*
X114190011Y-67510115D01*
X114190010Y-67510118D01*
X114155922Y-67681490D01*
X114123537Y-67743401D01*
X114062822Y-67777975D01*
X114058496Y-67778916D01*
X114022756Y-67786025D01*
X114022748Y-67786027D01*
X113849771Y-67857676D01*
X113849762Y-67857681D01*
X113693391Y-67962166D01*
X113626713Y-67983044D01*
X113559333Y-67964559D01*
X113512643Y-67912581D01*
X113500500Y-67859064D01*
X113500500Y-66123771D01*
X113520185Y-66056732D01*
X113572989Y-66010977D01*
X113642147Y-66001033D01*
X113705703Y-66030058D01*
G37*
G04 #@! TD.AperFunction*
G04 #@! TA.AperFunction,Conductor*
G36*
X126463790Y-65930058D02*
G01*
X126509545Y-65982862D01*
X126511302Y-65986898D01*
X126515559Y-65997175D01*
X126520478Y-66009051D01*
X126520482Y-66009058D01*
X126608083Y-66140161D01*
X126608086Y-66140165D01*
X127058318Y-66590396D01*
X127091803Y-66651719D01*
X127086819Y-66721410D01*
X127044948Y-66777344D01*
X126979483Y-66801761D01*
X126970637Y-66802077D01*
X122523732Y-66802077D01*
X122369087Y-66832838D01*
X122369075Y-66832841D01*
X122223404Y-66893179D01*
X122223391Y-66893186D01*
X122092289Y-66980786D01*
X121980786Y-67092290D01*
X121959096Y-67124751D01*
X121943677Y-67143539D01*
X121792714Y-67294503D01*
X121706206Y-67423970D01*
X121706204Y-67423975D01*
X121694856Y-67451371D01*
X121651018Y-67505773D01*
X121584724Y-67527839D01*
X121580296Y-67527918D01*
X119918131Y-67527918D01*
X119851092Y-67508233D01*
X119805337Y-67455429D01*
X119795393Y-67386271D01*
X119813441Y-67346751D01*
X119810437Y-67345249D01*
X119810440Y-67345243D01*
X119820510Y-67331270D01*
X119824418Y-67322715D01*
X119830450Y-67316237D01*
X119833660Y-67313026D01*
X119833663Y-67313021D01*
X121199995Y-65946692D01*
X121261318Y-65913207D01*
X121287676Y-65910373D01*
X126396751Y-65910373D01*
X126463790Y-65930058D01*
G37*
G04 #@! TD.AperFunction*
G04 #@! TA.AperFunction,Conductor*
G36*
X126261790Y-64828058D02*
G01*
X126307545Y-64880862D01*
X126309302Y-64884898D01*
X126313109Y-64894088D01*
X126318478Y-64907051D01*
X126318482Y-64907058D01*
X126406083Y-65038161D01*
X126406086Y-65038165D01*
X126490635Y-65122714D01*
X126524120Y-65184037D01*
X126519136Y-65253729D01*
X126517518Y-65257841D01*
X126511315Y-65272819D01*
X126467477Y-65327225D01*
X126401185Y-65349294D01*
X126396751Y-65349373D01*
X121083197Y-65349373D01*
X121020309Y-65366223D01*
X121020310Y-65366224D01*
X121011860Y-65368488D01*
X121011857Y-65368489D01*
X120947897Y-65405416D01*
X120947896Y-65405417D01*
X120947895Y-65405418D01*
X120229543Y-66123771D01*
X119519133Y-66834181D01*
X119457810Y-66867666D01*
X119431452Y-66870500D01*
X118625547Y-66870500D01*
X118558508Y-66850815D01*
X118512753Y-66798011D01*
X118502809Y-66728853D01*
X118531834Y-66665297D01*
X118537866Y-66658819D01*
X119415870Y-65780816D01*
X120351994Y-64844692D01*
X120413317Y-64811207D01*
X120439675Y-64808373D01*
X126194751Y-64808373D01*
X126261790Y-64828058D01*
G37*
G04 #@! TD.AperFunction*
G04 #@! TA.AperFunction,Conductor*
G36*
X129874075Y-52892993D02*
G01*
X129939901Y-53007007D01*
X130032993Y-53100099D01*
X130147007Y-53165925D01*
X130210590Y-53182962D01*
X129578282Y-53815269D01*
X129578282Y-53815270D01*
X129632449Y-53854624D01*
X129821782Y-53951095D01*
X130023870Y-54016757D01*
X130233754Y-54050000D01*
X130446246Y-54050000D01*
X130656126Y-54016758D01*
X130787181Y-53974175D01*
X130857022Y-53972180D01*
X130916855Y-54008260D01*
X130947684Y-54070960D01*
X130949500Y-54092106D01*
X130949500Y-54288756D01*
X130929815Y-54355795D01*
X130921866Y-54366790D01*
X130910475Y-54380859D01*
X130819534Y-54493161D01*
X130731212Y-54666504D01*
X130680858Y-54854425D01*
X130674500Y-54935216D01*
X130674500Y-55514783D01*
X130680858Y-55595574D01*
X130680858Y-55595577D01*
X130680859Y-55595578D01*
X130731212Y-55783496D01*
X130819535Y-55956840D01*
X130889764Y-56043565D01*
X130931387Y-56094966D01*
X130958279Y-56159454D01*
X130946037Y-56228243D01*
X130940565Y-56238090D01*
X130938458Y-56241505D01*
X130938452Y-56241518D01*
X130885144Y-56402393D01*
X130875000Y-56501677D01*
X130875000Y-56525000D01*
X131726000Y-56525000D01*
X131793039Y-56544685D01*
X131838794Y-56597489D01*
X131850000Y-56649000D01*
X131850000Y-56901000D01*
X131830315Y-56968039D01*
X131777511Y-57013794D01*
X131726000Y-57025000D01*
X130875001Y-57025000D01*
X130875001Y-57048322D01*
X130885144Y-57147607D01*
X130938452Y-57308481D01*
X130938457Y-57308492D01*
X131027424Y-57452728D01*
X131027427Y-57452732D01*
X131147267Y-57572572D01*
X131147271Y-57572575D01*
X131291507Y-57661542D01*
X131291518Y-57661547D01*
X131452393Y-57714855D01*
X131551682Y-57724999D01*
X131570939Y-57724999D01*
X131637980Y-57744681D01*
X131683737Y-57797483D01*
X131693684Y-57866641D01*
X131688876Y-57887317D01*
X131646937Y-58016392D01*
X131619840Y-58187480D01*
X131619840Y-58360701D01*
X131645457Y-58522445D01*
X131646938Y-58531792D01*
X131699744Y-58694312D01*
X131700468Y-58696538D01*
X131779108Y-58850880D01*
X131825817Y-58915167D01*
X131849298Y-58980973D01*
X131849500Y-58988054D01*
X131849500Y-65618059D01*
X131829815Y-65685098D01*
X131777011Y-65730853D01*
X131707853Y-65740797D01*
X131644297Y-65711772D01*
X131637819Y-65705740D01*
X128410292Y-62478213D01*
X128410288Y-62478210D01*
X128279185Y-62390609D01*
X128279172Y-62390602D01*
X128133501Y-62330264D01*
X128133489Y-62330261D01*
X127978845Y-62299500D01*
X127978842Y-62299500D01*
X127821158Y-62299500D01*
X127821155Y-62299500D01*
X127666510Y-62330261D01*
X127666498Y-62330264D01*
X127520827Y-62390602D01*
X127520814Y-62390609D01*
X127389711Y-62478210D01*
X127389707Y-62478213D01*
X127278213Y-62589707D01*
X127278210Y-62589711D01*
X127190609Y-62720814D01*
X127190605Y-62720821D01*
X127184518Y-62735518D01*
X127181438Y-62742952D01*
X127137600Y-62797355D01*
X127071306Y-62819421D01*
X127066878Y-62819500D01*
X116870635Y-62819500D01*
X116830468Y-62830263D01*
X116830467Y-62830262D01*
X116799298Y-62838615D01*
X116799295Y-62838616D01*
X116735335Y-62875543D01*
X116735332Y-62875545D01*
X116735333Y-62875545D01*
X116565229Y-63045648D01*
X116509146Y-63101731D01*
X116447823Y-63135215D01*
X116378131Y-63130231D01*
X116352573Y-63117150D01*
X116322346Y-63096952D01*
X116322332Y-63096944D01*
X116198496Y-63045651D01*
X116198487Y-63045648D01*
X116067027Y-63019500D01*
X116067023Y-63019500D01*
X115974944Y-63019500D01*
X115907905Y-62999815D01*
X115862150Y-62947011D01*
X115852206Y-62877853D01*
X115852471Y-62876103D01*
X115856679Y-62849534D01*
X115856679Y-62676312D01*
X115850603Y-62637949D01*
X115829581Y-62505222D01*
X115776052Y-62340478D01*
X115771575Y-62331691D01*
X115758679Y-62263022D01*
X115769147Y-62227421D01*
X115768007Y-62226949D01*
X115769868Y-62222453D01*
X115769873Y-62222445D01*
X115823402Y-62057701D01*
X115850500Y-61886611D01*
X115850500Y-61874495D01*
X115859939Y-61827042D01*
X115861671Y-61822860D01*
X115865894Y-61812666D01*
X115865894Y-61812662D01*
X115865896Y-61812659D01*
X115879742Y-61743051D01*
X115900499Y-61638695D01*
X115900500Y-61638693D01*
X115900500Y-58849499D01*
X115920185Y-58782460D01*
X115972989Y-58736705D01*
X116024500Y-58725499D01*
X116438011Y-58725499D01*
X116438020Y-58725499D01*
X116516645Y-58719312D01*
X116699488Y-58670320D01*
X116823239Y-58607265D01*
X116891906Y-58594370D01*
X116935827Y-58607266D01*
X117010512Y-58645320D01*
X117193355Y-58694312D01*
X117271979Y-58700500D01*
X117948020Y-58700499D01*
X118026645Y-58694312D01*
X118209488Y-58645320D01*
X118338008Y-58579835D01*
X118378146Y-58559385D01*
X118378147Y-58559383D01*
X118378149Y-58559383D01*
X118478483Y-58478134D01*
X118542971Y-58451242D01*
X118556519Y-58450500D01*
X119733768Y-58450500D01*
X119733769Y-58450499D01*
X119898082Y-58417816D01*
X119970064Y-58388000D01*
X120052863Y-58353704D01*
X120138627Y-58296397D01*
X120205304Y-58275520D01*
X120207518Y-58275500D01*
X120614770Y-58275500D01*
X120614778Y-58275500D01*
X120695578Y-58269141D01*
X120883496Y-58218788D01*
X121056840Y-58130465D01*
X121194970Y-58018609D01*
X121259453Y-57991719D01*
X121328242Y-58003961D01*
X121338106Y-58009443D01*
X121341512Y-58011544D01*
X121341518Y-58011547D01*
X121502393Y-58064855D01*
X121601683Y-58074999D01*
X121625000Y-58074998D01*
X121625000Y-57350000D01*
X122125000Y-57350000D01*
X122125000Y-58074999D01*
X122148308Y-58074999D01*
X122148322Y-58074998D01*
X122247607Y-58064855D01*
X122408481Y-58011547D01*
X122408492Y-58011542D01*
X122552728Y-57922575D01*
X122552732Y-57922572D01*
X122672571Y-57802733D01*
X122709881Y-57742245D01*
X122761829Y-57695521D01*
X122830792Y-57684298D01*
X122894874Y-57712142D01*
X122920958Y-57742245D01*
X122927424Y-57752728D01*
X122927427Y-57752732D01*
X123047267Y-57872572D01*
X123047271Y-57872575D01*
X123191507Y-57961542D01*
X123191518Y-57961547D01*
X123352393Y-58014855D01*
X123451683Y-58024999D01*
X123499999Y-58024998D01*
X123500000Y-58024998D01*
X123500000Y-57325000D01*
X122945590Y-57325000D01*
X122904996Y-57347166D01*
X122878638Y-57350000D01*
X122125000Y-57350000D01*
X121625000Y-57350000D01*
X121625000Y-57224000D01*
X121644685Y-57156961D01*
X121697489Y-57111206D01*
X121749000Y-57100000D01*
X121875000Y-57100000D01*
X121875000Y-56974000D01*
X121894685Y-56906961D01*
X121947489Y-56861206D01*
X121999000Y-56850000D01*
X122654410Y-56850000D01*
X122695004Y-56827834D01*
X122721362Y-56825000D01*
X123626000Y-56825000D01*
X123693039Y-56844685D01*
X123738794Y-56897489D01*
X123750000Y-56949000D01*
X123750000Y-57075000D01*
X123876000Y-57075000D01*
X123943039Y-57094685D01*
X123988794Y-57147489D01*
X124000000Y-57199000D01*
X124000000Y-58024999D01*
X124048308Y-58024999D01*
X124048322Y-58024998D01*
X124147607Y-58014855D01*
X124308481Y-57961547D01*
X124308492Y-57961542D01*
X124452728Y-57872575D01*
X124452732Y-57872572D01*
X124572571Y-57752733D01*
X124639503Y-57644220D01*
X124691451Y-57597496D01*
X124760414Y-57586273D01*
X124802453Y-57599408D01*
X124889823Y-57645046D01*
X124970594Y-57687237D01*
X125156448Y-57740417D01*
X125269862Y-57750500D01*
X125269870Y-57750500D01*
X125905130Y-57750500D01*
X125905138Y-57750500D01*
X126018552Y-57740417D01*
X126204406Y-57687237D01*
X126375751Y-57597734D01*
X126421638Y-57560317D01*
X126486033Y-57533207D01*
X126554863Y-57545215D01*
X126578360Y-57560316D01*
X126593391Y-57572572D01*
X126624246Y-57597732D01*
X126624247Y-57597732D01*
X126624249Y-57597734D01*
X126795594Y-57687237D01*
X126981448Y-57740417D01*
X127094862Y-57750500D01*
X127094870Y-57750500D01*
X127730130Y-57750500D01*
X127730138Y-57750500D01*
X127843552Y-57740417D01*
X128029406Y-57687237D01*
X128200751Y-57597734D01*
X128350571Y-57475571D01*
X128472734Y-57325751D01*
X128562237Y-57154406D01*
X128615417Y-56968552D01*
X128625500Y-56855138D01*
X128625500Y-55844862D01*
X128615417Y-55731448D01*
X128562237Y-55545594D01*
X128472734Y-55374249D01*
X128350571Y-55224429D01*
X128350569Y-55224427D01*
X128350568Y-55224426D01*
X128349319Y-55223177D01*
X128348851Y-55222321D01*
X128346597Y-55219556D01*
X128347112Y-55219135D01*
X128315834Y-55161854D01*
X128313000Y-55135496D01*
X128313000Y-54253699D01*
X128332685Y-54186660D01*
X128385489Y-54140905D01*
X128390725Y-54138866D01*
X128390685Y-54138768D01*
X128395173Y-54136907D01*
X128395185Y-54136904D01*
X128612639Y-54026106D01*
X128810083Y-53882655D01*
X128982655Y-53710083D01*
X129125620Y-53513307D01*
X129180947Y-53470644D01*
X129221827Y-53464617D01*
X129857037Y-52829408D01*
X129874075Y-52892993D01*
G37*
G04 #@! TD.AperFunction*
G04 #@! TA.AperFunction,Conductor*
G36*
X113705703Y-63145357D02*
G01*
X113734985Y-63182776D01*
X113814945Y-63339709D01*
X113844582Y-63380500D01*
X113916765Y-63479851D01*
X114039251Y-63602337D01*
X114179391Y-63704155D01*
X114333734Y-63782796D01*
X114498478Y-63836325D01*
X114503066Y-63837051D01*
X114566200Y-63866976D01*
X114603135Y-63926285D01*
X114602141Y-63996148D01*
X114563535Y-64054383D01*
X114552565Y-64062627D01*
X114494088Y-64101700D01*
X114361700Y-64234088D01*
X114361697Y-64234092D01*
X114257681Y-64389762D01*
X114257676Y-64389772D01*
X114186438Y-64561755D01*
X114142597Y-64616158D01*
X114119332Y-64628862D01*
X114049772Y-64657676D01*
X114049766Y-64657679D01*
X113894096Y-64761694D01*
X113894088Y-64761700D01*
X113761700Y-64894088D01*
X113761697Y-64894092D01*
X113727602Y-64945119D01*
X113673989Y-64989924D01*
X113604664Y-64998631D01*
X113541637Y-64968476D01*
X113504918Y-64909033D01*
X113500500Y-64876228D01*
X113500500Y-63239070D01*
X113520185Y-63172031D01*
X113572989Y-63126276D01*
X113642147Y-63116332D01*
X113705703Y-63145357D01*
G37*
G04 #@! TD.AperFunction*
G04 #@! TA.AperFunction,Conductor*
G36*
X115210835Y-49520185D02*
G01*
X115256590Y-49572989D01*
X115266534Y-49642147D01*
X115237509Y-49705703D01*
X115231477Y-49712181D01*
X115160588Y-49783069D01*
X115160588Y-49783070D01*
X115160586Y-49783072D01*
X115144948Y-49804596D01*
X115058768Y-49923211D01*
X114980128Y-50077552D01*
X114926597Y-50242302D01*
X114899500Y-50413389D01*
X114899500Y-50586610D01*
X114926597Y-50757701D01*
X114929952Y-50768024D01*
X114931948Y-50837865D01*
X114895868Y-50897698D01*
X114846560Y-50923949D01*
X114846932Y-50925093D01*
X114842301Y-50926597D01*
X114842299Y-50926598D01*
X114704629Y-50971330D01*
X114677552Y-50980128D01*
X114523211Y-51058768D01*
X114445130Y-51115498D01*
X114383072Y-51160586D01*
X114383070Y-51160588D01*
X114383069Y-51160588D01*
X114260588Y-51283069D01*
X114260588Y-51283070D01*
X114260586Y-51283072D01*
X114216859Y-51343256D01*
X114158768Y-51423211D01*
X114080128Y-51577552D01*
X114026597Y-51742302D01*
X114015231Y-51814066D01*
X113999500Y-51913389D01*
X113999500Y-52086611D01*
X114026598Y-52257701D01*
X114080127Y-52422445D01*
X114085983Y-52433939D01*
X114099500Y-52490235D01*
X114099500Y-60849142D01*
X114079815Y-60916181D01*
X114048387Y-60949459D01*
X114033072Y-60960585D01*
X113910588Y-61083069D01*
X113910588Y-61083070D01*
X113910586Y-61083072D01*
X113866859Y-61143256D01*
X113808768Y-61223211D01*
X113734985Y-61368020D01*
X113687011Y-61418816D01*
X113619190Y-61435611D01*
X113553055Y-61413074D01*
X113509603Y-61358359D01*
X113500500Y-61311725D01*
X113500500Y-51004427D01*
X113500816Y-50995581D01*
X113501921Y-50980127D01*
X113515130Y-50795436D01*
X113517646Y-50777938D01*
X113559356Y-50586200D01*
X113564335Y-50569242D01*
X113632911Y-50385382D01*
X113640251Y-50369310D01*
X113734294Y-50197083D01*
X113743850Y-50182214D01*
X113861443Y-50025128D01*
X113873017Y-50011771D01*
X114011771Y-49873017D01*
X114025128Y-49861443D01*
X114182214Y-49743850D01*
X114197083Y-49734294D01*
X114369310Y-49640251D01*
X114385382Y-49632911D01*
X114569242Y-49564335D01*
X114586200Y-49559356D01*
X114777938Y-49517646D01*
X114795436Y-49515130D01*
X114995582Y-49500816D01*
X115004428Y-49500500D01*
X115065892Y-49500500D01*
X115143796Y-49500500D01*
X115210835Y-49520185D01*
G37*
G04 #@! TD.AperFunction*
G04 #@! TA.AperFunction,Conductor*
G36*
X156274860Y-55389728D02*
G01*
X156312634Y-55448506D01*
X156313426Y-55451330D01*
X156329680Y-55511988D01*
X156346803Y-55545594D01*
X156415614Y-55680646D01*
X156416266Y-55681451D01*
X156534743Y-55827757D01*
X156641311Y-55914054D01*
X156681853Y-55946885D01*
X156761376Y-55987403D01*
X156850512Y-56032820D01*
X157033355Y-56081812D01*
X157111979Y-56088000D01*
X157640856Y-56087999D01*
X157707895Y-56107683D01*
X157709747Y-56108897D01*
X157826086Y-56186632D01*
X157998644Y-56258107D01*
X158053048Y-56301947D01*
X158071526Y-56342741D01*
X158096961Y-56445015D01*
X158096962Y-56445017D01*
X158096963Y-56445021D01*
X158132416Y-56516505D01*
X158143122Y-56538092D01*
X158155273Y-56606897D01*
X158128400Y-56671221D01*
X158019534Y-56805661D01*
X157931212Y-56979004D01*
X157880858Y-57166925D01*
X157874500Y-57247716D01*
X157874500Y-57877283D01*
X157880858Y-57958074D01*
X157880858Y-57958077D01*
X157880859Y-57958078D01*
X157931212Y-58145996D01*
X158019535Y-58319340D01*
X158141968Y-58470532D01*
X158141970Y-58470534D01*
X158153532Y-58479896D01*
X158193246Y-58537382D01*
X158199500Y-58576265D01*
X158199500Y-58653783D01*
X158179815Y-58720822D01*
X158127011Y-58766577D01*
X158057853Y-58776521D01*
X157994297Y-58747496D01*
X157987819Y-58741464D01*
X156105976Y-56859621D01*
X156072491Y-56798298D01*
X156069657Y-56771940D01*
X156069657Y-55483441D01*
X156089342Y-55416402D01*
X156142146Y-55370647D01*
X156211304Y-55360703D01*
X156274860Y-55389728D01*
G37*
G04 #@! TD.AperFunction*
G04 #@! TA.AperFunction,Conductor*
G36*
X116326396Y-53082452D02*
G01*
X116379848Y-53127448D01*
X116400487Y-53194200D01*
X116400500Y-53195970D01*
X116400500Y-54750500D01*
X116380815Y-54817539D01*
X116328011Y-54863294D01*
X116276500Y-54874500D01*
X116024500Y-54874500D01*
X115957461Y-54854815D01*
X115911706Y-54802011D01*
X115900500Y-54750500D01*
X115900500Y-53224500D01*
X115920185Y-53157461D01*
X115972989Y-53111706D01*
X116024500Y-53100500D01*
X116086610Y-53100500D01*
X116086611Y-53100500D01*
X116200562Y-53082452D01*
X116257102Y-53073497D01*
X116326396Y-53082452D01*
G37*
G04 #@! TD.AperFunction*
G04 #@! TA.AperFunction,Conductor*
G36*
X132362677Y-50920185D02*
G01*
X132383319Y-50936819D01*
X132462341Y-51015841D01*
X132495826Y-51077164D01*
X132490842Y-51146856D01*
X132448970Y-51202789D01*
X132412979Y-51221452D01*
X132391430Y-51228454D01*
X132284810Y-51263097D01*
X132067357Y-51373896D01*
X131869923Y-51517339D01*
X131869918Y-51517343D01*
X131697343Y-51689918D01*
X131554381Y-51886689D01*
X131499051Y-51929354D01*
X131458170Y-51935381D01*
X130822962Y-52570590D01*
X130805925Y-52507007D01*
X130740099Y-52392993D01*
X130647007Y-52299901D01*
X130532993Y-52234075D01*
X130469409Y-52217037D01*
X131101716Y-51584728D01*
X131047550Y-51545375D01*
X130858217Y-51448904D01*
X130656129Y-51383242D01*
X130446246Y-51350000D01*
X130233754Y-51350000D01*
X130023872Y-51383242D01*
X130023869Y-51383242D01*
X129821782Y-51448904D01*
X129632439Y-51545380D01*
X129578282Y-51584727D01*
X129578282Y-51584728D01*
X130210591Y-52217037D01*
X130147007Y-52234075D01*
X130032993Y-52299901D01*
X129939901Y-52392993D01*
X129874075Y-52507007D01*
X129857037Y-52570591D01*
X129222367Y-51935921D01*
X129215325Y-51937348D01*
X129191893Y-51928225D01*
X129167287Y-51923056D01*
X129158163Y-51915093D01*
X129150216Y-51911999D01*
X129125618Y-51886688D01*
X128993521Y-51704872D01*
X128993520Y-51704871D01*
X128982658Y-51689920D01*
X128810081Y-51517343D01*
X128810076Y-51517339D01*
X128612642Y-51373896D01*
X128612641Y-51373895D01*
X128612639Y-51373894D01*
X128395185Y-51263096D01*
X128163076Y-51187679D01*
X128163074Y-51187678D01*
X128163072Y-51187678D01*
X127992020Y-51160586D01*
X127922027Y-51149500D01*
X127677973Y-51149500D01*
X127622093Y-51158350D01*
X127436927Y-51187678D01*
X127204812Y-51263097D01*
X126987357Y-51373896D01*
X126789923Y-51517339D01*
X126789918Y-51517343D01*
X126617681Y-51689581D01*
X126556358Y-51723066D01*
X126486666Y-51718082D01*
X126442319Y-51689581D01*
X126270081Y-51517343D01*
X126270076Y-51517339D01*
X126072642Y-51373896D01*
X126072641Y-51373895D01*
X126072639Y-51373894D01*
X125855185Y-51263096D01*
X125623076Y-51187679D01*
X125623074Y-51187678D01*
X125623072Y-51187678D01*
X125452020Y-51160586D01*
X125382027Y-51149500D01*
X125137973Y-51149500D01*
X125082093Y-51158350D01*
X124896927Y-51187678D01*
X124664812Y-51263097D01*
X124447357Y-51373896D01*
X124249923Y-51517339D01*
X124249918Y-51517343D01*
X124077343Y-51689918D01*
X124077339Y-51689923D01*
X123933896Y-51887357D01*
X123823097Y-52104812D01*
X123747678Y-52336927D01*
X123720740Y-52507007D01*
X123709500Y-52577973D01*
X123709500Y-52822027D01*
X123713061Y-52844509D01*
X123741965Y-53027003D01*
X123747679Y-53063076D01*
X123792168Y-53200000D01*
X123823097Y-53295187D01*
X123933893Y-53512638D01*
X123954596Y-53541133D01*
X123978075Y-53606940D01*
X123962249Y-53674994D01*
X123941959Y-53701699D01*
X123860585Y-53783073D01*
X123758768Y-53923211D01*
X123680128Y-54077552D01*
X123626598Y-54242297D01*
X123626598Y-54242299D01*
X123622226Y-54269899D01*
X123592299Y-54333032D01*
X123532988Y-54369963D01*
X123499754Y-54374500D01*
X123435216Y-54374500D01*
X123354425Y-54380858D01*
X123166503Y-54431212D01*
X123093993Y-54468157D01*
X123025324Y-54481052D01*
X122960584Y-54454775D01*
X122920328Y-54397668D01*
X122917369Y-54387610D01*
X122903037Y-54329979D01*
X122820842Y-54164247D01*
X122766530Y-54096681D01*
X122741560Y-54043183D01*
X122739066Y-54030645D01*
X122735503Y-54012729D01*
X122741732Y-53943137D01*
X122760475Y-53910852D01*
X122820841Y-53835754D01*
X122820842Y-53835753D01*
X122829183Y-53818934D01*
X122903037Y-53670021D01*
X122947683Y-53490495D01*
X122950500Y-53448954D01*
X122950500Y-52276046D01*
X122947683Y-52234505D01*
X122903037Y-52054979D01*
X122820842Y-51889247D01*
X122704940Y-51745060D01*
X122704890Y-51745010D01*
X122704869Y-51744971D01*
X122700728Y-51739820D01*
X122701650Y-51739078D01*
X122671399Y-51683691D01*
X122674856Y-51618315D01*
X122714856Y-51497605D01*
X122724999Y-51398322D01*
X122725000Y-51398309D01*
X122725000Y-51350000D01*
X121899000Y-51350000D01*
X121831961Y-51330315D01*
X121786206Y-51277511D01*
X121775000Y-51226000D01*
X121775000Y-51024500D01*
X121794685Y-50957461D01*
X121847489Y-50911706D01*
X121899000Y-50900500D01*
X132295638Y-50900500D01*
X132362677Y-50920185D01*
G37*
G04 #@! TD.AperFunction*
G04 #@! TA.AperFunction,Conductor*
G36*
X152885759Y-49520185D02*
G01*
X152931514Y-49572989D01*
X152941458Y-49642147D01*
X152936653Y-49662809D01*
X152926598Y-49693756D01*
X152926597Y-49693759D01*
X152926597Y-49693761D01*
X152899500Y-49864846D01*
X152899500Y-50038067D01*
X152924686Y-50197091D01*
X152926598Y-50209158D01*
X152980127Y-50373902D01*
X153058768Y-50528245D01*
X153160586Y-50668385D01*
X153283072Y-50790871D01*
X153423212Y-50892689D01*
X153577555Y-50971330D01*
X153742299Y-51024859D01*
X153913389Y-51051957D01*
X153913390Y-51051957D01*
X154091483Y-51051957D01*
X154091483Y-51053468D01*
X154153298Y-51066450D01*
X154203058Y-51115498D01*
X154218657Y-51175707D01*
X154218657Y-51226000D01*
X154198972Y-51293039D01*
X154146168Y-51338794D01*
X154094657Y-51350000D01*
X153450000Y-51350000D01*
X153450000Y-52266988D01*
X153392993Y-52234075D01*
X153265826Y-52200000D01*
X153134174Y-52200000D01*
X153007007Y-52234075D01*
X152950000Y-52266988D01*
X152950000Y-51350000D01*
X152302155Y-51350000D01*
X152242627Y-51356401D01*
X152242620Y-51356403D01*
X152107913Y-51406645D01*
X152107906Y-51406649D01*
X151992812Y-51492809D01*
X151929901Y-51576847D01*
X151873967Y-51618717D01*
X151804275Y-51623701D01*
X151742954Y-51590216D01*
X151670081Y-51517343D01*
X151670076Y-51517339D01*
X151472642Y-51373896D01*
X151472641Y-51373895D01*
X151472639Y-51373894D01*
X151255185Y-51263096D01*
X151023076Y-51187679D01*
X151023074Y-51187678D01*
X151023072Y-51187678D01*
X150852020Y-51160586D01*
X150782027Y-51149500D01*
X150537973Y-51149500D01*
X150482093Y-51158350D01*
X150296927Y-51187678D01*
X150064812Y-51263097D01*
X149847357Y-51373896D01*
X149649923Y-51517339D01*
X149649918Y-51517343D01*
X149477681Y-51689581D01*
X149416358Y-51723066D01*
X149346666Y-51718082D01*
X149302319Y-51689581D01*
X149130081Y-51517343D01*
X149130076Y-51517339D01*
X148932642Y-51373896D01*
X148932641Y-51373895D01*
X148932639Y-51373894D01*
X148715185Y-51263096D01*
X148483076Y-51187679D01*
X148483074Y-51187678D01*
X148483072Y-51187678D01*
X148312020Y-51160586D01*
X148242027Y-51149500D01*
X147997973Y-51149500D01*
X147942093Y-51158350D01*
X147756927Y-51187678D01*
X147524812Y-51263097D01*
X147307357Y-51373896D01*
X147109923Y-51517339D01*
X147109918Y-51517343D01*
X146937681Y-51689581D01*
X146876358Y-51723066D01*
X146806666Y-51718082D01*
X146762319Y-51689581D01*
X146590081Y-51517343D01*
X146590076Y-51517339D01*
X146392642Y-51373896D01*
X146392641Y-51373895D01*
X146392639Y-51373894D01*
X146175185Y-51263096D01*
X145943076Y-51187679D01*
X145943074Y-51187678D01*
X145943072Y-51187678D01*
X145772020Y-51160586D01*
X145702027Y-51149500D01*
X145457973Y-51149500D01*
X145402093Y-51158350D01*
X145216927Y-51187678D01*
X144984812Y-51263097D01*
X144767357Y-51373896D01*
X144569923Y-51517339D01*
X144569918Y-51517343D01*
X144397681Y-51689581D01*
X144336358Y-51723066D01*
X144266666Y-51718082D01*
X144222319Y-51689581D01*
X144050081Y-51517343D01*
X144050076Y-51517339D01*
X143852642Y-51373896D01*
X143852641Y-51373895D01*
X143852639Y-51373894D01*
X143635185Y-51263096D01*
X143403076Y-51187679D01*
X143403074Y-51187678D01*
X143403072Y-51187678D01*
X143232020Y-51160586D01*
X143162027Y-51149500D01*
X142917973Y-51149500D01*
X142862093Y-51158350D01*
X142676927Y-51187678D01*
X142444812Y-51263097D01*
X142227357Y-51373896D01*
X142029923Y-51517339D01*
X142029918Y-51517343D01*
X141857681Y-51689581D01*
X141796358Y-51723066D01*
X141726666Y-51718082D01*
X141682319Y-51689581D01*
X141510081Y-51517343D01*
X141510076Y-51517339D01*
X141312642Y-51373896D01*
X141312641Y-51373895D01*
X141312639Y-51373894D01*
X141095185Y-51263096D01*
X140863076Y-51187679D01*
X140863074Y-51187678D01*
X140863072Y-51187678D01*
X140692020Y-51160586D01*
X140622027Y-51149500D01*
X140377973Y-51149500D01*
X140322093Y-51158350D01*
X140136927Y-51187678D01*
X139904812Y-51263097D01*
X139687357Y-51373896D01*
X139489923Y-51517339D01*
X139489918Y-51517343D01*
X139317343Y-51689918D01*
X139174381Y-51886689D01*
X139119051Y-51929354D01*
X139078170Y-51935381D01*
X138442962Y-52570590D01*
X138425925Y-52507007D01*
X138360099Y-52392993D01*
X138267007Y-52299901D01*
X138152993Y-52234075D01*
X138089409Y-52217037D01*
X138721716Y-51584728D01*
X138667550Y-51545375D01*
X138478217Y-51448904D01*
X138276129Y-51383242D01*
X138066246Y-51350000D01*
X137853754Y-51350000D01*
X137643872Y-51383242D01*
X137643869Y-51383242D01*
X137441782Y-51448904D01*
X137252439Y-51545380D01*
X137198282Y-51584727D01*
X137198282Y-51584728D01*
X137830591Y-52217037D01*
X137767007Y-52234075D01*
X137652993Y-52299901D01*
X137559901Y-52392993D01*
X137494075Y-52507007D01*
X137477037Y-52570591D01*
X136842367Y-51935921D01*
X136835325Y-51937348D01*
X136811893Y-51928225D01*
X136787287Y-51923056D01*
X136778163Y-51915093D01*
X136770216Y-51911999D01*
X136745618Y-51886688D01*
X136613521Y-51704872D01*
X136613520Y-51704871D01*
X136602658Y-51689920D01*
X136430081Y-51517343D01*
X136430076Y-51517339D01*
X136232642Y-51373896D01*
X136232641Y-51373895D01*
X136232639Y-51373894D01*
X136015185Y-51263096D01*
X135783076Y-51187679D01*
X135783074Y-51187678D01*
X135783072Y-51187678D01*
X135612020Y-51160586D01*
X135542027Y-51149500D01*
X135297973Y-51149500D01*
X135297968Y-51149500D01*
X135226591Y-51160805D01*
X135157298Y-51151850D01*
X135119512Y-51126013D01*
X133705681Y-49712181D01*
X133672196Y-49650858D01*
X133677180Y-49581166D01*
X133719052Y-49525233D01*
X133784516Y-49500816D01*
X133793362Y-49500500D01*
X152818720Y-49500500D01*
X152885759Y-49520185D01*
G37*
G04 #@! TD.AperFunction*
G04 #@! TA.AperFunction,Conductor*
G36*
X158696523Y-49520185D02*
G01*
X158742278Y-49572989D01*
X158752222Y-49642147D01*
X158726131Y-49702187D01*
X158617633Y-49837164D01*
X158536406Y-50000945D01*
X158536405Y-50000947D01*
X158492284Y-50178358D01*
X158489500Y-50219419D01*
X158489500Y-50535363D01*
X158469815Y-50602402D01*
X158443536Y-50631729D01*
X158290281Y-50755834D01*
X158225794Y-50782726D01*
X158164793Y-50774029D01*
X158122627Y-50756563D01*
X158122617Y-50756560D01*
X158091275Y-50750326D01*
X158042583Y-50729027D01*
X157976788Y-50681225D01*
X157822445Y-50602584D01*
X157657701Y-50549055D01*
X157657699Y-50549054D01*
X157657698Y-50549054D01*
X157526261Y-50528237D01*
X157486611Y-50521957D01*
X157313389Y-50521957D01*
X157273739Y-50528237D01*
X157142302Y-50549054D01*
X156977552Y-50602585D01*
X156823211Y-50681225D01*
X156789686Y-50705583D01*
X156683072Y-50783043D01*
X156683070Y-50783045D01*
X156683069Y-50783045D01*
X156560588Y-50905526D01*
X156560588Y-50905527D01*
X156560586Y-50905529D01*
X156522855Y-50957461D01*
X156458768Y-51045668D01*
X156380128Y-51200009D01*
X156380127Y-51200011D01*
X156380127Y-51200012D01*
X156359630Y-51263096D01*
X156326597Y-51364759D01*
X156316130Y-51430848D01*
X156286201Y-51493983D01*
X156226889Y-51530914D01*
X156157027Y-51529916D01*
X156098794Y-51491306D01*
X156070680Y-51427343D01*
X156069657Y-51411450D01*
X156069657Y-50597900D01*
X156088825Y-50532620D01*
X156088451Y-50532391D01*
X156089299Y-50531007D01*
X156089342Y-50530861D01*
X156089791Y-50530203D01*
X156090980Y-50528261D01*
X156090993Y-50528245D01*
X156169634Y-50373902D01*
X156223163Y-50209158D01*
X156250261Y-50038068D01*
X156250261Y-49864846D01*
X156223163Y-49693756D01*
X156213109Y-49662816D01*
X156211115Y-49592978D01*
X156247195Y-49533145D01*
X156309895Y-49502316D01*
X156331041Y-49500500D01*
X158629484Y-49500500D01*
X158696523Y-49520185D01*
G37*
G04 #@! TD.AperFunction*
G04 #@! TA.AperFunction,Conductor*
G36*
X161004418Y-49500816D02*
G01*
X161204557Y-49515130D01*
X161208400Y-49516563D01*
X161212459Y-49515950D01*
X161222059Y-49517646D01*
X161413795Y-49559355D01*
X161430760Y-49564336D01*
X161490199Y-49586506D01*
X161546132Y-49628376D01*
X161570549Y-49693840D01*
X161555698Y-49762113D01*
X161506292Y-49811519D01*
X161503160Y-49813172D01*
X161365646Y-49883239D01*
X161270157Y-49952616D01*
X161258722Y-49956695D01*
X161249607Y-49964712D01*
X161226430Y-49968217D01*
X161204351Y-49976096D01*
X161192526Y-49973346D01*
X161180523Y-49975162D01*
X161159129Y-49965580D01*
X161136297Y-49960271D01*
X161127061Y-49951218D01*
X161116757Y-49946603D01*
X161106803Y-49931360D01*
X161090540Y-49915419D01*
X161079721Y-49897125D01*
X161079714Y-49897116D01*
X160965383Y-49782785D01*
X160965374Y-49782778D01*
X160878214Y-49731232D01*
X160830530Y-49680163D01*
X160818027Y-49611421D01*
X160844673Y-49546832D01*
X160902008Y-49506902D01*
X160941335Y-49500500D01*
X160995572Y-49500500D01*
X161004418Y-49500816D01*
G37*
G04 #@! TD.AperFunction*
M02*
