G04 #@! TF.GenerationSoftware,KiCad,Pcbnew,10.0.5-10.0.5~ubuntu24.04.1*
G04 #@! TF.CreationDate,2026-08-19T12:02:01-04:00*
G04 #@! TF.ProjectId,breakout-ihp-qfn,62726561-6b6f-4757-942d-6968702d7166,1.2*
G04 #@! TF.SameCoordinates,PX6bc3e40PY5e69ec0*
G04 #@! TF.FileFunction,Copper,L3,Inr*
G04 #@! TF.FilePolarity,Positive*
%FSLAX46Y46*%
G04 Gerber Fmt 4.6, Leading zero omitted, Abs format (unit mm)*
G04 Created by KiCad (PCBNEW 10.0.5-10.0.5~ubuntu24.04.1) date 2026-08-19 12:02:01*
%MOMM*%
%LPD*%
G01*
G04 APERTURE LIST*
G04 #@! TA.AperFunction,ComponentPad*
%ADD10C,0.620000*%
G04 #@! TD*
G04 #@! TA.AperFunction,ComponentPad*
%ADD11C,0.820000*%
G04 #@! TD*
G04 #@! TA.AperFunction,ComponentPad*
%ADD12R,1.700000X1.700000*%
G04 #@! TD*
G04 #@! TA.AperFunction,ComponentPad*
%ADD13C,1.700000*%
G04 #@! TD*
G04 #@! TA.AperFunction,ViaPad*
%ADD14C,0.800000*%
G04 #@! TD*
G04 #@! TA.AperFunction,ViaPad*
%ADD15C,0.600000*%
G04 #@! TD*
G04 #@! TA.AperFunction,ViaPad*
%ADD16C,0.500000*%
G04 #@! TD*
G04 #@! TA.AperFunction,ViaPad*
%ADD17C,0.650000*%
G04 #@! TD*
G04 #@! TA.AperFunction,Conductor*
%ADD18C,0.300000*%
G04 #@! TD*
G04 #@! TA.AperFunction,Conductor*
%ADD19C,0.350000*%
G04 #@! TD*
G04 #@! TA.AperFunction,Conductor*
%ADD20C,0.400000*%
G04 #@! TD*
G04 #@! TA.AperFunction,Conductor*
%ADD21C,0.550000*%
G04 #@! TD*
G04 #@! TA.AperFunction,Conductor*
%ADD22C,0.250000*%
G04 #@! TD*
G04 APERTURE END LIST*
D10*
X138000000Y-74000000D03*
X144900000Y-76500000D03*
D11*
X124900000Y-98000000D03*
X152900000Y-98000000D03*
X160200000Y-73300000D03*
D10*
X141300000Y-75400000D03*
D11*
X136900000Y-98000000D03*
X145900000Y-81400000D03*
X153700000Y-60000000D03*
X116100000Y-53200000D03*
D10*
X156400000Y-56200000D03*
D11*
X114000000Y-55400000D03*
X141800000Y-65600000D03*
X140900000Y-98000000D03*
X114100000Y-82100000D03*
D10*
X158200000Y-59000000D03*
D11*
X135600000Y-58000000D03*
D12*
X153200000Y-52700000D03*
D13*
X150660000Y-52700000D03*
X148120000Y-52700000D03*
X145580000Y-52700000D03*
X143040000Y-52700000D03*
X140500000Y-52700000D03*
X137960000Y-52700000D03*
X135420000Y-52700000D03*
X132880000Y-52700000D03*
X130340000Y-52700000D03*
X127800000Y-52700000D03*
X125260000Y-52700000D03*
D11*
X115600000Y-80600000D03*
D10*
X148600000Y-56400000D03*
D11*
X134800000Y-93200000D03*
X114100000Y-90100000D03*
D10*
X141300000Y-72600000D03*
D11*
X144200000Y-93000000D03*
X161400000Y-97300000D03*
X150400000Y-85900000D03*
X144900000Y-98000000D03*
X153700000Y-69800000D03*
X148900000Y-98000000D03*
X160200000Y-93500000D03*
D10*
X145800000Y-79100000D03*
X138000000Y-71300000D03*
D11*
X120900000Y-98000000D03*
X114000000Y-60700000D03*
X160200000Y-65300000D03*
X131800000Y-58800000D03*
X141800000Y-61000000D03*
X114000000Y-50800000D03*
X114100000Y-86100000D03*
X132900000Y-98000000D03*
X158200000Y-76800000D03*
X150700000Y-55400000D03*
X156900000Y-98000000D03*
X160200000Y-77300000D03*
D10*
X145100000Y-68100000D03*
D11*
X150900000Y-69800000D03*
X141500000Y-58900000D03*
D10*
X145300000Y-90900000D03*
X156200000Y-49900000D03*
D11*
X162000000Y-86900000D03*
X120800000Y-62400000D03*
D10*
X134800000Y-72600000D03*
D11*
X129400000Y-56400000D03*
X141300000Y-86600000D03*
X144700000Y-57100000D03*
X114100000Y-94100000D03*
X147600000Y-84000000D03*
X116900000Y-98000000D03*
X118000000Y-60900000D03*
X122600000Y-80400000D03*
X128900000Y-98000000D03*
D10*
X134800000Y-75400000D03*
D11*
X150300000Y-92400000D03*
X144600000Y-63800000D03*
X150600000Y-62600000D03*
X162000000Y-82300000D03*
D10*
X138200000Y-77300000D03*
D11*
X160200000Y-69300000D03*
D14*
X157400000Y-51622457D03*
D15*
X115393800Y-77590818D03*
X128900000Y-75300000D03*
D14*
X122700000Y-51150000D03*
D15*
X160100000Y-82700000D03*
X121900000Y-58200000D03*
X138500000Y-63400000D03*
X135400000Y-66400000D03*
X135740581Y-70700000D03*
D16*
X123068247Y-75160000D03*
D15*
X138186386Y-81542158D03*
D16*
X123374773Y-72883294D03*
X122456126Y-72104883D03*
D15*
X121028552Y-56126142D03*
X121000000Y-54200000D03*
X146700000Y-95300000D03*
X122900000Y-54200000D03*
X133500000Y-66500000D03*
X153075828Y-90914307D03*
X161749000Y-90300003D03*
D14*
X118151000Y-50873235D03*
D15*
X114600000Y-63700000D03*
D16*
X122040007Y-69271657D03*
D17*
X160000000Y-56600000D03*
D15*
X145000000Y-72150000D03*
X134800000Y-70700000D03*
X144976431Y-74015352D03*
X138600000Y-66100000D03*
X155200000Y-79000000D03*
X142800000Y-81100000D03*
D17*
X160000000Y-54500000D03*
D15*
X142800000Y-67300000D03*
X151600000Y-95600000D03*
X115025735Y-70125735D03*
X159900000Y-62500000D03*
X153800000Y-88100000D03*
X160100000Y-86500000D03*
D16*
X122300000Y-66200000D03*
D15*
X152835570Y-82350000D03*
X125200000Y-69452577D03*
X123750001Y-58349999D03*
X114400000Y-74088103D03*
X114541050Y-76354499D03*
X136550985Y-82398000D03*
X148100000Y-93300000D03*
D16*
X126500000Y-68200000D03*
D15*
X114313137Y-67908038D03*
D16*
X154400000Y-62500000D03*
D15*
X114749990Y-72048796D03*
D14*
X161325000Y-57600000D03*
D15*
X145000000Y-70150000D03*
D16*
X122158234Y-65078873D03*
D15*
X138249999Y-70450000D03*
D16*
X122343103Y-70805463D03*
D15*
X115100000Y-66100000D03*
X137800000Y-83180000D03*
D16*
X122100000Y-67270000D03*
D14*
X161142438Y-52057045D03*
D15*
X127700000Y-69500000D03*
X130000000Y-69300000D03*
X117200000Y-80800000D03*
D16*
X122855030Y-68202577D03*
X122030525Y-77215171D03*
D15*
X128500000Y-72800000D03*
X153848575Y-85548575D03*
X135200000Y-77300000D03*
X139745073Y-85689593D03*
X141300000Y-70700000D03*
X140200000Y-57100000D03*
D14*
X161100000Y-49922457D03*
D15*
X153849998Y-89600000D03*
X138000000Y-61740000D03*
X146700000Y-96800000D03*
X141300000Y-77300000D03*
X160100000Y-84500000D03*
X136400000Y-63800000D03*
X160100000Y-80775000D03*
D16*
X122100000Y-74200000D03*
D15*
X135000000Y-81500000D03*
X139500000Y-61000000D03*
D14*
X134306130Y-57256678D03*
D15*
X142800000Y-80200000D03*
D14*
X134499999Y-58100000D03*
D15*
X146700000Y-80300000D03*
D14*
X146700000Y-56300000D03*
X146700000Y-57200000D03*
X146600000Y-82500000D03*
X147900000Y-55600000D03*
X147000000Y-55200000D03*
D17*
X138800000Y-82800000D03*
D15*
X138840000Y-67626823D03*
X141100000Y-55200000D03*
D14*
X147600000Y-82500000D03*
D15*
X140200000Y-55200000D03*
D17*
X138800000Y-82150000D03*
D14*
X133500000Y-58900000D03*
D15*
X133593478Y-69040000D03*
X135300000Y-92200000D03*
X148300000Y-92250000D03*
X147500000Y-92250000D03*
D14*
X148700000Y-59200000D03*
X124700000Y-54500000D03*
D15*
X142400000Y-68500000D03*
D14*
X132720340Y-58274091D03*
X124700000Y-55400000D03*
D15*
X134600000Y-91900000D03*
D14*
X148650000Y-58150000D03*
D15*
X161425000Y-55400000D03*
X158300000Y-55300000D03*
X151600000Y-91600000D03*
X144050000Y-91300000D03*
X149525000Y-63600000D03*
X144575000Y-90200000D03*
X152800000Y-90100002D03*
X154500000Y-63600000D03*
X160900000Y-94207690D03*
X143600000Y-94200000D03*
X160534517Y-91091512D03*
X161000000Y-64500000D03*
X145600000Y-64500000D03*
D14*
X155149761Y-49951457D03*
X159200000Y-78900000D03*
X119500000Y-49900000D03*
X159200000Y-77900000D03*
X154000000Y-49951457D03*
X117500000Y-49900000D03*
D15*
X162200000Y-89479250D03*
X154700000Y-96400000D03*
X162200000Y-96300000D03*
X161600000Y-95700000D03*
X152800000Y-95800000D03*
X161550000Y-88023107D03*
D14*
X162100000Y-80100000D03*
X116000000Y-52000000D03*
X161942438Y-50824469D03*
X162100000Y-51700000D03*
X115100000Y-52000000D03*
X114750000Y-61800000D03*
X162100000Y-81100000D03*
X114756179Y-62762923D03*
D15*
X144300000Y-75300000D03*
D18*
X134427197Y-57256678D02*
X134306130Y-57256678D01*
X134499999Y-57329480D02*
X134427197Y-57256678D01*
X146700000Y-56300000D02*
X146700000Y-57200000D01*
X134499999Y-58100000D02*
X134499999Y-57329480D01*
X147500000Y-55200000D02*
X147000000Y-55200000D01*
X146600000Y-82500000D02*
X147600000Y-82500000D01*
D19*
X138800000Y-82150000D02*
X138800000Y-82800000D01*
D20*
X140200000Y-55200000D02*
X141100000Y-55200000D01*
D18*
X147900000Y-55600000D02*
X147500000Y-55200000D01*
D19*
X142400000Y-68500000D02*
X141960000Y-68940000D01*
D18*
X132874091Y-58274091D02*
X133500000Y-58900000D01*
X148650000Y-58150000D02*
X148650000Y-59150000D01*
X134900000Y-92200000D02*
X135300000Y-92200000D01*
X124700000Y-54500000D02*
X124700000Y-55400000D01*
D19*
X141960000Y-68940000D02*
X133693478Y-68940000D01*
D18*
X148650000Y-59150000D02*
X148700000Y-59200000D01*
D20*
X147500000Y-92250000D02*
X148300000Y-92250000D01*
D18*
X134600000Y-91900000D02*
X134900000Y-92200000D01*
D19*
X133693478Y-68940000D02*
X133593478Y-69040000D01*
D18*
X132720340Y-58274091D02*
X132874091Y-58274091D01*
D20*
X159200000Y-77900000D02*
X159200000Y-78900000D01*
D19*
X117500000Y-49900000D02*
X119500000Y-49900000D01*
D21*
X154000000Y-49951457D02*
X155149761Y-49951457D01*
D18*
X161942438Y-51542438D02*
X162100000Y-51700000D01*
D20*
X162100000Y-80100000D02*
X162100000Y-81100000D01*
D22*
X114750000Y-61800000D02*
X114750000Y-62756744D01*
D18*
X115100000Y-52000000D02*
X116000000Y-52000000D01*
X161942438Y-50824469D02*
X161942438Y-51542438D01*
D22*
X114750000Y-62756744D02*
X114756179Y-62762923D01*
G04 #@! TA.AperFunction,Conductor*
G36*
X116734604Y-49520185D02*
G01*
X116780359Y-49572989D01*
X116790303Y-49642147D01*
X116782125Y-49671952D01*
X116782126Y-49671953D01*
X116782125Y-49671955D01*
X116778342Y-49681086D01*
X116778340Y-49681092D01*
X116749500Y-49826079D01*
X116749500Y-49826082D01*
X116749500Y-49973918D01*
X116749500Y-49973920D01*
X116749499Y-49973920D01*
X116778340Y-50118907D01*
X116778343Y-50118917D01*
X116834912Y-50255488D01*
X116834919Y-50255501D01*
X116917048Y-50378415D01*
X116917051Y-50378419D01*
X117021580Y-50482948D01*
X117021584Y-50482951D01*
X117144498Y-50565080D01*
X117144511Y-50565087D01*
X117281082Y-50621656D01*
X117281087Y-50621658D01*
X117281091Y-50621658D01*
X117281092Y-50621659D01*
X117426079Y-50650500D01*
X117426082Y-50650500D01*
X117573920Y-50650500D01*
X117671462Y-50631096D01*
X117718913Y-50621658D01*
X117855495Y-50565084D01*
X117978416Y-50482951D01*
X117978419Y-50482948D01*
X117999549Y-50461819D01*
X118060872Y-50428334D01*
X118087230Y-50425500D01*
X118912770Y-50425500D01*
X118979809Y-50445185D01*
X119000451Y-50461819D01*
X119021580Y-50482948D01*
X119021584Y-50482951D01*
X119144498Y-50565080D01*
X119144511Y-50565087D01*
X119281082Y-50621656D01*
X119281087Y-50621658D01*
X119281091Y-50621658D01*
X119281092Y-50621659D01*
X119426079Y-50650500D01*
X119426082Y-50650500D01*
X119573920Y-50650500D01*
X119671462Y-50631096D01*
X119718913Y-50621658D01*
X119855495Y-50565084D01*
X119978416Y-50482951D01*
X120082951Y-50378416D01*
X120165084Y-50255495D01*
X120170874Y-50241518D01*
X120204894Y-50159385D01*
X120221658Y-50118913D01*
X120240264Y-50025377D01*
X120250500Y-49973920D01*
X120250500Y-49826079D01*
X120221659Y-49681092D01*
X120221658Y-49681091D01*
X120221658Y-49681087D01*
X120217874Y-49671953D01*
X120210405Y-49602486D01*
X120241678Y-49540006D01*
X120301766Y-49504352D01*
X120332435Y-49500500D01*
X153188879Y-49500500D01*
X153255918Y-49520185D01*
X153301673Y-49572989D01*
X153311617Y-49642147D01*
X153303440Y-49671953D01*
X153278342Y-49732543D01*
X153278340Y-49732549D01*
X153249500Y-49877536D01*
X153249500Y-49877539D01*
X153249500Y-50025375D01*
X153249500Y-50025377D01*
X153249499Y-50025377D01*
X153278340Y-50170364D01*
X153278343Y-50170374D01*
X153334912Y-50306945D01*
X153334919Y-50306958D01*
X153417048Y-50429872D01*
X153417051Y-50429876D01*
X153521580Y-50534405D01*
X153521584Y-50534408D01*
X153644498Y-50616537D01*
X153644511Y-50616544D01*
X153726489Y-50650500D01*
X153781087Y-50673115D01*
X153781091Y-50673115D01*
X153781092Y-50673116D01*
X153926079Y-50701957D01*
X153926082Y-50701957D01*
X154073920Y-50701957D01*
X154171462Y-50682553D01*
X154218913Y-50673115D01*
X154355495Y-50616541D01*
X154383462Y-50597853D01*
X154450137Y-50576977D01*
X154452351Y-50576957D01*
X154697410Y-50576957D01*
X154764449Y-50596642D01*
X154766216Y-50597798D01*
X154794266Y-50616541D01*
X154930848Y-50673115D01*
X154930852Y-50673115D01*
X154930853Y-50673116D01*
X155075840Y-50701957D01*
X155075843Y-50701957D01*
X155223681Y-50701957D01*
X155321223Y-50682553D01*
X155368674Y-50673115D01*
X155492900Y-50621659D01*
X155505249Y-50616544D01*
X155505249Y-50616543D01*
X155505256Y-50616541D01*
X155628177Y-50534408D01*
X155732712Y-50429873D01*
X155814845Y-50306952D01*
X155871419Y-50170370D01*
X155881656Y-50118907D01*
X155900261Y-50025377D01*
X155900261Y-49877536D01*
X155871420Y-49732549D01*
X155871419Y-49732548D01*
X155871419Y-49732544D01*
X155846320Y-49671951D01*
X155838852Y-49602484D01*
X155870127Y-49540004D01*
X155930216Y-49504352D01*
X155960882Y-49500500D01*
X160934108Y-49500500D01*
X160995572Y-49500500D01*
X161004418Y-49500816D01*
X161204561Y-49515130D01*
X161222063Y-49517647D01*
X161413795Y-49559355D01*
X161430760Y-49564336D01*
X161614611Y-49632909D01*
X161630694Y-49640253D01*
X161802908Y-49734290D01*
X161817791Y-49743855D01*
X161960522Y-49850702D01*
X162002394Y-49906635D01*
X162007378Y-49976327D01*
X161973893Y-50037650D01*
X161912570Y-50071135D01*
X161886212Y-50073969D01*
X161868518Y-50073969D01*
X161723530Y-50102809D01*
X161723520Y-50102812D01*
X161586949Y-50159381D01*
X161586936Y-50159388D01*
X161464022Y-50241517D01*
X161464018Y-50241520D01*
X161359489Y-50346049D01*
X161359486Y-50346053D01*
X161277357Y-50468967D01*
X161277350Y-50468980D01*
X161220781Y-50605551D01*
X161220778Y-50605561D01*
X161191938Y-50750548D01*
X161191938Y-50750551D01*
X161191938Y-50898387D01*
X161191938Y-50898389D01*
X161191937Y-50898389D01*
X161220777Y-51043371D01*
X161220781Y-51043386D01*
X161277350Y-51179957D01*
X161277357Y-51179970D01*
X161359486Y-51302884D01*
X161359489Y-51302888D01*
X161366426Y-51309825D01*
X161399911Y-51371148D01*
X161394927Y-51440840D01*
X161393307Y-51444956D01*
X161378342Y-51481085D01*
X161378340Y-51481093D01*
X161349500Y-51626079D01*
X161349500Y-51626082D01*
X161349500Y-51773918D01*
X161349500Y-51773920D01*
X161349499Y-51773920D01*
X161378340Y-51918907D01*
X161378343Y-51918917D01*
X161434912Y-52055488D01*
X161434919Y-52055501D01*
X161517048Y-52178415D01*
X161517051Y-52178419D01*
X161621580Y-52282948D01*
X161621584Y-52282951D01*
X161744498Y-52365080D01*
X161744511Y-52365087D01*
X161874385Y-52418882D01*
X161881087Y-52421658D01*
X161881091Y-52421658D01*
X161881092Y-52421659D01*
X162026079Y-52450500D01*
X162026082Y-52450500D01*
X162173920Y-52450500D01*
X162271462Y-52431096D01*
X162318913Y-52421658D01*
X162328046Y-52417874D01*
X162397514Y-52410405D01*
X162459994Y-52441678D01*
X162495648Y-52501766D01*
X162499500Y-52532435D01*
X162499500Y-79267564D01*
X162479815Y-79334603D01*
X162427011Y-79380358D01*
X162357853Y-79390302D01*
X162328051Y-79382127D01*
X162323780Y-79380358D01*
X162318913Y-79378342D01*
X162318911Y-79378341D01*
X162318907Y-79378340D01*
X162173920Y-79349500D01*
X162173918Y-79349500D01*
X162026082Y-79349500D01*
X162026080Y-79349500D01*
X161881092Y-79378340D01*
X161881082Y-79378343D01*
X161744511Y-79434912D01*
X161744498Y-79434919D01*
X161621584Y-79517048D01*
X161621580Y-79517051D01*
X161517051Y-79621580D01*
X161517048Y-79621584D01*
X161434919Y-79744498D01*
X161434912Y-79744511D01*
X161378343Y-79881082D01*
X161378340Y-79881092D01*
X161349500Y-80026079D01*
X161349500Y-80026082D01*
X161349500Y-80173918D01*
X161349500Y-80173920D01*
X161349499Y-80173920D01*
X161378340Y-80318907D01*
X161378343Y-80318917D01*
X161434912Y-80455488D01*
X161434919Y-80455501D01*
X161485439Y-80531109D01*
X161506317Y-80597787D01*
X161487832Y-80665167D01*
X161485439Y-80668891D01*
X161434919Y-80744498D01*
X161434912Y-80744511D01*
X161378343Y-80881082D01*
X161378340Y-80881092D01*
X161349500Y-81026079D01*
X161349500Y-81026082D01*
X161349500Y-81173918D01*
X161349500Y-81173920D01*
X161349499Y-81173920D01*
X161378340Y-81318907D01*
X161378343Y-81318917D01*
X161434912Y-81455488D01*
X161434919Y-81455501D01*
X161517048Y-81578415D01*
X161517051Y-81578419D01*
X161621580Y-81682948D01*
X161621584Y-81682951D01*
X161744498Y-81765080D01*
X161744511Y-81765087D01*
X161871954Y-81817875D01*
X161881087Y-81821658D01*
X161881091Y-81821658D01*
X161881092Y-81821659D01*
X162026079Y-81850500D01*
X162026082Y-81850500D01*
X162173920Y-81850500D01*
X162276875Y-81830020D01*
X162318913Y-81821658D01*
X162328046Y-81817874D01*
X162397514Y-81810405D01*
X162459994Y-81841678D01*
X162495648Y-81901766D01*
X162499500Y-81932435D01*
X162499500Y-88724486D01*
X162479815Y-88791525D01*
X162427011Y-88837280D01*
X162357853Y-88847224D01*
X162351308Y-88846103D01*
X162264071Y-88828750D01*
X162264069Y-88828750D01*
X162135931Y-88828750D01*
X162135929Y-88828750D01*
X162010261Y-88853747D01*
X162010255Y-88853749D01*
X161891875Y-88902783D01*
X161891866Y-88902788D01*
X161785331Y-88973973D01*
X161785327Y-88973976D01*
X161694726Y-89064577D01*
X161694723Y-89064581D01*
X161623538Y-89171116D01*
X161623533Y-89171125D01*
X161574499Y-89289505D01*
X161574497Y-89289511D01*
X161549500Y-89415178D01*
X161549500Y-89415181D01*
X161549500Y-89543319D01*
X161549500Y-89543321D01*
X161549499Y-89543321D01*
X161574497Y-89668988D01*
X161574499Y-89668994D01*
X161623533Y-89787374D01*
X161623538Y-89787383D01*
X161694723Y-89893918D01*
X161694726Y-89893922D01*
X161785327Y-89984523D01*
X161785331Y-89984526D01*
X161891866Y-90055711D01*
X161891872Y-90055714D01*
X161891873Y-90055715D01*
X162010256Y-90104751D01*
X162010260Y-90104751D01*
X162010261Y-90104752D01*
X162135928Y-90129750D01*
X162135931Y-90129750D01*
X162264070Y-90129750D01*
X162281352Y-90126311D01*
X162351309Y-90112396D01*
X162420898Y-90118622D01*
X162476076Y-90161485D01*
X162499322Y-90227374D01*
X162499500Y-90234013D01*
X162499500Y-95545236D01*
X162479815Y-95612275D01*
X162427011Y-95658030D01*
X162357853Y-95667974D01*
X162351312Y-95666854D01*
X162344513Y-95665501D01*
X162334009Y-95663412D01*
X162272099Y-95631024D01*
X162237527Y-95570307D01*
X162236587Y-95565986D01*
X162225502Y-95510263D01*
X162225502Y-95510261D01*
X162225501Y-95510256D01*
X162176465Y-95391873D01*
X162176464Y-95391872D01*
X162176461Y-95391866D01*
X162105276Y-95285331D01*
X162105273Y-95285327D01*
X162014672Y-95194726D01*
X162014668Y-95194723D01*
X161908133Y-95123538D01*
X161908124Y-95123533D01*
X161789744Y-95074499D01*
X161789738Y-95074497D01*
X161664071Y-95049500D01*
X161664069Y-95049500D01*
X161535931Y-95049500D01*
X161535929Y-95049500D01*
X161410261Y-95074497D01*
X161410255Y-95074499D01*
X161291875Y-95123533D01*
X161291866Y-95123538D01*
X161185331Y-95194723D01*
X161185327Y-95194726D01*
X161094726Y-95285327D01*
X161094723Y-95285331D01*
X161023538Y-95391866D01*
X161023533Y-95391875D01*
X160974499Y-95510255D01*
X160974497Y-95510261D01*
X160949500Y-95635928D01*
X160949500Y-95635931D01*
X160949500Y-95764069D01*
X160949500Y-95764071D01*
X160949499Y-95764071D01*
X160974497Y-95889738D01*
X160974499Y-95889744D01*
X161023533Y-96008124D01*
X161023538Y-96008133D01*
X161094723Y-96114668D01*
X161094726Y-96114672D01*
X161185327Y-96205273D01*
X161185331Y-96205276D01*
X161291866Y-96276461D01*
X161291872Y-96276464D01*
X161291873Y-96276465D01*
X161410256Y-96325501D01*
X161441457Y-96331707D01*
X161465986Y-96336587D01*
X161527897Y-96368972D01*
X161562471Y-96429688D01*
X161563412Y-96434011D01*
X161574497Y-96489739D01*
X161574499Y-96489744D01*
X161623533Y-96608124D01*
X161623538Y-96608133D01*
X161694723Y-96714668D01*
X161694726Y-96714672D01*
X161785327Y-96805273D01*
X161785331Y-96805276D01*
X161891866Y-96876461D01*
X161891872Y-96876464D01*
X161891873Y-96876465D01*
X162010256Y-96925501D01*
X162010260Y-96925501D01*
X162010261Y-96925502D01*
X162135928Y-96950500D01*
X162135931Y-96950500D01*
X162264070Y-96950500D01*
X162347013Y-96934001D01*
X162416604Y-96940228D01*
X162471782Y-96983090D01*
X162495027Y-97048980D01*
X162494889Y-97064464D01*
X162484869Y-97204556D01*
X162482351Y-97222068D01*
X162440645Y-97413790D01*
X162435661Y-97430765D01*
X162367093Y-97614605D01*
X162359743Y-97630699D01*
X162265709Y-97802908D01*
X162256144Y-97817791D01*
X162138561Y-97974864D01*
X162126975Y-97988235D01*
X161988235Y-98126975D01*
X161974864Y-98138561D01*
X161817791Y-98256144D01*
X161802908Y-98265709D01*
X161630699Y-98359743D01*
X161614605Y-98367093D01*
X161430765Y-98435661D01*
X161413790Y-98440645D01*
X161222068Y-98482351D01*
X161204557Y-98484869D01*
X161023779Y-98497799D01*
X161004417Y-98499184D01*
X160995572Y-98499500D01*
X115004428Y-98499500D01*
X114995582Y-98499184D01*
X114973622Y-98497613D01*
X114795442Y-98484869D01*
X114777931Y-98482351D01*
X114586209Y-98440645D01*
X114569234Y-98435661D01*
X114385394Y-98367093D01*
X114369300Y-98359743D01*
X114197091Y-98265709D01*
X114182208Y-98256144D01*
X114025135Y-98138561D01*
X114011764Y-98126975D01*
X113873024Y-97988235D01*
X113861438Y-97974864D01*
X113743855Y-97817791D01*
X113734290Y-97802908D01*
X113640256Y-97630699D01*
X113632909Y-97614611D01*
X113564336Y-97430760D01*
X113559354Y-97413790D01*
X113517648Y-97222068D01*
X113515130Y-97204556D01*
X113500816Y-97004418D01*
X113500500Y-96995572D01*
X113500500Y-96464071D01*
X154049499Y-96464071D01*
X154074497Y-96589738D01*
X154074499Y-96589744D01*
X154123533Y-96708124D01*
X154123538Y-96708133D01*
X154194723Y-96814668D01*
X154194726Y-96814672D01*
X154285327Y-96905273D01*
X154285331Y-96905276D01*
X154391866Y-96976461D01*
X154391872Y-96976464D01*
X154391873Y-96976465D01*
X154510256Y-97025501D01*
X154510260Y-97025501D01*
X154510261Y-97025502D01*
X154635928Y-97050500D01*
X154635931Y-97050500D01*
X154764071Y-97050500D01*
X154848615Y-97033682D01*
X154889744Y-97025501D01*
X155008127Y-96976465D01*
X155114669Y-96905276D01*
X155205276Y-96814669D01*
X155276465Y-96708127D01*
X155325501Y-96589744D01*
X155350500Y-96464069D01*
X155350500Y-96335931D01*
X155350500Y-96335928D01*
X155325502Y-96210261D01*
X155325501Y-96210260D01*
X155325501Y-96210256D01*
X155276465Y-96091873D01*
X155276464Y-96091872D01*
X155276461Y-96091866D01*
X155205276Y-95985331D01*
X155205273Y-95985327D01*
X155114672Y-95894726D01*
X155114668Y-95894723D01*
X155008133Y-95823538D01*
X155008124Y-95823533D01*
X154889744Y-95774499D01*
X154889738Y-95774497D01*
X154764071Y-95749500D01*
X154764069Y-95749500D01*
X154635931Y-95749500D01*
X154635929Y-95749500D01*
X154510261Y-95774497D01*
X154510255Y-95774499D01*
X154391875Y-95823533D01*
X154391866Y-95823538D01*
X154285331Y-95894723D01*
X154285327Y-95894726D01*
X154194726Y-95985327D01*
X154194723Y-95985331D01*
X154123538Y-96091866D01*
X154123533Y-96091875D01*
X154074499Y-96210255D01*
X154074497Y-96210261D01*
X154049500Y-96335928D01*
X154049500Y-96335931D01*
X154049500Y-96464069D01*
X154049500Y-96464071D01*
X154049499Y-96464071D01*
X113500500Y-96464071D01*
X113500500Y-95864071D01*
X152149499Y-95864071D01*
X152174497Y-95989738D01*
X152174499Y-95989744D01*
X152223533Y-96108124D01*
X152223538Y-96108133D01*
X152294723Y-96214668D01*
X152294726Y-96214672D01*
X152385327Y-96305273D01*
X152385331Y-96305276D01*
X152491866Y-96376461D01*
X152491872Y-96376464D01*
X152491873Y-96376465D01*
X152610256Y-96425501D01*
X152610260Y-96425501D01*
X152610261Y-96425502D01*
X152735928Y-96450500D01*
X152735931Y-96450500D01*
X152864071Y-96450500D01*
X152968695Y-96429688D01*
X152989744Y-96425501D01*
X153108127Y-96376465D01*
X153214669Y-96305276D01*
X153243484Y-96276461D01*
X153277788Y-96242158D01*
X153305273Y-96214672D01*
X153305276Y-96214669D01*
X153376465Y-96108127D01*
X153425501Y-95989744D01*
X153444402Y-95894724D01*
X153450500Y-95864071D01*
X153450500Y-95735928D01*
X153425502Y-95610261D01*
X153425501Y-95610260D01*
X153425501Y-95610256D01*
X153376465Y-95491873D01*
X153376464Y-95491872D01*
X153376461Y-95491866D01*
X153305276Y-95385331D01*
X153305273Y-95385327D01*
X153214672Y-95294726D01*
X153214668Y-95294723D01*
X153108133Y-95223538D01*
X153108124Y-95223533D01*
X152989744Y-95174499D01*
X152989738Y-95174497D01*
X152864071Y-95149500D01*
X152864069Y-95149500D01*
X152735931Y-95149500D01*
X152735929Y-95149500D01*
X152610261Y-95174497D01*
X152610255Y-95174499D01*
X152491875Y-95223533D01*
X152491866Y-95223538D01*
X152385331Y-95294723D01*
X152385327Y-95294726D01*
X152294726Y-95385327D01*
X152294723Y-95385331D01*
X152223538Y-95491866D01*
X152223533Y-95491875D01*
X152174499Y-95610255D01*
X152174497Y-95610261D01*
X152149500Y-95735928D01*
X152149500Y-95735931D01*
X152149500Y-95864069D01*
X152149500Y-95864071D01*
X152149499Y-95864071D01*
X113500500Y-95864071D01*
X113500500Y-94264071D01*
X142949499Y-94264071D01*
X142974497Y-94389738D01*
X142974499Y-94389744D01*
X143023533Y-94508124D01*
X143023538Y-94508133D01*
X143094723Y-94614668D01*
X143094726Y-94614672D01*
X143185327Y-94705273D01*
X143185331Y-94705276D01*
X143291866Y-94776461D01*
X143291875Y-94776466D01*
X143310438Y-94784155D01*
X143410256Y-94825501D01*
X143410260Y-94825501D01*
X143410261Y-94825502D01*
X143535928Y-94850500D01*
X143535931Y-94850500D01*
X143664071Y-94850500D01*
X143751090Y-94833190D01*
X143789744Y-94825501D01*
X143908127Y-94776465D01*
X144014669Y-94705276D01*
X144105276Y-94614669D01*
X144176465Y-94508127D01*
X144225501Y-94389744D01*
X144248970Y-94271761D01*
X160249499Y-94271761D01*
X160274497Y-94397428D01*
X160274499Y-94397434D01*
X160323533Y-94515814D01*
X160323538Y-94515823D01*
X160394723Y-94622358D01*
X160394726Y-94622362D01*
X160485327Y-94712963D01*
X160485331Y-94712966D01*
X160591866Y-94784151D01*
X160591872Y-94784154D01*
X160591873Y-94784155D01*
X160710256Y-94833191D01*
X160710260Y-94833191D01*
X160710261Y-94833192D01*
X160835928Y-94858190D01*
X160835931Y-94858190D01*
X160964071Y-94858190D01*
X161048615Y-94841372D01*
X161089744Y-94833191D01*
X161208127Y-94784155D01*
X161314669Y-94712966D01*
X161405276Y-94622359D01*
X161476465Y-94515817D01*
X161525501Y-94397434D01*
X161550500Y-94271759D01*
X161550500Y-94143621D01*
X161550500Y-94143618D01*
X161525502Y-94017951D01*
X161525501Y-94017950D01*
X161525501Y-94017946D01*
X161476465Y-93899563D01*
X161476464Y-93899562D01*
X161476461Y-93899556D01*
X161405276Y-93793021D01*
X161405273Y-93793017D01*
X161314672Y-93702416D01*
X161314668Y-93702413D01*
X161208133Y-93631228D01*
X161208124Y-93631223D01*
X161089744Y-93582189D01*
X161089738Y-93582187D01*
X160964071Y-93557190D01*
X160964069Y-93557190D01*
X160835931Y-93557190D01*
X160835929Y-93557190D01*
X160710261Y-93582187D01*
X160710255Y-93582189D01*
X160591875Y-93631223D01*
X160591866Y-93631228D01*
X160485331Y-93702413D01*
X160485327Y-93702416D01*
X160394726Y-93793017D01*
X160394723Y-93793021D01*
X160323538Y-93899556D01*
X160323533Y-93899565D01*
X160274499Y-94017945D01*
X160274497Y-94017951D01*
X160249500Y-94143618D01*
X160249500Y-94143621D01*
X160249500Y-94271759D01*
X160249500Y-94271761D01*
X160249499Y-94271761D01*
X144248970Y-94271761D01*
X144250500Y-94264071D01*
X144250500Y-94135928D01*
X144225502Y-94010261D01*
X144225501Y-94010260D01*
X144225501Y-94010256D01*
X144179650Y-93899563D01*
X144176466Y-93891875D01*
X144176461Y-93891866D01*
X144105276Y-93785331D01*
X144105273Y-93785327D01*
X144014672Y-93694726D01*
X144014668Y-93694723D01*
X143908133Y-93623538D01*
X143908124Y-93623533D01*
X143789744Y-93574499D01*
X143789738Y-93574497D01*
X143664071Y-93549500D01*
X143664069Y-93549500D01*
X143535931Y-93549500D01*
X143535929Y-93549500D01*
X143410261Y-93574497D01*
X143410255Y-93574499D01*
X143291875Y-93623533D01*
X143291866Y-93623538D01*
X143185331Y-93694723D01*
X143185327Y-93694726D01*
X143094726Y-93785327D01*
X143094723Y-93785331D01*
X143023538Y-93891866D01*
X143023533Y-93891875D01*
X142974499Y-94010255D01*
X142974497Y-94010261D01*
X142949500Y-94135928D01*
X142949500Y-94135931D01*
X142949500Y-94264069D01*
X142949500Y-94264071D01*
X142949499Y-94264071D01*
X113500500Y-94264071D01*
X113500500Y-91964071D01*
X133949499Y-91964071D01*
X133974497Y-92089738D01*
X133974499Y-92089744D01*
X134023533Y-92208124D01*
X134023538Y-92208133D01*
X134094723Y-92314668D01*
X134094726Y-92314672D01*
X134185327Y-92405273D01*
X134185331Y-92405276D01*
X134291866Y-92476461D01*
X134291872Y-92476464D01*
X134291873Y-92476465D01*
X134410256Y-92525501D01*
X134474455Y-92538271D01*
X134507471Y-92544839D01*
X134569382Y-92577224D01*
X134570961Y-92578775D01*
X134592686Y-92600500D01*
X134691521Y-92657563D01*
X134703829Y-92664669D01*
X134706814Y-92666392D01*
X134834107Y-92700500D01*
X134834108Y-92700500D01*
X134840568Y-92700500D01*
X134907607Y-92720185D01*
X134909459Y-92721398D01*
X134991866Y-92776461D01*
X134991872Y-92776464D01*
X134991873Y-92776465D01*
X135110256Y-92825501D01*
X135110260Y-92825501D01*
X135110261Y-92825502D01*
X135235928Y-92850500D01*
X135235931Y-92850500D01*
X135364071Y-92850500D01*
X135448615Y-92833682D01*
X135489744Y-92825501D01*
X135608127Y-92776465D01*
X135714669Y-92705276D01*
X135805276Y-92614669D01*
X135876465Y-92508127D01*
X135925501Y-92389744D01*
X135940554Y-92314071D01*
X146849499Y-92314071D01*
X146874497Y-92439738D01*
X146874499Y-92439744D01*
X146923533Y-92558124D01*
X146923538Y-92558133D01*
X146994723Y-92664668D01*
X146994726Y-92664672D01*
X147085327Y-92755273D01*
X147085331Y-92755276D01*
X147191866Y-92826461D01*
X147191872Y-92826464D01*
X147191873Y-92826465D01*
X147310256Y-92875501D01*
X147310260Y-92875501D01*
X147310261Y-92875502D01*
X147435928Y-92900500D01*
X147435931Y-92900500D01*
X147564071Y-92900500D01*
X147648615Y-92883682D01*
X147689744Y-92875501D01*
X147808127Y-92826465D01*
X147815712Y-92821396D01*
X147882389Y-92800520D01*
X147884601Y-92800500D01*
X147915399Y-92800500D01*
X147982438Y-92820185D01*
X147984252Y-92821373D01*
X147991873Y-92826465D01*
X148110256Y-92875501D01*
X148110260Y-92875501D01*
X148110261Y-92875502D01*
X148235928Y-92900500D01*
X148235931Y-92900500D01*
X148364071Y-92900500D01*
X148448615Y-92883682D01*
X148489744Y-92875501D01*
X148608127Y-92826465D01*
X148714669Y-92755276D01*
X148805276Y-92664669D01*
X148876465Y-92558127D01*
X148925501Y-92439744D01*
X148950500Y-92314069D01*
X148950500Y-92185931D01*
X148950500Y-92185928D01*
X148925502Y-92060261D01*
X148925501Y-92060260D01*
X148925501Y-92060256D01*
X148885659Y-91964069D01*
X148876466Y-91941875D01*
X148876461Y-91941866D01*
X148805276Y-91835331D01*
X148805273Y-91835327D01*
X148714672Y-91744726D01*
X148714668Y-91744723D01*
X148608133Y-91673538D01*
X148608124Y-91673533D01*
X148585280Y-91664071D01*
X150949499Y-91664071D01*
X150974497Y-91789738D01*
X150974499Y-91789744D01*
X151023533Y-91908124D01*
X151023538Y-91908133D01*
X151094723Y-92014668D01*
X151094726Y-92014672D01*
X151185327Y-92105273D01*
X151185331Y-92105276D01*
X151291866Y-92176461D01*
X151291872Y-92176464D01*
X151291873Y-92176465D01*
X151410256Y-92225501D01*
X151410260Y-92225501D01*
X151410261Y-92225502D01*
X151535928Y-92250500D01*
X151535931Y-92250500D01*
X151664071Y-92250500D01*
X151748615Y-92233682D01*
X151789744Y-92225501D01*
X151908127Y-92176465D01*
X152014669Y-92105276D01*
X152105276Y-92014669D01*
X152176465Y-91908127D01*
X152225501Y-91789744D01*
X152239968Y-91717014D01*
X152250500Y-91664071D01*
X152250500Y-91535928D01*
X152225502Y-91410261D01*
X152225501Y-91410260D01*
X152225501Y-91410256D01*
X152176465Y-91291873D01*
X152176464Y-91291872D01*
X152176461Y-91291866D01*
X152105276Y-91185331D01*
X152105273Y-91185327D01*
X152075529Y-91155583D01*
X159884016Y-91155583D01*
X159909014Y-91281250D01*
X159909016Y-91281256D01*
X159958050Y-91399636D01*
X159958055Y-91399645D01*
X160029240Y-91506180D01*
X160029243Y-91506184D01*
X160119844Y-91596785D01*
X160119848Y-91596788D01*
X160226383Y-91667973D01*
X160226389Y-91667976D01*
X160226390Y-91667977D01*
X160344773Y-91717013D01*
X160344777Y-91717013D01*
X160344778Y-91717014D01*
X160470445Y-91742012D01*
X160470448Y-91742012D01*
X160598588Y-91742012D01*
X160683132Y-91725194D01*
X160724261Y-91717013D01*
X160842644Y-91667977D01*
X160949186Y-91596788D01*
X161039793Y-91506181D01*
X161110982Y-91399639D01*
X161160018Y-91281256D01*
X161185017Y-91155581D01*
X161185017Y-91027443D01*
X161185017Y-91027440D01*
X161160019Y-90901773D01*
X161160018Y-90901772D01*
X161160018Y-90901768D01*
X161110982Y-90783385D01*
X161110981Y-90783384D01*
X161110978Y-90783378D01*
X161039793Y-90676843D01*
X161039790Y-90676839D01*
X160949189Y-90586238D01*
X160949185Y-90586235D01*
X160842650Y-90515050D01*
X160842641Y-90515045D01*
X160724261Y-90466011D01*
X160724255Y-90466009D01*
X160598588Y-90441012D01*
X160598586Y-90441012D01*
X160470448Y-90441012D01*
X160470446Y-90441012D01*
X160344778Y-90466009D01*
X160344772Y-90466011D01*
X160226392Y-90515045D01*
X160226383Y-90515050D01*
X160119848Y-90586235D01*
X160119844Y-90586238D01*
X160029243Y-90676839D01*
X160029240Y-90676843D01*
X159958055Y-90783378D01*
X159958050Y-90783387D01*
X159909016Y-90901767D01*
X159909014Y-90901773D01*
X159884017Y-91027440D01*
X159884017Y-91027443D01*
X159884017Y-91155581D01*
X159884017Y-91155583D01*
X159884016Y-91155583D01*
X152075529Y-91155583D01*
X152014672Y-91094726D01*
X152014668Y-91094723D01*
X151908133Y-91023538D01*
X151908124Y-91023533D01*
X151789744Y-90974499D01*
X151789738Y-90974497D01*
X151664071Y-90949500D01*
X151664069Y-90949500D01*
X151535931Y-90949500D01*
X151535929Y-90949500D01*
X151410261Y-90974497D01*
X151410255Y-90974499D01*
X151291875Y-91023533D01*
X151291866Y-91023538D01*
X151185331Y-91094723D01*
X151185327Y-91094726D01*
X151094726Y-91185327D01*
X151094723Y-91185331D01*
X151023538Y-91291866D01*
X151023533Y-91291875D01*
X150974499Y-91410255D01*
X150974497Y-91410261D01*
X150949500Y-91535928D01*
X150949500Y-91535931D01*
X150949500Y-91664069D01*
X150949500Y-91664071D01*
X150949499Y-91664071D01*
X148585280Y-91664071D01*
X148537789Y-91644400D01*
X148489744Y-91624499D01*
X148489738Y-91624497D01*
X148364071Y-91599500D01*
X148364069Y-91599500D01*
X148235931Y-91599500D01*
X148235929Y-91599500D01*
X148110261Y-91624497D01*
X148110255Y-91624499D01*
X147991876Y-91673533D01*
X147991873Y-91673534D01*
X147991873Y-91673535D01*
X147984287Y-91678603D01*
X147917611Y-91699480D01*
X147915399Y-91699500D01*
X147884601Y-91699500D01*
X147817562Y-91679815D01*
X147815747Y-91678626D01*
X147808127Y-91673535D01*
X147808124Y-91673533D01*
X147808123Y-91673533D01*
X147689744Y-91624499D01*
X147689738Y-91624497D01*
X147564071Y-91599500D01*
X147564069Y-91599500D01*
X147435931Y-91599500D01*
X147435929Y-91599500D01*
X147310261Y-91624497D01*
X147310255Y-91624499D01*
X147191875Y-91673533D01*
X147191866Y-91673538D01*
X147085331Y-91744723D01*
X147085327Y-91744726D01*
X146994726Y-91835327D01*
X146994723Y-91835331D01*
X146923538Y-91941866D01*
X146923533Y-91941875D01*
X146874499Y-92060255D01*
X146874497Y-92060261D01*
X146849500Y-92185928D01*
X146849500Y-92185931D01*
X146849500Y-92314069D01*
X146849500Y-92314071D01*
X146849499Y-92314071D01*
X135940554Y-92314071D01*
X135950500Y-92264069D01*
X135950500Y-92135931D01*
X135950500Y-92135928D01*
X135925502Y-92010261D01*
X135925501Y-92010260D01*
X135925501Y-92010256D01*
X135876465Y-91891873D01*
X135876464Y-91891872D01*
X135876461Y-91891866D01*
X135805276Y-91785331D01*
X135805273Y-91785327D01*
X135714672Y-91694726D01*
X135714668Y-91694723D01*
X135608133Y-91623538D01*
X135608124Y-91623533D01*
X135489744Y-91574499D01*
X135489738Y-91574497D01*
X135364071Y-91549500D01*
X135364069Y-91549500D01*
X135235931Y-91549500D01*
X135235928Y-91549500D01*
X135229866Y-91550097D01*
X135229644Y-91547849D01*
X135170110Y-91542516D01*
X135114936Y-91499647D01*
X135112418Y-91496020D01*
X135105274Y-91485328D01*
X135014672Y-91394726D01*
X135014668Y-91394723D01*
X134968794Y-91364071D01*
X143399499Y-91364071D01*
X143424497Y-91489738D01*
X143424499Y-91489744D01*
X143473533Y-91608124D01*
X143473538Y-91608133D01*
X143544723Y-91714668D01*
X143544726Y-91714672D01*
X143635327Y-91805273D01*
X143635331Y-91805276D01*
X143741866Y-91876461D01*
X143741872Y-91876464D01*
X143741873Y-91876465D01*
X143860256Y-91925501D01*
X143860260Y-91925501D01*
X143860261Y-91925502D01*
X143985928Y-91950500D01*
X143985931Y-91950500D01*
X144114071Y-91950500D01*
X144198615Y-91933682D01*
X144239744Y-91925501D01*
X144358127Y-91876465D01*
X144464669Y-91805276D01*
X144555276Y-91714669D01*
X144626465Y-91608127D01*
X144675501Y-91489744D01*
X144691313Y-91410255D01*
X144700500Y-91364071D01*
X144700500Y-91235928D01*
X144675502Y-91110261D01*
X144675501Y-91110260D01*
X144675501Y-91110256D01*
X144631143Y-91003168D01*
X144623675Y-90933701D01*
X144654950Y-90871221D01*
X144715039Y-90835569D01*
X144721478Y-90834107D01*
X144764744Y-90825501D01*
X144883127Y-90776465D01*
X144989669Y-90705276D01*
X145080276Y-90614669D01*
X145151465Y-90508127D01*
X145200501Y-90389744D01*
X145208682Y-90348615D01*
X145225500Y-90264071D01*
X145225500Y-90164073D01*
X152149499Y-90164073D01*
X152174497Y-90289740D01*
X152174499Y-90289746D01*
X152223533Y-90408126D01*
X152223538Y-90408135D01*
X152294723Y-90514670D01*
X152294726Y-90514674D01*
X152385327Y-90605275D01*
X152385331Y-90605278D01*
X152491866Y-90676463D01*
X152491875Y-90676468D01*
X152518692Y-90687576D01*
X152610256Y-90725503D01*
X152610260Y-90725503D01*
X152610261Y-90725504D01*
X152735928Y-90750502D01*
X152735931Y-90750502D01*
X152864071Y-90750502D01*
X152948615Y-90733684D01*
X152989744Y-90725503D01*
X153108127Y-90676467D01*
X153214669Y-90605278D01*
X153305276Y-90514671D01*
X153376465Y-90408129D01*
X153425501Y-90289746D01*
X153450500Y-90164071D01*
X153450500Y-90035933D01*
X153450500Y-90035930D01*
X153425502Y-89910263D01*
X153425501Y-89910262D01*
X153425501Y-89910258D01*
X153376465Y-89791875D01*
X153376464Y-89791874D01*
X153376461Y-89791868D01*
X153305276Y-89685333D01*
X153305273Y-89685329D01*
X153214672Y-89594728D01*
X153214668Y-89594725D01*
X153108133Y-89523540D01*
X153108124Y-89523535D01*
X152989744Y-89474501D01*
X152989738Y-89474499D01*
X152864071Y-89449502D01*
X152864069Y-89449502D01*
X152735931Y-89449502D01*
X152735929Y-89449502D01*
X152610261Y-89474499D01*
X152610255Y-89474501D01*
X152491875Y-89523535D01*
X152491866Y-89523540D01*
X152385331Y-89594725D01*
X152385327Y-89594728D01*
X152294726Y-89685329D01*
X152294723Y-89685333D01*
X152223538Y-89791868D01*
X152223533Y-89791877D01*
X152174499Y-89910257D01*
X152174497Y-89910263D01*
X152149500Y-90035930D01*
X152149500Y-90035933D01*
X152149500Y-90164071D01*
X152149500Y-90164073D01*
X152149499Y-90164073D01*
X145225500Y-90164073D01*
X145225500Y-90135928D01*
X145209209Y-90054033D01*
X145209209Y-90054032D01*
X145200502Y-90010263D01*
X145200502Y-90010261D01*
X145200501Y-90010256D01*
X145152314Y-89893922D01*
X145151466Y-89891875D01*
X145151461Y-89891866D01*
X145080276Y-89785331D01*
X145080273Y-89785327D01*
X144989672Y-89694726D01*
X144989668Y-89694723D01*
X144883133Y-89623538D01*
X144883124Y-89623533D01*
X144764744Y-89574499D01*
X144764738Y-89574497D01*
X144639071Y-89549500D01*
X144639069Y-89549500D01*
X144510931Y-89549500D01*
X144510929Y-89549500D01*
X144385261Y-89574497D01*
X144385255Y-89574499D01*
X144266875Y-89623533D01*
X144266866Y-89623538D01*
X144160331Y-89694723D01*
X144160327Y-89694726D01*
X144069726Y-89785327D01*
X144069723Y-89785331D01*
X143998538Y-89891866D01*
X143998533Y-89891875D01*
X143949499Y-90010255D01*
X143949497Y-90010261D01*
X143924500Y-90135928D01*
X143924500Y-90135931D01*
X143924500Y-90264069D01*
X143924500Y-90264071D01*
X143924499Y-90264071D01*
X143949497Y-90389738D01*
X143949499Y-90389744D01*
X143993855Y-90496829D01*
X144001324Y-90566299D01*
X143970049Y-90628778D01*
X143909960Y-90664430D01*
X143903487Y-90665899D01*
X143860260Y-90674497D01*
X143860255Y-90674499D01*
X143741875Y-90723533D01*
X143741866Y-90723538D01*
X143635331Y-90794723D01*
X143635327Y-90794726D01*
X143544726Y-90885327D01*
X143544723Y-90885331D01*
X143473538Y-90991866D01*
X143473533Y-90991875D01*
X143424499Y-91110255D01*
X143424497Y-91110261D01*
X143399500Y-91235928D01*
X143399500Y-91235931D01*
X143399500Y-91364069D01*
X143399500Y-91364071D01*
X143399499Y-91364071D01*
X134968794Y-91364071D01*
X134922205Y-91332941D01*
X134908133Y-91323538D01*
X134908124Y-91323533D01*
X134789744Y-91274499D01*
X134789738Y-91274497D01*
X134664071Y-91249500D01*
X134664069Y-91249500D01*
X134535931Y-91249500D01*
X134535929Y-91249500D01*
X134410261Y-91274497D01*
X134410255Y-91274499D01*
X134291875Y-91323533D01*
X134291866Y-91323538D01*
X134185331Y-91394723D01*
X134185327Y-91394726D01*
X134094726Y-91485327D01*
X134094723Y-91485331D01*
X134023538Y-91591866D01*
X134023533Y-91591875D01*
X133974499Y-91710255D01*
X133974497Y-91710261D01*
X133949500Y-91835928D01*
X133949500Y-91835931D01*
X133949500Y-91964069D01*
X133949500Y-91964071D01*
X133949499Y-91964071D01*
X113500500Y-91964071D01*
X113500500Y-88087178D01*
X160899499Y-88087178D01*
X160924497Y-88212845D01*
X160924499Y-88212851D01*
X160973533Y-88331231D01*
X160973538Y-88331240D01*
X161044723Y-88437775D01*
X161044726Y-88437779D01*
X161135327Y-88528380D01*
X161135331Y-88528383D01*
X161241866Y-88599568D01*
X161241872Y-88599571D01*
X161241873Y-88599572D01*
X161360256Y-88648608D01*
X161360260Y-88648608D01*
X161360261Y-88648609D01*
X161485928Y-88673607D01*
X161485931Y-88673607D01*
X161614071Y-88673607D01*
X161698615Y-88656789D01*
X161739744Y-88648608D01*
X161858127Y-88599572D01*
X161964669Y-88528383D01*
X162055276Y-88437776D01*
X162126465Y-88331234D01*
X162175501Y-88212851D01*
X162200500Y-88087176D01*
X162200500Y-87959038D01*
X162200500Y-87959035D01*
X162175502Y-87833368D01*
X162175501Y-87833367D01*
X162175501Y-87833363D01*
X162126465Y-87714980D01*
X162126464Y-87714979D01*
X162126461Y-87714973D01*
X162055276Y-87608438D01*
X162055273Y-87608434D01*
X161964672Y-87517833D01*
X161964668Y-87517830D01*
X161858133Y-87446645D01*
X161858124Y-87446640D01*
X161739744Y-87397606D01*
X161739738Y-87397604D01*
X161614071Y-87372607D01*
X161614069Y-87372607D01*
X161485931Y-87372607D01*
X161485929Y-87372607D01*
X161360261Y-87397604D01*
X161360255Y-87397606D01*
X161241875Y-87446640D01*
X161241866Y-87446645D01*
X161135331Y-87517830D01*
X161135327Y-87517833D01*
X161044726Y-87608434D01*
X161044723Y-87608438D01*
X160973538Y-87714973D01*
X160973533Y-87714982D01*
X160924499Y-87833362D01*
X160924497Y-87833368D01*
X160899500Y-87959035D01*
X160899500Y-87959038D01*
X160899500Y-88087176D01*
X160899500Y-88087178D01*
X160899499Y-88087178D01*
X113500500Y-88087178D01*
X113500500Y-80899316D01*
X135784558Y-80899316D01*
X135784558Y-81031099D01*
X135818666Y-81158395D01*
X135827630Y-81173920D01*
X135884558Y-81272522D01*
X135977744Y-81365708D01*
X136091872Y-81431600D01*
X136219166Y-81465708D01*
X136219170Y-81465708D01*
X136226593Y-81467697D01*
X136286253Y-81504061D01*
X136316783Y-81566908D01*
X136318500Y-81587472D01*
X136318500Y-81692470D01*
X136325713Y-81719390D01*
X136352608Y-81819765D01*
X136370353Y-81850500D01*
X136418500Y-81933892D01*
X136511686Y-82027078D01*
X136625814Y-82092970D01*
X136753108Y-82127078D01*
X136753110Y-82127078D01*
X136884890Y-82127078D01*
X136884892Y-82127078D01*
X136990271Y-82098842D01*
X137060118Y-82100505D01*
X137117981Y-82139667D01*
X137145485Y-82203896D01*
X137142137Y-82250708D01*
X137134200Y-82280328D01*
X137134200Y-82280333D01*
X137134200Y-82412117D01*
X137145150Y-82452983D01*
X137168308Y-82539412D01*
X137188232Y-82573920D01*
X137234200Y-82653539D01*
X137327386Y-82746725D01*
X137441514Y-82812617D01*
X137568808Y-82846725D01*
X137568810Y-82846725D01*
X137700590Y-82846725D01*
X137700592Y-82846725D01*
X137827886Y-82812617D01*
X137938503Y-82748751D01*
X138006399Y-82732280D01*
X138072426Y-82755132D01*
X138115617Y-82810053D01*
X138124500Y-82856140D01*
X138124500Y-82866531D01*
X138124500Y-82866533D01*
X138124499Y-82866533D01*
X138150458Y-82997030D01*
X138150461Y-82997040D01*
X138201376Y-83119961D01*
X138201386Y-83119979D01*
X138275301Y-83230601D01*
X138275307Y-83230609D01*
X138369391Y-83324693D01*
X138369394Y-83324695D01*
X138453452Y-83380860D01*
X138498256Y-83434471D01*
X138506964Y-83503796D01*
X138504337Y-83516051D01*
X138499500Y-83534102D01*
X138499500Y-83665891D01*
X138533608Y-83793187D01*
X138566554Y-83850250D01*
X138599500Y-83907314D01*
X138692686Y-84000500D01*
X138806814Y-84066392D01*
X138934108Y-84100500D01*
X138934110Y-84100500D01*
X139065889Y-84100500D01*
X139065892Y-84100500D01*
X139143410Y-84079729D01*
X139213256Y-84081392D01*
X139271118Y-84120554D01*
X139298623Y-84184782D01*
X139299500Y-84199504D01*
X139299500Y-84265891D01*
X139333608Y-84393187D01*
X139337508Y-84399941D01*
X139399500Y-84507314D01*
X139492686Y-84600500D01*
X139606814Y-84666392D01*
X139734108Y-84700500D01*
X139734109Y-84700500D01*
X139741958Y-84702603D01*
X139741449Y-84704502D01*
X139795568Y-84728434D01*
X139834048Y-84786753D01*
X139839500Y-84823119D01*
X139839500Y-84866330D01*
X139873608Y-84993626D01*
X139892883Y-85027011D01*
X139939500Y-85107753D01*
X140032686Y-85200939D01*
X140146814Y-85266831D01*
X140274108Y-85300939D01*
X140274110Y-85300939D01*
X140300378Y-85300939D01*
X140367417Y-85320624D01*
X140413172Y-85373428D01*
X140423116Y-85442586D01*
X140420156Y-85457016D01*
X140399500Y-85534108D01*
X140399500Y-85534110D01*
X140399500Y-85665891D01*
X140433608Y-85793187D01*
X140466554Y-85850250D01*
X140499500Y-85907314D01*
X140592686Y-86000500D01*
X140706814Y-86066392D01*
X140834108Y-86100500D01*
X140834110Y-86100500D01*
X140965890Y-86100500D01*
X140965892Y-86100500D01*
X141093186Y-86066392D01*
X141207314Y-86000500D01*
X141300500Y-85907314D01*
X141366392Y-85793186D01*
X141400500Y-85665892D01*
X141400500Y-85534108D01*
X141366392Y-85406814D01*
X141300500Y-85292686D01*
X141207314Y-85199500D01*
X141150250Y-85166554D01*
X141093187Y-85133608D01*
X140996700Y-85107755D01*
X140965892Y-85099500D01*
X140939622Y-85099500D01*
X140872583Y-85079815D01*
X140826828Y-85027011D01*
X140816884Y-84957853D01*
X140819843Y-84943422D01*
X140840500Y-84866331D01*
X140840500Y-84734547D01*
X140806392Y-84607253D01*
X140740500Y-84493125D01*
X140647314Y-84399939D01*
X140590250Y-84366993D01*
X140533187Y-84334047D01*
X140477399Y-84319099D01*
X140405892Y-84299939D01*
X140405891Y-84299939D01*
X140398042Y-84297836D01*
X140398550Y-84295939D01*
X140344416Y-84271990D01*
X140305946Y-84213664D01*
X140300500Y-84177319D01*
X140300500Y-84134110D01*
X140300500Y-84134108D01*
X140266392Y-84006814D01*
X140200500Y-83892686D01*
X140107314Y-83799500D01*
X140050250Y-83766554D01*
X139993187Y-83733608D01*
X139929539Y-83716554D01*
X139865892Y-83699500D01*
X139734108Y-83699500D01*
X139656593Y-83720270D01*
X139586743Y-83718607D01*
X139528881Y-83679444D01*
X139501377Y-83615216D01*
X139500500Y-83600495D01*
X139500500Y-83534110D01*
X139500500Y-83534108D01*
X139466392Y-83406814D01*
X139400500Y-83292686D01*
X139400495Y-83292681D01*
X139395553Y-83286240D01*
X139397086Y-83285063D01*
X139368665Y-83233013D01*
X139373649Y-83163321D01*
X139386732Y-83137760D01*
X139398616Y-83119975D01*
X139398616Y-83119974D01*
X139398620Y-83119969D01*
X139400861Y-83114560D01*
X139449538Y-82997040D01*
X139449540Y-82997036D01*
X139475500Y-82866531D01*
X139475500Y-82733469D01*
X139475500Y-82733466D01*
X139449541Y-82602969D01*
X139449540Y-82602968D01*
X139449540Y-82602964D01*
X139437509Y-82573920D01*
X145849499Y-82573920D01*
X145878340Y-82718907D01*
X145878343Y-82718917D01*
X145934912Y-82855488D01*
X145934919Y-82855501D01*
X146017048Y-82978415D01*
X146017051Y-82978419D01*
X146121580Y-83082948D01*
X146121584Y-83082951D01*
X146244498Y-83165080D01*
X146244511Y-83165087D01*
X146381082Y-83221656D01*
X146381087Y-83221658D01*
X146381091Y-83221658D01*
X146381092Y-83221659D01*
X146526079Y-83250500D01*
X146526082Y-83250500D01*
X146673920Y-83250500D01*
X146815293Y-83222378D01*
X146818913Y-83221658D01*
X146955495Y-83165084D01*
X147031111Y-83114559D01*
X147097786Y-83093682D01*
X147165166Y-83112166D01*
X147168848Y-83114531D01*
X147244505Y-83165084D01*
X147244507Y-83165085D01*
X147244511Y-83165087D01*
X147381082Y-83221656D01*
X147381087Y-83221658D01*
X147381091Y-83221658D01*
X147381092Y-83221659D01*
X147526079Y-83250500D01*
X147526082Y-83250500D01*
X147673920Y-83250500D01*
X147815293Y-83222378D01*
X147818913Y-83221658D01*
X147955495Y-83165084D01*
X148078416Y-83082951D01*
X148182951Y-82978416D01*
X148265084Y-82855495D01*
X148321658Y-82718913D01*
X148334662Y-82653538D01*
X148350500Y-82573920D01*
X148350500Y-82426079D01*
X148321659Y-82281092D01*
X148321658Y-82281091D01*
X148321658Y-82281087D01*
X148268619Y-82153039D01*
X148265087Y-82144511D01*
X148265080Y-82144498D01*
X148182951Y-82021584D01*
X148182948Y-82021580D01*
X148078419Y-81917051D01*
X148078415Y-81917048D01*
X147955501Y-81834919D01*
X147955488Y-81834912D01*
X147818917Y-81778343D01*
X147818907Y-81778340D01*
X147673920Y-81749500D01*
X147673918Y-81749500D01*
X147526082Y-81749500D01*
X147526080Y-81749500D01*
X147381092Y-81778340D01*
X147381082Y-81778343D01*
X147244511Y-81834912D01*
X147244498Y-81834919D01*
X147168891Y-81885439D01*
X147102213Y-81906317D01*
X147034833Y-81887832D01*
X147031109Y-81885439D01*
X146955501Y-81834919D01*
X146955488Y-81834912D01*
X146818917Y-81778343D01*
X146818907Y-81778340D01*
X146673920Y-81749500D01*
X146673918Y-81749500D01*
X146526082Y-81749500D01*
X146526080Y-81749500D01*
X146381092Y-81778340D01*
X146381082Y-81778343D01*
X146244511Y-81834912D01*
X146244498Y-81834919D01*
X146121584Y-81917048D01*
X146121580Y-81917051D01*
X146017051Y-82021580D01*
X146017048Y-82021584D01*
X145934919Y-82144498D01*
X145934912Y-82144511D01*
X145878343Y-82281082D01*
X145878340Y-82281092D01*
X145849500Y-82426079D01*
X145849500Y-82426082D01*
X145849500Y-82573918D01*
X145849500Y-82573920D01*
X145849499Y-82573920D01*
X139437509Y-82573920D01*
X139416190Y-82522451D01*
X139412910Y-82491938D01*
X139407463Y-82461745D01*
X139409011Y-82455677D01*
X139408722Y-82452983D01*
X139416189Y-82427551D01*
X139449540Y-82347036D01*
X139475500Y-82216531D01*
X139475500Y-82083469D01*
X139475500Y-82083466D01*
X139449541Y-81952969D01*
X139449540Y-81952968D01*
X139449540Y-81952964D01*
X139437454Y-81923786D01*
X139398623Y-81830038D01*
X139398622Y-81830037D01*
X139398620Y-81830031D01*
X139393025Y-81821658D01*
X139324698Y-81719398D01*
X139324692Y-81719390D01*
X139230609Y-81625307D01*
X139230601Y-81625301D01*
X139119979Y-81551386D01*
X139119972Y-81551382D01*
X139119969Y-81551380D01*
X139119965Y-81551378D01*
X139119961Y-81551376D01*
X138997040Y-81500461D01*
X138997030Y-81500458D01*
X138866533Y-81474500D01*
X138866531Y-81474500D01*
X138733469Y-81474500D01*
X138733467Y-81474500D01*
X138602969Y-81500458D01*
X138602959Y-81500461D01*
X138480038Y-81551376D01*
X138480020Y-81551386D01*
X138369398Y-81625301D01*
X138369390Y-81625307D01*
X138275307Y-81719390D01*
X138275301Y-81719398D01*
X138201386Y-81830020D01*
X138201378Y-81830035D01*
X138162545Y-81923786D01*
X138118703Y-81978190D01*
X138052409Y-82000254D01*
X137984710Y-81982974D01*
X137960303Y-81964014D01*
X137942016Y-81945727D01*
X137942014Y-81945725D01*
X137841741Y-81887832D01*
X137827887Y-81879833D01*
X137764239Y-81862779D01*
X137700592Y-81845725D01*
X137568808Y-81845725D01*
X137568806Y-81845725D01*
X137463429Y-81873960D01*
X137393579Y-81872297D01*
X137335717Y-81833134D01*
X137308214Y-81768905D01*
X137311563Y-81722090D01*
X137319500Y-81692470D01*
X137319500Y-81560686D01*
X137285392Y-81433392D01*
X137284357Y-81431600D01*
X137276563Y-81418099D01*
X137219500Y-81319264D01*
X137126314Y-81226078D01*
X137012186Y-81160186D01*
X136884892Y-81126078D01*
X136884891Y-81126078D01*
X136877464Y-81124088D01*
X136817804Y-81087723D01*
X136787275Y-81024876D01*
X136785558Y-81004313D01*
X136785558Y-80899318D01*
X136785558Y-80899316D01*
X136751450Y-80772022D01*
X136685558Y-80657894D01*
X136592372Y-80564708D01*
X136534177Y-80531109D01*
X136478245Y-80498816D01*
X136414597Y-80481762D01*
X136350950Y-80464708D01*
X136219166Y-80464708D01*
X136091870Y-80498816D01*
X135977744Y-80564708D01*
X135977741Y-80564710D01*
X135884560Y-80657891D01*
X135884558Y-80657894D01*
X135818666Y-80772020D01*
X135784558Y-80899316D01*
X113500500Y-80899316D01*
X113500500Y-80264071D01*
X142149499Y-80264071D01*
X142174497Y-80389738D01*
X142174499Y-80389744D01*
X142223533Y-80508124D01*
X142223538Y-80508133D01*
X142294723Y-80614668D01*
X142294726Y-80614672D01*
X142385327Y-80705273D01*
X142385331Y-80705276D01*
X142491866Y-80776461D01*
X142491872Y-80776464D01*
X142491873Y-80776465D01*
X142610256Y-80825501D01*
X142610260Y-80825501D01*
X142610261Y-80825502D01*
X142735928Y-80850500D01*
X142735931Y-80850500D01*
X142864071Y-80850500D01*
X142948615Y-80833682D01*
X142989744Y-80825501D01*
X143108127Y-80776465D01*
X143214669Y-80705276D01*
X143305276Y-80614669D01*
X143376465Y-80508127D01*
X143425501Y-80389744D01*
X143430608Y-80364071D01*
X146049499Y-80364071D01*
X146074497Y-80489738D01*
X146074499Y-80489744D01*
X146123533Y-80608124D01*
X146123538Y-80608133D01*
X146194723Y-80714668D01*
X146194726Y-80714672D01*
X146285327Y-80805273D01*
X146285331Y-80805276D01*
X146391866Y-80876461D01*
X146391875Y-80876466D01*
X146418692Y-80887574D01*
X146510256Y-80925501D01*
X146510260Y-80925501D01*
X146510261Y-80925502D01*
X146635928Y-80950500D01*
X146635931Y-80950500D01*
X146764071Y-80950500D01*
X146848615Y-80933682D01*
X146889744Y-80925501D01*
X147008127Y-80876465D01*
X147114669Y-80805276D01*
X147205276Y-80714669D01*
X147276465Y-80608127D01*
X147325501Y-80489744D01*
X147350500Y-80364069D01*
X147350500Y-80235931D01*
X147350500Y-80235928D01*
X147325502Y-80110261D01*
X147325501Y-80110260D01*
X147325501Y-80110256D01*
X147284079Y-80010255D01*
X147276466Y-79991875D01*
X147276461Y-79991866D01*
X147205276Y-79885331D01*
X147205273Y-79885327D01*
X147114672Y-79794726D01*
X147114668Y-79794723D01*
X147008133Y-79723538D01*
X147008124Y-79723533D01*
X146889744Y-79674499D01*
X146889738Y-79674497D01*
X146764071Y-79649500D01*
X146764069Y-79649500D01*
X146635931Y-79649500D01*
X146635929Y-79649500D01*
X146510261Y-79674497D01*
X146510255Y-79674499D01*
X146391875Y-79723533D01*
X146391866Y-79723538D01*
X146285331Y-79794723D01*
X146285327Y-79794726D01*
X146194726Y-79885327D01*
X146194723Y-79885331D01*
X146123538Y-79991866D01*
X146123533Y-79991875D01*
X146074499Y-80110255D01*
X146074497Y-80110261D01*
X146049500Y-80235928D01*
X146049500Y-80235931D01*
X146049500Y-80364069D01*
X146049500Y-80364071D01*
X146049499Y-80364071D01*
X143430608Y-80364071D01*
X143450500Y-80264069D01*
X143450500Y-80135931D01*
X143450500Y-80135928D01*
X143425502Y-80010261D01*
X143425501Y-80010260D01*
X143425501Y-80010256D01*
X143387574Y-79918692D01*
X143376466Y-79891875D01*
X143376461Y-79891866D01*
X143305276Y-79785331D01*
X143305273Y-79785327D01*
X143214672Y-79694726D01*
X143214668Y-79694723D01*
X143108133Y-79623538D01*
X143108124Y-79623533D01*
X142989744Y-79574499D01*
X142989738Y-79574497D01*
X142864071Y-79549500D01*
X142864069Y-79549500D01*
X142735931Y-79549500D01*
X142735929Y-79549500D01*
X142610261Y-79574497D01*
X142610255Y-79574499D01*
X142491875Y-79623533D01*
X142491866Y-79623538D01*
X142385331Y-79694723D01*
X142385327Y-79694726D01*
X142294726Y-79785327D01*
X142294723Y-79785331D01*
X142223538Y-79891866D01*
X142223533Y-79891875D01*
X142174499Y-80010255D01*
X142174497Y-80010261D01*
X142149500Y-80135928D01*
X142149500Y-80135931D01*
X142149500Y-80264069D01*
X142149500Y-80264071D01*
X142149499Y-80264071D01*
X113500500Y-80264071D01*
X113500500Y-79434108D01*
X115299500Y-79434108D01*
X115299500Y-79565892D01*
X115314945Y-79623533D01*
X115333608Y-79693187D01*
X115334497Y-79694726D01*
X115399500Y-79807314D01*
X115492686Y-79900500D01*
X115606814Y-79966392D01*
X115734108Y-80000500D01*
X115734110Y-80000500D01*
X115865890Y-80000500D01*
X115865892Y-80000500D01*
X115993186Y-79966392D01*
X116107314Y-79900500D01*
X116200500Y-79807314D01*
X116266392Y-79693186D01*
X116281340Y-79637399D01*
X135553500Y-79637399D01*
X135553500Y-79762601D01*
X135585905Y-79883536D01*
X135648505Y-79991964D01*
X135737036Y-80080495D01*
X135845464Y-80143095D01*
X135966399Y-80175500D01*
X135966401Y-80175500D01*
X136091599Y-80175500D01*
X136091601Y-80175500D01*
X136212536Y-80143095D01*
X136320964Y-80080495D01*
X136409495Y-79991964D01*
X136472095Y-79883536D01*
X136504500Y-79762601D01*
X136504500Y-79637399D01*
X136472095Y-79516464D01*
X136409495Y-79408036D01*
X136320964Y-79319505D01*
X136212536Y-79256905D01*
X136212537Y-79256905D01*
X136172224Y-79246103D01*
X136091601Y-79224500D01*
X135966399Y-79224500D01*
X135885775Y-79246103D01*
X135845463Y-79256905D01*
X135737037Y-79319504D01*
X135737034Y-79319506D01*
X135648506Y-79408034D01*
X135648504Y-79408037D01*
X135585905Y-79516463D01*
X135577053Y-79549500D01*
X135553500Y-79637399D01*
X116281340Y-79637399D01*
X116300500Y-79565892D01*
X116300500Y-79434108D01*
X116266392Y-79306814D01*
X116200500Y-79192686D01*
X116107314Y-79099500D01*
X116050250Y-79066554D01*
X115993187Y-79033608D01*
X115929539Y-79016554D01*
X115865892Y-78999500D01*
X115734108Y-78999500D01*
X115606812Y-79033608D01*
X115492686Y-79099500D01*
X115492683Y-79099502D01*
X115399502Y-79192683D01*
X115399500Y-79192686D01*
X115333608Y-79306812D01*
X115306486Y-79408034D01*
X115299500Y-79434108D01*
X113500500Y-79434108D01*
X113500500Y-78634108D01*
X114199500Y-78634108D01*
X114199500Y-78765891D01*
X114233608Y-78893187D01*
X114266554Y-78950250D01*
X114299500Y-79007314D01*
X114392686Y-79100500D01*
X114506814Y-79166392D01*
X114634108Y-79200500D01*
X114634110Y-79200500D01*
X114765890Y-79200500D01*
X114765892Y-79200500D01*
X114893186Y-79166392D01*
X115007314Y-79100500D01*
X115100500Y-79007314D01*
X115166392Y-78893186D01*
X115200500Y-78765892D01*
X115200500Y-78634108D01*
X115166392Y-78506814D01*
X115100500Y-78392686D01*
X115007314Y-78299500D01*
X114932727Y-78256437D01*
X114893187Y-78233608D01*
X114829539Y-78216554D01*
X114765892Y-78199500D01*
X114634108Y-78199500D01*
X114506812Y-78233608D01*
X114392686Y-78299500D01*
X114392683Y-78299502D01*
X114299502Y-78392683D01*
X114299500Y-78392686D01*
X114233608Y-78506812D01*
X114199500Y-78634108D01*
X113500500Y-78634108D01*
X113500500Y-77823576D01*
X158619500Y-77823576D01*
X158619500Y-77976424D01*
X158659060Y-78124065D01*
X158735484Y-78256435D01*
X158735486Y-78256437D01*
X158783181Y-78304132D01*
X158816666Y-78365455D01*
X158819500Y-78391813D01*
X158819500Y-78408187D01*
X158799815Y-78475226D01*
X158783181Y-78495868D01*
X158735486Y-78543562D01*
X158735482Y-78543568D01*
X158659061Y-78675932D01*
X158659060Y-78675935D01*
X158619500Y-78823576D01*
X158619500Y-78976424D01*
X158659060Y-79124065D01*
X158735484Y-79256435D01*
X158843565Y-79364516D01*
X158975935Y-79440940D01*
X159123576Y-79480500D01*
X159123578Y-79480500D01*
X159276422Y-79480500D01*
X159276424Y-79480500D01*
X159424065Y-79440940D01*
X159556435Y-79364516D01*
X159664516Y-79256435D01*
X159740940Y-79124065D01*
X159780500Y-78976424D01*
X159780500Y-78823576D01*
X159740940Y-78675935D01*
X159664516Y-78543565D01*
X159616819Y-78495868D01*
X159583334Y-78434545D01*
X159580500Y-78408187D01*
X159580500Y-78391813D01*
X159600185Y-78324774D01*
X159616819Y-78304132D01*
X159621451Y-78299500D01*
X159664516Y-78256435D01*
X159740940Y-78124065D01*
X159780500Y-77976424D01*
X159780500Y-77823576D01*
X159740940Y-77675935D01*
X159664516Y-77543565D01*
X159556435Y-77435484D01*
X159424065Y-77359060D01*
X159276424Y-77319500D01*
X159123576Y-77319500D01*
X158975935Y-77359060D01*
X158975932Y-77359061D01*
X158843568Y-77435482D01*
X158843562Y-77435486D01*
X158735486Y-77543562D01*
X158735482Y-77543568D01*
X158659061Y-77675932D01*
X158659060Y-77675935D01*
X158619500Y-77823576D01*
X113500500Y-77823576D01*
X113500500Y-75437399D01*
X114324500Y-75437399D01*
X114324500Y-75562601D01*
X114356905Y-75683536D01*
X114419505Y-75791964D01*
X114508036Y-75880495D01*
X114616464Y-75943095D01*
X114737399Y-75975500D01*
X114737401Y-75975500D01*
X114862599Y-75975500D01*
X114862601Y-75975500D01*
X114983536Y-75943095D01*
X115091964Y-75880495D01*
X115180495Y-75791964D01*
X115243095Y-75683536D01*
X115275500Y-75562601D01*
X115275500Y-75437399D01*
X115255851Y-75364071D01*
X143649499Y-75364071D01*
X143674497Y-75489738D01*
X143674499Y-75489744D01*
X143723533Y-75608124D01*
X143723538Y-75608133D01*
X143794723Y-75714668D01*
X143794726Y-75714672D01*
X143885327Y-75805273D01*
X143885331Y-75805276D01*
X143991866Y-75876461D01*
X143991872Y-75876464D01*
X143991873Y-75876465D01*
X144110256Y-75925501D01*
X144110260Y-75925501D01*
X144110261Y-75925502D01*
X144235928Y-75950500D01*
X144235931Y-75950500D01*
X144364071Y-75950500D01*
X144448615Y-75933682D01*
X144489744Y-75925501D01*
X144608127Y-75876465D01*
X144714669Y-75805276D01*
X144805276Y-75714669D01*
X144876465Y-75608127D01*
X144925501Y-75489744D01*
X144950500Y-75364069D01*
X144950500Y-75235931D01*
X144950500Y-75235928D01*
X144925502Y-75110261D01*
X144925501Y-75110260D01*
X144925501Y-75110256D01*
X144876465Y-74991873D01*
X144876464Y-74991872D01*
X144876461Y-74991866D01*
X144805276Y-74885331D01*
X144805273Y-74885327D01*
X144714672Y-74794726D01*
X144714668Y-74794723D01*
X144608133Y-74723538D01*
X144608124Y-74723533D01*
X144489744Y-74674499D01*
X144489738Y-74674497D01*
X144364071Y-74649500D01*
X144364069Y-74649500D01*
X144235931Y-74649500D01*
X144235929Y-74649500D01*
X144110261Y-74674497D01*
X144110255Y-74674499D01*
X143991875Y-74723533D01*
X143991866Y-74723538D01*
X143885331Y-74794723D01*
X143885327Y-74794726D01*
X143794726Y-74885327D01*
X143794723Y-74885331D01*
X143723538Y-74991866D01*
X143723533Y-74991875D01*
X143674499Y-75110255D01*
X143674497Y-75110261D01*
X143649500Y-75235928D01*
X143649500Y-75235931D01*
X143649500Y-75364069D01*
X143649500Y-75364071D01*
X143649499Y-75364071D01*
X115255851Y-75364071D01*
X115243095Y-75316464D01*
X115243089Y-75316455D01*
X115240770Y-75310853D01*
X115233301Y-75241383D01*
X115264576Y-75178904D01*
X115324664Y-75143251D01*
X115394489Y-75145744D01*
X115443012Y-75175718D01*
X115491370Y-75224076D01*
X115599798Y-75286676D01*
X115720733Y-75319081D01*
X115720735Y-75319081D01*
X115845933Y-75319081D01*
X115845935Y-75319081D01*
X115966870Y-75286676D01*
X116075298Y-75224076D01*
X116163829Y-75135545D01*
X116226429Y-75027117D01*
X116258834Y-74906182D01*
X116258834Y-74780980D01*
X116226429Y-74660045D01*
X116163829Y-74551617D01*
X116075298Y-74463086D01*
X116018926Y-74430540D01*
X145176692Y-74430540D01*
X145176692Y-74562323D01*
X145210800Y-74689619D01*
X145230381Y-74723533D01*
X145276692Y-74803746D01*
X145369878Y-74896932D01*
X145484006Y-74962824D01*
X145611300Y-74996932D01*
X145611302Y-74996932D01*
X145743082Y-74996932D01*
X145743084Y-74996932D01*
X145870378Y-74962824D01*
X145984506Y-74896932D01*
X146077692Y-74803746D01*
X146143584Y-74689618D01*
X146177692Y-74562324D01*
X146177692Y-74430540D01*
X146143584Y-74303246D01*
X146077692Y-74189118D01*
X145984506Y-74095932D01*
X145927442Y-74062986D01*
X145870379Y-74030040D01*
X145806731Y-74012986D01*
X145743084Y-73995932D01*
X145611300Y-73995932D01*
X145484004Y-74030040D01*
X145369878Y-74095932D01*
X145369875Y-74095934D01*
X145276694Y-74189115D01*
X145276692Y-74189118D01*
X145210800Y-74303244D01*
X145176692Y-74430540D01*
X116018926Y-74430540D01*
X115966870Y-74400486D01*
X115966871Y-74400486D01*
X115926558Y-74389684D01*
X115845935Y-74368081D01*
X115720733Y-74368081D01*
X115640109Y-74389684D01*
X115599797Y-74400486D01*
X115491371Y-74463085D01*
X115491368Y-74463087D01*
X115451137Y-74503318D01*
X115389814Y-74536802D01*
X115320122Y-74531817D01*
X115275776Y-74503317D01*
X115191965Y-74419506D01*
X115191964Y-74419505D01*
X115083536Y-74356905D01*
X115083537Y-74356905D01*
X115043224Y-74346103D01*
X114962601Y-74324500D01*
X114837399Y-74324500D01*
X114756775Y-74346103D01*
X114716463Y-74356905D01*
X114608037Y-74419504D01*
X114608034Y-74419506D01*
X114519506Y-74508034D01*
X114519504Y-74508037D01*
X114456905Y-74616463D01*
X114445227Y-74660045D01*
X114424500Y-74737399D01*
X114424500Y-74862601D01*
X114436178Y-74906182D01*
X114456905Y-74983536D01*
X114477814Y-75019752D01*
X114494285Y-75087653D01*
X114471433Y-75153679D01*
X114458109Y-75169430D01*
X114419507Y-75208033D01*
X114419504Y-75208037D01*
X114356905Y-75316463D01*
X114340702Y-75376931D01*
X114324500Y-75437399D01*
X113500500Y-75437399D01*
X113500500Y-72688885D01*
X114649103Y-72688885D01*
X114649103Y-72814087D01*
X114681508Y-72935022D01*
X114715088Y-72993186D01*
X114744107Y-73043448D01*
X114744109Y-73043451D01*
X114765412Y-73064754D01*
X114798897Y-73126077D01*
X114793913Y-73195769D01*
X114773115Y-73228142D01*
X114774684Y-73229346D01*
X114769737Y-73235792D01*
X114707138Y-73344218D01*
X114694344Y-73391965D01*
X114674733Y-73465154D01*
X114674733Y-73590356D01*
X114707138Y-73711291D01*
X114769738Y-73819719D01*
X114858269Y-73908250D01*
X114966697Y-73970850D01*
X115087632Y-74003255D01*
X115087634Y-74003255D01*
X115212832Y-74003255D01*
X115212834Y-74003255D01*
X115333769Y-73970850D01*
X115442197Y-73908250D01*
X115530728Y-73819719D01*
X115593328Y-73711291D01*
X115597687Y-73695021D01*
X115605088Y-73667405D01*
X115641453Y-73607745D01*
X115704301Y-73577217D01*
X115724862Y-73575500D01*
X115851312Y-73575500D01*
X115851314Y-73575500D01*
X115972249Y-73543095D01*
X116080677Y-73480495D01*
X116169208Y-73391964D01*
X116198823Y-73340669D01*
X143796763Y-73340669D01*
X143796763Y-73472453D01*
X143798918Y-73480495D01*
X143830871Y-73599748D01*
X143863817Y-73656811D01*
X143896763Y-73713875D01*
X143989949Y-73807061D01*
X144104077Y-73872953D01*
X144231371Y-73907061D01*
X144231373Y-73907061D01*
X144363153Y-73907061D01*
X144363155Y-73907061D01*
X144490449Y-73872953D01*
X144604577Y-73807061D01*
X144697763Y-73713875D01*
X144763655Y-73599747D01*
X144797763Y-73472453D01*
X144797763Y-73340669D01*
X144763655Y-73213375D01*
X144697763Y-73099247D01*
X144604577Y-73006061D01*
X144547513Y-72973115D01*
X144490450Y-72940169D01*
X144401976Y-72916463D01*
X144363155Y-72906061D01*
X144231371Y-72906061D01*
X144104075Y-72940169D01*
X143989949Y-73006061D01*
X143989946Y-73006063D01*
X143896765Y-73099244D01*
X143896763Y-73099247D01*
X143830871Y-73213373D01*
X143807526Y-73300499D01*
X143796763Y-73340669D01*
X116198823Y-73340669D01*
X116231808Y-73283536D01*
X116264213Y-73162601D01*
X116264213Y-73037399D01*
X116231808Y-72916464D01*
X116169208Y-72808036D01*
X116095280Y-72734108D01*
X145299500Y-72734108D01*
X145299500Y-72865891D01*
X145333608Y-72993187D01*
X145359134Y-73037399D01*
X145399500Y-73107314D01*
X145492686Y-73200500D01*
X145606814Y-73266392D01*
X145734108Y-73300500D01*
X145734110Y-73300500D01*
X145865890Y-73300500D01*
X145865892Y-73300500D01*
X145993186Y-73266392D01*
X146107314Y-73200500D01*
X146200500Y-73107314D01*
X146266392Y-72993186D01*
X146300500Y-72865892D01*
X146300500Y-72734108D01*
X146266392Y-72606814D01*
X146200500Y-72492686D01*
X146107314Y-72399500D01*
X146050250Y-72366554D01*
X145993187Y-72333608D01*
X145899074Y-72308391D01*
X145865892Y-72299500D01*
X145734108Y-72299500D01*
X145606812Y-72333608D01*
X145492686Y-72399500D01*
X145492683Y-72399502D01*
X145399502Y-72492683D01*
X145399500Y-72492686D01*
X145333608Y-72606812D01*
X145299500Y-72734108D01*
X116095280Y-72734108D01*
X116080677Y-72719505D01*
X115972249Y-72656905D01*
X115972250Y-72656905D01*
X115931937Y-72646103D01*
X115851314Y-72624500D01*
X115726112Y-72624500D01*
X115726109Y-72624500D01*
X115709098Y-72629058D01*
X115639248Y-72627393D01*
X115581387Y-72588228D01*
X115569621Y-72571281D01*
X115524243Y-72492683D01*
X115505098Y-72459522D01*
X115416567Y-72370991D01*
X115308139Y-72308391D01*
X115308140Y-72308391D01*
X115267827Y-72297589D01*
X115187204Y-72275986D01*
X115062002Y-72275986D01*
X114981378Y-72297589D01*
X114941066Y-72308391D01*
X114832640Y-72370990D01*
X114832637Y-72370992D01*
X114744109Y-72459520D01*
X114744107Y-72459523D01*
X114681508Y-72567949D01*
X114681508Y-72567950D01*
X114649103Y-72688885D01*
X113500500Y-72688885D01*
X113500500Y-71367577D01*
X114781753Y-71367577D01*
X114781753Y-71492779D01*
X114814158Y-71613714D01*
X114876758Y-71722142D01*
X114965289Y-71810673D01*
X115073717Y-71873273D01*
X115194652Y-71905678D01*
X115194654Y-71905678D01*
X115319852Y-71905678D01*
X115319854Y-71905678D01*
X115440789Y-71873273D01*
X115549217Y-71810673D01*
X115637748Y-71722142D01*
X115688574Y-71634108D01*
X143799500Y-71634108D01*
X143799500Y-71765891D01*
X143833608Y-71893187D01*
X143840820Y-71905678D01*
X143899500Y-72007314D01*
X143992686Y-72100500D01*
X144106814Y-72166392D01*
X144234108Y-72200500D01*
X144234110Y-72200500D01*
X144365890Y-72200500D01*
X144365892Y-72200500D01*
X144493186Y-72166392D01*
X144607314Y-72100500D01*
X144700500Y-72007314D01*
X144766392Y-71893186D01*
X144800500Y-71765892D01*
X144800500Y-71634108D01*
X144766392Y-71506814D01*
X144700500Y-71392686D01*
X144607314Y-71299500D01*
X144549968Y-71266391D01*
X144493187Y-71233608D01*
X144429539Y-71216554D01*
X144365892Y-71199500D01*
X144234108Y-71199500D01*
X144106812Y-71233608D01*
X143992686Y-71299500D01*
X143992683Y-71299502D01*
X143899502Y-71392683D01*
X143899500Y-71392686D01*
X143833608Y-71506812D01*
X143799500Y-71634108D01*
X115688574Y-71634108D01*
X115700348Y-71613714D01*
X115732753Y-71492779D01*
X115732753Y-71432781D01*
X115734537Y-71422377D01*
X115745448Y-71400097D01*
X115752438Y-71376294D01*
X115760547Y-71369266D01*
X115765268Y-71359629D01*
X115786493Y-71346784D01*
X115805242Y-71330539D01*
X115824649Y-71323561D01*
X115921526Y-71297603D01*
X116029954Y-71235003D01*
X116118485Y-71146472D01*
X116181085Y-71038044D01*
X116213490Y-70917109D01*
X116213490Y-70791907D01*
X116198003Y-70734108D01*
X145299500Y-70734108D01*
X145299500Y-70865892D01*
X145313223Y-70917107D01*
X145333608Y-70993187D01*
X145359507Y-71038044D01*
X145399500Y-71107314D01*
X145492686Y-71200500D01*
X145606814Y-71266392D01*
X145734108Y-71300500D01*
X145734110Y-71300500D01*
X145865890Y-71300500D01*
X145865892Y-71300500D01*
X145993186Y-71266392D01*
X146107314Y-71200500D01*
X146200500Y-71107314D01*
X146266392Y-70993186D01*
X146300500Y-70865892D01*
X146300500Y-70734108D01*
X146266392Y-70606814D01*
X146200500Y-70492686D01*
X146107314Y-70399500D01*
X146050250Y-70366554D01*
X145993187Y-70333608D01*
X145929539Y-70316554D01*
X145865892Y-70299500D01*
X145734108Y-70299500D01*
X145606812Y-70333608D01*
X145492686Y-70399500D01*
X145492683Y-70399502D01*
X145399502Y-70492683D01*
X145399500Y-70492686D01*
X145333608Y-70606812D01*
X145316417Y-70670971D01*
X145299500Y-70734108D01*
X116198003Y-70734108D01*
X116181085Y-70670972D01*
X116118485Y-70562544D01*
X116029954Y-70474013D01*
X115921526Y-70411413D01*
X115921527Y-70411413D01*
X115877067Y-70399500D01*
X115800591Y-70379008D01*
X115675389Y-70379008D01*
X115598913Y-70399500D01*
X115554453Y-70411413D01*
X115446027Y-70474012D01*
X115446024Y-70474014D01*
X115357496Y-70562542D01*
X115357494Y-70562545D01*
X115294895Y-70670971D01*
X115294895Y-70670972D01*
X115271556Y-70758075D01*
X115262490Y-70791908D01*
X115262490Y-70841352D01*
X115242805Y-70908391D01*
X115190001Y-70954146D01*
X115170585Y-70961126D01*
X115073721Y-70987081D01*
X115073716Y-70987083D01*
X114965290Y-71049682D01*
X114965287Y-71049684D01*
X114876759Y-71138212D01*
X114876757Y-71138215D01*
X114814158Y-71246641D01*
X114814158Y-71246642D01*
X114781753Y-71367577D01*
X113500500Y-71367577D01*
X113500500Y-69337399D01*
X114824500Y-69337399D01*
X114824500Y-69462601D01*
X114856905Y-69583536D01*
X114919505Y-69691964D01*
X115008036Y-69780495D01*
X115116464Y-69843095D01*
X115237399Y-69875500D01*
X115237401Y-69875500D01*
X115362599Y-69875500D01*
X115362601Y-69875500D01*
X115483536Y-69843095D01*
X115591964Y-69780495D01*
X115680495Y-69691964D01*
X115743095Y-69583536D01*
X115775500Y-69462601D01*
X115775500Y-69337399D01*
X115743095Y-69216464D01*
X115680495Y-69108036D01*
X115591964Y-69019505D01*
X115507633Y-68970817D01*
X133067977Y-68970817D01*
X133067977Y-69109183D01*
X133096724Y-69216464D01*
X133103790Y-69242835D01*
X133103791Y-69242838D01*
X133172971Y-69362661D01*
X133172973Y-69362663D01*
X133172974Y-69362665D01*
X133270813Y-69460504D01*
X133270814Y-69460505D01*
X133270816Y-69460506D01*
X133390639Y-69529686D01*
X133390640Y-69529687D01*
X133390642Y-69529687D01*
X133390643Y-69529688D01*
X133524295Y-69565501D01*
X133524297Y-69565501D01*
X133662659Y-69565501D01*
X133662661Y-69565501D01*
X133796313Y-69529688D01*
X133916143Y-69460504D01*
X133921997Y-69454650D01*
X143928284Y-69454650D01*
X143928284Y-69586433D01*
X143962392Y-69713729D01*
X143995338Y-69770792D01*
X144028284Y-69827856D01*
X144121470Y-69921042D01*
X144235598Y-69986934D01*
X144362892Y-70021042D01*
X144362894Y-70021042D01*
X144494674Y-70021042D01*
X144494676Y-70021042D01*
X144621970Y-69986934D01*
X144736098Y-69921042D01*
X144829284Y-69827856D01*
X144895176Y-69713728D01*
X144929284Y-69586434D01*
X144929284Y-69454650D01*
X144895176Y-69327356D01*
X144829284Y-69213228D01*
X144736098Y-69120042D01*
X144667597Y-69080493D01*
X144621971Y-69054150D01*
X144558323Y-69037096D01*
X144494676Y-69020042D01*
X144362892Y-69020042D01*
X144235596Y-69054150D01*
X144121470Y-69120042D01*
X144121467Y-69120044D01*
X144028286Y-69213225D01*
X144028284Y-69213228D01*
X143962392Y-69327354D01*
X143928284Y-69454650D01*
X133921997Y-69454650D01*
X134065828Y-69310819D01*
X134127151Y-69277334D01*
X134153509Y-69274500D01*
X142004036Y-69274500D01*
X142004037Y-69274500D01*
X142004038Y-69274500D01*
X142089112Y-69251704D01*
X142104474Y-69242835D01*
X142165388Y-69207667D01*
X142194498Y-69178557D01*
X142255820Y-69145071D01*
X142306371Y-69144620D01*
X142335931Y-69150500D01*
X142464071Y-69150500D01*
X142548615Y-69133682D01*
X142589744Y-69125501D01*
X142708127Y-69076465D01*
X142814669Y-69005276D01*
X142905276Y-68914669D01*
X142976465Y-68808127D01*
X142976468Y-68808120D01*
X142987784Y-68780800D01*
X145426181Y-68780800D01*
X145426181Y-68912584D01*
X145429374Y-68924500D01*
X145460289Y-69039879D01*
X145481413Y-69076466D01*
X145526181Y-69154006D01*
X145619367Y-69247192D01*
X145733495Y-69313084D01*
X145860789Y-69347192D01*
X145860791Y-69347192D01*
X145992571Y-69347192D01*
X145992573Y-69347192D01*
X146119867Y-69313084D01*
X146233995Y-69247192D01*
X146327181Y-69154006D01*
X146393073Y-69039878D01*
X146427181Y-68912584D01*
X146427181Y-68780800D01*
X146393073Y-68653506D01*
X146327181Y-68539378D01*
X146233995Y-68446192D01*
X146167904Y-68408034D01*
X146119868Y-68380300D01*
X146056220Y-68363246D01*
X145992573Y-68346192D01*
X145860789Y-68346192D01*
X145733493Y-68380300D01*
X145619367Y-68446192D01*
X145619364Y-68446194D01*
X145526183Y-68539375D01*
X145526181Y-68539378D01*
X145460289Y-68653504D01*
X145450579Y-68689744D01*
X145426181Y-68780800D01*
X142987784Y-68780800D01*
X143010806Y-68725221D01*
X143010806Y-68725220D01*
X143014072Y-68717335D01*
X143025501Y-68689744D01*
X143044488Y-68594294D01*
X143050500Y-68564071D01*
X143050500Y-68435928D01*
X143025502Y-68310261D01*
X143025501Y-68310260D01*
X143025501Y-68310256D01*
X142976465Y-68191873D01*
X142976464Y-68191872D01*
X142976461Y-68191866D01*
X142905276Y-68085331D01*
X142905273Y-68085327D01*
X142814672Y-67994726D01*
X142814668Y-67994723D01*
X142708133Y-67923538D01*
X142708124Y-67923533D01*
X142589744Y-67874499D01*
X142589738Y-67874497D01*
X142464071Y-67849500D01*
X142464069Y-67849500D01*
X142335931Y-67849500D01*
X142335929Y-67849500D01*
X142210261Y-67874497D01*
X142210255Y-67874499D01*
X142091875Y-67923533D01*
X142091866Y-67923538D01*
X141985331Y-67994723D01*
X141985327Y-67994726D01*
X141894726Y-68085327D01*
X141894723Y-68085331D01*
X141823538Y-68191866D01*
X141823533Y-68191875D01*
X141774499Y-68310255D01*
X141774497Y-68310261D01*
X141749500Y-68435928D01*
X141749500Y-68481500D01*
X141729815Y-68548539D01*
X141677011Y-68594294D01*
X141625500Y-68605500D01*
X134153509Y-68605500D01*
X134086470Y-68585815D01*
X134065828Y-68569181D01*
X134016145Y-68519498D01*
X134016139Y-68519493D01*
X133896316Y-68450313D01*
X133896317Y-68450313D01*
X133842631Y-68435928D01*
X133762661Y-68414500D01*
X133624294Y-68414500D01*
X133501599Y-68447376D01*
X133490639Y-68450313D01*
X133370816Y-68519493D01*
X133370810Y-68519498D01*
X133172976Y-68717332D01*
X133172971Y-68717338D01*
X133103791Y-68837161D01*
X133103790Y-68837162D01*
X133083022Y-68914669D01*
X133067977Y-68970817D01*
X115507633Y-68970817D01*
X115483536Y-68956905D01*
X115483537Y-68956905D01*
X115443224Y-68946103D01*
X115362601Y-68924500D01*
X115237399Y-68924500D01*
X115156775Y-68946103D01*
X115116463Y-68956905D01*
X115008037Y-69019504D01*
X115008034Y-69019506D01*
X114919506Y-69108034D01*
X114919504Y-69108037D01*
X114856905Y-69216463D01*
X114847462Y-69251704D01*
X114824500Y-69337399D01*
X113500500Y-69337399D01*
X113500500Y-68637399D01*
X113824500Y-68637399D01*
X113824500Y-68762601D01*
X113856905Y-68883536D01*
X113919505Y-68991964D01*
X114008036Y-69080495D01*
X114116464Y-69143095D01*
X114237399Y-69175500D01*
X114237401Y-69175500D01*
X114362599Y-69175500D01*
X114362601Y-69175500D01*
X114483536Y-69143095D01*
X114591964Y-69080495D01*
X114680495Y-68991964D01*
X114743095Y-68883536D01*
X114775500Y-68762601D01*
X114775500Y-68637399D01*
X114743095Y-68516464D01*
X114680495Y-68408036D01*
X114591964Y-68319505D01*
X114483536Y-68256905D01*
X114483537Y-68256905D01*
X114443224Y-68246103D01*
X114362601Y-68224500D01*
X114237399Y-68224500D01*
X114156775Y-68246103D01*
X114116463Y-68256905D01*
X114008037Y-68319504D01*
X114008034Y-68319506D01*
X113919506Y-68408034D01*
X113919504Y-68408037D01*
X113856905Y-68516463D01*
X113842779Y-68569181D01*
X113824500Y-68637399D01*
X113500500Y-68637399D01*
X113500500Y-66974771D01*
X114624137Y-66974771D01*
X114624137Y-67099973D01*
X114656542Y-67220908D01*
X114719142Y-67329336D01*
X114719144Y-67329338D01*
X114724088Y-67335781D01*
X114722335Y-67337125D01*
X114750292Y-67388324D01*
X114745308Y-67458016D01*
X114727505Y-67490164D01*
X114723492Y-67495393D01*
X114660890Y-67603825D01*
X114660890Y-67603826D01*
X114628485Y-67724761D01*
X114628485Y-67849963D01*
X114660890Y-67970898D01*
X114723490Y-68079326D01*
X114812021Y-68167857D01*
X114920449Y-68230457D01*
X115041384Y-68262862D01*
X115041386Y-68262862D01*
X115166584Y-68262862D01*
X115166586Y-68262862D01*
X115287521Y-68230457D01*
X115395949Y-68167857D01*
X115484480Y-68079326D01*
X115547080Y-67970898D01*
X115579485Y-67849963D01*
X115579485Y-67724761D01*
X115547080Y-67603826D01*
X115484480Y-67495398D01*
X115484475Y-67495393D01*
X115479534Y-67488953D01*
X115481286Y-67487608D01*
X115472225Y-67471015D01*
X115455662Y-67445472D01*
X115455642Y-67440645D01*
X115453329Y-67436409D01*
X115455500Y-67406043D01*
X115455398Y-67380916D01*
X135444200Y-67380916D01*
X135444200Y-67512700D01*
X135447380Y-67524567D01*
X135478308Y-67639995D01*
X135507694Y-67690892D01*
X135544200Y-67754122D01*
X135637386Y-67847308D01*
X135751514Y-67913200D01*
X135878808Y-67947308D01*
X135878810Y-67947308D01*
X136010590Y-67947308D01*
X136010592Y-67947308D01*
X136137886Y-67913200D01*
X136252014Y-67847308D01*
X136345200Y-67754122D01*
X136381705Y-67690894D01*
X138189499Y-67690894D01*
X138214497Y-67816561D01*
X138214499Y-67816567D01*
X138263533Y-67934947D01*
X138263538Y-67934956D01*
X138334723Y-68041491D01*
X138334726Y-68041495D01*
X138425327Y-68132096D01*
X138425331Y-68132099D01*
X138531866Y-68203284D01*
X138531872Y-68203287D01*
X138531873Y-68203288D01*
X138650256Y-68252324D01*
X138650260Y-68252324D01*
X138650261Y-68252325D01*
X138775928Y-68277323D01*
X138775931Y-68277323D01*
X138904071Y-68277323D01*
X139006714Y-68256905D01*
X139029744Y-68252324D01*
X139148127Y-68203288D01*
X139254669Y-68132099D01*
X139345276Y-68041492D01*
X139416465Y-67934950D01*
X139465501Y-67816567D01*
X139477922Y-67754124D01*
X139490500Y-67690894D01*
X139490500Y-67562751D01*
X139465502Y-67437084D01*
X139465501Y-67437083D01*
X139465501Y-67437079D01*
X139420872Y-67329336D01*
X139416466Y-67318698D01*
X139416461Y-67318689D01*
X139345276Y-67212154D01*
X139345273Y-67212150D01*
X139254672Y-67121549D01*
X139254668Y-67121546D01*
X139148133Y-67050361D01*
X139148124Y-67050356D01*
X139029744Y-67001322D01*
X139029738Y-67001320D01*
X138904071Y-66976323D01*
X138904069Y-66976323D01*
X138775931Y-66976323D01*
X138775929Y-66976323D01*
X138650261Y-67001320D01*
X138650255Y-67001322D01*
X138531875Y-67050356D01*
X138531866Y-67050361D01*
X138425331Y-67121546D01*
X138425327Y-67121549D01*
X138334726Y-67212150D01*
X138334723Y-67212154D01*
X138263538Y-67318689D01*
X138263533Y-67318698D01*
X138214499Y-67437078D01*
X138214497Y-67437084D01*
X138189500Y-67562751D01*
X138189500Y-67562754D01*
X138189500Y-67690892D01*
X138189500Y-67690894D01*
X138189499Y-67690894D01*
X136381705Y-67690894D01*
X136411092Y-67639994D01*
X136445200Y-67512700D01*
X136445200Y-67380916D01*
X136411092Y-67253622D01*
X136345200Y-67139494D01*
X136252014Y-67046308D01*
X136194950Y-67013362D01*
X136137887Y-66980416D01*
X136074239Y-66963362D01*
X136010592Y-66946308D01*
X135878808Y-66946308D01*
X135751512Y-66980416D01*
X135637386Y-67046308D01*
X135637383Y-67046310D01*
X135544202Y-67139491D01*
X135544200Y-67139494D01*
X135478308Y-67253620D01*
X135454242Y-67343439D01*
X135444200Y-67380916D01*
X115455398Y-67380916D01*
X115455376Y-67375603D01*
X115458056Y-67370299D01*
X115458313Y-67366717D01*
X115469906Y-67343439D01*
X115476705Y-67332762D01*
X115480132Y-67329336D01*
X115542732Y-67220908D01*
X115547582Y-67202806D01*
X115557069Y-67167405D01*
X115593434Y-67107745D01*
X115656282Y-67077217D01*
X115676843Y-67075500D01*
X115762599Y-67075500D01*
X115762601Y-67075500D01*
X115883536Y-67043095D01*
X115991964Y-66980495D01*
X116080495Y-66891964D01*
X116143095Y-66783536D01*
X116175500Y-66662601D01*
X116175500Y-66537399D01*
X116143095Y-66416464D01*
X116080495Y-66308036D01*
X115991964Y-66219505D01*
X115883536Y-66156905D01*
X115883537Y-66156905D01*
X115843224Y-66146103D01*
X115762601Y-66124500D01*
X115637399Y-66124500D01*
X115556775Y-66146103D01*
X115516463Y-66156905D01*
X115408037Y-66219504D01*
X115408034Y-66219506D01*
X115319506Y-66308034D01*
X115319504Y-66308037D01*
X115256905Y-66416463D01*
X115256903Y-66416468D01*
X115242568Y-66469967D01*
X115206203Y-66529627D01*
X115143355Y-66560155D01*
X115122794Y-66561872D01*
X115037036Y-66561872D01*
X114956412Y-66583475D01*
X114916100Y-66594277D01*
X114807674Y-66656876D01*
X114807671Y-66656878D01*
X114719143Y-66745406D01*
X114719141Y-66745409D01*
X114656542Y-66853835D01*
X114656542Y-66853836D01*
X114624137Y-66974771D01*
X113500500Y-66974771D01*
X113500500Y-65437399D01*
X114024500Y-65437399D01*
X114024500Y-65562601D01*
X114056905Y-65683536D01*
X114119505Y-65791964D01*
X114208036Y-65880495D01*
X114316464Y-65943095D01*
X114437399Y-65975500D01*
X114437401Y-65975500D01*
X114562599Y-65975500D01*
X114562601Y-65975500D01*
X114683536Y-65943095D01*
X114791964Y-65880495D01*
X114880495Y-65791964D01*
X114913898Y-65734108D01*
X135799500Y-65734108D01*
X135799500Y-65865891D01*
X135833608Y-65993187D01*
X135866554Y-66050250D01*
X135899500Y-66107314D01*
X135992686Y-66200500D01*
X136106814Y-66266392D01*
X136234108Y-66300500D01*
X136234110Y-66300500D01*
X136365890Y-66300500D01*
X136365892Y-66300500D01*
X136493186Y-66266392D01*
X136607314Y-66200500D01*
X136700500Y-66107314D01*
X136766392Y-65993186D01*
X136800500Y-65865892D01*
X136800500Y-65734108D01*
X136766392Y-65606814D01*
X136700500Y-65492686D01*
X136607314Y-65399500D01*
X136550250Y-65366554D01*
X136493187Y-65333608D01*
X136425605Y-65315500D01*
X136365892Y-65299500D01*
X136234108Y-65299500D01*
X136106812Y-65333608D01*
X135992686Y-65399500D01*
X135992683Y-65399502D01*
X135899502Y-65492683D01*
X135899500Y-65492686D01*
X135833608Y-65606812D01*
X135799500Y-65734108D01*
X114913898Y-65734108D01*
X114943095Y-65683536D01*
X114975500Y-65562601D01*
X114975500Y-65439500D01*
X114995185Y-65372461D01*
X115047989Y-65326706D01*
X115099500Y-65315500D01*
X115162599Y-65315500D01*
X115162601Y-65315500D01*
X115283536Y-65283095D01*
X115391964Y-65220495D01*
X115480495Y-65131964D01*
X115543095Y-65023536D01*
X115572999Y-64911933D01*
X115609365Y-64852273D01*
X115672212Y-64821745D01*
X115692774Y-64820028D01*
X115725636Y-64820028D01*
X115725638Y-64820028D01*
X115846573Y-64787623D01*
X115955001Y-64725023D01*
X116043532Y-64636492D01*
X116106132Y-64528064D01*
X116131308Y-64434108D01*
X136299500Y-64434108D01*
X136299500Y-64565891D01*
X136333608Y-64693187D01*
X136351988Y-64725021D01*
X136399500Y-64807314D01*
X136492686Y-64900500D01*
X136606814Y-64966392D01*
X136734108Y-65000500D01*
X136734110Y-65000500D01*
X136865890Y-65000500D01*
X136865892Y-65000500D01*
X136993186Y-64966392D01*
X137107314Y-64900500D01*
X137200500Y-64807314D01*
X137266392Y-64693186D01*
X137300500Y-64565892D01*
X137300500Y-64564071D01*
X144949499Y-64564071D01*
X144974497Y-64689738D01*
X144974499Y-64689744D01*
X145023533Y-64808124D01*
X145023538Y-64808133D01*
X145094723Y-64914668D01*
X145094726Y-64914672D01*
X145185327Y-65005273D01*
X145185331Y-65005276D01*
X145291866Y-65076461D01*
X145291872Y-65076464D01*
X145291873Y-65076465D01*
X145410256Y-65125501D01*
X145410260Y-65125501D01*
X145410261Y-65125502D01*
X145535928Y-65150500D01*
X145535931Y-65150500D01*
X145664071Y-65150500D01*
X145757263Y-65131962D01*
X145789744Y-65125501D01*
X145908127Y-65076465D01*
X146014669Y-65005276D01*
X146105276Y-64914669D01*
X146176465Y-64808127D01*
X146225501Y-64689744D01*
X146236094Y-64636490D01*
X146250500Y-64564071D01*
X160349499Y-64564071D01*
X160374497Y-64689738D01*
X160374499Y-64689744D01*
X160423533Y-64808124D01*
X160423538Y-64808133D01*
X160494723Y-64914668D01*
X160494726Y-64914672D01*
X160585327Y-65005273D01*
X160585331Y-65005276D01*
X160691866Y-65076461D01*
X160691872Y-65076464D01*
X160691873Y-65076465D01*
X160810256Y-65125501D01*
X160810260Y-65125501D01*
X160810261Y-65125502D01*
X160935928Y-65150500D01*
X160935931Y-65150500D01*
X161064071Y-65150500D01*
X161157263Y-65131962D01*
X161189744Y-65125501D01*
X161308127Y-65076465D01*
X161414669Y-65005276D01*
X161505276Y-64914669D01*
X161576465Y-64808127D01*
X161625501Y-64689744D01*
X161636094Y-64636490D01*
X161650500Y-64564071D01*
X161650500Y-64435928D01*
X161625502Y-64310261D01*
X161625501Y-64310260D01*
X161625501Y-64310256D01*
X161576465Y-64191873D01*
X161576464Y-64191872D01*
X161576461Y-64191866D01*
X161505276Y-64085331D01*
X161505273Y-64085327D01*
X161414672Y-63994726D01*
X161414668Y-63994723D01*
X161308133Y-63923538D01*
X161308124Y-63923533D01*
X161189744Y-63874499D01*
X161189738Y-63874497D01*
X161064071Y-63849500D01*
X161064069Y-63849500D01*
X160935931Y-63849500D01*
X160935929Y-63849500D01*
X160810261Y-63874497D01*
X160810255Y-63874499D01*
X160691875Y-63923533D01*
X160691866Y-63923538D01*
X160585331Y-63994723D01*
X160585327Y-63994726D01*
X160494726Y-64085327D01*
X160494723Y-64085331D01*
X160423538Y-64191866D01*
X160423533Y-64191875D01*
X160374499Y-64310255D01*
X160374497Y-64310261D01*
X160349500Y-64435928D01*
X160349500Y-64435931D01*
X160349500Y-64564069D01*
X160349500Y-64564071D01*
X160349499Y-64564071D01*
X146250500Y-64564071D01*
X146250500Y-64435928D01*
X146225502Y-64310261D01*
X146225501Y-64310260D01*
X146225501Y-64310256D01*
X146176465Y-64191873D01*
X146176464Y-64191872D01*
X146176461Y-64191866D01*
X146105276Y-64085331D01*
X146105273Y-64085327D01*
X146014672Y-63994726D01*
X146014668Y-63994723D01*
X145908133Y-63923538D01*
X145908124Y-63923533D01*
X145789744Y-63874499D01*
X145789738Y-63874497D01*
X145664071Y-63849500D01*
X145664069Y-63849500D01*
X145535931Y-63849500D01*
X145535929Y-63849500D01*
X145410261Y-63874497D01*
X145410255Y-63874499D01*
X145291875Y-63923533D01*
X145291866Y-63923538D01*
X145185331Y-63994723D01*
X145185327Y-63994726D01*
X145094726Y-64085327D01*
X145094723Y-64085331D01*
X145023538Y-64191866D01*
X145023533Y-64191875D01*
X144974499Y-64310255D01*
X144974497Y-64310261D01*
X144949500Y-64435928D01*
X144949500Y-64435931D01*
X144949500Y-64564069D01*
X144949500Y-64564071D01*
X144949499Y-64564071D01*
X137300500Y-64564071D01*
X137300500Y-64434108D01*
X137286917Y-64383415D01*
X137286376Y-64381016D01*
X137288451Y-64348530D01*
X137289226Y-64315982D01*
X137290666Y-64313854D01*
X137290830Y-64311288D01*
X137310147Y-64285070D01*
X137328388Y-64258119D01*
X137330750Y-64257107D01*
X137332275Y-64255038D01*
X137362687Y-64243430D01*
X137392616Y-64230614D01*
X137395691Y-64230833D01*
X137397552Y-64230124D01*
X137403657Y-64231403D01*
X137439427Y-64233961D01*
X137534108Y-64259331D01*
X137534110Y-64259331D01*
X137665890Y-64259331D01*
X137665892Y-64259331D01*
X137793186Y-64225223D01*
X137907314Y-64159331D01*
X138000500Y-64066145D01*
X138066392Y-63952017D01*
X138100500Y-63824723D01*
X138100500Y-63692939D01*
X138092765Y-63664071D01*
X148874499Y-63664071D01*
X148899497Y-63789738D01*
X148899499Y-63789744D01*
X148948533Y-63908124D01*
X148948538Y-63908133D01*
X149019723Y-64014668D01*
X149019726Y-64014672D01*
X149110327Y-64105273D01*
X149110331Y-64105276D01*
X149216866Y-64176461D01*
X149216872Y-64176464D01*
X149216873Y-64176465D01*
X149335256Y-64225501D01*
X149335260Y-64225501D01*
X149335261Y-64225502D01*
X149460928Y-64250500D01*
X149460931Y-64250500D01*
X149589071Y-64250500D01*
X149691503Y-64230124D01*
X149714744Y-64225501D01*
X149833127Y-64176465D01*
X149939669Y-64105276D01*
X150030276Y-64014669D01*
X150101465Y-63908127D01*
X150150501Y-63789744D01*
X150169757Y-63692941D01*
X150175500Y-63664071D01*
X153849499Y-63664071D01*
X153874497Y-63789738D01*
X153874499Y-63789744D01*
X153923533Y-63908124D01*
X153923538Y-63908133D01*
X153994723Y-64014668D01*
X153994726Y-64014672D01*
X154085327Y-64105273D01*
X154085331Y-64105276D01*
X154191866Y-64176461D01*
X154191872Y-64176464D01*
X154191873Y-64176465D01*
X154310256Y-64225501D01*
X154310260Y-64225501D01*
X154310261Y-64225502D01*
X154435928Y-64250500D01*
X154435931Y-64250500D01*
X154564071Y-64250500D01*
X154666503Y-64230124D01*
X154689744Y-64225501D01*
X154808127Y-64176465D01*
X154914669Y-64105276D01*
X155005276Y-64014669D01*
X155076465Y-63908127D01*
X155125501Y-63789744D01*
X155144757Y-63692941D01*
X155150500Y-63664071D01*
X155150500Y-63535928D01*
X155125502Y-63410261D01*
X155125501Y-63410260D01*
X155125501Y-63410256D01*
X155087574Y-63318692D01*
X155076466Y-63291875D01*
X155076461Y-63291866D01*
X155005276Y-63185331D01*
X155005273Y-63185327D01*
X154914672Y-63094726D01*
X154914668Y-63094723D01*
X154808133Y-63023538D01*
X154808124Y-63023533D01*
X154689744Y-62974499D01*
X154689738Y-62974497D01*
X154564071Y-62949500D01*
X154564069Y-62949500D01*
X154435931Y-62949500D01*
X154435929Y-62949500D01*
X154310261Y-62974497D01*
X154310255Y-62974499D01*
X154191875Y-63023533D01*
X154191866Y-63023538D01*
X154085331Y-63094723D01*
X154085327Y-63094726D01*
X153994726Y-63185327D01*
X153994723Y-63185331D01*
X153923538Y-63291866D01*
X153923533Y-63291875D01*
X153874499Y-63410255D01*
X153874497Y-63410261D01*
X153849500Y-63535928D01*
X153849500Y-63535931D01*
X153849500Y-63664069D01*
X153849500Y-63664071D01*
X153849499Y-63664071D01*
X150175500Y-63664071D01*
X150175500Y-63535928D01*
X150150502Y-63410261D01*
X150150501Y-63410260D01*
X150150501Y-63410256D01*
X150112574Y-63318692D01*
X150101466Y-63291875D01*
X150101461Y-63291866D01*
X150030276Y-63185331D01*
X150030273Y-63185327D01*
X149939672Y-63094726D01*
X149939668Y-63094723D01*
X149833133Y-63023538D01*
X149833124Y-63023533D01*
X149714744Y-62974499D01*
X149714738Y-62974497D01*
X149589071Y-62949500D01*
X149589069Y-62949500D01*
X149460931Y-62949500D01*
X149460929Y-62949500D01*
X149335261Y-62974497D01*
X149335255Y-62974499D01*
X149216875Y-63023533D01*
X149216866Y-63023538D01*
X149110331Y-63094723D01*
X149110327Y-63094726D01*
X149019726Y-63185327D01*
X149019723Y-63185331D01*
X148948538Y-63291866D01*
X148948533Y-63291875D01*
X148899499Y-63410255D01*
X148899497Y-63410261D01*
X148874500Y-63535928D01*
X148874500Y-63535931D01*
X148874500Y-63664069D01*
X148874500Y-63664071D01*
X148874499Y-63664071D01*
X138092765Y-63664071D01*
X138066392Y-63565645D01*
X138000500Y-63451517D01*
X137907314Y-63358331D01*
X137850250Y-63325385D01*
X137793187Y-63292439D01*
X137729539Y-63275385D01*
X137665892Y-63258331D01*
X137534108Y-63258331D01*
X137406812Y-63292439D01*
X137292686Y-63358331D01*
X137292683Y-63358333D01*
X137199502Y-63451514D01*
X137199500Y-63451517D01*
X137133608Y-63565643D01*
X137107235Y-63664071D01*
X137099500Y-63692939D01*
X137099500Y-63824723D01*
X137111371Y-63869028D01*
X137112436Y-63873000D01*
X137110773Y-63942850D01*
X137071610Y-64000712D01*
X137007382Y-64028216D01*
X136960568Y-64024868D01*
X136922500Y-64014668D01*
X136865892Y-63999500D01*
X136734108Y-63999500D01*
X136606812Y-64033608D01*
X136492686Y-64099500D01*
X136492683Y-64099502D01*
X136399502Y-64192683D01*
X136399500Y-64192686D01*
X136333608Y-64306812D01*
X136299500Y-64434108D01*
X116131308Y-64434108D01*
X116138537Y-64407129D01*
X116138537Y-64281927D01*
X116106132Y-64160992D01*
X116043532Y-64052564D01*
X115955001Y-63964033D01*
X115846573Y-63901433D01*
X115846574Y-63901433D01*
X115806261Y-63890631D01*
X115725638Y-63869028D01*
X115600436Y-63869028D01*
X115519812Y-63890631D01*
X115479500Y-63901433D01*
X115371074Y-63964032D01*
X115371071Y-63964034D01*
X115282543Y-64052562D01*
X115282541Y-64052565D01*
X115219942Y-64160991D01*
X115211669Y-64191866D01*
X115193917Y-64258119D01*
X115190038Y-64272594D01*
X115153672Y-64332255D01*
X115090825Y-64362783D01*
X115070263Y-64364500D01*
X115037399Y-64364500D01*
X114975762Y-64381016D01*
X114916463Y-64396905D01*
X114808037Y-64459504D01*
X114808034Y-64459506D01*
X114719506Y-64548034D01*
X114719504Y-64548037D01*
X114656905Y-64656463D01*
X114624500Y-64777400D01*
X114624500Y-64900500D01*
X114604815Y-64967539D01*
X114552011Y-65013294D01*
X114500500Y-65024500D01*
X114437399Y-65024500D01*
X114356775Y-65046103D01*
X114316463Y-65056905D01*
X114208037Y-65119504D01*
X114208034Y-65119506D01*
X114119506Y-65208034D01*
X114119504Y-65208037D01*
X114056905Y-65316463D01*
X114052311Y-65333608D01*
X114024500Y-65437399D01*
X113500500Y-65437399D01*
X113500500Y-61873920D01*
X113999499Y-61873920D01*
X114028340Y-62018907D01*
X114028343Y-62018917D01*
X114084912Y-62155488D01*
X114084922Y-62155506D01*
X114126141Y-62217195D01*
X114147019Y-62283872D01*
X114128534Y-62351252D01*
X114126142Y-62354974D01*
X114091100Y-62407419D01*
X114091093Y-62407431D01*
X114034521Y-62544009D01*
X114034519Y-62544015D01*
X114005679Y-62689002D01*
X114005679Y-62689005D01*
X114005679Y-62836841D01*
X114005679Y-62836843D01*
X114005678Y-62836843D01*
X114034519Y-62981830D01*
X114034522Y-62981840D01*
X114091091Y-63118411D01*
X114091098Y-63118424D01*
X114173227Y-63241338D01*
X114173230Y-63241342D01*
X114277759Y-63345871D01*
X114277763Y-63345874D01*
X114400677Y-63428003D01*
X114400690Y-63428010D01*
X114537261Y-63484579D01*
X114537266Y-63484581D01*
X114537270Y-63484581D01*
X114537271Y-63484582D01*
X114682258Y-63513423D01*
X114682261Y-63513423D01*
X114830099Y-63513423D01*
X114927641Y-63494019D01*
X114975092Y-63484581D01*
X115111674Y-63428007D01*
X115234595Y-63345874D01*
X115339130Y-63241339D01*
X115421263Y-63118418D01*
X115477837Y-62981836D01*
X115506679Y-62836841D01*
X115506679Y-62689005D01*
X115506679Y-62689002D01*
X115479063Y-62550173D01*
X115479062Y-62550170D01*
X115477837Y-62544010D01*
X115473736Y-62534110D01*
X115473735Y-62534108D01*
X138839500Y-62534108D01*
X138839500Y-62665891D01*
X138873608Y-62793187D01*
X138898812Y-62836841D01*
X138939500Y-62907314D01*
X139032686Y-63000500D01*
X139146814Y-63066392D01*
X139274108Y-63100500D01*
X139274110Y-63100500D01*
X139405890Y-63100500D01*
X139405892Y-63100500D01*
X139533186Y-63066392D01*
X139647314Y-63000500D01*
X139740500Y-62907314D01*
X139806392Y-62793186D01*
X139840500Y-62665892D01*
X139840500Y-62534108D01*
X139806392Y-62406814D01*
X139794663Y-62386500D01*
X139778191Y-62318601D01*
X139801043Y-62252574D01*
X139855964Y-62209383D01*
X139902051Y-62200500D01*
X139965890Y-62200500D01*
X139965892Y-62200500D01*
X140093186Y-62166392D01*
X140207314Y-62100500D01*
X140300500Y-62007314D01*
X140366392Y-61893186D01*
X140400500Y-61765892D01*
X140400500Y-61634108D01*
X140366392Y-61506814D01*
X140300500Y-61392686D01*
X140207314Y-61299500D01*
X140150250Y-61266554D01*
X140093187Y-61233608D01*
X140029539Y-61216554D01*
X139965892Y-61199500D01*
X139834108Y-61199500D01*
X139706812Y-61233608D01*
X139592686Y-61299500D01*
X139592683Y-61299502D01*
X139499502Y-61392683D01*
X139499500Y-61392686D01*
X139433608Y-61506812D01*
X139399500Y-61634108D01*
X139399500Y-61765891D01*
X139433608Y-61893186D01*
X139445336Y-61913499D01*
X139461809Y-61981399D01*
X139438957Y-62047426D01*
X139384036Y-62090617D01*
X139337949Y-62099500D01*
X139274108Y-62099500D01*
X139146812Y-62133608D01*
X139032686Y-62199500D01*
X139032683Y-62199502D01*
X138939502Y-62292683D01*
X138939500Y-62292686D01*
X138873608Y-62406812D01*
X138839500Y-62534108D01*
X115473735Y-62534108D01*
X115421266Y-62407434D01*
X115421259Y-62407421D01*
X115380037Y-62345728D01*
X115359159Y-62279050D01*
X115377644Y-62211670D01*
X115380038Y-62207945D01*
X115415079Y-62155503D01*
X115415080Y-62155500D01*
X115415084Y-62155495D01*
X115471658Y-62018913D01*
X115496667Y-61893187D01*
X115500500Y-61873920D01*
X115500500Y-61726079D01*
X115471659Y-61581092D01*
X115471658Y-61581091D01*
X115471658Y-61581087D01*
X115440893Y-61506814D01*
X115415087Y-61444511D01*
X115415080Y-61444498D01*
X115332951Y-61321584D01*
X115332948Y-61321580D01*
X115228419Y-61217051D01*
X115228415Y-61217048D01*
X115105501Y-61134919D01*
X115105488Y-61134912D01*
X114968917Y-61078343D01*
X114968907Y-61078340D01*
X114823920Y-61049500D01*
X114823918Y-61049500D01*
X114676082Y-61049500D01*
X114676080Y-61049500D01*
X114531092Y-61078340D01*
X114531082Y-61078343D01*
X114394511Y-61134912D01*
X114394498Y-61134919D01*
X114271584Y-61217048D01*
X114271580Y-61217051D01*
X114167051Y-61321580D01*
X114167048Y-61321584D01*
X114084919Y-61444498D01*
X114084912Y-61444511D01*
X114028343Y-61581082D01*
X114028340Y-61581092D01*
X113999500Y-61726079D01*
X113999500Y-61726082D01*
X113999500Y-61873918D01*
X113999500Y-61873920D01*
X113999499Y-61873920D01*
X113500500Y-61873920D01*
X113500500Y-60434108D01*
X139799500Y-60434108D01*
X139799500Y-60565891D01*
X139833608Y-60693187D01*
X139866554Y-60750250D01*
X139899500Y-60807314D01*
X139992686Y-60900500D01*
X140106814Y-60966392D01*
X140234108Y-61000500D01*
X140234110Y-61000500D01*
X140365890Y-61000500D01*
X140365892Y-61000500D01*
X140493186Y-60966392D01*
X140607314Y-60900500D01*
X140700500Y-60807314D01*
X140766392Y-60693186D01*
X140800500Y-60565892D01*
X140800500Y-60462051D01*
X140820185Y-60395012D01*
X140872989Y-60349257D01*
X140942147Y-60339313D01*
X140986499Y-60354663D01*
X141006814Y-60366392D01*
X141134108Y-60400500D01*
X141134110Y-60400500D01*
X141265890Y-60400500D01*
X141265892Y-60400500D01*
X141393186Y-60366392D01*
X141507314Y-60300500D01*
X141600500Y-60207314D01*
X141666392Y-60093186D01*
X141700500Y-59965892D01*
X141700500Y-59834108D01*
X141666392Y-59706814D01*
X141600500Y-59592686D01*
X141507314Y-59499500D01*
X141450250Y-59466554D01*
X141393187Y-59433608D01*
X141329539Y-59416554D01*
X141265892Y-59399500D01*
X141134108Y-59399500D01*
X141006812Y-59433608D01*
X140892686Y-59499500D01*
X140892683Y-59499502D01*
X140799502Y-59592683D01*
X140799500Y-59592686D01*
X140733608Y-59706812D01*
X140699500Y-59834108D01*
X140699500Y-59937948D01*
X140679815Y-60004987D01*
X140627011Y-60050742D01*
X140557853Y-60060686D01*
X140513502Y-60045336D01*
X140493191Y-60033610D01*
X140493188Y-60033609D01*
X140493187Y-60033608D01*
X140493186Y-60033608D01*
X140365892Y-59999500D01*
X140234108Y-59999500D01*
X140106812Y-60033608D01*
X139992686Y-60099500D01*
X139992683Y-60099502D01*
X139899502Y-60192683D01*
X139899500Y-60192686D01*
X139833608Y-60306812D01*
X139799500Y-60434108D01*
X113500500Y-60434108D01*
X113500500Y-58348011D01*
X131969839Y-58348011D01*
X131998680Y-58492998D01*
X131998683Y-58493008D01*
X132055252Y-58629579D01*
X132055259Y-58629592D01*
X132137388Y-58752506D01*
X132137391Y-58752510D01*
X132241920Y-58857039D01*
X132241924Y-58857042D01*
X132364838Y-58939171D01*
X132364851Y-58939178D01*
X132501422Y-58995747D01*
X132501427Y-58995749D01*
X132501431Y-58995749D01*
X132501432Y-58995750D01*
X132646419Y-59024591D01*
X132646422Y-59024591D01*
X132657816Y-59024591D01*
X132724855Y-59044276D01*
X132770610Y-59097080D01*
X132775847Y-59113300D01*
X132776573Y-59113081D01*
X132778343Y-59118917D01*
X132834912Y-59255488D01*
X132834919Y-59255501D01*
X132917048Y-59378415D01*
X132917051Y-59378419D01*
X133021580Y-59482948D01*
X133021584Y-59482951D01*
X133144498Y-59565080D01*
X133144511Y-59565087D01*
X133211142Y-59592686D01*
X133281087Y-59621658D01*
X133281091Y-59621658D01*
X133281092Y-59621659D01*
X133426079Y-59650500D01*
X133426082Y-59650500D01*
X133573920Y-59650500D01*
X133671462Y-59631096D01*
X133718913Y-59621658D01*
X133855495Y-59565084D01*
X133978416Y-59482951D01*
X134082951Y-59378416D01*
X134165084Y-59255495D01*
X134221658Y-59118913D01*
X134240420Y-59024591D01*
X134250500Y-58973920D01*
X134250500Y-58966669D01*
X134270185Y-58899630D01*
X134322989Y-58853875D01*
X134392147Y-58843931D01*
X134398693Y-58845052D01*
X134426080Y-58850500D01*
X134426081Y-58850500D01*
X134573919Y-58850500D01*
X134671461Y-58831096D01*
X134718912Y-58821658D01*
X134855494Y-58765084D01*
X134978415Y-58682951D01*
X135082950Y-58578416D01*
X135165083Y-58455495D01*
X135221657Y-58318913D01*
X135240553Y-58223920D01*
X147899499Y-58223920D01*
X147928340Y-58368907D01*
X147928343Y-58368917D01*
X147984912Y-58505488D01*
X147984919Y-58505501D01*
X148067051Y-58628420D01*
X148070584Y-58632725D01*
X148097895Y-58697036D01*
X148086101Y-58765903D01*
X148077831Y-58780276D01*
X148034918Y-58844500D01*
X148034912Y-58844511D01*
X147978343Y-58981082D01*
X147978340Y-58981092D01*
X147949500Y-59126079D01*
X147949500Y-59126082D01*
X147949500Y-59273918D01*
X147949500Y-59273920D01*
X147949499Y-59273920D01*
X147978340Y-59418907D01*
X147978343Y-59418917D01*
X148034912Y-59555488D01*
X148034919Y-59555501D01*
X148117048Y-59678415D01*
X148117051Y-59678419D01*
X148221580Y-59782948D01*
X148221584Y-59782951D01*
X148344498Y-59865080D01*
X148344511Y-59865087D01*
X148481082Y-59921656D01*
X148481087Y-59921658D01*
X148481091Y-59921658D01*
X148481092Y-59921659D01*
X148626079Y-59950500D01*
X148626082Y-59950500D01*
X148773920Y-59950500D01*
X148871462Y-59931096D01*
X148918913Y-59921658D01*
X149055495Y-59865084D01*
X149178416Y-59782951D01*
X149282951Y-59678416D01*
X149365084Y-59555495D01*
X149421658Y-59418913D01*
X149450500Y-59273918D01*
X149450500Y-59126082D01*
X149450500Y-59126079D01*
X149421659Y-58981092D01*
X149421658Y-58981091D01*
X149421658Y-58981087D01*
X149404296Y-58939171D01*
X149365087Y-58844511D01*
X149365080Y-58844498D01*
X149282947Y-58721578D01*
X149279416Y-58717275D01*
X149252104Y-58652964D01*
X149263898Y-58584097D01*
X149272169Y-58569722D01*
X149272936Y-58568572D01*
X149315084Y-58505495D01*
X149371658Y-58368913D01*
X149400500Y-58223918D01*
X149400500Y-58076082D01*
X149400500Y-58076079D01*
X149371659Y-57931092D01*
X149371658Y-57931091D01*
X149371658Y-57931087D01*
X149366481Y-57918589D01*
X149315087Y-57794511D01*
X149315080Y-57794498D01*
X149232951Y-57671584D01*
X149232948Y-57671580D01*
X149128419Y-57567051D01*
X149128415Y-57567048D01*
X149005501Y-57484919D01*
X149005488Y-57484912D01*
X148868917Y-57428343D01*
X148868907Y-57428340D01*
X148723920Y-57399500D01*
X148723918Y-57399500D01*
X148576082Y-57399500D01*
X148576080Y-57399500D01*
X148431092Y-57428340D01*
X148431082Y-57428343D01*
X148294511Y-57484912D01*
X148294498Y-57484919D01*
X148171584Y-57567048D01*
X148171580Y-57567051D01*
X148067051Y-57671580D01*
X148067048Y-57671584D01*
X147984919Y-57794498D01*
X147984912Y-57794511D01*
X147928343Y-57931082D01*
X147928340Y-57931092D01*
X147899500Y-58076079D01*
X147899500Y-58076082D01*
X147899500Y-58223918D01*
X147899500Y-58223920D01*
X147899499Y-58223920D01*
X135240553Y-58223920D01*
X135240553Y-58223918D01*
X135250499Y-58173920D01*
X135250499Y-58026079D01*
X135221658Y-57881092D01*
X135221657Y-57881091D01*
X135221657Y-57881087D01*
X135207232Y-57846262D01*
X135165086Y-57744511D01*
X135165079Y-57744498D01*
X135082951Y-57621585D01*
X135073532Y-57612166D01*
X135059200Y-57597834D01*
X135025716Y-57536514D01*
X135027919Y-57481827D01*
X135026600Y-57481565D01*
X135056630Y-57330598D01*
X135056630Y-57182757D01*
X135027789Y-57037770D01*
X135027788Y-57037769D01*
X135027788Y-57037765D01*
X135027786Y-57037760D01*
X134971217Y-56901189D01*
X134971210Y-56901176D01*
X134889081Y-56778262D01*
X134889078Y-56778258D01*
X134784549Y-56673729D01*
X134784545Y-56673726D01*
X134661631Y-56591597D01*
X134661618Y-56591590D01*
X134525047Y-56535021D01*
X134525037Y-56535018D01*
X134380050Y-56506178D01*
X134380048Y-56506178D01*
X134232212Y-56506178D01*
X134232210Y-56506178D01*
X134087222Y-56535018D01*
X134087212Y-56535021D01*
X133950641Y-56591590D01*
X133950628Y-56591597D01*
X133827714Y-56673726D01*
X133827710Y-56673729D01*
X133723181Y-56778258D01*
X133723178Y-56778262D01*
X133641049Y-56901176D01*
X133641042Y-56901189D01*
X133584473Y-57037760D01*
X133584470Y-57037770D01*
X133555630Y-57182757D01*
X133555630Y-57182760D01*
X133555630Y-57330596D01*
X133555630Y-57330598D01*
X133555629Y-57330598D01*
X133584470Y-57475585D01*
X133584473Y-57475595D01*
X133641042Y-57612166D01*
X133641049Y-57612179D01*
X133723178Y-57735093D01*
X133723181Y-57735097D01*
X133746926Y-57758842D01*
X133759465Y-57781807D01*
X133775237Y-57802685D01*
X133775942Y-57811981D01*
X133780411Y-57820165D01*
X133778544Y-57846262D01*
X133780525Y-57872354D01*
X133778561Y-57879978D01*
X133749499Y-58026079D01*
X133749499Y-58033330D01*
X133729814Y-58100369D01*
X133677010Y-58146124D01*
X133607852Y-58156068D01*
X133601310Y-58154948D01*
X133573919Y-58149500D01*
X133573918Y-58149500D01*
X133562524Y-58149500D01*
X133558405Y-58148290D01*
X133554216Y-58149221D01*
X133525176Y-58138533D01*
X133495485Y-58129815D01*
X133492674Y-58126571D01*
X133488646Y-58125089D01*
X133469991Y-58100394D01*
X133449730Y-58077011D01*
X133447790Y-58071003D01*
X133446532Y-58069338D01*
X133446310Y-58066421D01*
X133444492Y-58060790D01*
X133443767Y-58061010D01*
X133441996Y-58055173D01*
X133385427Y-57918602D01*
X133385420Y-57918589D01*
X133303291Y-57795675D01*
X133303288Y-57795671D01*
X133198759Y-57691142D01*
X133198755Y-57691139D01*
X133075841Y-57609010D01*
X133075828Y-57609003D01*
X132939257Y-57552434D01*
X132939247Y-57552431D01*
X132794260Y-57523591D01*
X132794258Y-57523591D01*
X132646422Y-57523591D01*
X132646420Y-57523591D01*
X132501432Y-57552431D01*
X132501422Y-57552434D01*
X132364851Y-57609003D01*
X132364838Y-57609010D01*
X132241924Y-57691139D01*
X132241920Y-57691142D01*
X132137391Y-57795671D01*
X132137388Y-57795675D01*
X132055259Y-57918589D01*
X132055252Y-57918602D01*
X131998683Y-58055173D01*
X131998680Y-58055183D01*
X131969840Y-58200170D01*
X131969840Y-58200173D01*
X131969840Y-58348009D01*
X131969840Y-58348011D01*
X131969839Y-58348011D01*
X113500500Y-58348011D01*
X113500500Y-56373920D01*
X145949499Y-56373920D01*
X145978340Y-56518907D01*
X145978343Y-56518917D01*
X146034914Y-56655493D01*
X146034915Y-56655495D01*
X146052031Y-56681111D01*
X146072908Y-56747789D01*
X146054422Y-56815169D01*
X146052031Y-56818889D01*
X146034915Y-56844504D01*
X146034914Y-56844506D01*
X145978343Y-56981082D01*
X145978340Y-56981092D01*
X145949500Y-57126079D01*
X145949500Y-57126082D01*
X145949500Y-57273918D01*
X145949500Y-57273920D01*
X145949499Y-57273920D01*
X145978340Y-57418907D01*
X145978343Y-57418917D01*
X146034912Y-57555488D01*
X146034919Y-57555501D01*
X146117048Y-57678415D01*
X146117051Y-57678419D01*
X146221580Y-57782948D01*
X146221584Y-57782951D01*
X146344498Y-57865080D01*
X146344511Y-57865087D01*
X146473709Y-57918602D01*
X146481087Y-57921658D01*
X146481091Y-57921658D01*
X146481092Y-57921659D01*
X146626079Y-57950500D01*
X146626082Y-57950500D01*
X146773920Y-57950500D01*
X146784613Y-57948373D01*
X146876514Y-57930091D01*
X146918913Y-57921658D01*
X147055495Y-57865084D01*
X147178416Y-57782951D01*
X147282951Y-57678416D01*
X147365084Y-57555495D01*
X147421658Y-57418913D01*
X147431096Y-57371462D01*
X147450500Y-57273920D01*
X147450500Y-57126079D01*
X147421659Y-56981092D01*
X147421658Y-56981091D01*
X147421658Y-56981087D01*
X147365084Y-56844505D01*
X147347967Y-56818889D01*
X147327090Y-56752216D01*
X147345573Y-56684835D01*
X147347933Y-56681161D01*
X147365084Y-56655495D01*
X147421658Y-56518913D01*
X147448179Y-56385584D01*
X147480564Y-56323674D01*
X147541279Y-56289100D01*
X147611049Y-56292839D01*
X147617233Y-56295208D01*
X147681087Y-56321658D01*
X147681091Y-56321658D01*
X147681092Y-56321659D01*
X147826079Y-56350500D01*
X147826082Y-56350500D01*
X147973920Y-56350500D01*
X148071462Y-56331096D01*
X148118913Y-56321658D01*
X148255495Y-56265084D01*
X148378416Y-56182951D01*
X148482951Y-56078416D01*
X148565084Y-55955495D01*
X148621658Y-55818913D01*
X148641921Y-55717048D01*
X148650500Y-55673920D01*
X148650500Y-55526079D01*
X148621659Y-55381092D01*
X148621658Y-55381091D01*
X148621658Y-55381087D01*
X148614610Y-55364071D01*
X157649499Y-55364071D01*
X157674497Y-55489738D01*
X157674499Y-55489744D01*
X157723533Y-55608124D01*
X157723538Y-55608133D01*
X157794723Y-55714668D01*
X157794726Y-55714672D01*
X157885327Y-55805273D01*
X157885331Y-55805276D01*
X157991866Y-55876461D01*
X157991875Y-55876466D01*
X157996583Y-55878416D01*
X158110256Y-55925501D01*
X158110260Y-55925501D01*
X158110261Y-55925502D01*
X158235928Y-55950500D01*
X158235931Y-55950500D01*
X158364071Y-55950500D01*
X158448615Y-55933682D01*
X158489744Y-55925501D01*
X158608127Y-55876465D01*
X158714669Y-55805276D01*
X158805276Y-55714669D01*
X158876465Y-55608127D01*
X158925501Y-55489744D01*
X158930608Y-55464071D01*
X160774499Y-55464071D01*
X160799497Y-55589738D01*
X160799499Y-55589744D01*
X160848533Y-55708124D01*
X160848538Y-55708133D01*
X160919723Y-55814668D01*
X160919726Y-55814672D01*
X161010327Y-55905273D01*
X161010331Y-55905276D01*
X161116866Y-55976461D01*
X161116875Y-55976466D01*
X161143692Y-55987574D01*
X161235256Y-56025501D01*
X161235260Y-56025501D01*
X161235261Y-56025502D01*
X161360928Y-56050500D01*
X161360931Y-56050500D01*
X161489071Y-56050500D01*
X161573615Y-56033682D01*
X161614744Y-56025501D01*
X161733127Y-55976465D01*
X161839669Y-55905276D01*
X161930276Y-55814669D01*
X162001465Y-55708127D01*
X162050501Y-55589744D01*
X162070394Y-55489738D01*
X162075500Y-55464071D01*
X162075500Y-55335928D01*
X162050502Y-55210261D01*
X162050501Y-55210260D01*
X162050501Y-55210256D01*
X162001465Y-55091873D01*
X162001464Y-55091872D01*
X162001461Y-55091866D01*
X161930276Y-54985331D01*
X161930273Y-54985327D01*
X161839672Y-54894726D01*
X161839668Y-54894723D01*
X161733133Y-54823538D01*
X161733124Y-54823533D01*
X161614744Y-54774499D01*
X161614738Y-54774497D01*
X161489071Y-54749500D01*
X161489069Y-54749500D01*
X161360931Y-54749500D01*
X161360929Y-54749500D01*
X161235261Y-54774497D01*
X161235255Y-54774499D01*
X161116875Y-54823533D01*
X161116866Y-54823538D01*
X161010331Y-54894723D01*
X161010327Y-54894726D01*
X160919726Y-54985327D01*
X160919723Y-54985331D01*
X160848538Y-55091866D01*
X160848533Y-55091875D01*
X160799499Y-55210255D01*
X160799497Y-55210261D01*
X160774500Y-55335928D01*
X160774500Y-55335931D01*
X160774500Y-55464069D01*
X160774500Y-55464071D01*
X160774499Y-55464071D01*
X158930608Y-55464071D01*
X158950500Y-55364069D01*
X158950500Y-55235931D01*
X158950500Y-55235928D01*
X158925502Y-55110261D01*
X158925501Y-55110260D01*
X158925501Y-55110256D01*
X158876465Y-54991873D01*
X158876464Y-54991872D01*
X158876461Y-54991866D01*
X158805276Y-54885331D01*
X158805273Y-54885327D01*
X158714672Y-54794726D01*
X158714668Y-54794723D01*
X158608133Y-54723538D01*
X158608124Y-54723533D01*
X158489744Y-54674499D01*
X158489738Y-54674497D01*
X158364071Y-54649500D01*
X158364069Y-54649500D01*
X158235931Y-54649500D01*
X158235929Y-54649500D01*
X158110261Y-54674497D01*
X158110255Y-54674499D01*
X157991875Y-54723533D01*
X157991866Y-54723538D01*
X157885331Y-54794723D01*
X157885327Y-54794726D01*
X157794726Y-54885327D01*
X157794723Y-54885331D01*
X157723538Y-54991866D01*
X157723533Y-54991875D01*
X157674499Y-55110255D01*
X157674497Y-55110261D01*
X157649500Y-55235928D01*
X157649500Y-55235931D01*
X157649500Y-55364069D01*
X157649500Y-55364071D01*
X157649499Y-55364071D01*
X148614610Y-55364071D01*
X148602953Y-55335928D01*
X148578665Y-55277291D01*
X148565085Y-55244507D01*
X148565080Y-55244498D01*
X148482951Y-55121584D01*
X148482948Y-55121580D01*
X148378419Y-55017051D01*
X148378415Y-55017048D01*
X148255501Y-54934919D01*
X148255488Y-54934912D01*
X148118917Y-54878343D01*
X148118907Y-54878340D01*
X147973920Y-54849500D01*
X147973918Y-54849500D01*
X147908676Y-54849500D01*
X147841637Y-54829815D01*
X147820995Y-54813181D01*
X147807316Y-54799502D01*
X147807314Y-54799500D01*
X147693186Y-54733608D01*
X147591119Y-54706259D01*
X147535534Y-54674167D01*
X147478416Y-54617049D01*
X147478415Y-54617048D01*
X147478414Y-54617047D01*
X147355501Y-54534919D01*
X147355488Y-54534912D01*
X147218917Y-54478343D01*
X147218907Y-54478340D01*
X147073920Y-54449500D01*
X147073918Y-54449500D01*
X146926082Y-54449500D01*
X146926080Y-54449500D01*
X146781092Y-54478340D01*
X146781082Y-54478343D01*
X146644511Y-54534912D01*
X146644498Y-54534919D01*
X146521584Y-54617048D01*
X146521580Y-54617051D01*
X146417051Y-54721580D01*
X146417048Y-54721584D01*
X146334919Y-54844498D01*
X146334912Y-54844511D01*
X146278343Y-54981082D01*
X146278340Y-54981092D01*
X146249500Y-55126079D01*
X146249500Y-55126082D01*
X146249500Y-55273918D01*
X146249500Y-55273920D01*
X146249499Y-55273920D01*
X146278340Y-55418907D01*
X146278342Y-55418913D01*
X146315294Y-55508124D01*
X146323817Y-55528699D01*
X146331286Y-55598169D01*
X146300011Y-55660648D01*
X146278147Y-55679254D01*
X146221584Y-55717048D01*
X146221580Y-55717051D01*
X146117051Y-55821580D01*
X146117048Y-55821584D01*
X146034919Y-55944498D01*
X146034912Y-55944511D01*
X145978343Y-56081082D01*
X145978340Y-56081092D01*
X145949500Y-56226079D01*
X145949500Y-56226082D01*
X145949500Y-56373918D01*
X145949500Y-56373920D01*
X145949499Y-56373920D01*
X113500500Y-56373920D01*
X113500500Y-54573920D01*
X123949499Y-54573920D01*
X123978340Y-54718907D01*
X123978343Y-54718917D01*
X124034914Y-54855493D01*
X124034915Y-54855495D01*
X124052031Y-54881111D01*
X124072908Y-54947789D01*
X124054422Y-55015169D01*
X124052031Y-55018889D01*
X124034915Y-55044504D01*
X124034914Y-55044506D01*
X123978343Y-55181082D01*
X123978340Y-55181092D01*
X123949500Y-55326079D01*
X123949500Y-55326082D01*
X123949500Y-55473918D01*
X123949500Y-55473920D01*
X123949499Y-55473920D01*
X123978340Y-55618907D01*
X123978343Y-55618917D01*
X124034912Y-55755488D01*
X124034919Y-55755501D01*
X124117048Y-55878415D01*
X124117051Y-55878419D01*
X124221580Y-55982948D01*
X124221584Y-55982951D01*
X124344498Y-56065080D01*
X124344511Y-56065087D01*
X124481082Y-56121656D01*
X124481087Y-56121658D01*
X124481091Y-56121658D01*
X124481092Y-56121659D01*
X124626079Y-56150500D01*
X124626082Y-56150500D01*
X124773920Y-56150500D01*
X124871462Y-56131096D01*
X124918913Y-56121658D01*
X125055495Y-56065084D01*
X125178416Y-55982951D01*
X125282951Y-55878416D01*
X125365084Y-55755495D01*
X125421658Y-55618913D01*
X125450500Y-55473918D01*
X125450500Y-55326082D01*
X125450500Y-55326079D01*
X125438165Y-55264071D01*
X139549499Y-55264071D01*
X139574497Y-55389738D01*
X139574499Y-55389744D01*
X139623533Y-55508124D01*
X139623538Y-55508133D01*
X139694723Y-55614668D01*
X139694726Y-55614672D01*
X139785327Y-55705273D01*
X139785331Y-55705276D01*
X139891866Y-55776461D01*
X139891872Y-55776464D01*
X139891873Y-55776465D01*
X140010256Y-55825501D01*
X140010260Y-55825501D01*
X140010261Y-55825502D01*
X140135928Y-55850500D01*
X140135931Y-55850500D01*
X140264071Y-55850500D01*
X140348615Y-55833682D01*
X140389744Y-55825501D01*
X140508127Y-55776465D01*
X140515712Y-55771396D01*
X140582389Y-55750520D01*
X140584601Y-55750500D01*
X140715399Y-55750500D01*
X140782438Y-55770185D01*
X140784252Y-55771373D01*
X140791873Y-55776465D01*
X140910256Y-55825501D01*
X140910260Y-55825501D01*
X140910261Y-55825502D01*
X141035928Y-55850500D01*
X141035931Y-55850500D01*
X141164071Y-55850500D01*
X141248615Y-55833682D01*
X141289744Y-55825501D01*
X141408127Y-55776465D01*
X141514669Y-55705276D01*
X141605276Y-55614669D01*
X141676465Y-55508127D01*
X141725501Y-55389744D01*
X141747870Y-55277291D01*
X141750500Y-55264071D01*
X141750500Y-55135928D01*
X141725502Y-55010261D01*
X141725501Y-55010260D01*
X141725501Y-55010256D01*
X141676465Y-54891873D01*
X141676464Y-54891872D01*
X141676461Y-54891866D01*
X141605276Y-54785331D01*
X141605273Y-54785327D01*
X141514672Y-54694726D01*
X141514668Y-54694723D01*
X141408133Y-54623538D01*
X141408124Y-54623533D01*
X141289744Y-54574499D01*
X141289738Y-54574497D01*
X141164071Y-54549500D01*
X141164069Y-54549500D01*
X141035931Y-54549500D01*
X141035929Y-54549500D01*
X140910261Y-54574497D01*
X140910255Y-54574499D01*
X140791876Y-54623533D01*
X140791873Y-54623534D01*
X140791873Y-54623535D01*
X140784287Y-54628603D01*
X140717611Y-54649480D01*
X140715399Y-54649500D01*
X140584601Y-54649500D01*
X140517562Y-54629815D01*
X140515747Y-54628626D01*
X140508127Y-54623535D01*
X140508124Y-54623533D01*
X140508123Y-54623533D01*
X140389744Y-54574499D01*
X140389738Y-54574497D01*
X140264071Y-54549500D01*
X140264069Y-54549500D01*
X140135931Y-54549500D01*
X140135929Y-54549500D01*
X140010261Y-54574497D01*
X140010255Y-54574499D01*
X139891875Y-54623533D01*
X139891866Y-54623538D01*
X139785331Y-54694723D01*
X139785327Y-54694726D01*
X139694726Y-54785327D01*
X139694723Y-54785331D01*
X139623538Y-54891866D01*
X139623533Y-54891875D01*
X139574499Y-55010255D01*
X139574497Y-55010261D01*
X139549500Y-55135928D01*
X139549500Y-55135931D01*
X139549500Y-55264069D01*
X139549500Y-55264071D01*
X139549499Y-55264071D01*
X125438165Y-55264071D01*
X125421659Y-55181092D01*
X125421658Y-55181091D01*
X125421658Y-55181087D01*
X125365084Y-55044505D01*
X125342649Y-55010930D01*
X125338620Y-55002259D01*
X125334785Y-54976793D01*
X125327090Y-54952216D01*
X125329669Y-54942811D01*
X125328218Y-54933168D01*
X125338759Y-54909672D01*
X125345573Y-54884835D01*
X125347933Y-54881161D01*
X125365084Y-54855495D01*
X125421658Y-54718913D01*
X125431096Y-54671462D01*
X125450500Y-54573920D01*
X125450500Y-54426079D01*
X125421659Y-54281092D01*
X125421658Y-54281091D01*
X125421658Y-54281087D01*
X125421656Y-54281082D01*
X125365087Y-54144511D01*
X125365080Y-54144498D01*
X125324252Y-54083395D01*
X125303374Y-54016718D01*
X125321858Y-53949337D01*
X125373837Y-53902647D01*
X125407956Y-53892031D01*
X125541118Y-53870940D01*
X125591339Y-53854622D01*
X125720832Y-53812547D01*
X125889199Y-53726760D01*
X126042073Y-53615690D01*
X126175690Y-53482073D01*
X126286760Y-53329199D01*
X126372547Y-53160832D01*
X126412069Y-53039195D01*
X126451507Y-52981521D01*
X126515866Y-52954323D01*
X126584712Y-52966238D01*
X126636188Y-53013482D01*
X126647931Y-53039196D01*
X126687454Y-53160836D01*
X126773237Y-53329194D01*
X126773240Y-53329199D01*
X126884310Y-53482073D01*
X127017927Y-53615690D01*
X127170801Y-53726760D01*
X127215431Y-53749500D01*
X127339163Y-53812545D01*
X127339165Y-53812545D01*
X127339168Y-53812547D01*
X127435497Y-53843846D01*
X127518881Y-53870940D01*
X127705514Y-53900500D01*
X127705519Y-53900500D01*
X127894486Y-53900500D01*
X128081118Y-53870940D01*
X128131339Y-53854622D01*
X128260832Y-53812547D01*
X128429199Y-53726760D01*
X128582073Y-53615690D01*
X128715690Y-53482073D01*
X128826760Y-53329199D01*
X128875621Y-53233302D01*
X128923595Y-53182507D01*
X128991416Y-53165712D01*
X129057551Y-53188249D01*
X129096591Y-53233303D01*
X129185375Y-53407550D01*
X129224728Y-53461716D01*
X129857037Y-52829408D01*
X129874075Y-52892993D01*
X129939901Y-53007007D01*
X130032993Y-53100099D01*
X130147007Y-53165925D01*
X130210590Y-53182962D01*
X129578282Y-53815269D01*
X129578282Y-53815270D01*
X129632449Y-53854624D01*
X129821782Y-53951095D01*
X130023870Y-54016757D01*
X130233754Y-54050000D01*
X130446246Y-54050000D01*
X130656127Y-54016757D01*
X130656130Y-54016757D01*
X130858217Y-53951095D01*
X131047554Y-53854622D01*
X131101716Y-53815270D01*
X131101717Y-53815270D01*
X130469408Y-53182962D01*
X130532993Y-53165925D01*
X130647007Y-53100099D01*
X130740099Y-53007007D01*
X130805925Y-52892993D01*
X130822962Y-52829408D01*
X131455270Y-53461717D01*
X131455270Y-53461716D01*
X131494622Y-53407554D01*
X131583408Y-53233303D01*
X131631382Y-53182507D01*
X131699203Y-53165712D01*
X131765338Y-53188249D01*
X131804377Y-53233303D01*
X131853236Y-53329194D01*
X131853240Y-53329199D01*
X131964310Y-53482073D01*
X132097927Y-53615690D01*
X132250801Y-53726760D01*
X132295431Y-53749500D01*
X132419163Y-53812545D01*
X132419165Y-53812545D01*
X132419168Y-53812547D01*
X132515497Y-53843846D01*
X132598881Y-53870940D01*
X132785514Y-53900500D01*
X132785519Y-53900500D01*
X132974486Y-53900500D01*
X133161118Y-53870940D01*
X133211339Y-53854622D01*
X133340832Y-53812547D01*
X133509199Y-53726760D01*
X133662073Y-53615690D01*
X133795690Y-53482073D01*
X133906760Y-53329199D01*
X133992547Y-53160832D01*
X134032069Y-53039195D01*
X134071507Y-52981521D01*
X134135866Y-52954323D01*
X134204712Y-52966238D01*
X134256188Y-53013482D01*
X134267931Y-53039196D01*
X134307454Y-53160836D01*
X134393237Y-53329194D01*
X134393240Y-53329199D01*
X134504310Y-53482073D01*
X134637927Y-53615690D01*
X134790801Y-53726760D01*
X134835431Y-53749500D01*
X134959163Y-53812545D01*
X134959165Y-53812545D01*
X134959168Y-53812547D01*
X135055497Y-53843846D01*
X135138881Y-53870940D01*
X135325514Y-53900500D01*
X135325519Y-53900500D01*
X135514486Y-53900500D01*
X135701118Y-53870940D01*
X135751339Y-53854622D01*
X135880832Y-53812547D01*
X136049199Y-53726760D01*
X136202073Y-53615690D01*
X136335690Y-53482073D01*
X136446760Y-53329199D01*
X136495621Y-53233302D01*
X136543595Y-53182507D01*
X136611416Y-53165712D01*
X136677551Y-53188249D01*
X136716591Y-53233303D01*
X136805375Y-53407550D01*
X136844728Y-53461716D01*
X137477036Y-52829407D01*
X137494075Y-52892993D01*
X137559901Y-53007007D01*
X137652993Y-53100099D01*
X137767007Y-53165925D01*
X137830590Y-53182962D01*
X137198282Y-53815269D01*
X137198282Y-53815270D01*
X137252449Y-53854624D01*
X137441782Y-53951095D01*
X137643870Y-54016757D01*
X137853754Y-54050000D01*
X138066246Y-54050000D01*
X138276127Y-54016757D01*
X138276130Y-54016757D01*
X138478217Y-53951095D01*
X138667554Y-53854622D01*
X138721716Y-53815270D01*
X138721717Y-53815270D01*
X138089408Y-53182962D01*
X138152993Y-53165925D01*
X138267007Y-53100099D01*
X138360099Y-53007007D01*
X138425925Y-52892993D01*
X138442962Y-52829408D01*
X139075270Y-53461717D01*
X139075270Y-53461716D01*
X139114622Y-53407554D01*
X139203408Y-53233303D01*
X139251382Y-53182507D01*
X139319203Y-53165712D01*
X139385338Y-53188249D01*
X139424377Y-53233303D01*
X139473236Y-53329194D01*
X139473240Y-53329199D01*
X139584310Y-53482073D01*
X139717927Y-53615690D01*
X139870801Y-53726760D01*
X139915431Y-53749500D01*
X140039163Y-53812545D01*
X140039165Y-53812545D01*
X140039168Y-53812547D01*
X140135497Y-53843846D01*
X140218881Y-53870940D01*
X140405514Y-53900500D01*
X140405519Y-53900500D01*
X140594486Y-53900500D01*
X140781118Y-53870940D01*
X140831339Y-53854622D01*
X140960832Y-53812547D01*
X141129199Y-53726760D01*
X141282073Y-53615690D01*
X141415690Y-53482073D01*
X141526760Y-53329199D01*
X141612547Y-53160832D01*
X141652069Y-53039195D01*
X141691507Y-52981521D01*
X141755866Y-52954323D01*
X141824712Y-52966238D01*
X141876188Y-53013482D01*
X141887931Y-53039196D01*
X141927454Y-53160836D01*
X142013237Y-53329194D01*
X142013240Y-53329199D01*
X142124310Y-53482073D01*
X142257927Y-53615690D01*
X142410801Y-53726760D01*
X142455431Y-53749500D01*
X142579163Y-53812545D01*
X142579165Y-53812545D01*
X142579168Y-53812547D01*
X142675497Y-53843846D01*
X142758881Y-53870940D01*
X142945514Y-53900500D01*
X142945519Y-53900500D01*
X143134486Y-53900500D01*
X143321118Y-53870940D01*
X143371339Y-53854622D01*
X143500832Y-53812547D01*
X143669199Y-53726760D01*
X143822073Y-53615690D01*
X143955690Y-53482073D01*
X144066760Y-53329199D01*
X144152547Y-53160832D01*
X144192069Y-53039195D01*
X144231507Y-52981521D01*
X144295866Y-52954323D01*
X144364712Y-52966238D01*
X144416188Y-53013482D01*
X144427931Y-53039196D01*
X144467454Y-53160836D01*
X144553237Y-53329194D01*
X144553240Y-53329199D01*
X144664310Y-53482073D01*
X144797927Y-53615690D01*
X144950801Y-53726760D01*
X144995431Y-53749500D01*
X145119163Y-53812545D01*
X145119165Y-53812545D01*
X145119168Y-53812547D01*
X145215497Y-53843846D01*
X145298881Y-53870940D01*
X145485514Y-53900500D01*
X145485519Y-53900500D01*
X145674486Y-53900500D01*
X145861118Y-53870940D01*
X145911339Y-53854622D01*
X146040832Y-53812547D01*
X146209199Y-53726760D01*
X146362073Y-53615690D01*
X146495690Y-53482073D01*
X146606760Y-53329199D01*
X146692547Y-53160832D01*
X146732069Y-53039195D01*
X146771507Y-52981521D01*
X146835866Y-52954323D01*
X146904712Y-52966238D01*
X146956188Y-53013482D01*
X146967931Y-53039196D01*
X147007454Y-53160836D01*
X147093237Y-53329194D01*
X147093240Y-53329199D01*
X147204310Y-53482073D01*
X147337927Y-53615690D01*
X147490801Y-53726760D01*
X147535431Y-53749500D01*
X147659163Y-53812545D01*
X147659165Y-53812545D01*
X147659168Y-53812547D01*
X147755497Y-53843846D01*
X147838881Y-53870940D01*
X148025514Y-53900500D01*
X148025519Y-53900500D01*
X148214486Y-53900500D01*
X148401118Y-53870940D01*
X148451339Y-53854622D01*
X148580832Y-53812547D01*
X148749199Y-53726760D01*
X148902073Y-53615690D01*
X149035690Y-53482073D01*
X149146760Y-53329199D01*
X149232547Y-53160832D01*
X149272069Y-53039195D01*
X149311507Y-52981521D01*
X149375866Y-52954323D01*
X149444712Y-52966238D01*
X149496188Y-53013482D01*
X149507931Y-53039196D01*
X149547454Y-53160836D01*
X149633237Y-53329194D01*
X149633240Y-53329199D01*
X149744310Y-53482073D01*
X149877927Y-53615690D01*
X150030801Y-53726760D01*
X150075431Y-53749500D01*
X150199163Y-53812545D01*
X150199165Y-53812545D01*
X150199168Y-53812547D01*
X150295497Y-53843846D01*
X150378881Y-53870940D01*
X150565514Y-53900500D01*
X150565519Y-53900500D01*
X150754486Y-53900500D01*
X150941118Y-53870940D01*
X150991339Y-53854622D01*
X151120832Y-53812547D01*
X151289199Y-53726760D01*
X151442073Y-53615690D01*
X151575690Y-53482073D01*
X151625682Y-53413264D01*
X151681012Y-53370599D01*
X151750625Y-53364620D01*
X151812420Y-53397226D01*
X151846777Y-53458064D01*
X151850000Y-53486150D01*
X151850000Y-53597844D01*
X151856401Y-53657372D01*
X151856403Y-53657379D01*
X151906645Y-53792086D01*
X151906649Y-53792093D01*
X151992809Y-53907187D01*
X151992812Y-53907190D01*
X152107906Y-53993350D01*
X152107913Y-53993354D01*
X152242620Y-54043596D01*
X152242627Y-54043598D01*
X152302155Y-54049999D01*
X152302172Y-54050000D01*
X152950000Y-54050000D01*
X152950000Y-53133012D01*
X153007007Y-53165925D01*
X153134174Y-53200000D01*
X153265826Y-53200000D01*
X153392993Y-53165925D01*
X153450000Y-53133012D01*
X153450000Y-54050000D01*
X154097828Y-54050000D01*
X154097844Y-54049999D01*
X154157372Y-54043598D01*
X154157379Y-54043596D01*
X154292086Y-53993354D01*
X154292093Y-53993350D01*
X154407187Y-53907190D01*
X154407190Y-53907187D01*
X154493350Y-53792093D01*
X154493354Y-53792086D01*
X154543596Y-53657379D01*
X154543598Y-53657372D01*
X154549999Y-53597844D01*
X154550000Y-53597827D01*
X154550000Y-52950000D01*
X153633012Y-52950000D01*
X153665925Y-52892993D01*
X153700000Y-52765826D01*
X153700000Y-52634174D01*
X153665925Y-52507007D01*
X153633012Y-52450000D01*
X154550000Y-52450000D01*
X154550000Y-51802172D01*
X154549999Y-51802155D01*
X154543598Y-51742627D01*
X154543596Y-51742620D01*
X154526349Y-51696377D01*
X156649499Y-51696377D01*
X156678340Y-51841364D01*
X156678343Y-51841374D01*
X156734912Y-51977945D01*
X156734919Y-51977958D01*
X156817048Y-52100872D01*
X156817051Y-52100876D01*
X156921580Y-52205405D01*
X156921584Y-52205408D01*
X157044498Y-52287537D01*
X157044511Y-52287544D01*
X157160723Y-52335680D01*
X157181087Y-52344115D01*
X157181091Y-52344115D01*
X157181092Y-52344116D01*
X157326079Y-52372957D01*
X157326082Y-52372957D01*
X157473920Y-52372957D01*
X157571462Y-52353553D01*
X157618913Y-52344115D01*
X157755495Y-52287541D01*
X157878416Y-52205408D01*
X157982951Y-52100873D01*
X158065084Y-51977952D01*
X158121658Y-51841370D01*
X158150500Y-51696375D01*
X158150500Y-51548539D01*
X158150500Y-51548536D01*
X158121659Y-51403549D01*
X158121658Y-51403548D01*
X158121658Y-51403544D01*
X158108239Y-51371148D01*
X158065087Y-51266968D01*
X158065080Y-51266955D01*
X157982951Y-51144041D01*
X157982948Y-51144037D01*
X157878419Y-51039508D01*
X157878415Y-51039505D01*
X157755501Y-50957376D01*
X157755488Y-50957369D01*
X157618917Y-50900800D01*
X157618907Y-50900797D01*
X157473920Y-50871957D01*
X157473918Y-50871957D01*
X157326082Y-50871957D01*
X157326080Y-50871957D01*
X157181092Y-50900797D01*
X157181082Y-50900800D01*
X157044511Y-50957369D01*
X157044498Y-50957376D01*
X156921584Y-51039505D01*
X156921580Y-51039508D01*
X156817051Y-51144037D01*
X156817048Y-51144041D01*
X156734919Y-51266955D01*
X156734912Y-51266968D01*
X156678343Y-51403539D01*
X156678340Y-51403549D01*
X156649500Y-51548536D01*
X156649500Y-51548539D01*
X156649500Y-51696375D01*
X156649500Y-51696377D01*
X156649499Y-51696377D01*
X154526349Y-51696377D01*
X154493354Y-51607913D01*
X154493350Y-51607906D01*
X154407190Y-51492812D01*
X154407187Y-51492809D01*
X154292093Y-51406649D01*
X154292086Y-51406645D01*
X154157379Y-51356403D01*
X154157372Y-51356401D01*
X154097844Y-51350000D01*
X153450000Y-51350000D01*
X153450000Y-52266988D01*
X153392993Y-52234075D01*
X153265826Y-52200000D01*
X153134174Y-52200000D01*
X153007007Y-52234075D01*
X152950000Y-52266988D01*
X152950000Y-51350000D01*
X152302155Y-51350000D01*
X152242627Y-51356401D01*
X152242620Y-51356403D01*
X152107913Y-51406645D01*
X152107906Y-51406649D01*
X151992812Y-51492809D01*
X151992809Y-51492812D01*
X151906649Y-51607906D01*
X151906645Y-51607913D01*
X151856403Y-51742620D01*
X151856401Y-51742627D01*
X151850000Y-51802155D01*
X151850000Y-51913849D01*
X151830315Y-51980888D01*
X151777511Y-52026643D01*
X151708353Y-52036587D01*
X151644797Y-52007562D01*
X151625682Y-51986735D01*
X151619296Y-51977945D01*
X151575690Y-51917927D01*
X151442073Y-51784310D01*
X151289199Y-51673240D01*
X151120836Y-51587454D01*
X150941118Y-51529059D01*
X150754486Y-51499500D01*
X150754481Y-51499500D01*
X150565519Y-51499500D01*
X150565514Y-51499500D01*
X150378881Y-51529059D01*
X150199163Y-51587454D01*
X150030800Y-51673240D01*
X149949505Y-51732305D01*
X149877927Y-51784310D01*
X149877925Y-51784312D01*
X149877924Y-51784312D01*
X149744312Y-51917924D01*
X149744312Y-51917925D01*
X149744310Y-51917927D01*
X149700704Y-51977945D01*
X149633240Y-52070800D01*
X149547454Y-52239163D01*
X149507931Y-52360803D01*
X149468493Y-52418478D01*
X149404134Y-52445676D01*
X149335288Y-52433761D01*
X149283812Y-52386516D01*
X149272069Y-52360803D01*
X149232545Y-52239163D01*
X149146759Y-52070800D01*
X149035690Y-51917927D01*
X148902073Y-51784310D01*
X148749199Y-51673240D01*
X148580836Y-51587454D01*
X148401118Y-51529059D01*
X148214486Y-51499500D01*
X148214481Y-51499500D01*
X148025519Y-51499500D01*
X148025514Y-51499500D01*
X147838881Y-51529059D01*
X147659163Y-51587454D01*
X147490800Y-51673240D01*
X147409505Y-51732305D01*
X147337927Y-51784310D01*
X147337925Y-51784312D01*
X147337924Y-51784312D01*
X147204312Y-51917924D01*
X147204312Y-51917925D01*
X147204310Y-51917927D01*
X147160704Y-51977945D01*
X147093240Y-52070800D01*
X147007454Y-52239163D01*
X146967931Y-52360803D01*
X146928493Y-52418478D01*
X146864134Y-52445676D01*
X146795288Y-52433761D01*
X146743812Y-52386516D01*
X146732069Y-52360803D01*
X146692545Y-52239163D01*
X146606759Y-52070800D01*
X146495690Y-51917927D01*
X146362073Y-51784310D01*
X146209199Y-51673240D01*
X146040836Y-51587454D01*
X145861118Y-51529059D01*
X145674486Y-51499500D01*
X145674481Y-51499500D01*
X145485519Y-51499500D01*
X145485514Y-51499500D01*
X145298881Y-51529059D01*
X145119163Y-51587454D01*
X144950800Y-51673240D01*
X144869505Y-51732305D01*
X144797927Y-51784310D01*
X144797925Y-51784312D01*
X144797924Y-51784312D01*
X144664312Y-51917924D01*
X144664312Y-51917925D01*
X144664310Y-51917927D01*
X144620704Y-51977945D01*
X144553240Y-52070800D01*
X144467454Y-52239163D01*
X144427931Y-52360803D01*
X144388493Y-52418478D01*
X144324134Y-52445676D01*
X144255288Y-52433761D01*
X144203812Y-52386516D01*
X144192069Y-52360803D01*
X144152545Y-52239163D01*
X144066759Y-52070800D01*
X143955690Y-51917927D01*
X143822073Y-51784310D01*
X143669199Y-51673240D01*
X143500836Y-51587454D01*
X143321118Y-51529059D01*
X143134486Y-51499500D01*
X143134481Y-51499500D01*
X142945519Y-51499500D01*
X142945514Y-51499500D01*
X142758881Y-51529059D01*
X142579163Y-51587454D01*
X142410800Y-51673240D01*
X142329505Y-51732305D01*
X142257927Y-51784310D01*
X142257925Y-51784312D01*
X142257924Y-51784312D01*
X142124312Y-51917924D01*
X142124312Y-51917925D01*
X142124310Y-51917927D01*
X142080704Y-51977945D01*
X142013240Y-52070800D01*
X141927454Y-52239163D01*
X141887931Y-52360803D01*
X141848493Y-52418478D01*
X141784134Y-52445676D01*
X141715288Y-52433761D01*
X141663812Y-52386516D01*
X141652069Y-52360803D01*
X141612545Y-52239163D01*
X141526759Y-52070800D01*
X141415690Y-51917927D01*
X141282073Y-51784310D01*
X141129199Y-51673240D01*
X140960836Y-51587454D01*
X140781118Y-51529059D01*
X140594486Y-51499500D01*
X140594481Y-51499500D01*
X140405519Y-51499500D01*
X140405514Y-51499500D01*
X140218881Y-51529059D01*
X140039163Y-51587454D01*
X139870800Y-51673240D01*
X139789505Y-51732305D01*
X139717927Y-51784310D01*
X139717925Y-51784312D01*
X139717924Y-51784312D01*
X139584312Y-51917924D01*
X139584312Y-51917925D01*
X139584310Y-51917927D01*
X139540704Y-51977945D01*
X139473238Y-52070803D01*
X139424377Y-52166697D01*
X139376402Y-52217492D01*
X139308581Y-52234287D01*
X139242447Y-52211749D01*
X139203408Y-52166696D01*
X139114624Y-51992449D01*
X139075270Y-51938282D01*
X139075269Y-51938282D01*
X138442962Y-52570590D01*
X138425925Y-52507007D01*
X138360099Y-52392993D01*
X138267007Y-52299901D01*
X138152993Y-52234075D01*
X138089409Y-52217037D01*
X138721716Y-51584728D01*
X138667550Y-51545375D01*
X138478217Y-51448904D01*
X138276129Y-51383242D01*
X138066246Y-51350000D01*
X137853754Y-51350000D01*
X137643872Y-51383242D01*
X137643869Y-51383242D01*
X137441782Y-51448904D01*
X137252439Y-51545380D01*
X137198282Y-51584727D01*
X137198282Y-51584728D01*
X137830591Y-52217037D01*
X137767007Y-52234075D01*
X137652993Y-52299901D01*
X137559901Y-52392993D01*
X137494075Y-52507007D01*
X137477037Y-52570591D01*
X136844728Y-51938282D01*
X136844727Y-51938282D01*
X136805380Y-51992440D01*
X136805378Y-51992443D01*
X136716590Y-52166697D01*
X136668616Y-52217492D01*
X136600794Y-52234287D01*
X136534660Y-52211749D01*
X136495621Y-52166696D01*
X136446759Y-52070800D01*
X136335690Y-51917927D01*
X136202073Y-51784310D01*
X136049199Y-51673240D01*
X135880836Y-51587454D01*
X135701118Y-51529059D01*
X135514486Y-51499500D01*
X135514481Y-51499500D01*
X135325519Y-51499500D01*
X135325514Y-51499500D01*
X135138881Y-51529059D01*
X134959163Y-51587454D01*
X134790800Y-51673240D01*
X134709505Y-51732305D01*
X134637927Y-51784310D01*
X134637925Y-51784312D01*
X134637924Y-51784312D01*
X134504312Y-51917924D01*
X134504312Y-51917925D01*
X134504310Y-51917927D01*
X134460704Y-51977945D01*
X134393240Y-52070800D01*
X134307454Y-52239163D01*
X134267931Y-52360803D01*
X134228493Y-52418478D01*
X134164134Y-52445676D01*
X134095288Y-52433761D01*
X134043812Y-52386516D01*
X134032069Y-52360803D01*
X133992545Y-52239163D01*
X133906759Y-52070800D01*
X133795690Y-51917927D01*
X133662073Y-51784310D01*
X133509199Y-51673240D01*
X133340836Y-51587454D01*
X133161118Y-51529059D01*
X132974486Y-51499500D01*
X132974481Y-51499500D01*
X132785519Y-51499500D01*
X132785514Y-51499500D01*
X132598881Y-51529059D01*
X132419163Y-51587454D01*
X132250800Y-51673240D01*
X132169505Y-51732305D01*
X132097927Y-51784310D01*
X132097925Y-51784312D01*
X132097924Y-51784312D01*
X131964312Y-51917924D01*
X131964312Y-51917925D01*
X131964310Y-51917927D01*
X131920704Y-51977945D01*
X131853238Y-52070803D01*
X131804377Y-52166697D01*
X131756402Y-52217492D01*
X131688581Y-52234287D01*
X131622447Y-52211749D01*
X131583408Y-52166696D01*
X131494624Y-51992449D01*
X131455270Y-51938282D01*
X131455269Y-51938282D01*
X130822962Y-52570590D01*
X130805925Y-52507007D01*
X130740099Y-52392993D01*
X130647007Y-52299901D01*
X130532993Y-52234075D01*
X130469409Y-52217037D01*
X131101716Y-51584728D01*
X131047550Y-51545375D01*
X130858217Y-51448904D01*
X130656129Y-51383242D01*
X130446246Y-51350000D01*
X130233754Y-51350000D01*
X130023872Y-51383242D01*
X130023869Y-51383242D01*
X129821782Y-51448904D01*
X129632439Y-51545380D01*
X129578282Y-51584727D01*
X129578282Y-51584728D01*
X130210591Y-52217037D01*
X130147007Y-52234075D01*
X130032993Y-52299901D01*
X129939901Y-52392993D01*
X129874075Y-52507007D01*
X129857037Y-52570591D01*
X129224728Y-51938282D01*
X129224727Y-51938282D01*
X129185380Y-51992440D01*
X129185378Y-51992443D01*
X129096590Y-52166697D01*
X129048616Y-52217492D01*
X128980794Y-52234287D01*
X128914660Y-52211749D01*
X128875621Y-52166696D01*
X128826759Y-52070800D01*
X128715690Y-51917927D01*
X128582073Y-51784310D01*
X128429199Y-51673240D01*
X128260836Y-51587454D01*
X128081118Y-51529059D01*
X127894486Y-51499500D01*
X127894481Y-51499500D01*
X127705519Y-51499500D01*
X127705514Y-51499500D01*
X127518881Y-51529059D01*
X127339163Y-51587454D01*
X127170800Y-51673240D01*
X127089505Y-51732305D01*
X127017927Y-51784310D01*
X127017925Y-51784312D01*
X127017924Y-51784312D01*
X126884312Y-51917924D01*
X126884312Y-51917925D01*
X126884310Y-51917927D01*
X126840704Y-51977945D01*
X126773240Y-52070800D01*
X126687454Y-52239163D01*
X126647931Y-52360803D01*
X126608493Y-52418478D01*
X126544134Y-52445676D01*
X126475288Y-52433761D01*
X126423812Y-52386516D01*
X126412069Y-52360803D01*
X126372545Y-52239163D01*
X126286759Y-52070800D01*
X126175690Y-51917927D01*
X126042073Y-51784310D01*
X125889199Y-51673240D01*
X125720836Y-51587454D01*
X125541118Y-51529059D01*
X125354486Y-51499500D01*
X125354481Y-51499500D01*
X125165519Y-51499500D01*
X125165514Y-51499500D01*
X124978881Y-51529059D01*
X124799163Y-51587454D01*
X124630800Y-51673240D01*
X124549505Y-51732305D01*
X124477927Y-51784310D01*
X124477925Y-51784312D01*
X124477924Y-51784312D01*
X124344312Y-51917924D01*
X124344312Y-51917925D01*
X124344310Y-51917927D01*
X124300704Y-51977945D01*
X124233240Y-52070800D01*
X124147454Y-52239163D01*
X124089059Y-52418881D01*
X124059500Y-52605513D01*
X124059500Y-52794486D01*
X124089059Y-52981118D01*
X124147454Y-53160836D01*
X124233237Y-53329194D01*
X124233240Y-53329199D01*
X124344310Y-53482073D01*
X124344312Y-53482075D01*
X124462640Y-53600403D01*
X124496125Y-53661726D01*
X124491141Y-53731418D01*
X124449269Y-53787351D01*
X124422413Y-53802645D01*
X124344504Y-53834916D01*
X124344498Y-53834919D01*
X124221584Y-53917048D01*
X124221580Y-53917051D01*
X124117051Y-54021580D01*
X124117048Y-54021584D01*
X124034919Y-54144498D01*
X124034912Y-54144511D01*
X123978343Y-54281082D01*
X123978340Y-54281092D01*
X123949500Y-54426079D01*
X123949500Y-54426082D01*
X123949500Y-54573918D01*
X123949500Y-54573920D01*
X123949499Y-54573920D01*
X113500500Y-54573920D01*
X113500500Y-52073920D01*
X114349499Y-52073920D01*
X114378340Y-52218907D01*
X114378343Y-52218917D01*
X114434912Y-52355488D01*
X114434919Y-52355501D01*
X114517048Y-52478415D01*
X114517051Y-52478419D01*
X114621580Y-52582948D01*
X114621584Y-52582951D01*
X114744498Y-52665080D01*
X114744511Y-52665087D01*
X114881082Y-52721656D01*
X114881087Y-52721658D01*
X114881091Y-52721658D01*
X114881092Y-52721659D01*
X115026079Y-52750500D01*
X115026082Y-52750500D01*
X115173920Y-52750500D01*
X115271462Y-52731096D01*
X115318913Y-52721658D01*
X115455495Y-52665084D01*
X115481110Y-52647967D01*
X115547784Y-52627090D01*
X115615165Y-52645573D01*
X115618838Y-52647933D01*
X115644505Y-52665084D01*
X115781087Y-52721658D01*
X115781091Y-52721658D01*
X115781092Y-52721659D01*
X115926079Y-52750500D01*
X115926082Y-52750500D01*
X116073920Y-52750500D01*
X116171462Y-52731096D01*
X116218913Y-52721658D01*
X116355495Y-52665084D01*
X116478416Y-52582951D01*
X116582951Y-52478416D01*
X116665084Y-52355495D01*
X116721658Y-52218913D01*
X116745138Y-52100873D01*
X116750500Y-52073920D01*
X116750500Y-51926079D01*
X116721659Y-51781092D01*
X116721658Y-51781091D01*
X116721658Y-51781087D01*
X116718689Y-51773918D01*
X116665087Y-51644511D01*
X116665080Y-51644498D01*
X116582951Y-51521584D01*
X116582948Y-51521580D01*
X116478419Y-51417051D01*
X116478415Y-51417048D01*
X116355501Y-51334919D01*
X116355488Y-51334912D01*
X116218917Y-51278343D01*
X116218907Y-51278340D01*
X116073920Y-51249500D01*
X116073918Y-51249500D01*
X115926082Y-51249500D01*
X115926080Y-51249500D01*
X115781092Y-51278340D01*
X115781082Y-51278343D01*
X115644506Y-51334914D01*
X115644504Y-51334915D01*
X115618889Y-51352031D01*
X115552211Y-51372908D01*
X115484831Y-51354422D01*
X115481111Y-51352031D01*
X115455495Y-51334915D01*
X115455493Y-51334914D01*
X115318917Y-51278343D01*
X115318907Y-51278340D01*
X115173920Y-51249500D01*
X115173918Y-51249500D01*
X115026082Y-51249500D01*
X115026080Y-51249500D01*
X114881092Y-51278340D01*
X114881082Y-51278343D01*
X114744511Y-51334912D01*
X114744498Y-51334919D01*
X114621584Y-51417048D01*
X114621580Y-51417051D01*
X114517051Y-51521580D01*
X114517048Y-51521584D01*
X114434919Y-51644498D01*
X114434912Y-51644511D01*
X114378343Y-51781082D01*
X114378340Y-51781092D01*
X114349500Y-51926079D01*
X114349500Y-51926082D01*
X114349500Y-52073918D01*
X114349500Y-52073920D01*
X114349499Y-52073920D01*
X113500500Y-52073920D01*
X113500500Y-51004427D01*
X113500816Y-50995581D01*
X113515130Y-50795436D01*
X113517646Y-50777938D01*
X113559356Y-50586200D01*
X113564335Y-50569242D01*
X113632911Y-50385382D01*
X113640251Y-50369310D01*
X113734294Y-50197083D01*
X113743850Y-50182214D01*
X113861443Y-50025128D01*
X113873017Y-50011771D01*
X114011771Y-49873017D01*
X114025128Y-49861443D01*
X114182214Y-49743850D01*
X114197083Y-49734294D01*
X114369310Y-49640251D01*
X114385382Y-49632911D01*
X114569242Y-49564335D01*
X114586200Y-49559356D01*
X114777938Y-49517646D01*
X114795436Y-49515130D01*
X114995582Y-49500816D01*
X115004428Y-49500500D01*
X115065892Y-49500500D01*
X116667565Y-49500500D01*
X116734604Y-49520185D01*
G37*
G04 #@! TD.AperFunction*
M02*
