G04 #@! TF.GenerationSoftware,KiCad,Pcbnew,9.0.9-9.0.9~ubuntu24.04.1*
G04 #@! TF.CreationDate,2026-08-12T10:51:59-04:00*
G04 #@! TF.ProjectId,breakout-ihp-qfn,62726561-6b6f-4757-942d-6968702d7166,1.2*
G04 #@! TF.SameCoordinates,PX6bc3e40PY5e69ec0*
G04 #@! TF.FileFunction,AssemblyDrawing,Top*
%FSLAX46Y46*%
G04 Gerber Fmt 4.6, Leading zero omitted, Abs format (unit mm)*
G04 Created by KiCad (PCBNEW 9.0.9-9.0.9~ubuntu24.04.1) date 2026-08-12 10:51:59*
%MOMM*%
%LPD*%
G01*
G04 APERTURE LIST*
%ADD10C,0.040000*%
%ADD11C,0.150000*%
%ADD12C,0.060000*%
%ADD13C,0.080000*%
%ADD14C,0.105000*%
%ADD15C,0.100000*%
G04 APERTURE END LIST*
D10*
X159908333Y-50552265D02*
X159896429Y-50564170D01*
X159896429Y-50564170D02*
X159860714Y-50576074D01*
X159860714Y-50576074D02*
X159836905Y-50576074D01*
X159836905Y-50576074D02*
X159801191Y-50564170D01*
X159801191Y-50564170D02*
X159777381Y-50540360D01*
X159777381Y-50540360D02*
X159765476Y-50516550D01*
X159765476Y-50516550D02*
X159753572Y-50468931D01*
X159753572Y-50468931D02*
X159753572Y-50433217D01*
X159753572Y-50433217D02*
X159765476Y-50385598D01*
X159765476Y-50385598D02*
X159777381Y-50361789D01*
X159777381Y-50361789D02*
X159801191Y-50337979D01*
X159801191Y-50337979D02*
X159836905Y-50326074D01*
X159836905Y-50326074D02*
X159860714Y-50326074D01*
X159860714Y-50326074D02*
X159896429Y-50337979D01*
X159896429Y-50337979D02*
X159908333Y-50349884D01*
X159991667Y-50326074D02*
X160158333Y-50326074D01*
X160158333Y-50326074D02*
X160051191Y-50576074D01*
D11*
X130874819Y-57071428D02*
X130874819Y-57642856D01*
X130874819Y-57357142D02*
X129874819Y-57357142D01*
X129874819Y-57357142D02*
X130017676Y-57452380D01*
X130017676Y-57452380D02*
X130112914Y-57547618D01*
X130112914Y-57547618D02*
X130160533Y-57642856D01*
X129874819Y-56452380D02*
X129874819Y-56357142D01*
X129874819Y-56357142D02*
X129922438Y-56261904D01*
X129922438Y-56261904D02*
X129970057Y-56214285D01*
X129970057Y-56214285D02*
X130065295Y-56166666D01*
X130065295Y-56166666D02*
X130255771Y-56119047D01*
X130255771Y-56119047D02*
X130493866Y-56119047D01*
X130493866Y-56119047D02*
X130684342Y-56166666D01*
X130684342Y-56166666D02*
X130779580Y-56214285D01*
X130779580Y-56214285D02*
X130827200Y-56261904D01*
X130827200Y-56261904D02*
X130874819Y-56357142D01*
X130874819Y-56357142D02*
X130874819Y-56452380D01*
X130874819Y-56452380D02*
X130827200Y-56547618D01*
X130827200Y-56547618D02*
X130779580Y-56595237D01*
X130779580Y-56595237D02*
X130684342Y-56642856D01*
X130684342Y-56642856D02*
X130493866Y-56690475D01*
X130493866Y-56690475D02*
X130255771Y-56690475D01*
X130255771Y-56690475D02*
X130065295Y-56642856D01*
X130065295Y-56642856D02*
X129970057Y-56595237D01*
X129970057Y-56595237D02*
X129922438Y-56547618D01*
X129922438Y-56547618D02*
X129874819Y-56452380D01*
X130208152Y-55261904D02*
X130874819Y-55261904D01*
X130208152Y-55690475D02*
X130731961Y-55690475D01*
X130731961Y-55690475D02*
X130827200Y-55642856D01*
X130827200Y-55642856D02*
X130874819Y-55547618D01*
X130874819Y-55547618D02*
X130874819Y-55404761D01*
X130874819Y-55404761D02*
X130827200Y-55309523D01*
X130827200Y-55309523D02*
X130779580Y-55261904D01*
X130351009Y-54452380D02*
X130351009Y-54785713D01*
X130874819Y-54785713D02*
X129874819Y-54785713D01*
X129874819Y-54785713D02*
X129874819Y-54309523D01*
D12*
X131993832Y-56066666D02*
X132012880Y-56085714D01*
X132012880Y-56085714D02*
X132031927Y-56142856D01*
X132031927Y-56142856D02*
X132031927Y-56180952D01*
X132031927Y-56180952D02*
X132012880Y-56238095D01*
X132012880Y-56238095D02*
X131974784Y-56276190D01*
X131974784Y-56276190D02*
X131936689Y-56295237D01*
X131936689Y-56295237D02*
X131860499Y-56314285D01*
X131860499Y-56314285D02*
X131803356Y-56314285D01*
X131803356Y-56314285D02*
X131727165Y-56295237D01*
X131727165Y-56295237D02*
X131689070Y-56276190D01*
X131689070Y-56276190D02*
X131650975Y-56238095D01*
X131650975Y-56238095D02*
X131631927Y-56180952D01*
X131631927Y-56180952D02*
X131631927Y-56142856D01*
X131631927Y-56142856D02*
X131650975Y-56085714D01*
X131650975Y-56085714D02*
X131670022Y-56066666D01*
X131765260Y-55723809D02*
X132031927Y-55723809D01*
X131612880Y-55819047D02*
X131898594Y-55914285D01*
X131898594Y-55914285D02*
X131898594Y-55666666D01*
X131822441Y-56404285D02*
X131822441Y-55578950D01*
X159883333Y-51806332D02*
X159864285Y-51825380D01*
X159864285Y-51825380D02*
X159807143Y-51844427D01*
X159807143Y-51844427D02*
X159769047Y-51844427D01*
X159769047Y-51844427D02*
X159711904Y-51825380D01*
X159711904Y-51825380D02*
X159673809Y-51787284D01*
X159673809Y-51787284D02*
X159654762Y-51749189D01*
X159654762Y-51749189D02*
X159635714Y-51672999D01*
X159635714Y-51672999D02*
X159635714Y-51615856D01*
X159635714Y-51615856D02*
X159654762Y-51539665D01*
X159654762Y-51539665D02*
X159673809Y-51501570D01*
X159673809Y-51501570D02*
X159711904Y-51463475D01*
X159711904Y-51463475D02*
X159769047Y-51444427D01*
X159769047Y-51444427D02*
X159807143Y-51444427D01*
X159807143Y-51444427D02*
X159864285Y-51463475D01*
X159864285Y-51463475D02*
X159883333Y-51482522D01*
X160226190Y-51444427D02*
X160150000Y-51444427D01*
X160150000Y-51444427D02*
X160111904Y-51463475D01*
X160111904Y-51463475D02*
X160092857Y-51482522D01*
X160092857Y-51482522D02*
X160054762Y-51539665D01*
X160054762Y-51539665D02*
X160035714Y-51615856D01*
X160035714Y-51615856D02*
X160035714Y-51768237D01*
X160035714Y-51768237D02*
X160054762Y-51806332D01*
X160054762Y-51806332D02*
X160073809Y-51825380D01*
X160073809Y-51825380D02*
X160111904Y-51844427D01*
X160111904Y-51844427D02*
X160188095Y-51844427D01*
X160188095Y-51844427D02*
X160226190Y-51825380D01*
X160226190Y-51825380D02*
X160245238Y-51806332D01*
X160245238Y-51806332D02*
X160264285Y-51768237D01*
X160264285Y-51768237D02*
X160264285Y-51672999D01*
X160264285Y-51672999D02*
X160245238Y-51634903D01*
X160245238Y-51634903D02*
X160226190Y-51615856D01*
X160226190Y-51615856D02*
X160188095Y-51596808D01*
X160188095Y-51596808D02*
X160111904Y-51596808D01*
X160111904Y-51596808D02*
X160073809Y-51615856D01*
X160073809Y-51615856D02*
X160054762Y-51634903D01*
X160054762Y-51634903D02*
X160035714Y-51672999D01*
D13*
X115464286Y-50465244D02*
X115297619Y-50465244D01*
X115297619Y-50727149D02*
X115297619Y-50227149D01*
X115297619Y-50227149D02*
X115535714Y-50227149D01*
X115726190Y-50727149D02*
X115726190Y-50227149D01*
X115964285Y-50727149D02*
X115964285Y-50227149D01*
X115964285Y-50227149D02*
X116083333Y-50227149D01*
X116083333Y-50227149D02*
X116154761Y-50250959D01*
X116154761Y-50250959D02*
X116202380Y-50298578D01*
X116202380Y-50298578D02*
X116226190Y-50346197D01*
X116226190Y-50346197D02*
X116249999Y-50441435D01*
X116249999Y-50441435D02*
X116249999Y-50512863D01*
X116249999Y-50512863D02*
X116226190Y-50608101D01*
X116226190Y-50608101D02*
X116202380Y-50655720D01*
X116202380Y-50655720D02*
X116154761Y-50703340D01*
X116154761Y-50703340D02*
X116083333Y-50727149D01*
X116083333Y-50727149D02*
X115964285Y-50727149D01*
X116416666Y-50227149D02*
X116726190Y-50227149D01*
X116726190Y-50227149D02*
X116559523Y-50417625D01*
X116559523Y-50417625D02*
X116630952Y-50417625D01*
X116630952Y-50417625D02*
X116678571Y-50441435D01*
X116678571Y-50441435D02*
X116702380Y-50465244D01*
X116702380Y-50465244D02*
X116726190Y-50512863D01*
X116726190Y-50512863D02*
X116726190Y-50631911D01*
X116726190Y-50631911D02*
X116702380Y-50679530D01*
X116702380Y-50679530D02*
X116678571Y-50703340D01*
X116678571Y-50703340D02*
X116630952Y-50727149D01*
X116630952Y-50727149D02*
X116488095Y-50727149D01*
X116488095Y-50727149D02*
X116440476Y-50703340D01*
X116440476Y-50703340D02*
X116416666Y-50679530D01*
X115177619Y-50477149D02*
X116846190Y-50477149D01*
D11*
X142052381Y-54104819D02*
X142147619Y-54104819D01*
X142147619Y-54104819D02*
X142242857Y-54152438D01*
X142242857Y-54152438D02*
X142290476Y-54200057D01*
X142290476Y-54200057D02*
X142338095Y-54295295D01*
X142338095Y-54295295D02*
X142385714Y-54485771D01*
X142385714Y-54485771D02*
X142385714Y-54723866D01*
X142385714Y-54723866D02*
X142338095Y-54914342D01*
X142338095Y-54914342D02*
X142290476Y-55009580D01*
X142290476Y-55009580D02*
X142242857Y-55057200D01*
X142242857Y-55057200D02*
X142147619Y-55104819D01*
X142147619Y-55104819D02*
X142052381Y-55104819D01*
X142052381Y-55104819D02*
X141957143Y-55057200D01*
X141957143Y-55057200D02*
X141909524Y-55009580D01*
X141909524Y-55009580D02*
X141861905Y-54914342D01*
X141861905Y-54914342D02*
X141814286Y-54723866D01*
X141814286Y-54723866D02*
X141814286Y-54485771D01*
X141814286Y-54485771D02*
X141861905Y-54295295D01*
X141861905Y-54295295D02*
X141909524Y-54200057D01*
X141909524Y-54200057D02*
X141957143Y-54152438D01*
X141957143Y-54152438D02*
X142052381Y-54104819D01*
D13*
X142016666Y-56527149D02*
X141850000Y-56289054D01*
X141730952Y-56527149D02*
X141730952Y-56027149D01*
X141730952Y-56027149D02*
X141921428Y-56027149D01*
X141921428Y-56027149D02*
X141969047Y-56050959D01*
X141969047Y-56050959D02*
X141992857Y-56074768D01*
X141992857Y-56074768D02*
X142016666Y-56122387D01*
X142016666Y-56122387D02*
X142016666Y-56193816D01*
X142016666Y-56193816D02*
X141992857Y-56241435D01*
X141992857Y-56241435D02*
X141969047Y-56265244D01*
X141969047Y-56265244D02*
X141921428Y-56289054D01*
X141921428Y-56289054D02*
X141730952Y-56289054D01*
X142254762Y-56527149D02*
X142350000Y-56527149D01*
X142350000Y-56527149D02*
X142397619Y-56503340D01*
X142397619Y-56503340D02*
X142421428Y-56479530D01*
X142421428Y-56479530D02*
X142469047Y-56408101D01*
X142469047Y-56408101D02*
X142492857Y-56312863D01*
X142492857Y-56312863D02*
X142492857Y-56122387D01*
X142492857Y-56122387D02*
X142469047Y-56074768D01*
X142469047Y-56074768D02*
X142445238Y-56050959D01*
X142445238Y-56050959D02*
X142397619Y-56027149D01*
X142397619Y-56027149D02*
X142302381Y-56027149D01*
X142302381Y-56027149D02*
X142254762Y-56050959D01*
X142254762Y-56050959D02*
X142230952Y-56074768D01*
X142230952Y-56074768D02*
X142207143Y-56122387D01*
X142207143Y-56122387D02*
X142207143Y-56241435D01*
X142207143Y-56241435D02*
X142230952Y-56289054D01*
X142230952Y-56289054D02*
X142254762Y-56312863D01*
X142254762Y-56312863D02*
X142302381Y-56336673D01*
X142302381Y-56336673D02*
X142397619Y-56336673D01*
X142397619Y-56336673D02*
X142445238Y-56312863D01*
X142445238Y-56312863D02*
X142469047Y-56289054D01*
X142469047Y-56289054D02*
X142492857Y-56241435D01*
X141610952Y-56277149D02*
X142612857Y-56277149D01*
D11*
X126452381Y-54154819D02*
X126547619Y-54154819D01*
X126547619Y-54154819D02*
X126642857Y-54202438D01*
X126642857Y-54202438D02*
X126690476Y-54250057D01*
X126690476Y-54250057D02*
X126738095Y-54345295D01*
X126738095Y-54345295D02*
X126785714Y-54535771D01*
X126785714Y-54535771D02*
X126785714Y-54773866D01*
X126785714Y-54773866D02*
X126738095Y-54964342D01*
X126738095Y-54964342D02*
X126690476Y-55059580D01*
X126690476Y-55059580D02*
X126642857Y-55107200D01*
X126642857Y-55107200D02*
X126547619Y-55154819D01*
X126547619Y-55154819D02*
X126452381Y-55154819D01*
X126452381Y-55154819D02*
X126357143Y-55107200D01*
X126357143Y-55107200D02*
X126309524Y-55059580D01*
X126309524Y-55059580D02*
X126261905Y-54964342D01*
X126261905Y-54964342D02*
X126214286Y-54773866D01*
X126214286Y-54773866D02*
X126214286Y-54535771D01*
X126214286Y-54535771D02*
X126261905Y-54345295D01*
X126261905Y-54345295D02*
X126309524Y-54250057D01*
X126309524Y-54250057D02*
X126357143Y-54202438D01*
X126357143Y-54202438D02*
X126452381Y-54154819D01*
D13*
X126416666Y-56577149D02*
X126250000Y-56339054D01*
X126130952Y-56577149D02*
X126130952Y-56077149D01*
X126130952Y-56077149D02*
X126321428Y-56077149D01*
X126321428Y-56077149D02*
X126369047Y-56100959D01*
X126369047Y-56100959D02*
X126392857Y-56124768D01*
X126392857Y-56124768D02*
X126416666Y-56172387D01*
X126416666Y-56172387D02*
X126416666Y-56243816D01*
X126416666Y-56243816D02*
X126392857Y-56291435D01*
X126392857Y-56291435D02*
X126369047Y-56315244D01*
X126369047Y-56315244D02*
X126321428Y-56339054D01*
X126321428Y-56339054D02*
X126130952Y-56339054D01*
X126702381Y-56291435D02*
X126654762Y-56267625D01*
X126654762Y-56267625D02*
X126630952Y-56243816D01*
X126630952Y-56243816D02*
X126607143Y-56196197D01*
X126607143Y-56196197D02*
X126607143Y-56172387D01*
X126607143Y-56172387D02*
X126630952Y-56124768D01*
X126630952Y-56124768D02*
X126654762Y-56100959D01*
X126654762Y-56100959D02*
X126702381Y-56077149D01*
X126702381Y-56077149D02*
X126797619Y-56077149D01*
X126797619Y-56077149D02*
X126845238Y-56100959D01*
X126845238Y-56100959D02*
X126869047Y-56124768D01*
X126869047Y-56124768D02*
X126892857Y-56172387D01*
X126892857Y-56172387D02*
X126892857Y-56196197D01*
X126892857Y-56196197D02*
X126869047Y-56243816D01*
X126869047Y-56243816D02*
X126845238Y-56267625D01*
X126845238Y-56267625D02*
X126797619Y-56291435D01*
X126797619Y-56291435D02*
X126702381Y-56291435D01*
X126702381Y-56291435D02*
X126654762Y-56315244D01*
X126654762Y-56315244D02*
X126630952Y-56339054D01*
X126630952Y-56339054D02*
X126607143Y-56386673D01*
X126607143Y-56386673D02*
X126607143Y-56481911D01*
X126607143Y-56481911D02*
X126630952Y-56529530D01*
X126630952Y-56529530D02*
X126654762Y-56553340D01*
X126654762Y-56553340D02*
X126702381Y-56577149D01*
X126702381Y-56577149D02*
X126797619Y-56577149D01*
X126797619Y-56577149D02*
X126845238Y-56553340D01*
X126845238Y-56553340D02*
X126869047Y-56529530D01*
X126869047Y-56529530D02*
X126892857Y-56481911D01*
X126892857Y-56481911D02*
X126892857Y-56386673D01*
X126892857Y-56386673D02*
X126869047Y-56339054D01*
X126869047Y-56339054D02*
X126845238Y-56315244D01*
X126845238Y-56315244D02*
X126797619Y-56291435D01*
X158964286Y-97465244D02*
X158797619Y-97465244D01*
X158797619Y-97727149D02*
X158797619Y-97227149D01*
X158797619Y-97227149D02*
X159035714Y-97227149D01*
X159226190Y-97727149D02*
X159226190Y-97227149D01*
X159464285Y-97727149D02*
X159464285Y-97227149D01*
X159464285Y-97227149D02*
X159583333Y-97227149D01*
X159583333Y-97227149D02*
X159654761Y-97250959D01*
X159654761Y-97250959D02*
X159702380Y-97298578D01*
X159702380Y-97298578D02*
X159726190Y-97346197D01*
X159726190Y-97346197D02*
X159749999Y-97441435D01*
X159749999Y-97441435D02*
X159749999Y-97512863D01*
X159749999Y-97512863D02*
X159726190Y-97608101D01*
X159726190Y-97608101D02*
X159702380Y-97655720D01*
X159702380Y-97655720D02*
X159654761Y-97703340D01*
X159654761Y-97703340D02*
X159583333Y-97727149D01*
X159583333Y-97727149D02*
X159464285Y-97727149D01*
X159940476Y-97274768D02*
X159964285Y-97250959D01*
X159964285Y-97250959D02*
X160011904Y-97227149D01*
X160011904Y-97227149D02*
X160130952Y-97227149D01*
X160130952Y-97227149D02*
X160178571Y-97250959D01*
X160178571Y-97250959D02*
X160202380Y-97274768D01*
X160202380Y-97274768D02*
X160226190Y-97322387D01*
X160226190Y-97322387D02*
X160226190Y-97370006D01*
X160226190Y-97370006D02*
X160202380Y-97441435D01*
X160202380Y-97441435D02*
X159916666Y-97727149D01*
X159916666Y-97727149D02*
X160226190Y-97727149D01*
X158677619Y-97477149D02*
X160346190Y-97477149D01*
X113964286Y-97465244D02*
X113797619Y-97465244D01*
X113797619Y-97727149D02*
X113797619Y-97227149D01*
X113797619Y-97227149D02*
X114035714Y-97227149D01*
X114226190Y-97727149D02*
X114226190Y-97227149D01*
X114464285Y-97727149D02*
X114464285Y-97227149D01*
X114464285Y-97227149D02*
X114583333Y-97227149D01*
X114583333Y-97227149D02*
X114654761Y-97250959D01*
X114654761Y-97250959D02*
X114702380Y-97298578D01*
X114702380Y-97298578D02*
X114726190Y-97346197D01*
X114726190Y-97346197D02*
X114749999Y-97441435D01*
X114749999Y-97441435D02*
X114749999Y-97512863D01*
X114749999Y-97512863D02*
X114726190Y-97608101D01*
X114726190Y-97608101D02*
X114702380Y-97655720D01*
X114702380Y-97655720D02*
X114654761Y-97703340D01*
X114654761Y-97703340D02*
X114583333Y-97727149D01*
X114583333Y-97727149D02*
X114464285Y-97727149D01*
X115226190Y-97727149D02*
X114940476Y-97727149D01*
X115083333Y-97727149D02*
X115083333Y-97227149D01*
X115083333Y-97227149D02*
X115035714Y-97298578D01*
X115035714Y-97298578D02*
X114988095Y-97346197D01*
X114988095Y-97346197D02*
X114940476Y-97370006D01*
X113677619Y-97477149D02*
X115343145Y-97477149D01*
D11*
X136814819Y-67666666D02*
X136814819Y-68238094D01*
X136814819Y-67952380D02*
X135814819Y-67952380D01*
X135814819Y-67952380D02*
X135957676Y-68047618D01*
X135957676Y-68047618D02*
X136052914Y-68142856D01*
X136052914Y-68142856D02*
X136100533Y-68238094D01*
X136148152Y-66809523D02*
X136814819Y-66809523D01*
X136148152Y-67238094D02*
X136671961Y-67238094D01*
X136671961Y-67238094D02*
X136767200Y-67190475D01*
X136767200Y-67190475D02*
X136814819Y-67095237D01*
X136814819Y-67095237D02*
X136814819Y-66952380D01*
X136814819Y-66952380D02*
X136767200Y-66857142D01*
X136767200Y-66857142D02*
X136719580Y-66809523D01*
D10*
X135289765Y-67660714D02*
X135301670Y-67672618D01*
X135301670Y-67672618D02*
X135313574Y-67708333D01*
X135313574Y-67708333D02*
X135313574Y-67732142D01*
X135313574Y-67732142D02*
X135301670Y-67767856D01*
X135301670Y-67767856D02*
X135277860Y-67791666D01*
X135277860Y-67791666D02*
X135254050Y-67803571D01*
X135254050Y-67803571D02*
X135206431Y-67815475D01*
X135206431Y-67815475D02*
X135170717Y-67815475D01*
X135170717Y-67815475D02*
X135123098Y-67803571D01*
X135123098Y-67803571D02*
X135099289Y-67791666D01*
X135099289Y-67791666D02*
X135075479Y-67767856D01*
X135075479Y-67767856D02*
X135063574Y-67732142D01*
X135063574Y-67732142D02*
X135063574Y-67708333D01*
X135063574Y-67708333D02*
X135075479Y-67672618D01*
X135075479Y-67672618D02*
X135087384Y-67660714D01*
X135313574Y-67422618D02*
X135313574Y-67565475D01*
X135313574Y-67494047D02*
X135063574Y-67494047D01*
X135063574Y-67494047D02*
X135099289Y-67517856D01*
X135099289Y-67517856D02*
X135123098Y-67541666D01*
X135123098Y-67541666D02*
X135135003Y-67565475D01*
X135063574Y-67339285D02*
X135063574Y-67184523D01*
X135063574Y-67184523D02*
X135158812Y-67267857D01*
X135158812Y-67267857D02*
X135158812Y-67232142D01*
X135158812Y-67232142D02*
X135170717Y-67208333D01*
X135170717Y-67208333D02*
X135182622Y-67196428D01*
X135182622Y-67196428D02*
X135206431Y-67184523D01*
X135206431Y-67184523D02*
X135265955Y-67184523D01*
X135265955Y-67184523D02*
X135289765Y-67196428D01*
X135289765Y-67196428D02*
X135301670Y-67208333D01*
X135301670Y-67208333D02*
X135313574Y-67232142D01*
X135313574Y-67232142D02*
X135313574Y-67303571D01*
X135313574Y-67303571D02*
X135301670Y-67327380D01*
X135301670Y-67327380D02*
X135289765Y-67339285D01*
D11*
X122774819Y-57371428D02*
X122774819Y-57942856D01*
X122774819Y-57657142D02*
X121774819Y-57657142D01*
X121774819Y-57657142D02*
X121917676Y-57752380D01*
X121917676Y-57752380D02*
X122012914Y-57847618D01*
X122012914Y-57847618D02*
X122060533Y-57942856D01*
X121774819Y-56752380D02*
X121774819Y-56657142D01*
X121774819Y-56657142D02*
X121822438Y-56561904D01*
X121822438Y-56561904D02*
X121870057Y-56514285D01*
X121870057Y-56514285D02*
X121965295Y-56466666D01*
X121965295Y-56466666D02*
X122155771Y-56419047D01*
X122155771Y-56419047D02*
X122393866Y-56419047D01*
X122393866Y-56419047D02*
X122584342Y-56466666D01*
X122584342Y-56466666D02*
X122679580Y-56514285D01*
X122679580Y-56514285D02*
X122727200Y-56561904D01*
X122727200Y-56561904D02*
X122774819Y-56657142D01*
X122774819Y-56657142D02*
X122774819Y-56752380D01*
X122774819Y-56752380D02*
X122727200Y-56847618D01*
X122727200Y-56847618D02*
X122679580Y-56895237D01*
X122679580Y-56895237D02*
X122584342Y-56942856D01*
X122584342Y-56942856D02*
X122393866Y-56990475D01*
X122393866Y-56990475D02*
X122155771Y-56990475D01*
X122155771Y-56990475D02*
X121965295Y-56942856D01*
X121965295Y-56942856D02*
X121870057Y-56895237D01*
X121870057Y-56895237D02*
X121822438Y-56847618D01*
X121822438Y-56847618D02*
X121774819Y-56752380D01*
X122108152Y-55561904D02*
X122774819Y-55561904D01*
X122108152Y-55990475D02*
X122631961Y-55990475D01*
X122631961Y-55990475D02*
X122727200Y-55942856D01*
X122727200Y-55942856D02*
X122774819Y-55847618D01*
X122774819Y-55847618D02*
X122774819Y-55704761D01*
X122774819Y-55704761D02*
X122727200Y-55609523D01*
X122727200Y-55609523D02*
X122679580Y-55561904D01*
X122251009Y-54752380D02*
X122251009Y-55085713D01*
X122774819Y-55085713D02*
X121774819Y-55085713D01*
X121774819Y-55085713D02*
X121774819Y-54609523D01*
D12*
X123893832Y-56366666D02*
X123912880Y-56385714D01*
X123912880Y-56385714D02*
X123931927Y-56442856D01*
X123931927Y-56442856D02*
X123931927Y-56480952D01*
X123931927Y-56480952D02*
X123912880Y-56538095D01*
X123912880Y-56538095D02*
X123874784Y-56576190D01*
X123874784Y-56576190D02*
X123836689Y-56595237D01*
X123836689Y-56595237D02*
X123760499Y-56614285D01*
X123760499Y-56614285D02*
X123703356Y-56614285D01*
X123703356Y-56614285D02*
X123627165Y-56595237D01*
X123627165Y-56595237D02*
X123589070Y-56576190D01*
X123589070Y-56576190D02*
X123550975Y-56538095D01*
X123550975Y-56538095D02*
X123531927Y-56480952D01*
X123531927Y-56480952D02*
X123531927Y-56442856D01*
X123531927Y-56442856D02*
X123550975Y-56385714D01*
X123550975Y-56385714D02*
X123570022Y-56366666D01*
X123931927Y-56176190D02*
X123931927Y-56099999D01*
X123931927Y-56099999D02*
X123912880Y-56061904D01*
X123912880Y-56061904D02*
X123893832Y-56042856D01*
X123893832Y-56042856D02*
X123836689Y-56004761D01*
X123836689Y-56004761D02*
X123760499Y-55985714D01*
X123760499Y-55985714D02*
X123608118Y-55985714D01*
X123608118Y-55985714D02*
X123570022Y-56004761D01*
X123570022Y-56004761D02*
X123550975Y-56023809D01*
X123550975Y-56023809D02*
X123531927Y-56061904D01*
X123531927Y-56061904D02*
X123531927Y-56138095D01*
X123531927Y-56138095D02*
X123550975Y-56176190D01*
X123550975Y-56176190D02*
X123570022Y-56195237D01*
X123570022Y-56195237D02*
X123608118Y-56214285D01*
X123608118Y-56214285D02*
X123703356Y-56214285D01*
X123703356Y-56214285D02*
X123741451Y-56195237D01*
X123741451Y-56195237D02*
X123760499Y-56176190D01*
X123760499Y-56176190D02*
X123779546Y-56138095D01*
X123779546Y-56138095D02*
X123779546Y-56061904D01*
X123779546Y-56061904D02*
X123760499Y-56023809D01*
X123760499Y-56023809D02*
X123741451Y-56004761D01*
X123741451Y-56004761D02*
X123703356Y-55985714D01*
X123731927Y-56704285D02*
X123731927Y-55895714D01*
D11*
X138274819Y-57421428D02*
X138274819Y-57992856D01*
X138274819Y-57707142D02*
X137274819Y-57707142D01*
X137274819Y-57707142D02*
X137417676Y-57802380D01*
X137417676Y-57802380D02*
X137512914Y-57897618D01*
X137512914Y-57897618D02*
X137560533Y-57992856D01*
X137274819Y-56802380D02*
X137274819Y-56707142D01*
X137274819Y-56707142D02*
X137322438Y-56611904D01*
X137322438Y-56611904D02*
X137370057Y-56564285D01*
X137370057Y-56564285D02*
X137465295Y-56516666D01*
X137465295Y-56516666D02*
X137655771Y-56469047D01*
X137655771Y-56469047D02*
X137893866Y-56469047D01*
X137893866Y-56469047D02*
X138084342Y-56516666D01*
X138084342Y-56516666D02*
X138179580Y-56564285D01*
X138179580Y-56564285D02*
X138227200Y-56611904D01*
X138227200Y-56611904D02*
X138274819Y-56707142D01*
X138274819Y-56707142D02*
X138274819Y-56802380D01*
X138274819Y-56802380D02*
X138227200Y-56897618D01*
X138227200Y-56897618D02*
X138179580Y-56945237D01*
X138179580Y-56945237D02*
X138084342Y-56992856D01*
X138084342Y-56992856D02*
X137893866Y-57040475D01*
X137893866Y-57040475D02*
X137655771Y-57040475D01*
X137655771Y-57040475D02*
X137465295Y-56992856D01*
X137465295Y-56992856D02*
X137370057Y-56945237D01*
X137370057Y-56945237D02*
X137322438Y-56897618D01*
X137322438Y-56897618D02*
X137274819Y-56802380D01*
X137608152Y-55611904D02*
X138274819Y-55611904D01*
X137608152Y-56040475D02*
X138131961Y-56040475D01*
X138131961Y-56040475D02*
X138227200Y-55992856D01*
X138227200Y-55992856D02*
X138274819Y-55897618D01*
X138274819Y-55897618D02*
X138274819Y-55754761D01*
X138274819Y-55754761D02*
X138227200Y-55659523D01*
X138227200Y-55659523D02*
X138179580Y-55611904D01*
X137751009Y-54802380D02*
X137751009Y-55135713D01*
X138274819Y-55135713D02*
X137274819Y-55135713D01*
X137274819Y-55135713D02*
X137274819Y-54659523D01*
D12*
X139393832Y-56416666D02*
X139412880Y-56435714D01*
X139412880Y-56435714D02*
X139431927Y-56492856D01*
X139431927Y-56492856D02*
X139431927Y-56530952D01*
X139431927Y-56530952D02*
X139412880Y-56588095D01*
X139412880Y-56588095D02*
X139374784Y-56626190D01*
X139374784Y-56626190D02*
X139336689Y-56645237D01*
X139336689Y-56645237D02*
X139260499Y-56664285D01*
X139260499Y-56664285D02*
X139203356Y-56664285D01*
X139203356Y-56664285D02*
X139127165Y-56645237D01*
X139127165Y-56645237D02*
X139089070Y-56626190D01*
X139089070Y-56626190D02*
X139050975Y-56588095D01*
X139050975Y-56588095D02*
X139031927Y-56530952D01*
X139031927Y-56530952D02*
X139031927Y-56492856D01*
X139031927Y-56492856D02*
X139050975Y-56435714D01*
X139050975Y-56435714D02*
X139070022Y-56416666D01*
X139203356Y-56188095D02*
X139184308Y-56226190D01*
X139184308Y-56226190D02*
X139165260Y-56245237D01*
X139165260Y-56245237D02*
X139127165Y-56264285D01*
X139127165Y-56264285D02*
X139108118Y-56264285D01*
X139108118Y-56264285D02*
X139070022Y-56245237D01*
X139070022Y-56245237D02*
X139050975Y-56226190D01*
X139050975Y-56226190D02*
X139031927Y-56188095D01*
X139031927Y-56188095D02*
X139031927Y-56111904D01*
X139031927Y-56111904D02*
X139050975Y-56073809D01*
X139050975Y-56073809D02*
X139070022Y-56054761D01*
X139070022Y-56054761D02*
X139108118Y-56035714D01*
X139108118Y-56035714D02*
X139127165Y-56035714D01*
X139127165Y-56035714D02*
X139165260Y-56054761D01*
X139165260Y-56054761D02*
X139184308Y-56073809D01*
X139184308Y-56073809D02*
X139203356Y-56111904D01*
X139203356Y-56111904D02*
X139203356Y-56188095D01*
X139203356Y-56188095D02*
X139222403Y-56226190D01*
X139222403Y-56226190D02*
X139241451Y-56245237D01*
X139241451Y-56245237D02*
X139279546Y-56264285D01*
X139279546Y-56264285D02*
X139355737Y-56264285D01*
X139355737Y-56264285D02*
X139393832Y-56245237D01*
X139393832Y-56245237D02*
X139412880Y-56226190D01*
X139412880Y-56226190D02*
X139431927Y-56188095D01*
X139431927Y-56188095D02*
X139431927Y-56111904D01*
X139431927Y-56111904D02*
X139412880Y-56073809D01*
X139412880Y-56073809D02*
X139393832Y-56054761D01*
X139393832Y-56054761D02*
X139355737Y-56035714D01*
X139355737Y-56035714D02*
X139279546Y-56035714D01*
X139279546Y-56035714D02*
X139241451Y-56054761D01*
X139241451Y-56054761D02*
X139222403Y-56073809D01*
X139222403Y-56073809D02*
X139203356Y-56111904D01*
X139231927Y-56754285D02*
X139231927Y-55945714D01*
D11*
X141494819Y-80766666D02*
X141494819Y-81338094D01*
X141494819Y-81052380D02*
X140494819Y-81052380D01*
X140494819Y-81052380D02*
X140637676Y-81147618D01*
X140637676Y-81147618D02*
X140732914Y-81242856D01*
X140732914Y-81242856D02*
X140780533Y-81338094D01*
X140828152Y-79909523D02*
X141494819Y-79909523D01*
X140828152Y-80338094D02*
X141351961Y-80338094D01*
X141351961Y-80338094D02*
X141447200Y-80290475D01*
X141447200Y-80290475D02*
X141494819Y-80195237D01*
X141494819Y-80195237D02*
X141494819Y-80052380D01*
X141494819Y-80052380D02*
X141447200Y-79957142D01*
X141447200Y-79957142D02*
X141399580Y-79909523D01*
D10*
X142289765Y-80760714D02*
X142301670Y-80772618D01*
X142301670Y-80772618D02*
X142313574Y-80808333D01*
X142313574Y-80808333D02*
X142313574Y-80832142D01*
X142313574Y-80832142D02*
X142301670Y-80867856D01*
X142301670Y-80867856D02*
X142277860Y-80891666D01*
X142277860Y-80891666D02*
X142254050Y-80903571D01*
X142254050Y-80903571D02*
X142206431Y-80915475D01*
X142206431Y-80915475D02*
X142170717Y-80915475D01*
X142170717Y-80915475D02*
X142123098Y-80903571D01*
X142123098Y-80903571D02*
X142099289Y-80891666D01*
X142099289Y-80891666D02*
X142075479Y-80867856D01*
X142075479Y-80867856D02*
X142063574Y-80832142D01*
X142063574Y-80832142D02*
X142063574Y-80808333D01*
X142063574Y-80808333D02*
X142075479Y-80772618D01*
X142075479Y-80772618D02*
X142087384Y-80760714D01*
X142313574Y-80522618D02*
X142313574Y-80665475D01*
X142313574Y-80594047D02*
X142063574Y-80594047D01*
X142063574Y-80594047D02*
X142099289Y-80617856D01*
X142099289Y-80617856D02*
X142123098Y-80641666D01*
X142123098Y-80641666D02*
X142135003Y-80665475D01*
X142146908Y-80308333D02*
X142313574Y-80308333D01*
X142051670Y-80367857D02*
X142230241Y-80427380D01*
X142230241Y-80427380D02*
X142230241Y-80272619D01*
D11*
X134594819Y-80766666D02*
X134594819Y-81338094D01*
X134594819Y-81052380D02*
X133594819Y-81052380D01*
X133594819Y-81052380D02*
X133737676Y-81147618D01*
X133737676Y-81147618D02*
X133832914Y-81242856D01*
X133832914Y-81242856D02*
X133880533Y-81338094D01*
X133928152Y-79909523D02*
X134594819Y-79909523D01*
X133928152Y-80338094D02*
X134451961Y-80338094D01*
X134451961Y-80338094D02*
X134547200Y-80290475D01*
X134547200Y-80290475D02*
X134594819Y-80195237D01*
X134594819Y-80195237D02*
X134594819Y-80052380D01*
X134594819Y-80052380D02*
X134547200Y-79957142D01*
X134547200Y-79957142D02*
X134499580Y-79909523D01*
D10*
X135389765Y-80760714D02*
X135401670Y-80772618D01*
X135401670Y-80772618D02*
X135413574Y-80808333D01*
X135413574Y-80808333D02*
X135413574Y-80832142D01*
X135413574Y-80832142D02*
X135401670Y-80867856D01*
X135401670Y-80867856D02*
X135377860Y-80891666D01*
X135377860Y-80891666D02*
X135354050Y-80903571D01*
X135354050Y-80903571D02*
X135306431Y-80915475D01*
X135306431Y-80915475D02*
X135270717Y-80915475D01*
X135270717Y-80915475D02*
X135223098Y-80903571D01*
X135223098Y-80903571D02*
X135199289Y-80891666D01*
X135199289Y-80891666D02*
X135175479Y-80867856D01*
X135175479Y-80867856D02*
X135163574Y-80832142D01*
X135163574Y-80832142D02*
X135163574Y-80808333D01*
X135163574Y-80808333D02*
X135175479Y-80772618D01*
X135175479Y-80772618D02*
X135187384Y-80760714D01*
X135413574Y-80522618D02*
X135413574Y-80665475D01*
X135413574Y-80594047D02*
X135163574Y-80594047D01*
X135163574Y-80594047D02*
X135199289Y-80617856D01*
X135199289Y-80617856D02*
X135223098Y-80641666D01*
X135223098Y-80641666D02*
X135235003Y-80665475D01*
X135163574Y-80367857D02*
X135163574Y-80344047D01*
X135163574Y-80344047D02*
X135175479Y-80320238D01*
X135175479Y-80320238D02*
X135187384Y-80308333D01*
X135187384Y-80308333D02*
X135211193Y-80296428D01*
X135211193Y-80296428D02*
X135258812Y-80284523D01*
X135258812Y-80284523D02*
X135318336Y-80284523D01*
X135318336Y-80284523D02*
X135365955Y-80296428D01*
X135365955Y-80296428D02*
X135389765Y-80308333D01*
X135389765Y-80308333D02*
X135401670Y-80320238D01*
X135401670Y-80320238D02*
X135413574Y-80344047D01*
X135413574Y-80344047D02*
X135413574Y-80367857D01*
X135413574Y-80367857D02*
X135401670Y-80391666D01*
X135401670Y-80391666D02*
X135389765Y-80403571D01*
X135389765Y-80403571D02*
X135365955Y-80415476D01*
X135365955Y-80415476D02*
X135318336Y-80427380D01*
X135318336Y-80427380D02*
X135258812Y-80427380D01*
X135258812Y-80427380D02*
X135211193Y-80415476D01*
X135211193Y-80415476D02*
X135187384Y-80403571D01*
X135187384Y-80403571D02*
X135175479Y-80391666D01*
X135175479Y-80391666D02*
X135163574Y-80367857D01*
D12*
X157631927Y-54229166D02*
X157441451Y-54362499D01*
X157631927Y-54457737D02*
X157231927Y-54457737D01*
X157231927Y-54457737D02*
X157231927Y-54305356D01*
X157231927Y-54305356D02*
X157250975Y-54267261D01*
X157250975Y-54267261D02*
X157270022Y-54248214D01*
X157270022Y-54248214D02*
X157308118Y-54229166D01*
X157308118Y-54229166D02*
X157365260Y-54229166D01*
X157365260Y-54229166D02*
X157403356Y-54248214D01*
X157403356Y-54248214D02*
X157422403Y-54267261D01*
X157422403Y-54267261D02*
X157441451Y-54305356D01*
X157441451Y-54305356D02*
X157441451Y-54457737D01*
X157231927Y-53886309D02*
X157231927Y-53962499D01*
X157231927Y-53962499D02*
X157250975Y-54000595D01*
X157250975Y-54000595D02*
X157270022Y-54019642D01*
X157270022Y-54019642D02*
X157327165Y-54057737D01*
X157327165Y-54057737D02*
X157403356Y-54076785D01*
X157403356Y-54076785D02*
X157555737Y-54076785D01*
X157555737Y-54076785D02*
X157593832Y-54057737D01*
X157593832Y-54057737D02*
X157612880Y-54038690D01*
X157612880Y-54038690D02*
X157631927Y-54000595D01*
X157631927Y-54000595D02*
X157631927Y-53924404D01*
X157631927Y-53924404D02*
X157612880Y-53886309D01*
X157612880Y-53886309D02*
X157593832Y-53867261D01*
X157593832Y-53867261D02*
X157555737Y-53848214D01*
X157555737Y-53848214D02*
X157460499Y-53848214D01*
X157460499Y-53848214D02*
X157422403Y-53867261D01*
X157422403Y-53867261D02*
X157403356Y-53886309D01*
X157403356Y-53886309D02*
X157384308Y-53924404D01*
X157384308Y-53924404D02*
X157384308Y-54000595D01*
X157384308Y-54000595D02*
X157403356Y-54038690D01*
X157403356Y-54038690D02*
X157422403Y-54057737D01*
X157422403Y-54057737D02*
X157460499Y-54076785D01*
D11*
X158728571Y-59447319D02*
X158157143Y-59447319D01*
X158442857Y-59447319D02*
X158442857Y-58447319D01*
X158442857Y-58447319D02*
X158347619Y-58590176D01*
X158347619Y-58590176D02*
X158252381Y-58685414D01*
X158252381Y-58685414D02*
X158157143Y-58733033D01*
X159347619Y-58447319D02*
X159442857Y-58447319D01*
X159442857Y-58447319D02*
X159538095Y-58494938D01*
X159538095Y-58494938D02*
X159585714Y-58542557D01*
X159585714Y-58542557D02*
X159633333Y-58637795D01*
X159633333Y-58637795D02*
X159680952Y-58828271D01*
X159680952Y-58828271D02*
X159680952Y-59066366D01*
X159680952Y-59066366D02*
X159633333Y-59256842D01*
X159633333Y-59256842D02*
X159585714Y-59352080D01*
X159585714Y-59352080D02*
X159538095Y-59399700D01*
X159538095Y-59399700D02*
X159442857Y-59447319D01*
X159442857Y-59447319D02*
X159347619Y-59447319D01*
X159347619Y-59447319D02*
X159252381Y-59399700D01*
X159252381Y-59399700D02*
X159204762Y-59352080D01*
X159204762Y-59352080D02*
X159157143Y-59256842D01*
X159157143Y-59256842D02*
X159109524Y-59066366D01*
X159109524Y-59066366D02*
X159109524Y-58828271D01*
X159109524Y-58828271D02*
X159157143Y-58637795D01*
X159157143Y-58637795D02*
X159204762Y-58542557D01*
X159204762Y-58542557D02*
X159252381Y-58494938D01*
X159252381Y-58494938D02*
X159347619Y-58447319D01*
X160538095Y-58780652D02*
X160538095Y-59447319D01*
X160109524Y-58780652D02*
X160109524Y-59304461D01*
X160109524Y-59304461D02*
X160157143Y-59399700D01*
X160157143Y-59399700D02*
X160252381Y-59447319D01*
X160252381Y-59447319D02*
X160395238Y-59447319D01*
X160395238Y-59447319D02*
X160490476Y-59399700D01*
X160490476Y-59399700D02*
X160538095Y-59352080D01*
X161347619Y-58923509D02*
X161014286Y-58923509D01*
X161014286Y-59447319D02*
X161014286Y-58447319D01*
X161014286Y-58447319D02*
X161490476Y-58447319D01*
D12*
X159733333Y-57706332D02*
X159714285Y-57725380D01*
X159714285Y-57725380D02*
X159657143Y-57744427D01*
X159657143Y-57744427D02*
X159619047Y-57744427D01*
X159619047Y-57744427D02*
X159561904Y-57725380D01*
X159561904Y-57725380D02*
X159523809Y-57687284D01*
X159523809Y-57687284D02*
X159504762Y-57649189D01*
X159504762Y-57649189D02*
X159485714Y-57572999D01*
X159485714Y-57572999D02*
X159485714Y-57515856D01*
X159485714Y-57515856D02*
X159504762Y-57439665D01*
X159504762Y-57439665D02*
X159523809Y-57401570D01*
X159523809Y-57401570D02*
X159561904Y-57363475D01*
X159561904Y-57363475D02*
X159619047Y-57344427D01*
X159619047Y-57344427D02*
X159657143Y-57344427D01*
X159657143Y-57344427D02*
X159714285Y-57363475D01*
X159714285Y-57363475D02*
X159733333Y-57382522D01*
X160095238Y-57344427D02*
X159904762Y-57344427D01*
X159904762Y-57344427D02*
X159885714Y-57534903D01*
X159885714Y-57534903D02*
X159904762Y-57515856D01*
X159904762Y-57515856D02*
X159942857Y-57496808D01*
X159942857Y-57496808D02*
X160038095Y-57496808D01*
X160038095Y-57496808D02*
X160076190Y-57515856D01*
X160076190Y-57515856D02*
X160095238Y-57534903D01*
X160095238Y-57534903D02*
X160114285Y-57572999D01*
X160114285Y-57572999D02*
X160114285Y-57668237D01*
X160114285Y-57668237D02*
X160095238Y-57706332D01*
X160095238Y-57706332D02*
X160076190Y-57725380D01*
X160076190Y-57725380D02*
X160038095Y-57744427D01*
X160038095Y-57744427D02*
X159942857Y-57744427D01*
X159942857Y-57744427D02*
X159904762Y-57725380D01*
X159904762Y-57725380D02*
X159885714Y-57706332D01*
D11*
X123239580Y-56438095D02*
X123287200Y-56485714D01*
X123287200Y-56485714D02*
X123334819Y-56628571D01*
X123334819Y-56628571D02*
X123334819Y-56723809D01*
X123334819Y-56723809D02*
X123287200Y-56866666D01*
X123287200Y-56866666D02*
X123191961Y-56961904D01*
X123191961Y-56961904D02*
X123096723Y-57009523D01*
X123096723Y-57009523D02*
X122906247Y-57057142D01*
X122906247Y-57057142D02*
X122763390Y-57057142D01*
X122763390Y-57057142D02*
X122572914Y-57009523D01*
X122572914Y-57009523D02*
X122477676Y-56961904D01*
X122477676Y-56961904D02*
X122382438Y-56866666D01*
X122382438Y-56866666D02*
X122334819Y-56723809D01*
X122334819Y-56723809D02*
X122334819Y-56628571D01*
X122334819Y-56628571D02*
X122382438Y-56485714D01*
X122382438Y-56485714D02*
X122430057Y-56438095D01*
X123334819Y-55866666D02*
X123287200Y-55961904D01*
X123287200Y-55961904D02*
X123239580Y-56009523D01*
X123239580Y-56009523D02*
X123144342Y-56057142D01*
X123144342Y-56057142D02*
X122858628Y-56057142D01*
X122858628Y-56057142D02*
X122763390Y-56009523D01*
X122763390Y-56009523D02*
X122715771Y-55961904D01*
X122715771Y-55961904D02*
X122668152Y-55866666D01*
X122668152Y-55866666D02*
X122668152Y-55723809D01*
X122668152Y-55723809D02*
X122715771Y-55628571D01*
X122715771Y-55628571D02*
X122763390Y-55580952D01*
X122763390Y-55580952D02*
X122858628Y-55533333D01*
X122858628Y-55533333D02*
X123144342Y-55533333D01*
X123144342Y-55533333D02*
X123239580Y-55580952D01*
X123239580Y-55580952D02*
X123287200Y-55628571D01*
X123287200Y-55628571D02*
X123334819Y-55723809D01*
X123334819Y-55723809D02*
X123334819Y-55866666D01*
X122668152Y-55104761D02*
X123334819Y-55104761D01*
X122763390Y-55104761D02*
X122715771Y-55057142D01*
X122715771Y-55057142D02*
X122668152Y-54961904D01*
X122668152Y-54961904D02*
X122668152Y-54819047D01*
X122668152Y-54819047D02*
X122715771Y-54723809D01*
X122715771Y-54723809D02*
X122811009Y-54676190D01*
X122811009Y-54676190D02*
X123334819Y-54676190D01*
X122668152Y-54199999D02*
X123334819Y-54199999D01*
X122763390Y-54199999D02*
X122715771Y-54152380D01*
X122715771Y-54152380D02*
X122668152Y-54057142D01*
X122668152Y-54057142D02*
X122668152Y-53914285D01*
X122668152Y-53914285D02*
X122715771Y-53819047D01*
X122715771Y-53819047D02*
X122811009Y-53771428D01*
X122811009Y-53771428D02*
X123334819Y-53771428D01*
X123430057Y-53533333D02*
X123430057Y-52771428D01*
X122334819Y-52342856D02*
X122334819Y-52247618D01*
X122334819Y-52247618D02*
X122382438Y-52152380D01*
X122382438Y-52152380D02*
X122430057Y-52104761D01*
X122430057Y-52104761D02*
X122525295Y-52057142D01*
X122525295Y-52057142D02*
X122715771Y-52009523D01*
X122715771Y-52009523D02*
X122953866Y-52009523D01*
X122953866Y-52009523D02*
X123144342Y-52057142D01*
X123144342Y-52057142D02*
X123239580Y-52104761D01*
X123239580Y-52104761D02*
X123287200Y-52152380D01*
X123287200Y-52152380D02*
X123334819Y-52247618D01*
X123334819Y-52247618D02*
X123334819Y-52342856D01*
X123334819Y-52342856D02*
X123287200Y-52438094D01*
X123287200Y-52438094D02*
X123239580Y-52485713D01*
X123239580Y-52485713D02*
X123144342Y-52533332D01*
X123144342Y-52533332D02*
X122953866Y-52580951D01*
X122953866Y-52580951D02*
X122715771Y-52580951D01*
X122715771Y-52580951D02*
X122525295Y-52533332D01*
X122525295Y-52533332D02*
X122430057Y-52485713D01*
X122430057Y-52485713D02*
X122382438Y-52438094D01*
X122382438Y-52438094D02*
X122334819Y-52342856D01*
X123334819Y-51057142D02*
X123334819Y-51628570D01*
X123334819Y-51342856D02*
X122334819Y-51342856D01*
X122334819Y-51342856D02*
X122477676Y-51438094D01*
X122477676Y-51438094D02*
X122572914Y-51533332D01*
X122572914Y-51533332D02*
X122620533Y-51628570D01*
X123334819Y-50723808D02*
X122668152Y-50199999D01*
X122668152Y-50723808D02*
X123334819Y-50199999D01*
X123334819Y-49295237D02*
X123334819Y-49866665D01*
X123334819Y-49580951D02*
X122334819Y-49580951D01*
X122334819Y-49580951D02*
X122477676Y-49676189D01*
X122477676Y-49676189D02*
X122572914Y-49771427D01*
X122572914Y-49771427D02*
X122620533Y-49866665D01*
X122430057Y-48914284D02*
X122382438Y-48866665D01*
X122382438Y-48866665D02*
X122334819Y-48771427D01*
X122334819Y-48771427D02*
X122334819Y-48533332D01*
X122334819Y-48533332D02*
X122382438Y-48438094D01*
X122382438Y-48438094D02*
X122430057Y-48390475D01*
X122430057Y-48390475D02*
X122525295Y-48342856D01*
X122525295Y-48342856D02*
X122620533Y-48342856D01*
X122620533Y-48342856D02*
X122763390Y-48390475D01*
X122763390Y-48390475D02*
X123334819Y-48961903D01*
X123334819Y-48961903D02*
X123334819Y-48342856D01*
X138896666Y-52154819D02*
X138896666Y-52869104D01*
X138896666Y-52869104D02*
X138849047Y-53011961D01*
X138849047Y-53011961D02*
X138753809Y-53107200D01*
X138753809Y-53107200D02*
X138610952Y-53154819D01*
X138610952Y-53154819D02*
X138515714Y-53154819D01*
X139896666Y-53154819D02*
X139325238Y-53154819D01*
X139610952Y-53154819D02*
X139610952Y-52154819D01*
X139610952Y-52154819D02*
X139515714Y-52297676D01*
X139515714Y-52297676D02*
X139420476Y-52392914D01*
X139420476Y-52392914D02*
X139325238Y-52440533D01*
X138296423Y-52655532D02*
X140115957Y-52655532D01*
X111366666Y-80704819D02*
X111938094Y-80704819D01*
X111652380Y-81704819D02*
X111652380Y-80704819D01*
X112652380Y-81657200D02*
X112557142Y-81704819D01*
X112557142Y-81704819D02*
X112366666Y-81704819D01*
X112366666Y-81704819D02*
X112271428Y-81657200D01*
X112271428Y-81657200D02*
X112223809Y-81561961D01*
X112223809Y-81561961D02*
X112223809Y-81181009D01*
X112223809Y-81181009D02*
X112271428Y-81085771D01*
X112271428Y-81085771D02*
X112366666Y-81038152D01*
X112366666Y-81038152D02*
X112557142Y-81038152D01*
X112557142Y-81038152D02*
X112652380Y-81085771D01*
X112652380Y-81085771D02*
X112699999Y-81181009D01*
X112699999Y-81181009D02*
X112699999Y-81276247D01*
X112699999Y-81276247D02*
X112223809Y-81371485D01*
X113080952Y-81657200D02*
X113176190Y-81704819D01*
X113176190Y-81704819D02*
X113366666Y-81704819D01*
X113366666Y-81704819D02*
X113461904Y-81657200D01*
X113461904Y-81657200D02*
X113509523Y-81561961D01*
X113509523Y-81561961D02*
X113509523Y-81514342D01*
X113509523Y-81514342D02*
X113461904Y-81419104D01*
X113461904Y-81419104D02*
X113366666Y-81371485D01*
X113366666Y-81371485D02*
X113223809Y-81371485D01*
X113223809Y-81371485D02*
X113128571Y-81323866D01*
X113128571Y-81323866D02*
X113080952Y-81228628D01*
X113080952Y-81228628D02*
X113080952Y-81181009D01*
X113080952Y-81181009D02*
X113128571Y-81085771D01*
X113128571Y-81085771D02*
X113223809Y-81038152D01*
X113223809Y-81038152D02*
X113366666Y-81038152D01*
X113366666Y-81038152D02*
X113461904Y-81085771D01*
X113795238Y-81038152D02*
X114176190Y-81038152D01*
X113938095Y-80704819D02*
X113938095Y-81561961D01*
X113938095Y-81561961D02*
X113985714Y-81657200D01*
X113985714Y-81657200D02*
X114080952Y-81704819D01*
X114080952Y-81704819D02*
X114176190Y-81704819D01*
X114509524Y-81704819D02*
X114509524Y-80704819D01*
X114509524Y-80704819D02*
X114890476Y-80704819D01*
X114890476Y-80704819D02*
X114985714Y-80752438D01*
X114985714Y-80752438D02*
X115033333Y-80800057D01*
X115033333Y-80800057D02*
X115080952Y-80895295D01*
X115080952Y-80895295D02*
X115080952Y-81038152D01*
X115080952Y-81038152D02*
X115033333Y-81133390D01*
X115033333Y-81133390D02*
X114985714Y-81181009D01*
X114985714Y-81181009D02*
X114890476Y-81228628D01*
X114890476Y-81228628D02*
X114509524Y-81228628D01*
X115652381Y-81704819D02*
X115557143Y-81657200D01*
X115557143Y-81657200D02*
X115509524Y-81609580D01*
X115509524Y-81609580D02*
X115461905Y-81514342D01*
X115461905Y-81514342D02*
X115461905Y-81228628D01*
X115461905Y-81228628D02*
X115509524Y-81133390D01*
X115509524Y-81133390D02*
X115557143Y-81085771D01*
X115557143Y-81085771D02*
X115652381Y-81038152D01*
X115652381Y-81038152D02*
X115795238Y-81038152D01*
X115795238Y-81038152D02*
X115890476Y-81085771D01*
X115890476Y-81085771D02*
X115938095Y-81133390D01*
X115938095Y-81133390D02*
X115985714Y-81228628D01*
X115985714Y-81228628D02*
X115985714Y-81514342D01*
X115985714Y-81514342D02*
X115938095Y-81609580D01*
X115938095Y-81609580D02*
X115890476Y-81657200D01*
X115890476Y-81657200D02*
X115795238Y-81704819D01*
X115795238Y-81704819D02*
X115652381Y-81704819D01*
X116414286Y-81704819D02*
X116414286Y-81038152D01*
X116414286Y-80704819D02*
X116366667Y-80752438D01*
X116366667Y-80752438D02*
X116414286Y-80800057D01*
X116414286Y-80800057D02*
X116461905Y-80752438D01*
X116461905Y-80752438D02*
X116414286Y-80704819D01*
X116414286Y-80704819D02*
X116414286Y-80800057D01*
X116890476Y-81038152D02*
X116890476Y-81704819D01*
X116890476Y-81133390D02*
X116938095Y-81085771D01*
X116938095Y-81085771D02*
X117033333Y-81038152D01*
X117033333Y-81038152D02*
X117176190Y-81038152D01*
X117176190Y-81038152D02*
X117271428Y-81085771D01*
X117271428Y-81085771D02*
X117319047Y-81181009D01*
X117319047Y-81181009D02*
X117319047Y-81704819D01*
X117652381Y-81038152D02*
X118033333Y-81038152D01*
X117795238Y-80704819D02*
X117795238Y-81561961D01*
X117795238Y-81561961D02*
X117842857Y-81657200D01*
X117842857Y-81657200D02*
X117938095Y-81704819D01*
X117938095Y-81704819D02*
X118033333Y-81704819D01*
X113438095Y-77704819D02*
X114009523Y-77704819D01*
X113723809Y-78704819D02*
X113723809Y-77704819D01*
X114342857Y-78704819D02*
X114342857Y-77704819D01*
X114342857Y-77704819D02*
X114723809Y-77704819D01*
X114723809Y-77704819D02*
X114819047Y-77752438D01*
X114819047Y-77752438D02*
X114866666Y-77800057D01*
X114866666Y-77800057D02*
X114914285Y-77895295D01*
X114914285Y-77895295D02*
X114914285Y-78038152D01*
X114914285Y-78038152D02*
X114866666Y-78133390D01*
X114866666Y-78133390D02*
X114819047Y-78181009D01*
X114819047Y-78181009D02*
X114723809Y-78228628D01*
X114723809Y-78228628D02*
X114342857Y-78228628D01*
X115295238Y-77800057D02*
X115342857Y-77752438D01*
X115342857Y-77752438D02*
X115438095Y-77704819D01*
X115438095Y-77704819D02*
X115676190Y-77704819D01*
X115676190Y-77704819D02*
X115771428Y-77752438D01*
X115771428Y-77752438D02*
X115819047Y-77800057D01*
X115819047Y-77800057D02*
X115866666Y-77895295D01*
X115866666Y-77895295D02*
X115866666Y-77990533D01*
X115866666Y-77990533D02*
X115819047Y-78133390D01*
X115819047Y-78133390D02*
X115247619Y-78704819D01*
X115247619Y-78704819D02*
X115866666Y-78704819D01*
X162624819Y-63119047D02*
X162624819Y-63690475D01*
X162624819Y-63404761D02*
X161624819Y-63404761D01*
X161624819Y-63404761D02*
X161767676Y-63499999D01*
X161767676Y-63499999D02*
X161862914Y-63595237D01*
X161862914Y-63595237D02*
X161910533Y-63690475D01*
X162624819Y-62690475D02*
X161624819Y-62690475D01*
X162243866Y-62595237D02*
X162624819Y-62309523D01*
X161958152Y-62309523D02*
X162339104Y-62690475D01*
D10*
X161118200Y-63167142D02*
X160994391Y-63253809D01*
X161118200Y-63315714D02*
X160858200Y-63315714D01*
X160858200Y-63315714D02*
X160858200Y-63216666D01*
X160858200Y-63216666D02*
X160870581Y-63191904D01*
X160870581Y-63191904D02*
X160882962Y-63179523D01*
X160882962Y-63179523D02*
X160907724Y-63167142D01*
X160907724Y-63167142D02*
X160944867Y-63167142D01*
X160944867Y-63167142D02*
X160969629Y-63179523D01*
X160969629Y-63179523D02*
X160982010Y-63191904D01*
X160982010Y-63191904D02*
X160994391Y-63216666D01*
X160994391Y-63216666D02*
X160994391Y-63315714D01*
X161118200Y-62919523D02*
X161118200Y-63068095D01*
X161118200Y-62993809D02*
X160858200Y-62993809D01*
X160858200Y-62993809D02*
X160895343Y-63018571D01*
X160895343Y-63018571D02*
X160920105Y-63043333D01*
X160920105Y-63043333D02*
X160932486Y-63068095D01*
X161118200Y-62671904D02*
X161118200Y-62820476D01*
X161118200Y-62746190D02*
X160858200Y-62746190D01*
X160858200Y-62746190D02*
X160895343Y-62770952D01*
X160895343Y-62770952D02*
X160920105Y-62795714D01*
X160920105Y-62795714D02*
X160932486Y-62820476D01*
X148439285Y-94289765D02*
X148427381Y-94301670D01*
X148427381Y-94301670D02*
X148391666Y-94313574D01*
X148391666Y-94313574D02*
X148367857Y-94313574D01*
X148367857Y-94313574D02*
X148332143Y-94301670D01*
X148332143Y-94301670D02*
X148308333Y-94277860D01*
X148308333Y-94277860D02*
X148296428Y-94254050D01*
X148296428Y-94254050D02*
X148284524Y-94206431D01*
X148284524Y-94206431D02*
X148284524Y-94170717D01*
X148284524Y-94170717D02*
X148296428Y-94123098D01*
X148296428Y-94123098D02*
X148308333Y-94099289D01*
X148308333Y-94099289D02*
X148332143Y-94075479D01*
X148332143Y-94075479D02*
X148367857Y-94063574D01*
X148367857Y-94063574D02*
X148391666Y-94063574D01*
X148391666Y-94063574D02*
X148427381Y-94075479D01*
X148427381Y-94075479D02*
X148439285Y-94087384D01*
X148677381Y-94313574D02*
X148534524Y-94313574D01*
X148605952Y-94313574D02*
X148605952Y-94063574D01*
X148605952Y-94063574D02*
X148582143Y-94099289D01*
X148582143Y-94099289D02*
X148558333Y-94123098D01*
X148558333Y-94123098D02*
X148534524Y-94135003D01*
X148903571Y-94063574D02*
X148784523Y-94063574D01*
X148784523Y-94063574D02*
X148772619Y-94182622D01*
X148772619Y-94182622D02*
X148784523Y-94170717D01*
X148784523Y-94170717D02*
X148808333Y-94158812D01*
X148808333Y-94158812D02*
X148867857Y-94158812D01*
X148867857Y-94158812D02*
X148891666Y-94170717D01*
X148891666Y-94170717D02*
X148903571Y-94182622D01*
X148903571Y-94182622D02*
X148915476Y-94206431D01*
X148915476Y-94206431D02*
X148915476Y-94265955D01*
X148915476Y-94265955D02*
X148903571Y-94289765D01*
X148903571Y-94289765D02*
X148891666Y-94301670D01*
X148891666Y-94301670D02*
X148867857Y-94313574D01*
X148867857Y-94313574D02*
X148808333Y-94313574D01*
X148808333Y-94313574D02*
X148784523Y-94301670D01*
X148784523Y-94301670D02*
X148772619Y-94289765D01*
X118989765Y-51241666D02*
X119001670Y-51253570D01*
X119001670Y-51253570D02*
X119013574Y-51289285D01*
X119013574Y-51289285D02*
X119013574Y-51313094D01*
X119013574Y-51313094D02*
X119001670Y-51348808D01*
X119001670Y-51348808D02*
X118977860Y-51372618D01*
X118977860Y-51372618D02*
X118954050Y-51384523D01*
X118954050Y-51384523D02*
X118906431Y-51396427D01*
X118906431Y-51396427D02*
X118870717Y-51396427D01*
X118870717Y-51396427D02*
X118823098Y-51384523D01*
X118823098Y-51384523D02*
X118799289Y-51372618D01*
X118799289Y-51372618D02*
X118775479Y-51348808D01*
X118775479Y-51348808D02*
X118763574Y-51313094D01*
X118763574Y-51313094D02*
X118763574Y-51289285D01*
X118763574Y-51289285D02*
X118775479Y-51253570D01*
X118775479Y-51253570D02*
X118787384Y-51241666D01*
X118763574Y-51158332D02*
X118763574Y-51003570D01*
X118763574Y-51003570D02*
X118858812Y-51086904D01*
X118858812Y-51086904D02*
X118858812Y-51051189D01*
X118858812Y-51051189D02*
X118870717Y-51027380D01*
X118870717Y-51027380D02*
X118882622Y-51015475D01*
X118882622Y-51015475D02*
X118906431Y-51003570D01*
X118906431Y-51003570D02*
X118965955Y-51003570D01*
X118965955Y-51003570D02*
X118989765Y-51015475D01*
X118989765Y-51015475D02*
X119001670Y-51027380D01*
X119001670Y-51027380D02*
X119013574Y-51051189D01*
X119013574Y-51051189D02*
X119013574Y-51122618D01*
X119013574Y-51122618D02*
X119001670Y-51146427D01*
X119001670Y-51146427D02*
X118989765Y-51158332D01*
D11*
X114738095Y-61704819D02*
X115309523Y-61704819D01*
X115023809Y-62704819D02*
X115023809Y-61704819D01*
X115642857Y-62704819D02*
X115642857Y-61704819D01*
X115642857Y-61704819D02*
X116023809Y-61704819D01*
X116023809Y-61704819D02*
X116119047Y-61752438D01*
X116119047Y-61752438D02*
X116166666Y-61800057D01*
X116166666Y-61800057D02*
X116214285Y-61895295D01*
X116214285Y-61895295D02*
X116214285Y-62038152D01*
X116214285Y-62038152D02*
X116166666Y-62133390D01*
X116166666Y-62133390D02*
X116119047Y-62181009D01*
X116119047Y-62181009D02*
X116023809Y-62228628D01*
X116023809Y-62228628D02*
X115642857Y-62228628D01*
X116547619Y-61704819D02*
X117166666Y-61704819D01*
X117166666Y-61704819D02*
X116833333Y-62085771D01*
X116833333Y-62085771D02*
X116976190Y-62085771D01*
X116976190Y-62085771D02*
X117071428Y-62133390D01*
X117071428Y-62133390D02*
X117119047Y-62181009D01*
X117119047Y-62181009D02*
X117166666Y-62276247D01*
X117166666Y-62276247D02*
X117166666Y-62514342D01*
X117166666Y-62514342D02*
X117119047Y-62609580D01*
X117119047Y-62609580D02*
X117071428Y-62657200D01*
X117071428Y-62657200D02*
X116976190Y-62704819D01*
X116976190Y-62704819D02*
X116690476Y-62704819D01*
X116690476Y-62704819D02*
X116595238Y-62657200D01*
X116595238Y-62657200D02*
X116547619Y-62609580D01*
D12*
X120933333Y-51243832D02*
X120914285Y-51262880D01*
X120914285Y-51262880D02*
X120857143Y-51281927D01*
X120857143Y-51281927D02*
X120819047Y-51281927D01*
X120819047Y-51281927D02*
X120761904Y-51262880D01*
X120761904Y-51262880D02*
X120723809Y-51224784D01*
X120723809Y-51224784D02*
X120704762Y-51186689D01*
X120704762Y-51186689D02*
X120685714Y-51110499D01*
X120685714Y-51110499D02*
X120685714Y-51053356D01*
X120685714Y-51053356D02*
X120704762Y-50977165D01*
X120704762Y-50977165D02*
X120723809Y-50939070D01*
X120723809Y-50939070D02*
X120761904Y-50900975D01*
X120761904Y-50900975D02*
X120819047Y-50881927D01*
X120819047Y-50881927D02*
X120857143Y-50881927D01*
X120857143Y-50881927D02*
X120914285Y-50900975D01*
X120914285Y-50900975D02*
X120933333Y-50920022D01*
X121085714Y-50920022D02*
X121104762Y-50900975D01*
X121104762Y-50900975D02*
X121142857Y-50881927D01*
X121142857Y-50881927D02*
X121238095Y-50881927D01*
X121238095Y-50881927D02*
X121276190Y-50900975D01*
X121276190Y-50900975D02*
X121295238Y-50920022D01*
X121295238Y-50920022D02*
X121314285Y-50958118D01*
X121314285Y-50958118D02*
X121314285Y-50996213D01*
X121314285Y-50996213D02*
X121295238Y-51053356D01*
X121295238Y-51053356D02*
X121066666Y-51281927D01*
X121066666Y-51281927D02*
X121314285Y-51281927D01*
X159781927Y-54804761D02*
X160105737Y-54804761D01*
X160105737Y-54804761D02*
X160143832Y-54785714D01*
X160143832Y-54785714D02*
X160162880Y-54766666D01*
X160162880Y-54766666D02*
X160181927Y-54728571D01*
X160181927Y-54728571D02*
X160181927Y-54652380D01*
X160181927Y-54652380D02*
X160162880Y-54614285D01*
X160162880Y-54614285D02*
X160143832Y-54595238D01*
X160143832Y-54595238D02*
X160105737Y-54576190D01*
X160105737Y-54576190D02*
X159781927Y-54576190D01*
X159820022Y-54404761D02*
X159800975Y-54385713D01*
X159800975Y-54385713D02*
X159781927Y-54347618D01*
X159781927Y-54347618D02*
X159781927Y-54252380D01*
X159781927Y-54252380D02*
X159800975Y-54214285D01*
X159800975Y-54214285D02*
X159820022Y-54195237D01*
X159820022Y-54195237D02*
X159858118Y-54176190D01*
X159858118Y-54176190D02*
X159896213Y-54176190D01*
X159896213Y-54176190D02*
X159953356Y-54195237D01*
X159953356Y-54195237D02*
X160181927Y-54423809D01*
X160181927Y-54423809D02*
X160181927Y-54176190D01*
X159981927Y-54894761D02*
X159981927Y-54086190D01*
D11*
X134352381Y-54104819D02*
X134447619Y-54104819D01*
X134447619Y-54104819D02*
X134542857Y-54152438D01*
X134542857Y-54152438D02*
X134590476Y-54200057D01*
X134590476Y-54200057D02*
X134638095Y-54295295D01*
X134638095Y-54295295D02*
X134685714Y-54485771D01*
X134685714Y-54485771D02*
X134685714Y-54723866D01*
X134685714Y-54723866D02*
X134638095Y-54914342D01*
X134638095Y-54914342D02*
X134590476Y-55009580D01*
X134590476Y-55009580D02*
X134542857Y-55057200D01*
X134542857Y-55057200D02*
X134447619Y-55104819D01*
X134447619Y-55104819D02*
X134352381Y-55104819D01*
X134352381Y-55104819D02*
X134257143Y-55057200D01*
X134257143Y-55057200D02*
X134209524Y-55009580D01*
X134209524Y-55009580D02*
X134161905Y-54914342D01*
X134161905Y-54914342D02*
X134114286Y-54723866D01*
X134114286Y-54723866D02*
X134114286Y-54485771D01*
X134114286Y-54485771D02*
X134161905Y-54295295D01*
X134161905Y-54295295D02*
X134209524Y-54200057D01*
X134209524Y-54200057D02*
X134257143Y-54152438D01*
X134257143Y-54152438D02*
X134352381Y-54104819D01*
D13*
X134316666Y-56527149D02*
X134150000Y-56289054D01*
X134030952Y-56527149D02*
X134030952Y-56027149D01*
X134030952Y-56027149D02*
X134221428Y-56027149D01*
X134221428Y-56027149D02*
X134269047Y-56050959D01*
X134269047Y-56050959D02*
X134292857Y-56074768D01*
X134292857Y-56074768D02*
X134316666Y-56122387D01*
X134316666Y-56122387D02*
X134316666Y-56193816D01*
X134316666Y-56193816D02*
X134292857Y-56241435D01*
X134292857Y-56241435D02*
X134269047Y-56265244D01*
X134269047Y-56265244D02*
X134221428Y-56289054D01*
X134221428Y-56289054D02*
X134030952Y-56289054D01*
X134745238Y-56193816D02*
X134745238Y-56527149D01*
X134626190Y-56003340D02*
X134507143Y-56360482D01*
X134507143Y-56360482D02*
X134816666Y-56360482D01*
D11*
X137794819Y-80966666D02*
X137794819Y-81538094D01*
X137794819Y-81252380D02*
X136794819Y-81252380D01*
X136794819Y-81252380D02*
X136937676Y-81347618D01*
X136937676Y-81347618D02*
X137032914Y-81442856D01*
X137032914Y-81442856D02*
X137080533Y-81538094D01*
X137128152Y-80109523D02*
X137794819Y-80109523D01*
X137128152Y-80538094D02*
X137651961Y-80538094D01*
X137651961Y-80538094D02*
X137747200Y-80490475D01*
X137747200Y-80490475D02*
X137794819Y-80395237D01*
X137794819Y-80395237D02*
X137794819Y-80252380D01*
X137794819Y-80252380D02*
X137747200Y-80157142D01*
X137747200Y-80157142D02*
X137699580Y-80109523D01*
D10*
X138589765Y-80960714D02*
X138601670Y-80972618D01*
X138601670Y-80972618D02*
X138613574Y-81008333D01*
X138613574Y-81008333D02*
X138613574Y-81032142D01*
X138613574Y-81032142D02*
X138601670Y-81067856D01*
X138601670Y-81067856D02*
X138577860Y-81091666D01*
X138577860Y-81091666D02*
X138554050Y-81103571D01*
X138554050Y-81103571D02*
X138506431Y-81115475D01*
X138506431Y-81115475D02*
X138470717Y-81115475D01*
X138470717Y-81115475D02*
X138423098Y-81103571D01*
X138423098Y-81103571D02*
X138399289Y-81091666D01*
X138399289Y-81091666D02*
X138375479Y-81067856D01*
X138375479Y-81067856D02*
X138363574Y-81032142D01*
X138363574Y-81032142D02*
X138363574Y-81008333D01*
X138363574Y-81008333D02*
X138375479Y-80972618D01*
X138375479Y-80972618D02*
X138387384Y-80960714D01*
X138613574Y-80722618D02*
X138613574Y-80865475D01*
X138613574Y-80794047D02*
X138363574Y-80794047D01*
X138363574Y-80794047D02*
X138399289Y-80817856D01*
X138399289Y-80817856D02*
X138423098Y-80841666D01*
X138423098Y-80841666D02*
X138435003Y-80865475D01*
X138363574Y-80508333D02*
X138363574Y-80555952D01*
X138363574Y-80555952D02*
X138375479Y-80579761D01*
X138375479Y-80579761D02*
X138387384Y-80591666D01*
X138387384Y-80591666D02*
X138423098Y-80615476D01*
X138423098Y-80615476D02*
X138470717Y-80627380D01*
X138470717Y-80627380D02*
X138565955Y-80627380D01*
X138565955Y-80627380D02*
X138589765Y-80615476D01*
X138589765Y-80615476D02*
X138601670Y-80603571D01*
X138601670Y-80603571D02*
X138613574Y-80579761D01*
X138613574Y-80579761D02*
X138613574Y-80532142D01*
X138613574Y-80532142D02*
X138601670Y-80508333D01*
X138601670Y-80508333D02*
X138589765Y-80496428D01*
X138589765Y-80496428D02*
X138565955Y-80484523D01*
X138565955Y-80484523D02*
X138506431Y-80484523D01*
X138506431Y-80484523D02*
X138482622Y-80496428D01*
X138482622Y-80496428D02*
X138470717Y-80508333D01*
X138470717Y-80508333D02*
X138458812Y-80532142D01*
X138458812Y-80532142D02*
X138458812Y-80579761D01*
X138458812Y-80579761D02*
X138470717Y-80603571D01*
X138470717Y-80603571D02*
X138482622Y-80615476D01*
X138482622Y-80615476D02*
X138506431Y-80627380D01*
D12*
X118581927Y-53766666D02*
X118391451Y-53899999D01*
X118581927Y-53995237D02*
X118181927Y-53995237D01*
X118181927Y-53995237D02*
X118181927Y-53842856D01*
X118181927Y-53842856D02*
X118200975Y-53804761D01*
X118200975Y-53804761D02*
X118220022Y-53785714D01*
X118220022Y-53785714D02*
X118258118Y-53766666D01*
X118258118Y-53766666D02*
X118315260Y-53766666D01*
X118315260Y-53766666D02*
X118353356Y-53785714D01*
X118353356Y-53785714D02*
X118372403Y-53804761D01*
X118372403Y-53804761D02*
X118391451Y-53842856D01*
X118391451Y-53842856D02*
X118391451Y-53995237D01*
X118220022Y-53614285D02*
X118200975Y-53595237D01*
X118200975Y-53595237D02*
X118181927Y-53557142D01*
X118181927Y-53557142D02*
X118181927Y-53461904D01*
X118181927Y-53461904D02*
X118200975Y-53423809D01*
X118200975Y-53423809D02*
X118220022Y-53404761D01*
X118220022Y-53404761D02*
X118258118Y-53385714D01*
X118258118Y-53385714D02*
X118296213Y-53385714D01*
X118296213Y-53385714D02*
X118353356Y-53404761D01*
X118353356Y-53404761D02*
X118581927Y-53633333D01*
X118581927Y-53633333D02*
X118581927Y-53385714D01*
X118381927Y-54085237D02*
X118381927Y-53295714D01*
D11*
X140214819Y-67466666D02*
X140214819Y-68038094D01*
X140214819Y-67752380D02*
X139214819Y-67752380D01*
X139214819Y-67752380D02*
X139357676Y-67847618D01*
X139357676Y-67847618D02*
X139452914Y-67942856D01*
X139452914Y-67942856D02*
X139500533Y-68038094D01*
X139548152Y-66609523D02*
X140214819Y-66609523D01*
X139548152Y-67038094D02*
X140071961Y-67038094D01*
X140071961Y-67038094D02*
X140167200Y-66990475D01*
X140167200Y-66990475D02*
X140214819Y-66895237D01*
X140214819Y-66895237D02*
X140214819Y-66752380D01*
X140214819Y-66752380D02*
X140167200Y-66657142D01*
X140167200Y-66657142D02*
X140119580Y-66609523D01*
D10*
X138689765Y-67460714D02*
X138701670Y-67472618D01*
X138701670Y-67472618D02*
X138713574Y-67508333D01*
X138713574Y-67508333D02*
X138713574Y-67532142D01*
X138713574Y-67532142D02*
X138701670Y-67567856D01*
X138701670Y-67567856D02*
X138677860Y-67591666D01*
X138677860Y-67591666D02*
X138654050Y-67603571D01*
X138654050Y-67603571D02*
X138606431Y-67615475D01*
X138606431Y-67615475D02*
X138570717Y-67615475D01*
X138570717Y-67615475D02*
X138523098Y-67603571D01*
X138523098Y-67603571D02*
X138499289Y-67591666D01*
X138499289Y-67591666D02*
X138475479Y-67567856D01*
X138475479Y-67567856D02*
X138463574Y-67532142D01*
X138463574Y-67532142D02*
X138463574Y-67508333D01*
X138463574Y-67508333D02*
X138475479Y-67472618D01*
X138475479Y-67472618D02*
X138487384Y-67460714D01*
X138713574Y-67222618D02*
X138713574Y-67365475D01*
X138713574Y-67294047D02*
X138463574Y-67294047D01*
X138463574Y-67294047D02*
X138499289Y-67317856D01*
X138499289Y-67317856D02*
X138523098Y-67341666D01*
X138523098Y-67341666D02*
X138535003Y-67365475D01*
X138463574Y-67139285D02*
X138463574Y-66972619D01*
X138463574Y-66972619D02*
X138713574Y-67079761D01*
D11*
X156724819Y-63119047D02*
X156724819Y-63690475D01*
X156724819Y-63404761D02*
X155724819Y-63404761D01*
X155724819Y-63404761D02*
X155867676Y-63499999D01*
X155867676Y-63499999D02*
X155962914Y-63595237D01*
X155962914Y-63595237D02*
X156010533Y-63690475D01*
X156724819Y-62690475D02*
X155724819Y-62690475D01*
X156343866Y-62595237D02*
X156724819Y-62309523D01*
X156058152Y-62309523D02*
X156439104Y-62690475D01*
D10*
X155218200Y-63167142D02*
X155094391Y-63253809D01*
X155218200Y-63315714D02*
X154958200Y-63315714D01*
X154958200Y-63315714D02*
X154958200Y-63216666D01*
X154958200Y-63216666D02*
X154970581Y-63191904D01*
X154970581Y-63191904D02*
X154982962Y-63179523D01*
X154982962Y-63179523D02*
X155007724Y-63167142D01*
X155007724Y-63167142D02*
X155044867Y-63167142D01*
X155044867Y-63167142D02*
X155069629Y-63179523D01*
X155069629Y-63179523D02*
X155082010Y-63191904D01*
X155082010Y-63191904D02*
X155094391Y-63216666D01*
X155094391Y-63216666D02*
X155094391Y-63315714D01*
X155218200Y-62919523D02*
X155218200Y-63068095D01*
X155218200Y-62993809D02*
X154958200Y-62993809D01*
X154958200Y-62993809D02*
X154995343Y-63018571D01*
X154995343Y-63018571D02*
X155020105Y-63043333D01*
X155020105Y-63043333D02*
X155032486Y-63068095D01*
X154958200Y-62758571D02*
X154958200Y-62733809D01*
X154958200Y-62733809D02*
X154970581Y-62709047D01*
X154970581Y-62709047D02*
X154982962Y-62696666D01*
X154982962Y-62696666D02*
X155007724Y-62684285D01*
X155007724Y-62684285D02*
X155057248Y-62671904D01*
X155057248Y-62671904D02*
X155119153Y-62671904D01*
X155119153Y-62671904D02*
X155168677Y-62684285D01*
X155168677Y-62684285D02*
X155193439Y-62696666D01*
X155193439Y-62696666D02*
X155205820Y-62709047D01*
X155205820Y-62709047D02*
X155218200Y-62733809D01*
X155218200Y-62733809D02*
X155218200Y-62758571D01*
X155218200Y-62758571D02*
X155205820Y-62783333D01*
X155205820Y-62783333D02*
X155193439Y-62795714D01*
X155193439Y-62795714D02*
X155168677Y-62808095D01*
X155168677Y-62808095D02*
X155119153Y-62820476D01*
X155119153Y-62820476D02*
X155057248Y-62820476D01*
X155057248Y-62820476D02*
X155007724Y-62808095D01*
X155007724Y-62808095D02*
X154982962Y-62795714D01*
X154982962Y-62795714D02*
X154970581Y-62783333D01*
X154970581Y-62783333D02*
X154958200Y-62758571D01*
D11*
X143614819Y-67666666D02*
X143614819Y-68238094D01*
X143614819Y-67952380D02*
X142614819Y-67952380D01*
X142614819Y-67952380D02*
X142757676Y-68047618D01*
X142757676Y-68047618D02*
X142852914Y-68142856D01*
X142852914Y-68142856D02*
X142900533Y-68238094D01*
X142948152Y-66809523D02*
X143614819Y-66809523D01*
X142948152Y-67238094D02*
X143471961Y-67238094D01*
X143471961Y-67238094D02*
X143567200Y-67190475D01*
X143567200Y-67190475D02*
X143614819Y-67095237D01*
X143614819Y-67095237D02*
X143614819Y-66952380D01*
X143614819Y-66952380D02*
X143567200Y-66857142D01*
X143567200Y-66857142D02*
X143519580Y-66809523D01*
D10*
X142089765Y-67660714D02*
X142101670Y-67672618D01*
X142101670Y-67672618D02*
X142113574Y-67708333D01*
X142113574Y-67708333D02*
X142113574Y-67732142D01*
X142113574Y-67732142D02*
X142101670Y-67767856D01*
X142101670Y-67767856D02*
X142077860Y-67791666D01*
X142077860Y-67791666D02*
X142054050Y-67803571D01*
X142054050Y-67803571D02*
X142006431Y-67815475D01*
X142006431Y-67815475D02*
X141970717Y-67815475D01*
X141970717Y-67815475D02*
X141923098Y-67803571D01*
X141923098Y-67803571D02*
X141899289Y-67791666D01*
X141899289Y-67791666D02*
X141875479Y-67767856D01*
X141875479Y-67767856D02*
X141863574Y-67732142D01*
X141863574Y-67732142D02*
X141863574Y-67708333D01*
X141863574Y-67708333D02*
X141875479Y-67672618D01*
X141875479Y-67672618D02*
X141887384Y-67660714D01*
X142113574Y-67422618D02*
X142113574Y-67565475D01*
X142113574Y-67494047D02*
X141863574Y-67494047D01*
X141863574Y-67494047D02*
X141899289Y-67517856D01*
X141899289Y-67517856D02*
X141923098Y-67541666D01*
X141923098Y-67541666D02*
X141935003Y-67565475D01*
X142113574Y-67184523D02*
X142113574Y-67327380D01*
X142113574Y-67255952D02*
X141863574Y-67255952D01*
X141863574Y-67255952D02*
X141899289Y-67279761D01*
X141899289Y-67279761D02*
X141923098Y-67303571D01*
X141923098Y-67303571D02*
X141935003Y-67327380D01*
D12*
X159581927Y-60229166D02*
X159391451Y-60362499D01*
X159581927Y-60457737D02*
X159181927Y-60457737D01*
X159181927Y-60457737D02*
X159181927Y-60305356D01*
X159181927Y-60305356D02*
X159200975Y-60267261D01*
X159200975Y-60267261D02*
X159220022Y-60248214D01*
X159220022Y-60248214D02*
X159258118Y-60229166D01*
X159258118Y-60229166D02*
X159315260Y-60229166D01*
X159315260Y-60229166D02*
X159353356Y-60248214D01*
X159353356Y-60248214D02*
X159372403Y-60267261D01*
X159372403Y-60267261D02*
X159391451Y-60305356D01*
X159391451Y-60305356D02*
X159391451Y-60457737D01*
X159181927Y-59867261D02*
X159181927Y-60057737D01*
X159181927Y-60057737D02*
X159372403Y-60076785D01*
X159372403Y-60076785D02*
X159353356Y-60057737D01*
X159353356Y-60057737D02*
X159334308Y-60019642D01*
X159334308Y-60019642D02*
X159334308Y-59924404D01*
X159334308Y-59924404D02*
X159353356Y-59886309D01*
X159353356Y-59886309D02*
X159372403Y-59867261D01*
X159372403Y-59867261D02*
X159410499Y-59848214D01*
X159410499Y-59848214D02*
X159505737Y-59848214D01*
X159505737Y-59848214D02*
X159543832Y-59867261D01*
X159543832Y-59867261D02*
X159562880Y-59886309D01*
X159562880Y-59886309D02*
X159581927Y-59924404D01*
X159581927Y-59924404D02*
X159581927Y-60019642D01*
X159581927Y-60019642D02*
X159562880Y-60057737D01*
X159562880Y-60057737D02*
X159543832Y-60076785D01*
X159381927Y-60547737D02*
X159381927Y-59758214D01*
D10*
X154118200Y-95767142D02*
X153994391Y-95853809D01*
X154118200Y-95915714D02*
X153858200Y-95915714D01*
X153858200Y-95915714D02*
X153858200Y-95816666D01*
X153858200Y-95816666D02*
X153870581Y-95791904D01*
X153870581Y-95791904D02*
X153882962Y-95779523D01*
X153882962Y-95779523D02*
X153907724Y-95767142D01*
X153907724Y-95767142D02*
X153944867Y-95767142D01*
X153944867Y-95767142D02*
X153969629Y-95779523D01*
X153969629Y-95779523D02*
X153982010Y-95791904D01*
X153982010Y-95791904D02*
X153994391Y-95816666D01*
X153994391Y-95816666D02*
X153994391Y-95915714D01*
X154118200Y-95519523D02*
X154118200Y-95668095D01*
X154118200Y-95593809D02*
X153858200Y-95593809D01*
X153858200Y-95593809D02*
X153895343Y-95618571D01*
X153895343Y-95618571D02*
X153920105Y-95643333D01*
X153920105Y-95643333D02*
X153932486Y-95668095D01*
X153882962Y-95420476D02*
X153870581Y-95408095D01*
X153870581Y-95408095D02*
X153858200Y-95383333D01*
X153858200Y-95383333D02*
X153858200Y-95321428D01*
X153858200Y-95321428D02*
X153870581Y-95296666D01*
X153870581Y-95296666D02*
X153882962Y-95284285D01*
X153882962Y-95284285D02*
X153907724Y-95271904D01*
X153907724Y-95271904D02*
X153932486Y-95271904D01*
X153932486Y-95271904D02*
X153969629Y-95284285D01*
X153969629Y-95284285D02*
X154118200Y-95432857D01*
X154118200Y-95432857D02*
X154118200Y-95271904D01*
X153988200Y-95975714D02*
X153988200Y-95211904D01*
X152818200Y-94967142D02*
X152694391Y-95053809D01*
X152818200Y-95115714D02*
X152558200Y-95115714D01*
X152558200Y-95115714D02*
X152558200Y-95016666D01*
X152558200Y-95016666D02*
X152570581Y-94991904D01*
X152570581Y-94991904D02*
X152582962Y-94979523D01*
X152582962Y-94979523D02*
X152607724Y-94967142D01*
X152607724Y-94967142D02*
X152644867Y-94967142D01*
X152644867Y-94967142D02*
X152669629Y-94979523D01*
X152669629Y-94979523D02*
X152682010Y-94991904D01*
X152682010Y-94991904D02*
X152694391Y-95016666D01*
X152694391Y-95016666D02*
X152694391Y-95115714D01*
X152818200Y-94719523D02*
X152818200Y-94868095D01*
X152818200Y-94793809D02*
X152558200Y-94793809D01*
X152558200Y-94793809D02*
X152595343Y-94818571D01*
X152595343Y-94818571D02*
X152620105Y-94843333D01*
X152620105Y-94843333D02*
X152632486Y-94868095D01*
X152558200Y-94632857D02*
X152558200Y-94471904D01*
X152558200Y-94471904D02*
X152657248Y-94558571D01*
X152657248Y-94558571D02*
X152657248Y-94521428D01*
X152657248Y-94521428D02*
X152669629Y-94496666D01*
X152669629Y-94496666D02*
X152682010Y-94484285D01*
X152682010Y-94484285D02*
X152706772Y-94471904D01*
X152706772Y-94471904D02*
X152768677Y-94471904D01*
X152768677Y-94471904D02*
X152793439Y-94484285D01*
X152793439Y-94484285D02*
X152805820Y-94496666D01*
X152805820Y-94496666D02*
X152818200Y-94521428D01*
X152818200Y-94521428D02*
X152818200Y-94595714D01*
X152818200Y-94595714D02*
X152805820Y-94620476D01*
X152805820Y-94620476D02*
X152793439Y-94632857D01*
X152688200Y-95175714D02*
X152688200Y-94411904D01*
D11*
X120028571Y-58984819D02*
X119457143Y-58984819D01*
X119742857Y-58984819D02*
X119742857Y-57984819D01*
X119742857Y-57984819D02*
X119647619Y-58127676D01*
X119647619Y-58127676D02*
X119552381Y-58222914D01*
X119552381Y-58222914D02*
X119457143Y-58270533D01*
X120647619Y-57984819D02*
X120742857Y-57984819D01*
X120742857Y-57984819D02*
X120838095Y-58032438D01*
X120838095Y-58032438D02*
X120885714Y-58080057D01*
X120885714Y-58080057D02*
X120933333Y-58175295D01*
X120933333Y-58175295D02*
X120980952Y-58365771D01*
X120980952Y-58365771D02*
X120980952Y-58603866D01*
X120980952Y-58603866D02*
X120933333Y-58794342D01*
X120933333Y-58794342D02*
X120885714Y-58889580D01*
X120885714Y-58889580D02*
X120838095Y-58937200D01*
X120838095Y-58937200D02*
X120742857Y-58984819D01*
X120742857Y-58984819D02*
X120647619Y-58984819D01*
X120647619Y-58984819D02*
X120552381Y-58937200D01*
X120552381Y-58937200D02*
X120504762Y-58889580D01*
X120504762Y-58889580D02*
X120457143Y-58794342D01*
X120457143Y-58794342D02*
X120409524Y-58603866D01*
X120409524Y-58603866D02*
X120409524Y-58365771D01*
X120409524Y-58365771D02*
X120457143Y-58175295D01*
X120457143Y-58175295D02*
X120504762Y-58080057D01*
X120504762Y-58080057D02*
X120552381Y-58032438D01*
X120552381Y-58032438D02*
X120647619Y-57984819D01*
X121838095Y-58318152D02*
X121838095Y-58984819D01*
X121409524Y-58318152D02*
X121409524Y-58841961D01*
X121409524Y-58841961D02*
X121457143Y-58937200D01*
X121457143Y-58937200D02*
X121552381Y-58984819D01*
X121552381Y-58984819D02*
X121695238Y-58984819D01*
X121695238Y-58984819D02*
X121790476Y-58937200D01*
X121790476Y-58937200D02*
X121838095Y-58889580D01*
X122647619Y-58461009D02*
X122314286Y-58461009D01*
X122314286Y-58984819D02*
X122314286Y-57984819D01*
X122314286Y-57984819D02*
X122790476Y-57984819D01*
D12*
X121033333Y-57243832D02*
X121014285Y-57262880D01*
X121014285Y-57262880D02*
X120957143Y-57281927D01*
X120957143Y-57281927D02*
X120919047Y-57281927D01*
X120919047Y-57281927D02*
X120861904Y-57262880D01*
X120861904Y-57262880D02*
X120823809Y-57224784D01*
X120823809Y-57224784D02*
X120804762Y-57186689D01*
X120804762Y-57186689D02*
X120785714Y-57110499D01*
X120785714Y-57110499D02*
X120785714Y-57053356D01*
X120785714Y-57053356D02*
X120804762Y-56977165D01*
X120804762Y-56977165D02*
X120823809Y-56939070D01*
X120823809Y-56939070D02*
X120861904Y-56900975D01*
X120861904Y-56900975D02*
X120919047Y-56881927D01*
X120919047Y-56881927D02*
X120957143Y-56881927D01*
X120957143Y-56881927D02*
X121014285Y-56900975D01*
X121014285Y-56900975D02*
X121033333Y-56920022D01*
X121414285Y-57281927D02*
X121185714Y-57281927D01*
X121300000Y-57281927D02*
X121300000Y-56881927D01*
X121300000Y-56881927D02*
X121261904Y-56939070D01*
X121261904Y-56939070D02*
X121223809Y-56977165D01*
X121223809Y-56977165D02*
X121185714Y-56996213D01*
D14*
X148704166Y-95655873D02*
X148704166Y-96222540D01*
X148704166Y-96222540D02*
X148737500Y-96289206D01*
X148737500Y-96289206D02*
X148770833Y-96322540D01*
X148770833Y-96322540D02*
X148837500Y-96355873D01*
X148837500Y-96355873D02*
X148970833Y-96355873D01*
X148970833Y-96355873D02*
X149037500Y-96322540D01*
X149037500Y-96322540D02*
X149070833Y-96289206D01*
X149070833Y-96289206D02*
X149104166Y-96222540D01*
X149104166Y-96222540D02*
X149104166Y-95655873D01*
X149737499Y-95889206D02*
X149737499Y-96355873D01*
X149570833Y-95622540D02*
X149404166Y-96122540D01*
X149404166Y-96122540D02*
X149837499Y-96122540D01*
X148546666Y-95989272D02*
X149991003Y-95989272D01*
D12*
X120781927Y-54304761D02*
X121105737Y-54304761D01*
X121105737Y-54304761D02*
X121143832Y-54285714D01*
X121143832Y-54285714D02*
X121162880Y-54266666D01*
X121162880Y-54266666D02*
X121181927Y-54228571D01*
X121181927Y-54228571D02*
X121181927Y-54152380D01*
X121181927Y-54152380D02*
X121162880Y-54114285D01*
X121162880Y-54114285D02*
X121143832Y-54095238D01*
X121143832Y-54095238D02*
X121105737Y-54076190D01*
X121105737Y-54076190D02*
X120781927Y-54076190D01*
X121181927Y-53676190D02*
X121181927Y-53904761D01*
X121181927Y-53790475D02*
X120781927Y-53790475D01*
X120781927Y-53790475D02*
X120839070Y-53828571D01*
X120839070Y-53828571D02*
X120877165Y-53866666D01*
X120877165Y-53866666D02*
X120896213Y-53904761D01*
D11*
X113166666Y-80704819D02*
X113738094Y-80704819D01*
X113452380Y-81704819D02*
X113452380Y-80704819D01*
X114452380Y-81657200D02*
X114357142Y-81704819D01*
X114357142Y-81704819D02*
X114166666Y-81704819D01*
X114166666Y-81704819D02*
X114071428Y-81657200D01*
X114071428Y-81657200D02*
X114023809Y-81561961D01*
X114023809Y-81561961D02*
X114023809Y-81181009D01*
X114023809Y-81181009D02*
X114071428Y-81085771D01*
X114071428Y-81085771D02*
X114166666Y-81038152D01*
X114166666Y-81038152D02*
X114357142Y-81038152D01*
X114357142Y-81038152D02*
X114452380Y-81085771D01*
X114452380Y-81085771D02*
X114499999Y-81181009D01*
X114499999Y-81181009D02*
X114499999Y-81276247D01*
X114499999Y-81276247D02*
X114023809Y-81371485D01*
X114880952Y-81657200D02*
X114976190Y-81704819D01*
X114976190Y-81704819D02*
X115166666Y-81704819D01*
X115166666Y-81704819D02*
X115261904Y-81657200D01*
X115261904Y-81657200D02*
X115309523Y-81561961D01*
X115309523Y-81561961D02*
X115309523Y-81514342D01*
X115309523Y-81514342D02*
X115261904Y-81419104D01*
X115261904Y-81419104D02*
X115166666Y-81371485D01*
X115166666Y-81371485D02*
X115023809Y-81371485D01*
X115023809Y-81371485D02*
X114928571Y-81323866D01*
X114928571Y-81323866D02*
X114880952Y-81228628D01*
X114880952Y-81228628D02*
X114880952Y-81181009D01*
X114880952Y-81181009D02*
X114928571Y-81085771D01*
X114928571Y-81085771D02*
X115023809Y-81038152D01*
X115023809Y-81038152D02*
X115166666Y-81038152D01*
X115166666Y-81038152D02*
X115261904Y-81085771D01*
X115595238Y-81038152D02*
X115976190Y-81038152D01*
X115738095Y-80704819D02*
X115738095Y-81561961D01*
X115738095Y-81561961D02*
X115785714Y-81657200D01*
X115785714Y-81657200D02*
X115880952Y-81704819D01*
X115880952Y-81704819D02*
X115976190Y-81704819D01*
X116309524Y-81704819D02*
X116309524Y-80704819D01*
X116309524Y-80704819D02*
X116690476Y-80704819D01*
X116690476Y-80704819D02*
X116785714Y-80752438D01*
X116785714Y-80752438D02*
X116833333Y-80800057D01*
X116833333Y-80800057D02*
X116880952Y-80895295D01*
X116880952Y-80895295D02*
X116880952Y-81038152D01*
X116880952Y-81038152D02*
X116833333Y-81133390D01*
X116833333Y-81133390D02*
X116785714Y-81181009D01*
X116785714Y-81181009D02*
X116690476Y-81228628D01*
X116690476Y-81228628D02*
X116309524Y-81228628D01*
X117452381Y-81704819D02*
X117357143Y-81657200D01*
X117357143Y-81657200D02*
X117309524Y-81609580D01*
X117309524Y-81609580D02*
X117261905Y-81514342D01*
X117261905Y-81514342D02*
X117261905Y-81228628D01*
X117261905Y-81228628D02*
X117309524Y-81133390D01*
X117309524Y-81133390D02*
X117357143Y-81085771D01*
X117357143Y-81085771D02*
X117452381Y-81038152D01*
X117452381Y-81038152D02*
X117595238Y-81038152D01*
X117595238Y-81038152D02*
X117690476Y-81085771D01*
X117690476Y-81085771D02*
X117738095Y-81133390D01*
X117738095Y-81133390D02*
X117785714Y-81228628D01*
X117785714Y-81228628D02*
X117785714Y-81514342D01*
X117785714Y-81514342D02*
X117738095Y-81609580D01*
X117738095Y-81609580D02*
X117690476Y-81657200D01*
X117690476Y-81657200D02*
X117595238Y-81704819D01*
X117595238Y-81704819D02*
X117452381Y-81704819D01*
X118214286Y-81704819D02*
X118214286Y-81038152D01*
X118214286Y-80704819D02*
X118166667Y-80752438D01*
X118166667Y-80752438D02*
X118214286Y-80800057D01*
X118214286Y-80800057D02*
X118261905Y-80752438D01*
X118261905Y-80752438D02*
X118214286Y-80704819D01*
X118214286Y-80704819D02*
X118214286Y-80800057D01*
X118690476Y-81038152D02*
X118690476Y-81704819D01*
X118690476Y-81133390D02*
X118738095Y-81085771D01*
X118738095Y-81085771D02*
X118833333Y-81038152D01*
X118833333Y-81038152D02*
X118976190Y-81038152D01*
X118976190Y-81038152D02*
X119071428Y-81085771D01*
X119071428Y-81085771D02*
X119119047Y-81181009D01*
X119119047Y-81181009D02*
X119119047Y-81704819D01*
X119452381Y-81038152D02*
X119833333Y-81038152D01*
X119595238Y-80704819D02*
X119595238Y-81561961D01*
X119595238Y-81561961D02*
X119642857Y-81657200D01*
X119642857Y-81657200D02*
X119738095Y-81704819D01*
X119738095Y-81704819D02*
X119833333Y-81704819D01*
X115238095Y-77704819D02*
X115809523Y-77704819D01*
X115523809Y-78704819D02*
X115523809Y-77704819D01*
X116142857Y-78704819D02*
X116142857Y-77704819D01*
X116142857Y-77704819D02*
X116523809Y-77704819D01*
X116523809Y-77704819D02*
X116619047Y-77752438D01*
X116619047Y-77752438D02*
X116666666Y-77800057D01*
X116666666Y-77800057D02*
X116714285Y-77895295D01*
X116714285Y-77895295D02*
X116714285Y-78038152D01*
X116714285Y-78038152D02*
X116666666Y-78133390D01*
X116666666Y-78133390D02*
X116619047Y-78181009D01*
X116619047Y-78181009D02*
X116523809Y-78228628D01*
X116523809Y-78228628D02*
X116142857Y-78228628D01*
X117666666Y-78704819D02*
X117095238Y-78704819D01*
X117380952Y-78704819D02*
X117380952Y-77704819D01*
X117380952Y-77704819D02*
X117285714Y-77847676D01*
X117285714Y-77847676D02*
X117190476Y-77942914D01*
X117190476Y-77942914D02*
X117095238Y-77990533D01*
D12*
X161081927Y-60229166D02*
X160891451Y-60362499D01*
X161081927Y-60457737D02*
X160681927Y-60457737D01*
X160681927Y-60457737D02*
X160681927Y-60305356D01*
X160681927Y-60305356D02*
X160700975Y-60267261D01*
X160700975Y-60267261D02*
X160720022Y-60248214D01*
X160720022Y-60248214D02*
X160758118Y-60229166D01*
X160758118Y-60229166D02*
X160815260Y-60229166D01*
X160815260Y-60229166D02*
X160853356Y-60248214D01*
X160853356Y-60248214D02*
X160872403Y-60267261D01*
X160872403Y-60267261D02*
X160891451Y-60305356D01*
X160891451Y-60305356D02*
X160891451Y-60457737D01*
X160681927Y-60095833D02*
X160681927Y-59829166D01*
X160681927Y-59829166D02*
X161081927Y-60000595D01*
X116281927Y-56866666D02*
X116091451Y-56999999D01*
X116281927Y-57095237D02*
X115881927Y-57095237D01*
X115881927Y-57095237D02*
X115881927Y-56942856D01*
X115881927Y-56942856D02*
X115900975Y-56904761D01*
X115900975Y-56904761D02*
X115920022Y-56885714D01*
X115920022Y-56885714D02*
X115958118Y-56866666D01*
X115958118Y-56866666D02*
X116015260Y-56866666D01*
X116015260Y-56866666D02*
X116053356Y-56885714D01*
X116053356Y-56885714D02*
X116072403Y-56904761D01*
X116072403Y-56904761D02*
X116091451Y-56942856D01*
X116091451Y-56942856D02*
X116091451Y-57095237D01*
X115881927Y-56733333D02*
X115881927Y-56485714D01*
X115881927Y-56485714D02*
X116034308Y-56619047D01*
X116034308Y-56619047D02*
X116034308Y-56561904D01*
X116034308Y-56561904D02*
X116053356Y-56523809D01*
X116053356Y-56523809D02*
X116072403Y-56504761D01*
X116072403Y-56504761D02*
X116110499Y-56485714D01*
X116110499Y-56485714D02*
X116205737Y-56485714D01*
X116205737Y-56485714D02*
X116243832Y-56504761D01*
X116243832Y-56504761D02*
X116262880Y-56523809D01*
X116262880Y-56523809D02*
X116281927Y-56561904D01*
X116281927Y-56561904D02*
X116281927Y-56676190D01*
X116281927Y-56676190D02*
X116262880Y-56714285D01*
X116262880Y-56714285D02*
X116243832Y-56733333D01*
X117791927Y-56841666D02*
X117601451Y-56974999D01*
X117791927Y-57070237D02*
X117391927Y-57070237D01*
X117391927Y-57070237D02*
X117391927Y-56917856D01*
X117391927Y-56917856D02*
X117410975Y-56879761D01*
X117410975Y-56879761D02*
X117430022Y-56860714D01*
X117430022Y-56860714D02*
X117468118Y-56841666D01*
X117468118Y-56841666D02*
X117525260Y-56841666D01*
X117525260Y-56841666D02*
X117563356Y-56860714D01*
X117563356Y-56860714D02*
X117582403Y-56879761D01*
X117582403Y-56879761D02*
X117601451Y-56917856D01*
X117601451Y-56917856D02*
X117601451Y-57070237D01*
X117791927Y-56460714D02*
X117791927Y-56689285D01*
X117791927Y-56574999D02*
X117391927Y-56574999D01*
X117391927Y-56574999D02*
X117449070Y-56613095D01*
X117449070Y-56613095D02*
X117487165Y-56651190D01*
X117487165Y-56651190D02*
X117506213Y-56689285D01*
X117591927Y-57160237D02*
X117591927Y-56372998D01*
D11*
X135414819Y-67666666D02*
X135414819Y-68238094D01*
X135414819Y-67952380D02*
X134414819Y-67952380D01*
X134414819Y-67952380D02*
X134557676Y-68047618D01*
X134557676Y-68047618D02*
X134652914Y-68142856D01*
X134652914Y-68142856D02*
X134700533Y-68238094D01*
X134748152Y-66809523D02*
X135414819Y-66809523D01*
X134748152Y-67238094D02*
X135271961Y-67238094D01*
X135271961Y-67238094D02*
X135367200Y-67190475D01*
X135367200Y-67190475D02*
X135414819Y-67095237D01*
X135414819Y-67095237D02*
X135414819Y-66952380D01*
X135414819Y-66952380D02*
X135367200Y-66857142D01*
X135367200Y-66857142D02*
X135319580Y-66809523D01*
D10*
X133889765Y-67660714D02*
X133901670Y-67672618D01*
X133901670Y-67672618D02*
X133913574Y-67708333D01*
X133913574Y-67708333D02*
X133913574Y-67732142D01*
X133913574Y-67732142D02*
X133901670Y-67767856D01*
X133901670Y-67767856D02*
X133877860Y-67791666D01*
X133877860Y-67791666D02*
X133854050Y-67803571D01*
X133854050Y-67803571D02*
X133806431Y-67815475D01*
X133806431Y-67815475D02*
X133770717Y-67815475D01*
X133770717Y-67815475D02*
X133723098Y-67803571D01*
X133723098Y-67803571D02*
X133699289Y-67791666D01*
X133699289Y-67791666D02*
X133675479Y-67767856D01*
X133675479Y-67767856D02*
X133663574Y-67732142D01*
X133663574Y-67732142D02*
X133663574Y-67708333D01*
X133663574Y-67708333D02*
X133675479Y-67672618D01*
X133675479Y-67672618D02*
X133687384Y-67660714D01*
X133913574Y-67422618D02*
X133913574Y-67565475D01*
X133913574Y-67494047D02*
X133663574Y-67494047D01*
X133663574Y-67494047D02*
X133699289Y-67517856D01*
X133699289Y-67517856D02*
X133723098Y-67541666D01*
X133723098Y-67541666D02*
X133735003Y-67565475D01*
X133687384Y-67327380D02*
X133675479Y-67315476D01*
X133675479Y-67315476D02*
X133663574Y-67291666D01*
X133663574Y-67291666D02*
X133663574Y-67232142D01*
X133663574Y-67232142D02*
X133675479Y-67208333D01*
X133675479Y-67208333D02*
X133687384Y-67196428D01*
X133687384Y-67196428D02*
X133711193Y-67184523D01*
X133711193Y-67184523D02*
X133735003Y-67184523D01*
X133735003Y-67184523D02*
X133770717Y-67196428D01*
X133770717Y-67196428D02*
X133913574Y-67339285D01*
X133913574Y-67339285D02*
X133913574Y-67184523D01*
D11*
X133666667Y-67654819D02*
X134238095Y-67654819D01*
X133952381Y-68654819D02*
X133952381Y-67654819D01*
X134428572Y-67654819D02*
X135000000Y-67654819D01*
X134714286Y-68654819D02*
X134714286Y-67654819D01*
X135095239Y-68750057D02*
X135857143Y-68750057D01*
X136095239Y-68654819D02*
X136095239Y-67654819D01*
X136571429Y-68654819D02*
X136571429Y-67654819D01*
X136571429Y-68131009D02*
X137142857Y-68131009D01*
X137142857Y-68654819D02*
X137142857Y-67654819D01*
X137619048Y-68654819D02*
X137619048Y-67654819D01*
X137619048Y-67654819D02*
X138000000Y-67654819D01*
X138000000Y-67654819D02*
X138095238Y-67702438D01*
X138095238Y-67702438D02*
X138142857Y-67750057D01*
X138142857Y-67750057D02*
X138190476Y-67845295D01*
X138190476Y-67845295D02*
X138190476Y-67988152D01*
X138190476Y-67988152D02*
X138142857Y-68083390D01*
X138142857Y-68083390D02*
X138095238Y-68131009D01*
X138095238Y-68131009D02*
X138000000Y-68178628D01*
X138000000Y-68178628D02*
X137619048Y-68178628D01*
X138380953Y-68750057D02*
X139142857Y-68750057D01*
X139333334Y-68369104D02*
X139809524Y-68369104D01*
X139238096Y-68654819D02*
X139571429Y-67654819D01*
X139571429Y-67654819D02*
X139904762Y-68654819D01*
X140190477Y-68607200D02*
X140333334Y-68654819D01*
X140333334Y-68654819D02*
X140571429Y-68654819D01*
X140571429Y-68654819D02*
X140666667Y-68607200D01*
X140666667Y-68607200D02*
X140714286Y-68559580D01*
X140714286Y-68559580D02*
X140761905Y-68464342D01*
X140761905Y-68464342D02*
X140761905Y-68369104D01*
X140761905Y-68369104D02*
X140714286Y-68273866D01*
X140714286Y-68273866D02*
X140666667Y-68226247D01*
X140666667Y-68226247D02*
X140571429Y-68178628D01*
X140571429Y-68178628D02*
X140380953Y-68131009D01*
X140380953Y-68131009D02*
X140285715Y-68083390D01*
X140285715Y-68083390D02*
X140238096Y-68035771D01*
X140238096Y-68035771D02*
X140190477Y-67940533D01*
X140190477Y-67940533D02*
X140190477Y-67845295D01*
X140190477Y-67845295D02*
X140238096Y-67750057D01*
X140238096Y-67750057D02*
X140285715Y-67702438D01*
X140285715Y-67702438D02*
X140380953Y-67654819D01*
X140380953Y-67654819D02*
X140619048Y-67654819D01*
X140619048Y-67654819D02*
X140761905Y-67702438D01*
X141190477Y-68654819D02*
X141190477Y-67654819D01*
X142238095Y-68559580D02*
X142190476Y-68607200D01*
X142190476Y-68607200D02*
X142047619Y-68654819D01*
X142047619Y-68654819D02*
X141952381Y-68654819D01*
X141952381Y-68654819D02*
X141809524Y-68607200D01*
X141809524Y-68607200D02*
X141714286Y-68511961D01*
X141714286Y-68511961D02*
X141666667Y-68416723D01*
X141666667Y-68416723D02*
X141619048Y-68226247D01*
X141619048Y-68226247D02*
X141619048Y-68083390D01*
X141619048Y-68083390D02*
X141666667Y-67892914D01*
X141666667Y-67892914D02*
X141714286Y-67797676D01*
X141714286Y-67797676D02*
X141809524Y-67702438D01*
X141809524Y-67702438D02*
X141952381Y-67654819D01*
X141952381Y-67654819D02*
X142047619Y-67654819D01*
X142047619Y-67654819D02*
X142190476Y-67702438D01*
X142190476Y-67702438D02*
X142238095Y-67750057D01*
X137238095Y-73454819D02*
X137238095Y-74264342D01*
X137238095Y-74264342D02*
X137285714Y-74359580D01*
X137285714Y-74359580D02*
X137333333Y-74407200D01*
X137333333Y-74407200D02*
X137428571Y-74454819D01*
X137428571Y-74454819D02*
X137619047Y-74454819D01*
X137619047Y-74454819D02*
X137714285Y-74407200D01*
X137714285Y-74407200D02*
X137761904Y-74359580D01*
X137761904Y-74359580D02*
X137809523Y-74264342D01*
X137809523Y-74264342D02*
X137809523Y-73454819D01*
X138190476Y-73454819D02*
X138809523Y-73454819D01*
X138809523Y-73454819D02*
X138476190Y-73835771D01*
X138476190Y-73835771D02*
X138619047Y-73835771D01*
X138619047Y-73835771D02*
X138714285Y-73883390D01*
X138714285Y-73883390D02*
X138761904Y-73931009D01*
X138761904Y-73931009D02*
X138809523Y-74026247D01*
X138809523Y-74026247D02*
X138809523Y-74264342D01*
X138809523Y-74264342D02*
X138761904Y-74359580D01*
X138761904Y-74359580D02*
X138714285Y-74407200D01*
X138714285Y-74407200D02*
X138619047Y-74454819D01*
X138619047Y-74454819D02*
X138333333Y-74454819D01*
X138333333Y-74454819D02*
X138238095Y-74407200D01*
X138238095Y-74407200D02*
X138190476Y-74359580D01*
D15*
X159450000Y-50212500D02*
X160450000Y-50212500D01*
X159450000Y-50712500D02*
X159450000Y-50212500D01*
X160450000Y-50212500D02*
X160450000Y-50712500D01*
X160450000Y-50712500D02*
X159450000Y-50712500D01*
X131346973Y-55178073D02*
X132246973Y-56878073D01*
X132353027Y-56821927D02*
G75*
G02*
X132246973Y-56878073I-53027J-28073D01*
G01*
X132353027Y-56821927D02*
X131453027Y-55121927D01*
X131453027Y-55121927D02*
G75*
G03*
X131346973Y-55178073I-53027J-28073D01*
G01*
X132246973Y-55121927D02*
X131346973Y-56821927D01*
X131453027Y-56878073D02*
G75*
G02*
X131346973Y-56821927I-53027J28073D01*
G01*
X131453027Y-56878073D02*
X132353027Y-55178073D01*
X132353027Y-55178073D02*
G75*
G03*
X132246973Y-55121927I-53027J28073D01*
G01*
X132250000Y-55150000D02*
X131450000Y-55150000D01*
X131450000Y-55250000D02*
G75*
G02*
X131450000Y-55150000I0J50000D01*
G01*
X131450000Y-55250000D02*
X132250000Y-55250000D01*
X132250000Y-55250000D02*
G75*
G03*
X132250000Y-55150000I0J50000D01*
G01*
X131400000Y-55200000D02*
X131400000Y-56800000D01*
X131500000Y-56800000D02*
G75*
G02*
X131400000Y-56800000I-50000J0D01*
G01*
X131500000Y-56800000D02*
X131500000Y-55200000D01*
X131500000Y-55200000D02*
G75*
G03*
X131400000Y-55200000I-50000J0D01*
G01*
X131450000Y-56850000D02*
X132250000Y-56850000D01*
X132250000Y-56750000D02*
G75*
G02*
X132250000Y-56850000I0J-50000D01*
G01*
X132250000Y-56750000D02*
X131450000Y-56750000D01*
X131450000Y-56750000D02*
G75*
G03*
X131450000Y-56850000I0J-50000D01*
G01*
X132300000Y-56800000D02*
X132300000Y-55200000D01*
X132200000Y-55200000D02*
G75*
G02*
X132300000Y-55200000I50000J0D01*
G01*
X132200000Y-55200000D02*
X132200000Y-56800000D01*
X132200000Y-56800000D02*
G75*
G03*
X132300000Y-56800000I50000J0D01*
G01*
X159150000Y-51262500D02*
X160750000Y-51262500D01*
X159150000Y-52062500D02*
X159150000Y-51262500D01*
X160750000Y-51262500D02*
X160750000Y-52062500D01*
X160750000Y-52062500D02*
X159150000Y-52062500D01*
X117000000Y-50500000D02*
G75*
G02*
X115000000Y-50500000I-1000000J0D01*
G01*
X115000000Y-50500000D02*
G75*
G02*
X117000000Y-50500000I1000000J0D01*
G01*
X117000000Y-50500000D02*
G75*
G02*
X115000000Y-50500000I-1000000J0D01*
G01*
X115000000Y-50500000D02*
G75*
G02*
X117000000Y-50500000I1000000J0D01*
G01*
X143117555Y-55574529D02*
X141017554Y-56924529D01*
X141082445Y-57025471D02*
G75*
G02*
X141017555Y-56924529I-32445J50471D01*
G01*
X141082445Y-57025471D02*
X143182446Y-55675471D01*
X143182445Y-55675471D02*
G75*
G03*
X143117555Y-55574529I-32445J50471D01*
G01*
X143182446Y-56924529D02*
X141082445Y-55574529D01*
X141017555Y-55675471D02*
G75*
G02*
X141082445Y-55574529I32445J50471D01*
G01*
X141017554Y-55675471D02*
X143117555Y-57025471D01*
X143117555Y-57025471D02*
G75*
G03*
X143182445Y-56924529I32445J50471D01*
G01*
X143100000Y-56875000D02*
X141100000Y-56875000D01*
X141100000Y-56975000D02*
G75*
G02*
X141100000Y-56875000I0J50000D01*
G01*
X141100000Y-56975000D02*
X143100000Y-56975000D01*
X143100000Y-56975000D02*
G75*
G03*
X143100000Y-56875000I0J50000D01*
G01*
X141150000Y-56925000D02*
X141150000Y-55675000D01*
X141050000Y-55675000D02*
G75*
G02*
X141150000Y-55675000I50000J0D01*
G01*
X141050000Y-55675000D02*
X141050000Y-56925000D01*
X141050000Y-56925000D02*
G75*
G03*
X141150000Y-56925000I50000J0D01*
G01*
X141100000Y-55725000D02*
X143100000Y-55725000D01*
X143100000Y-55625000D02*
G75*
G02*
X143100000Y-55725000I0J-50000D01*
G01*
X143100000Y-55625000D02*
X141100000Y-55625000D01*
X141100000Y-55625000D02*
G75*
G03*
X141100000Y-55725000I0J-50000D01*
G01*
X143050000Y-55675000D02*
X143050000Y-56925000D01*
X143150000Y-56925000D02*
G75*
G02*
X143050000Y-56925000I-50000J0D01*
G01*
X143150000Y-56925000D02*
X143150000Y-55675000D01*
X143150000Y-55675000D02*
G75*
G03*
X143050000Y-55675000I-50000J0D01*
G01*
X127500000Y-56975000D02*
X125500000Y-56975000D01*
X125500000Y-55725000D01*
X127500000Y-55725000D01*
X127500000Y-56975000D01*
X160500000Y-97500000D02*
G75*
G02*
X158500000Y-97500000I-1000000J0D01*
G01*
X158500000Y-97500000D02*
G75*
G02*
X160500000Y-97500000I1000000J0D01*
G01*
X160500000Y-97500000D02*
G75*
G02*
X158500000Y-97500000I-1000000J0D01*
G01*
X158500000Y-97500000D02*
G75*
G02*
X160500000Y-97500000I1000000J0D01*
G01*
X115500000Y-97500000D02*
G75*
G02*
X113500000Y-97500000I-1000000J0D01*
G01*
X113500000Y-97500000D02*
G75*
G02*
X115500000Y-97500000I1000000J0D01*
G01*
X115500000Y-97500000D02*
G75*
G02*
X113500000Y-97500000I-1000000J0D01*
G01*
X113500000Y-97500000D02*
G75*
G02*
X115500000Y-97500000I1000000J0D01*
G01*
X134950000Y-68000000D02*
X135450000Y-68000000D01*
X135450000Y-67000000D01*
X134950000Y-67000000D01*
X134950000Y-68000000D01*
X123246973Y-55478073D02*
X124146973Y-57178073D01*
X124253027Y-57121927D02*
G75*
G02*
X124146973Y-57178073I-53027J-28073D01*
G01*
X124253027Y-57121927D02*
X123353027Y-55421927D01*
X123353027Y-55421927D02*
G75*
G03*
X123246973Y-55478073I-53027J-28073D01*
G01*
X124146973Y-55421927D02*
X123246973Y-57121927D01*
X123353027Y-57178073D02*
G75*
G02*
X123246973Y-57121927I-53027J28073D01*
G01*
X123353027Y-57178073D02*
X124253027Y-55478073D01*
X124253027Y-55478073D02*
G75*
G03*
X124146973Y-55421927I-53027J28073D01*
G01*
X124150000Y-55450000D02*
X123350000Y-55450000D01*
X123350000Y-55550000D02*
G75*
G02*
X123350000Y-55450000I0J50000D01*
G01*
X123350000Y-55550000D02*
X124150000Y-55550000D01*
X124150000Y-55550000D02*
G75*
G03*
X124150000Y-55450000I0J50000D01*
G01*
X123300000Y-55500000D02*
X123300000Y-57100000D01*
X123400000Y-57100000D02*
G75*
G02*
X123300000Y-57100000I-50000J0D01*
G01*
X123400000Y-57100000D02*
X123400000Y-55500000D01*
X123400000Y-55500000D02*
G75*
G03*
X123300000Y-55500000I-50000J0D01*
G01*
X123350000Y-57150000D02*
X124150000Y-57150000D01*
X124150000Y-57050000D02*
G75*
G02*
X124150000Y-57150000I0J-50000D01*
G01*
X124150000Y-57050000D02*
X123350000Y-57050000D01*
X123350000Y-57050000D02*
G75*
G03*
X123350000Y-57150000I0J-50000D01*
G01*
X124200000Y-57100000D02*
X124200000Y-55500000D01*
X124100000Y-55500000D02*
G75*
G02*
X124200000Y-55500000I50000J0D01*
G01*
X124100000Y-55500000D02*
X124100000Y-57100000D01*
X124100000Y-57100000D02*
G75*
G03*
X124200000Y-57100000I50000J0D01*
G01*
X138746973Y-55528073D02*
X139646973Y-57228073D01*
X139753027Y-57171927D02*
G75*
G02*
X139646973Y-57228073I-53027J-28073D01*
G01*
X139753027Y-57171927D02*
X138853027Y-55471927D01*
X138853027Y-55471927D02*
G75*
G03*
X138746973Y-55528073I-53027J-28073D01*
G01*
X139646973Y-55471927D02*
X138746973Y-57171927D01*
X138853027Y-57228073D02*
G75*
G02*
X138746973Y-57171927I-53027J28073D01*
G01*
X138853027Y-57228073D02*
X139753027Y-55528073D01*
X139753027Y-55528073D02*
G75*
G03*
X139646973Y-55471927I-53027J28073D01*
G01*
X139650000Y-55500000D02*
X138850000Y-55500000D01*
X138850000Y-55600000D02*
G75*
G02*
X138850000Y-55500000I0J50000D01*
G01*
X138850000Y-55600000D02*
X139650000Y-55600000D01*
X139650000Y-55600000D02*
G75*
G03*
X139650000Y-55500000I0J50000D01*
G01*
X138800000Y-55550000D02*
X138800000Y-57150000D01*
X138900000Y-57150000D02*
G75*
G02*
X138800000Y-57150000I-50000J0D01*
G01*
X138900000Y-57150000D02*
X138900000Y-55550000D01*
X138900000Y-55550000D02*
G75*
G03*
X138800000Y-55550000I-50000J0D01*
G01*
X138850000Y-57200000D02*
X139650000Y-57200000D01*
X139650000Y-57100000D02*
G75*
G02*
X139650000Y-57200000I0J-50000D01*
G01*
X139650000Y-57100000D02*
X138850000Y-57100000D01*
X138850000Y-57100000D02*
G75*
G03*
X138850000Y-57200000I0J-50000D01*
G01*
X139700000Y-57150000D02*
X139700000Y-55550000D01*
X139600000Y-55550000D02*
G75*
G02*
X139700000Y-55550000I50000J0D01*
G01*
X139600000Y-55550000D02*
X139600000Y-57150000D01*
X139600000Y-57150000D02*
G75*
G03*
X139700000Y-57150000I50000J0D01*
G01*
X142450000Y-80100000D02*
X141950000Y-80100000D01*
X141950000Y-81100000D01*
X142450000Y-81100000D01*
X142450000Y-80100000D01*
X135550000Y-80100000D02*
X135050000Y-80100000D01*
X135050000Y-81100000D01*
X135550000Y-81100000D01*
X135550000Y-80100000D01*
X157037500Y-53362500D02*
X157862500Y-53362500D01*
X157037500Y-54962500D02*
X157037500Y-53362500D01*
X157862500Y-53362500D02*
X157862500Y-54962500D01*
X157862500Y-54962500D02*
X157037500Y-54962500D01*
X159000000Y-57162500D02*
X160600000Y-57162500D01*
X160600000Y-57962500D01*
X159000000Y-57962500D01*
X159000000Y-57162500D01*
X123934840Y-51439778D02*
X154514839Y-54079778D01*
X154525160Y-53960222D02*
G75*
G02*
X154514838Y-54079778I-5161J-59778D01*
G01*
X154525160Y-53960222D02*
X123945161Y-51320222D01*
X123945162Y-51320222D02*
G75*
G03*
X123934840Y-51439778I-5161J-59778D01*
G01*
X154514839Y-51320222D02*
X123934840Y-53960222D01*
X123945162Y-54079778D02*
G75*
G02*
X123934840Y-53960222I-5161J59778D01*
G01*
X123945161Y-54079778D02*
X154525160Y-51439778D01*
X154525160Y-51439778D02*
G75*
G03*
X154514838Y-51320222I-5161J59778D01*
G01*
X123990000Y-51480000D02*
X153835000Y-51480000D01*
X153835000Y-51380000D02*
G75*
G02*
X153835000Y-51480000I0J-50000D01*
G01*
X153835000Y-51380000D02*
X123990000Y-51380000D01*
X123990000Y-51380000D02*
G75*
G03*
X123990000Y-51480000I0J-50000D01*
G01*
X124040000Y-53970000D02*
X124040000Y-51430000D01*
X123940000Y-51430000D02*
G75*
G02*
X124040000Y-51430000I50000J0D01*
G01*
X123940000Y-51430000D02*
X123940000Y-53970000D01*
X123940000Y-53970000D02*
G75*
G03*
X124040000Y-53970000I50000J0D01*
G01*
X153799645Y-51465355D02*
X154434645Y-52100355D01*
X154505355Y-52029645D02*
G75*
G02*
X154434645Y-52100355I-35355J-35355D01*
G01*
X154505355Y-52029645D02*
X153870355Y-51394645D01*
X153870355Y-51394645D02*
G75*
G03*
X153799645Y-51465355I-35355J-35355D01*
G01*
X154420000Y-52065000D02*
X154420000Y-53970000D01*
X154520000Y-53970000D02*
G75*
G02*
X154420000Y-53970000I-50000J0D01*
G01*
X154520000Y-53970000D02*
X154520000Y-52065000D01*
X154520000Y-52065000D02*
G75*
G03*
X154420000Y-52065000I-50000J0D01*
G01*
X154470000Y-53920000D02*
X123990000Y-53920000D01*
X123990000Y-54020000D02*
G75*
G02*
X123990000Y-53920000I0J50000D01*
G01*
X123990000Y-54020000D02*
X154470000Y-54020000D01*
X154470000Y-54020000D02*
G75*
G03*
X154470000Y-53920000I0J50000D01*
G01*
X160730000Y-63525000D02*
X161270000Y-63525000D01*
X161270000Y-62475000D01*
X160730000Y-62475000D01*
X160730000Y-63525000D01*
X148100000Y-93950000D02*
X149100000Y-93950000D01*
X148100000Y-94450000D02*
X148100000Y-93950000D01*
X149100000Y-93950000D02*
X149100000Y-94450000D01*
X149100000Y-94450000D02*
X148100000Y-94450000D01*
X118650000Y-50700000D02*
X119150000Y-50700000D01*
X118650000Y-51700000D02*
X118650000Y-50700000D01*
X119150000Y-50700000D02*
X119150000Y-51700000D01*
X119150000Y-51700000D02*
X118650000Y-51700000D01*
X120200000Y-50700000D02*
X121800000Y-50700000D01*
X120200000Y-51500000D02*
X120200000Y-50700000D01*
X121800000Y-50700000D02*
X121800000Y-51500000D01*
X121800000Y-51500000D02*
X120200000Y-51500000D01*
X161529581Y-55297799D02*
X158529581Y-53597799D01*
X158470419Y-53702201D02*
G75*
G02*
X158529581Y-53597799I29581J52201D01*
G01*
X158470419Y-53702201D02*
X161470419Y-55402201D01*
X161470419Y-55402201D02*
G75*
G03*
X161529581Y-55297799I29581J52201D01*
G01*
X158529581Y-55402201D02*
X161529581Y-53702201D01*
X161470419Y-53597799D02*
G75*
G02*
X161529581Y-53702201I29581J-52201D01*
G01*
X161470419Y-53597799D02*
X158470419Y-55297799D01*
X158470419Y-55297799D02*
G75*
G03*
X158529581Y-55402201I29581J-52201D01*
G01*
X158950000Y-55350000D02*
X161450000Y-55350000D01*
X161450000Y-55250000D02*
G75*
G02*
X161450000Y-55350000I0J-50000D01*
G01*
X161450000Y-55250000D02*
X158950000Y-55250000D01*
X158950000Y-55250000D02*
G75*
G03*
X158950000Y-55350000I0J-50000D01*
G01*
X161500000Y-55300000D02*
X161500000Y-53700000D01*
X161400000Y-53700000D02*
G75*
G02*
X161500000Y-53700000I50000J0D01*
G01*
X161400000Y-53700000D02*
X161400000Y-55300000D01*
X161400000Y-55300000D02*
G75*
G03*
X161500000Y-55300000I50000J0D01*
G01*
X161450000Y-53650000D02*
X158550000Y-53650000D01*
X158550000Y-53750000D02*
G75*
G02*
X158550000Y-53650000I0J50000D01*
G01*
X158550000Y-53750000D02*
X161450000Y-53750000D01*
X161450000Y-53750000D02*
G75*
G03*
X161450000Y-53650000I0J50000D01*
G01*
X158500000Y-53700000D02*
X158500000Y-54900000D01*
X158600000Y-54900000D02*
G75*
G02*
X158500000Y-54900000I-50000J0D01*
G01*
X158600000Y-54900000D02*
X158600000Y-53700000D01*
X158600000Y-53700000D02*
G75*
G03*
X158500000Y-53700000I-50000J0D01*
G01*
X158514645Y-54935356D02*
X158914644Y-55335355D01*
X158985354Y-55264644D02*
G75*
G02*
X158914644Y-55335354I-35355J-35355D01*
G01*
X158985355Y-55264644D02*
X158585356Y-54864645D01*
X158585356Y-54864646D02*
G75*
G03*
X158514646Y-54935356I-35355J-35355D01*
G01*
X135400000Y-56925000D02*
X133400000Y-56925000D01*
X133400000Y-55675000D01*
X135400000Y-55675000D01*
X135400000Y-56925000D01*
X138750000Y-80300000D02*
X138250000Y-80300000D01*
X138250000Y-81300000D01*
X138750000Y-81300000D01*
X138750000Y-80300000D01*
X118915203Y-54521323D02*
X117990203Y-52821323D01*
X117884797Y-52878677D02*
G75*
G02*
X117990203Y-52821323I52703J28677D01*
G01*
X117884797Y-52878677D02*
X118809797Y-54578677D01*
X118809797Y-54578677D02*
G75*
G03*
X118915203Y-54521323I52703J28677D01*
G01*
X117990203Y-54578677D02*
X118915203Y-52878677D01*
X118809797Y-52821323D02*
G75*
G02*
X118915203Y-52878677I52703J-28677D01*
G01*
X118809797Y-52821323D02*
X117884797Y-54521323D01*
X117884797Y-54521323D02*
G75*
G03*
X117990203Y-54578677I52703J-28677D01*
G01*
X117987500Y-52950000D02*
X118812500Y-52950000D01*
X118812500Y-52850000D02*
G75*
G02*
X118812500Y-52950000I0J-50000D01*
G01*
X118812500Y-52850000D02*
X117987500Y-52850000D01*
X117987500Y-52850000D02*
G75*
G03*
X117987500Y-52950000I0J-50000D01*
G01*
X118037500Y-54500000D02*
X118037500Y-52900000D01*
X117937500Y-52900000D02*
G75*
G02*
X118037500Y-52900000I50000J0D01*
G01*
X117937500Y-52900000D02*
X117937500Y-54500000D01*
X117937500Y-54500000D02*
G75*
G03*
X118037500Y-54500000I50000J0D01*
G01*
X118762500Y-52900000D02*
X118762500Y-54500000D01*
X118862500Y-54500000D02*
G75*
G02*
X118762500Y-54500000I-50000J0D01*
G01*
X118862500Y-54500000D02*
X118862500Y-52900000D01*
X118862500Y-52900000D02*
G75*
G03*
X118762500Y-52900000I-50000J0D01*
G01*
X118812500Y-54450000D02*
X117987500Y-54450000D01*
X117987500Y-54550000D02*
G75*
G02*
X117987500Y-54450000I0J50000D01*
G01*
X117987500Y-54550000D02*
X118812500Y-54550000D01*
X118812500Y-54550000D02*
G75*
G03*
X118812500Y-54450000I0J50000D01*
G01*
X138350000Y-67800000D02*
X138850000Y-67800000D01*
X138850000Y-66800000D01*
X138350000Y-66800000D01*
X138350000Y-67800000D01*
X154830000Y-63525000D02*
X155370000Y-63525000D01*
X155370000Y-62475000D01*
X154830000Y-62475000D01*
X154830000Y-63525000D01*
X141750000Y-68000000D02*
X142250000Y-68000000D01*
X142250000Y-67000000D01*
X141750000Y-67000000D01*
X141750000Y-68000000D01*
X159915203Y-60983823D02*
X158990203Y-59283823D01*
X158884797Y-59341177D02*
G75*
G02*
X158990203Y-59283823I52703J28677D01*
G01*
X158884797Y-59341177D02*
X159809797Y-61041177D01*
X159809797Y-61041177D02*
G75*
G03*
X159915203Y-60983823I52703J28677D01*
G01*
X158990203Y-61041177D02*
X159915203Y-59341177D01*
X159809797Y-59283823D02*
G75*
G02*
X159915203Y-59341177I52703J-28677D01*
G01*
X159809797Y-59283823D02*
X158884797Y-60983823D01*
X158884797Y-60983823D02*
G75*
G03*
X158990203Y-61041177I52703J-28677D01*
G01*
X158987500Y-59412500D02*
X159812500Y-59412500D01*
X159812500Y-59312500D02*
G75*
G02*
X159812500Y-59412500I0J-50000D01*
G01*
X159812500Y-59312500D02*
X158987500Y-59312500D01*
X158987500Y-59312500D02*
G75*
G03*
X158987500Y-59412500I0J-50000D01*
G01*
X159037500Y-60962500D02*
X159037500Y-59362500D01*
X158937500Y-59362500D02*
G75*
G02*
X159037500Y-59362500I50000J0D01*
G01*
X158937500Y-59362500D02*
X158937500Y-60962500D01*
X158937500Y-60962500D02*
G75*
G03*
X159037500Y-60962500I50000J0D01*
G01*
X159762500Y-59362500D02*
X159762500Y-60962500D01*
X159862500Y-60962500D02*
G75*
G02*
X159762500Y-60962500I-50000J0D01*
G01*
X159862500Y-60962500D02*
X159862500Y-59362500D01*
X159862500Y-59362500D02*
G75*
G03*
X159762500Y-59362500I-50000J0D01*
G01*
X159812500Y-60912500D02*
X158987500Y-60912500D01*
X158987500Y-61012500D02*
G75*
G02*
X158987500Y-60912500I0J50000D01*
G01*
X158987500Y-61012500D02*
X159812500Y-61012500D01*
X159812500Y-61012500D02*
G75*
G03*
X159812500Y-60912500I0J50000D01*
G01*
X153627572Y-95054178D02*
X154267572Y-96204177D01*
X154372428Y-96145823D02*
G75*
G02*
X154267572Y-96204177I-52428J-29177D01*
G01*
X154372428Y-96145822D02*
X153732428Y-94995823D01*
X153732428Y-94995823D02*
G75*
G03*
X153627572Y-95054177I-52428J-29177D01*
G01*
X154267572Y-94995823D02*
X153627572Y-96145822D01*
X153732428Y-96204177D02*
G75*
G02*
X153627572Y-96145823I-52428J29177D01*
G01*
X153732428Y-96204177D02*
X154372428Y-95054178D01*
X154372428Y-95054177D02*
G75*
G03*
X154267572Y-94995823I-52428J29177D01*
G01*
X153730000Y-95125000D02*
X154270000Y-95125000D01*
X154270000Y-95025000D02*
G75*
G02*
X154270000Y-95125000I0J-50000D01*
G01*
X154270000Y-95025000D02*
X153730000Y-95025000D01*
X153730000Y-95025000D02*
G75*
G03*
X153730000Y-95125000I0J-50000D01*
G01*
X153780000Y-96125000D02*
X153780000Y-95075000D01*
X153680000Y-95075000D02*
G75*
G02*
X153780000Y-95075000I50000J0D01*
G01*
X153680000Y-95075000D02*
X153680000Y-96125000D01*
X153680000Y-96125000D02*
G75*
G03*
X153780000Y-96125000I50000J0D01*
G01*
X154220000Y-95075000D02*
X154220000Y-96125000D01*
X154320000Y-96125000D02*
G75*
G02*
X154220000Y-96125000I-50000J0D01*
G01*
X154320000Y-96125000D02*
X154320000Y-95075000D01*
X154320000Y-95075000D02*
G75*
G03*
X154220000Y-95075000I-50000J0D01*
G01*
X154270000Y-96075000D02*
X153730000Y-96075000D01*
X153730000Y-96175000D02*
G75*
G02*
X153730000Y-96075000I0J50000D01*
G01*
X153730000Y-96175000D02*
X154270000Y-96175000D01*
X154270000Y-96175000D02*
G75*
G03*
X154270000Y-96075000I0J50000D01*
G01*
X152327572Y-94254178D02*
X152967572Y-95404177D01*
X153072428Y-95345823D02*
G75*
G02*
X152967572Y-95404177I-52428J-29177D01*
G01*
X153072428Y-95345822D02*
X152432428Y-94195823D01*
X152432428Y-94195823D02*
G75*
G03*
X152327572Y-94254177I-52428J-29177D01*
G01*
X152967572Y-94195823D02*
X152327572Y-95345822D01*
X152432428Y-95404177D02*
G75*
G02*
X152327572Y-95345823I-52428J29177D01*
G01*
X152432428Y-95404177D02*
X153072428Y-94254178D01*
X153072428Y-94254177D02*
G75*
G03*
X152967572Y-94195823I-52428J29177D01*
G01*
X152430000Y-94325000D02*
X152970000Y-94325000D01*
X152970000Y-94225000D02*
G75*
G02*
X152970000Y-94325000I0J-50000D01*
G01*
X152970000Y-94225000D02*
X152430000Y-94225000D01*
X152430000Y-94225000D02*
G75*
G03*
X152430000Y-94325000I0J-50000D01*
G01*
X152480000Y-95325000D02*
X152480000Y-94275000D01*
X152380000Y-94275000D02*
G75*
G02*
X152480000Y-94275000I50000J0D01*
G01*
X152380000Y-94275000D02*
X152380000Y-95325000D01*
X152380000Y-95325000D02*
G75*
G03*
X152480000Y-95325000I50000J0D01*
G01*
X152920000Y-94275000D02*
X152920000Y-95325000D01*
X153020000Y-95325000D02*
G75*
G02*
X152920000Y-95325000I-50000J0D01*
G01*
X153020000Y-95325000D02*
X153020000Y-94275000D01*
X153020000Y-94275000D02*
G75*
G03*
X152920000Y-94275000I-50000J0D01*
G01*
X152970000Y-95275000D02*
X152430000Y-95275000D01*
X152430000Y-95375000D02*
G75*
G02*
X152430000Y-95275000I0J50000D01*
G01*
X152430000Y-95375000D02*
X152970000Y-95375000D01*
X152970000Y-95375000D02*
G75*
G03*
X152970000Y-95275000I0J50000D01*
G01*
X120300000Y-56700000D02*
X121900000Y-56700000D01*
X121900000Y-57500000D01*
X120300000Y-57500000D01*
X120300000Y-56700000D01*
X147721151Y-97137175D02*
X150821150Y-95037175D01*
X150753849Y-94937825D02*
G75*
G02*
X150821151Y-95037175I33651J-49675D01*
G01*
X150753849Y-94937825D02*
X147653850Y-97037825D01*
X147653849Y-97037825D02*
G75*
G03*
X147721151Y-97137175I33651J-49675D01*
G01*
X147653850Y-95037175D02*
X150753849Y-97137175D01*
X150821151Y-97037825D02*
G75*
G02*
X150753849Y-97137175I-33651J-49675D01*
G01*
X150821150Y-97037825D02*
X147721151Y-94937825D01*
X147721151Y-94937825D02*
G75*
G03*
X147653849Y-95037175I-33651J-49675D01*
G01*
X147772856Y-95572855D02*
X148272855Y-95072856D01*
X148202145Y-95002145D02*
G75*
G02*
X148272855Y-95072855I35355J-35355D01*
G01*
X148202144Y-95002145D02*
X147702145Y-95502144D01*
X147702145Y-95502145D02*
G75*
G03*
X147772855Y-95572855I35355J-35355D01*
G01*
X147787500Y-97037500D02*
X147787500Y-95537500D01*
X147687500Y-95537500D02*
G75*
G02*
X147787500Y-95537500I50000J0D01*
G01*
X147687500Y-95537500D02*
X147687500Y-97037500D01*
X147687500Y-97037500D02*
G75*
G03*
X147787500Y-97037500I50000J0D01*
G01*
X148237500Y-95087500D02*
X150737500Y-95087500D01*
X150737500Y-94987500D02*
G75*
G02*
X150737500Y-95087500I0J-50000D01*
G01*
X150737500Y-94987500D02*
X148237500Y-94987500D01*
X148237500Y-94987500D02*
G75*
G03*
X148237500Y-95087500I0J-50000D01*
G01*
X150687500Y-95037500D02*
X150687500Y-97037500D01*
X150787500Y-97037500D02*
G75*
G02*
X150687500Y-97037500I-50000J0D01*
G01*
X150787500Y-97037500D02*
X150787500Y-95037500D01*
X150787500Y-95037500D02*
G75*
G03*
X150687500Y-95037500I-50000J0D01*
G01*
X150737500Y-96987500D02*
X147737500Y-96987500D01*
X147737500Y-97087500D02*
G75*
G02*
X147737500Y-96987500I0J50000D01*
G01*
X147737500Y-97087500D02*
X150737500Y-97087500D01*
X150737500Y-97087500D02*
G75*
G03*
X150737500Y-96987500I0J50000D01*
G01*
X122450000Y-54800000D02*
X119950000Y-54800000D01*
X119550000Y-54400000D01*
X119550000Y-53200000D01*
X122450000Y-53200000D01*
X122450000Y-54800000D01*
X160487500Y-59362500D02*
X161312500Y-59362500D01*
X160487500Y-60962500D02*
X160487500Y-59362500D01*
X161312500Y-59362500D02*
X161312500Y-60962500D01*
X161312500Y-60962500D02*
X160487500Y-60962500D01*
X115687500Y-56000000D02*
X116512500Y-56000000D01*
X115687500Y-57600000D02*
X115687500Y-56000000D01*
X116512500Y-56000000D02*
X116512500Y-57600000D01*
X116512500Y-57600000D02*
X115687500Y-57600000D01*
X117094797Y-55953677D02*
X118019797Y-57653677D01*
X118125203Y-57596323D02*
G75*
G02*
X118019797Y-57653677I-52703J-28677D01*
G01*
X118125203Y-57596323D02*
X117200203Y-55896323D01*
X117200203Y-55896323D02*
G75*
G03*
X117094797Y-55953677I-52703J-28677D01*
G01*
X118019797Y-55896323D02*
X117094797Y-57596323D01*
X117200203Y-57653677D02*
G75*
G02*
X117094797Y-57596323I-52703J28677D01*
G01*
X117200203Y-57653677D02*
X118125203Y-55953677D01*
X118125203Y-55953677D02*
G75*
G03*
X118019797Y-55896323I-52703J28677D01*
G01*
X117197500Y-56025000D02*
X118022500Y-56025000D01*
X118022500Y-55925000D02*
G75*
G02*
X118022500Y-56025000I0J-50000D01*
G01*
X118022500Y-55925000D02*
X117197500Y-55925000D01*
X117197500Y-55925000D02*
G75*
G03*
X117197500Y-56025000I0J-50000D01*
G01*
X117247500Y-57575000D02*
X117247500Y-55975000D01*
X117147500Y-55975000D02*
G75*
G02*
X117247500Y-55975000I50000J0D01*
G01*
X117147500Y-55975000D02*
X117147500Y-57575000D01*
X117147500Y-57575000D02*
G75*
G03*
X117247500Y-57575000I50000J0D01*
G01*
X117972500Y-55975000D02*
X117972500Y-57575000D01*
X118072500Y-57575000D02*
G75*
G02*
X117972500Y-57575000I-50000J0D01*
G01*
X118072500Y-57575000D02*
X118072500Y-55975000D01*
X118072500Y-55975000D02*
G75*
G03*
X117972500Y-55975000I-50000J0D01*
G01*
X118022500Y-57525000D02*
X117197500Y-57525000D01*
X117197500Y-57625000D02*
G75*
G02*
X117197500Y-57525000I0J50000D01*
G01*
X117197500Y-57625000D02*
X118022500Y-57625000D01*
X118022500Y-57625000D02*
G75*
G03*
X118022500Y-57525000I0J50000D01*
G01*
X133550000Y-68000000D02*
X134050000Y-68000000D01*
X134050000Y-67000000D01*
X133550000Y-67000000D01*
X133550000Y-68000000D01*
X142500000Y-77500000D02*
X141500000Y-78500000D01*
X133500000Y-78500000D01*
X133500000Y-69500000D01*
X142500000Y-69500000D01*
X142500000Y-77500000D01*
X131075000Y-54475000D02*
X132625000Y-57525000D01*
X131075000Y-57525000D02*
X132625000Y-54475000D01*
X114702494Y-49203750D02*
X117294998Y-51796249D01*
X114702494Y-51796249D02*
X117294998Y-49203750D01*
X140375000Y-55305000D02*
X143825000Y-57295000D01*
X140375000Y-57295000D02*
X143825000Y-55305000D01*
X158202494Y-96203750D02*
X160794998Y-98796249D01*
X158202494Y-98796249D02*
X160794998Y-96203750D01*
X113202494Y-96203750D02*
X115794998Y-98796249D01*
X113202494Y-98796249D02*
X115794998Y-96203750D01*
X122975000Y-54775000D02*
X124525000Y-57825000D01*
X122975000Y-57825000D02*
X124525000Y-54775000D01*
X138475000Y-54825000D02*
X140025000Y-57875000D01*
X138475000Y-57875000D02*
X140025000Y-54825000D01*
X123445000Y-50885000D02*
X155015000Y-54515000D01*
X123445000Y-54515000D02*
X155015000Y-50885000D01*
X158255000Y-52405000D02*
X161745000Y-56595000D01*
X158255000Y-56595000D02*
X161745000Y-52405000D01*
X117625000Y-52175000D02*
X119175000Y-55225000D01*
X117625000Y-55225000D02*
X119175000Y-52175000D01*
X158625000Y-58637500D02*
X160175000Y-61687500D01*
X158625000Y-61687500D02*
X160175000Y-58637500D01*
X153485000Y-94625000D02*
X154515000Y-96575000D01*
X153485000Y-96575000D02*
X154515000Y-94625000D01*
X152185000Y-93825000D02*
X153215000Y-95775000D01*
X152185000Y-95775000D02*
X153215000Y-93825000D01*
X147092500Y-94692500D02*
X151382500Y-97382500D01*
X147092500Y-97382500D02*
X151382500Y-94692500D01*
X116835000Y-55250000D02*
X118385000Y-58300000D01*
X116835000Y-58300000D02*
X118385000Y-55250000D01*
M02*
