M48
; DRILL file KiCad 10.0.5-10.0.5~ubuntu24.04.1 date 2026-08-19T02:51:31
; FORMAT={-:-/ absolute / metric / decimal}
; #@! TF.CreationDate,2026-08-19T02:51:31-04:00
; #@! TF.GenerationSoftware,Kicad,Pcbnew,10.0.5-10.0.5~ubuntu24.04.1
; #@! TF.FileFunction,MixedPlating,1,4
FMAT,2
METRIC
; #@! TA.AperFunction,Plated,PTH,ViaDrill
T1C0.250
; #@! TA.AperFunction,Plated,PTH,ViaDrill
T2C0.300
; #@! TA.AperFunction,Plated,PTH,ComponentDrill
T3C0.300
; #@! TA.AperFunction,Plated,PTH,ViaDrill
T4C0.400
; #@! TA.AperFunction,Plated,PTH,ComponentDrill
T5C0.400
; #@! TA.AperFunction,Plated,PTH,ComponentDrill
T6C1.000
%
G90
G05
T1
X114.3Y-68.7
X114.5Y-65.5
X114.8Y-75.5
X114.9Y-74.8
X115.1Y-67.037
X115.1Y-64.84
X115.104Y-67.787
X115.125Y-72.751
X115.15Y-73.528
X115.257Y-71.43
X115.3Y-69.4
X115.663Y-64.345
X115.7Y-66.6
X115.738Y-70.855
X115.783Y-74.844
X115.789Y-73.1
X122.031Y-77.215
X122.04Y-69.272
X122.1Y-67.27
X122.1Y-74.2
X122.158Y-65.079
X122.3Y-66.2
X122.343Y-70.805
X122.456Y-72.105
X122.855Y-68.203
X123.068Y-75.16
X123.375Y-72.883
X126.5Y-68.2
X136.029Y-79.7
X154.4Y-62.5
T2
X114.313Y-67.908
X114.4Y-74.088
X114.541Y-76.354
X114.6Y-63.7
X114.7Y-78.7
X114.75Y-72.049
X115.026Y-70.126
X115.1Y-66.1
X115.394Y-77.591
X115.8Y-79.5
X117.2Y-80.8
X121.0Y-54.2
X121.029Y-56.126
X121.9Y-58.2
X122.9Y-54.2
X123.75Y-58.35
X125.2Y-69.453
X127.7Y-69.5
X128.5Y-72.8
X128.9Y-75.3
X130.0Y-69.3
X133.5Y-66.5
X133.593Y-69.04
X134.6Y-91.9
X134.8Y-70.7
X135.0Y-81.5
X135.2Y-77.3
X135.3Y-92.2
X135.4Y-66.4
X135.741Y-70.7
X135.945Y-67.447
X136.285Y-80.965
X136.3Y-65.8
X136.4Y-63.8
X136.551Y-82.398
X136.8Y-64.5
X136.819Y-81.627
X137.6Y-63.759
X137.635Y-82.346
X137.8Y-83.18
X138.0Y-61.74
X138.186Y-81.542
X138.25Y-70.45
X138.5Y-63.4
X138.6Y-66.1
X138.8Y-82.15
X138.8Y-82.8
X138.84Y-67.627
X139.0Y-83.6
X139.34Y-62.6
X139.5Y-61.0
X139.745Y-85.69
X139.8Y-84.2
X139.9Y-61.7
X140.2Y-55.2
X140.2Y-57.1
X140.3Y-60.5
X140.34Y-84.8
X140.9Y-85.6
X141.1Y-55.2
X141.2Y-59.9
X141.3Y-70.7
X141.3Y-77.3
X142.4Y-68.5
X142.8Y-67.3
X142.8Y-80.2
X142.8Y-81.1
X143.6Y-94.2
X144.05Y-91.3
X144.297Y-73.407
X144.3Y-71.7
X144.3Y-75.3
X144.429Y-69.521
X144.575Y-90.2
X144.976Y-74.015
X145.0Y-70.15
X145.0Y-72.15
X145.6Y-64.5
X145.677Y-74.496
X145.8Y-70.8
X145.8Y-72.8
X145.927Y-68.847
X146.7Y-80.3
X146.7Y-95.3
X146.7Y-96.8
X147.5Y-92.25
X148.1Y-93.3
X148.3Y-92.25
X149.525Y-63.6
X151.6Y-91.6
X151.6Y-95.6
X152.8Y-90.1
X152.8Y-95.8
X152.836Y-82.35
X153.076Y-90.914
X153.8Y-88.1
X153.849Y-85.549
X153.85Y-89.6
X154.5Y-63.6
X154.7Y-96.4
X155.2Y-79.0
X158.3Y-55.3
X159.9Y-62.5
X160.0Y-54.5
X160.0Y-56.6
X160.1Y-80.775
X160.1Y-82.7
X160.1Y-84.5
X160.1Y-86.5
X160.535Y-91.092
X160.9Y-94.208
X161.0Y-64.5
X161.425Y-55.4
X161.55Y-88.023
X161.6Y-95.7
X161.749Y-90.3
X162.2Y-89.479
X162.2Y-96.3
T3
X134.8Y-72.6
X134.8Y-75.4
X138.0Y-71.3
X138.0Y-74.0
X138.2Y-77.3
X141.3Y-72.6
X141.3Y-75.4
X144.9Y-76.5
X145.1Y-68.1
X145.3Y-90.9
X145.8Y-79.1
X148.6Y-56.4
X156.2Y-49.9
X156.4Y-56.2
X158.2Y-59.0
T4
X114.75Y-61.8
X114.756Y-62.763
X115.1Y-52.0
X116.0Y-52.0
X117.5Y-49.9
X118.151Y-50.873
X119.5Y-49.9
X122.7Y-51.15
X124.7Y-54.5
X124.7Y-55.4
X132.72Y-58.274
X133.5Y-58.9
X134.306Y-57.257
X134.5Y-58.1
X146.6Y-82.5
X146.7Y-56.3
X146.7Y-57.2
X147.0Y-55.2
X147.6Y-82.5
X147.9Y-55.6
X148.65Y-58.15
X148.7Y-59.2
X154.0Y-49.951
X155.15Y-49.951
X157.4Y-51.622
X159.2Y-77.9
X159.2Y-78.9
X161.1Y-49.922
X161.142Y-52.057
X161.325Y-57.6
X161.942Y-50.824
X162.1Y-51.7
X162.1Y-80.1
X162.1Y-81.1
T5
X114.0Y-50.8
X114.0Y-55.4
X114.0Y-60.7
X114.1Y-82.1
X114.1Y-86.1
X114.1Y-90.1
X114.1Y-94.1
X115.6Y-80.6
X116.1Y-53.2
X116.9Y-98.0
X118.0Y-60.9
X120.8Y-62.4
X120.9Y-98.0
X122.6Y-80.4
X124.9Y-98.0
X128.9Y-98.0
X129.4Y-56.4
X131.8Y-58.8
X132.9Y-98.0
X134.8Y-93.2
X135.6Y-58.0
X136.9Y-98.0
X140.9Y-98.0
X141.3Y-86.6
X141.5Y-58.9
X141.8Y-61.0
X141.8Y-65.6
X144.2Y-93.0
X144.6Y-63.8
X144.7Y-57.1
X144.9Y-98.0
X145.9Y-81.4
X147.6Y-84.0
X148.9Y-98.0
X150.3Y-92.4
X150.4Y-85.9
X150.6Y-62.6
X150.7Y-55.4
X150.9Y-69.8
X152.9Y-98.0
X153.7Y-60.0
X153.7Y-69.8
X156.9Y-98.0
X158.2Y-76.8
X160.2Y-65.3
X160.2Y-69.3
X160.2Y-73.3
X160.2Y-77.3
X160.2Y-93.5
X161.4Y-97.3
X162.0Y-82.3
X162.0Y-86.9
T6
X125.26Y-52.7
X127.8Y-52.7
X130.34Y-52.7
X132.88Y-52.7
X135.42Y-52.7
X137.96Y-52.7
X140.5Y-52.7
X143.04Y-52.7
X145.58Y-52.7
X148.12Y-52.7
X150.66Y-52.7
X153.2Y-52.7
M30
