G04 #@! TF.GenerationSoftware,KiCad,Pcbnew,10.0.5-10.0.5~ubuntu24.04.1*
G04 #@! TF.CreationDate,2026-08-19T12:02:01-04:00*
G04 #@! TF.ProjectId,breakout-ihp-qfn,62726561-6b6f-4757-942d-6968702d7166,1.2*
G04 #@! TF.SameCoordinates,PX6bc3e40PY5e69ec0*
G04 #@! TF.FileFunction,Legend,Top*
G04 #@! TF.FilePolarity,Positive*
%FSLAX46Y46*%
G04 Gerber Fmt 4.6, Leading zero omitted, Abs format (unit mm)*
G04 Created by KiCad (PCBNEW 10.0.5-10.0.5~ubuntu24.04.1) date 2026-08-19 12:02:01*
%MOMM*%
%LPD*%
G01*
G04 APERTURE LIST*
%ADD10C,0.150000*%
%ADD11C,0.160000*%
%ADD12C,0.140000*%
%ADD13C,0.180000*%
%ADD14C,0.200000*%
%ADD15C,0.250000*%
%ADD16C,0.500000*%
%ADD17C,0.300000*%
%ADD18C,0.120000*%
%ADD19C,0.000000*%
G04 APERTURE END LIST*
D10*
X143400000Y-77750000D02*
X144100000Y-77050000D01*
X144100000Y-78450000D01*
X144050000Y-78400000D01*
X143400000Y-77750000D01*
G36*
X144100000Y-78450000D02*
G01*
X144050000Y-78400000D01*
X143400000Y-77750000D01*
X144100000Y-77050000D01*
X144100000Y-78450000D01*
G37*
X116300000Y-63100000D02*
X116330000Y-63100000D01*
X116930000Y-63100000D02*
X116960000Y-63100000D01*
X117560000Y-63100000D02*
X117590000Y-63100000D01*
X118190000Y-63100000D02*
X118220000Y-63100000D01*
X118820000Y-63100000D02*
X118850000Y-63100000D01*
X119450000Y-63100000D02*
X119480000Y-63100000D01*
X120080000Y-63100000D02*
X120110000Y-63100000D01*
X120710000Y-63100000D02*
X120740000Y-63100000D01*
X121340000Y-63100000D02*
X121370000Y-63100000D01*
X121700000Y-63100000D02*
X121700000Y-63130000D01*
X121700000Y-63730000D02*
X121700000Y-63760000D01*
X121700000Y-64360000D02*
X121700000Y-64390000D01*
X121700000Y-64990000D02*
X121700000Y-65020000D01*
X121700000Y-65620000D02*
X121700000Y-65650000D01*
X121700000Y-66250000D02*
X121700000Y-66280000D01*
X121700000Y-66880000D02*
X121700000Y-66910000D01*
X121700000Y-67510000D02*
X121700000Y-67540000D01*
X121700000Y-68140000D02*
X121700000Y-68170000D01*
X121700000Y-68770000D02*
X121700000Y-68800000D01*
X121700000Y-69400000D02*
X121700000Y-69430000D01*
X121700000Y-70030000D02*
X121700000Y-70060000D01*
X121700000Y-70660000D02*
X121700000Y-70690000D01*
X121700000Y-71290000D02*
X121700000Y-71320000D01*
X121700000Y-71920000D02*
X121700000Y-71950000D01*
X121700000Y-72550000D02*
X121700000Y-72580000D01*
X121700000Y-73180000D02*
X121700000Y-73210000D01*
X121700000Y-73810000D02*
X121700000Y-73840000D01*
X121700000Y-74440000D02*
X121700000Y-74470000D01*
X121700000Y-75070000D02*
X121700000Y-75100000D01*
X121700000Y-75700000D02*
X121700000Y-75730000D01*
X121700000Y-76330000D02*
X121700000Y-76360000D01*
X121700000Y-76960000D02*
X121700000Y-76990000D01*
X121700000Y-77590000D02*
X121700000Y-77620000D01*
X121700000Y-78220000D02*
X121700000Y-78250000D01*
X121700000Y-78850000D02*
X121700000Y-78880000D01*
X121700000Y-79000000D02*
X121670000Y-79000000D01*
X121070000Y-79000000D02*
X121040000Y-79000000D01*
X120440000Y-79000000D02*
X120410000Y-79000000D01*
X119810000Y-79000000D02*
X119780000Y-79000000D01*
X119180000Y-79000000D02*
X119150000Y-79000000D01*
X118550000Y-79000000D02*
X118520000Y-79000000D01*
X117920000Y-79000000D02*
X117890000Y-79000000D01*
X117290000Y-79000000D02*
X117260000Y-79000000D01*
X116660000Y-79000000D02*
X116630000Y-79000000D01*
X116300000Y-79000000D02*
X116300000Y-78970000D01*
X116300000Y-78370000D02*
X116300000Y-78340000D01*
X116300000Y-77740000D02*
X116300000Y-77710000D01*
X116300000Y-77110000D02*
X116300000Y-77080000D01*
X116300000Y-76480000D02*
X116300000Y-76450000D01*
X116300000Y-75850000D02*
X116300000Y-75820000D01*
X116300000Y-75220000D02*
X116300000Y-75190000D01*
X116300000Y-74590000D02*
X116300000Y-74560000D01*
X116300000Y-73960000D02*
X116300000Y-73930000D01*
X116300000Y-73330000D02*
X116300000Y-73300000D01*
X116300000Y-72700000D02*
X116300000Y-72670000D01*
X116300000Y-72070000D02*
X116300000Y-72040000D01*
X116300000Y-71440000D02*
X116300000Y-71410000D01*
X116300000Y-70810000D02*
X116300000Y-70780000D01*
X116300000Y-70180000D02*
X116300000Y-70150000D01*
X116300000Y-69550000D02*
X116300000Y-69520000D01*
X116300000Y-68920000D02*
X116300000Y-68890000D01*
X116300000Y-68290000D02*
X116300000Y-68260000D01*
X116300000Y-67660000D02*
X116300000Y-67630000D01*
X116300000Y-67030000D02*
X116300000Y-67000000D01*
X116300000Y-66400000D02*
X116300000Y-66370000D01*
X116300000Y-65770000D02*
X116300000Y-65740000D01*
X116300000Y-65140000D02*
X116300000Y-65110000D01*
X116300000Y-64510000D02*
X116300000Y-64480000D01*
X116300000Y-63880000D02*
X116300000Y-63850000D01*
X116300000Y-63250000D02*
X116300000Y-63220000D01*
X124550000Y-54237500D02*
X124550000Y-56200000D01*
X124550000Y-56200000D02*
X124900000Y-56200000D01*
X128050000Y-56150000D02*
X128450000Y-56150000D01*
X128450000Y-54162500D02*
X128450000Y-56150000D01*
X129000000Y-51250000D02*
X131500000Y-51250000D01*
X131500000Y-54150000D01*
X129000000Y-54150000D01*
X129000000Y-51250000D01*
G36*
X129000000Y-51250000D02*
G01*
X131500000Y-51250000D01*
X131500000Y-54150000D01*
X129000000Y-54150000D01*
X129000000Y-51250000D01*
G37*
X132600000Y-68600000D02*
X143400000Y-68600000D01*
X143400000Y-79300000D01*
X132600000Y-79300000D01*
X132600000Y-68600000D01*
X132625000Y-54237500D02*
X132625000Y-56200000D01*
X132625000Y-56200000D02*
X132975000Y-56200000D01*
X136125000Y-56150000D02*
X136525000Y-56150000D01*
X136525000Y-54162500D02*
X136525000Y-56150000D01*
X136700000Y-51250000D02*
X139200000Y-51250000D01*
X139200000Y-54150000D01*
X136700000Y-54150000D01*
X136700000Y-51250000D01*
G36*
X136700000Y-51250000D02*
G01*
X139200000Y-51250000D01*
X139200000Y-54150000D01*
X136700000Y-54150000D01*
X136700000Y-51250000D01*
G37*
X140150000Y-54237500D02*
X140150000Y-56200000D01*
X140150000Y-56200000D02*
X140500000Y-56200000D01*
X143650000Y-56150000D02*
X144050000Y-56150000D01*
X144050000Y-54162500D02*
X144050000Y-56150000D01*
X145550000Y-54200000D02*
X145550000Y-55100000D01*
X146650000Y-55100000D02*
X145550000Y-55100000D01*
X149250000Y-55150000D02*
X150550000Y-55150000D01*
X150550000Y-54250000D02*
X150550000Y-55150000D01*
X152050000Y-51250000D02*
X154550000Y-51250000D01*
X154550000Y-54150000D01*
X152050000Y-54150000D01*
X152050000Y-51250000D01*
G36*
X152050000Y-51250000D02*
G01*
X154550000Y-51250000D01*
X154550000Y-54150000D01*
X152050000Y-54150000D01*
X152050000Y-51250000D01*
G37*
X154300000Y-79400000D02*
X154330000Y-79400000D01*
X154930000Y-79400000D02*
X154960000Y-79400000D01*
X155560000Y-79400000D02*
X155590000Y-79400000D01*
X156190000Y-79400000D02*
X156220000Y-79400000D01*
X156820000Y-79400000D02*
X156850000Y-79400000D01*
X157450000Y-79400000D02*
X157480000Y-79400000D01*
X158080000Y-79400000D02*
X158110000Y-79400000D01*
X158710000Y-79400000D02*
X158740000Y-79400000D01*
X159340000Y-79400000D02*
X159370000Y-79400000D01*
X159700000Y-79400000D02*
X159700000Y-79430000D01*
X159700000Y-80030000D02*
X159700000Y-80060000D01*
X159700000Y-80660000D02*
X159700000Y-80690000D01*
X159700000Y-81290000D02*
X159700000Y-81320000D01*
X159700000Y-81920000D02*
X159700000Y-81950000D01*
X159700000Y-82550000D02*
X159700000Y-82580000D01*
X159700000Y-83180000D02*
X159700000Y-83210000D01*
X159700000Y-83810000D02*
X159700000Y-83840000D01*
X159700000Y-84440000D02*
X159700000Y-84470000D01*
X159700000Y-85070000D02*
X159700000Y-85100000D01*
X159700000Y-85700000D02*
X159700000Y-85730000D01*
X159700000Y-86330000D02*
X159700000Y-86360000D01*
X159700000Y-86960000D02*
X159700000Y-86990000D01*
X159700000Y-87590000D02*
X159700000Y-87620000D01*
X159700000Y-88220000D02*
X159700000Y-88250000D01*
X159700000Y-88850000D02*
X159700000Y-88880000D01*
X159700000Y-89480000D02*
X159700000Y-89510000D01*
X159700000Y-90110000D02*
X159700000Y-90140000D01*
X159700000Y-90740000D02*
X159700000Y-90770000D01*
X159700000Y-91370000D02*
X159700000Y-91400000D01*
X159700000Y-92000000D02*
X159700000Y-92030000D01*
X159700000Y-92500000D02*
X159670000Y-92500000D01*
X159070000Y-92500000D02*
X159040000Y-92500000D01*
X158440000Y-92500000D02*
X158410000Y-92500000D01*
X157810000Y-92500000D02*
X157780000Y-92500000D01*
X157180000Y-92500000D02*
X157150000Y-92500000D01*
X156550000Y-92500000D02*
X156520000Y-92500000D01*
X155920000Y-92500000D02*
X155890000Y-92500000D01*
X155290000Y-92500000D02*
X155260000Y-92500000D01*
X154660000Y-92500000D02*
X154630000Y-92500000D01*
X154300000Y-92500000D02*
X154300000Y-92470000D01*
X154300000Y-91870000D02*
X154300000Y-91840000D01*
X154300000Y-91240000D02*
X154300000Y-91210000D01*
X154300000Y-90610000D02*
X154300000Y-90580000D01*
X154300000Y-89980000D02*
X154300000Y-89950000D01*
X154300000Y-89350000D02*
X154300000Y-89320000D01*
X154300000Y-88720000D02*
X154300000Y-88690000D01*
X154300000Y-88090000D02*
X154300000Y-88060000D01*
X154300000Y-87460000D02*
X154300000Y-87430000D01*
X154300000Y-86830000D02*
X154300000Y-86800000D01*
X154300000Y-86200000D02*
X154300000Y-86170000D01*
X154300000Y-85570000D02*
X154300000Y-85540000D01*
X154300000Y-84940000D02*
X154300000Y-84910000D01*
X154300000Y-84310000D02*
X154300000Y-84280000D01*
X154300000Y-83680000D02*
X154300000Y-83650000D01*
X154300000Y-83050000D02*
X154300000Y-83020000D01*
X154300000Y-82420000D02*
X154300000Y-82390000D01*
X154300000Y-81790000D02*
X154300000Y-81760000D01*
X154300000Y-81160000D02*
X154300000Y-81130000D01*
X154300000Y-80530000D02*
X154300000Y-80500000D01*
X154300000Y-79900000D02*
X154300000Y-79870000D01*
D11*
X144816667Y-50595489D02*
X145083333Y-50595489D01*
X145197619Y-51119299D02*
X144816667Y-51119299D01*
X144816667Y-51119299D02*
X144816667Y-50119299D01*
X144816667Y-50119299D02*
X145197619Y-50119299D01*
X145540477Y-51119299D02*
X145540477Y-50119299D01*
X145540477Y-50119299D02*
X145997620Y-51119299D01*
X145997620Y-51119299D02*
X145997620Y-50119299D01*
X146340476Y-50833584D02*
X146721429Y-50833584D01*
X146264286Y-51119299D02*
X146530953Y-50119299D01*
X146530953Y-50119299D02*
X146797619Y-51119299D01*
G36*
X149283576Y-55860410D02*
G01*
X146692222Y-55860410D01*
X146692222Y-54669299D01*
X146803333Y-54669299D01*
X146803333Y-55669299D01*
X146804870Y-55684906D01*
X146816815Y-55713745D01*
X146838887Y-55735817D01*
X146867726Y-55747762D01*
X146898940Y-55747762D01*
X146927779Y-55735817D01*
X146949851Y-55713745D01*
X146961796Y-55684906D01*
X146963333Y-55669299D01*
X146963333Y-55112316D01*
X147075052Y-55411564D01*
X147081950Y-55425648D01*
X147083903Y-55427745D01*
X147085095Y-55430356D01*
X147094486Y-55439104D01*
X147103227Y-55448487D01*
X147105835Y-55449677D01*
X147107935Y-55451633D01*
X147119953Y-55456119D01*
X147131625Y-55461446D01*
X147134491Y-55461547D01*
X147137177Y-55462550D01*
X147149998Y-55462096D01*
X147162820Y-55462550D01*
X147165505Y-55461547D01*
X147168373Y-55461446D01*
X147180058Y-55456114D01*
X147192063Y-55451632D01*
X147194158Y-55449680D01*
X147196771Y-55448488D01*
X147205522Y-55439093D01*
X147214903Y-55430355D01*
X147216093Y-55427746D01*
X147218048Y-55425648D01*
X147224946Y-55411564D01*
X147336666Y-55112314D01*
X147336666Y-55669299D01*
X147338203Y-55684906D01*
X147350148Y-55713745D01*
X147372220Y-55735817D01*
X147401059Y-55747762D01*
X147432273Y-55747762D01*
X147461112Y-55735817D01*
X147483184Y-55713745D01*
X147495129Y-55684906D01*
X147496666Y-55669299D01*
X147496666Y-54669299D01*
X147717619Y-54669299D01*
X147717619Y-55478822D01*
X147718981Y-55492660D01*
X147718972Y-55493472D01*
X147719107Y-55493940D01*
X147719156Y-55494429D01*
X147719468Y-55495183D01*
X147723341Y-55508533D01*
X147761436Y-55603771D01*
X147764146Y-55608993D01*
X147764695Y-55610888D01*
X147766843Y-55614191D01*
X147768659Y-55617691D01*
X147770036Y-55619102D01*
X147773244Y-55624035D01*
X147811339Y-55671655D01*
X147817804Y-55678284D01*
X147818989Y-55679945D01*
X147820744Y-55681298D01*
X147822289Y-55682882D01*
X147824073Y-55683864D01*
X147831409Y-55689520D01*
X147907600Y-55737139D01*
X147921650Y-55744107D01*
X147928228Y-55745208D01*
X147934393Y-55747762D01*
X147950000Y-55749299D01*
X148102381Y-55749299D01*
X148117988Y-55747762D01*
X148124152Y-55745208D01*
X148130732Y-55744107D01*
X148144781Y-55737139D01*
X148220971Y-55689520D01*
X148228306Y-55683864D01*
X148230091Y-55682882D01*
X148231635Y-55681298D01*
X148233391Y-55679945D01*
X148234575Y-55678283D01*
X148241041Y-55671655D01*
X148279136Y-55624035D01*
X148282343Y-55619102D01*
X148283720Y-55617692D01*
X148285534Y-55614195D01*
X148287686Y-55610887D01*
X148288235Y-55608991D01*
X148290944Y-55603772D01*
X148329040Y-55508534D01*
X148332912Y-55495183D01*
X148333225Y-55494429D01*
X148333273Y-55493940D01*
X148333409Y-55493472D01*
X148333399Y-55492660D01*
X148334762Y-55478822D01*
X148334762Y-54669299D01*
X148333983Y-54661385D01*
X148479915Y-54661385D01*
X148482946Y-54692452D01*
X148488935Y-54706946D01*
X148735523Y-55169299D01*
X148488935Y-55631652D01*
X148482946Y-55646146D01*
X148479915Y-55677213D01*
X148489003Y-55707076D01*
X148508828Y-55731187D01*
X148536370Y-55745876D01*
X148567437Y-55748907D01*
X148597300Y-55739819D01*
X148621411Y-55719994D01*
X148630111Y-55706946D01*
X148826190Y-55339298D01*
X149022269Y-55706946D01*
X149030970Y-55719994D01*
X149055081Y-55739819D01*
X149084943Y-55748907D01*
X149116010Y-55745876D01*
X149143552Y-55731187D01*
X149163377Y-55707076D01*
X149172465Y-55677214D01*
X149169434Y-55646146D01*
X149163445Y-55631652D01*
X148916856Y-55169299D01*
X149163445Y-54706946D01*
X149169434Y-54692452D01*
X149172465Y-54661384D01*
X149163377Y-54631522D01*
X149143552Y-54607411D01*
X149116010Y-54592722D01*
X149084943Y-54589691D01*
X149055081Y-54598779D01*
X149030970Y-54618604D01*
X149022269Y-54631652D01*
X148826190Y-54999299D01*
X148630111Y-54631652D01*
X148621411Y-54618604D01*
X148597300Y-54598779D01*
X148567437Y-54589691D01*
X148536370Y-54592722D01*
X148508828Y-54607411D01*
X148489003Y-54631522D01*
X148479915Y-54661385D01*
X148333983Y-54661385D01*
X148333225Y-54653692D01*
X148321280Y-54624853D01*
X148299208Y-54602781D01*
X148270369Y-54590836D01*
X148239155Y-54590836D01*
X148210316Y-54602781D01*
X148188244Y-54624853D01*
X148176299Y-54653692D01*
X148174762Y-54669299D01*
X148174762Y-55463414D01*
X148146790Y-55533342D01*
X148124614Y-55561062D01*
X148079437Y-55589299D01*
X147972944Y-55589299D01*
X147927765Y-55561062D01*
X147905589Y-55533341D01*
X147877619Y-55463416D01*
X147877619Y-54669299D01*
X147876082Y-54653692D01*
X147864137Y-54624853D01*
X147842065Y-54602781D01*
X147813226Y-54590836D01*
X147782012Y-54590836D01*
X147753173Y-54602781D01*
X147731101Y-54624853D01*
X147719156Y-54653692D01*
X147717619Y-54669299D01*
X147496666Y-54669299D01*
X147495129Y-54653692D01*
X147494578Y-54652363D01*
X147494528Y-54650925D01*
X147488620Y-54637978D01*
X147483184Y-54624853D01*
X147482167Y-54623836D01*
X147481570Y-54622527D01*
X147471165Y-54612834D01*
X147461112Y-54602781D01*
X147459782Y-54602230D01*
X147458730Y-54601250D01*
X147445407Y-54596276D01*
X147432273Y-54590836D01*
X147430835Y-54590836D01*
X147429488Y-54590333D01*
X147415275Y-54590836D01*
X147401059Y-54590836D01*
X147399730Y-54591386D01*
X147398292Y-54591437D01*
X147385345Y-54597344D01*
X147372220Y-54602781D01*
X147371203Y-54603797D01*
X147369894Y-54604395D01*
X147360201Y-54614799D01*
X147350148Y-54624853D01*
X147349597Y-54626182D01*
X147348617Y-54627235D01*
X147341719Y-54641318D01*
X147149999Y-55154852D01*
X146958280Y-54641319D01*
X146951382Y-54627235D01*
X146950401Y-54626182D01*
X146949851Y-54624853D01*
X146939797Y-54614799D01*
X146930105Y-54604395D01*
X146928795Y-54603797D01*
X146927779Y-54602781D01*
X146914653Y-54597344D01*
X146901707Y-54591437D01*
X146900268Y-54591386D01*
X146898940Y-54590836D01*
X146884725Y-54590836D01*
X146870512Y-54590333D01*
X146869165Y-54590836D01*
X146867726Y-54590836D01*
X146854586Y-54596278D01*
X146841269Y-54601250D01*
X146840216Y-54602230D01*
X146838887Y-54602781D01*
X146828833Y-54612834D01*
X146818429Y-54622527D01*
X146817831Y-54623836D01*
X146816815Y-54624853D01*
X146811378Y-54637978D01*
X146805471Y-54650925D01*
X146805420Y-54652363D01*
X146804870Y-54653692D01*
X146803333Y-54669299D01*
X146692222Y-54669299D01*
X146692222Y-54478580D01*
X149283576Y-54478580D01*
X149283576Y-55860410D01*
G37*
X147911905Y-51119299D02*
X147645238Y-50643108D01*
X147454762Y-51119299D02*
X147454762Y-50119299D01*
X147454762Y-50119299D02*
X147759524Y-50119299D01*
X147759524Y-50119299D02*
X147835714Y-50166918D01*
X147835714Y-50166918D02*
X147873809Y-50214537D01*
X147873809Y-50214537D02*
X147911905Y-50309775D01*
X147911905Y-50309775D02*
X147911905Y-50452632D01*
X147911905Y-50452632D02*
X147873809Y-50547870D01*
X147873809Y-50547870D02*
X147835714Y-50595489D01*
X147835714Y-50595489D02*
X147759524Y-50643108D01*
X147759524Y-50643108D02*
X147454762Y-50643108D01*
X148216666Y-51071680D02*
X148330952Y-51119299D01*
X148330952Y-51119299D02*
X148521428Y-51119299D01*
X148521428Y-51119299D02*
X148597619Y-51071680D01*
X148597619Y-51071680D02*
X148635714Y-51024060D01*
X148635714Y-51024060D02*
X148673809Y-50928822D01*
X148673809Y-50928822D02*
X148673809Y-50833584D01*
X148673809Y-50833584D02*
X148635714Y-50738346D01*
X148635714Y-50738346D02*
X148597619Y-50690727D01*
X148597619Y-50690727D02*
X148521428Y-50643108D01*
X148521428Y-50643108D02*
X148369047Y-50595489D01*
X148369047Y-50595489D02*
X148292857Y-50547870D01*
X148292857Y-50547870D02*
X148254762Y-50500251D01*
X148254762Y-50500251D02*
X148216666Y-50405013D01*
X148216666Y-50405013D02*
X148216666Y-50309775D01*
X148216666Y-50309775D02*
X148254762Y-50214537D01*
X148254762Y-50214537D02*
X148292857Y-50166918D01*
X148292857Y-50166918D02*
X148369047Y-50119299D01*
X148369047Y-50119299D02*
X148559524Y-50119299D01*
X148559524Y-50119299D02*
X148673809Y-50166918D01*
X148902381Y-50119299D02*
X149359524Y-50119299D01*
X149130952Y-51119299D02*
X149130952Y-50119299D01*
X150030953Y-51119299D02*
X150030953Y-50119299D01*
X150411905Y-51119299D02*
X150411905Y-50119299D01*
X150411905Y-50119299D02*
X150869048Y-51119299D01*
X150869048Y-51119299D02*
X150869048Y-50119299D01*
X151707143Y-51024060D02*
X151669047Y-51071680D01*
X151669047Y-51071680D02*
X151554762Y-51119299D01*
X151554762Y-51119299D02*
X151478571Y-51119299D01*
X151478571Y-51119299D02*
X151364285Y-51071680D01*
X151364285Y-51071680D02*
X151288095Y-50976441D01*
X151288095Y-50976441D02*
X151250000Y-50881203D01*
X151250000Y-50881203D02*
X151211904Y-50690727D01*
X151211904Y-50690727D02*
X151211904Y-50547870D01*
X151211904Y-50547870D02*
X151250000Y-50357394D01*
X151250000Y-50357394D02*
X151288095Y-50262156D01*
X151288095Y-50262156D02*
X151364285Y-50166918D01*
X151364285Y-50166918D02*
X151478571Y-50119299D01*
X151478571Y-50119299D02*
X151554762Y-50119299D01*
X151554762Y-50119299D02*
X151669047Y-50166918D01*
X151669047Y-50166918D02*
X151707143Y-50214537D01*
X152790476Y-54366918D02*
X152714286Y-54319299D01*
X152714286Y-54319299D02*
X152600000Y-54319299D01*
X152600000Y-54319299D02*
X152485714Y-54366918D01*
X152485714Y-54366918D02*
X152409524Y-54462156D01*
X152409524Y-54462156D02*
X152371429Y-54557394D01*
X152371429Y-54557394D02*
X152333333Y-54747870D01*
X152333333Y-54747870D02*
X152333333Y-54890727D01*
X152333333Y-54890727D02*
X152371429Y-55081203D01*
X152371429Y-55081203D02*
X152409524Y-55176441D01*
X152409524Y-55176441D02*
X152485714Y-55271680D01*
X152485714Y-55271680D02*
X152600000Y-55319299D01*
X152600000Y-55319299D02*
X152676191Y-55319299D01*
X152676191Y-55319299D02*
X152790476Y-55271680D01*
X152790476Y-55271680D02*
X152828572Y-55224060D01*
X152828572Y-55224060D02*
X152828572Y-54890727D01*
X152828572Y-54890727D02*
X152676191Y-54890727D01*
X153171429Y-55319299D02*
X153171429Y-54319299D01*
X153171429Y-54319299D02*
X153628572Y-55319299D01*
X153628572Y-55319299D02*
X153628572Y-54319299D01*
X154009524Y-55319299D02*
X154009524Y-54319299D01*
X154009524Y-54319299D02*
X154200000Y-54319299D01*
X154200000Y-54319299D02*
X154314286Y-54366918D01*
X154314286Y-54366918D02*
X154390476Y-54462156D01*
X154390476Y-54462156D02*
X154428571Y-54557394D01*
X154428571Y-54557394D02*
X154466667Y-54747870D01*
X154466667Y-54747870D02*
X154466667Y-54890727D01*
X154466667Y-54890727D02*
X154428571Y-55081203D01*
X154428571Y-55081203D02*
X154390476Y-55176441D01*
X154390476Y-55176441D02*
X154314286Y-55271680D01*
X154314286Y-55271680D02*
X154200000Y-55319299D01*
X154200000Y-55319299D02*
X154009524Y-55319299D01*
D12*
X114056390Y-78882577D02*
X114056390Y-78282577D01*
X114056390Y-78454005D02*
X114099247Y-78368291D01*
X114099247Y-78368291D02*
X114142105Y-78325434D01*
X114142105Y-78325434D02*
X114227819Y-78282577D01*
X114227819Y-78282577D02*
X114313533Y-78282577D01*
X114570676Y-78839720D02*
X114656390Y-78882577D01*
X114656390Y-78882577D02*
X114827819Y-78882577D01*
X114827819Y-78882577D02*
X114913533Y-78839720D01*
X114913533Y-78839720D02*
X114956390Y-78754005D01*
X114956390Y-78754005D02*
X114956390Y-78711148D01*
X114956390Y-78711148D02*
X114913533Y-78625434D01*
X114913533Y-78625434D02*
X114827819Y-78582577D01*
X114827819Y-78582577D02*
X114699248Y-78582577D01*
X114699248Y-78582577D02*
X114613533Y-78539720D01*
X114613533Y-78539720D02*
X114570676Y-78454005D01*
X114570676Y-78454005D02*
X114570676Y-78411148D01*
X114570676Y-78411148D02*
X114613533Y-78325434D01*
X114613533Y-78325434D02*
X114699248Y-78282577D01*
X114699248Y-78282577D02*
X114827819Y-78282577D01*
X114827819Y-78282577D02*
X114913533Y-78325434D01*
X115213533Y-78282577D02*
X115556390Y-78282577D01*
X115342104Y-77982577D02*
X115342104Y-78754005D01*
X115342104Y-78754005D02*
X115384961Y-78839720D01*
X115384961Y-78839720D02*
X115470676Y-78882577D01*
X115470676Y-78882577D02*
X115556390Y-78882577D01*
X113932105Y-77732720D02*
X115552105Y-77732720D01*
X116192105Y-81439720D02*
X116106390Y-81482577D01*
X116106390Y-81482577D02*
X115934962Y-81482577D01*
X115934962Y-81482577D02*
X115849247Y-81439720D01*
X115849247Y-81439720D02*
X115806390Y-81396862D01*
X115806390Y-81396862D02*
X115763533Y-81311148D01*
X115763533Y-81311148D02*
X115763533Y-81054005D01*
X115763533Y-81054005D02*
X115806390Y-80968291D01*
X115806390Y-80968291D02*
X115849247Y-80925434D01*
X115849247Y-80925434D02*
X115934962Y-80882577D01*
X115934962Y-80882577D02*
X116106390Y-80882577D01*
X116106390Y-80882577D02*
X116192105Y-80925434D01*
X116706391Y-81482577D02*
X116620676Y-81439720D01*
X116620676Y-81439720D02*
X116577819Y-81354005D01*
X116577819Y-81354005D02*
X116577819Y-80582577D01*
X117049248Y-81482577D02*
X117049248Y-80582577D01*
X117134963Y-81139720D02*
X117392105Y-81482577D01*
X117392105Y-80882577D02*
X117049248Y-81225434D01*
D11*
X124664286Y-50019299D02*
X124964286Y-51019299D01*
X124964286Y-51019299D02*
X125264286Y-50019299D01*
X125564286Y-51019299D02*
X125564286Y-50019299D01*
X125564286Y-50019299D02*
X125778572Y-50019299D01*
X125778572Y-50019299D02*
X125907143Y-50066918D01*
X125907143Y-50066918D02*
X125992858Y-50162156D01*
X125992858Y-50162156D02*
X126035715Y-50257394D01*
X126035715Y-50257394D02*
X126078572Y-50447870D01*
X126078572Y-50447870D02*
X126078572Y-50590727D01*
X126078572Y-50590727D02*
X126035715Y-50781203D01*
X126035715Y-50781203D02*
X125992858Y-50876441D01*
X125992858Y-50876441D02*
X125907143Y-50971680D01*
X125907143Y-50971680D02*
X125778572Y-51019299D01*
X125778572Y-51019299D02*
X125564286Y-51019299D01*
X126464286Y-51019299D02*
X126464286Y-50019299D01*
X126464286Y-50019299D02*
X126678572Y-50019299D01*
X126678572Y-50019299D02*
X126807143Y-50066918D01*
X126807143Y-50066918D02*
X126892858Y-50162156D01*
X126892858Y-50162156D02*
X126935715Y-50257394D01*
X126935715Y-50257394D02*
X126978572Y-50447870D01*
X126978572Y-50447870D02*
X126978572Y-50590727D01*
X126978572Y-50590727D02*
X126935715Y-50781203D01*
X126935715Y-50781203D02*
X126892858Y-50876441D01*
X126892858Y-50876441D02*
X126807143Y-50971680D01*
X126807143Y-50971680D02*
X126678572Y-51019299D01*
X126678572Y-51019299D02*
X126464286Y-51019299D01*
X127364286Y-51019299D02*
X127364286Y-50019299D01*
X127964286Y-50019299D02*
X128135714Y-50019299D01*
X128135714Y-50019299D02*
X128221429Y-50066918D01*
X128221429Y-50066918D02*
X128307143Y-50162156D01*
X128307143Y-50162156D02*
X128350000Y-50352632D01*
X128350000Y-50352632D02*
X128350000Y-50685965D01*
X128350000Y-50685965D02*
X128307143Y-50876441D01*
X128307143Y-50876441D02*
X128221429Y-50971680D01*
X128221429Y-50971680D02*
X128135714Y-51019299D01*
X128135714Y-51019299D02*
X127964286Y-51019299D01*
X127964286Y-51019299D02*
X127878572Y-50971680D01*
X127878572Y-50971680D02*
X127792857Y-50876441D01*
X127792857Y-50876441D02*
X127750000Y-50685965D01*
X127750000Y-50685965D02*
X127750000Y-50352632D01*
X127750000Y-50352632D02*
X127792857Y-50162156D01*
X127792857Y-50162156D02*
X127878572Y-50066918D01*
X127878572Y-50066918D02*
X127964286Y-50019299D01*
X132071428Y-50019299D02*
X132371428Y-51019299D01*
X132371428Y-51019299D02*
X132671428Y-50019299D01*
X133485714Y-50924060D02*
X133442857Y-50971680D01*
X133442857Y-50971680D02*
X133314285Y-51019299D01*
X133314285Y-51019299D02*
X133228571Y-51019299D01*
X133228571Y-51019299D02*
X133100000Y-50971680D01*
X133100000Y-50971680D02*
X133014285Y-50876441D01*
X133014285Y-50876441D02*
X132971428Y-50781203D01*
X132971428Y-50781203D02*
X132928571Y-50590727D01*
X132928571Y-50590727D02*
X132928571Y-50447870D01*
X132928571Y-50447870D02*
X132971428Y-50257394D01*
X132971428Y-50257394D02*
X133014285Y-50162156D01*
X133014285Y-50162156D02*
X133100000Y-50066918D01*
X133100000Y-50066918D02*
X133228571Y-50019299D01*
X133228571Y-50019299D02*
X133314285Y-50019299D01*
X133314285Y-50019299D02*
X133442857Y-50066918D01*
X133442857Y-50066918D02*
X133485714Y-50114537D01*
X134042857Y-50019299D02*
X134214285Y-50019299D01*
X134214285Y-50019299D02*
X134300000Y-50066918D01*
X134300000Y-50066918D02*
X134385714Y-50162156D01*
X134385714Y-50162156D02*
X134428571Y-50352632D01*
X134428571Y-50352632D02*
X134428571Y-50685965D01*
X134428571Y-50685965D02*
X134385714Y-50876441D01*
X134385714Y-50876441D02*
X134300000Y-50971680D01*
X134300000Y-50971680D02*
X134214285Y-51019299D01*
X134214285Y-51019299D02*
X134042857Y-51019299D01*
X134042857Y-51019299D02*
X133957143Y-50971680D01*
X133957143Y-50971680D02*
X133871428Y-50876441D01*
X133871428Y-50876441D02*
X133828571Y-50685965D01*
X133828571Y-50685965D02*
X133828571Y-50352632D01*
X133828571Y-50352632D02*
X133871428Y-50162156D01*
X133871428Y-50162156D02*
X133957143Y-50066918D01*
X133957143Y-50066918D02*
X134042857Y-50019299D01*
X135328571Y-51019299D02*
X135028571Y-50543108D01*
X134814285Y-51019299D02*
X134814285Y-50019299D01*
X134814285Y-50019299D02*
X135157142Y-50019299D01*
X135157142Y-50019299D02*
X135242857Y-50066918D01*
X135242857Y-50066918D02*
X135285714Y-50114537D01*
X135285714Y-50114537D02*
X135328571Y-50209775D01*
X135328571Y-50209775D02*
X135328571Y-50352632D01*
X135328571Y-50352632D02*
X135285714Y-50447870D01*
X135285714Y-50447870D02*
X135242857Y-50495489D01*
X135242857Y-50495489D02*
X135157142Y-50543108D01*
X135157142Y-50543108D02*
X134814285Y-50543108D01*
X135714285Y-50495489D02*
X136014285Y-50495489D01*
X136142857Y-51019299D02*
X135714285Y-51019299D01*
X135714285Y-51019299D02*
X135714285Y-50019299D01*
X135714285Y-50019299D02*
X136142857Y-50019299D01*
X140678571Y-50019299D02*
X140978571Y-51019299D01*
X140978571Y-51019299D02*
X141278571Y-50019299D01*
X141535714Y-50733584D02*
X141964286Y-50733584D01*
X141450000Y-51019299D02*
X141750000Y-50019299D01*
X141750000Y-50019299D02*
X142050000Y-51019299D01*
X142307143Y-50733584D02*
X142735715Y-50733584D01*
X142221429Y-51019299D02*
X142521429Y-50019299D01*
X142521429Y-50019299D02*
X142821429Y-51019299D01*
D12*
X136971429Y-60682577D02*
X137209524Y-61282577D01*
X137209524Y-61282577D02*
X137447619Y-60682577D01*
X138352381Y-61282577D02*
X137780953Y-61282577D01*
X138066667Y-61282577D02*
X138066667Y-60382577D01*
X138066667Y-60382577D02*
X137971429Y-60511148D01*
X137971429Y-60511148D02*
X137876191Y-60596862D01*
X137876191Y-60596862D02*
X137780953Y-60639720D01*
X138780953Y-61196862D02*
X138828572Y-61239720D01*
X138828572Y-61239720D02*
X138780953Y-61282577D01*
X138780953Y-61282577D02*
X138733334Y-61239720D01*
X138733334Y-61239720D02*
X138780953Y-61196862D01*
X138780953Y-61196862D02*
X138780953Y-61282577D01*
X139209524Y-60468291D02*
X139257143Y-60425434D01*
X139257143Y-60425434D02*
X139352381Y-60382577D01*
X139352381Y-60382577D02*
X139590476Y-60382577D01*
X139590476Y-60382577D02*
X139685714Y-60425434D01*
X139685714Y-60425434D02*
X139733333Y-60468291D01*
X139733333Y-60468291D02*
X139780952Y-60554005D01*
X139780952Y-60554005D02*
X139780952Y-60639720D01*
X139780952Y-60639720D02*
X139733333Y-60768291D01*
X139733333Y-60768291D02*
X139161905Y-61282577D01*
X139161905Y-61282577D02*
X139780952Y-61282577D01*
D10*
X123608207Y-65364636D02*
X123560588Y-65412256D01*
X123560588Y-65412256D02*
X123417731Y-65459875D01*
X123417731Y-65459875D02*
X123322493Y-65459875D01*
X123322493Y-65459875D02*
X123179636Y-65412256D01*
X123179636Y-65412256D02*
X123084398Y-65317017D01*
X123084398Y-65317017D02*
X123036779Y-65221779D01*
X123036779Y-65221779D02*
X122989160Y-65031303D01*
X122989160Y-65031303D02*
X122989160Y-64888446D01*
X122989160Y-64888446D02*
X123036779Y-64697970D01*
X123036779Y-64697970D02*
X123084398Y-64602732D01*
X123084398Y-64602732D02*
X123179636Y-64507494D01*
X123179636Y-64507494D02*
X123322493Y-64459875D01*
X123322493Y-64459875D02*
X123417731Y-64459875D01*
X123417731Y-64459875D02*
X123560588Y-64507494D01*
X123560588Y-64507494D02*
X123608207Y-64555113D01*
X124179636Y-65459875D02*
X124084398Y-65412256D01*
X124084398Y-65412256D02*
X124036779Y-65364636D01*
X124036779Y-65364636D02*
X123989160Y-65269398D01*
X123989160Y-65269398D02*
X123989160Y-64983684D01*
X123989160Y-64983684D02*
X124036779Y-64888446D01*
X124036779Y-64888446D02*
X124084398Y-64840827D01*
X124084398Y-64840827D02*
X124179636Y-64793208D01*
X124179636Y-64793208D02*
X124322493Y-64793208D01*
X124322493Y-64793208D02*
X124417731Y-64840827D01*
X124417731Y-64840827D02*
X124465350Y-64888446D01*
X124465350Y-64888446D02*
X124512969Y-64983684D01*
X124512969Y-64983684D02*
X124512969Y-65269398D01*
X124512969Y-65269398D02*
X124465350Y-65364636D01*
X124465350Y-65364636D02*
X124417731Y-65412256D01*
X124417731Y-65412256D02*
X124322493Y-65459875D01*
X124322493Y-65459875D02*
X124179636Y-65459875D01*
X124941541Y-64793208D02*
X124941541Y-65793208D01*
X124941541Y-64840827D02*
X125036779Y-64793208D01*
X125036779Y-64793208D02*
X125227255Y-64793208D01*
X125227255Y-64793208D02*
X125322493Y-64840827D01*
X125322493Y-64840827D02*
X125370112Y-64888446D01*
X125370112Y-64888446D02*
X125417731Y-64983684D01*
X125417731Y-64983684D02*
X125417731Y-65269398D01*
X125417731Y-65269398D02*
X125370112Y-65364636D01*
X125370112Y-65364636D02*
X125322493Y-65412256D01*
X125322493Y-65412256D02*
X125227255Y-65459875D01*
X125227255Y-65459875D02*
X125036779Y-65459875D01*
X125036779Y-65459875D02*
X124941541Y-65412256D01*
X125751065Y-64793208D02*
X125989160Y-65459875D01*
X126227255Y-64793208D02*
X125989160Y-65459875D01*
X125989160Y-65459875D02*
X125893922Y-65697970D01*
X125893922Y-65697970D02*
X125846303Y-65745589D01*
X125846303Y-65745589D02*
X125751065Y-65793208D01*
X126608208Y-65459875D02*
X126608208Y-64793208D01*
X126608208Y-64983684D02*
X126655827Y-64888446D01*
X126655827Y-64888446D02*
X126703446Y-64840827D01*
X126703446Y-64840827D02*
X126798684Y-64793208D01*
X126798684Y-64793208D02*
X126893922Y-64793208D01*
X127227256Y-65459875D02*
X127227256Y-64793208D01*
X127227256Y-64459875D02*
X127179637Y-64507494D01*
X127179637Y-64507494D02*
X127227256Y-64555113D01*
X127227256Y-64555113D02*
X127274875Y-64507494D01*
X127274875Y-64507494D02*
X127227256Y-64459875D01*
X127227256Y-64459875D02*
X127227256Y-64555113D01*
X128132017Y-64793208D02*
X128132017Y-65602732D01*
X128132017Y-65602732D02*
X128084398Y-65697970D01*
X128084398Y-65697970D02*
X128036779Y-65745589D01*
X128036779Y-65745589D02*
X127941541Y-65793208D01*
X127941541Y-65793208D02*
X127798684Y-65793208D01*
X127798684Y-65793208D02*
X127703446Y-65745589D01*
X128132017Y-65412256D02*
X128036779Y-65459875D01*
X128036779Y-65459875D02*
X127846303Y-65459875D01*
X127846303Y-65459875D02*
X127751065Y-65412256D01*
X127751065Y-65412256D02*
X127703446Y-65364636D01*
X127703446Y-65364636D02*
X127655827Y-65269398D01*
X127655827Y-65269398D02*
X127655827Y-64983684D01*
X127655827Y-64983684D02*
X127703446Y-64888446D01*
X127703446Y-64888446D02*
X127751065Y-64840827D01*
X127751065Y-64840827D02*
X127846303Y-64793208D01*
X127846303Y-64793208D02*
X128036779Y-64793208D01*
X128036779Y-64793208D02*
X128132017Y-64840827D01*
X128608208Y-65459875D02*
X128608208Y-64459875D01*
X129036779Y-65459875D02*
X129036779Y-64936065D01*
X129036779Y-64936065D02*
X128989160Y-64840827D01*
X128989160Y-64840827D02*
X128893922Y-64793208D01*
X128893922Y-64793208D02*
X128751065Y-64793208D01*
X128751065Y-64793208D02*
X128655827Y-64840827D01*
X128655827Y-64840827D02*
X128608208Y-64888446D01*
X129370113Y-64793208D02*
X129751065Y-64793208D01*
X129512970Y-64459875D02*
X129512970Y-65317017D01*
X129512970Y-65317017D02*
X129560589Y-65412256D01*
X129560589Y-65412256D02*
X129655827Y-65459875D01*
X129655827Y-65459875D02*
X129751065Y-65459875D01*
X131132018Y-65840827D02*
X131084399Y-65793208D01*
X131084399Y-65793208D02*
X130989161Y-65650351D01*
X130989161Y-65650351D02*
X130941542Y-65555113D01*
X130941542Y-65555113D02*
X130893923Y-65412256D01*
X130893923Y-65412256D02*
X130846304Y-65174160D01*
X130846304Y-65174160D02*
X130846304Y-64983684D01*
X130846304Y-64983684D02*
X130893923Y-64745589D01*
X130893923Y-64745589D02*
X130941542Y-64602732D01*
X130941542Y-64602732D02*
X130989161Y-64507494D01*
X130989161Y-64507494D02*
X131084399Y-64364636D01*
X131084399Y-64364636D02*
X131132018Y-64317017D01*
X132084399Y-65364636D02*
X132036780Y-65412256D01*
X132036780Y-65412256D02*
X131893923Y-65459875D01*
X131893923Y-65459875D02*
X131798685Y-65459875D01*
X131798685Y-65459875D02*
X131655828Y-65412256D01*
X131655828Y-65412256D02*
X131560590Y-65317017D01*
X131560590Y-65317017D02*
X131512971Y-65221779D01*
X131512971Y-65221779D02*
X131465352Y-65031303D01*
X131465352Y-65031303D02*
X131465352Y-64888446D01*
X131465352Y-64888446D02*
X131512971Y-64697970D01*
X131512971Y-64697970D02*
X131560590Y-64602732D01*
X131560590Y-64602732D02*
X131655828Y-64507494D01*
X131655828Y-64507494D02*
X131798685Y-64459875D01*
X131798685Y-64459875D02*
X131893923Y-64459875D01*
X131893923Y-64459875D02*
X132036780Y-64507494D01*
X132036780Y-64507494D02*
X132084399Y-64555113D01*
X132417733Y-65840827D02*
X132465352Y-65793208D01*
X132465352Y-65793208D02*
X132560590Y-65650351D01*
X132560590Y-65650351D02*
X132608209Y-65555113D01*
X132608209Y-65555113D02*
X132655828Y-65412256D01*
X132655828Y-65412256D02*
X132703447Y-65174160D01*
X132703447Y-65174160D02*
X132703447Y-64983684D01*
X132703447Y-64983684D02*
X132655828Y-64745589D01*
X132655828Y-64745589D02*
X132608209Y-64602732D01*
X132608209Y-64602732D02*
X132560590Y-64507494D01*
X132560590Y-64507494D02*
X132465352Y-64364636D01*
X132465352Y-64364636D02*
X132417733Y-64317017D01*
X133893924Y-64555113D02*
X133941543Y-64507494D01*
X133941543Y-64507494D02*
X134036781Y-64459875D01*
X134036781Y-64459875D02*
X134274876Y-64459875D01*
X134274876Y-64459875D02*
X134370114Y-64507494D01*
X134370114Y-64507494D02*
X134417733Y-64555113D01*
X134417733Y-64555113D02*
X134465352Y-64650351D01*
X134465352Y-64650351D02*
X134465352Y-64745589D01*
X134465352Y-64745589D02*
X134417733Y-64888446D01*
X134417733Y-64888446D02*
X133846305Y-65459875D01*
X133846305Y-65459875D02*
X134465352Y-65459875D01*
X135084400Y-64459875D02*
X135179638Y-64459875D01*
X135179638Y-64459875D02*
X135274876Y-64507494D01*
X135274876Y-64507494D02*
X135322495Y-64555113D01*
X135322495Y-64555113D02*
X135370114Y-64650351D01*
X135370114Y-64650351D02*
X135417733Y-64840827D01*
X135417733Y-64840827D02*
X135417733Y-65078922D01*
X135417733Y-65078922D02*
X135370114Y-65269398D01*
X135370114Y-65269398D02*
X135322495Y-65364636D01*
X135322495Y-65364636D02*
X135274876Y-65412256D01*
X135274876Y-65412256D02*
X135179638Y-65459875D01*
X135179638Y-65459875D02*
X135084400Y-65459875D01*
X135084400Y-65459875D02*
X134989162Y-65412256D01*
X134989162Y-65412256D02*
X134941543Y-65364636D01*
X134941543Y-65364636D02*
X134893924Y-65269398D01*
X134893924Y-65269398D02*
X134846305Y-65078922D01*
X134846305Y-65078922D02*
X134846305Y-64840827D01*
X134846305Y-64840827D02*
X134893924Y-64650351D01*
X134893924Y-64650351D02*
X134941543Y-64555113D01*
X134941543Y-64555113D02*
X134989162Y-64507494D01*
X134989162Y-64507494D02*
X135084400Y-64459875D01*
X135798686Y-64555113D02*
X135846305Y-64507494D01*
X135846305Y-64507494D02*
X135941543Y-64459875D01*
X135941543Y-64459875D02*
X136179638Y-64459875D01*
X136179638Y-64459875D02*
X136274876Y-64507494D01*
X136274876Y-64507494D02*
X136322495Y-64555113D01*
X136322495Y-64555113D02*
X136370114Y-64650351D01*
X136370114Y-64650351D02*
X136370114Y-64745589D01*
X136370114Y-64745589D02*
X136322495Y-64888446D01*
X136322495Y-64888446D02*
X135751067Y-65459875D01*
X135751067Y-65459875D02*
X136370114Y-65459875D01*
X137227257Y-64459875D02*
X137036781Y-64459875D01*
X137036781Y-64459875D02*
X136941543Y-64507494D01*
X136941543Y-64507494D02*
X136893924Y-64555113D01*
X136893924Y-64555113D02*
X136798686Y-64697970D01*
X136798686Y-64697970D02*
X136751067Y-64888446D01*
X136751067Y-64888446D02*
X136751067Y-65269398D01*
X136751067Y-65269398D02*
X136798686Y-65364636D01*
X136798686Y-65364636D02*
X136846305Y-65412256D01*
X136846305Y-65412256D02*
X136941543Y-65459875D01*
X136941543Y-65459875D02*
X137132019Y-65459875D01*
X137132019Y-65459875D02*
X137227257Y-65412256D01*
X137227257Y-65412256D02*
X137274876Y-65364636D01*
X137274876Y-65364636D02*
X137322495Y-65269398D01*
X137322495Y-65269398D02*
X137322495Y-65031303D01*
X137322495Y-65031303D02*
X137274876Y-64936065D01*
X137274876Y-64936065D02*
X137227257Y-64888446D01*
X137227257Y-64888446D02*
X137132019Y-64840827D01*
X137132019Y-64840827D02*
X136941543Y-64840827D01*
X136941543Y-64840827D02*
X136846305Y-64888446D01*
X136846305Y-64888446D02*
X136798686Y-64936065D01*
X136798686Y-64936065D02*
X136751067Y-65031303D01*
X122893922Y-66069819D02*
X123465350Y-66069819D01*
X123179636Y-67069819D02*
X123179636Y-66069819D01*
X123798684Y-67069819D02*
X123798684Y-66403152D01*
X123798684Y-66069819D02*
X123751065Y-66117438D01*
X123751065Y-66117438D02*
X123798684Y-66165057D01*
X123798684Y-66165057D02*
X123846303Y-66117438D01*
X123846303Y-66117438D02*
X123798684Y-66069819D01*
X123798684Y-66069819D02*
X123798684Y-66165057D01*
X124274874Y-66403152D02*
X124274874Y-67069819D01*
X124274874Y-66498390D02*
X124322493Y-66450771D01*
X124322493Y-66450771D02*
X124417731Y-66403152D01*
X124417731Y-66403152D02*
X124560588Y-66403152D01*
X124560588Y-66403152D02*
X124655826Y-66450771D01*
X124655826Y-66450771D02*
X124703445Y-66546009D01*
X124703445Y-66546009D02*
X124703445Y-67069819D01*
X125084398Y-66403152D02*
X125322493Y-67069819D01*
X125560588Y-66403152D02*
X125322493Y-67069819D01*
X125322493Y-67069819D02*
X125227255Y-67307914D01*
X125227255Y-67307914D02*
X125179636Y-67355533D01*
X125179636Y-67355533D02*
X125084398Y-67403152D01*
X126560589Y-66069819D02*
X127132017Y-66069819D01*
X126846303Y-67069819D02*
X126846303Y-66069819D01*
X127893922Y-67069819D02*
X127893922Y-66546009D01*
X127893922Y-66546009D02*
X127846303Y-66450771D01*
X127846303Y-66450771D02*
X127751065Y-66403152D01*
X127751065Y-66403152D02*
X127560589Y-66403152D01*
X127560589Y-66403152D02*
X127465351Y-66450771D01*
X127893922Y-67022200D02*
X127798684Y-67069819D01*
X127798684Y-67069819D02*
X127560589Y-67069819D01*
X127560589Y-67069819D02*
X127465351Y-67022200D01*
X127465351Y-67022200D02*
X127417732Y-66926961D01*
X127417732Y-66926961D02*
X127417732Y-66831723D01*
X127417732Y-66831723D02*
X127465351Y-66736485D01*
X127465351Y-66736485D02*
X127560589Y-66688866D01*
X127560589Y-66688866D02*
X127798684Y-66688866D01*
X127798684Y-66688866D02*
X127893922Y-66641247D01*
X128370113Y-66403152D02*
X128370113Y-67403152D01*
X128370113Y-66450771D02*
X128465351Y-66403152D01*
X128465351Y-66403152D02*
X128655827Y-66403152D01*
X128655827Y-66403152D02*
X128751065Y-66450771D01*
X128751065Y-66450771D02*
X128798684Y-66498390D01*
X128798684Y-66498390D02*
X128846303Y-66593628D01*
X128846303Y-66593628D02*
X128846303Y-66879342D01*
X128846303Y-66879342D02*
X128798684Y-66974580D01*
X128798684Y-66974580D02*
X128751065Y-67022200D01*
X128751065Y-67022200D02*
X128655827Y-67069819D01*
X128655827Y-67069819D02*
X128465351Y-67069819D01*
X128465351Y-67069819D02*
X128370113Y-67022200D01*
X129655827Y-67022200D02*
X129560589Y-67069819D01*
X129560589Y-67069819D02*
X129370113Y-67069819D01*
X129370113Y-67069819D02*
X129274875Y-67022200D01*
X129274875Y-67022200D02*
X129227256Y-66926961D01*
X129227256Y-66926961D02*
X129227256Y-66546009D01*
X129227256Y-66546009D02*
X129274875Y-66450771D01*
X129274875Y-66450771D02*
X129370113Y-66403152D01*
X129370113Y-66403152D02*
X129560589Y-66403152D01*
X129560589Y-66403152D02*
X129655827Y-66450771D01*
X129655827Y-66450771D02*
X129703446Y-66546009D01*
X129703446Y-66546009D02*
X129703446Y-66641247D01*
X129703446Y-66641247D02*
X129227256Y-66736485D01*
X130274875Y-67069819D02*
X130179637Y-67022200D01*
X130179637Y-67022200D02*
X130132018Y-66974580D01*
X130132018Y-66974580D02*
X130084399Y-66879342D01*
X130084399Y-66879342D02*
X130084399Y-66593628D01*
X130084399Y-66593628D02*
X130132018Y-66498390D01*
X130132018Y-66498390D02*
X130179637Y-66450771D01*
X130179637Y-66450771D02*
X130274875Y-66403152D01*
X130274875Y-66403152D02*
X130417732Y-66403152D01*
X130417732Y-66403152D02*
X130512970Y-66450771D01*
X130512970Y-66450771D02*
X130560589Y-66498390D01*
X130560589Y-66498390D02*
X130608208Y-66593628D01*
X130608208Y-66593628D02*
X130608208Y-66879342D01*
X130608208Y-66879342D02*
X130560589Y-66974580D01*
X130560589Y-66974580D02*
X130512970Y-67022200D01*
X130512970Y-67022200D02*
X130417732Y-67069819D01*
X130417732Y-67069819D02*
X130274875Y-67069819D01*
X131465351Y-66403152D02*
X131465351Y-67069819D01*
X131036780Y-66403152D02*
X131036780Y-66926961D01*
X131036780Y-66926961D02*
X131084399Y-67022200D01*
X131084399Y-67022200D02*
X131179637Y-67069819D01*
X131179637Y-67069819D02*
X131322494Y-67069819D01*
X131322494Y-67069819D02*
X131417732Y-67022200D01*
X131417732Y-67022200D02*
X131465351Y-66974580D01*
X131798685Y-66403152D02*
X132179637Y-66403152D01*
X131941542Y-66069819D02*
X131941542Y-66926961D01*
X131941542Y-66926961D02*
X131989161Y-67022200D01*
X131989161Y-67022200D02*
X132084399Y-67069819D01*
X132084399Y-67069819D02*
X132179637Y-67069819D01*
D13*
X148116976Y-74864878D02*
X148536024Y-74864878D01*
X148274119Y-74431544D02*
X148274119Y-75545830D01*
X148274119Y-75545830D02*
X148326500Y-75669640D01*
X148326500Y-75669640D02*
X148431262Y-75731544D01*
X148431262Y-75731544D02*
X148536024Y-75731544D01*
X148902690Y-75731544D02*
X148902690Y-74864878D01*
X148902690Y-74431544D02*
X148850309Y-74493449D01*
X148850309Y-74493449D02*
X148902690Y-74555354D01*
X148902690Y-74555354D02*
X148955071Y-74493449D01*
X148955071Y-74493449D02*
X148902690Y-74431544D01*
X148902690Y-74431544D02*
X148902690Y-74555354D01*
X149426500Y-74864878D02*
X149426500Y-75731544D01*
X149426500Y-74988687D02*
X149478881Y-74926782D01*
X149478881Y-74926782D02*
X149583643Y-74864878D01*
X149583643Y-74864878D02*
X149740786Y-74864878D01*
X149740786Y-74864878D02*
X149845548Y-74926782D01*
X149845548Y-74926782D02*
X149897929Y-75050592D01*
X149897929Y-75050592D02*
X149897929Y-75731544D01*
X150316976Y-74864878D02*
X150578881Y-75731544D01*
X150840786Y-74864878D02*
X150578881Y-75731544D01*
X150578881Y-75731544D02*
X150474119Y-76041068D01*
X150474119Y-76041068D02*
X150421738Y-76102973D01*
X150421738Y-76102973D02*
X150316976Y-76164878D01*
X151102690Y-74864878D02*
X151521738Y-74864878D01*
X151259833Y-74431544D02*
X151259833Y-75545830D01*
X151259833Y-75545830D02*
X151312214Y-75669640D01*
X151312214Y-75669640D02*
X151416976Y-75731544D01*
X151416976Y-75731544D02*
X151521738Y-75731544D01*
X152359833Y-75731544D02*
X152359833Y-75050592D01*
X152359833Y-75050592D02*
X152307452Y-74926782D01*
X152307452Y-74926782D02*
X152202690Y-74864878D01*
X152202690Y-74864878D02*
X151993166Y-74864878D01*
X151993166Y-74864878D02*
X151888404Y-74926782D01*
X152359833Y-75669640D02*
X152255071Y-75731544D01*
X152255071Y-75731544D02*
X151993166Y-75731544D01*
X151993166Y-75731544D02*
X151888404Y-75669640D01*
X151888404Y-75669640D02*
X151836023Y-75545830D01*
X151836023Y-75545830D02*
X151836023Y-75422020D01*
X151836023Y-75422020D02*
X151888404Y-75298211D01*
X151888404Y-75298211D02*
X151993166Y-75236306D01*
X151993166Y-75236306D02*
X152255071Y-75236306D01*
X152255071Y-75236306D02*
X152359833Y-75174401D01*
X152883642Y-74864878D02*
X152883642Y-76164878D01*
X152883642Y-74926782D02*
X152988404Y-74864878D01*
X152988404Y-74864878D02*
X153197928Y-74864878D01*
X153197928Y-74864878D02*
X153302690Y-74926782D01*
X153302690Y-74926782D02*
X153355071Y-74988687D01*
X153355071Y-74988687D02*
X153407452Y-75112497D01*
X153407452Y-75112497D02*
X153407452Y-75483925D01*
X153407452Y-75483925D02*
X153355071Y-75607735D01*
X153355071Y-75607735D02*
X153302690Y-75669640D01*
X153302690Y-75669640D02*
X153197928Y-75731544D01*
X153197928Y-75731544D02*
X152988404Y-75731544D01*
X152988404Y-75731544D02*
X152883642Y-75669640D01*
X154297928Y-75669640D02*
X154193166Y-75731544D01*
X154193166Y-75731544D02*
X153983642Y-75731544D01*
X153983642Y-75731544D02*
X153878880Y-75669640D01*
X153878880Y-75669640D02*
X153826499Y-75545830D01*
X153826499Y-75545830D02*
X153826499Y-75050592D01*
X153826499Y-75050592D02*
X153878880Y-74926782D01*
X153878880Y-74926782D02*
X153983642Y-74864878D01*
X153983642Y-74864878D02*
X154193166Y-74864878D01*
X154193166Y-74864878D02*
X154297928Y-74926782D01*
X154297928Y-74926782D02*
X154350309Y-75050592D01*
X154350309Y-75050592D02*
X154350309Y-75174401D01*
X154350309Y-75174401D02*
X153826499Y-75298211D01*
X154978880Y-75731544D02*
X154874118Y-75669640D01*
X154874118Y-75669640D02*
X154821737Y-75607735D01*
X154821737Y-75607735D02*
X154769356Y-75483925D01*
X154769356Y-75483925D02*
X154769356Y-75112497D01*
X154769356Y-75112497D02*
X154821737Y-74988687D01*
X154821737Y-74988687D02*
X154874118Y-74926782D01*
X154874118Y-74926782D02*
X154978880Y-74864878D01*
X154978880Y-74864878D02*
X155136023Y-74864878D01*
X155136023Y-74864878D02*
X155240785Y-74926782D01*
X155240785Y-74926782D02*
X155293166Y-74988687D01*
X155293166Y-74988687D02*
X155345547Y-75112497D01*
X155345547Y-75112497D02*
X155345547Y-75483925D01*
X155345547Y-75483925D02*
X155293166Y-75607735D01*
X155293166Y-75607735D02*
X155240785Y-75669640D01*
X155240785Y-75669640D02*
X155136023Y-75731544D01*
X155136023Y-75731544D02*
X154978880Y-75731544D01*
X156288404Y-74864878D02*
X156288404Y-75731544D01*
X155816975Y-74864878D02*
X155816975Y-75545830D01*
X155816975Y-75545830D02*
X155869356Y-75669640D01*
X155869356Y-75669640D02*
X155974118Y-75731544D01*
X155974118Y-75731544D02*
X156131261Y-75731544D01*
X156131261Y-75731544D02*
X156236023Y-75669640D01*
X156236023Y-75669640D02*
X156288404Y-75607735D01*
X156655070Y-74864878D02*
X157074118Y-74864878D01*
X156812213Y-74431544D02*
X156812213Y-75545830D01*
X156812213Y-75545830D02*
X156864594Y-75669640D01*
X156864594Y-75669640D02*
X156969356Y-75731544D01*
X156969356Y-75731544D02*
X157074118Y-75731544D01*
X157440784Y-75607735D02*
X157493165Y-75669640D01*
X157493165Y-75669640D02*
X157440784Y-75731544D01*
X157440784Y-75731544D02*
X157388403Y-75669640D01*
X157388403Y-75669640D02*
X157440784Y-75607735D01*
X157440784Y-75607735D02*
X157440784Y-75731544D01*
X158436023Y-75669640D02*
X158331261Y-75731544D01*
X158331261Y-75731544D02*
X158121737Y-75731544D01*
X158121737Y-75731544D02*
X158016975Y-75669640D01*
X158016975Y-75669640D02*
X157964594Y-75607735D01*
X157964594Y-75607735D02*
X157912213Y-75483925D01*
X157912213Y-75483925D02*
X157912213Y-75112497D01*
X157912213Y-75112497D02*
X157964594Y-74988687D01*
X157964594Y-74988687D02*
X158016975Y-74926782D01*
X158016975Y-74926782D02*
X158121737Y-74864878D01*
X158121737Y-74864878D02*
X158331261Y-74864878D01*
X158331261Y-74864878D02*
X158436023Y-74926782D01*
X159064594Y-75731544D02*
X158959832Y-75669640D01*
X158959832Y-75669640D02*
X158907451Y-75607735D01*
X158907451Y-75607735D02*
X158855070Y-75483925D01*
X158855070Y-75483925D02*
X158855070Y-75112497D01*
X158855070Y-75112497D02*
X158907451Y-74988687D01*
X158907451Y-74988687D02*
X158959832Y-74926782D01*
X158959832Y-74926782D02*
X159064594Y-74864878D01*
X159064594Y-74864878D02*
X159221737Y-74864878D01*
X159221737Y-74864878D02*
X159326499Y-74926782D01*
X159326499Y-74926782D02*
X159378880Y-74988687D01*
X159378880Y-74988687D02*
X159431261Y-75112497D01*
X159431261Y-75112497D02*
X159431261Y-75483925D01*
X159431261Y-75483925D02*
X159378880Y-75607735D01*
X159378880Y-75607735D02*
X159326499Y-75669640D01*
X159326499Y-75669640D02*
X159221737Y-75731544D01*
X159221737Y-75731544D02*
X159064594Y-75731544D01*
X159902689Y-75731544D02*
X159902689Y-74864878D01*
X159902689Y-74988687D02*
X159955070Y-74926782D01*
X159955070Y-74926782D02*
X160059832Y-74864878D01*
X160059832Y-74864878D02*
X160216975Y-74864878D01*
X160216975Y-74864878D02*
X160321737Y-74926782D01*
X160321737Y-74926782D02*
X160374118Y-75050592D01*
X160374118Y-75050592D02*
X160374118Y-75731544D01*
X160374118Y-75050592D02*
X160426499Y-74926782D01*
X160426499Y-74926782D02*
X160531261Y-74864878D01*
X160531261Y-74864878D02*
X160688404Y-74864878D01*
X160688404Y-74864878D02*
X160793165Y-74926782D01*
X160793165Y-74926782D02*
X160845546Y-75050592D01*
X160845546Y-75050592D02*
X160845546Y-75731544D01*
D10*
X122984398Y-63745342D02*
X122984398Y-62545342D01*
X122984398Y-63002485D02*
X123098684Y-62945342D01*
X123098684Y-62945342D02*
X123327255Y-62945342D01*
X123327255Y-62945342D02*
X123441541Y-63002485D01*
X123441541Y-63002485D02*
X123498684Y-63059628D01*
X123498684Y-63059628D02*
X123555826Y-63173914D01*
X123555826Y-63173914D02*
X123555826Y-63516771D01*
X123555826Y-63516771D02*
X123498684Y-63631057D01*
X123498684Y-63631057D02*
X123441541Y-63688200D01*
X123441541Y-63688200D02*
X123327255Y-63745342D01*
X123327255Y-63745342D02*
X123098684Y-63745342D01*
X123098684Y-63745342D02*
X122984398Y-63688200D01*
X123955826Y-62945342D02*
X124241540Y-63745342D01*
X124527255Y-62945342D02*
X124241540Y-63745342D01*
X124241540Y-63745342D02*
X124127255Y-64031057D01*
X124127255Y-64031057D02*
X124070112Y-64088200D01*
X124070112Y-64088200D02*
X123955826Y-64145342D01*
X125898684Y-63745342D02*
X125898684Y-62545342D01*
X125898684Y-62545342D02*
X126355827Y-62545342D01*
X126355827Y-62545342D02*
X126470112Y-62602485D01*
X126470112Y-62602485D02*
X126527255Y-62659628D01*
X126527255Y-62659628D02*
X126584398Y-62773914D01*
X126584398Y-62773914D02*
X126584398Y-62945342D01*
X126584398Y-62945342D02*
X126527255Y-63059628D01*
X126527255Y-63059628D02*
X126470112Y-63116771D01*
X126470112Y-63116771D02*
X126355827Y-63173914D01*
X126355827Y-63173914D02*
X125898684Y-63173914D01*
X127612970Y-63745342D02*
X127612970Y-63116771D01*
X127612970Y-63116771D02*
X127555827Y-63002485D01*
X127555827Y-63002485D02*
X127441541Y-62945342D01*
X127441541Y-62945342D02*
X127212970Y-62945342D01*
X127212970Y-62945342D02*
X127098684Y-63002485D01*
X127612970Y-63688200D02*
X127498684Y-63745342D01*
X127498684Y-63745342D02*
X127212970Y-63745342D01*
X127212970Y-63745342D02*
X127098684Y-63688200D01*
X127098684Y-63688200D02*
X127041541Y-63573914D01*
X127041541Y-63573914D02*
X127041541Y-63459628D01*
X127041541Y-63459628D02*
X127098684Y-63345342D01*
X127098684Y-63345342D02*
X127212970Y-63288200D01*
X127212970Y-63288200D02*
X127498684Y-63288200D01*
X127498684Y-63288200D02*
X127612970Y-63231057D01*
X128012969Y-62945342D02*
X128470112Y-62945342D01*
X128184398Y-62545342D02*
X128184398Y-63573914D01*
X128184398Y-63573914D02*
X128241541Y-63688200D01*
X128241541Y-63688200D02*
X128355826Y-63745342D01*
X128355826Y-63745342D02*
X128470112Y-63745342D01*
X129784398Y-63745342D02*
X129784398Y-62545342D01*
X129784398Y-62545342D02*
X130070112Y-62545342D01*
X130070112Y-62545342D02*
X130241541Y-62602485D01*
X130241541Y-62602485D02*
X130355826Y-62716771D01*
X130355826Y-62716771D02*
X130412969Y-62831057D01*
X130412969Y-62831057D02*
X130470112Y-63059628D01*
X130470112Y-63059628D02*
X130470112Y-63231057D01*
X130470112Y-63231057D02*
X130412969Y-63459628D01*
X130412969Y-63459628D02*
X130355826Y-63573914D01*
X130355826Y-63573914D02*
X130241541Y-63688200D01*
X130241541Y-63688200D02*
X130070112Y-63745342D01*
X130070112Y-63745342D02*
X129784398Y-63745342D01*
X131441541Y-63688200D02*
X131327255Y-63745342D01*
X131327255Y-63745342D02*
X131098684Y-63745342D01*
X131098684Y-63745342D02*
X130984398Y-63688200D01*
X130984398Y-63688200D02*
X130927255Y-63573914D01*
X130927255Y-63573914D02*
X130927255Y-63116771D01*
X130927255Y-63116771D02*
X130984398Y-63002485D01*
X130984398Y-63002485D02*
X131098684Y-62945342D01*
X131098684Y-62945342D02*
X131327255Y-62945342D01*
X131327255Y-62945342D02*
X131441541Y-63002485D01*
X131441541Y-63002485D02*
X131498684Y-63116771D01*
X131498684Y-63116771D02*
X131498684Y-63231057D01*
X131498684Y-63231057D02*
X130927255Y-63345342D01*
X132470112Y-63688200D02*
X132355826Y-63745342D01*
X132355826Y-63745342D02*
X132127255Y-63745342D01*
X132127255Y-63745342D02*
X132012969Y-63688200D01*
X132012969Y-63688200D02*
X131955826Y-63573914D01*
X131955826Y-63573914D02*
X131955826Y-63116771D01*
X131955826Y-63116771D02*
X132012969Y-63002485D01*
X132012969Y-63002485D02*
X132127255Y-62945342D01*
X132127255Y-62945342D02*
X132355826Y-62945342D01*
X132355826Y-62945342D02*
X132470112Y-63002485D01*
X132470112Y-63002485D02*
X132527255Y-63116771D01*
X132527255Y-63116771D02*
X132527255Y-63231057D01*
X132527255Y-63231057D02*
X131955826Y-63345342D01*
X133555826Y-62945342D02*
X133555826Y-63916771D01*
X133555826Y-63916771D02*
X133498683Y-64031057D01*
X133498683Y-64031057D02*
X133441540Y-64088200D01*
X133441540Y-64088200D02*
X133327254Y-64145342D01*
X133327254Y-64145342D02*
X133155826Y-64145342D01*
X133155826Y-64145342D02*
X133041540Y-64088200D01*
X133555826Y-63688200D02*
X133441540Y-63745342D01*
X133441540Y-63745342D02*
X133212968Y-63745342D01*
X133212968Y-63745342D02*
X133098683Y-63688200D01*
X133098683Y-63688200D02*
X133041540Y-63631057D01*
X133041540Y-63631057D02*
X132984397Y-63516771D01*
X132984397Y-63516771D02*
X132984397Y-63173914D01*
X132984397Y-63173914D02*
X133041540Y-63059628D01*
X133041540Y-63059628D02*
X133098683Y-63002485D01*
X133098683Y-63002485D02*
X133212968Y-62945342D01*
X133212968Y-62945342D02*
X133441540Y-62945342D01*
X133441540Y-62945342D02*
X133555826Y-63002485D01*
X134641540Y-63745342D02*
X134641540Y-63116771D01*
X134641540Y-63116771D02*
X134584397Y-63002485D01*
X134584397Y-63002485D02*
X134470111Y-62945342D01*
X134470111Y-62945342D02*
X134241540Y-62945342D01*
X134241540Y-62945342D02*
X134127254Y-63002485D01*
X134641540Y-63688200D02*
X134527254Y-63745342D01*
X134527254Y-63745342D02*
X134241540Y-63745342D01*
X134241540Y-63745342D02*
X134127254Y-63688200D01*
X134127254Y-63688200D02*
X134070111Y-63573914D01*
X134070111Y-63573914D02*
X134070111Y-63459628D01*
X134070111Y-63459628D02*
X134127254Y-63345342D01*
X134127254Y-63345342D02*
X134241540Y-63288200D01*
X134241540Y-63288200D02*
X134527254Y-63288200D01*
X134527254Y-63288200D02*
X134641540Y-63231057D01*
X135212968Y-62945342D02*
X135212968Y-63745342D01*
X135212968Y-63059628D02*
X135270111Y-63002485D01*
X135270111Y-63002485D02*
X135384396Y-62945342D01*
X135384396Y-62945342D02*
X135555825Y-62945342D01*
X135555825Y-62945342D02*
X135670111Y-63002485D01*
X135670111Y-63002485D02*
X135727254Y-63116771D01*
X135727254Y-63116771D02*
X135727254Y-63745342D01*
D14*
X124476816Y-51368266D02*
X124476816Y-51701600D01*
X124167292Y-51568266D02*
X124476816Y-51701600D01*
X124476816Y-51701600D02*
X124786339Y-51568266D01*
X124291101Y-51968266D02*
X124476816Y-51701600D01*
X124476816Y-51701600D02*
X124662530Y-51968266D01*
X132076816Y-51368266D02*
X132076816Y-51701600D01*
X131767292Y-51568266D02*
X132076816Y-51701600D01*
X132076816Y-51701600D02*
X132386339Y-51568266D01*
X131891101Y-51968266D02*
X132076816Y-51701600D01*
X132076816Y-51701600D02*
X132262530Y-51968266D01*
X139726816Y-51368266D02*
X139726816Y-51701600D01*
X139417292Y-51568266D02*
X139726816Y-51701600D01*
X139726816Y-51701600D02*
X140036339Y-51568266D01*
X139541101Y-51968266D02*
X139726816Y-51701600D01*
X139726816Y-51701600D02*
X139912530Y-51968266D01*
D15*
X122816853Y-60924523D02*
X123426377Y-60924523D01*
X123045425Y-61991190D02*
X123045425Y-60619761D01*
X123045425Y-60619761D02*
X123121615Y-60467380D01*
X123121615Y-60467380D02*
X123273996Y-60391190D01*
X123273996Y-60391190D02*
X123426377Y-60391190D01*
X124188282Y-61991190D02*
X124035901Y-61915000D01*
X124035901Y-61915000D02*
X123959711Y-61838809D01*
X123959711Y-61838809D02*
X123883520Y-61686428D01*
X123883520Y-61686428D02*
X123883520Y-61229285D01*
X123883520Y-61229285D02*
X123959711Y-61076904D01*
X123959711Y-61076904D02*
X124035901Y-61000714D01*
X124035901Y-61000714D02*
X124188282Y-60924523D01*
X124188282Y-60924523D02*
X124416854Y-60924523D01*
X124416854Y-60924523D02*
X124569235Y-61000714D01*
X124569235Y-61000714D02*
X124645425Y-61076904D01*
X124645425Y-61076904D02*
X124721616Y-61229285D01*
X124721616Y-61229285D02*
X124721616Y-61686428D01*
X124721616Y-61686428D02*
X124645425Y-61838809D01*
X124645425Y-61838809D02*
X124569235Y-61915000D01*
X124569235Y-61915000D02*
X124416854Y-61991190D01*
X124416854Y-61991190D02*
X124188282Y-61991190D01*
X125407330Y-61991190D02*
X125407330Y-60924523D01*
X125407330Y-61229285D02*
X125483520Y-61076904D01*
X125483520Y-61076904D02*
X125559711Y-61000714D01*
X125559711Y-61000714D02*
X125712092Y-60924523D01*
X125712092Y-60924523D02*
X125864473Y-60924523D01*
X127616854Y-61991190D02*
X127616854Y-60391190D01*
X128378759Y-61991190D02*
X128378759Y-60391190D01*
X128378759Y-61153095D02*
X129293045Y-61153095D01*
X129293045Y-61991190D02*
X129293045Y-60391190D01*
X130054949Y-61991190D02*
X130054949Y-60391190D01*
X130054949Y-60391190D02*
X130664473Y-60391190D01*
X130664473Y-60391190D02*
X130816854Y-60467380D01*
X130816854Y-60467380D02*
X130893044Y-60543571D01*
X130893044Y-60543571D02*
X130969235Y-60695952D01*
X130969235Y-60695952D02*
X130969235Y-60924523D01*
X130969235Y-60924523D02*
X130893044Y-61076904D01*
X130893044Y-61076904D02*
X130816854Y-61153095D01*
X130816854Y-61153095D02*
X130664473Y-61229285D01*
X130664473Y-61229285D02*
X130054949Y-61229285D01*
X124102568Y-60143571D02*
X123940663Y-60067380D01*
X123940663Y-60067380D02*
X123778758Y-59915000D01*
X123778758Y-59915000D02*
X123535901Y-59686428D01*
X123535901Y-59686428D02*
X123373996Y-59610238D01*
X123373996Y-59610238D02*
X123212092Y-59610238D01*
X123293044Y-59991190D02*
X123131139Y-59915000D01*
X123131139Y-59915000D02*
X122969234Y-59762619D01*
X122969234Y-59762619D02*
X122888282Y-59457857D01*
X122888282Y-59457857D02*
X122888282Y-58924523D01*
X122888282Y-58924523D02*
X122969234Y-58619761D01*
X122969234Y-58619761D02*
X123131139Y-58467380D01*
X123131139Y-58467380D02*
X123293044Y-58391190D01*
X123293044Y-58391190D02*
X123616853Y-58391190D01*
X123616853Y-58391190D02*
X123778758Y-58467380D01*
X123778758Y-58467380D02*
X123940663Y-58619761D01*
X123940663Y-58619761D02*
X124021615Y-58924523D01*
X124021615Y-58924523D02*
X124021615Y-59457857D01*
X124021615Y-59457857D02*
X123940663Y-59762619D01*
X123940663Y-59762619D02*
X123778758Y-59915000D01*
X123778758Y-59915000D02*
X123616853Y-59991190D01*
X123616853Y-59991190D02*
X123293044Y-59991190D01*
X125316853Y-59153095D02*
X124750186Y-59153095D01*
X124750186Y-59991190D02*
X124750186Y-58391190D01*
X124750186Y-58391190D02*
X125559710Y-58391190D01*
X126207329Y-59991190D02*
X126207329Y-58391190D01*
X126207329Y-58391190D02*
X127178758Y-59991190D01*
X127178758Y-59991190D02*
X127178758Y-58391190D01*
X129283519Y-59991190D02*
X129283519Y-58391190D01*
X129283519Y-59000714D02*
X129445424Y-58924523D01*
X129445424Y-58924523D02*
X129769234Y-58924523D01*
X129769234Y-58924523D02*
X129931138Y-59000714D01*
X129931138Y-59000714D02*
X130012091Y-59076904D01*
X130012091Y-59076904D02*
X130093043Y-59229285D01*
X130093043Y-59229285D02*
X130093043Y-59686428D01*
X130093043Y-59686428D02*
X130012091Y-59838809D01*
X130012091Y-59838809D02*
X129931138Y-59915000D01*
X129931138Y-59915000D02*
X129769234Y-59991190D01*
X129769234Y-59991190D02*
X129445424Y-59991190D01*
X129445424Y-59991190D02*
X129283519Y-59915000D01*
X130821614Y-59991190D02*
X130821614Y-58924523D01*
X130821614Y-59229285D02*
X130902567Y-59076904D01*
X130902567Y-59076904D02*
X130983519Y-59000714D01*
X130983519Y-59000714D02*
X131145424Y-58924523D01*
X131145424Y-58924523D02*
X131307329Y-58924523D01*
X132521614Y-59915000D02*
X132359710Y-59991190D01*
X132359710Y-59991190D02*
X132035900Y-59991190D01*
X132035900Y-59991190D02*
X131873995Y-59915000D01*
X131873995Y-59915000D02*
X131793043Y-59762619D01*
X131793043Y-59762619D02*
X131793043Y-59153095D01*
X131793043Y-59153095D02*
X131873995Y-59000714D01*
X131873995Y-59000714D02*
X132035900Y-58924523D01*
X132035900Y-58924523D02*
X132359710Y-58924523D01*
X132359710Y-58924523D02*
X132521614Y-59000714D01*
X132521614Y-59000714D02*
X132602567Y-59153095D01*
X132602567Y-59153095D02*
X132602567Y-59305476D01*
X132602567Y-59305476D02*
X131793043Y-59457857D01*
X134059710Y-59991190D02*
X134059710Y-59153095D01*
X134059710Y-59153095D02*
X133978757Y-59000714D01*
X133978757Y-59000714D02*
X133816853Y-58924523D01*
X133816853Y-58924523D02*
X133493043Y-58924523D01*
X133493043Y-58924523D02*
X133331138Y-59000714D01*
X134059710Y-59915000D02*
X133897805Y-59991190D01*
X133897805Y-59991190D02*
X133493043Y-59991190D01*
X133493043Y-59991190D02*
X133331138Y-59915000D01*
X133331138Y-59915000D02*
X133250186Y-59762619D01*
X133250186Y-59762619D02*
X133250186Y-59610238D01*
X133250186Y-59610238D02*
X133331138Y-59457857D01*
X133331138Y-59457857D02*
X133493043Y-59381666D01*
X133493043Y-59381666D02*
X133897805Y-59381666D01*
X133897805Y-59381666D02*
X134059710Y-59305476D01*
X134869233Y-59991190D02*
X134869233Y-58391190D01*
X135031138Y-59381666D02*
X135516852Y-59991190D01*
X135516852Y-58924523D02*
X134869233Y-59534047D01*
X136488281Y-59991190D02*
X136326376Y-59915000D01*
X136326376Y-59915000D02*
X136245423Y-59838809D01*
X136245423Y-59838809D02*
X136164471Y-59686428D01*
X136164471Y-59686428D02*
X136164471Y-59229285D01*
X136164471Y-59229285D02*
X136245423Y-59076904D01*
X136245423Y-59076904D02*
X136326376Y-59000714D01*
X136326376Y-59000714D02*
X136488281Y-58924523D01*
X136488281Y-58924523D02*
X136731138Y-58924523D01*
X136731138Y-58924523D02*
X136893042Y-59000714D01*
X136893042Y-59000714D02*
X136973995Y-59076904D01*
X136973995Y-59076904D02*
X137054947Y-59229285D01*
X137054947Y-59229285D02*
X137054947Y-59686428D01*
X137054947Y-59686428D02*
X136973995Y-59838809D01*
X136973995Y-59838809D02*
X136893042Y-59915000D01*
X136893042Y-59915000D02*
X136731138Y-59991190D01*
X136731138Y-59991190D02*
X136488281Y-59991190D01*
X138512090Y-58924523D02*
X138512090Y-59991190D01*
X137783518Y-58924523D02*
X137783518Y-59762619D01*
X137783518Y-59762619D02*
X137864471Y-59915000D01*
X137864471Y-59915000D02*
X138026376Y-59991190D01*
X138026376Y-59991190D02*
X138269233Y-59991190D01*
X138269233Y-59991190D02*
X138431137Y-59915000D01*
X138431137Y-59915000D02*
X138512090Y-59838809D01*
X139078756Y-58924523D02*
X139726375Y-58924523D01*
X139321613Y-58391190D02*
X139321613Y-59762619D01*
X139321613Y-59762619D02*
X139402566Y-59915000D01*
X139402566Y-59915000D02*
X139564471Y-59991190D01*
X139564471Y-59991190D02*
X139726375Y-59991190D01*
D16*
X117014661Y-88406857D02*
X118728947Y-88406857D01*
X117871804Y-91406857D02*
X117871804Y-88406857D01*
X119300375Y-88406857D02*
X121014661Y-88406857D01*
X120157518Y-91406857D02*
X120157518Y-88406857D01*
X122014660Y-91406857D02*
X122014660Y-88406857D01*
X123443231Y-91406857D02*
X123443231Y-88406857D01*
X123443231Y-89835428D02*
X125157517Y-89835428D01*
X125157517Y-91406857D02*
X125157517Y-88406857D01*
X126586088Y-91406857D02*
X126586088Y-88406857D01*
X126586088Y-88406857D02*
X127728945Y-88406857D01*
X127728945Y-88406857D02*
X128014660Y-88549714D01*
X128014660Y-88549714D02*
X128157517Y-88692571D01*
X128157517Y-88692571D02*
X128300374Y-88978285D01*
X128300374Y-88978285D02*
X128300374Y-89406857D01*
X128300374Y-89406857D02*
X128157517Y-89692571D01*
X128157517Y-89692571D02*
X128014660Y-89835428D01*
X128014660Y-89835428D02*
X127728945Y-89978285D01*
X127728945Y-89978285D02*
X126586088Y-89978285D01*
X129443231Y-88692571D02*
X129586088Y-88549714D01*
X129586088Y-88549714D02*
X129871803Y-88406857D01*
X129871803Y-88406857D02*
X130586088Y-88406857D01*
X130586088Y-88406857D02*
X130871803Y-88549714D01*
X130871803Y-88549714D02*
X131014660Y-88692571D01*
X131014660Y-88692571D02*
X131157517Y-88978285D01*
X131157517Y-88978285D02*
X131157517Y-89264000D01*
X131157517Y-89264000D02*
X131014660Y-89692571D01*
X131014660Y-89692571D02*
X129300374Y-91406857D01*
X129300374Y-91406857D02*
X131157517Y-91406857D01*
X133871803Y-88406857D02*
X132443231Y-88406857D01*
X132443231Y-88406857D02*
X132300374Y-89835428D01*
X132300374Y-89835428D02*
X132443231Y-89692571D01*
X132443231Y-89692571D02*
X132728946Y-89549714D01*
X132728946Y-89549714D02*
X133443231Y-89549714D01*
X133443231Y-89549714D02*
X133728946Y-89692571D01*
X133728946Y-89692571D02*
X133871803Y-89835428D01*
X133871803Y-89835428D02*
X134014660Y-90121142D01*
X134014660Y-90121142D02*
X134014660Y-90835428D01*
X134014660Y-90835428D02*
X133871803Y-91121142D01*
X133871803Y-91121142D02*
X133728946Y-91264000D01*
X133728946Y-91264000D02*
X133443231Y-91406857D01*
X133443231Y-91406857D02*
X132728946Y-91406857D01*
X132728946Y-91406857D02*
X132443231Y-91264000D01*
X132443231Y-91264000D02*
X132300374Y-91121142D01*
X135300374Y-91406857D02*
X135300374Y-88406857D01*
X135300374Y-89549714D02*
X135586089Y-89406857D01*
X135586089Y-89406857D02*
X136157517Y-89406857D01*
X136157517Y-89406857D02*
X136443231Y-89549714D01*
X136443231Y-89549714D02*
X136586089Y-89692571D01*
X136586089Y-89692571D02*
X136728946Y-89978285D01*
X136728946Y-89978285D02*
X136728946Y-90835428D01*
X136728946Y-90835428D02*
X136586089Y-91121142D01*
X136586089Y-91121142D02*
X136443231Y-91264000D01*
X136443231Y-91264000D02*
X136157517Y-91406857D01*
X136157517Y-91406857D02*
X135586089Y-91406857D01*
X135586089Y-91406857D02*
X135300374Y-91264000D01*
D17*
G36*
X130959509Y-71509649D02*
G01*
X131678104Y-71623813D01*
X131034873Y-71692536D01*
X130555271Y-71754972D01*
X130555271Y-71459865D01*
X130959509Y-71509649D01*
G37*
G36*
X132585176Y-78513430D02*
G01*
X129285059Y-78513430D01*
X129285059Y-77238529D01*
X129551726Y-77238529D01*
X129567309Y-77476958D01*
X129611451Y-77679338D01*
X129682005Y-77852189D01*
X129778526Y-78004945D01*
X129879308Y-78109544D01*
X129985648Y-78174040D01*
X130105068Y-78209807D01*
X130293160Y-78236256D01*
X130573296Y-78246763D01*
X130677197Y-78246763D01*
X130677197Y-77383975D01*
X130341168Y-77383975D01*
X130140750Y-77374118D01*
X130061412Y-77354300D01*
X130028914Y-77327829D01*
X130009196Y-77287526D01*
X130001914Y-77228271D01*
X130009275Y-77166145D01*
X130028927Y-77124999D01*
X130060826Y-77098944D01*
X130136497Y-77079647D01*
X130313324Y-77070368D01*
X131545480Y-77070368D01*
X131729711Y-77079680D01*
X131807651Y-77098944D01*
X131840332Y-77125407D01*
X131860643Y-77168318D01*
X131868321Y-77234316D01*
X131854680Y-77314782D01*
X131818495Y-77356315D01*
X131750367Y-77374642D01*
X131568341Y-77383975D01*
X131108628Y-77383975D01*
X131108628Y-78246763D01*
X131360393Y-78246763D01*
X131610460Y-78235898D01*
X131787190Y-78207935D01*
X131907302Y-78168911D01*
X132014660Y-78100944D01*
X132112029Y-77994674D01*
X132200686Y-77843030D01*
X132263761Y-77671717D01*
X132304060Y-77464613D01*
X132318509Y-77213982D01*
X132309502Y-77028704D01*
X132283648Y-76864000D01*
X132242159Y-76717009D01*
X132183457Y-76580278D01*
X132113817Y-76468599D01*
X132033038Y-76378855D01*
X131941184Y-76306944D01*
X131849474Y-76258779D01*
X131756799Y-76232309D01*
X131595235Y-76214972D01*
X131326248Y-76207763D01*
X130550581Y-76207763D01*
X130287835Y-76218762D01*
X130098175Y-76247326D01*
X129965864Y-76287630D01*
X129846949Y-76358401D01*
X129746275Y-76465314D01*
X129661635Y-76613511D01*
X129602974Y-76782860D01*
X129565283Y-76988631D01*
X129551726Y-77238529D01*
X129285059Y-77238529D01*
X129285059Y-75887561D01*
X129608000Y-75887561D01*
X132262235Y-75887561D01*
X132262235Y-75024773D01*
X129608000Y-75024773D01*
X129608000Y-75887561D01*
X129285059Y-75887561D01*
X129285059Y-73795621D01*
X129551726Y-73795621D01*
X129562495Y-74003552D01*
X129593322Y-74186803D01*
X129642731Y-74349014D01*
X129712715Y-74498159D01*
X129787763Y-74602130D01*
X129868118Y-74669766D01*
X129960975Y-74711672D01*
X130096044Y-74741288D01*
X130286213Y-74752747D01*
X130489175Y-74740853D01*
X130645437Y-74708989D01*
X130763800Y-74661955D01*
X130851879Y-74603087D01*
X130958348Y-74485588D01*
X131105337Y-74259589D01*
X131305145Y-73877503D01*
X131403934Y-73701972D01*
X131468104Y-73633688D01*
X131543637Y-73601602D01*
X131665794Y-73588625D01*
X131760359Y-73600102D01*
X131818055Y-73628558D01*
X131855593Y-73677640D01*
X131868321Y-73746528D01*
X131858209Y-73809582D01*
X131830365Y-73848927D01*
X131779556Y-73869606D01*
X131653778Y-73879701D01*
X131455648Y-73879701D01*
X131455648Y-74680940D01*
X131561014Y-74680940D01*
X131775452Y-74669873D01*
X131919457Y-74641999D01*
X132011349Y-74604003D01*
X132090222Y-74539966D01*
X132163405Y-74438687D01*
X132231168Y-74290579D01*
X132278062Y-74129197D01*
X132307907Y-73939916D01*
X132318509Y-73717768D01*
X132308859Y-73514614D01*
X132281674Y-73341225D01*
X132238935Y-73193135D01*
X132176962Y-73057766D01*
X132103659Y-72954421D01*
X132018530Y-72878428D01*
X131920558Y-72829314D01*
X131776773Y-72794616D01*
X131572591Y-72781158D01*
X131371654Y-72800020D01*
X131224985Y-72849851D01*
X131100258Y-72930308D01*
X131011907Y-73022958D01*
X130925977Y-73156926D01*
X130763952Y-73449223D01*
X130602584Y-73738192D01*
X130522591Y-73853140D01*
X130469143Y-73891817D01*
X130373798Y-73920976D01*
X130216457Y-73933007D01*
X130117604Y-73920984D01*
X130055843Y-73890875D01*
X130015696Y-73838596D01*
X130001914Y-73762831D01*
X130013438Y-73687218D01*
X130044266Y-73642847D01*
X130100152Y-73620108D01*
X130234629Y-73609141D01*
X130555271Y-73609141D01*
X130555271Y-72807903D01*
X130382054Y-72807903D01*
X130182606Y-72818046D01*
X130032790Y-72844873D01*
X129922780Y-72883740D01*
X129824934Y-72949730D01*
X129736463Y-73053974D01*
X129656360Y-73204492D01*
X129599869Y-73372546D01*
X129564289Y-73567848D01*
X129551726Y-73795621D01*
X129285059Y-73795621D01*
X129285059Y-71419016D01*
X129608000Y-71419016D01*
X130086325Y-71470123D01*
X130086325Y-71754972D01*
X130086325Y-71779701D01*
X129608000Y-71822566D01*
X129608000Y-72705870D01*
X132262235Y-72212011D01*
X132262235Y-70963991D01*
X129608000Y-70525453D01*
X129608000Y-71419016D01*
X129285059Y-71419016D01*
X129285059Y-70258786D01*
X132585176Y-70258786D01*
X132585176Y-78513430D01*
G37*
D10*
X141933333Y-55354819D02*
X141600000Y-54878628D01*
X141361905Y-55354819D02*
X141361905Y-54354819D01*
X141361905Y-54354819D02*
X141742857Y-54354819D01*
X141742857Y-54354819D02*
X141838095Y-54402438D01*
X141838095Y-54402438D02*
X141885714Y-54450057D01*
X141885714Y-54450057D02*
X141933333Y-54545295D01*
X141933333Y-54545295D02*
X141933333Y-54688152D01*
X141933333Y-54688152D02*
X141885714Y-54783390D01*
X141885714Y-54783390D02*
X141838095Y-54831009D01*
X141838095Y-54831009D02*
X141742857Y-54878628D01*
X141742857Y-54878628D02*
X141361905Y-54878628D01*
X142409524Y-55354819D02*
X142600000Y-55354819D01*
X142600000Y-55354819D02*
X142695238Y-55307200D01*
X142695238Y-55307200D02*
X142742857Y-55259580D01*
X142742857Y-55259580D02*
X142838095Y-55116723D01*
X142838095Y-55116723D02*
X142885714Y-54926247D01*
X142885714Y-54926247D02*
X142885714Y-54545295D01*
X142885714Y-54545295D02*
X142838095Y-54450057D01*
X142838095Y-54450057D02*
X142790476Y-54402438D01*
X142790476Y-54402438D02*
X142695238Y-54354819D01*
X142695238Y-54354819D02*
X142504762Y-54354819D01*
X142504762Y-54354819D02*
X142409524Y-54402438D01*
X142409524Y-54402438D02*
X142361905Y-54450057D01*
X142361905Y-54450057D02*
X142314286Y-54545295D01*
X142314286Y-54545295D02*
X142314286Y-54783390D01*
X142314286Y-54783390D02*
X142361905Y-54878628D01*
X142361905Y-54878628D02*
X142409524Y-54926247D01*
X142409524Y-54926247D02*
X142504762Y-54973866D01*
X142504762Y-54973866D02*
X142695238Y-54973866D01*
X142695238Y-54973866D02*
X142790476Y-54926247D01*
X142790476Y-54926247D02*
X142838095Y-54878628D01*
X142838095Y-54878628D02*
X142885714Y-54783390D01*
X126333333Y-55404819D02*
X126000000Y-54928628D01*
X125761905Y-55404819D02*
X125761905Y-54404819D01*
X125761905Y-54404819D02*
X126142857Y-54404819D01*
X126142857Y-54404819D02*
X126238095Y-54452438D01*
X126238095Y-54452438D02*
X126285714Y-54500057D01*
X126285714Y-54500057D02*
X126333333Y-54595295D01*
X126333333Y-54595295D02*
X126333333Y-54738152D01*
X126333333Y-54738152D02*
X126285714Y-54833390D01*
X126285714Y-54833390D02*
X126238095Y-54881009D01*
X126238095Y-54881009D02*
X126142857Y-54928628D01*
X126142857Y-54928628D02*
X125761905Y-54928628D01*
X126904762Y-54833390D02*
X126809524Y-54785771D01*
X126809524Y-54785771D02*
X126761905Y-54738152D01*
X126761905Y-54738152D02*
X126714286Y-54642914D01*
X126714286Y-54642914D02*
X126714286Y-54595295D01*
X126714286Y-54595295D02*
X126761905Y-54500057D01*
X126761905Y-54500057D02*
X126809524Y-54452438D01*
X126809524Y-54452438D02*
X126904762Y-54404819D01*
X126904762Y-54404819D02*
X127095238Y-54404819D01*
X127095238Y-54404819D02*
X127190476Y-54452438D01*
X127190476Y-54452438D02*
X127238095Y-54500057D01*
X127238095Y-54500057D02*
X127285714Y-54595295D01*
X127285714Y-54595295D02*
X127285714Y-54642914D01*
X127285714Y-54642914D02*
X127238095Y-54738152D01*
X127238095Y-54738152D02*
X127190476Y-54785771D01*
X127190476Y-54785771D02*
X127095238Y-54833390D01*
X127095238Y-54833390D02*
X126904762Y-54833390D01*
X126904762Y-54833390D02*
X126809524Y-54881009D01*
X126809524Y-54881009D02*
X126761905Y-54928628D01*
X126761905Y-54928628D02*
X126714286Y-55023866D01*
X126714286Y-55023866D02*
X126714286Y-55214342D01*
X126714286Y-55214342D02*
X126761905Y-55309580D01*
X126761905Y-55309580D02*
X126809524Y-55357200D01*
X126809524Y-55357200D02*
X126904762Y-55404819D01*
X126904762Y-55404819D02*
X127095238Y-55404819D01*
X127095238Y-55404819D02*
X127190476Y-55357200D01*
X127190476Y-55357200D02*
X127238095Y-55309580D01*
X127238095Y-55309580D02*
X127285714Y-55214342D01*
X127285714Y-55214342D02*
X127285714Y-55023866D01*
X127285714Y-55023866D02*
X127238095Y-54928628D01*
X127238095Y-54928628D02*
X127190476Y-54881009D01*
X127190476Y-54881009D02*
X127095238Y-54833390D01*
X134233333Y-55354819D02*
X133900000Y-54878628D01*
X133661905Y-55354819D02*
X133661905Y-54354819D01*
X133661905Y-54354819D02*
X134042857Y-54354819D01*
X134042857Y-54354819D02*
X134138095Y-54402438D01*
X134138095Y-54402438D02*
X134185714Y-54450057D01*
X134185714Y-54450057D02*
X134233333Y-54545295D01*
X134233333Y-54545295D02*
X134233333Y-54688152D01*
X134233333Y-54688152D02*
X134185714Y-54783390D01*
X134185714Y-54783390D02*
X134138095Y-54831009D01*
X134138095Y-54831009D02*
X134042857Y-54878628D01*
X134042857Y-54878628D02*
X133661905Y-54878628D01*
X135090476Y-54688152D02*
X135090476Y-55354819D01*
X134852381Y-54307200D02*
X134614286Y-55021485D01*
X134614286Y-55021485D02*
X135233333Y-55021485D01*
D18*
X159842164Y-50102500D02*
X160057836Y-50102500D01*
X159842164Y-50822500D02*
X160057836Y-50822500D01*
X131340000Y-55859420D02*
X131340000Y-56140580D01*
X132360000Y-55859420D02*
X132360000Y-56140580D01*
X159809420Y-51152500D02*
X160090580Y-51152500D01*
X159809420Y-52172500D02*
X160090580Y-52172500D01*
D19*
G36*
X150198143Y-87425444D02*
G01*
X150368015Y-87441647D01*
X150528012Y-87466717D01*
X150675108Y-87500398D01*
X150806273Y-87542438D01*
X150918479Y-87592581D01*
X150975247Y-87626321D01*
X151049750Y-87688569D01*
X151101196Y-87759704D01*
X151129172Y-87838302D01*
X151133265Y-87922937D01*
X151113064Y-88012183D01*
X151097805Y-88049467D01*
X151058032Y-88114096D01*
X150996495Y-88184708D01*
X150915274Y-88259733D01*
X150816450Y-88337600D01*
X150702100Y-88416739D01*
X150574306Y-88495578D01*
X150435146Y-88572547D01*
X150344682Y-88618341D01*
X150127118Y-88719149D01*
X149914343Y-88805760D01*
X149698966Y-88880751D01*
X149473592Y-88946698D01*
X149233492Y-89005579D01*
X149197831Y-89013612D01*
X149208479Y-88716181D01*
X149214939Y-88487797D01*
X149218300Y-88254956D01*
X149218525Y-88026001D01*
X149215578Y-87809280D01*
X149212875Y-87707185D01*
X149206622Y-87508121D01*
X149306671Y-87486314D01*
X149480487Y-87454374D01*
X149659570Y-87432572D01*
X149840893Y-87420652D01*
X150021427Y-87418361D01*
X150198143Y-87425444D01*
G37*
G36*
X152903834Y-81434914D02*
G01*
X152906839Y-81447901D01*
X152913819Y-81483667D01*
X152924457Y-81540411D01*
X152938433Y-81616336D01*
X152955430Y-81709641D01*
X152975130Y-81818527D01*
X152997213Y-81941195D01*
X153021362Y-82075845D01*
X153047259Y-82220679D01*
X153074585Y-82373897D01*
X153103022Y-82533699D01*
X153132251Y-82698287D01*
X153161955Y-82865861D01*
X153191816Y-83034621D01*
X153221514Y-83202769D01*
X153250731Y-83368505D01*
X153279151Y-83530029D01*
X153306453Y-83685544D01*
X153332320Y-83833248D01*
X153356433Y-83971343D01*
X153378475Y-84098029D01*
X153398126Y-84211508D01*
X153415070Y-84309980D01*
X153428987Y-84391645D01*
X153439559Y-84454705D01*
X153446468Y-84497359D01*
X153449395Y-84517810D01*
X153449429Y-84519383D01*
X153436935Y-84522078D01*
X153403056Y-84528487D01*
X153351052Y-84538032D01*
X153284180Y-84550137D01*
X153205697Y-84564227D01*
X153118863Y-84579725D01*
X153026933Y-84596055D01*
X152933167Y-84612640D01*
X152840822Y-84628905D01*
X152753156Y-84644273D01*
X152673427Y-84658169D01*
X152604892Y-84670015D01*
X152550810Y-84679236D01*
X152514437Y-84685255D01*
X152499033Y-84687497D01*
X152498908Y-84687500D01*
X152497809Y-84699770D01*
X152496705Y-84735660D01*
X152495605Y-84793793D01*
X152494518Y-84872787D01*
X152493453Y-84971263D01*
X152492421Y-85087844D01*
X152491429Y-85221148D01*
X152490489Y-85369797D01*
X152489609Y-85532411D01*
X152488798Y-85707611D01*
X152488067Y-85894018D01*
X152487423Y-86090253D01*
X152486877Y-86294935D01*
X152486439Y-86506687D01*
X152486402Y-86527561D01*
X152483234Y-88367622D01*
X152389438Y-88423063D01*
X152226829Y-88514364D01*
X152041782Y-88609527D01*
X151836416Y-88707651D01*
X151612847Y-88807833D01*
X151373192Y-88909170D01*
X151119568Y-89010760D01*
X150854092Y-89111700D01*
X150578881Y-89211087D01*
X150380269Y-89279694D01*
X150268523Y-89317275D01*
X150150717Y-89356347D01*
X150029322Y-89396132D01*
X149906811Y-89435855D01*
X149785654Y-89474739D01*
X149668323Y-89512008D01*
X149557290Y-89546887D01*
X149455026Y-89578598D01*
X149364003Y-89606366D01*
X149286693Y-89629416D01*
X149225566Y-89646969D01*
X149183095Y-89658252D01*
X149161751Y-89662486D01*
X149161217Y-89662500D01*
X149155507Y-89651352D01*
X149154410Y-89622684D01*
X149155887Y-89603125D01*
X149159841Y-89561862D01*
X149164515Y-89506335D01*
X149169019Y-89447230D01*
X149169840Y-89435655D01*
X149177388Y-89327560D01*
X149285801Y-89300559D01*
X149373950Y-89277186D01*
X149478159Y-89247271D01*
X149591081Y-89213090D01*
X149705372Y-89176917D01*
X149813685Y-89141028D01*
X149908674Y-89107697D01*
X149909417Y-89107427D01*
X150136547Y-89019619D01*
X150341856Y-88929386D01*
X150528525Y-88834938D01*
X150699736Y-88734487D01*
X150858672Y-88626245D01*
X151008515Y-88508424D01*
X151069988Y-88455221D01*
X151183740Y-88343348D01*
X151273632Y-88231584D01*
X151339577Y-88120492D01*
X151381485Y-88010637D01*
X151399268Y-87902582D01*
X151392838Y-87796893D01*
X151362105Y-87694132D01*
X151306981Y-87594864D01*
X151227378Y-87499653D01*
X151221052Y-87493318D01*
X151118522Y-87408094D01*
X150993415Y-87333087D01*
X150846039Y-87268422D01*
X150676700Y-87214225D01*
X150485707Y-87170621D01*
X150388453Y-87153808D01*
X150291199Y-87142338D01*
X150174167Y-87134741D01*
X150042271Y-87130898D01*
X149900422Y-87130691D01*
X149753535Y-87133999D01*
X149606523Y-87140704D01*
X149464298Y-87150686D01*
X149331775Y-87163828D01*
X149213866Y-87180008D01*
X149197866Y-87182669D01*
X149166967Y-87186090D01*
X149152113Y-87179884D01*
X149145180Y-87160909D01*
X149139519Y-87136079D01*
X149129640Y-87094034D01*
X149117216Y-87041858D01*
X149110165Y-87012500D01*
X149096561Y-86957809D01*
X149086008Y-86922866D01*
X149076115Y-86903017D01*
X149064492Y-86893607D01*
X149048749Y-86889982D01*
X149047142Y-86889792D01*
X149006384Y-86895858D01*
X148963014Y-86923825D01*
X148915893Y-86974605D01*
X148880872Y-87023012D01*
X148847926Y-87076134D01*
X148830575Y-87116990D01*
X148827566Y-87151792D01*
X148837649Y-87186751D01*
X148844848Y-87201748D01*
X148858191Y-87235988D01*
X148853622Y-87259149D01*
X148828506Y-87276102D01*
X148799060Y-87286356D01*
X148755125Y-87301283D01*
X148704238Y-87321020D01*
X148680395Y-87331147D01*
X148641635Y-87350303D01*
X148618615Y-87369770D01*
X148603390Y-87397895D01*
X148595304Y-87420547D01*
X148582735Y-87467311D01*
X148571411Y-87525245D01*
X148562246Y-87587182D01*
X148556154Y-87645952D01*
X148554050Y-87694384D01*
X148556582Y-87724314D01*
X148573029Y-87759771D01*
X148599848Y-87773936D01*
X148638002Y-87766866D01*
X148688451Y-87738620D01*
X148696967Y-87732682D01*
X148738981Y-87705347D01*
X148792233Y-87674198D01*
X148845267Y-87645931D01*
X148845771Y-87645679D01*
X148935142Y-87600993D01*
X148942506Y-87641121D01*
X148951217Y-87704249D01*
X148958540Y-87789577D01*
X148964392Y-87894339D01*
X148968690Y-88015769D01*
X148971350Y-88151103D01*
X148972290Y-88297573D01*
X148971426Y-88452415D01*
X148969907Y-88553655D01*
X148967774Y-88657618D01*
X148965424Y-88754109D01*
X148962957Y-88840169D01*
X148960474Y-88912834D01*
X148958075Y-88969143D01*
X148955861Y-89006135D01*
X148954076Y-89020551D01*
X148947773Y-89028832D01*
X148933736Y-89033754D01*
X148907686Y-89035619D01*
X148865343Y-89034729D01*
X148802429Y-89031385D01*
X148801224Y-89031313D01*
X148732618Y-89027699D01*
X148683031Y-89028563D01*
X148646968Y-89037063D01*
X148618936Y-89056354D01*
X148593439Y-89089592D01*
X148564984Y-89139934D01*
X148544726Y-89178660D01*
X148510040Y-89251615D01*
X148491774Y-89307660D01*
X148490311Y-89349069D01*
X148506035Y-89378116D01*
X148539329Y-89397077D01*
X148583234Y-89407191D01*
X148633470Y-89410673D01*
X148700492Y-89409616D01*
X148776566Y-89404419D01*
X148853956Y-89395481D01*
X148876887Y-89392031D01*
X148928900Y-89383718D01*
X148919774Y-89513734D01*
X148913742Y-89594373D01*
X148908003Y-89653614D01*
X148901608Y-89695031D01*
X148893607Y-89722196D01*
X148883052Y-89738681D01*
X148868993Y-89748057D01*
X148856380Y-89752354D01*
X148419986Y-89868530D01*
X147999800Y-89970799D01*
X147591835Y-90060003D01*
X147192101Y-90136978D01*
X146796610Y-90202566D01*
X146542811Y-90239098D01*
X146458362Y-90249728D01*
X146380178Y-90257538D01*
X146301597Y-90262912D01*
X146215959Y-90266232D01*
X146116600Y-90267884D01*
X146036312Y-90268251D01*
X145940688Y-90268183D01*
X145865848Y-90267522D01*
X145807564Y-90265967D01*
X145761610Y-90263214D01*
X145723759Y-90258961D01*
X145689783Y-90252905D01*
X145655455Y-90244742D01*
X145636115Y-90239578D01*
X145526223Y-90203526D01*
X145414759Y-90156007D01*
X145307659Y-90100244D01*
X145210857Y-90039461D01*
X145130289Y-89976879D01*
X145100853Y-89948930D01*
X145040946Y-89872445D01*
X144988006Y-89774000D01*
X144942936Y-89655884D01*
X144914835Y-89550992D01*
X145773837Y-89550992D01*
X145776398Y-89622718D01*
X145785173Y-89676076D01*
X145798557Y-89709375D01*
X145820857Y-89737809D01*
X145847084Y-89748890D01*
X145865608Y-89750000D01*
X145906568Y-89742059D01*
X145940081Y-89724681D01*
X145971163Y-89692809D01*
X146009570Y-89641505D01*
X146052968Y-89574396D01*
X146099021Y-89495111D01*
X146145395Y-89407276D01*
X146149043Y-89400000D01*
X146224616Y-89257120D01*
X146315069Y-89100419D01*
X146417727Y-88933880D01*
X146529916Y-88761490D01*
X146648961Y-88587234D01*
X146772187Y-88415097D01*
X146896920Y-88249066D01*
X147020485Y-88093126D01*
X147050827Y-88056250D01*
X147106207Y-87991829D01*
X147170308Y-87921131D01*
X147239941Y-87847322D01*
X147311918Y-87773568D01*
X147383050Y-87703035D01*
X147450148Y-87638890D01*
X147510025Y-87584299D01*
X147559491Y-87542428D01*
X147592871Y-87517985D01*
X147662930Y-87481373D01*
X147725643Y-87463977D01*
X147778538Y-87466130D01*
X147818644Y-87487693D01*
X147835999Y-87505778D01*
X147849820Y-87525831D01*
X147860499Y-87550780D01*
X147868430Y-87583554D01*
X147874003Y-87627082D01*
X147877613Y-87684291D01*
X147879651Y-87758112D01*
X147880510Y-87851472D01*
X147880605Y-87950000D01*
X147879737Y-88063378D01*
X147877129Y-88169867D01*
X147872403Y-88272581D01*
X147865178Y-88374638D01*
X147855075Y-88479155D01*
X147841715Y-88589247D01*
X147824719Y-88708031D01*
X147803706Y-88838624D01*
X147778298Y-88984143D01*
X147748116Y-89147704D01*
X147712779Y-89332423D01*
X147711525Y-89338897D01*
X147696937Y-89416943D01*
X147684785Y-89487466D01*
X147675667Y-89546502D01*
X147670184Y-89590088D01*
X147668936Y-89614260D01*
X147669432Y-89617022D01*
X147686841Y-89633354D01*
X147721880Y-89635779D01*
X147775543Y-89624201D01*
X147846252Y-89599528D01*
X147895811Y-89579445D01*
X147933999Y-89560458D01*
X147962997Y-89538893D01*
X147984992Y-89511078D01*
X148002165Y-89473337D01*
X148016702Y-89421999D01*
X148030787Y-89353388D01*
X148046602Y-89263833D01*
X148046919Y-89261987D01*
X148094496Y-88962741D01*
X148130806Y-88683540D01*
X148156063Y-88422219D01*
X148170479Y-88176614D01*
X148174365Y-87968750D01*
X148172783Y-87843047D01*
X148168135Y-87738569D01*
X148159948Y-87651674D01*
X148147750Y-87578721D01*
X148131068Y-87516070D01*
X148109431Y-87460080D01*
X148107974Y-87456873D01*
X148060319Y-87370262D01*
X148005196Y-87305230D01*
X147939109Y-87258675D01*
X147858561Y-87227492D01*
X147845742Y-87224129D01*
X147766913Y-87216045D01*
X147676561Y-87226821D01*
X147577975Y-87255171D01*
X147474443Y-87299808D01*
X147369252Y-87359446D01*
X147265689Y-87432799D01*
X147222980Y-87467806D01*
X147145256Y-87540140D01*
X147057656Y-87631978D01*
X146962109Y-87740786D01*
X146860542Y-87864027D01*
X146754885Y-87999165D01*
X146647066Y-88143664D01*
X146539013Y-88294990D01*
X146432656Y-88450605D01*
X146329921Y-88607974D01*
X146232739Y-88764561D01*
X146217458Y-88790002D01*
X146182307Y-88848367D01*
X146152074Y-88897720D01*
X146128849Y-88934718D01*
X146114720Y-88956022D01*
X146111348Y-88959710D01*
X146114054Y-88944333D01*
X146121688Y-88907813D01*
X146133525Y-88853361D01*
X146148842Y-88784187D01*
X146166914Y-88703503D01*
X146187016Y-88614518D01*
X146208425Y-88520444D01*
X146230415Y-88424491D01*
X146252263Y-88329869D01*
X146273244Y-88239789D01*
X146286572Y-88183083D01*
X146377885Y-87816489D01*
X146475254Y-87466252D01*
X146581211Y-87123979D01*
X146698287Y-86781277D01*
X146762118Y-86606250D01*
X146843233Y-86393086D01*
X146922075Y-86195583D01*
X146997966Y-86015278D01*
X147070229Y-85853704D01*
X147138185Y-85712399D01*
X147201157Y-85592899D01*
X147235971Y-85532790D01*
X147272702Y-85467392D01*
X147293681Y-85415738D01*
X147299327Y-85372502D01*
X147290063Y-85332357D01*
X147266308Y-85289977D01*
X147256271Y-85275830D01*
X147214612Y-85224202D01*
X147169681Y-85176914D01*
X147125881Y-85137862D01*
X147087618Y-85110945D01*
X147059294Y-85100061D01*
X147057630Y-85100000D01*
X147038661Y-85101907D01*
X147022982Y-85110036D01*
X147008241Y-85127998D01*
X146992090Y-85159402D01*
X146972178Y-85207860D01*
X146951075Y-85263717D01*
X146932091Y-85313334D01*
X146905512Y-85380735D01*
X146873454Y-85460665D01*
X146838031Y-85547867D01*
X146801359Y-85637087D01*
X146783033Y-85681250D01*
X146599204Y-86143748D01*
X146433466Y-86605792D01*
X146284400Y-87072068D01*
X146150584Y-87547264D01*
X146030599Y-88036069D01*
X145936567Y-88475000D01*
X145893409Y-88695170D01*
X145857020Y-88892006D01*
X145827320Y-89066216D01*
X145804232Y-89218510D01*
X145787675Y-89349598D01*
X145777570Y-89460189D01*
X145773837Y-89550992D01*
X144914835Y-89550992D01*
X144906637Y-89520392D01*
X144883997Y-89397586D01*
X144874224Y-89305769D01*
X144869142Y-89196719D01*
X144868612Y-89077729D01*
X144872493Y-88956094D01*
X144880643Y-88839110D01*
X144892922Y-88734071D01*
X144897344Y-88706250D01*
X144932467Y-88522895D01*
X144973920Y-88344993D01*
X145020333Y-88177528D01*
X145070331Y-88025485D01*
X145118183Y-87903826D01*
X145140569Y-87850435D01*
X145158593Y-87804175D01*
X145170170Y-87770615D01*
X145173387Y-87756514D01*
X145165018Y-87740742D01*
X145142061Y-87711235D01*
X145107738Y-87671810D01*
X145065269Y-87626286D01*
X145051452Y-87612041D01*
X145000754Y-87561047D01*
X144963353Y-87525834D01*
X144935726Y-87503680D01*
X144914350Y-87491863D01*
X144895701Y-87487660D01*
X144890257Y-87487477D01*
X144859850Y-87490352D01*
X144835545Y-87501104D01*
X144815270Y-87522987D01*
X144796951Y-87559251D01*
X144778516Y-87613150D01*
X144757892Y-87687934D01*
X144754778Y-87700000D01*
X144708996Y-87892486D01*
X144666485Y-88098752D01*
X144629442Y-88307598D01*
X144608397Y-88446083D01*
X144598329Y-88523558D01*
X144590858Y-88596703D01*
X144585638Y-88671614D01*
X144582320Y-88754386D01*
X144580557Y-88851115D01*
X144580031Y-88943750D01*
X144583298Y-89147003D01*
X144594374Y-89328541D01*
X144613940Y-89490614D01*
X144642674Y-89635470D01*
X144681259Y-89765356D01*
X144730372Y-89882522D01*
X144790695Y-89989217D01*
X144862908Y-90087688D01*
X144947690Y-90180185D01*
X144956593Y-90188908D01*
X145065519Y-90284727D01*
X145178807Y-90363683D01*
X145299141Y-90426629D01*
X145429207Y-90474416D01*
X145571688Y-90507895D01*
X145729268Y-90527918D01*
X145904633Y-90535336D01*
X146042565Y-90533379D01*
X146274868Y-90520121D01*
X146524026Y-90495455D01*
X146790676Y-90459258D01*
X147075457Y-90411408D01*
X147379005Y-90351783D01*
X147701957Y-90280260D01*
X148044952Y-90196717D01*
X148408626Y-90101031D01*
X148666900Y-90029295D01*
X148733155Y-90010813D01*
X148790394Y-89995387D01*
X148834570Y-89984065D01*
X148861638Y-89977892D01*
X148868250Y-89977210D01*
X148867390Y-89990186D01*
X148863203Y-90024294D01*
X148856183Y-90075960D01*
X148846820Y-90141610D01*
X148835609Y-90217669D01*
X148829802Y-90256250D01*
X148793372Y-90481676D01*
X148750954Y-90718317D01*
X148704571Y-90955579D01*
X148656242Y-91182870D01*
X148635993Y-91272192D01*
X148619835Y-91345195D01*
X148606313Y-91412425D01*
X148596303Y-91469008D01*
X148590679Y-91510072D01*
X148589925Y-91528442D01*
X148594727Y-91555100D01*
X148607484Y-91565984D01*
X148636357Y-91567521D01*
X148639421Y-91567439D01*
X148675478Y-91560577D01*
X148725233Y-91543780D01*
X148781213Y-91520423D01*
X148835945Y-91493882D01*
X148881956Y-91467534D01*
X148911773Y-91444755D01*
X148912379Y-91444119D01*
X148921145Y-91431519D01*
X148929542Y-91411286D01*
X148938193Y-91380548D01*
X148947723Y-91336431D01*
X148958752Y-91276061D01*
X148971906Y-91196565D01*
X148987208Y-91098941D01*
X149021824Y-90866984D01*
X149051695Y-90649706D01*
X149078054Y-90437510D01*
X149102128Y-90220798D01*
X149111705Y-90127610D01*
X149119234Y-90054988D01*
X149126244Y-89991505D01*
X149132264Y-89941124D01*
X149136819Y-89907810D01*
X149139395Y-89895548D01*
X149152164Y-89891188D01*
X149185668Y-89880690D01*
X149236668Y-89865044D01*
X149301923Y-89845239D01*
X149378196Y-89822263D01*
X149450492Y-89800614D01*
X149754950Y-89707248D01*
X150069914Y-89606072D01*
X150389086Y-89499259D01*
X150706167Y-89388981D01*
X151014861Y-89277412D01*
X151308870Y-89166725D01*
X151470236Y-89103766D01*
X151579622Y-89060065D01*
X151694024Y-89013622D01*
X151810035Y-88965880D01*
X151924247Y-88918277D01*
X152033256Y-88872257D01*
X152133653Y-88829259D01*
X152222033Y-88790725D01*
X152294990Y-88758095D01*
X152349116Y-88732811D01*
X152361089Y-88726916D01*
X152403621Y-88706418D01*
X152440951Y-88689843D01*
X152461348Y-88682037D01*
X152489487Y-88673315D01*
X152489487Y-90324157D01*
X152489487Y-91975000D01*
X147968512Y-91975000D01*
X143447538Y-91975000D01*
X143447538Y-87456250D01*
X143447538Y-86518997D01*
X145025611Y-86518997D01*
X145032343Y-86582336D01*
X145062112Y-86688388D01*
X145111863Y-86785143D01*
X145178672Y-86869661D01*
X145259613Y-86938999D01*
X145351765Y-86990215D01*
X145452201Y-87020367D01*
X145470647Y-87023292D01*
X145536046Y-87029106D01*
X145597684Y-87026531D01*
X145667533Y-87014872D01*
X145686139Y-87010805D01*
X145779980Y-86977343D01*
X145864638Y-86923389D01*
X145937848Y-86852479D01*
X145997345Y-86768144D01*
X146040865Y-86673920D01*
X146066143Y-86573339D01*
X146070915Y-86469936D01*
X146065109Y-86419465D01*
X146034025Y-86307235D01*
X145982525Y-86207056D01*
X145912821Y-86121178D01*
X145827126Y-86051853D01*
X145727651Y-86001331D01*
X145626735Y-85973543D01*
X145522189Y-85967072D01*
X145421484Y-85983103D01*
X145327020Y-86019179D01*
X145241195Y-86072842D01*
X145166408Y-86141638D01*
X145105058Y-86223107D01*
X145059542Y-86314795D01*
X145032260Y-86414244D01*
X145025611Y-86518997D01*
X143447538Y-86518997D01*
X143447538Y-82937500D01*
X146598052Y-82937500D01*
X149748567Y-82937500D01*
X149760786Y-82996875D01*
X149764803Y-83018192D01*
X149772783Y-83062180D01*
X149784381Y-83126882D01*
X149799249Y-83210343D01*
X149817041Y-83310607D01*
X149837411Y-83425718D01*
X149860013Y-83553720D01*
X149884500Y-83692657D01*
X149910527Y-83840575D01*
X149937746Y-83995515D01*
X149951693Y-84075000D01*
X149979111Y-84231145D01*
X150005326Y-84380101D01*
X150030014Y-84520044D01*
X150052849Y-84649151D01*
X150073509Y-84765598D01*
X150091667Y-84867562D01*
X150107000Y-84953220D01*
X150119183Y-85020748D01*
X150127893Y-85068322D01*
X150132803Y-85094120D01*
X150133775Y-85098377D01*
X150146150Y-85096817D01*
X150181071Y-85091270D01*
X150236455Y-85082100D01*
X150310217Y-85069669D01*
X150400273Y-85054342D01*
X150504540Y-85036481D01*
X150620932Y-85016451D01*
X150747366Y-84994615D01*
X150881758Y-84971336D01*
X151022024Y-84946978D01*
X151166079Y-84921905D01*
X151311840Y-84896479D01*
X151457222Y-84871065D01*
X151600141Y-84846026D01*
X151738513Y-84821725D01*
X151870254Y-84798526D01*
X151993280Y-84776793D01*
X152105506Y-84756888D01*
X152204849Y-84739176D01*
X152289225Y-84724019D01*
X152356549Y-84711783D01*
X152404737Y-84702829D01*
X152430083Y-84697865D01*
X152489487Y-84685428D01*
X152489487Y-83811464D01*
X152489487Y-82937500D01*
X151120302Y-82937499D01*
X149751116Y-82937499D01*
X149744613Y-82909374D01*
X149737310Y-82874529D01*
X149727248Y-82821837D01*
X149714987Y-82754641D01*
X149701087Y-82676288D01*
X149686108Y-82590122D01*
X149670612Y-82499489D01*
X149655159Y-82407733D01*
X149640309Y-82318200D01*
X149626622Y-82234235D01*
X149614659Y-82159182D01*
X149604981Y-82096388D01*
X149598148Y-82049197D01*
X149594720Y-82020954D01*
X149594640Y-82014256D01*
X149608047Y-82010793D01*
X149644301Y-82003412D01*
X149701661Y-81992418D01*
X149778387Y-81978116D01*
X149872737Y-81960810D01*
X149982970Y-81940805D01*
X150107345Y-81918406D01*
X150244122Y-81893917D01*
X150391558Y-81867645D01*
X150547914Y-81839892D01*
X150711448Y-81810965D01*
X150880419Y-81781168D01*
X151053086Y-81750805D01*
X151227709Y-81720183D01*
X151402545Y-81689604D01*
X151575854Y-81659375D01*
X151745895Y-81629799D01*
X151910927Y-81601182D01*
X152069210Y-81573829D01*
X152219001Y-81548044D01*
X152358559Y-81524133D01*
X152486145Y-81502399D01*
X152600017Y-81483148D01*
X152698433Y-81466685D01*
X152779653Y-81453314D01*
X152841936Y-81443340D01*
X152883541Y-81437069D01*
X152902727Y-81434804D01*
X152903834Y-81434914D01*
G37*
D18*
X142327064Y-55565000D02*
X141872936Y-55565000D01*
X142327064Y-57035000D02*
X141872936Y-57035000D01*
X126727064Y-55615000D02*
X126272936Y-55615000D01*
X126727064Y-57085000D02*
X126272936Y-57085000D01*
X134840000Y-67607836D02*
X134840000Y-67392164D01*
X135560000Y-67607836D02*
X135560000Y-67392164D01*
X123240000Y-56159420D02*
X123240000Y-56440580D01*
X124260000Y-56159420D02*
X124260000Y-56440580D01*
X138740000Y-56209420D02*
X138740000Y-56490580D01*
X139760000Y-56209420D02*
X139760000Y-56490580D01*
X141840000Y-80492164D02*
X141840000Y-80707836D01*
X142560000Y-80492164D02*
X142560000Y-80707836D01*
X134940000Y-80492164D02*
X134940000Y-80707836D01*
X135660000Y-80492164D02*
X135660000Y-80707836D01*
D19*
G36*
X154740801Y-67332112D02*
G01*
X154919422Y-67345735D01*
X155095474Y-67368167D01*
X155268736Y-67399186D01*
X155438984Y-67438569D01*
X155605996Y-67486093D01*
X155769550Y-67541535D01*
X155929424Y-67604672D01*
X156085395Y-67675282D01*
X156237240Y-67753141D01*
X156384738Y-67838027D01*
X156527666Y-67929717D01*
X156665802Y-68027988D01*
X156798923Y-68132617D01*
X156926807Y-68243381D01*
X157049231Y-68360058D01*
X157165974Y-68482424D01*
X157276812Y-68610257D01*
X157381524Y-68743334D01*
X157479887Y-68881432D01*
X157571679Y-69024328D01*
X157656677Y-69171799D01*
X157734659Y-69323623D01*
X157805402Y-69479576D01*
X157868685Y-69639436D01*
X157924284Y-69802980D01*
X157971978Y-69969985D01*
X158011545Y-70140228D01*
X158042760Y-70313487D01*
X158065404Y-70489538D01*
X158079252Y-70668158D01*
X158084083Y-70849125D01*
X158081794Y-70977074D01*
X158074978Y-71103889D01*
X158063714Y-71229493D01*
X158048080Y-71353808D01*
X158028153Y-71476754D01*
X158004012Y-71598254D01*
X157975735Y-71718229D01*
X157943399Y-71836600D01*
X157907083Y-71953289D01*
X157866864Y-72068218D01*
X157822821Y-72181307D01*
X157775032Y-72292479D01*
X157723574Y-72401655D01*
X157668526Y-72508757D01*
X157609965Y-72613705D01*
X157547971Y-72716422D01*
X157482619Y-72816830D01*
X157413990Y-72914848D01*
X157342160Y-73010400D01*
X157267207Y-73103406D01*
X157189211Y-73193789D01*
X157108247Y-73281469D01*
X157024396Y-73366369D01*
X156937734Y-73448409D01*
X156848340Y-73527511D01*
X156756291Y-73603597D01*
X156661666Y-73676588D01*
X156564542Y-73746406D01*
X156464998Y-73812972D01*
X156363112Y-73876208D01*
X156258962Y-73936035D01*
X156152625Y-73992375D01*
X156152625Y-73373251D01*
X156306036Y-73269356D01*
X156452472Y-73156380D01*
X156591528Y-73034731D01*
X156722802Y-72904814D01*
X156845890Y-72767038D01*
X156960389Y-72621808D01*
X157065897Y-72469533D01*
X157162010Y-72310618D01*
X157248325Y-72145471D01*
X157324439Y-71974499D01*
X157389950Y-71798109D01*
X157444453Y-71616707D01*
X157487546Y-71430701D01*
X157518825Y-71240497D01*
X157537889Y-71046503D01*
X157544333Y-70849126D01*
X157540442Y-70695771D01*
X157528896Y-70544404D01*
X157509883Y-70395213D01*
X157483592Y-70248387D01*
X157450213Y-70104116D01*
X157409934Y-69962587D01*
X157362944Y-69823990D01*
X157309433Y-69688514D01*
X157249588Y-69556349D01*
X157183599Y-69427682D01*
X157111656Y-69302702D01*
X157033946Y-69181600D01*
X156950659Y-69064563D01*
X156861983Y-68951780D01*
X156768109Y-68843442D01*
X156669224Y-68739735D01*
X156565518Y-68640850D01*
X156457179Y-68546976D01*
X156344396Y-68458300D01*
X156227360Y-68375013D01*
X156106257Y-68297303D01*
X155981278Y-68225360D01*
X155852611Y-68159371D01*
X155720445Y-68099526D01*
X155584969Y-68046014D01*
X155446372Y-67999025D01*
X155304844Y-67958746D01*
X155160572Y-67925366D01*
X155013746Y-67899076D01*
X154864555Y-67880063D01*
X154713188Y-67868517D01*
X154559834Y-67864626D01*
X154401554Y-67868777D01*
X154245351Y-67881090D01*
X154091443Y-67901356D01*
X153940047Y-67929366D01*
X153791379Y-67964910D01*
X153645656Y-68007780D01*
X153503096Y-68057765D01*
X153363916Y-68114657D01*
X153228333Y-68178246D01*
X153096563Y-68248323D01*
X152968824Y-68324679D01*
X152845333Y-68407104D01*
X152726307Y-68495390D01*
X152611962Y-68589326D01*
X152502517Y-68688703D01*
X152398187Y-68793313D01*
X155221291Y-68793313D01*
X155221291Y-69756396D01*
X154202646Y-69756396D01*
X154202646Y-70536917D01*
X156861708Y-70536917D01*
X156861708Y-71500000D01*
X155840416Y-71500000D01*
X155840416Y-74129958D01*
X155733513Y-74169889D01*
X155625153Y-74206315D01*
X155515367Y-74239207D01*
X155404185Y-74268534D01*
X155291639Y-74294263D01*
X155177759Y-74316365D01*
X155062578Y-74334809D01*
X154946125Y-74349562D01*
X154935542Y-74349562D01*
X154901807Y-74353490D01*
X154868073Y-74357169D01*
X154834339Y-74360352D01*
X154817471Y-74361681D01*
X154800604Y-74362792D01*
X154739502Y-74366264D01*
X154678896Y-74368744D01*
X154618289Y-74370232D01*
X154557187Y-74370728D01*
X154376220Y-74366138D01*
X154197599Y-74352515D01*
X154021548Y-74330083D01*
X153848290Y-74299064D01*
X153678047Y-74259681D01*
X153511042Y-74212157D01*
X153347498Y-74156715D01*
X153187638Y-74093578D01*
X153031684Y-74022968D01*
X152879861Y-73945109D01*
X152732389Y-73860223D01*
X152589493Y-73768533D01*
X152451396Y-73670262D01*
X152318319Y-73565633D01*
X152190486Y-73454869D01*
X152068120Y-73338192D01*
X151951443Y-73215826D01*
X151840679Y-73087993D01*
X151736050Y-72954916D01*
X151637779Y-72816819D01*
X151546089Y-72673923D01*
X151461203Y-72526451D01*
X151383344Y-72374628D01*
X151312734Y-72218674D01*
X151249597Y-72058814D01*
X151194155Y-71895270D01*
X151146631Y-71728265D01*
X151107248Y-71558022D01*
X151076229Y-71384764D01*
X151053797Y-71208713D01*
X151040174Y-71030092D01*
X151035583Y-70849125D01*
X151036947Y-70748299D01*
X151041040Y-70648248D01*
X151047861Y-70549003D01*
X151057411Y-70450596D01*
X151069690Y-70353057D01*
X151084696Y-70256417D01*
X151102432Y-70160707D01*
X151122895Y-70065958D01*
X151678521Y-70065958D01*
X151654222Y-70159839D01*
X151632963Y-70254929D01*
X151614803Y-70351197D01*
X151599807Y-70448612D01*
X151588035Y-70547143D01*
X151579550Y-70646760D01*
X151574413Y-70747431D01*
X151572687Y-70849125D01*
X151576578Y-71002479D01*
X151588124Y-71153846D01*
X151607137Y-71303037D01*
X151633428Y-71449863D01*
X151666807Y-71594135D01*
X151707086Y-71735663D01*
X151754076Y-71874260D01*
X151807588Y-72009736D01*
X151867432Y-72141902D01*
X151933421Y-72270569D01*
X152005365Y-72395548D01*
X152083075Y-72516651D01*
X152166362Y-72633688D01*
X152255037Y-72746470D01*
X152348911Y-72854809D01*
X152447796Y-72958515D01*
X152551503Y-73057400D01*
X152659842Y-73151275D01*
X152772624Y-73239950D01*
X152889661Y-73323237D01*
X153010763Y-73400947D01*
X153135743Y-73472891D01*
X153264410Y-73538879D01*
X153396576Y-73598724D01*
X153532051Y-73652236D01*
X153670648Y-73699226D01*
X153812177Y-73739505D01*
X153956448Y-73772884D01*
X154103274Y-73799174D01*
X154252465Y-73818187D01*
X154403832Y-73829734D01*
X154557187Y-73833624D01*
X154618661Y-73833087D01*
X154649321Y-73832369D01*
X154679888Y-73831309D01*
X154710330Y-73829878D01*
X154740618Y-73828044D01*
X154770720Y-73825775D01*
X154800604Y-73823042D01*
X154800604Y-71500000D01*
X154200000Y-71500000D01*
X154200000Y-72142938D01*
X153160188Y-72142938D01*
X153160188Y-69759042D01*
X151210208Y-69759042D01*
X151232158Y-69693869D01*
X151255332Y-69629324D01*
X151279716Y-69565414D01*
X151305293Y-69502148D01*
X151332048Y-69439533D01*
X151359967Y-69377577D01*
X151389032Y-69316287D01*
X151419229Y-69255672D01*
X151450542Y-69195739D01*
X151482956Y-69136496D01*
X151516456Y-69077950D01*
X151551025Y-69020110D01*
X151586648Y-68962983D01*
X151623310Y-68906577D01*
X151660995Y-68850900D01*
X151699687Y-68795958D01*
X151824390Y-68632965D01*
X151958126Y-68477621D01*
X152100506Y-68330324D01*
X152251137Y-68191468D01*
X152409628Y-68061449D01*
X152575588Y-67940662D01*
X152748624Y-67829502D01*
X152928346Y-67728365D01*
X153114363Y-67637646D01*
X153306282Y-67557740D01*
X153503712Y-67489042D01*
X153706263Y-67431949D01*
X153913541Y-67386855D01*
X154125157Y-67354155D01*
X154340718Y-67334246D01*
X154559834Y-67327521D01*
X154740801Y-67332112D01*
G37*
D18*
X156927500Y-54399758D02*
X156927500Y-53925242D01*
X157972500Y-54399758D02*
X157972500Y-53925242D01*
X159659420Y-57052500D02*
X159940580Y-57052500D01*
X159659420Y-58072500D02*
X159940580Y-58072500D01*
X123880000Y-51320000D02*
X123880000Y-54080000D01*
X151930000Y-51320000D02*
X123880000Y-51320000D01*
X151930000Y-51320000D02*
X151930000Y-54080000D01*
X151930000Y-54080000D02*
X123880000Y-54080000D01*
X153200000Y-51320000D02*
X154580000Y-51320000D01*
X154580000Y-51320000D02*
X154580000Y-52700000D01*
X115400000Y-79700000D02*
G75*
G02*
X114000000Y-79700000I-700000J0D01*
G01*
X114000000Y-79700000D02*
G75*
G02*
X115400000Y-79700000I700000J0D01*
G01*
X160620000Y-63153641D02*
X160620000Y-62846359D01*
X161380000Y-63153641D02*
X161380000Y-62846359D01*
X148492164Y-93840000D02*
X148707836Y-93840000D01*
X148492164Y-94560000D02*
X148707836Y-94560000D01*
X118540000Y-51307836D02*
X118540000Y-51092164D01*
X119260000Y-51307836D02*
X119260000Y-51092164D01*
X116700000Y-63700000D02*
G75*
G02*
X115300000Y-63700000I-700000J0D01*
G01*
X115300000Y-63700000D02*
G75*
G02*
X116700000Y-63700000I700000J0D01*
G01*
X120859420Y-50590000D02*
X121140580Y-50590000D01*
X120859420Y-51610000D02*
X121140580Y-51610000D01*
X158440000Y-54500000D02*
X158440000Y-53700000D01*
X158440000Y-54500000D02*
X158440000Y-55300000D01*
X161560000Y-54500000D02*
X161560000Y-53700000D01*
X161560000Y-54500000D02*
X161560000Y-55300000D01*
X158490000Y-55800000D02*
X158160000Y-56040000D01*
X158160000Y-55560000D01*
X158490000Y-55800000D01*
G36*
X158490000Y-55800000D02*
G01*
X158160000Y-56040000D01*
X158160000Y-55560000D01*
X158490000Y-55800000D01*
G37*
X134627064Y-55565000D02*
X134172936Y-55565000D01*
X134627064Y-57035000D02*
X134172936Y-57035000D01*
X138140000Y-80692164D02*
X138140000Y-80907836D01*
X138860000Y-80692164D02*
X138860000Y-80907836D01*
X117877500Y-53937258D02*
X117877500Y-53462742D01*
X118922500Y-53937258D02*
X118922500Y-53462742D01*
X138240000Y-67407836D02*
X138240000Y-67192164D01*
X138960000Y-67407836D02*
X138960000Y-67192164D01*
X154720000Y-63153641D02*
X154720000Y-62846359D01*
X155480000Y-63153641D02*
X155480000Y-62846359D01*
X141640000Y-67607836D02*
X141640000Y-67392164D01*
X142360000Y-67607836D02*
X142360000Y-67392164D01*
X158877500Y-60399758D02*
X158877500Y-59925242D01*
X159922500Y-60399758D02*
X159922500Y-59925242D01*
X153620000Y-95446359D02*
X153620000Y-95753641D01*
X154380000Y-95446359D02*
X154380000Y-95753641D01*
X152320000Y-94646359D02*
X152320000Y-94953641D01*
X153080000Y-94646359D02*
X153080000Y-94953641D01*
X120959420Y-56590000D02*
X121240580Y-56590000D01*
X120959420Y-57610000D02*
X121240580Y-57610000D01*
X147737500Y-94927500D02*
X150737500Y-94927500D01*
X147737500Y-97147500D02*
X150737500Y-97147500D01*
X147227500Y-94947500D02*
X146947500Y-94947500D01*
X147227500Y-94667500D01*
X147227500Y-94947500D01*
G36*
X147227500Y-94947500D02*
G01*
X146947500Y-94947500D01*
X147227500Y-94667500D01*
X147227500Y-94947500D01*
G37*
X119440000Y-54000000D02*
X119440000Y-53200000D01*
X119440000Y-54000000D02*
X119440000Y-54800000D01*
X122560000Y-54000000D02*
X122560000Y-53200000D01*
X122560000Y-54000000D02*
X122560000Y-54800000D01*
X119490000Y-55300000D02*
X119160000Y-55540000D01*
X119160000Y-55060000D01*
X119490000Y-55300000D01*
G36*
X119490000Y-55300000D02*
G01*
X119160000Y-55540000D01*
X119160000Y-55060000D01*
X119490000Y-55300000D01*
G37*
X117200000Y-79700000D02*
G75*
G02*
X115800000Y-79700000I-700000J0D01*
G01*
X115800000Y-79700000D02*
G75*
G02*
X117200000Y-79700000I700000J0D01*
G01*
X160377500Y-60399758D02*
X160377500Y-59925242D01*
X161422500Y-60399758D02*
X161422500Y-59925242D01*
X115577500Y-56562742D02*
X115577500Y-57037258D01*
X116622500Y-56562742D02*
X116622500Y-57037258D01*
X117087500Y-56537742D02*
X117087500Y-57012258D01*
X118132500Y-56537742D02*
X118132500Y-57012258D01*
X133440000Y-67607836D02*
X133440000Y-67392164D01*
X134160000Y-67607836D02*
X134160000Y-67392164D01*
X133390000Y-69390000D02*
X133890000Y-69390000D01*
X133390000Y-69890000D02*
X133390000Y-69390000D01*
X133390000Y-78610000D02*
X133390000Y-78110000D01*
X133890000Y-78610000D02*
X133390000Y-78610000D01*
X142110000Y-69390000D02*
X142610000Y-69390000D01*
X142610000Y-69390000D02*
X142610000Y-69890000D01*
X142610000Y-78110000D02*
X142610000Y-78610000D01*
X142610000Y-78610000D02*
X142110000Y-78610000D01*
X143270000Y-77750000D02*
X143600000Y-77510000D01*
X143600000Y-77990000D01*
X143270000Y-77750000D01*
G36*
X143600000Y-77990000D02*
G01*
X143270000Y-77750000D01*
X143600000Y-77510000D01*
X143600000Y-77990000D01*
G37*
M02*
