%TF.GenerationSoftware,KiCad,Pcbnew,8.0.7-8.0.7-0~ubuntu22.04.1*%
%TF.CreationDate,2024-12-10T15:43:45-05:00*%
%TF.ProjectId,tinytapeout-demo,74696e79-7461-4706-956f-75742d64656d,2.1.0*%
%TF.SameCoordinates,PX38be5e0PY7d687e0*%
%TF.FileFunction,Soldermask,Bot*%
%TF.FilePolarity,Negative*%
%FSLAX46Y46*%
G04 Gerber Fmt 4.6, Leading zero omitted, Abs format (unit mm)*
G04 Created by KiCad (PCBNEW 8.0.7-8.0.7-0~ubuntu22.04.1) date 2024-12-10 15:43:45*
%MOMM*%
%LPD*%
G01*
G04 APERTURE LIST*
%ADD10C,0.900000*%
%ADD11C,6.400000*%
%ADD12R,1.700000X1.700000*%
%ADD13O,1.700000X1.700000*%
%ADD14C,1.700000*%
%ADD15C,0.650000*%
%ADD16O,1.000000X2.100000*%
%ADD17O,1.000000X1.600000*%
%ADD18R,1.000000X2.510000*%
G04 APERTURE END LIST*
D10*
%TO.C,JP7*%
X143000000Y-93500000D03*
X146000000Y-93500000D03*
%TD*%
%TO.C,JP1*%
X143000000Y-108500000D03*
X146000000Y-108500000D03*
%TD*%
D11*
%TO.C,MT3*%
X63000000Y-57000000D03*
%TD*%
D12*
%TO.C,J13*%
X64600000Y-99740000D03*
D13*
X64600000Y-97200000D03*
X64600000Y-94660000D03*
X64600000Y-92120000D03*
X64600000Y-89580000D03*
D14*
X64600000Y-87040000D03*
D13*
X62060000Y-99740000D03*
X62060000Y-97200000D03*
X62060000Y-94660000D03*
X62060000Y-92120000D03*
X62060000Y-89580000D03*
X62060000Y-87040000D03*
%TD*%
D14*
%TO.C,J2*%
X78620000Y-129000000D03*
D13*
X76080000Y-129000000D03*
X73540000Y-129000000D03*
X71000000Y-129000000D03*
%TD*%
D10*
%TO.C,JP3*%
X143000000Y-103500000D03*
X146000000Y-103500000D03*
%TD*%
%TO.C,JP8*%
X143000000Y-91000000D03*
X146000000Y-91000000D03*
%TD*%
D14*
%TO.C,J8*%
X124355000Y-129000000D03*
D13*
X121815000Y-129000000D03*
X119275000Y-129000000D03*
%TD*%
D12*
%TO.C,J12*%
X64600000Y-122600000D03*
D13*
X64600000Y-120060000D03*
X64600000Y-117520000D03*
X64600000Y-114980000D03*
X64600000Y-112440000D03*
D14*
X64600000Y-109900000D03*
D13*
X62060000Y-122600000D03*
X62060000Y-120060000D03*
X62060000Y-117520000D03*
X62060000Y-114980000D03*
X62060000Y-112440000D03*
X62060000Y-109900000D03*
%TD*%
D15*
%TO.C,J20*%
X129390000Y-59100000D03*
X123610000Y-59100000D03*
D16*
X130820000Y-59630000D03*
D17*
X130820000Y-55450000D03*
D16*
X122180000Y-59630000D03*
D17*
X122180000Y-55450000D03*
%TD*%
D12*
%TO.C,J3*%
X93855000Y-126455000D03*
D13*
X91315000Y-126455000D03*
X88775000Y-126455000D03*
X86235000Y-126455000D03*
X83695000Y-126455000D03*
D14*
X81155000Y-126455000D03*
D13*
X93855000Y-128995000D03*
X91315000Y-128995000D03*
X88775000Y-128995000D03*
X86235000Y-128995000D03*
X83695000Y-128995000D03*
X81155000Y-128995000D03*
%TD*%
D11*
%TO.C,MT4*%
X155500000Y-57000000D03*
%TD*%
%TO.C,MT2*%
X155500000Y-123500000D03*
%TD*%
D12*
%TO.C,J5*%
X116715000Y-126455000D03*
D13*
X114175000Y-126455000D03*
X111635000Y-126455000D03*
X109095000Y-126455000D03*
X106555000Y-126455000D03*
D14*
X104015000Y-126455000D03*
D13*
X116715000Y-128995000D03*
X114175000Y-128995000D03*
X111635000Y-128995000D03*
X109095000Y-128995000D03*
X106555000Y-128995000D03*
X104015000Y-128995000D03*
%TD*%
D10*
%TO.C,JP2*%
X143000000Y-106000000D03*
X146000000Y-106000000D03*
%TD*%
D12*
%TO.C,J10*%
X61725000Y-105395000D03*
D13*
X64265000Y-105395000D03*
%TD*%
D14*
%TO.C,J17*%
X101510000Y-129000000D03*
D13*
X98970000Y-129000000D03*
X96430000Y-129000000D03*
%TD*%
D12*
%TO.C,J9*%
X68500000Y-55300000D03*
D13*
X71040000Y-55300000D03*
X73580000Y-55300000D03*
X76120000Y-55300000D03*
X78660000Y-55300000D03*
X81200000Y-55300000D03*
X83740000Y-55300000D03*
X86280000Y-55300000D03*
X88820000Y-55300000D03*
X91360000Y-55300000D03*
X93900000Y-55300000D03*
X96440000Y-55300000D03*
X98980000Y-55300000D03*
X101520000Y-55300000D03*
X104060000Y-55300000D03*
X106600000Y-55300000D03*
%TD*%
D10*
%TO.C,JP5*%
X143000000Y-98500000D03*
X146000000Y-98500000D03*
%TD*%
D12*
%TO.C,J14*%
X64600000Y-76880000D03*
D13*
X64600000Y-74340000D03*
X64600000Y-71800000D03*
X64600000Y-69260000D03*
X64600000Y-66720000D03*
D14*
X64600000Y-64180000D03*
D13*
X62060000Y-76880000D03*
X62060000Y-74340000D03*
X62060000Y-71800000D03*
X62060000Y-69260000D03*
X62060000Y-66720000D03*
X62060000Y-64180000D03*
%TD*%
D10*
%TO.C,JP6*%
X143000000Y-96000000D03*
X146000000Y-96000000D03*
%TD*%
D12*
%TO.C,J1*%
X154810000Y-129000000D03*
D13*
X152270000Y-129000000D03*
X149730000Y-129000000D03*
X147190000Y-129000000D03*
X144650000Y-129000000D03*
X142110000Y-129000000D03*
%TD*%
D12*
%TO.C,J19*%
X112425000Y-64100000D03*
D13*
X114965000Y-64100000D03*
%TD*%
D12*
%TO.C,J6*%
X139575000Y-126455000D03*
D13*
X137035000Y-126455000D03*
X134495000Y-126455000D03*
X131955000Y-126455000D03*
X129415000Y-126455000D03*
D14*
X126875000Y-126455000D03*
D13*
X139575000Y-128995000D03*
X137035000Y-128995000D03*
X134495000Y-128995000D03*
X131955000Y-128995000D03*
X129415000Y-128995000D03*
X126875000Y-128995000D03*
%TD*%
D10*
%TO.C,JP4*%
X143000000Y-101000000D03*
X146000000Y-101000000D03*
%TD*%
D11*
%TO.C,MT1*%
X63000000Y-128000000D03*
%TD*%
D18*
%TO.C,J11*%
X118450000Y-71025000D03*
X115910000Y-74335000D03*
X113370000Y-71025000D03*
X110830000Y-74335000D03*
X108290000Y-71025000D03*
X105750000Y-74335000D03*
%TD*%
M02*
