M48
; DRILL file {KiCad 8.0.7-8.0.7-0~ubuntu22.04.1} date 2024-12-10T15:43:45-0500
; FORMAT={-:-/ absolute / metric / decimal}
; #@! TF.CreationDate,2024-12-10T15:43:45-05:00
; #@! TF.GenerationSoftware,Kicad,Pcbnew,8.0.7-8.0.7-0~ubuntu22.04.1
; #@! TF.FileFunction,MixedPlating,1,4
FMAT,2
METRIC
; #@! TA.AperFunction,Plated,PTH,ViaDrill
T1C0.300
; #@! TA.AperFunction,Plated,PTH,ComponentDrill
T2C0.300
; #@! TA.AperFunction,Plated,PTH,ViaDrill
T3C0.400
; #@! TA.AperFunction,Plated,PTH,ComponentDrill
T4C0.400
; #@! TA.AperFunction,Plated,PTH,ComponentDrill
T5C0.600
; #@! TA.AperFunction,Plated,PTH,ComponentDrill
T6C1.000
; #@! TA.AperFunction,Plated,PTH,ComponentDrill
T7C3.200
; #@! TA.AperFunction,NonPlated,NPTH,ComponentDrill
T8C0.650
%
G90
G05
T1
X85.6Y-57.8
X85.6Y-61.5
X88.701Y-89.349
X91.7Y-86.6
X96.328Y-106.774
X96.4Y-88.6
X96.828Y-90.5
X97.388Y-104.455
X97.4Y-107.3
X97.58Y-85.2
X103.2Y-88.8
X103.5Y-78.8
X104.2Y-87.8
X105.5Y-82.4
X105.5Y-87.6
X105.6Y-99.8
X106.4Y-83.4
X108.328Y-85.772
X108.4Y-80.5
X108.4Y-103.5
X109.0Y-100.302
X109.25Y-85.272
X109.703Y-97.9
X109.814Y-86.554
X110.0Y-79.7
X110.47Y-87.155
X110.959Y-102.4
X111.0Y-91.2
X111.2Y-81.9
X111.828Y-92.672
X111.828Y-97.979
X112.3Y-101.4
X112.45Y-90.55
X112.6Y-87.6
X113.324Y-96.911
X113.9Y-115.8
X114.4Y-104.373
X114.7Y-93.0
X114.7Y-94.5
X115.19Y-82.31
X115.303Y-80.165
X115.763Y-79.391
X116.081Y-85.0
X116.1Y-85.9
X116.3Y-88.8
X116.682Y-79.392
X117.18Y-96.2
X117.2Y-88.8
X117.8Y-114.8
X118.0Y-88.8
X118.451Y-99.703
X118.7Y-80.9
X118.8Y-116.0
X119.1Y-84.1
X119.1Y-88.7
X119.5Y-94.3
X119.758Y-90.989
X120.105Y-93.594
X120.199Y-88.972
X120.5Y-112.0
X120.6Y-64.8
X120.709Y-95.142
X120.882Y-80.03
X120.9Y-87.9
X121.067Y-113.267
X121.47Y-80.57
X121.654Y-64.615
X121.674Y-99.48
X121.694Y-92.6
X122.075Y-106.256
X122.139Y-91.315
X122.2Y-65.2
X122.371Y-90.462
X122.5Y-63.6
X122.7Y-107.262
X123.017Y-104.817
X123.054Y-89.9
X123.2Y-108.1
X123.332Y-89.036
X123.6Y-62.6
X124.0Y-123.23
X125.3Y-83.9
X125.5Y-105.273
X125.661Y-104.373
X125.7Y-87.9
X126.0Y-83.0
X126.0Y-84.5
X126.172Y-113.1
X126.3Y-87.1
X126.942Y-84.893
X127.0Y-105.5
X127.724Y-85.285
X127.727Y-107.5
X128.193Y-62.707
X128.734Y-85.685
X129.0Y-108.0
X129.5Y-63.6
X129.648Y-86.4
X130.0Y-112.0
X130.5Y-88.7
X130.594Y-101.062
X131.0Y-93.0
X132.0Y-90.0
X132.0Y-98.828
X132.8Y-62.0
X132.8Y-64.7
X136.786Y-99.458
X137.5Y-91.0
X137.5Y-93.0
X137.5Y-101.405
T2
X61.2Y-98.5
X61.2Y-108.3
X61.2Y-116.2
X70.9Y-119.8
X71.3Y-114.1
X76.0Y-114.1
X87.4Y-127.7
X92.1Y-118.9
X97.3Y-108.7
X108.1Y-67.4
X110.1Y-102.9
X110.2Y-95.6
X110.4Y-90.3
X117.15Y-86.5
X118.5Y-85.2
X118.5Y-87.8
X119.85Y-86.5
X122.3Y-79.8
X134.6Y-130.7
T3
X65.9Y-113.7
X66.8Y-95.3
X67.5Y-78.5
X67.5Y-97.5
X67.5Y-117.432
X67.8Y-127.5
X68.5Y-83.5
X68.5Y-92.0
X68.5Y-126.5
X69.1Y-65.7
X69.5Y-99.5
X69.8Y-75.7
X70.0Y-126.0
X70.222Y-90.777
X70.8Y-123.4
X71.094Y-124.356
X71.511Y-115.703
X71.8Y-93.5
X71.895Y-98.895
X72.1Y-76.2
X72.1Y-78.74
X72.1Y-81.28
X72.1Y-83.82
X72.1Y-86.36
X72.1Y-88.9
X72.1Y-91.44
X72.5Y-120.5
X72.521Y-121.5
X72.95Y-93.1
X73.0Y-100.5
X73.5Y-119.5
X73.87Y-87.321
X73.9Y-110.5
X74.2Y-57.8
X74.5Y-60.6
X74.5Y-61.5
X74.5Y-100.5
X74.5Y-125.2
X74.632Y-126.068
X75.32Y-107.976
X76.0Y-62.6
X76.0Y-111.0
X76.159Y-105.67
X76.511Y-117.432
X77.278Y-102.7
X77.278Y-114.5
X77.5Y-124.152
X77.9Y-71.6
X78.278Y-119.8
X78.8Y-124.8
X79.0Y-120.6
X79.5Y-73.5
X79.9Y-61.5
X80.0Y-59.4
X80.7Y-69.8
X80.9Y-121.8
X81.0Y-64.9
X82.0Y-70.5
X82.0Y-77.5
X82.0Y-104.0
X82.0Y-123.0
X82.9Y-59.4
X82.9Y-61.5
X83.0Y-91.5
X83.0Y-97.022
X84.0Y-98.0
X84.5Y-87.0
X84.723Y-122.277
X85.0Y-95.0
X85.5Y-73.0
X86.4Y-101.3
X86.6Y-105.645
X87.0Y-62.5
X87.0Y-69.2
X88.277Y-83.5
X88.489Y-120.832
X89.0Y-75.0
X89.5Y-84.222
X89.641Y-118.877
X90.2Y-70.6
X90.222Y-81.75
X90.5Y-91.5
X90.5Y-104.505
X91.315Y-117.432
X92.066Y-123.722
X92.07Y-80.07
X92.1Y-65.7
X92.2Y-69.2
X92.277Y-95.23
X92.277Y-97.73
X92.277Y-100.33
X92.277Y-102.93
X92.277Y-105.43
X92.277Y-107.93
X92.277Y-113.03
X92.3Y-92.7
X92.4Y-72.5
X94.4Y-66.1
X95.1Y-58.9
X96.512Y-70.993
X96.6Y-60.0
X96.6Y-85.2
X96.609Y-123.722
X96.777Y-70.029
X97.119Y-57.041
X97.3Y-83.5
X97.4Y-109.8
X97.5Y-74.8
X97.6Y-80.0
X98.722Y-110.5
X99.281Y-123.752
X99.3Y-126.5
X99.7Y-88.57
X100.12Y-122.277
X100.29Y-68.231
X100.33Y-124.382
X101.07Y-57.644
X101.078Y-72.4
X101.078Y-76.43
X101.5Y-108.01
X101.6Y-80.1
X101.68Y-124.882
X101.8Y-77.5
X101.804Y-56.922
X102.222Y-110.777
X102.317Y-83.305
X102.422Y-113.17
X102.522Y-67.828
X102.522Y-70.048
X102.706Y-77.924
X102.958Y-119.492
X103.0Y-105.5
X103.3Y-64.7
X103.4Y-82.0
X104.4Y-99.752
X104.5Y-91.0
X104.5Y-94.1
X104.5Y-97.2
X104.6Y-92.1
X104.7Y-63.2
X104.7Y-66.6
X105.5Y-81.6
X105.5Y-86.8
X105.5Y-100.6
X105.7Y-72.4
X106.0Y-123.552
X106.4Y-109.5
X106.8Y-66.7
X106.842Y-62.815
X106.842Y-67.6
X106.842Y-70.5
X106.856Y-60.292
X106.88Y-74.0
X106.955Y-123.751
X107.2Y-102.9
X108.4Y-66.4
X108.505Y-72.191
X108.9Y-63.2
X109.135Y-119.492
X109.9Y-72.435
X110.88Y-57.015
X111.1Y-65.5
X111.117Y-120.937
X111.5Y-73.8
X111.8Y-124.3
X112.0Y-118.5
X112.2Y-66.9
X112.3Y-78.0
X112.8Y-54.85
X112.8Y-58.6
X113.0Y-77.0
X113.389Y-120.455
X114.0Y-72.1
X114.451Y-54.883
X114.536Y-60.615
X114.982Y-69.924
X115.5Y-76.2
X115.6Y-69.1
X115.884Y-70.586
X115.9Y-121.578
X116.011Y-71.989
X116.79Y-57.904
X116.8Y-54.7
X117.0Y-61.7
X117.4Y-63.4
X118.0Y-122.322
X118.45Y-68.3
X118.5Y-66.7
X118.6Y-61.6
X118.8Y-69.3
X119.3Y-124.6
X119.4Y-73.7
X120.3Y-61.5
X120.8Y-127.1
X121.5Y-61.2
X122.0Y-126.3
X122.1Y-61.8
X123.1Y-123.2
X124.0Y-82.5
X124.2Y-124.752
X124.236Y-88.726
X125.1Y-67.9
X125.2Y-126.7
X125.4Y-120.877
X126.0Y-124.1
X126.895Y-120.1
X127.7Y-121.377
X128.8Y-122.1
X129.8Y-119.1
X130.7Y-120.5
X130.9Y-62.5
X130.9Y-119.1
X131.3Y-61.8
X131.762Y-87.45
X132.0Y-110.5
X132.0Y-115.5
X132.2Y-67.4
X132.2Y-70.0
X134.5Y-94.0
X135.8Y-130.7
X136.0Y-98.6
X136.0Y-103.5
X136.722Y-120.097
X137.1Y-72.4
X137.1Y-74.95
X137.1Y-77.45
X137.1Y-79.95
X137.1Y-82.45
X137.1Y-84.95
X137.1Y-87.45
X137.4Y-57.9
X137.4Y-60.4
X138.5Y-58.9
X138.5Y-62.2
X139.5Y-96.5
X139.5Y-101.52
X139.5Y-109.5
X140.1Y-65.9
X141.2Y-119.4
X141.589Y-94.411
X141.73Y-99.751
X142.0Y-57.8
X142.0Y-60.4
X142.0Y-115.5
X142.7Y-102.2
X142.778Y-124.56
X143.363Y-125.4
X143.8Y-121.9
X145.0Y-124.8
X145.7Y-57.2
X145.8Y-54.2
X147.1Y-122.0
X149.85Y-107.043
X150.0Y-98.5
X150.6Y-101.2
X150.63Y-107.87
X151.5Y-55.0
X151.5Y-56.0
X152.4Y-67.4
X152.5Y-70.2
X152.5Y-120.5
X152.9Y-61.3
X153.1Y-119.9
X153.3Y-67.4
X153.4Y-70.2
X154.1Y-92.1
X154.1Y-97.6
X154.4Y-107.4
X154.95Y-96.75
X155.1Y-109.8
X155.85Y-96.2
X156.1Y-109.0
X156.7Y-91.1
X156.8Y-103.6
T4
X60.3Y-65.4
X60.3Y-67.94
X60.3Y-70.48
X60.3Y-73.02
X60.3Y-75.56
X60.3Y-78.1
X60.3Y-88.1
X60.3Y-93.6
X60.5Y-121.5
X66.4Y-122.5
X66.4Y-125.3
X68.2Y-60.6
X68.2Y-62.9
X68.6Y-128.4
X70.8Y-78.5
X70.8Y-86.2
X71.4Y-90.1
X71.4Y-100.2
X71.6Y-125.4
X72.3Y-130.7
X73.4Y-60.4
X73.4Y-68.7
X73.5Y-111.7
X74.8Y-130.7
X75.5Y-63.7
X75.7Y-82.6
X75.7Y-87.8
X75.7Y-92.7
X76.4Y-104.1
X77.0Y-120.1
X77.3Y-130.7
X78.0Y-60.6
X79.5Y-71.7
X80.0Y-122.5
X81.9Y-69.2
X83.0Y-89.0
X83.1Y-76.7
X83.8Y-101.6
X84.1Y-60.6
X86.0Y-97.8
X86.4Y-124.6
X87.2Y-73.1
X87.3Y-99.7
X88.1Y-58.0
X88.1Y-63.7
X90.3Y-80.1
X90.9Y-85.4
X92.8Y-58.1
X92.9Y-130.7
X94.1Y-124.6
X96.4Y-58.7
X96.8Y-125.0
X97.7Y-130.7
X100.0Y-117.2
X102.7Y-130.7
X103.8Y-75.5
X104.2Y-119.0
X105.2Y-60.4
X107.4Y-100.5
X107.5Y-81.0
X107.5Y-86.7
X107.5Y-90.4
X107.5Y-95.3
X107.5Y-97.6
X107.5Y-109.0
X108.4Y-121.0
X108.4Y-124.2
X110.3Y-130.7
X111.2Y-79.1
X112.9Y-130.7
X113.1Y-118.8
X113.7Y-76.1
X114.2Y-96.4
X115.4Y-130.7
X117.9Y-130.7
X119.9Y-66.7
X119.9Y-69.9
X119.9Y-74.7
X119.9Y-77.9
X120.5Y-130.7
X122.1Y-108.9
X122.1Y-113.7
X122.1Y-118.7
X122.5Y-68.9
X122.5Y-72.9
X122.5Y-76.9
X123.1Y-130.7
X125.1Y-55.1
X125.1Y-58.1
X126.3Y-68.4
X127.1Y-64.9
X127.7Y-55.1
X127.7Y-58.1
X127.7Y-84.1
X129.8Y-85.3
X131.1Y-91.9
X131.7Y-103.8
X131.9Y-121.3
X136.0Y-121.3
X137.1Y-67.3
X142.4Y-121.3
X142.9Y-72.4
X142.9Y-74.94
X142.9Y-77.48
X142.9Y-80.02
X142.9Y-82.56
X142.9Y-85.1
X142.9Y-87.64
X146.1Y-125.5
X147.1Y-120.8
X147.4Y-89.6
X147.4Y-92.3
X147.4Y-94.7
X147.4Y-97.2
X147.4Y-99.7
X147.4Y-102.2
X147.4Y-104.7
X147.4Y-107.2
X147.4Y-109.6
X148.4Y-130.7
X150.4Y-66.4
X150.4Y-71.4
X150.4Y-119.2
X154.0Y-119.2
X154.2Y-102.5
X154.3Y-66.4
X154.3Y-71.4
X156.2Y-110.5
X158.1Y-129.0
X158.2Y-61.4
X158.2Y-66.4
X158.2Y-71.4
X158.2Y-76.4
X158.2Y-81.4
X158.2Y-86.4
X158.2Y-91.4
X158.2Y-96.4
X158.2Y-101.4
X158.2Y-106.4
X158.2Y-111.4
X158.2Y-116.4
T5
X143.0Y-91.0
X143.0Y-93.5
X143.0Y-96.0
X143.0Y-98.5
X143.0Y-101.0
X143.0Y-103.5
X143.0Y-106.0
X143.0Y-108.5
X146.0Y-91.0
X146.0Y-93.5
X146.0Y-96.0
X146.0Y-98.5
X146.0Y-101.0
X146.0Y-103.5
X146.0Y-106.0
X146.0Y-108.5
T6
X61.725Y-105.395
X62.06Y-64.18
X62.06Y-66.72
X62.06Y-69.26
X62.06Y-71.8
X62.06Y-74.34
X62.06Y-76.88
X62.06Y-87.04
X62.06Y-89.58
X62.06Y-92.12
X62.06Y-94.66
X62.06Y-97.2
X62.06Y-99.74
X62.06Y-109.9
X62.06Y-112.44
X62.06Y-114.98
X62.06Y-117.52
X62.06Y-120.06
X62.06Y-122.6
X64.265Y-105.395
X64.6Y-64.18
X64.6Y-66.72
X64.6Y-69.26
X64.6Y-71.8
X64.6Y-74.34
X64.6Y-76.88
X64.6Y-87.04
X64.6Y-89.58
X64.6Y-92.12
X64.6Y-94.66
X64.6Y-97.2
X64.6Y-99.74
X64.6Y-109.9
X64.6Y-112.44
X64.6Y-114.98
X64.6Y-117.52
X64.6Y-120.06
X64.6Y-122.6
X68.5Y-55.3
X71.0Y-129.0
X71.04Y-55.3
X73.54Y-129.0
X73.58Y-55.3
X76.08Y-129.0
X76.12Y-55.3
X78.62Y-129.0
X78.66Y-55.3
X81.155Y-126.455
X81.155Y-128.995
X81.2Y-55.3
X83.695Y-126.455
X83.695Y-128.995
X83.74Y-55.3
X86.235Y-126.455
X86.235Y-128.995
X86.28Y-55.3
X88.775Y-126.455
X88.775Y-128.995
X88.82Y-55.3
X91.315Y-126.455
X91.315Y-128.995
X91.36Y-55.3
X93.855Y-126.455
X93.855Y-128.995
X93.9Y-55.3
X96.43Y-129.0
X96.44Y-55.3
X98.97Y-129.0
X98.98Y-55.3
X101.51Y-129.0
X101.52Y-55.3
X104.015Y-126.455
X104.015Y-128.995
X104.06Y-55.3
X106.555Y-126.455
X106.555Y-128.995
X106.6Y-55.3
X109.095Y-126.455
X109.095Y-128.995
X111.635Y-126.455
X111.635Y-128.995
X112.425Y-64.1
X114.175Y-126.455
X114.175Y-128.995
X114.965Y-64.1
X116.715Y-126.455
X116.715Y-128.995
X119.275Y-129.0
X121.815Y-129.0
X124.355Y-129.0
X126.875Y-126.455
X126.875Y-128.995
X129.415Y-126.455
X129.415Y-128.995
X131.955Y-126.455
X131.955Y-128.995
X134.495Y-126.455
X134.495Y-128.995
X137.035Y-126.455
X137.035Y-128.995
X139.575Y-126.455
X139.575Y-128.995
X142.11Y-129.0
X144.65Y-129.0
X147.19Y-129.0
X149.73Y-129.0
X152.27Y-129.0
X154.81Y-129.0
T7
X63.0Y-57.0
X63.0Y-128.0
X155.5Y-57.0
X155.5Y-123.5
T8
X123.61Y-59.1
X129.39Y-59.1
T5
G00X122.18Y-55.75
M15
G01X122.18Y-55.15
M16
G05
G00X122.18Y-60.18
M15
G01X122.18Y-59.08
M16
G05
G00X130.82Y-55.75
M15
G01X130.82Y-55.15
M16
G05
G00X130.82Y-60.18
M15
G01X130.82Y-59.08
M16
G05
M30
