%TF.GenerationSoftware,KiCad,Pcbnew,8.0.7-8.0.7-0~ubuntu22.04.1*%
%TF.CreationDate,2024-12-10T15:43:45-05:00*%
%TF.ProjectId,tinytapeout-demo,74696e79-7461-4706-956f-75742d64656d,2.1.0*%
%TF.SameCoordinates,PX38be5e0PY7d687e0*%
%TF.FileFunction,Other,User*%
%FSLAX46Y46*%
G04 Gerber Fmt 4.6, Leading zero omitted, Abs format (unit mm)*
G04 Created by KiCad (PCBNEW 8.0.7-8.0.7-0~ubuntu22.04.1) date 2024-12-10 15:43:45*
%MOMM*%
%LPD*%
G01*
G04 APERTURE LIST*
%ADD10C,0.050000*%
%ADD11C,0.120000*%
G04 APERTURE END LIST*
D10*
%TO.C,JP7*%
X142850000Y-92250000D02*
X142850000Y-94750000D01*
X142850000Y-92250000D02*
X146150000Y-92250000D01*
X146150000Y-94750000D02*
X142850000Y-94750000D01*
X146150000Y-94750000D02*
X146150000Y-92250000D01*
%TO.C,R53*%
X129170000Y-76510000D02*
X131030000Y-76510000D01*
X129170000Y-77450000D02*
X129170000Y-76510000D01*
X131030000Y-76510000D02*
X131030000Y-77450000D01*
X131030000Y-77450000D02*
X129170000Y-77450000D01*
%TO.C,R15*%
X146030000Y-55670000D02*
X146970000Y-55670000D01*
X146030000Y-57530000D02*
X146030000Y-55670000D01*
X146970000Y-55670000D02*
X146970000Y-57530000D01*
X146970000Y-57530000D02*
X146030000Y-57530000D01*
%TO.C,C32*%
X117070000Y-77420000D02*
X118530000Y-77420000D01*
X117070000Y-80380000D02*
X117070000Y-77420000D01*
X118530000Y-77420000D02*
X118530000Y-80380000D01*
X118530000Y-80380000D02*
X117070000Y-80380000D01*
%TO.C,C23*%
X144140000Y-65790000D02*
X145060000Y-65790000D01*
X144140000Y-67610000D02*
X144140000Y-65790000D01*
X145060000Y-65790000D02*
X145060000Y-67610000D01*
X145060000Y-67610000D02*
X144140000Y-67610000D01*
%TO.C,C36*%
X118490000Y-92390000D02*
X120310000Y-92390000D01*
X118490000Y-93310000D02*
X118490000Y-92390000D01*
X120310000Y-92390000D02*
X120310000Y-93310000D01*
X120310000Y-93310000D02*
X118490000Y-93310000D01*
%TO.C,R55*%
X129170000Y-71830000D02*
X131030000Y-71830000D01*
X129170000Y-72770000D02*
X129170000Y-71830000D01*
X131030000Y-71830000D02*
X131030000Y-72770000D01*
X131030000Y-72770000D02*
X129170000Y-72770000D01*
%TO.C,JP1*%
X142850000Y-107250000D02*
X142850000Y-109750000D01*
X142850000Y-107250000D02*
X146150000Y-107250000D01*
X146150000Y-109750000D02*
X142850000Y-109750000D01*
X146150000Y-109750000D02*
X146150000Y-107250000D01*
%TO.C,R20*%
X120170000Y-63280000D02*
X122030000Y-63280000D01*
X120170000Y-64220000D02*
X120170000Y-63280000D01*
X122030000Y-63280000D02*
X122030000Y-64220000D01*
X122030000Y-64220000D02*
X120170000Y-64220000D01*
%TO.C,MT3*%
X66450000Y-57000000D02*
G75*
G02*
X59550000Y-57000000I-3450000J0D01*
G01*
X59550000Y-57000000D02*
G75*
G02*
X66450000Y-57000000I3450000J0D01*
G01*
%TO.C,C16*%
X146920000Y-69450000D02*
X148880000Y-69450000D01*
X146920000Y-72850000D02*
X146920000Y-69450000D01*
X148880000Y-69450000D02*
X148880000Y-72850000D01*
X148880000Y-72850000D02*
X146920000Y-72850000D01*
%TO.C,FID3*%
X158750000Y-63500000D02*
G75*
G02*
X156250000Y-63500000I-1250000J0D01*
G01*
X156250000Y-63500000D02*
G75*
G02*
X158750000Y-63500000I1250000J0D01*
G01*
%TO.C,R38*%
X118330000Y-69670000D02*
X119270000Y-69670000D01*
X118330000Y-71530000D02*
X118330000Y-69670000D01*
X119270000Y-69670000D02*
X119270000Y-71530000D01*
X119270000Y-71530000D02*
X118330000Y-71530000D01*
%TO.C,C48*%
X119570000Y-58220000D02*
X121030000Y-58220000D01*
X119570000Y-61180000D02*
X119570000Y-58220000D01*
X121030000Y-58220000D02*
X121030000Y-61180000D01*
X121030000Y-61180000D02*
X119570000Y-61180000D01*
%TO.C,J13*%
X51550000Y-85240000D02*
X51550000Y-101490000D01*
X51550000Y-101490000D02*
X66400000Y-101490000D01*
X66400000Y-85240000D02*
X51550000Y-85240000D01*
X66400000Y-101490000D02*
X66400000Y-85240000D01*
%TO.C,C6*%
X108500000Y-66020000D02*
X111900000Y-66020000D01*
X108500000Y-67980000D02*
X108500000Y-66020000D01*
X111900000Y-66020000D02*
X111900000Y-67980000D01*
X111900000Y-67980000D02*
X108500000Y-67980000D01*
%TO.C,R5*%
X72560000Y-83358571D02*
X74420000Y-83358571D01*
X72560000Y-84298571D02*
X72560000Y-83358571D01*
X74420000Y-83358571D02*
X74420000Y-84298571D01*
X74420000Y-84298571D02*
X72560000Y-84298571D01*
%TO.C,C56*%
X67940000Y-109990000D02*
X68860000Y-109990000D01*
X67940000Y-111810000D02*
X67940000Y-109990000D01*
X68860000Y-109990000D02*
X68860000Y-111810000D01*
X68860000Y-111810000D02*
X67940000Y-111810000D01*
%TO.C,C7*%
X112900000Y-54620000D02*
X116300000Y-54620000D01*
X112900000Y-56580000D02*
X112900000Y-54620000D01*
X116300000Y-54620000D02*
X116300000Y-56580000D01*
X116300000Y-56580000D02*
X112900000Y-56580000D01*
%TO.C,R7*%
X87830000Y-107270000D02*
X90790000Y-107270000D01*
X87830000Y-108730000D02*
X87830000Y-107270000D01*
X90790000Y-107270000D02*
X90790000Y-108730000D01*
X90790000Y-108730000D02*
X87830000Y-108730000D01*
%TO.C,R1*%
X72560000Y-93530000D02*
X74420000Y-93530000D01*
X72560000Y-94470000D02*
X72560000Y-93530000D01*
X74420000Y-93530000D02*
X74420000Y-94470000D01*
X74420000Y-94470000D02*
X72560000Y-94470000D01*
%TO.C,C29*%
X115290000Y-92540000D02*
X117110000Y-92540000D01*
X115290000Y-93460000D02*
X115290000Y-92540000D01*
X117110000Y-92540000D02*
X117110000Y-93460000D01*
X117110000Y-93460000D02*
X115290000Y-93460000D01*
%TO.C,J2*%
X69220000Y-127200000D02*
X69220000Y-130800000D01*
X69220000Y-130800000D02*
X80420000Y-130800000D01*
X80420000Y-127200000D02*
X69220000Y-127200000D01*
X80420000Y-130800000D02*
X80420000Y-127200000D01*
%TO.C,C24*%
X87790000Y-70040000D02*
X89610000Y-70040000D01*
X87790000Y-70960000D02*
X87790000Y-70040000D01*
X89610000Y-70040000D02*
X89610000Y-70960000D01*
X89610000Y-70960000D02*
X87790000Y-70960000D01*
%TO.C,C8*%
X124040000Y-125290000D02*
X124960000Y-125290000D01*
X124040000Y-127110000D02*
X124040000Y-125290000D01*
X124960000Y-125290000D02*
X124960000Y-127110000D01*
X124960000Y-127110000D02*
X124040000Y-127110000D01*
%TO.C,Y1*%
X114900000Y-93650000D02*
X114900000Y-97050000D01*
X114900000Y-97050000D02*
X119100000Y-97050000D01*
X119100000Y-93650000D02*
X114900000Y-93650000D01*
X119100000Y-97050000D02*
X119100000Y-93650000D01*
%TO.C,R18*%
X136930000Y-55670000D02*
X137870000Y-55670000D01*
X136930000Y-57530000D02*
X136930000Y-55670000D01*
X137870000Y-55670000D02*
X137870000Y-57530000D01*
X137870000Y-57530000D02*
X136930000Y-57530000D01*
%TO.C,C58*%
X66440000Y-61490000D02*
X67360000Y-61490000D01*
X66440000Y-63310000D02*
X66440000Y-61490000D01*
X67360000Y-61490000D02*
X67360000Y-63310000D01*
X67360000Y-63310000D02*
X66440000Y-63310000D01*
%TO.C,R50*%
X136430000Y-63070000D02*
X137370000Y-63070000D01*
X136430000Y-64930000D02*
X136430000Y-63070000D01*
X137370000Y-63070000D02*
X137370000Y-64930000D01*
X137370000Y-64930000D02*
X136430000Y-64930000D01*
%TO.C,R11*%
X72570000Y-75730000D02*
X74430000Y-75730000D01*
X72570000Y-76670000D02*
X72570000Y-75730000D01*
X74430000Y-75730000D02*
X74430000Y-76670000D01*
X74430000Y-76670000D02*
X72570000Y-76670000D01*
%TO.C,R43*%
X103070000Y-100030000D02*
X104930000Y-100030000D01*
X103070000Y-100970000D02*
X103070000Y-100030000D01*
X104930000Y-100030000D02*
X104930000Y-100970000D01*
X104930000Y-100970000D02*
X103070000Y-100970000D01*
%TO.C,C46*%
X131390000Y-62340000D02*
X133210000Y-62340000D01*
X131390000Y-63260000D02*
X131390000Y-62340000D01*
X133210000Y-62340000D02*
X133210000Y-63260000D01*
X133210000Y-63260000D02*
X131390000Y-63260000D01*
%TO.C,C4*%
X78340000Y-125290000D02*
X79260000Y-125290000D01*
X78340000Y-127110000D02*
X78340000Y-125290000D01*
X79260000Y-125290000D02*
X79260000Y-127110000D01*
X79260000Y-127110000D02*
X78340000Y-127110000D01*
%TO.C,R24*%
X146410000Y-103001428D02*
X148270000Y-103001428D01*
X146410000Y-103941428D02*
X146410000Y-103001428D01*
X148270000Y-103001428D02*
X148270000Y-103941428D01*
X148270000Y-103941428D02*
X146410000Y-103941428D01*
%TO.C,R22*%
X146560000Y-107990000D02*
X148420000Y-107990000D01*
X146560000Y-108930000D02*
X146560000Y-107990000D01*
X148420000Y-107990000D02*
X148420000Y-108930000D01*
X148420000Y-108930000D02*
X146560000Y-108930000D01*
%TO.C,C47*%
X120190000Y-62290000D02*
X122010000Y-62290000D01*
X120190000Y-63210000D02*
X120190000Y-62290000D01*
X122010000Y-62290000D02*
X122010000Y-63210000D01*
X122010000Y-63210000D02*
X120190000Y-63210000D01*
%TO.C,JP3*%
X142850000Y-102250000D02*
X142850000Y-104750000D01*
X142850000Y-102250000D02*
X146150000Y-102250000D01*
X146150000Y-104750000D02*
X142850000Y-104750000D01*
X146150000Y-104750000D02*
X146150000Y-102250000D01*
%TO.C,R3*%
X72560000Y-88444285D02*
X74420000Y-88444285D01*
X72560000Y-89384285D02*
X72560000Y-88444285D01*
X74420000Y-88444285D02*
X74420000Y-89384285D01*
X74420000Y-89384285D02*
X72560000Y-89384285D01*
%TO.C,JP8*%
X142850000Y-89750000D02*
X142850000Y-92250000D01*
X142850000Y-89750000D02*
X146150000Y-89750000D01*
X146150000Y-92250000D02*
X142850000Y-92250000D01*
X146150000Y-92250000D02*
X146150000Y-89750000D01*
%TO.C,J8*%
X117505000Y-127200000D02*
X117505000Y-130800000D01*
X117505000Y-130800000D02*
X126155000Y-130800000D01*
X126155000Y-127200000D02*
X117505000Y-127200000D01*
X126155000Y-130800000D02*
X126155000Y-127200000D01*
%TO.C,C2*%
X72990000Y-105140000D02*
X74810000Y-105140000D01*
X72990000Y-106060000D02*
X72990000Y-105140000D01*
X74810000Y-105140000D02*
X74810000Y-106060000D01*
X74810000Y-106060000D02*
X72990000Y-106060000D01*
%TO.C,J12*%
X51550000Y-108100000D02*
X51550000Y-124350000D01*
X51550000Y-124350000D02*
X66400000Y-124350000D01*
X66400000Y-108100000D02*
X51550000Y-108100000D01*
X66400000Y-124350000D02*
X66400000Y-108100000D01*
%TO.C,R41*%
X111403884Y-83041018D02*
X113263884Y-83041018D01*
X111403884Y-83981018D02*
X111403884Y-83041018D01*
X113263884Y-83041018D02*
X113263884Y-83981018D01*
X113263884Y-83981018D02*
X111403884Y-83981018D01*
D11*
%TO.C,SW2*%
X75750000Y-100250000D02*
X75750000Y-108650000D01*
X75750000Y-108650000D02*
X80250000Y-108650000D01*
X80250000Y-100250000D02*
X75750000Y-100250000D01*
X80250000Y-108650000D02*
X80250000Y-100250000D01*
D10*
%TO.C,R8*%
X73580000Y-106530000D02*
X75440000Y-106530000D01*
X73580000Y-107470000D02*
X73580000Y-106530000D01*
X75440000Y-106530000D02*
X75440000Y-107470000D01*
X75440000Y-107470000D02*
X73580000Y-107470000D01*
%TO.C,R54*%
X129170000Y-74170000D02*
X131030000Y-74170000D01*
X129170000Y-75110000D02*
X129170000Y-74170000D01*
X131030000Y-74170000D02*
X131030000Y-75110000D01*
X131030000Y-75110000D02*
X129170000Y-75110000D01*
%TO.C,C49*%
X116420000Y-59770000D02*
X119380000Y-59770000D01*
X116420000Y-61230000D02*
X116420000Y-59770000D01*
X119380000Y-59770000D02*
X119380000Y-61230000D01*
X119380000Y-61230000D02*
X116420000Y-61230000D01*
%TO.C,C35*%
X123390000Y-87440000D02*
X125210000Y-87440000D01*
X123390000Y-88360000D02*
X123390000Y-87440000D01*
X125210000Y-87440000D02*
X125210000Y-88360000D01*
X125210000Y-88360000D02*
X123390000Y-88360000D01*
%TO.C,J20*%
X121180000Y-61770000D02*
X121180000Y-52350000D01*
X131820000Y-52350000D02*
X121180000Y-52350000D01*
X131820000Y-61770000D02*
X121180000Y-61770000D01*
X131820000Y-61770000D02*
X131820000Y-52350000D01*
%TO.C,J3*%
X79355000Y-124655000D02*
X79355000Y-139505000D01*
X79355000Y-139505000D02*
X95605000Y-139505000D01*
X95605000Y-124655000D02*
X79355000Y-124655000D01*
X95605000Y-139505000D02*
X95605000Y-124655000D01*
%TO.C,J7*%
X113950000Y-113050000D02*
X113950000Y-119950000D01*
X113950000Y-119950000D02*
X120050000Y-119950000D01*
X120050000Y-113050000D02*
X113950000Y-113050000D01*
X120050000Y-119950000D02*
X120050000Y-113050000D01*
%TO.C,R12*%
X88080000Y-108730000D02*
X89940000Y-108730000D01*
X88080000Y-109670000D02*
X88080000Y-108730000D01*
X89940000Y-108730000D02*
X89940000Y-109670000D01*
X89940000Y-109670000D02*
X88080000Y-109670000D01*
%TO.C,C25*%
X87370000Y-67020000D02*
X88830000Y-67020000D01*
X87370000Y-69980000D02*
X87370000Y-67020000D01*
X88830000Y-67020000D02*
X88830000Y-69980000D01*
X88830000Y-69980000D02*
X87370000Y-69980000D01*
%TO.C,MT4*%
X158950000Y-57000000D02*
G75*
G02*
X152050000Y-57000000I-3450000J0D01*
G01*
X152050000Y-57000000D02*
G75*
G02*
X158950000Y-57000000I3450000J0D01*
G01*
%TO.C,MT2*%
X158950000Y-123500000D02*
G75*
G02*
X152050000Y-123500000I-3450000J0D01*
G01*
X152050000Y-123500000D02*
G75*
G02*
X158950000Y-123500000I3450000J0D01*
G01*
%TO.C,C5*%
X76770000Y-124220000D02*
X78230000Y-124220000D01*
X76770000Y-127180000D02*
X76770000Y-124220000D01*
X78230000Y-124220000D02*
X78230000Y-127180000D01*
X78230000Y-127180000D02*
X76770000Y-127180000D01*
%TO.C,R13*%
X72630000Y-106570000D02*
X73570000Y-106570000D01*
X72630000Y-108430000D02*
X72630000Y-106570000D01*
X73570000Y-106570000D02*
X73570000Y-108430000D01*
X73570000Y-108430000D02*
X72630000Y-108430000D01*
%TO.C,R21*%
X131370000Y-63330000D02*
X133230000Y-63330000D01*
X131370000Y-64270000D02*
X131370000Y-63330000D01*
X133230000Y-63330000D02*
X133230000Y-64270000D01*
X133230000Y-64270000D02*
X131370000Y-64270000D01*
%TO.C,R42*%
X103080000Y-102530000D02*
X104940000Y-102530000D01*
X103080000Y-103470000D02*
X103080000Y-102530000D01*
X104940000Y-102530000D02*
X104940000Y-103470000D01*
X104940000Y-103470000D02*
X103080000Y-103470000D01*
%TO.C,J5*%
X102215000Y-124655000D02*
X102215000Y-139505000D01*
X102215000Y-139505000D02*
X118465000Y-139505000D01*
X118465000Y-124655000D02*
X102215000Y-124655000D01*
X118465000Y-139505000D02*
X118465000Y-124655000D01*
%TO.C,C21*%
X89020000Y-66350000D02*
X90980000Y-66350000D01*
X89020000Y-69750000D02*
X89020000Y-66350000D01*
X90980000Y-66350000D02*
X90980000Y-69750000D01*
X90980000Y-69750000D02*
X89020000Y-69750000D01*
%TO.C,R49*%
X111070000Y-58920000D02*
X112530000Y-58920000D01*
X111070000Y-61880000D02*
X111070000Y-58920000D01*
X112530000Y-58920000D02*
X112530000Y-61880000D01*
X112530000Y-61880000D02*
X111070000Y-61880000D01*
%TO.C,R2*%
X72560000Y-90987142D02*
X74420000Y-90987142D01*
X72560000Y-91927142D02*
X72560000Y-90987142D01*
X74420000Y-90987142D02*
X74420000Y-91927142D01*
X74420000Y-91927142D02*
X72560000Y-91927142D01*
%TO.C,D5*%
X125920000Y-62870000D02*
X128880000Y-62870000D01*
X125920000Y-64330000D02*
X125920000Y-62870000D01*
X128880000Y-62870000D02*
X128880000Y-64330000D01*
X128880000Y-64330000D02*
X125920000Y-64330000D01*
%TO.C,JP2*%
X142850000Y-104750000D02*
X142850000Y-107250000D01*
X142850000Y-104750000D02*
X146150000Y-104750000D01*
X146150000Y-107250000D02*
X142850000Y-107250000D01*
X146150000Y-107250000D02*
X146150000Y-104750000D01*
%TO.C,C30*%
X119240000Y-94990000D02*
X120160000Y-94990000D01*
X119240000Y-96810000D02*
X119240000Y-94990000D01*
X120160000Y-94990000D02*
X120160000Y-96810000D01*
X120160000Y-96810000D02*
X119240000Y-96810000D01*
%TO.C,R28*%
X146560000Y-93024284D02*
X148420000Y-93024284D01*
X146560000Y-93964284D02*
X146560000Y-93024284D01*
X148420000Y-93024284D02*
X148420000Y-93964284D01*
X148420000Y-93964284D02*
X146560000Y-93964284D01*
%TO.C,C39*%
X111690000Y-81440000D02*
X113510000Y-81440000D01*
X111690000Y-82360000D02*
X111690000Y-81440000D01*
X113510000Y-81440000D02*
X113510000Y-82360000D01*
X113510000Y-82360000D02*
X111690000Y-82360000D01*
%TO.C,U1*%
D11*
X149000000Y-106000000D02*
X157000000Y-106000000D01*
X157000000Y-94000000D01*
X149000000Y-94000000D01*
X149000000Y-106000000D01*
D10*
%TO.C,R23*%
X146560000Y-105495714D02*
X148420000Y-105495714D01*
X146560000Y-106435714D02*
X146560000Y-105495714D01*
X148420000Y-105495714D02*
X148420000Y-106435714D01*
X148420000Y-106435714D02*
X146560000Y-106435714D01*
%TO.C,C38*%
X110490000Y-86540000D02*
X112310000Y-86540000D01*
X110490000Y-87460000D02*
X110490000Y-86540000D01*
X112310000Y-86540000D02*
X112310000Y-87460000D01*
X112310000Y-87460000D02*
X110490000Y-87460000D01*
%TO.C,R45*%
X103070000Y-94530000D02*
X104930000Y-94530000D01*
X103070000Y-95470000D02*
X103070000Y-94530000D01*
X104930000Y-94530000D02*
X104930000Y-95470000D01*
X104930000Y-95470000D02*
X103070000Y-95470000D01*
%TO.C,U5*%
X108850000Y-68940000D02*
X108850000Y-74660000D01*
X108850000Y-74660000D02*
X118150000Y-74660000D01*
X118150000Y-68940000D02*
X108850000Y-68940000D01*
X118150000Y-74660000D02*
X118150000Y-68940000D01*
%TO.C,R51*%
X129170000Y-81190000D02*
X131030000Y-81190000D01*
X129170000Y-82130000D02*
X129170000Y-81190000D01*
X131030000Y-81190000D02*
X131030000Y-82130000D01*
X131030000Y-82130000D02*
X129170000Y-82130000D01*
%TO.C,C37*%
X122870000Y-79220000D02*
X124330000Y-79220000D01*
X122870000Y-82180000D02*
X122870000Y-79220000D01*
X124330000Y-79220000D02*
X124330000Y-82180000D01*
X124330000Y-82180000D02*
X122870000Y-82180000D01*
%TO.C,R35*%
X107530000Y-72570000D02*
X108470000Y-72570000D01*
X107530000Y-74430000D02*
X107530000Y-72570000D01*
X108470000Y-72570000D02*
X108470000Y-74430000D01*
X108470000Y-74430000D02*
X107530000Y-74430000D01*
%TO.C,J10*%
X59925000Y-103595000D02*
X59925000Y-107195000D01*
X59925000Y-107195000D02*
X66075000Y-107195000D01*
X66075000Y-103595000D02*
X59925000Y-103595000D01*
X66075000Y-107195000D02*
X66075000Y-103595000D01*
%TO.C,U6*%
X114380000Y-82380000D02*
X114380000Y-90620000D01*
X114380000Y-90620000D02*
X122620000Y-90620000D01*
X122620000Y-82380000D02*
X114380000Y-82380000D01*
X122620000Y-90620000D02*
X122620000Y-82380000D01*
%TO.C,C33*%
X121940000Y-80390000D02*
X122860000Y-80390000D01*
X121940000Y-82210000D02*
X121940000Y-80390000D01*
X122860000Y-80390000D02*
X122860000Y-82210000D01*
X122860000Y-82210000D02*
X121940000Y-82210000D01*
%TO.C,Q1*%
X137500000Y-61680000D02*
X137500000Y-65520000D01*
X137500000Y-65520000D02*
X140900000Y-65520000D01*
X140900000Y-61680000D02*
X137500000Y-61680000D01*
X140900000Y-65520000D02*
X140900000Y-61680000D01*
%TO.C,R27*%
X146410000Y-95518570D02*
X148270000Y-95518570D01*
X146410000Y-96458570D02*
X146410000Y-95518570D01*
X148270000Y-95518570D02*
X148270000Y-96458570D01*
X148270000Y-96458570D02*
X146410000Y-96458570D01*
%TO.C,J17*%
X94660000Y-127200000D02*
X94660000Y-130800000D01*
X94660000Y-130800000D02*
X103310000Y-130800000D01*
X103310000Y-127200000D02*
X94660000Y-127200000D01*
X103310000Y-130800000D02*
X103310000Y-127200000D01*
%TO.C,C9*%
X122470000Y-124120000D02*
X123930000Y-124120000D01*
X122470000Y-127080000D02*
X122470000Y-124120000D01*
X123930000Y-124120000D02*
X123930000Y-127080000D01*
X123930000Y-127080000D02*
X122470000Y-127080000D01*
%TO.C,F1*%
X117120000Y-56150000D02*
X120480000Y-56150000D01*
X117120000Y-58050000D02*
X117120000Y-56150000D01*
X120480000Y-56150000D02*
X120480000Y-58050000D01*
X120480000Y-58050000D02*
X117120000Y-58050000D01*
%TO.C,J9*%
X66700000Y-53500000D02*
X66700000Y-57100000D01*
X66700000Y-57100000D02*
X108400000Y-57100000D01*
X108400000Y-53500000D02*
X66700000Y-53500000D01*
X108400000Y-57100000D02*
X108400000Y-53500000D01*
%TO.C,C12*%
X109740000Y-55190000D02*
X110660000Y-55190000D01*
X109740000Y-57010000D02*
X109740000Y-55190000D01*
X110660000Y-55190000D02*
X110660000Y-57010000D01*
X110660000Y-57010000D02*
X109740000Y-57010000D01*
%TO.C,R40*%
X107530000Y-70070000D02*
X108470000Y-70070000D01*
X107530000Y-71930000D02*
X107530000Y-70070000D01*
X108470000Y-70070000D02*
X108470000Y-71930000D01*
X108470000Y-71930000D02*
X107530000Y-71930000D01*
%TO.C,C45*%
X123990000Y-61940000D02*
X125810000Y-61940000D01*
X123990000Y-62860000D02*
X123990000Y-61940000D01*
X125810000Y-61940000D02*
X125810000Y-62860000D01*
X125810000Y-62860000D02*
X123990000Y-62860000D01*
%TO.C,R37*%
X117230000Y-91670000D02*
X118170000Y-91670000D01*
X117230000Y-93530000D02*
X117230000Y-91670000D01*
X118170000Y-91670000D02*
X118170000Y-93530000D01*
X118170000Y-93530000D02*
X117230000Y-93530000D01*
%TO.C,C26*%
X144140000Y-69790000D02*
X145060000Y-69790000D01*
X144140000Y-71610000D02*
X144140000Y-69790000D01*
X145060000Y-69790000D02*
X145060000Y-71610000D01*
X145060000Y-71610000D02*
X144140000Y-71610000D01*
%TO.C,C15*%
X99670000Y-124120000D02*
X101130000Y-124120000D01*
X99670000Y-127080000D02*
X99670000Y-124120000D01*
X101130000Y-124120000D02*
X101130000Y-127080000D01*
X101130000Y-127080000D02*
X99670000Y-127080000D01*
D11*
%TO.C,SW3*%
X60375000Y-79450000D02*
X60375000Y-83950000D01*
X60375000Y-83950000D02*
X68775000Y-83950000D01*
X68775000Y-79450000D02*
X60375000Y-79450000D01*
X68775000Y-83950000D02*
X68775000Y-79450000D01*
D10*
%TO.C,R16*%
X134270000Y-57260000D02*
X135730000Y-57260000D01*
X134270000Y-60220000D02*
X134270000Y-57260000D01*
X135730000Y-57260000D02*
X135730000Y-60220000D01*
X135730000Y-60220000D02*
X134270000Y-60220000D01*
%TO.C,C17*%
X145270000Y-69520000D02*
X146730000Y-69520000D01*
X145270000Y-72480000D02*
X145270000Y-69520000D01*
X146730000Y-69520000D02*
X146730000Y-72480000D01*
X146730000Y-72480000D02*
X145270000Y-72480000D01*
D11*
%TO.C,SW1*%
X83250000Y-100350000D02*
X83250000Y-108750000D01*
X83250000Y-108750000D02*
X87750000Y-108750000D01*
X87750000Y-100350000D02*
X83250000Y-100350000D01*
X87750000Y-108750000D02*
X87750000Y-100350000D01*
D10*
%TO.C,C3*%
X132770000Y-57260000D02*
X134230000Y-57260000D01*
X132770000Y-60220000D02*
X132770000Y-57260000D01*
X134230000Y-57260000D02*
X134230000Y-60220000D01*
X134230000Y-60220000D02*
X132770000Y-60220000D01*
%TO.C,FID2*%
X69250000Y-58500000D02*
G75*
G02*
X66750000Y-58500000I-1250000J0D01*
G01*
X66750000Y-58500000D02*
G75*
G02*
X69250000Y-58500000I1250000J0D01*
G01*
%TO.C,R17*%
X141530000Y-55670000D02*
X142470000Y-55670000D01*
X141530000Y-57530000D02*
X141530000Y-55670000D01*
X142470000Y-55670000D02*
X142470000Y-57530000D01*
X142470000Y-57530000D02*
X141530000Y-57530000D01*
%TO.C,C34*%
X122790000Y-83140000D02*
X124610000Y-83140000D01*
X122790000Y-84060000D02*
X122790000Y-83140000D01*
X124610000Y-83140000D02*
X124610000Y-84060000D01*
X124610000Y-84060000D02*
X122790000Y-84060000D01*
%TO.C,JP5*%
X142850000Y-97250000D02*
X142850000Y-99750000D01*
X142850000Y-97250000D02*
X146150000Y-97250000D01*
X146150000Y-99750000D02*
X142850000Y-99750000D01*
X146150000Y-99750000D02*
X146150000Y-97250000D01*
%TO.C,R31*%
X79570000Y-58030000D02*
X81430000Y-58030000D01*
X79570000Y-58970000D02*
X79570000Y-58030000D01*
X81430000Y-58030000D02*
X81430000Y-58970000D01*
X81430000Y-58970000D02*
X79570000Y-58970000D01*
%TO.C,U3*%
X112900000Y-56650000D02*
X112900000Y-60750000D01*
X112900000Y-60750000D02*
X116300000Y-60750000D01*
X116300000Y-56650000D02*
X112900000Y-56650000D01*
X116300000Y-60750000D02*
X116300000Y-56650000D01*
%TO.C,C60*%
X68240000Y-87195000D02*
X69160000Y-87195000D01*
X68240000Y-89015000D02*
X68240000Y-87195000D01*
X69160000Y-87195000D02*
X69160000Y-89015000D01*
X69160000Y-89015000D02*
X68240000Y-89015000D01*
%TO.C,U2*%
X103400000Y-57200000D02*
X103400000Y-66000000D01*
X103400000Y-66000000D02*
X110600000Y-66000000D01*
X110600000Y-57200000D02*
X103400000Y-57200000D01*
X110600000Y-66000000D02*
X110600000Y-57200000D01*
%TO.C,R25*%
X146410000Y-100507142D02*
X148270000Y-100507142D01*
X146410000Y-101447142D02*
X146410000Y-100507142D01*
X148270000Y-100507142D02*
X148270000Y-101447142D01*
X148270000Y-101447142D02*
X146410000Y-101447142D01*
%TO.C,J14*%
X51550000Y-62380000D02*
X51550000Y-78630000D01*
X51550000Y-78630000D02*
X66400000Y-78630000D01*
X66400000Y-62380000D02*
X51550000Y-62380000D01*
X66400000Y-78630000D02*
X66400000Y-62380000D01*
%TO.C,FID1*%
X158750000Y-118500000D02*
G75*
G02*
X156250000Y-118500000I-1250000J0D01*
G01*
X156250000Y-118500000D02*
G75*
G02*
X158750000Y-118500000I1250000J0D01*
G01*
%TO.C,R29*%
X146560000Y-90530000D02*
X148420000Y-90530000D01*
X146560000Y-91470000D02*
X146560000Y-90530000D01*
X148420000Y-90530000D02*
X148420000Y-91470000D01*
X148420000Y-91470000D02*
X146560000Y-91470000D01*
%TO.C,C61*%
X66770000Y-86975000D02*
X68230000Y-86975000D01*
X66770000Y-89935000D02*
X66770000Y-86975000D01*
X68230000Y-86975000D02*
X68230000Y-89935000D01*
X68230000Y-89935000D02*
X66770000Y-89935000D01*
%TO.C,R47*%
X103070000Y-89720000D02*
X104930000Y-89720000D01*
X103070000Y-90660000D02*
X103070000Y-89720000D01*
X104930000Y-89720000D02*
X104930000Y-90660000D01*
X104930000Y-90660000D02*
X103070000Y-90660000D01*
%TO.C,R6*%
X72560000Y-80815714D02*
X74420000Y-80815714D01*
X72560000Y-81755714D02*
X72560000Y-80815714D01*
X74420000Y-80815714D02*
X74420000Y-81755714D01*
X74420000Y-81755714D02*
X72560000Y-81755714D01*
%TO.C,JP6*%
X142850000Y-94750000D02*
X142850000Y-97250000D01*
X142850000Y-94750000D02*
X146150000Y-94750000D01*
X146150000Y-97250000D02*
X142850000Y-97250000D01*
X146150000Y-97250000D02*
X146150000Y-94750000D01*
%TO.C,C11*%
X113170000Y-60770000D02*
X116130000Y-60770000D01*
X113170000Y-62230000D02*
X113170000Y-60770000D01*
X116130000Y-60770000D02*
X116130000Y-62230000D01*
X116130000Y-62230000D02*
X113170000Y-62230000D01*
%TO.C,J4*%
X91100000Y-65600000D02*
X91100000Y-117400000D01*
X91100000Y-117400000D02*
X102900000Y-117400000D01*
X102900000Y-65600000D02*
X91100000Y-65600000D01*
X102900000Y-117400000D02*
X102900000Y-65600000D01*
X131100000Y-65600000D02*
X131100000Y-117400000D01*
X131100000Y-117400000D02*
X142900000Y-117400000D01*
X142900000Y-65600000D02*
X131100000Y-65600000D01*
X142900000Y-117400000D02*
X142900000Y-65600000D01*
%TO.C,J1*%
X140310000Y-127200000D02*
X140310000Y-130800000D01*
X140310000Y-130800000D02*
X156610000Y-130800000D01*
X156610000Y-127200000D02*
X140310000Y-127200000D01*
X156610000Y-130800000D02*
X156610000Y-127200000D01*
%TO.C,R10*%
X72560000Y-78272857D02*
X74420000Y-78272857D01*
X72560000Y-79212857D02*
X72560000Y-78272857D01*
X74420000Y-78272857D02*
X74420000Y-79212857D01*
X74420000Y-79212857D02*
X72560000Y-79212857D01*
%TO.C,J19*%
X110625000Y-62300000D02*
X110625000Y-65900000D01*
X110625000Y-65900000D02*
X116775000Y-65900000D01*
X116775000Y-62300000D02*
X110625000Y-62300000D01*
X116775000Y-65900000D02*
X116775000Y-62300000D01*
%TO.C,D2*%
X142520000Y-55720000D02*
X143980000Y-55720000D01*
X142520000Y-58680000D02*
X142520000Y-55720000D01*
X143980000Y-55720000D02*
X143980000Y-58680000D01*
X143980000Y-58680000D02*
X142520000Y-58680000D01*
%TO.C,R30*%
X85170000Y-58030000D02*
X87030000Y-58030000D01*
X85170000Y-58970000D02*
X85170000Y-58030000D01*
X87030000Y-58030000D02*
X87030000Y-58970000D01*
X87030000Y-58970000D02*
X85170000Y-58970000D01*
%TO.C,R44*%
X103070000Y-97530000D02*
X104930000Y-97530000D01*
X103070000Y-98470000D02*
X103070000Y-97530000D01*
X104930000Y-97530000D02*
X104930000Y-98470000D01*
X104930000Y-98470000D02*
X103070000Y-98470000D01*
%TO.C,R26*%
X146560000Y-98012856D02*
X148420000Y-98012856D01*
X146560000Y-98952856D02*
X146560000Y-98012856D01*
X148420000Y-98012856D02*
X148420000Y-98952856D01*
X148420000Y-98952856D02*
X146560000Y-98952856D01*
%TO.C,C41*%
X118540000Y-78590000D02*
X119460000Y-78590000D01*
X118540000Y-80410000D02*
X118540000Y-78590000D01*
X119460000Y-78590000D02*
X119460000Y-80410000D01*
X119460000Y-80410000D02*
X118540000Y-80410000D01*
%TO.C,C13*%
X116940000Y-63990000D02*
X117860000Y-63990000D01*
X116940000Y-65810000D02*
X116940000Y-63990000D01*
X117860000Y-63990000D02*
X117860000Y-65810000D01*
X117860000Y-65810000D02*
X116940000Y-65810000D01*
%TO.C,R48*%
X129170000Y-83530000D02*
X131030000Y-83530000D01*
X129170000Y-84470000D02*
X129170000Y-83530000D01*
X131030000Y-83530000D02*
X131030000Y-84470000D01*
X131030000Y-84470000D02*
X129170000Y-84470000D01*
%TO.C,R52*%
X129170000Y-78850000D02*
X131030000Y-78850000D01*
X129170000Y-79790000D02*
X129170000Y-78850000D01*
X131030000Y-78850000D02*
X131030000Y-79790000D01*
X131030000Y-79790000D02*
X129170000Y-79790000D01*
%TO.C,FB1*%
X116420000Y-58270000D02*
X119380000Y-58270000D01*
X116420000Y-59730000D02*
X116420000Y-58270000D01*
X119380000Y-58270000D02*
X119380000Y-59730000D01*
X119380000Y-59730000D02*
X116420000Y-59730000D01*
%TO.C,J6*%
X125075000Y-124655000D02*
X125075000Y-139505000D01*
X125075000Y-139505000D02*
X141325000Y-139505000D01*
X141325000Y-124655000D02*
X125075000Y-124655000D01*
X141325000Y-139505000D02*
X141325000Y-124655000D01*
%TO.C,JP4*%
X142850000Y-99750000D02*
X142850000Y-102250000D01*
X142850000Y-99750000D02*
X146150000Y-99750000D01*
X146150000Y-102250000D02*
X142850000Y-102250000D01*
X146150000Y-102250000D02*
X146150000Y-99750000D01*
%TO.C,C57*%
X66470000Y-109620000D02*
X67930000Y-109620000D01*
X66470000Y-112580000D02*
X66470000Y-109620000D01*
X67930000Y-109620000D02*
X67930000Y-112580000D01*
X67930000Y-112580000D02*
X66470000Y-112580000D01*
%TO.C,C14*%
X101240000Y-125190000D02*
X102160000Y-125190000D01*
X101240000Y-127010000D02*
X101240000Y-125190000D01*
X102160000Y-125190000D02*
X102160000Y-127010000D01*
X102160000Y-127010000D02*
X101240000Y-127010000D01*
%TO.C,D3*%
X137970000Y-55720000D02*
X139430000Y-55720000D01*
X137970000Y-58680000D02*
X137970000Y-55720000D01*
X139430000Y-55720000D02*
X139430000Y-58680000D01*
X139430000Y-58680000D02*
X137970000Y-58680000D01*
%TO.C,R34*%
X118330000Y-71670000D02*
X119270000Y-71670000D01*
X118330000Y-73530000D02*
X118330000Y-71670000D01*
X119270000Y-71670000D02*
X119270000Y-73530000D01*
X119270000Y-73530000D02*
X118330000Y-73530000D01*
%TO.C,R9*%
X66770000Y-84130000D02*
X68630000Y-84130000D01*
X66770000Y-85070000D02*
X66770000Y-84130000D01*
X68630000Y-84130000D02*
X68630000Y-85070000D01*
X68630000Y-85070000D02*
X66770000Y-85070000D01*
%TO.C,R46*%
X103070000Y-92530000D02*
X104930000Y-92530000D01*
X103070000Y-93470000D02*
X103070000Y-92530000D01*
X104930000Y-92530000D02*
X104930000Y-93470000D01*
X104930000Y-93470000D02*
X103070000Y-93470000D01*
%TO.C,D1*%
X147070000Y-55720000D02*
X148530000Y-55720000D01*
X147070000Y-58680000D02*
X147070000Y-55720000D01*
X148530000Y-55720000D02*
X148530000Y-58680000D01*
X148530000Y-58680000D02*
X147070000Y-58680000D01*
%TO.C,R39*%
X118330000Y-73770000D02*
X119270000Y-73770000D01*
X118330000Y-75630000D02*
X118330000Y-73770000D01*
X119270000Y-73770000D02*
X119270000Y-75630000D01*
X119270000Y-75630000D02*
X118330000Y-75630000D01*
%TO.C,C10*%
X110720000Y-55200000D02*
X112680000Y-55200000D01*
X110720000Y-58600000D02*
X110720000Y-55200000D01*
X112680000Y-55200000D02*
X112680000Y-58600000D01*
X112680000Y-58600000D02*
X110720000Y-58600000D01*
%TO.C,D6*%
X122820000Y-62870000D02*
X125780000Y-62870000D01*
X122820000Y-64330000D02*
X122820000Y-62870000D01*
X125780000Y-62870000D02*
X125780000Y-64330000D01*
X125780000Y-64330000D02*
X122820000Y-64330000D01*
%TO.C,R32*%
X82570000Y-58030000D02*
X84430000Y-58030000D01*
X82570000Y-58970000D02*
X82570000Y-58030000D01*
X84430000Y-58030000D02*
X84430000Y-58970000D01*
X84430000Y-58970000D02*
X82570000Y-58970000D01*
%TO.C,MT1*%
X66450000Y-128000000D02*
G75*
G02*
X59550000Y-128000000I-3450000J0D01*
G01*
X59550000Y-128000000D02*
G75*
G02*
X66450000Y-128000000I3450000J0D01*
G01*
%TO.C,R4*%
X72560000Y-85901428D02*
X74420000Y-85901428D01*
X72560000Y-86841428D02*
X72560000Y-85901428D01*
X74420000Y-85901428D02*
X74420000Y-86841428D01*
X74420000Y-86841428D02*
X72560000Y-86841428D01*
%TO.C,C40*%
X118590000Y-91440000D02*
X120410000Y-91440000D01*
X118590000Y-92360000D02*
X118590000Y-91440000D01*
X120410000Y-91440000D02*
X120410000Y-92360000D01*
X120410000Y-92360000D02*
X118590000Y-92360000D01*
%TO.C,C1*%
X87830000Y-105770000D02*
X90790000Y-105770000D01*
X87830000Y-107230000D02*
X87830000Y-105770000D01*
X90790000Y-105770000D02*
X90790000Y-107230000D01*
X90790000Y-107230000D02*
X87830000Y-107230000D01*
%TO.C,SW4*%
D11*
X78000000Y-73750000D02*
X87000000Y-73750000D01*
X87000000Y-96250000D01*
X78000000Y-96250000D01*
X78000000Y-73750000D01*
D10*
%TO.C,C44*%
X125890000Y-61940000D02*
X127710000Y-61940000D01*
X125890000Y-62860000D02*
X125890000Y-61940000D01*
X127710000Y-61940000D02*
X127710000Y-62860000D01*
X127710000Y-62860000D02*
X125890000Y-62860000D01*
%TO.C,R36*%
X66130000Y-105325000D02*
X67070000Y-105325000D01*
X66130000Y-107185000D02*
X66130000Y-105325000D01*
X67070000Y-105325000D02*
X67070000Y-107185000D01*
X67070000Y-107185000D02*
X66130000Y-107185000D01*
%TO.C,C59*%
X63420000Y-60870000D02*
X66380000Y-60870000D01*
X63420000Y-62330000D02*
X63420000Y-60870000D01*
X66380000Y-60870000D02*
X66380000Y-62330000D01*
X66380000Y-62330000D02*
X63420000Y-62330000D01*
%TO.C,C31*%
X115690000Y-67840000D02*
X117510000Y-67840000D01*
X115690000Y-68760000D02*
X115690000Y-67840000D01*
X117510000Y-67840000D02*
X117510000Y-68760000D01*
X117510000Y-68760000D02*
X115690000Y-68760000D01*
%TO.C,R14*%
X60370000Y-84130000D02*
X62230000Y-84130000D01*
X60370000Y-85070000D02*
X60370000Y-84130000D01*
X62230000Y-84130000D02*
X62230000Y-85070000D01*
X62230000Y-85070000D02*
X60370000Y-85070000D01*
%TD*%
M02*
