%TF.GenerationSoftware,KiCad,Pcbnew,8.0.7-8.0.7-0~ubuntu22.04.1*%
%TF.CreationDate,2024-12-10T15:43:45-05:00*%
%TF.ProjectId,tinytapeout-demo,74696e79-7461-4706-956f-75742d64656d,2.1.0*%
%TF.SameCoordinates,PX38be5e0PY7d687e0*%
%TF.FileFunction,Drillmap*%
%TF.FilePolarity,Positive*%
%FSLAX45Y45*%
G04 Gerber Fmt 4.5, Leading zero omitted, Abs format (unit mm)*
G04 Created by KiCad (PCBNEW 8.0.7-8.0.7-0~ubuntu22.04.1) date 2024-12-10 15:43:45*
%MOMM*%
%LPD*%
G01*
G04 APERTURE LIST*
%ADD10C,0.100000*%
%ADD11C,0.200000*%
G04 APERTURE END LIST*
D10*
X15600000Y-5350000D02*
G75*
G02*
X15900000Y-5650000I0J-300000D01*
G01*
X6250000Y-5350000D02*
X15600000Y-5350000D01*
X15600000Y-13150000D02*
X6250000Y-13150000D01*
X15900000Y-5650000D02*
X15900000Y-12850000D01*
X6250000Y-13150000D02*
G75*
G02*
X5950000Y-12850000I0J300000D01*
G01*
X5950000Y-5650000D02*
G75*
G02*
X6250000Y-5350000I300000J0D01*
G01*
X5950000Y-12850000D02*
X5950000Y-5650000D01*
X15900000Y-12850000D02*
G75*
G02*
X15600000Y-13150000I-300000J0D01*
G01*
D11*
D10*
X12328500Y-5877500D02*
X12393500Y-5942500D01*
X12393500Y-5877500D02*
X12328500Y-5942500D01*
X12906500Y-5877500D02*
X12971500Y-5942500D01*
X12971500Y-5877500D02*
X12906500Y-5942500D01*
D11*
X6205777Y-13466484D02*
X6205777Y-13266484D01*
X6205777Y-13266484D02*
X6253396Y-13266484D01*
X6253396Y-13266484D02*
X6281967Y-13276008D01*
X6281967Y-13276008D02*
X6301015Y-13295055D01*
X6301015Y-13295055D02*
X6310539Y-13314103D01*
X6310539Y-13314103D02*
X6320062Y-13352198D01*
X6320062Y-13352198D02*
X6320062Y-13380769D01*
X6320062Y-13380769D02*
X6310539Y-13418865D01*
X6310539Y-13418865D02*
X6301015Y-13437912D01*
X6301015Y-13437912D02*
X6281967Y-13456960D01*
X6281967Y-13456960D02*
X6253396Y-13466484D01*
X6253396Y-13466484D02*
X6205777Y-13466484D01*
X6405777Y-13466484D02*
X6405777Y-13333150D01*
X6405777Y-13371246D02*
X6415301Y-13352198D01*
X6415301Y-13352198D02*
X6424824Y-13342674D01*
X6424824Y-13342674D02*
X6443872Y-13333150D01*
X6443872Y-13333150D02*
X6462920Y-13333150D01*
X6529586Y-13466484D02*
X6529586Y-13333150D01*
X6529586Y-13266484D02*
X6520062Y-13276008D01*
X6520062Y-13276008D02*
X6529586Y-13285531D01*
X6529586Y-13285531D02*
X6539110Y-13276008D01*
X6539110Y-13276008D02*
X6529586Y-13266484D01*
X6529586Y-13266484D02*
X6529586Y-13285531D01*
X6653396Y-13466484D02*
X6634348Y-13456960D01*
X6634348Y-13456960D02*
X6624824Y-13437912D01*
X6624824Y-13437912D02*
X6624824Y-13266484D01*
X6758158Y-13466484D02*
X6739110Y-13456960D01*
X6739110Y-13456960D02*
X6729586Y-13437912D01*
X6729586Y-13437912D02*
X6729586Y-13266484D01*
X6986729Y-13466484D02*
X6986729Y-13266484D01*
X6986729Y-13266484D02*
X7053396Y-13409341D01*
X7053396Y-13409341D02*
X7120062Y-13266484D01*
X7120062Y-13266484D02*
X7120062Y-13466484D01*
X7301015Y-13466484D02*
X7301015Y-13361722D01*
X7301015Y-13361722D02*
X7291491Y-13342674D01*
X7291491Y-13342674D02*
X7272443Y-13333150D01*
X7272443Y-13333150D02*
X7234348Y-13333150D01*
X7234348Y-13333150D02*
X7215301Y-13342674D01*
X7301015Y-13456960D02*
X7281967Y-13466484D01*
X7281967Y-13466484D02*
X7234348Y-13466484D01*
X7234348Y-13466484D02*
X7215301Y-13456960D01*
X7215301Y-13456960D02*
X7205777Y-13437912D01*
X7205777Y-13437912D02*
X7205777Y-13418865D01*
X7205777Y-13418865D02*
X7215301Y-13399817D01*
X7215301Y-13399817D02*
X7234348Y-13390293D01*
X7234348Y-13390293D02*
X7281967Y-13390293D01*
X7281967Y-13390293D02*
X7301015Y-13380769D01*
X7396253Y-13333150D02*
X7396253Y-13533150D01*
X7396253Y-13342674D02*
X7415301Y-13333150D01*
X7415301Y-13333150D02*
X7453396Y-13333150D01*
X7453396Y-13333150D02*
X7472443Y-13342674D01*
X7472443Y-13342674D02*
X7481967Y-13352198D01*
X7481967Y-13352198D02*
X7491491Y-13371246D01*
X7491491Y-13371246D02*
X7491491Y-13428388D01*
X7491491Y-13428388D02*
X7481967Y-13447436D01*
X7481967Y-13447436D02*
X7472443Y-13456960D01*
X7472443Y-13456960D02*
X7453396Y-13466484D01*
X7453396Y-13466484D02*
X7415301Y-13466484D01*
X7415301Y-13466484D02*
X7396253Y-13456960D01*
X7577205Y-13447436D02*
X7586729Y-13456960D01*
X7586729Y-13456960D02*
X7577205Y-13466484D01*
X7577205Y-13466484D02*
X7567682Y-13456960D01*
X7567682Y-13456960D02*
X7577205Y-13447436D01*
X7577205Y-13447436D02*
X7577205Y-13466484D01*
X7577205Y-13342674D02*
X7586729Y-13352198D01*
X7586729Y-13352198D02*
X7577205Y-13361722D01*
X7577205Y-13361722D02*
X7567682Y-13352198D01*
X7567682Y-13352198D02*
X7577205Y-13342674D01*
X7577205Y-13342674D02*
X7577205Y-13361722D01*
D10*
X5880000Y-13762500D02*
X5945000Y-13827500D01*
X5945000Y-13762500D02*
X5880000Y-13827500D01*
D11*
X6243872Y-13686484D02*
X6262920Y-13686484D01*
X6262920Y-13686484D02*
X6281967Y-13696008D01*
X6281967Y-13696008D02*
X6291491Y-13705531D01*
X6291491Y-13705531D02*
X6301015Y-13724579D01*
X6301015Y-13724579D02*
X6310539Y-13762674D01*
X6310539Y-13762674D02*
X6310539Y-13810293D01*
X6310539Y-13810293D02*
X6301015Y-13848388D01*
X6301015Y-13848388D02*
X6291491Y-13867436D01*
X6291491Y-13867436D02*
X6281967Y-13876960D01*
X6281967Y-13876960D02*
X6262920Y-13886484D01*
X6262920Y-13886484D02*
X6243872Y-13886484D01*
X6243872Y-13886484D02*
X6224824Y-13876960D01*
X6224824Y-13876960D02*
X6215301Y-13867436D01*
X6215301Y-13867436D02*
X6205777Y-13848388D01*
X6205777Y-13848388D02*
X6196253Y-13810293D01*
X6196253Y-13810293D02*
X6196253Y-13762674D01*
X6196253Y-13762674D02*
X6205777Y-13724579D01*
X6205777Y-13724579D02*
X6215301Y-13705531D01*
X6215301Y-13705531D02*
X6224824Y-13696008D01*
X6224824Y-13696008D02*
X6243872Y-13686484D01*
X6396253Y-13867436D02*
X6405777Y-13876960D01*
X6405777Y-13876960D02*
X6396253Y-13886484D01*
X6396253Y-13886484D02*
X6386729Y-13876960D01*
X6386729Y-13876960D02*
X6396253Y-13867436D01*
X6396253Y-13867436D02*
X6396253Y-13886484D01*
X6577205Y-13686484D02*
X6539110Y-13686484D01*
X6539110Y-13686484D02*
X6520062Y-13696008D01*
X6520062Y-13696008D02*
X6510539Y-13705531D01*
X6510539Y-13705531D02*
X6491491Y-13734103D01*
X6491491Y-13734103D02*
X6481967Y-13772198D01*
X6481967Y-13772198D02*
X6481967Y-13848388D01*
X6481967Y-13848388D02*
X6491491Y-13867436D01*
X6491491Y-13867436D02*
X6501015Y-13876960D01*
X6501015Y-13876960D02*
X6520062Y-13886484D01*
X6520062Y-13886484D02*
X6558158Y-13886484D01*
X6558158Y-13886484D02*
X6577205Y-13876960D01*
X6577205Y-13876960D02*
X6586729Y-13867436D01*
X6586729Y-13867436D02*
X6596253Y-13848388D01*
X6596253Y-13848388D02*
X6596253Y-13800769D01*
X6596253Y-13800769D02*
X6586729Y-13781722D01*
X6586729Y-13781722D02*
X6577205Y-13772198D01*
X6577205Y-13772198D02*
X6558158Y-13762674D01*
X6558158Y-13762674D02*
X6520062Y-13762674D01*
X6520062Y-13762674D02*
X6501015Y-13772198D01*
X6501015Y-13772198D02*
X6491491Y-13781722D01*
X6491491Y-13781722D02*
X6481967Y-13800769D01*
X6777205Y-13686484D02*
X6681967Y-13686484D01*
X6681967Y-13686484D02*
X6672443Y-13781722D01*
X6672443Y-13781722D02*
X6681967Y-13772198D01*
X6681967Y-13772198D02*
X6701015Y-13762674D01*
X6701015Y-13762674D02*
X6748634Y-13762674D01*
X6748634Y-13762674D02*
X6767682Y-13772198D01*
X6767682Y-13772198D02*
X6777205Y-13781722D01*
X6777205Y-13781722D02*
X6786729Y-13800769D01*
X6786729Y-13800769D02*
X6786729Y-13848388D01*
X6786729Y-13848388D02*
X6777205Y-13867436D01*
X6777205Y-13867436D02*
X6767682Y-13876960D01*
X6767682Y-13876960D02*
X6748634Y-13886484D01*
X6748634Y-13886484D02*
X6701015Y-13886484D01*
X6701015Y-13886484D02*
X6681967Y-13876960D01*
X6681967Y-13876960D02*
X6672443Y-13867436D01*
X6910539Y-13686484D02*
X6929586Y-13686484D01*
X6929586Y-13686484D02*
X6948634Y-13696008D01*
X6948634Y-13696008D02*
X6958158Y-13705531D01*
X6958158Y-13705531D02*
X6967682Y-13724579D01*
X6967682Y-13724579D02*
X6977205Y-13762674D01*
X6977205Y-13762674D02*
X6977205Y-13810293D01*
X6977205Y-13810293D02*
X6967682Y-13848388D01*
X6967682Y-13848388D02*
X6958158Y-13867436D01*
X6958158Y-13867436D02*
X6948634Y-13876960D01*
X6948634Y-13876960D02*
X6929586Y-13886484D01*
X6929586Y-13886484D02*
X6910539Y-13886484D01*
X6910539Y-13886484D02*
X6891491Y-13876960D01*
X6891491Y-13876960D02*
X6881967Y-13867436D01*
X6881967Y-13867436D02*
X6872443Y-13848388D01*
X6872443Y-13848388D02*
X6862920Y-13810293D01*
X6862920Y-13810293D02*
X6862920Y-13762674D01*
X6862920Y-13762674D02*
X6872443Y-13724579D01*
X6872443Y-13724579D02*
X6881967Y-13705531D01*
X6881967Y-13705531D02*
X6891491Y-13696008D01*
X6891491Y-13696008D02*
X6910539Y-13686484D01*
X7062920Y-13886484D02*
X7062920Y-13753150D01*
X7062920Y-13772198D02*
X7072443Y-13762674D01*
X7072443Y-13762674D02*
X7091491Y-13753150D01*
X7091491Y-13753150D02*
X7120063Y-13753150D01*
X7120063Y-13753150D02*
X7139110Y-13762674D01*
X7139110Y-13762674D02*
X7148634Y-13781722D01*
X7148634Y-13781722D02*
X7148634Y-13886484D01*
X7148634Y-13781722D02*
X7158158Y-13762674D01*
X7158158Y-13762674D02*
X7177205Y-13753150D01*
X7177205Y-13753150D02*
X7205777Y-13753150D01*
X7205777Y-13753150D02*
X7224824Y-13762674D01*
X7224824Y-13762674D02*
X7234348Y-13781722D01*
X7234348Y-13781722D02*
X7234348Y-13886484D01*
X7329586Y-13886484D02*
X7329586Y-13753150D01*
X7329586Y-13772198D02*
X7339110Y-13762674D01*
X7339110Y-13762674D02*
X7358158Y-13753150D01*
X7358158Y-13753150D02*
X7386729Y-13753150D01*
X7386729Y-13753150D02*
X7405777Y-13762674D01*
X7405777Y-13762674D02*
X7415301Y-13781722D01*
X7415301Y-13781722D02*
X7415301Y-13886484D01*
X7415301Y-13781722D02*
X7424824Y-13762674D01*
X7424824Y-13762674D02*
X7443872Y-13753150D01*
X7443872Y-13753150D02*
X7472443Y-13753150D01*
X7472443Y-13753150D02*
X7491491Y-13762674D01*
X7491491Y-13762674D02*
X7501015Y-13781722D01*
X7501015Y-13781722D02*
X7501015Y-13886484D01*
X7891491Y-13676960D02*
X7720063Y-13934103D01*
X8148634Y-13686484D02*
X8167682Y-13686484D01*
X8167682Y-13686484D02*
X8186729Y-13696008D01*
X8186729Y-13696008D02*
X8196253Y-13705531D01*
X8196253Y-13705531D02*
X8205777Y-13724579D01*
X8205777Y-13724579D02*
X8215301Y-13762674D01*
X8215301Y-13762674D02*
X8215301Y-13810293D01*
X8215301Y-13810293D02*
X8205777Y-13848388D01*
X8205777Y-13848388D02*
X8196253Y-13867436D01*
X8196253Y-13867436D02*
X8186729Y-13876960D01*
X8186729Y-13876960D02*
X8167682Y-13886484D01*
X8167682Y-13886484D02*
X8148634Y-13886484D01*
X8148634Y-13886484D02*
X8129586Y-13876960D01*
X8129586Y-13876960D02*
X8120063Y-13867436D01*
X8120063Y-13867436D02*
X8110539Y-13848388D01*
X8110539Y-13848388D02*
X8101015Y-13810293D01*
X8101015Y-13810293D02*
X8101015Y-13762674D01*
X8101015Y-13762674D02*
X8110539Y-13724579D01*
X8110539Y-13724579D02*
X8120063Y-13705531D01*
X8120063Y-13705531D02*
X8129586Y-13696008D01*
X8129586Y-13696008D02*
X8148634Y-13686484D01*
X8301015Y-13867436D02*
X8310539Y-13876960D01*
X8310539Y-13876960D02*
X8301015Y-13886484D01*
X8301015Y-13886484D02*
X8291491Y-13876960D01*
X8291491Y-13876960D02*
X8301015Y-13867436D01*
X8301015Y-13867436D02*
X8301015Y-13886484D01*
X8434348Y-13686484D02*
X8453396Y-13686484D01*
X8453396Y-13686484D02*
X8472444Y-13696008D01*
X8472444Y-13696008D02*
X8481968Y-13705531D01*
X8481968Y-13705531D02*
X8491491Y-13724579D01*
X8491491Y-13724579D02*
X8501015Y-13762674D01*
X8501015Y-13762674D02*
X8501015Y-13810293D01*
X8501015Y-13810293D02*
X8491491Y-13848388D01*
X8491491Y-13848388D02*
X8481968Y-13867436D01*
X8481968Y-13867436D02*
X8472444Y-13876960D01*
X8472444Y-13876960D02*
X8453396Y-13886484D01*
X8453396Y-13886484D02*
X8434348Y-13886484D01*
X8434348Y-13886484D02*
X8415301Y-13876960D01*
X8415301Y-13876960D02*
X8405777Y-13867436D01*
X8405777Y-13867436D02*
X8396253Y-13848388D01*
X8396253Y-13848388D02*
X8386729Y-13810293D01*
X8386729Y-13810293D02*
X8386729Y-13762674D01*
X8386729Y-13762674D02*
X8396253Y-13724579D01*
X8396253Y-13724579D02*
X8405777Y-13705531D01*
X8405777Y-13705531D02*
X8415301Y-13696008D01*
X8415301Y-13696008D02*
X8434348Y-13686484D01*
X8577206Y-13705531D02*
X8586729Y-13696008D01*
X8586729Y-13696008D02*
X8605777Y-13686484D01*
X8605777Y-13686484D02*
X8653396Y-13686484D01*
X8653396Y-13686484D02*
X8672444Y-13696008D01*
X8672444Y-13696008D02*
X8681968Y-13705531D01*
X8681968Y-13705531D02*
X8691491Y-13724579D01*
X8691491Y-13724579D02*
X8691491Y-13743627D01*
X8691491Y-13743627D02*
X8681968Y-13772198D01*
X8681968Y-13772198D02*
X8567682Y-13886484D01*
X8567682Y-13886484D02*
X8691491Y-13886484D01*
X8872444Y-13686484D02*
X8777206Y-13686484D01*
X8777206Y-13686484D02*
X8767682Y-13781722D01*
X8767682Y-13781722D02*
X8777206Y-13772198D01*
X8777206Y-13772198D02*
X8796253Y-13762674D01*
X8796253Y-13762674D02*
X8843872Y-13762674D01*
X8843872Y-13762674D02*
X8862920Y-13772198D01*
X8862920Y-13772198D02*
X8872444Y-13781722D01*
X8872444Y-13781722D02*
X8881968Y-13800769D01*
X8881968Y-13800769D02*
X8881968Y-13848388D01*
X8881968Y-13848388D02*
X8872444Y-13867436D01*
X8872444Y-13867436D02*
X8862920Y-13876960D01*
X8862920Y-13876960D02*
X8843872Y-13886484D01*
X8843872Y-13886484D02*
X8796253Y-13886484D01*
X8796253Y-13886484D02*
X8777206Y-13876960D01*
X8777206Y-13876960D02*
X8767682Y-13867436D01*
X9053396Y-13686484D02*
X9015301Y-13686484D01*
X9015301Y-13686484D02*
X8996253Y-13696008D01*
X8996253Y-13696008D02*
X8986729Y-13705531D01*
X8986729Y-13705531D02*
X8967682Y-13734103D01*
X8967682Y-13734103D02*
X8958158Y-13772198D01*
X8958158Y-13772198D02*
X8958158Y-13848388D01*
X8958158Y-13848388D02*
X8967682Y-13867436D01*
X8967682Y-13867436D02*
X8977206Y-13876960D01*
X8977206Y-13876960D02*
X8996253Y-13886484D01*
X8996253Y-13886484D02*
X9034349Y-13886484D01*
X9034349Y-13886484D02*
X9053396Y-13876960D01*
X9053396Y-13876960D02*
X9062920Y-13867436D01*
X9062920Y-13867436D02*
X9072444Y-13848388D01*
X9072444Y-13848388D02*
X9072444Y-13800769D01*
X9072444Y-13800769D02*
X9062920Y-13781722D01*
X9062920Y-13781722D02*
X9053396Y-13772198D01*
X9053396Y-13772198D02*
X9034349Y-13762674D01*
X9034349Y-13762674D02*
X8996253Y-13762674D01*
X8996253Y-13762674D02*
X8977206Y-13772198D01*
X8977206Y-13772198D02*
X8967682Y-13781722D01*
X8967682Y-13781722D02*
X8958158Y-13800769D01*
X9148634Y-13686484D02*
X9148634Y-13724579D01*
X9224825Y-13686484D02*
X9224825Y-13724579D01*
X9520063Y-13962674D02*
X9510539Y-13953150D01*
X9510539Y-13953150D02*
X9491491Y-13924579D01*
X9491491Y-13924579D02*
X9481968Y-13905531D01*
X9481968Y-13905531D02*
X9472444Y-13876960D01*
X9472444Y-13876960D02*
X9462920Y-13829341D01*
X9462920Y-13829341D02*
X9462920Y-13791246D01*
X9462920Y-13791246D02*
X9472444Y-13743627D01*
X9472444Y-13743627D02*
X9481968Y-13715055D01*
X9481968Y-13715055D02*
X9491491Y-13696008D01*
X9491491Y-13696008D02*
X9510539Y-13667436D01*
X9510539Y-13667436D02*
X9520063Y-13657912D01*
X9586730Y-13705531D02*
X9596253Y-13696008D01*
X9596253Y-13696008D02*
X9615301Y-13686484D01*
X9615301Y-13686484D02*
X9662920Y-13686484D01*
X9662920Y-13686484D02*
X9681968Y-13696008D01*
X9681968Y-13696008D02*
X9691491Y-13705531D01*
X9691491Y-13705531D02*
X9701015Y-13724579D01*
X9701015Y-13724579D02*
X9701015Y-13743627D01*
X9701015Y-13743627D02*
X9691491Y-13772198D01*
X9691491Y-13772198D02*
X9577206Y-13886484D01*
X9577206Y-13886484D02*
X9701015Y-13886484D01*
X9939111Y-13886484D02*
X9939111Y-13686484D01*
X10024825Y-13886484D02*
X10024825Y-13781722D01*
X10024825Y-13781722D02*
X10015301Y-13762674D01*
X10015301Y-13762674D02*
X9996253Y-13753150D01*
X9996253Y-13753150D02*
X9967682Y-13753150D01*
X9967682Y-13753150D02*
X9948634Y-13762674D01*
X9948634Y-13762674D02*
X9939111Y-13772198D01*
X10148634Y-13886484D02*
X10129587Y-13876960D01*
X10129587Y-13876960D02*
X10120063Y-13867436D01*
X10120063Y-13867436D02*
X10110539Y-13848388D01*
X10110539Y-13848388D02*
X10110539Y-13791246D01*
X10110539Y-13791246D02*
X10120063Y-13772198D01*
X10120063Y-13772198D02*
X10129587Y-13762674D01*
X10129587Y-13762674D02*
X10148634Y-13753150D01*
X10148634Y-13753150D02*
X10177206Y-13753150D01*
X10177206Y-13753150D02*
X10196253Y-13762674D01*
X10196253Y-13762674D02*
X10205777Y-13772198D01*
X10205777Y-13772198D02*
X10215301Y-13791246D01*
X10215301Y-13791246D02*
X10215301Y-13848388D01*
X10215301Y-13848388D02*
X10205777Y-13867436D01*
X10205777Y-13867436D02*
X10196253Y-13876960D01*
X10196253Y-13876960D02*
X10177206Y-13886484D01*
X10177206Y-13886484D02*
X10148634Y-13886484D01*
X10329587Y-13886484D02*
X10310539Y-13876960D01*
X10310539Y-13876960D02*
X10301015Y-13857912D01*
X10301015Y-13857912D02*
X10301015Y-13686484D01*
X10481968Y-13876960D02*
X10462920Y-13886484D01*
X10462920Y-13886484D02*
X10424825Y-13886484D01*
X10424825Y-13886484D02*
X10405777Y-13876960D01*
X10405777Y-13876960D02*
X10396253Y-13857912D01*
X10396253Y-13857912D02*
X10396253Y-13781722D01*
X10396253Y-13781722D02*
X10405777Y-13762674D01*
X10405777Y-13762674D02*
X10424825Y-13753150D01*
X10424825Y-13753150D02*
X10462920Y-13753150D01*
X10462920Y-13753150D02*
X10481968Y-13762674D01*
X10481968Y-13762674D02*
X10491492Y-13781722D01*
X10491492Y-13781722D02*
X10491492Y-13800769D01*
X10491492Y-13800769D02*
X10396253Y-13819817D01*
X10567682Y-13876960D02*
X10586730Y-13886484D01*
X10586730Y-13886484D02*
X10624825Y-13886484D01*
X10624825Y-13886484D02*
X10643873Y-13876960D01*
X10643873Y-13876960D02*
X10653396Y-13857912D01*
X10653396Y-13857912D02*
X10653396Y-13848388D01*
X10653396Y-13848388D02*
X10643873Y-13829341D01*
X10643873Y-13829341D02*
X10624825Y-13819817D01*
X10624825Y-13819817D02*
X10596253Y-13819817D01*
X10596253Y-13819817D02*
X10577206Y-13810293D01*
X10577206Y-13810293D02*
X10567682Y-13791246D01*
X10567682Y-13791246D02*
X10567682Y-13781722D01*
X10567682Y-13781722D02*
X10577206Y-13762674D01*
X10577206Y-13762674D02*
X10596253Y-13753150D01*
X10596253Y-13753150D02*
X10624825Y-13753150D01*
X10624825Y-13753150D02*
X10643873Y-13762674D01*
X10720063Y-13962674D02*
X10729587Y-13953150D01*
X10729587Y-13953150D02*
X10748634Y-13924579D01*
X10748634Y-13924579D02*
X10758158Y-13905531D01*
X10758158Y-13905531D02*
X10767682Y-13876960D01*
X10767682Y-13876960D02*
X10777206Y-13829341D01*
X10777206Y-13829341D02*
X10777206Y-13791246D01*
X10777206Y-13791246D02*
X10767682Y-13743627D01*
X10767682Y-13743627D02*
X10758158Y-13715055D01*
X10758158Y-13715055D02*
X10748634Y-13696008D01*
X10748634Y-13696008D02*
X10729587Y-13667436D01*
X10729587Y-13667436D02*
X10720063Y-13657912D01*
X11081968Y-13962674D02*
X11072444Y-13953150D01*
X11072444Y-13953150D02*
X11053396Y-13924579D01*
X11053396Y-13924579D02*
X11043873Y-13905531D01*
X11043873Y-13905531D02*
X11034349Y-13876960D01*
X11034349Y-13876960D02*
X11024825Y-13829341D01*
X11024825Y-13829341D02*
X11024825Y-13791246D01*
X11024825Y-13791246D02*
X11034349Y-13743627D01*
X11034349Y-13743627D02*
X11043873Y-13715055D01*
X11043873Y-13715055D02*
X11053396Y-13696008D01*
X11053396Y-13696008D02*
X11072444Y-13667436D01*
X11072444Y-13667436D02*
X11081968Y-13657912D01*
X11158158Y-13753150D02*
X11158158Y-13886484D01*
X11158158Y-13772198D02*
X11167682Y-13762674D01*
X11167682Y-13762674D02*
X11186730Y-13753150D01*
X11186730Y-13753150D02*
X11215301Y-13753150D01*
X11215301Y-13753150D02*
X11234349Y-13762674D01*
X11234349Y-13762674D02*
X11243872Y-13781722D01*
X11243872Y-13781722D02*
X11243872Y-13886484D01*
X11367682Y-13886484D02*
X11348634Y-13876960D01*
X11348634Y-13876960D02*
X11339111Y-13867436D01*
X11339111Y-13867436D02*
X11329587Y-13848388D01*
X11329587Y-13848388D02*
X11329587Y-13791246D01*
X11329587Y-13791246D02*
X11339111Y-13772198D01*
X11339111Y-13772198D02*
X11348634Y-13762674D01*
X11348634Y-13762674D02*
X11367682Y-13753150D01*
X11367682Y-13753150D02*
X11396253Y-13753150D01*
X11396253Y-13753150D02*
X11415301Y-13762674D01*
X11415301Y-13762674D02*
X11424825Y-13772198D01*
X11424825Y-13772198D02*
X11434349Y-13791246D01*
X11434349Y-13791246D02*
X11434349Y-13848388D01*
X11434349Y-13848388D02*
X11424825Y-13867436D01*
X11424825Y-13867436D02*
X11415301Y-13876960D01*
X11415301Y-13876960D02*
X11396253Y-13886484D01*
X11396253Y-13886484D02*
X11367682Y-13886484D01*
X11491492Y-13753150D02*
X11567682Y-13753150D01*
X11520063Y-13686484D02*
X11520063Y-13857912D01*
X11520063Y-13857912D02*
X11529587Y-13876960D01*
X11529587Y-13876960D02*
X11548634Y-13886484D01*
X11548634Y-13886484D02*
X11567682Y-13886484D01*
X11786730Y-13753150D02*
X11786730Y-13953150D01*
X11786730Y-13762674D02*
X11805777Y-13753150D01*
X11805777Y-13753150D02*
X11843873Y-13753150D01*
X11843873Y-13753150D02*
X11862920Y-13762674D01*
X11862920Y-13762674D02*
X11872444Y-13772198D01*
X11872444Y-13772198D02*
X11881968Y-13791246D01*
X11881968Y-13791246D02*
X11881968Y-13848388D01*
X11881968Y-13848388D02*
X11872444Y-13867436D01*
X11872444Y-13867436D02*
X11862920Y-13876960D01*
X11862920Y-13876960D02*
X11843873Y-13886484D01*
X11843873Y-13886484D02*
X11805777Y-13886484D01*
X11805777Y-13886484D02*
X11786730Y-13876960D01*
X11996253Y-13886484D02*
X11977206Y-13876960D01*
X11977206Y-13876960D02*
X11967682Y-13857912D01*
X11967682Y-13857912D02*
X11967682Y-13686484D01*
X12158158Y-13886484D02*
X12158158Y-13781722D01*
X12158158Y-13781722D02*
X12148634Y-13762674D01*
X12148634Y-13762674D02*
X12129587Y-13753150D01*
X12129587Y-13753150D02*
X12091492Y-13753150D01*
X12091492Y-13753150D02*
X12072444Y-13762674D01*
X12158158Y-13876960D02*
X12139111Y-13886484D01*
X12139111Y-13886484D02*
X12091492Y-13886484D01*
X12091492Y-13886484D02*
X12072444Y-13876960D01*
X12072444Y-13876960D02*
X12062920Y-13857912D01*
X12062920Y-13857912D02*
X12062920Y-13838865D01*
X12062920Y-13838865D02*
X12072444Y-13819817D01*
X12072444Y-13819817D02*
X12091492Y-13810293D01*
X12091492Y-13810293D02*
X12139111Y-13810293D01*
X12139111Y-13810293D02*
X12158158Y-13800769D01*
X12224825Y-13753150D02*
X12301015Y-13753150D01*
X12253396Y-13686484D02*
X12253396Y-13857912D01*
X12253396Y-13857912D02*
X12262920Y-13876960D01*
X12262920Y-13876960D02*
X12281968Y-13886484D01*
X12281968Y-13886484D02*
X12301015Y-13886484D01*
X12443873Y-13876960D02*
X12424825Y-13886484D01*
X12424825Y-13886484D02*
X12386730Y-13886484D01*
X12386730Y-13886484D02*
X12367682Y-13876960D01*
X12367682Y-13876960D02*
X12358158Y-13857912D01*
X12358158Y-13857912D02*
X12358158Y-13781722D01*
X12358158Y-13781722D02*
X12367682Y-13762674D01*
X12367682Y-13762674D02*
X12386730Y-13753150D01*
X12386730Y-13753150D02*
X12424825Y-13753150D01*
X12424825Y-13753150D02*
X12443873Y-13762674D01*
X12443873Y-13762674D02*
X12453396Y-13781722D01*
X12453396Y-13781722D02*
X12453396Y-13800769D01*
X12453396Y-13800769D02*
X12358158Y-13819817D01*
X12624825Y-13886484D02*
X12624825Y-13686484D01*
X12624825Y-13876960D02*
X12605777Y-13886484D01*
X12605777Y-13886484D02*
X12567682Y-13886484D01*
X12567682Y-13886484D02*
X12548634Y-13876960D01*
X12548634Y-13876960D02*
X12539111Y-13867436D01*
X12539111Y-13867436D02*
X12529587Y-13848388D01*
X12529587Y-13848388D02*
X12529587Y-13791246D01*
X12529587Y-13791246D02*
X12539111Y-13772198D01*
X12539111Y-13772198D02*
X12548634Y-13762674D01*
X12548634Y-13762674D02*
X12567682Y-13753150D01*
X12567682Y-13753150D02*
X12605777Y-13753150D01*
X12605777Y-13753150D02*
X12624825Y-13762674D01*
X12701015Y-13962674D02*
X12710539Y-13953150D01*
X12710539Y-13953150D02*
X12729587Y-13924579D01*
X12729587Y-13924579D02*
X12739111Y-13905531D01*
X12739111Y-13905531D02*
X12748634Y-13876960D01*
X12748634Y-13876960D02*
X12758158Y-13829341D01*
X12758158Y-13829341D02*
X12758158Y-13791246D01*
X12758158Y-13791246D02*
X12748634Y-13743627D01*
X12748634Y-13743627D02*
X12739111Y-13715055D01*
X12739111Y-13715055D02*
X12729587Y-13696008D01*
X12729587Y-13696008D02*
X12710539Y-13667436D01*
X12710539Y-13667436D02*
X12701015Y-13657912D01*
M02*
