G04 #@! TF.GenerationSoftware,KiCad,Pcbnew,9.0.9-9.0.9~ubuntu24.04.1*
G04 #@! TF.CreationDate,2026-08-04T17:21:09-04:00*
G04 #@! TF.ProjectId,pmod-rotaryencoder,706d6f64-2d72-46f7-9461-7279656e636f,1.0*
G04 #@! TF.SameCoordinates,Original*
G04 #@! TF.FileFunction,Soldermask,Top*
G04 #@! TF.FilePolarity,Negative*
%FSLAX46Y46*%
G04 Gerber Fmt 4.6, Leading zero omitted, Abs format (unit mm)*
G04 Created by KiCad (PCBNEW 9.0.9-9.0.9~ubuntu24.04.1) date 2026-08-04 17:21:09*
%MOMM*%
%LPD*%
G01*
G04 APERTURE LIST*
G04 Aperture macros list*
%AMRoundRect*
0 Rectangle with rounded corners*
0 $1 Rounding radius*
0 $2 $3 $4 $5 $6 $7 $8 $9 X,Y pos of 4 corners*
0 Add a 4 corners polygon primitive as box body*
4,1,4,$2,$3,$4,$5,$6,$7,$8,$9,$2,$3,0*
0 Add four circle primitives for the rounded corners*
1,1,$1+$1,$2,$3*
1,1,$1+$1,$4,$5*
1,1,$1+$1,$6,$7*
1,1,$1+$1,$8,$9*
0 Add four rect primitives between the rounded corners*
20,1,$1+$1,$2,$3,$4,$5,0*
20,1,$1+$1,$4,$5,$6,$7,0*
20,1,$1+$1,$6,$7,$8,$9,0*
20,1,$1+$1,$8,$9,$2,$3,0*%
G04 Aperture macros list end*
%ADD10RoundRect,0.225000X-0.225000X-0.250000X0.225000X-0.250000X0.225000X0.250000X-0.225000X0.250000X0*%
%ADD11RoundRect,0.135000X-0.135000X-0.185000X0.135000X-0.185000X0.135000X0.185000X-0.135000X0.185000X0*%
%ADD12RoundRect,0.135000X0.135000X0.185000X-0.135000X0.185000X-0.135000X-0.185000X0.135000X-0.185000X0*%
%ADD13R,1.700000X1.700000*%
%ADD14O,1.700000X1.700000*%
%ADD15C,1.700000*%
%ADD16RoundRect,0.140000X-0.140000X-0.170000X0.140000X-0.170000X0.140000X0.170000X-0.140000X0.170000X0*%
%ADD17RoundRect,0.102000X0.900000X0.900000X-0.900000X0.900000X-0.900000X-0.900000X0.900000X-0.900000X0*%
%ADD18C,2.004000*%
%ADD19O,3.204000X6.204000*%
%ADD20RoundRect,0.140000X0.140000X0.170000X-0.140000X0.170000X-0.140000X-0.170000X0.140000X-0.170000X0*%
G04 APERTURE END LIST*
D10*
X34025000Y-49100000D03*
X35575000Y-49100000D03*
D11*
X39520000Y-47200000D03*
X40540000Y-47200000D03*
D12*
X40540000Y-48312500D03*
X39520000Y-48312500D03*
D13*
X42810000Y-33850000D03*
D14*
X42810000Y-36390000D03*
X42810000Y-38930000D03*
X42810000Y-41470000D03*
X42810000Y-44010000D03*
D15*
X42810000Y-46550000D03*
D14*
X45350000Y-33850000D03*
X45350000Y-36390000D03*
X45350000Y-38930000D03*
X45350000Y-41470000D03*
X45350000Y-44010000D03*
X45350000Y-46550000D03*
D12*
X40480000Y-32560000D03*
X39460000Y-32560000D03*
D16*
X39470000Y-34600000D03*
X40430000Y-34600000D03*
X39530000Y-49325000D03*
X40490000Y-49325000D03*
X39470000Y-38225000D03*
X40430000Y-38225000D03*
D11*
X39460000Y-33580000D03*
X40480000Y-33580000D03*
D13*
X36650000Y-33850000D03*
D14*
X36650000Y-36390000D03*
X36650000Y-38930000D03*
X36650000Y-41470000D03*
X36650000Y-44010000D03*
D15*
X36650000Y-46550000D03*
D14*
X34110000Y-33850000D03*
X34110000Y-36390000D03*
X34110000Y-38930000D03*
X34110000Y-41470000D03*
X34110000Y-44010000D03*
X34110000Y-46550000D03*
D17*
X57950000Y-47250000D03*
D18*
X52950000Y-47250000D03*
X57950000Y-32750000D03*
X52950000Y-32750000D03*
X55450000Y-32750000D03*
D19*
X61050000Y-40250000D03*
X49850000Y-40250000D03*
D20*
X37780000Y-49050000D03*
X36820000Y-49050000D03*
D11*
X39460000Y-36175000D03*
X40480000Y-36175000D03*
X39460000Y-37200000D03*
X40480000Y-37200000D03*
M02*
