M48
; DRILL file {KiCad 9.0.9-9.0.9~ubuntu24.04.1} date 2026-08-04T17:21:09-0400
; FORMAT={-:-/ absolute / metric / decimal}
; #@! TF.CreationDate,2026-08-04T17:21:09-04:00
; #@! TF.GenerationSoftware,Kicad,Pcbnew,9.0.9-9.0.9~ubuntu24.04.1
; #@! TF.FileFunction,MixedPlating,1,2
FMAT,2
METRIC
; #@! TA.AperFunction,Plated,PTH,ViaDrill
T1C0.300
; #@! TA.AperFunction,Plated,PTH,ViaDrill
T2C0.400
; #@! TA.AperFunction,Plated,PTH,ComponentDrill
T3C0.400
; #@! TA.AperFunction,Plated,PTH,ComponentDrill
T4C1.000
; #@! TA.AperFunction,Plated,PTH,ComponentDrill
T5C1.200
; #@! TA.AperFunction,Plated,PTH,ComponentDrill
T6C2.000
%
G90
G05
T1
X35.5Y-47.8
X36.474Y-48.014
X38.5Y-33.025
X38.55Y-35.64
X38.7Y-48.3
X41.3Y-38.315
X41.511Y-47.248
X41.6Y-49.3
X45.6Y-31.5
X47.2Y-43.5
T2
X32.5Y-31.8
T3
X31.1Y-31.0
X31.1Y-35.1
X31.1Y-40.4
X31.1Y-45.3
X31.1Y-49.3
X39.9Y-45.0
X40.2Y-31.1
X47.1Y-34.3
X47.1Y-37.7
X47.1Y-47.4
X47.1Y-49.3
X51.2Y-31.7
X53.0Y-49.3
X55.45Y-40.25
X56.7Y-44.5
X59.7Y-31.0
X60.0Y-34.6
X62.6Y-35.9
X62.6Y-44.5
X62.6Y-49.3
T4
X34.11Y-33.85
X34.11Y-36.39
X34.11Y-38.93
X34.11Y-41.47
X34.11Y-44.01
X34.11Y-46.55
X36.65Y-33.85
X36.65Y-36.39
X36.65Y-38.93
X36.65Y-41.47
X36.65Y-44.01
X36.65Y-46.55
X42.81Y-33.85
X42.81Y-36.39
X42.81Y-38.93
X42.81Y-41.47
X42.81Y-44.01
X42.81Y-46.55
X45.35Y-33.85
X45.35Y-36.39
X45.35Y-38.93
X45.35Y-41.47
X45.35Y-44.01
X45.35Y-46.55
T5
X52.95Y-32.75
X52.95Y-47.25
X55.45Y-32.75
X57.95Y-32.75
X57.95Y-47.25
T6
G00X49.85Y-40.4
M15
G01X49.85Y-40.1
M16
G05
G00X61.05Y-40.4
M15
G01X61.05Y-40.1
M16
G05
M30
