%TF.GenerationSoftware,KiCad,Pcbnew,8.0.8-8.0.8-0~ubuntu22.04.1*%
%TF.CreationDate,2025-02-25T18:23:06-05:00*%
%TF.ProjectId,tinytapeout-demo,74696e79-7461-4706-956f-75742d64656d,2.1.2*%
%TF.SameCoordinates,PX38be5e0PY7d687e0*%
%TF.FileFunction,Plated,1,4,PTH,Mixed*%
%TF.FilePolarity,Positive*%
%FSLAX46Y46*%
G04 Gerber Fmt 4.6, Leading zero omitted, Abs format (unit mm)*
G04 Created by KiCad (PCBNEW 8.0.8-8.0.8-0~ubuntu22.04.1) date 2025-02-25 18:23:06*
%MOMM*%
%LPD*%
G01*
G04 APERTURE LIST*
%TA.AperFunction,ViaDrill*%
%ADD10C,0.300000*%
%TD*%
%TA.AperFunction,ComponentDrill*%
%ADD11C,0.300000*%
%TD*%
%TA.AperFunction,ViaDrill*%
%ADD12C,0.400000*%
%TD*%
%TA.AperFunction,ComponentDrill*%
%ADD13C,0.400000*%
%TD*%
G04 aperture for slot hole*
%TA.AperFunction,ComponentDrill*%
%ADD14C,0.600000*%
%TD*%
%TA.AperFunction,ComponentDrill*%
%ADD15C,0.600000*%
%TD*%
%TA.AperFunction,ComponentDrill*%
%ADD16C,1.000000*%
%TD*%
%TA.AperFunction,ComponentDrill*%
%ADD17C,3.200000*%
%TD*%
G04 APERTURE END LIST*
D10*
X85600000Y-57800000D03*
X85600000Y-61500000D03*
X86200000Y-67700000D03*
X88700531Y-89349471D03*
X91450000Y-67150000D03*
X91700000Y-86600000D03*
X96327500Y-106774398D03*
X96400000Y-88600000D03*
X96827500Y-90500000D03*
X97388449Y-104455000D03*
X97400000Y-107300000D03*
X97580003Y-85200000D03*
X103200000Y-88800000D03*
X103500000Y-78800000D03*
X104200000Y-87800000D03*
X105500000Y-82400000D03*
X105500000Y-87600000D03*
X105600000Y-99800000D03*
X106400000Y-83400000D03*
X108327500Y-85772500D03*
X108400000Y-80500000D03*
X108400000Y-103500000D03*
X109000000Y-100302500D03*
X109250032Y-85272500D03*
X109702500Y-97900000D03*
X109813714Y-86554067D03*
X109999998Y-79700000D03*
X110470238Y-87154962D03*
X110958820Y-102400000D03*
X111000000Y-91200000D03*
X111200000Y-81900000D03*
X111827825Y-92672175D03*
X111827825Y-97979089D03*
X112000000Y-73150000D03*
X112300000Y-101400000D03*
X112450000Y-90550000D03*
X112600000Y-87600000D03*
X113324485Y-96910961D03*
X113900000Y-115800000D03*
X114400000Y-104372500D03*
X114700000Y-93000000D03*
X114700000Y-94500000D03*
X115190380Y-82309620D03*
X115303021Y-80164674D03*
X115763197Y-79391213D03*
X116080761Y-85000000D03*
X116100000Y-85900000D03*
X116300000Y-88800000D03*
X116682098Y-79391551D03*
X117180002Y-96200000D03*
X117200000Y-88800000D03*
X117800000Y-114800000D03*
X118000000Y-88800000D03*
X118450696Y-99702500D03*
X118700000Y-80900000D03*
X118800000Y-116000000D03*
X119100000Y-84100000D03*
X119100000Y-88700000D03*
X119250000Y-60950000D03*
X119500000Y-94300000D03*
X119750000Y-62050000D03*
X119758175Y-90988683D03*
X120105242Y-93593893D03*
X120174995Y-56425005D03*
X120198797Y-88972024D03*
X120500000Y-111999988D03*
X120709051Y-95142009D03*
X120882500Y-80029531D03*
X120900000Y-87900000D03*
X121067500Y-113267500D03*
X121470469Y-80570469D03*
X121600000Y-63600000D03*
X121654338Y-64614973D03*
X121674109Y-99479892D03*
X121693961Y-92599999D03*
X122074508Y-106256020D03*
X122138961Y-91314900D03*
X122200000Y-65200000D03*
X122370813Y-90462460D03*
X122700000Y-62600000D03*
X122700000Y-107261604D03*
X123017500Y-104817500D03*
X123053961Y-89900000D03*
X123200000Y-108100000D03*
X123332221Y-89035557D03*
X124000000Y-123230000D03*
X125300000Y-83900000D03*
X125500000Y-105272503D03*
X125660617Y-104372500D03*
X125700000Y-87900000D03*
X126000000Y-83000000D03*
X126000002Y-84500000D03*
X126172500Y-113100398D03*
X126300000Y-87100000D03*
X126941715Y-84893349D03*
X127000000Y-105500000D03*
X127293311Y-62707387D03*
X127723527Y-85285450D03*
X127727500Y-107500000D03*
X128300000Y-74600000D03*
X128300000Y-76950000D03*
X128300000Y-79300000D03*
X128300000Y-81550000D03*
X128600000Y-63600000D03*
X128733689Y-85685000D03*
X128999998Y-108000000D03*
X129600000Y-84050000D03*
X129647500Y-86400000D03*
X130000000Y-112000000D03*
X130500000Y-88700000D03*
X130594023Y-101062500D03*
X130800000Y-61900000D03*
X130850000Y-64300000D03*
X131000000Y-93000000D03*
X131800000Y-56750000D03*
X132000000Y-90000000D03*
X132000000Y-98827500D03*
X133300000Y-56750000D03*
X136785720Y-99458220D03*
X137500000Y-91000000D03*
X137500000Y-93000000D03*
X137500000Y-101405000D03*
D11*
%TO.C,STITCHP3*%
X61200000Y-98500000D03*
X61200000Y-108300000D03*
X61200000Y-116200000D03*
X70900000Y-119800000D03*
X71300000Y-114100000D03*
X76000000Y-114100000D03*
X87400000Y-127700000D03*
X92100000Y-118900000D03*
X97300000Y-108700000D03*
X108100000Y-67400000D03*
X110100000Y-102900000D03*
X110200000Y-95600000D03*
X110400000Y-90300000D03*
X117150000Y-86500000D03*
X118500000Y-85200000D03*
X118500000Y-87800000D03*
X119850000Y-86500000D03*
X122300000Y-79800000D03*
X134600000Y-130700000D03*
%TD*%
D12*
X65900000Y-113700000D03*
X66800000Y-95300000D03*
X67500000Y-78500000D03*
X67500000Y-97500000D03*
X67500000Y-117432500D03*
X67800000Y-127500000D03*
X68500000Y-83500000D03*
X68500000Y-92000000D03*
X68500000Y-126499998D03*
X69100012Y-65700000D03*
X69500000Y-99500000D03*
X69800000Y-75700000D03*
X70000000Y-126000000D03*
X70222500Y-90777500D03*
X70800000Y-123400000D03*
X71094328Y-124355707D03*
X71510885Y-115702500D03*
X71800000Y-93500000D03*
X71895000Y-98895000D03*
X72100000Y-76200000D03*
X72100000Y-78740000D03*
X72100000Y-81280000D03*
X72100000Y-83820000D03*
X72100000Y-86360000D03*
X72100000Y-88900000D03*
X72100000Y-91440000D03*
X72500000Y-120500000D03*
X72521301Y-121499776D03*
X72950000Y-93100000D03*
X73000000Y-100500000D03*
X73500000Y-119500000D03*
X73869933Y-87321428D03*
X73900000Y-110500000D03*
X74200000Y-57800000D03*
X74500000Y-60600000D03*
X74500000Y-61500000D03*
X74500000Y-100500000D03*
X74500000Y-125200000D03*
X74632063Y-126067935D03*
X75319999Y-107976230D03*
X76000000Y-62600000D03*
X76000000Y-111000000D03*
X76159328Y-105670000D03*
X76510885Y-117432500D03*
X77277500Y-102700000D03*
X77277500Y-114500000D03*
X77500000Y-124152500D03*
X77900000Y-71600000D03*
X78277500Y-119800000D03*
X78800000Y-124800000D03*
X79000000Y-120600000D03*
X79500000Y-73500000D03*
X79900000Y-61500000D03*
X80000000Y-59400000D03*
X80700000Y-69800000D03*
X80900000Y-121800000D03*
X81000000Y-64900000D03*
X82000000Y-70500000D03*
X82000000Y-77500000D03*
X82000000Y-104000000D03*
X82000000Y-123000000D03*
X82900000Y-59399996D03*
X82900000Y-61500000D03*
X83000000Y-91500000D03*
X83000000Y-97022500D03*
X84000000Y-98000000D03*
X84500000Y-87000000D03*
X84722512Y-122277500D03*
X85000000Y-95000000D03*
X85500000Y-72999996D03*
X86400000Y-101300000D03*
X86600000Y-105645000D03*
X87000000Y-62500000D03*
X87000000Y-69200000D03*
X88277500Y-83500000D03*
X88489115Y-120832500D03*
X89000000Y-75000000D03*
X89500000Y-84222500D03*
X89640505Y-118877500D03*
X90200000Y-70600000D03*
X90222500Y-81750000D03*
X90500000Y-91500000D03*
X90500000Y-104505000D03*
X91315000Y-117432500D03*
X92065965Y-123722500D03*
X92070002Y-80069998D03*
X92100000Y-65700000D03*
X92200000Y-69200000D03*
X92277500Y-95230000D03*
X92277500Y-97730000D03*
X92277500Y-100330000D03*
X92277500Y-102930000D03*
X92277500Y-105430000D03*
X92277500Y-107930000D03*
X92277500Y-113030000D03*
X92300000Y-92700000D03*
X92400000Y-72500000D03*
X94400000Y-66100000D03*
X95100000Y-58900000D03*
X96511589Y-70992818D03*
X96600000Y-60000000D03*
X96600000Y-85200000D03*
X96608602Y-123722500D03*
X96777500Y-70028818D03*
X97119013Y-57040783D03*
X97300000Y-83500000D03*
X97400008Y-109800000D03*
X97500000Y-74800000D03*
X97600000Y-80000000D03*
X98722500Y-110500000D03*
X99281432Y-123752500D03*
X99300000Y-126499996D03*
X99700000Y-88570000D03*
X100120290Y-122277500D03*
X100289504Y-68231159D03*
X100329621Y-124382500D03*
X101070439Y-57644344D03*
X101077500Y-72400000D03*
X101077500Y-76429998D03*
X101500000Y-108010000D03*
X101600000Y-80100000D03*
X101680492Y-124882500D03*
X101800000Y-77500000D03*
X101804369Y-56921844D03*
X102222500Y-110777500D03*
X102317135Y-83305365D03*
X102422500Y-113170000D03*
X102522500Y-67827991D03*
X102522500Y-70048245D03*
X102705788Y-77923738D03*
X102957597Y-119492362D03*
X103000000Y-105500000D03*
X103400000Y-82000000D03*
X104100000Y-64700000D03*
X104400000Y-99752500D03*
X104500000Y-91000000D03*
X104500000Y-94100000D03*
X104500000Y-97200000D03*
X104600000Y-92100000D03*
X105500000Y-63200000D03*
X105500000Y-81600000D03*
X105500000Y-86800000D03*
X105500000Y-100600000D03*
X105600000Y-66400000D03*
X105700000Y-72400000D03*
X106000000Y-123552500D03*
X106400000Y-109500000D03*
X106800000Y-66700000D03*
X106842451Y-62814911D03*
X106842451Y-67600000D03*
X106842451Y-70500000D03*
X106855775Y-60292434D03*
X106880002Y-74000000D03*
X106954689Y-123751135D03*
X107200000Y-102900000D03*
X108200000Y-72350000D03*
X109134617Y-119492362D03*
X109690571Y-54900052D03*
X109700000Y-54200000D03*
X109700000Y-63249996D03*
X109900074Y-72435037D03*
X110750000Y-54850000D03*
X110900000Y-57750000D03*
X111117096Y-120937362D03*
X111800000Y-124300000D03*
X112000000Y-74500000D03*
X112000000Y-118500000D03*
X112300000Y-78000000D03*
X112800000Y-65700000D03*
X113000000Y-77000000D03*
X113300000Y-54850000D03*
X113300000Y-58600000D03*
X113388922Y-120455000D03*
X113850000Y-66850000D03*
X114000000Y-72100000D03*
X114951261Y-54883120D03*
X114981998Y-69924002D03*
X115154271Y-60586186D03*
X115600000Y-69100000D03*
X115619975Y-76319975D03*
X115900000Y-121577500D03*
X115983984Y-72042753D03*
X116750002Y-70750000D03*
X118000000Y-122322500D03*
X118250004Y-63550000D03*
X118500000Y-66700000D03*
X118961435Y-68395339D03*
X119300000Y-124600000D03*
X120000000Y-73700000D03*
X120599990Y-61200000D03*
X120800000Y-127100000D03*
X121200000Y-61800000D03*
X122000000Y-126300000D03*
X123100000Y-123200000D03*
X124000000Y-82500000D03*
X124200000Y-124752500D03*
X124235617Y-88725871D03*
X125100000Y-67900000D03*
X125200000Y-126700000D03*
X125400000Y-120877500D03*
X126000000Y-124100000D03*
X126895000Y-120100000D03*
X127700000Y-121377500D03*
X128700000Y-61800000D03*
X128800000Y-122100000D03*
X129750000Y-61550000D03*
X129800000Y-119100000D03*
X130700000Y-120500000D03*
X130900000Y-119100000D03*
X132000000Y-110500000D03*
X132000000Y-115500000D03*
X132200000Y-67400000D03*
X132200000Y-70000000D03*
X132450000Y-87500000D03*
X134500000Y-94000000D03*
X135800000Y-130700000D03*
X136000000Y-98600000D03*
X136000000Y-103500000D03*
X136722500Y-120097233D03*
X137100000Y-72400000D03*
X137100000Y-74950000D03*
X137100000Y-77450000D03*
X137100000Y-79950000D03*
X137100000Y-82450000D03*
X137100000Y-84950000D03*
X137100000Y-87450000D03*
X137400000Y-57900000D03*
X137400000Y-60400000D03*
X138500000Y-58900000D03*
X138500000Y-62200000D03*
X139500000Y-96500000D03*
X139500000Y-101520002D03*
X139500000Y-109500000D03*
X140100000Y-65900000D03*
X141200000Y-119400000D03*
X141589115Y-94410885D03*
X141729603Y-99751373D03*
X142000000Y-57800000D03*
X142000000Y-60400000D03*
X142000000Y-115500000D03*
X142700000Y-102200000D03*
X142777593Y-124560000D03*
X143363158Y-125400000D03*
X143800000Y-121900000D03*
X145000000Y-124800000D03*
X145700000Y-57200000D03*
X145800000Y-54200000D03*
X147100000Y-122000000D03*
X149850000Y-107043466D03*
X150000000Y-98500000D03*
X150600000Y-101200000D03*
X150630331Y-107869669D03*
X151500000Y-55000000D03*
X151500000Y-56000000D03*
X152400000Y-67400000D03*
X152500000Y-70200000D03*
X152500000Y-120500000D03*
X152900000Y-61300000D03*
X153100000Y-119900000D03*
X153300000Y-67400000D03*
X153400000Y-70200000D03*
X154100000Y-92100000D03*
X154100000Y-97600000D03*
X154400000Y-107400000D03*
X154950000Y-96750000D03*
X155100000Y-109800000D03*
X155850000Y-96200000D03*
X156100000Y-109000000D03*
X156700000Y-91100000D03*
X156800000Y-103600000D03*
D13*
%TO.C,STITCHB27*%
X60300000Y-65400000D03*
%TO.C,STITCHB29*%
X60300000Y-67940000D03*
%TO.C,STITCHB30*%
X60300000Y-70480000D03*
%TO.C,STITCHB31*%
X60300000Y-73020000D03*
%TO.C,STITCHB32*%
X60300000Y-75560000D03*
%TO.C,STITCHB33*%
X60300000Y-78100000D03*
%TO.C,STITCHB34*%
X60300000Y-88100000D03*
%TO.C,STITCHB35*%
X60300000Y-93600000D03*
%TO.C,STITCHB1*%
X60500000Y-121500000D03*
X65750000Y-102900000D03*
X66400000Y-122500000D03*
X66400000Y-125300000D03*
X68200000Y-60600000D03*
X68200000Y-62900000D03*
X68600000Y-128400000D03*
X70800000Y-78500000D03*
X70800000Y-86200000D03*
X71350000Y-109600000D03*
X71400000Y-90100000D03*
X71400000Y-100200000D03*
X71600000Y-125400000D03*
X72300000Y-130700000D03*
X73400000Y-60400000D03*
X73400000Y-68700000D03*
X73500000Y-111700000D03*
X74800000Y-130700000D03*
X75500000Y-63700000D03*
X75700000Y-82600000D03*
X75700000Y-87800000D03*
X75700000Y-92700000D03*
X76400000Y-104100000D03*
X77000000Y-120100000D03*
X77300000Y-130700000D03*
X78000000Y-60600000D03*
X79500000Y-71700000D03*
X80000000Y-122500000D03*
X81900000Y-69200000D03*
X83000000Y-89000000D03*
X83100000Y-76700000D03*
X83800000Y-101600000D03*
X84100000Y-60600000D03*
X86000000Y-97800000D03*
X86400000Y-124600000D03*
X86750000Y-95450000D03*
X87200000Y-73100000D03*
X87300000Y-99700000D03*
X88100000Y-58000000D03*
X88100000Y-63700000D03*
X89850000Y-76450000D03*
X90300000Y-80100000D03*
X90900000Y-85400000D03*
X92800000Y-58100000D03*
X92900000Y-130700000D03*
X94100000Y-124600000D03*
X96400000Y-58700000D03*
X96800000Y-125000000D03*
X97700000Y-130700000D03*
X99550000Y-76200000D03*
X99600000Y-94050000D03*
X100000000Y-117200000D03*
X102700000Y-130700000D03*
X103400000Y-110750000D03*
X103800000Y-75500000D03*
X104200000Y-119000000D03*
X105200000Y-60400000D03*
X107400000Y-100500000D03*
X107500000Y-81000000D03*
X107500000Y-86700000D03*
X107500000Y-90400000D03*
X107500000Y-95300000D03*
X107500000Y-97600000D03*
X107500000Y-109000000D03*
X108400000Y-56600000D03*
X108400000Y-62750000D03*
X108400000Y-121000000D03*
X108400000Y-124200000D03*
X110300000Y-130700000D03*
X111200000Y-79100000D03*
X112900000Y-130700000D03*
X113100000Y-118800000D03*
X113700000Y-76100000D03*
X114200000Y-96400000D03*
X115400000Y-130700000D03*
X115850000Y-111150000D03*
X117900000Y-130700000D03*
%TO.C,STITCHB7*%
X119900000Y-66700000D03*
%TO.C,STITCHB4*%
X119900000Y-77900000D03*
%TO.C,STITCHB6*%
X120000000Y-68450000D03*
%TO.C,STITCHB1*%
X120500000Y-130700000D03*
X122100000Y-108900000D03*
X122100000Y-113700000D03*
X122100000Y-118700000D03*
%TO.C,STITCHB7*%
X122250000Y-58000000D03*
%TO.C,STITCHB1*%
X122500000Y-68900000D03*
%TO.C,STITCHB2*%
X122500000Y-72900000D03*
%TO.C,STITCHB3*%
X122500000Y-76900000D03*
%TO.C,STITCHB1*%
X123100000Y-130700000D03*
%TO.C,STITCHB7*%
X124200000Y-55100000D03*
X125500000Y-58100000D03*
%TO.C,STITCHB5*%
X126100000Y-74850000D03*
%TO.C,STITCHB1*%
X126300000Y-68400000D03*
%TO.C,STITCHB7*%
X126800000Y-55100000D03*
%TO.C,STITCHB1*%
X127100000Y-64900000D03*
X127700000Y-84100000D03*
X130700000Y-87200000D03*
X131100000Y-91900000D03*
X131700000Y-103800000D03*
X131750000Y-106350000D03*
X131900000Y-121300000D03*
X136000000Y-121300000D03*
X137100000Y-67300000D03*
X142400000Y-121300000D03*
X142900000Y-72400000D03*
%TO.C,STITCHB8*%
X142900000Y-74940000D03*
%TO.C,STITCHB9*%
X142900000Y-77480000D03*
%TO.C,STITCHB10*%
X142900000Y-80020000D03*
%TO.C,STITCHB11*%
X142900000Y-82560000D03*
%TO.C,STITCHB12*%
X142900000Y-85100000D03*
%TO.C,STITCHB13*%
X142900000Y-87640000D03*
%TO.C,STITCHB1*%
X146100000Y-125500000D03*
X147100000Y-120800000D03*
X147400000Y-89600000D03*
X147400000Y-92300000D03*
X147400000Y-94700000D03*
X147400000Y-97200000D03*
X147400000Y-99700000D03*
X147400000Y-102200000D03*
X147400000Y-104700000D03*
X147400000Y-107200000D03*
X147400000Y-109600000D03*
X148400000Y-130700000D03*
X150400000Y-66400000D03*
X150400000Y-71400000D03*
X150400000Y-119200000D03*
X154000000Y-119200000D03*
X154200000Y-102500000D03*
X154300000Y-66400000D03*
X154300000Y-71400000D03*
X156200000Y-110500000D03*
%TO.C,STITCHB26*%
X158100000Y-129000000D03*
%TO.C,STITCHB14*%
X158200000Y-61400000D03*
%TO.C,STITCHB15*%
X158200000Y-66400000D03*
%TO.C,STITCHB16*%
X158200000Y-71400000D03*
%TO.C,STITCHB17*%
X158200000Y-76400000D03*
%TO.C,STITCHB18*%
X158200000Y-81400000D03*
%TO.C,STITCHB19*%
X158200000Y-86400000D03*
%TO.C,STITCHB20*%
X158200000Y-91400000D03*
%TO.C,STITCHB21*%
X158200000Y-96400000D03*
%TO.C,STITCHB22*%
X158200000Y-101400000D03*
%TO.C,STITCHB23*%
X158200000Y-106400000D03*
%TO.C,STITCHB24*%
X158200000Y-111400000D03*
%TO.C,STITCHB25*%
X158200000Y-116400000D03*
D14*
%TO.C,J20*%
X121280000Y-55150000D02*
X121280000Y-55750000D01*
X121280000Y-59080000D02*
X121280000Y-60180000D01*
X129920000Y-55150000D02*
X129920000Y-55750000D01*
X129920000Y-59080000D02*
X129920000Y-60180000D01*
D15*
%TO.C,JP8*%
X143000000Y-91000000D03*
%TO.C,JP7*%
X143000000Y-93500000D03*
%TO.C,JP6*%
X143000000Y-96000000D03*
%TO.C,JP5*%
X143000000Y-98500000D03*
%TO.C,JP4*%
X143000000Y-101000000D03*
%TO.C,JP3*%
X143000000Y-103500000D03*
%TO.C,JP2*%
X143000000Y-106000000D03*
%TO.C,JP1*%
X143000000Y-108500000D03*
%TO.C,JP8*%
X146000000Y-91000000D03*
%TO.C,JP7*%
X146000000Y-93500000D03*
%TO.C,JP6*%
X146000000Y-96000000D03*
%TO.C,JP5*%
X146000000Y-98500000D03*
%TO.C,JP4*%
X146000000Y-101000000D03*
%TO.C,JP3*%
X146000000Y-103500000D03*
%TO.C,JP2*%
X146000000Y-106000000D03*
%TO.C,JP1*%
X146000000Y-108500000D03*
D16*
%TO.C,J10*%
X61725000Y-105395000D03*
%TO.C,J14*%
X62060000Y-64180000D03*
X62060000Y-66720000D03*
X62060000Y-69260000D03*
X62060000Y-71800000D03*
X62060000Y-74340000D03*
X62060000Y-76880000D03*
%TO.C,J13*%
X62060000Y-87040000D03*
X62060000Y-89580000D03*
X62060000Y-92120000D03*
X62060000Y-94660000D03*
X62060000Y-97200000D03*
X62060000Y-99740000D03*
%TO.C,J12*%
X62060000Y-109900000D03*
X62060000Y-112440000D03*
X62060000Y-114980000D03*
X62060000Y-117520000D03*
X62060000Y-120060000D03*
X62060000Y-122600000D03*
%TO.C,J10*%
X64265000Y-105395000D03*
%TO.C,J14*%
X64600000Y-64180000D03*
X64600000Y-66720000D03*
X64600000Y-69260000D03*
X64600000Y-71800000D03*
X64600000Y-74340000D03*
X64600000Y-76880000D03*
%TO.C,J13*%
X64600000Y-87040000D03*
X64600000Y-89580000D03*
X64600000Y-92120000D03*
X64600000Y-94660000D03*
X64600000Y-97200000D03*
X64600000Y-99740000D03*
%TO.C,J12*%
X64600000Y-109900000D03*
X64600000Y-112440000D03*
X64600000Y-114980000D03*
X64600000Y-117520000D03*
X64600000Y-120060000D03*
X64600000Y-122600000D03*
%TO.C,J9*%
X68500000Y-55300000D03*
%TO.C,J2*%
X71000000Y-129000000D03*
%TO.C,J9*%
X71040000Y-55300000D03*
%TO.C,J2*%
X73540000Y-129000000D03*
%TO.C,J9*%
X73580000Y-55300000D03*
%TO.C,J2*%
X76080000Y-129000000D03*
%TO.C,J9*%
X76120000Y-55300000D03*
%TO.C,J2*%
X78620000Y-129000000D03*
%TO.C,J9*%
X78660000Y-55300000D03*
%TO.C,J3*%
X81155000Y-126455000D03*
X81155000Y-128995000D03*
%TO.C,J9*%
X81200000Y-55300000D03*
%TO.C,J3*%
X83695000Y-126455000D03*
X83695000Y-128995000D03*
%TO.C,J9*%
X83740000Y-55300000D03*
%TO.C,J3*%
X86235000Y-126455000D03*
X86235000Y-128995000D03*
%TO.C,J9*%
X86280000Y-55300000D03*
%TO.C,J3*%
X88775000Y-126455000D03*
X88775000Y-128995000D03*
%TO.C,J9*%
X88820000Y-55300000D03*
%TO.C,J3*%
X91315000Y-126455000D03*
X91315000Y-128995000D03*
%TO.C,J9*%
X91360000Y-55300000D03*
%TO.C,J3*%
X93855000Y-126455000D03*
X93855000Y-128995000D03*
%TO.C,J9*%
X93900000Y-55300000D03*
%TO.C,J17*%
X96430000Y-129000000D03*
%TO.C,J9*%
X96440000Y-55300000D03*
%TO.C,J17*%
X98970000Y-129000000D03*
%TO.C,J9*%
X98980000Y-55300000D03*
%TO.C,J17*%
X101510000Y-129000000D03*
%TO.C,J9*%
X101520000Y-55300000D03*
%TO.C,J5*%
X104015000Y-126455000D03*
X104015000Y-128995000D03*
%TO.C,J9*%
X104060000Y-55300000D03*
%TO.C,J5*%
X106555000Y-126455000D03*
X106555000Y-128995000D03*
%TO.C,J9*%
X106600000Y-55300000D03*
%TO.C,J5*%
X109095000Y-126455000D03*
X109095000Y-128995000D03*
X111635000Y-126455000D03*
X111635000Y-128995000D03*
%TO.C,J19*%
X113450000Y-64100000D03*
%TO.C,J5*%
X114175000Y-126455000D03*
X114175000Y-128995000D03*
%TO.C,J19*%
X115990000Y-64100000D03*
%TO.C,J5*%
X116715000Y-126455000D03*
X116715000Y-128995000D03*
%TO.C,J8*%
X119275000Y-129000000D03*
X121815000Y-129000000D03*
X124355000Y-129000000D03*
%TO.C,J6*%
X126875000Y-126455000D03*
X126875000Y-128995000D03*
X129415000Y-126455000D03*
X129415000Y-128995000D03*
X131955000Y-126455000D03*
X131955000Y-128995000D03*
X134495000Y-126455000D03*
X134495000Y-128995000D03*
X137035000Y-126455000D03*
X137035000Y-128995000D03*
X139575000Y-126455000D03*
X139575000Y-128995000D03*
%TO.C,J1*%
X142110000Y-129000000D03*
X144650000Y-129000000D03*
X147190000Y-129000000D03*
X149730000Y-129000000D03*
X152270000Y-129000000D03*
X154810000Y-129000000D03*
D17*
%TO.C,MT3*%
X63000000Y-57000000D03*
%TO.C,MT1*%
X63000000Y-128000000D03*
%TO.C,MT4*%
X155500000Y-57000000D03*
%TO.C,MT2*%
X155500000Y-123500000D03*
M02*
