%TF.GenerationSoftware,KiCad,Pcbnew,8.0.8-8.0.8-0~ubuntu22.04.1*%
%TF.CreationDate,2025-02-25T18:23:06-05:00*%
%TF.ProjectId,tinytapeout-demo,74696e79-7461-4706-956f-75742d64656d,2.1.2*%
%TF.SameCoordinates,PX38be5e0PY7d687e0*%
%TF.FileFunction,Soldermask,Top*%
%TF.FilePolarity,Negative*%
%FSLAX46Y46*%
G04 Gerber Fmt 4.6, Leading zero omitted, Abs format (unit mm)*
G04 Created by KiCad (PCBNEW 8.0.8-8.0.8-0~ubuntu22.04.1) date 2025-02-25 18:23:06*
%MOMM*%
%LPD*%
G01*
G04 APERTURE LIST*
G04 Aperture macros list*
%AMRoundRect*
0 Rectangle with rounded corners*
0 $1 Rounding radius*
0 $2 $3 $4 $5 $6 $7 $8 $9 X,Y pos of 4 corners*
0 Add a 4 corners polygon primitive as box body*
4,1,4,$2,$3,$4,$5,$6,$7,$8,$9,$2,$3,0*
0 Add four circle primitives for the rounded corners*
1,1,$1+$1,$2,$3*
1,1,$1+$1,$4,$5*
1,1,$1+$1,$6,$7*
1,1,$1+$1,$8,$9*
0 Add four rect primitives between the rounded corners*
20,1,$1+$1,$2,$3,$4,$5,0*
20,1,$1+$1,$4,$5,$6,$7,0*
20,1,$1+$1,$6,$7,$8,$9,0*
20,1,$1+$1,$8,$9,$2,$3,0*%
%AMFreePoly0*
4,1,19,0.500000,-0.750000,0.000000,-0.750000,0.000000,-0.744911,-0.071157,-0.744911,-0.207708,-0.704816,-0.327430,-0.627875,-0.420627,-0.520320,-0.479746,-0.390866,-0.500000,-0.250000,-0.500000,0.250000,-0.479746,0.390866,-0.420627,0.520320,-0.327430,0.627875,-0.207708,0.704816,-0.071157,0.744911,0.000000,0.744911,0.000000,0.750000,0.500000,0.750000,0.500000,-0.750000,0.500000,-0.750000,
$1*%
%AMFreePoly1*
4,1,19,0.000000,0.744911,0.071157,0.744911,0.207708,0.704816,0.327430,0.627875,0.420627,0.520320,0.479746,0.390866,0.500000,0.250000,0.500000,-0.250000,0.479746,-0.390866,0.420627,-0.520320,0.327430,-0.627875,0.207708,-0.704816,0.071157,-0.744911,0.000000,-0.744911,0.000000,-0.750000,-0.500000,-0.750000,-0.500000,0.750000,0.000000,0.750000,0.000000,0.744911,0.000000,0.744911,
$1*%
G04 Aperture macros list end*
%ADD10C,0.900000*%
%ADD11FreePoly0,0.000000*%
%ADD12FreePoly1,0.000000*%
%ADD13RoundRect,0.135000X0.135000X0.185000X-0.135000X0.185000X-0.135000X-0.185000X0.135000X-0.185000X0*%
%ADD14RoundRect,0.135000X0.185000X-0.135000X0.185000X0.135000X-0.185000X0.135000X-0.185000X-0.135000X0*%
%ADD15RoundRect,0.225000X-0.250000X0.225000X-0.250000X-0.225000X0.250000X-0.225000X0.250000X0.225000X0*%
%ADD16RoundRect,0.140000X-0.170000X0.140000X-0.170000X-0.140000X0.170000X-0.140000X0.170000X0.140000X0*%
%ADD17RoundRect,0.140000X-0.140000X-0.170000X0.140000X-0.170000X0.140000X0.170000X-0.140000X0.170000X0*%
%ADD18C,6.400000*%
%ADD19RoundRect,0.250000X0.475000X-0.250000X0.475000X0.250000X-0.475000X0.250000X-0.475000X-0.250000X0*%
%ADD20C,2.000000*%
%ADD21RoundRect,0.135000X-0.185000X0.135000X-0.185000X-0.135000X0.185000X-0.135000X0.185000X0.135000X0*%
%ADD22RoundRect,0.225000X-0.225000X-0.250000X0.225000X-0.250000X0.225000X0.250000X-0.225000X0.250000X0*%
%ADD23R,1.700000X1.700000*%
%ADD24O,1.700000X1.700000*%
%ADD25C,1.700000*%
%ADD26RoundRect,0.250000X-0.250000X-0.475000X0.250000X-0.475000X0.250000X0.475000X-0.250000X0.475000X0*%
%ADD27RoundRect,0.135000X-0.135000X-0.185000X0.135000X-0.185000X0.135000X0.185000X-0.135000X0.185000X0*%
%ADD28RoundRect,0.250000X0.250000X0.475000X-0.250000X0.475000X-0.250000X-0.475000X0.250000X-0.475000X0*%
%ADD29RoundRect,0.200000X-0.200000X-0.275000X0.200000X-0.275000X0.200000X0.275000X-0.200000X0.275000X0*%
%ADD30RoundRect,0.140000X0.140000X0.170000X-0.140000X0.170000X-0.140000X-0.170000X0.140000X-0.170000X0*%
%ADD31R,1.400000X1.200000*%
%ADD32RoundRect,0.140000X0.170000X-0.140000X0.170000X0.140000X-0.170000X0.140000X-0.170000X-0.140000X0*%
%ADD33RoundRect,0.102000X-0.700000X0.750000X-0.700000X-0.750000X0.700000X-0.750000X0.700000X0.750000X0*%
%ADD34C,0.650000*%
%ADD35RoundRect,0.150000X0.150000X0.575000X-0.150000X0.575000X-0.150000X-0.575000X0.150000X-0.575000X0*%
%ADD36RoundRect,0.075000X0.075000X0.650000X-0.075000X0.650000X-0.075000X-0.650000X0.075000X-0.650000X0*%
%ADD37O,1.000000X2.100000*%
%ADD38O,1.000000X1.600000*%
%ADD39R,1.000000X2.510000*%
%ADD40RoundRect,0.250000X-0.475000X0.250000X-0.475000X-0.250000X0.475000X-0.250000X0.475000X0.250000X0*%
%ADD41RoundRect,0.200000X-0.275000X0.200000X-0.275000X-0.200000X0.275000X-0.200000X0.275000X0.200000X0*%
%ADD42RoundRect,0.200000X0.200000X0.275000X-0.200000X0.275000X-0.200000X-0.275000X0.200000X-0.275000X0*%
%ADD43RoundRect,0.200000X0.300000X-0.950000X0.300000X0.950000X-0.300000X0.950000X-0.300000X-0.950000X0*%
%ADD44R,1.000000X2.300000*%
%ADD45RoundRect,0.150000X-0.650000X-0.150000X0.650000X-0.150000X0.650000X0.150000X-0.650000X0.150000X0*%
%ADD46RoundRect,0.225000X0.250000X-0.225000X0.250000X0.225000X-0.250000X0.225000X-0.250000X-0.225000X0*%
%ADD47RoundRect,0.050000X-0.387500X-0.050000X0.387500X-0.050000X0.387500X0.050000X-0.387500X0.050000X0*%
%ADD48RoundRect,0.050000X-0.050000X-0.387500X0.050000X-0.387500X0.050000X0.387500X-0.050000X0.387500X0*%
%ADD49R,3.200000X3.200000*%
%ADD50RoundRect,0.150000X0.150000X-0.587500X0.150000X0.587500X-0.150000X0.587500X-0.150000X-0.587500X0*%
%ADD51RoundRect,0.243750X0.243750X0.456250X-0.243750X0.456250X-0.243750X-0.456250X0.243750X-0.456250X0*%
%ADD52RoundRect,0.102000X-0.750000X-0.700000X0.750000X-0.700000X0.750000X0.700000X-0.750000X0.700000X0*%
%ADD53RoundRect,0.200000X0.275000X-0.200000X0.275000X0.200000X-0.275000X0.200000X-0.275000X-0.200000X0*%
%ADD54RoundRect,0.102000X0.700000X-0.750000X0.700000X0.750000X-0.700000X0.750000X-0.700000X-0.750000X0*%
%ADD55RoundRect,0.150000X-0.150000X0.512500X-0.150000X-0.512500X0.150000X-0.512500X0.150000X0.512500X0*%
%ADD56R,1.500000X2.000000*%
%ADD57R,3.800000X2.000000*%
%ADD58RoundRect,0.225000X0.225000X0.250000X-0.225000X0.250000X-0.225000X-0.250000X0.225000X-0.250000X0*%
%ADD59R,3.150000X1.000000*%
%ADD60RoundRect,0.218750X0.256250X-0.218750X0.256250X0.218750X-0.256250X0.218750X-0.256250X-0.218750X0*%
%ADD61R,2.600000X1.550000*%
G04 APERTURE END LIST*
D10*
%TO.C,JP7*%
X143000000Y-93500000D03*
D11*
X143850000Y-93500000D03*
D12*
X145150000Y-93500000D03*
D10*
X146000000Y-93500000D03*
%TD*%
D13*
%TO.C,R53*%
X129310000Y-78130000D03*
X128290000Y-78130000D03*
%TD*%
D14*
%TO.C,R15*%
X146500000Y-57110000D03*
X146500000Y-56090000D03*
%TD*%
D15*
%TO.C,C32*%
X117800000Y-78125000D03*
X117800000Y-79675000D03*
%TD*%
D16*
%TO.C,C23*%
X144600000Y-66220000D03*
X144600000Y-67180000D03*
%TD*%
D17*
%TO.C,C36*%
X118920000Y-92850000D03*
X119880000Y-92850000D03*
%TD*%
D13*
%TO.C,R55*%
X129310000Y-73450000D03*
X128290000Y-73450000D03*
%TD*%
D10*
%TO.C,JP1*%
X143000000Y-108500000D03*
D11*
X143850000Y-108500000D03*
D12*
X145150000Y-108500000D03*
D10*
X146000000Y-108500000D03*
%TD*%
D13*
%TO.C,R20*%
X120710000Y-63750000D03*
X119690000Y-63750000D03*
%TD*%
D18*
%TO.C,MT3*%
X63000000Y-57000000D03*
%TD*%
D19*
%TO.C,C16*%
X147900000Y-72100000D03*
X147900000Y-70200000D03*
%TD*%
D20*
%TO.C,FID3*%
X157500000Y-63500000D03*
%TD*%
D21*
%TO.C,R38*%
X119500000Y-70090000D03*
X119500000Y-71110000D03*
%TD*%
D22*
%TO.C,C48*%
X117675000Y-59900000D03*
X119225000Y-59900000D03*
%TD*%
D23*
%TO.C,J13*%
X64600000Y-99740000D03*
D24*
X64600000Y-97200000D03*
X64600000Y-94660000D03*
X64600000Y-92120000D03*
X64600000Y-89580000D03*
D25*
X64600000Y-87040000D03*
D24*
X62060000Y-99740000D03*
X62060000Y-97200000D03*
X62060000Y-94660000D03*
X62060000Y-92120000D03*
X62060000Y-89580000D03*
X62060000Y-87040000D03*
%TD*%
D26*
%TO.C,C6*%
X110900000Y-66950000D03*
X112800000Y-66950000D03*
%TD*%
D27*
%TO.C,R5*%
X72980000Y-83828571D03*
X74000000Y-83828571D03*
%TD*%
D16*
%TO.C,C56*%
X68400000Y-110420000D03*
X68400000Y-111380000D03*
%TD*%
D28*
%TO.C,C7*%
X116150000Y-55600000D03*
X114250000Y-55600000D03*
%TD*%
D29*
%TO.C,R7*%
X88485000Y-108000000D03*
X90135000Y-108000000D03*
%TD*%
D27*
%TO.C,R1*%
X72980000Y-94000000D03*
X74000000Y-94000000D03*
%TD*%
D30*
%TO.C,C29*%
X116680000Y-93000000D03*
X115720000Y-93000000D03*
%TD*%
D25*
%TO.C,J2*%
X78620000Y-129000000D03*
D24*
X76080000Y-129000000D03*
X73540000Y-129000000D03*
X71000000Y-129000000D03*
%TD*%
D30*
%TO.C,C24*%
X89180000Y-70500000D03*
X88220000Y-70500000D03*
%TD*%
D16*
%TO.C,C8*%
X124500000Y-125720000D03*
X124500000Y-126680000D03*
%TD*%
D31*
%TO.C,Y1*%
X115900000Y-96200000D03*
X118100000Y-96200000D03*
X118100000Y-94500000D03*
X115900000Y-94500000D03*
%TD*%
D14*
%TO.C,R18*%
X137400000Y-57110000D03*
X137400000Y-56090000D03*
%TD*%
D16*
%TO.C,C58*%
X66900000Y-61920000D03*
X66900000Y-62880000D03*
%TD*%
D14*
%TO.C,R50*%
X136900000Y-64510000D03*
X136900000Y-63490000D03*
%TD*%
D27*
%TO.C,R11*%
X72990000Y-76200000D03*
X74010000Y-76200000D03*
%TD*%
%TO.C,R43*%
X103490000Y-100500000D03*
X104510000Y-100500000D03*
%TD*%
D17*
%TO.C,C46*%
X129820000Y-62550000D03*
X130780000Y-62550000D03*
%TD*%
D32*
%TO.C,C4*%
X78800000Y-126680000D03*
X78800000Y-125720000D03*
%TD*%
D27*
%TO.C,R24*%
X146830000Y-103471428D03*
X147850000Y-103471428D03*
%TD*%
%TO.C,R22*%
X146980000Y-108460000D03*
X148000000Y-108460000D03*
%TD*%
D30*
%TO.C,C47*%
X120680000Y-62750000D03*
X119720000Y-62750000D03*
%TD*%
D10*
%TO.C,JP3*%
X143000000Y-103500000D03*
D11*
X143850000Y-103500000D03*
D12*
X145150000Y-103500000D03*
D10*
X146000000Y-103500000D03*
%TD*%
D27*
%TO.C,R3*%
X72980000Y-88914285D03*
X74000000Y-88914285D03*
%TD*%
D10*
%TO.C,JP8*%
X143000000Y-91000000D03*
D11*
X143850000Y-91000000D03*
D12*
X145150000Y-91000000D03*
D10*
X146000000Y-91000000D03*
%TD*%
D25*
%TO.C,J8*%
X124355000Y-129000000D03*
D24*
X121815000Y-129000000D03*
X119275000Y-129000000D03*
%TD*%
D30*
%TO.C,C2*%
X74380000Y-105600000D03*
X73420000Y-105600000D03*
%TD*%
D23*
%TO.C,J12*%
X64600000Y-122600000D03*
D24*
X64600000Y-120060000D03*
X64600000Y-117520000D03*
X64600000Y-114980000D03*
X64600000Y-112440000D03*
D25*
X64600000Y-109900000D03*
D24*
X62060000Y-122600000D03*
X62060000Y-120060000D03*
X62060000Y-117520000D03*
X62060000Y-114980000D03*
X62060000Y-112440000D03*
X62060000Y-109900000D03*
%TD*%
D13*
%TO.C,R41*%
X112843884Y-83511018D03*
X111823884Y-83511018D03*
%TD*%
D33*
%TO.C,SW2*%
X78000000Y-101250000D03*
X78000000Y-107750000D03*
%TD*%
D13*
%TO.C,R8*%
X75020000Y-107000000D03*
X74000000Y-107000000D03*
%TD*%
%TO.C,R54*%
X129310000Y-75790000D03*
X128290000Y-75790000D03*
%TD*%
D15*
%TO.C,C49*%
X119150000Y-54875000D03*
X119150000Y-56425000D03*
%TD*%
D17*
%TO.C,C35*%
X123820000Y-87900000D03*
X124780000Y-87900000D03*
%TD*%
D34*
%TO.C,J20*%
X128490000Y-59100000D03*
X122710000Y-59100000D03*
D35*
X128850000Y-60545000D03*
X128050000Y-60545000D03*
D36*
X126850000Y-60545000D03*
X125850000Y-60545000D03*
X125350000Y-60545000D03*
X124350000Y-60545000D03*
D35*
X123150000Y-60545000D03*
X122350000Y-60545000D03*
X122350000Y-60545000D03*
X123150000Y-60545000D03*
D36*
X123850000Y-60545000D03*
X124850000Y-60545000D03*
X126350000Y-60545000D03*
X127350000Y-60545000D03*
D35*
X128050000Y-60545000D03*
X128850000Y-60545000D03*
D37*
X129920000Y-59630000D03*
D38*
X129920000Y-55450000D03*
D37*
X121280000Y-59630000D03*
D38*
X121280000Y-55450000D03*
%TD*%
D23*
%TO.C,J3*%
X93855000Y-126455000D03*
D24*
X91315000Y-126455000D03*
X88775000Y-126455000D03*
X86235000Y-126455000D03*
X83695000Y-126455000D03*
D25*
X81155000Y-126455000D03*
D24*
X93855000Y-128995000D03*
X91315000Y-128995000D03*
X88775000Y-128995000D03*
X86235000Y-128995000D03*
X83695000Y-128995000D03*
X81155000Y-128995000D03*
%TD*%
D39*
%TO.C,J7*%
X118270000Y-118155000D03*
X115730000Y-114845000D03*
%TD*%
D13*
%TO.C,R12*%
X89520000Y-109200000D03*
X88500000Y-109200000D03*
%TD*%
D15*
%TO.C,C25*%
X88100000Y-67725000D03*
X88100000Y-69275000D03*
%TD*%
D18*
%TO.C,MT4*%
X155500000Y-57000000D03*
%TD*%
%TO.C,MT2*%
X155500000Y-123500000D03*
%TD*%
D15*
%TO.C,C5*%
X77500000Y-124925000D03*
X77500000Y-126475000D03*
%TD*%
D14*
%TO.C,R13*%
X73100000Y-108010000D03*
X73100000Y-106990000D03*
%TD*%
D27*
%TO.C,R21*%
X129790000Y-63500000D03*
X130810000Y-63500000D03*
%TD*%
%TO.C,R42*%
X103500000Y-103000000D03*
X104520000Y-103000000D03*
%TD*%
D23*
%TO.C,J5*%
X116715000Y-126455000D03*
D24*
X114175000Y-126455000D03*
X111635000Y-126455000D03*
X109095000Y-126455000D03*
X106555000Y-126455000D03*
D25*
X104015000Y-126455000D03*
D24*
X116715000Y-128995000D03*
X114175000Y-128995000D03*
X111635000Y-128995000D03*
X109095000Y-128995000D03*
X106555000Y-128995000D03*
X104015000Y-128995000D03*
%TD*%
D40*
%TO.C,C21*%
X90000000Y-67100000D03*
X90000000Y-69000000D03*
%TD*%
D41*
%TO.C,R49*%
X112550000Y-59575000D03*
X112550000Y-61225000D03*
%TD*%
D27*
%TO.C,R2*%
X72980000Y-91457142D03*
X74000000Y-91457142D03*
%TD*%
D42*
%TO.C,D5*%
X127325000Y-63600000D03*
X125675000Y-63600000D03*
%TD*%
D10*
%TO.C,JP2*%
X143000000Y-106000000D03*
D11*
X143850000Y-106000000D03*
D12*
X145150000Y-106000000D03*
D10*
X146000000Y-106000000D03*
%TD*%
D16*
%TO.C,C30*%
X119700000Y-95420000D03*
X119700000Y-96380000D03*
%TD*%
D27*
%TO.C,R28*%
X146980000Y-93494284D03*
X148000000Y-93494284D03*
%TD*%
D30*
%TO.C,C39*%
X113080000Y-81900000D03*
X112120000Y-81900000D03*
%TD*%
D43*
%TO.C,U1*%
X150000000Y-105450000D03*
D44*
X151500000Y-105450000D03*
X153000000Y-105450000D03*
X154500000Y-105450000D03*
X156000000Y-105450000D03*
X156000000Y-94550000D03*
X154500000Y-94550000D03*
X153000000Y-94550000D03*
X151500000Y-94550000D03*
X150000000Y-94550000D03*
%TD*%
D27*
%TO.C,R23*%
X146980000Y-105965714D03*
X148000000Y-105965714D03*
%TD*%
D30*
%TO.C,C38*%
X111880000Y-87000000D03*
X110920000Y-87000000D03*
%TD*%
D27*
%TO.C,R45*%
X103490000Y-95000000D03*
X104510000Y-95000000D03*
%TD*%
D45*
%TO.C,U5*%
X110700000Y-69895000D03*
X110700000Y-71165000D03*
X110700000Y-72435000D03*
X110700000Y-73705000D03*
X117900000Y-73705000D03*
X117900000Y-72435000D03*
X117900000Y-71165000D03*
X117900000Y-69895000D03*
%TD*%
D13*
%TO.C,R51*%
X129310000Y-82810000D03*
X128290000Y-82810000D03*
%TD*%
D46*
%TO.C,C37*%
X123600000Y-81475000D03*
X123600000Y-79925000D03*
%TD*%
D14*
%TO.C,R35*%
X109050000Y-74010000D03*
X109050000Y-72990000D03*
%TD*%
D23*
%TO.C,J10*%
X61725000Y-105395000D03*
D24*
X64265000Y-105395000D03*
%TD*%
D47*
%TO.C,U6*%
X115062500Y-83900000D03*
X115062500Y-84300000D03*
X115062500Y-84700000D03*
X115062500Y-85100000D03*
X115062500Y-85500000D03*
X115062500Y-85900000D03*
X115062500Y-86300000D03*
X115062500Y-86700000D03*
X115062500Y-87100000D03*
X115062500Y-87500000D03*
X115062500Y-87900000D03*
X115062500Y-88300000D03*
X115062500Y-88700000D03*
X115062500Y-89100000D03*
D48*
X115900000Y-89937500D03*
X116300000Y-89937500D03*
X116700000Y-89937500D03*
X117100000Y-89937500D03*
X117500000Y-89937500D03*
X117900000Y-89937500D03*
X118300000Y-89937500D03*
X118700000Y-89937500D03*
X119100000Y-89937500D03*
X119500000Y-89937500D03*
X119900000Y-89937500D03*
X120300000Y-89937500D03*
X120700000Y-89937500D03*
X121100000Y-89937500D03*
D47*
X121937500Y-89100000D03*
X121937500Y-88700000D03*
X121937500Y-88300000D03*
X121937500Y-87900000D03*
X121937500Y-87500000D03*
X121937500Y-87100000D03*
X121937500Y-86700000D03*
X121937500Y-86300000D03*
X121937500Y-85900000D03*
X121937500Y-85500000D03*
X121937500Y-85100000D03*
X121937500Y-84700000D03*
X121937500Y-84300000D03*
X121937500Y-83900000D03*
D48*
X121100000Y-83062500D03*
X120700000Y-83062500D03*
X120300000Y-83062500D03*
X119900000Y-83062500D03*
X119500000Y-83062500D03*
X119100000Y-83062500D03*
X118700000Y-83062500D03*
X118300000Y-83062500D03*
X117900000Y-83062500D03*
X117500000Y-83062500D03*
X117100000Y-83062500D03*
X116700000Y-83062500D03*
X116300000Y-83062500D03*
X115900000Y-83062500D03*
D49*
X118500000Y-86500000D03*
%TD*%
D32*
%TO.C,C33*%
X122400000Y-81780000D03*
X122400000Y-80820000D03*
%TD*%
D50*
%TO.C,Q1*%
X138250000Y-64537500D03*
X140150000Y-64537500D03*
X139200000Y-62662500D03*
%TD*%
D27*
%TO.C,R27*%
X146830000Y-95988570D03*
X147850000Y-95988570D03*
%TD*%
D25*
%TO.C,J17*%
X101510000Y-129000000D03*
D24*
X98970000Y-129000000D03*
X96430000Y-129000000D03*
%TD*%
D46*
%TO.C,C9*%
X123200000Y-126375000D03*
X123200000Y-124825000D03*
%TD*%
D51*
%TO.C,F1*%
X119537500Y-58150000D03*
X117662500Y-58150000D03*
%TD*%
D23*
%TO.C,J9*%
X68500000Y-55300000D03*
D24*
X71040000Y-55300000D03*
X73580000Y-55300000D03*
X76120000Y-55300000D03*
X78660000Y-55300000D03*
X81200000Y-55300000D03*
X83740000Y-55300000D03*
X86280000Y-55300000D03*
X88820000Y-55300000D03*
X91360000Y-55300000D03*
X93900000Y-55300000D03*
X96440000Y-55300000D03*
X98980000Y-55300000D03*
X101520000Y-55300000D03*
X104060000Y-55300000D03*
X106600000Y-55300000D03*
%TD*%
D17*
%TO.C,C12*%
X110070000Y-56500000D03*
X111030000Y-56500000D03*
%TD*%
D21*
%TO.C,R40*%
X108900000Y-70540000D03*
X108900000Y-71560000D03*
%TD*%
D30*
%TO.C,C45*%
X124480000Y-62400000D03*
X123520000Y-62400000D03*
%TD*%
D14*
%TO.C,R37*%
X117700000Y-93110000D03*
X117700000Y-92090000D03*
%TD*%
D32*
%TO.C,C26*%
X144600000Y-71180000D03*
X144600000Y-70220000D03*
%TD*%
D15*
%TO.C,C15*%
X100400000Y-124825000D03*
X100400000Y-126375000D03*
%TD*%
D52*
%TO.C,SW3*%
X61375000Y-81700000D03*
X67875000Y-81700000D03*
%TD*%
D53*
%TO.C,R16*%
X133300000Y-59575000D03*
X133300000Y-57925000D03*
%TD*%
D46*
%TO.C,C17*%
X146000000Y-71775000D03*
X146000000Y-70225000D03*
%TD*%
D54*
%TO.C,SW1*%
X85500000Y-107750000D03*
X85500000Y-101250000D03*
%TD*%
D46*
%TO.C,C3*%
X131800000Y-59525000D03*
X131800000Y-57975000D03*
%TD*%
D20*
%TO.C,FID2*%
X68000000Y-58500000D03*
%TD*%
D14*
%TO.C,R17*%
X142000000Y-57110000D03*
X142000000Y-56090000D03*
%TD*%
D17*
%TO.C,C34*%
X123220000Y-83600000D03*
X124180000Y-83600000D03*
%TD*%
D10*
%TO.C,JP5*%
X143000000Y-98500000D03*
D11*
X143850000Y-98500000D03*
D12*
X145150000Y-98500000D03*
D10*
X146000000Y-98500000D03*
%TD*%
D13*
%TO.C,R31*%
X81010000Y-58500000D03*
X79990000Y-58500000D03*
%TD*%
D55*
%TO.C,U3*%
X116150000Y-57562500D03*
X115200000Y-57562500D03*
X114250000Y-57562500D03*
X114250000Y-59837500D03*
X116150000Y-59837500D03*
%TD*%
D16*
%TO.C,C60*%
X68700000Y-87625000D03*
X68700000Y-88585000D03*
%TD*%
D56*
%TO.C,U2*%
X105600000Y-64700000D03*
X107900000Y-64700000D03*
D57*
X107900000Y-58400000D03*
D56*
X110200000Y-64700000D03*
%TD*%
D27*
%TO.C,R25*%
X146830000Y-100977142D03*
X147850000Y-100977142D03*
%TD*%
D23*
%TO.C,J14*%
X64600000Y-76880000D03*
D24*
X64600000Y-74340000D03*
X64600000Y-71800000D03*
X64600000Y-69260000D03*
X64600000Y-66720000D03*
D25*
X64600000Y-64180000D03*
D24*
X62060000Y-76880000D03*
X62060000Y-74340000D03*
X62060000Y-71800000D03*
X62060000Y-69260000D03*
X62060000Y-66720000D03*
X62060000Y-64180000D03*
%TD*%
D20*
%TO.C,FID1*%
X157500000Y-118500000D03*
%TD*%
D27*
%TO.C,R29*%
X146980000Y-91000000D03*
X148000000Y-91000000D03*
%TD*%
D46*
%TO.C,C61*%
X67500000Y-89230000D03*
X67500000Y-87680000D03*
%TD*%
D27*
%TO.C,R47*%
X103490000Y-90190000D03*
X104510000Y-90190000D03*
%TD*%
%TO.C,R6*%
X72980000Y-81285714D03*
X74000000Y-81285714D03*
%TD*%
D10*
%TO.C,JP6*%
X143000000Y-96000000D03*
D11*
X143850000Y-96000000D03*
D12*
X145150000Y-96000000D03*
D10*
X146000000Y-96000000D03*
%TD*%
D58*
%TO.C,C11*%
X115925000Y-61500000D03*
X114375000Y-61500000D03*
%TD*%
D59*
%TO.C,J4*%
X94475000Y-67370000D03*
X99525000Y-67370000D03*
X94475000Y-69910000D03*
X99525000Y-69910000D03*
X94475000Y-72450000D03*
X99525000Y-72450000D03*
X94475000Y-74990000D03*
X99525000Y-74990000D03*
X94475000Y-77530000D03*
X99525000Y-77530000D03*
X94475000Y-80070000D03*
X99525000Y-80070000D03*
X94475000Y-82610000D03*
X99525000Y-82610000D03*
X94475000Y-85150000D03*
X99525000Y-85150000D03*
X94475000Y-87690000D03*
X99525000Y-87690000D03*
X94475000Y-90230000D03*
X99525000Y-90230000D03*
X94475000Y-92770000D03*
X99525000Y-92770000D03*
X94475000Y-95310000D03*
X99525000Y-95310000D03*
X94475000Y-97850000D03*
X99525000Y-97850000D03*
X94475000Y-100390000D03*
X99525000Y-100390000D03*
X94475000Y-102930000D03*
X99525000Y-102930000D03*
X94475000Y-105470000D03*
X99525000Y-105470000D03*
X94475000Y-108010000D03*
X99525000Y-108010000D03*
X94475000Y-110550000D03*
X99525000Y-110550000D03*
X94475000Y-113090000D03*
X99525000Y-113090000D03*
X94475000Y-115630000D03*
X99525000Y-115630000D03*
X134475000Y-67370000D03*
X139525000Y-67370000D03*
X134475000Y-69910000D03*
X139525000Y-69910000D03*
X134475000Y-72450000D03*
X139525000Y-72450000D03*
X134475000Y-74990000D03*
X139525000Y-74990000D03*
X134475000Y-77530000D03*
X139525000Y-77530000D03*
X134475000Y-80070000D03*
X139525000Y-80070000D03*
X134475000Y-82610000D03*
X139525000Y-82610000D03*
X134475000Y-85150000D03*
X139525000Y-85150000D03*
X134475000Y-87690000D03*
X139525000Y-87690000D03*
X134475000Y-90230000D03*
X139525000Y-90230000D03*
X134475000Y-92770000D03*
X139525000Y-92770000D03*
X134475000Y-95310000D03*
X139525000Y-95310000D03*
X134475000Y-97850000D03*
X139525000Y-97850000D03*
X134475000Y-100390000D03*
X139525000Y-100390000D03*
X134475000Y-102930000D03*
X139525000Y-102930000D03*
X134475000Y-105470000D03*
X139525000Y-105470000D03*
X134475000Y-108010000D03*
X139525000Y-108010000D03*
X134475000Y-110550000D03*
X139525000Y-110550000D03*
X134475000Y-113090000D03*
X139525000Y-113090000D03*
X134475000Y-115630000D03*
X139525000Y-115630000D03*
%TD*%
D23*
%TO.C,J1*%
X154810000Y-129000000D03*
D24*
X152270000Y-129000000D03*
X149730000Y-129000000D03*
X147190000Y-129000000D03*
X144650000Y-129000000D03*
X142110000Y-129000000D03*
%TD*%
D27*
%TO.C,R10*%
X72980000Y-78742857D03*
X74000000Y-78742857D03*
%TD*%
D23*
%TO.C,J19*%
X113450000Y-64100000D03*
D24*
X115990000Y-64100000D03*
%TD*%
D60*
%TO.C,D2*%
X143250000Y-57987500D03*
X143250000Y-56412500D03*
%TD*%
D13*
%TO.C,R30*%
X86610000Y-58500000D03*
X85590000Y-58500000D03*
%TD*%
D27*
%TO.C,R44*%
X103490000Y-98000000D03*
X104510000Y-98000000D03*
%TD*%
%TO.C,R26*%
X146980000Y-98482856D03*
X148000000Y-98482856D03*
%TD*%
D32*
%TO.C,C41*%
X119000000Y-79980000D03*
X119000000Y-79020000D03*
%TD*%
%TO.C,C13*%
X118350000Y-65380000D03*
X118350000Y-64420000D03*
%TD*%
D13*
%TO.C,R48*%
X130610000Y-85150000D03*
X129590000Y-85150000D03*
%TD*%
%TO.C,R52*%
X129310000Y-80470000D03*
X128290000Y-80470000D03*
%TD*%
D60*
%TO.C,FB1*%
X117650000Y-56437500D03*
X117650000Y-54862500D03*
%TD*%
D23*
%TO.C,J6*%
X139575000Y-126455000D03*
D24*
X137035000Y-126455000D03*
X134495000Y-126455000D03*
X131955000Y-126455000D03*
X129415000Y-126455000D03*
D25*
X126875000Y-126455000D03*
D24*
X139575000Y-128995000D03*
X137035000Y-128995000D03*
X134495000Y-128995000D03*
X131955000Y-128995000D03*
X129415000Y-128995000D03*
X126875000Y-128995000D03*
%TD*%
D10*
%TO.C,JP4*%
X143000000Y-101000000D03*
D11*
X143850000Y-101000000D03*
D12*
X145150000Y-101000000D03*
D10*
X146000000Y-101000000D03*
%TD*%
D46*
%TO.C,C57*%
X67200000Y-111875000D03*
X67200000Y-110325000D03*
%TD*%
D32*
%TO.C,C14*%
X101700000Y-126580000D03*
X101700000Y-125620000D03*
%TD*%
D60*
%TO.C,D3*%
X138700000Y-57987500D03*
X138700000Y-56412500D03*
%TD*%
D14*
%TO.C,R34*%
X119500000Y-73110000D03*
X119500000Y-72090000D03*
%TD*%
D27*
%TO.C,R9*%
X67190000Y-84600000D03*
X68210000Y-84600000D03*
%TD*%
%TO.C,R46*%
X103490000Y-93000000D03*
X104510000Y-93000000D03*
%TD*%
D60*
%TO.C,D1*%
X147800000Y-57987500D03*
X147800000Y-56412500D03*
%TD*%
D21*
%TO.C,R39*%
X119500000Y-74190000D03*
X119500000Y-75210000D03*
%TD*%
D40*
%TO.C,C10*%
X112500000Y-55950000D03*
X112500000Y-57850000D03*
%TD*%
D29*
%TO.C,D6*%
X122575000Y-63600000D03*
X124225000Y-63600000D03*
%TD*%
D27*
%TO.C,R32*%
X82990000Y-58500000D03*
X84010000Y-58500000D03*
%TD*%
D18*
%TO.C,MT1*%
X63000000Y-128000000D03*
%TD*%
D27*
%TO.C,R4*%
X72980000Y-86371428D03*
X74000000Y-86371428D03*
%TD*%
D17*
%TO.C,C40*%
X119020000Y-91900000D03*
X119980000Y-91900000D03*
%TD*%
D58*
%TO.C,C1*%
X90085000Y-106500000D03*
X88535000Y-106500000D03*
%TD*%
D61*
%TO.C,SW4*%
X78300000Y-76110000D03*
X78300000Y-78650000D03*
X78300000Y-81190000D03*
X78300000Y-83730000D03*
X78300000Y-86270000D03*
X78300000Y-88810000D03*
X78300000Y-91350000D03*
X78300000Y-93890000D03*
X86700000Y-93890000D03*
X86700000Y-91350000D03*
X86700000Y-88810000D03*
X86700000Y-86270000D03*
X86700000Y-83730000D03*
X86700000Y-81190000D03*
X86700000Y-78650000D03*
X86700000Y-76110000D03*
%TD*%
D17*
%TO.C,C44*%
X125420000Y-62400000D03*
X126380000Y-62400000D03*
%TD*%
D14*
%TO.C,R36*%
X66600000Y-106765000D03*
X66600000Y-105745000D03*
%TD*%
D22*
%TO.C,C59*%
X64125000Y-61600000D03*
X65675000Y-61600000D03*
%TD*%
D17*
%TO.C,C31*%
X116970000Y-68300000D03*
X117930000Y-68300000D03*
%TD*%
D27*
%TO.C,R14*%
X60790000Y-84600000D03*
X61810000Y-84600000D03*
%TD*%
M02*
