%TF.GenerationSoftware,KiCad,Pcbnew,8.0.8-8.0.8-0~ubuntu22.04.1*%
%TF.CreationDate,2025-02-25T18:12:58-05:00*%
%TF.ProjectId,breakout-qfn,62726561-6b6f-4757-942d-71666e2e6b69,2.0*%
%TF.SameCoordinates,PX2b64660PY42c1d80*%
%TF.FileFunction,AssemblyDrawing,Bot*%
%FSLAX46Y46*%
G04 Gerber Fmt 4.6, Leading zero omitted, Abs format (unit mm)*
G04 Created by KiCad (PCBNEW 8.0.8-8.0.8-0~ubuntu22.04.1) date 2025-02-25 18:12:58*
%MOMM*%
%LPD*%
G01*
G04 APERTURE LIST*
%ADD10C,0.150000*%
%ADD11C,0.100000*%
G04 APERTURE END LIST*
D10*
X97190475Y-71354819D02*
X97190475Y-70354819D01*
X97190475Y-70354819D02*
X96619047Y-71354819D01*
X96619047Y-71354819D02*
X96619047Y-70354819D01*
X96142856Y-71354819D02*
X96142856Y-70354819D01*
X96142856Y-70354819D02*
X95761904Y-70354819D01*
X95761904Y-70354819D02*
X95666666Y-70402438D01*
X95666666Y-70402438D02*
X95619047Y-70450057D01*
X95619047Y-70450057D02*
X95571428Y-70545295D01*
X95571428Y-70545295D02*
X95571428Y-70688152D01*
X95571428Y-70688152D02*
X95619047Y-70783390D01*
X95619047Y-70783390D02*
X95666666Y-70831009D01*
X95666666Y-70831009D02*
X95761904Y-70878628D01*
X95761904Y-70878628D02*
X96142856Y-70878628D01*
X95285713Y-70354819D02*
X94714285Y-70354819D01*
X94999999Y-71354819D02*
X94999999Y-70354819D01*
X93809523Y-71259580D02*
X93857142Y-71307200D01*
X93857142Y-71307200D02*
X93999999Y-71354819D01*
X93999999Y-71354819D02*
X94095237Y-71354819D01*
X94095237Y-71354819D02*
X94238094Y-71307200D01*
X94238094Y-71307200D02*
X94333332Y-71211961D01*
X94333332Y-71211961D02*
X94380951Y-71116723D01*
X94380951Y-71116723D02*
X94428570Y-70926247D01*
X94428570Y-70926247D02*
X94428570Y-70783390D01*
X94428570Y-70783390D02*
X94380951Y-70592914D01*
X94380951Y-70592914D02*
X94333332Y-70497676D01*
X94333332Y-70497676D02*
X94238094Y-70402438D01*
X94238094Y-70402438D02*
X94095237Y-70354819D01*
X94095237Y-70354819D02*
X93999999Y-70354819D01*
X93999999Y-70354819D02*
X93857142Y-70402438D01*
X93857142Y-70402438D02*
X93809523Y-70450057D01*
X93428570Y-70450057D02*
X93380951Y-70402438D01*
X93380951Y-70402438D02*
X93285713Y-70354819D01*
X93285713Y-70354819D02*
X93047618Y-70354819D01*
X93047618Y-70354819D02*
X92952380Y-70402438D01*
X92952380Y-70402438D02*
X92904761Y-70450057D01*
X92904761Y-70450057D02*
X92857142Y-70545295D01*
X92857142Y-70545295D02*
X92857142Y-70640533D01*
X92857142Y-70640533D02*
X92904761Y-70783390D01*
X92904761Y-70783390D02*
X93476189Y-71354819D01*
X93476189Y-71354819D02*
X92857142Y-71354819D01*
X92238094Y-70354819D02*
X92142856Y-70354819D01*
X92142856Y-70354819D02*
X92047618Y-70402438D01*
X92047618Y-70402438D02*
X91999999Y-70450057D01*
X91999999Y-70450057D02*
X91952380Y-70545295D01*
X91952380Y-70545295D02*
X91904761Y-70735771D01*
X91904761Y-70735771D02*
X91904761Y-70973866D01*
X91904761Y-70973866D02*
X91952380Y-71164342D01*
X91952380Y-71164342D02*
X91999999Y-71259580D01*
X91999999Y-71259580D02*
X92047618Y-71307200D01*
X92047618Y-71307200D02*
X92142856Y-71354819D01*
X92142856Y-71354819D02*
X92238094Y-71354819D01*
X92238094Y-71354819D02*
X92333332Y-71307200D01*
X92333332Y-71307200D02*
X92380951Y-71259580D01*
X92380951Y-71259580D02*
X92428570Y-71164342D01*
X92428570Y-71164342D02*
X92476189Y-70973866D01*
X92476189Y-70973866D02*
X92476189Y-70735771D01*
X92476189Y-70735771D02*
X92428570Y-70545295D01*
X92428570Y-70545295D02*
X92380951Y-70450057D01*
X92380951Y-70450057D02*
X92333332Y-70402438D01*
X92333332Y-70402438D02*
X92238094Y-70354819D01*
X91523808Y-70450057D02*
X91476189Y-70402438D01*
X91476189Y-70402438D02*
X91380951Y-70354819D01*
X91380951Y-70354819D02*
X91142856Y-70354819D01*
X91142856Y-70354819D02*
X91047618Y-70402438D01*
X91047618Y-70402438D02*
X90999999Y-70450057D01*
X90999999Y-70450057D02*
X90952380Y-70545295D01*
X90952380Y-70545295D02*
X90952380Y-70640533D01*
X90952380Y-70640533D02*
X90999999Y-70783390D01*
X90999999Y-70783390D02*
X91571427Y-71354819D01*
X91571427Y-71354819D02*
X90952380Y-71354819D01*
X90523808Y-71354819D02*
X90523808Y-70354819D01*
X89952380Y-71354819D02*
X90380951Y-70783390D01*
X89952380Y-70354819D02*
X90523808Y-70926247D01*
X89190475Y-70831009D02*
X89523808Y-70831009D01*
X89523808Y-71354819D02*
X89523808Y-70354819D01*
X89523808Y-70354819D02*
X89047618Y-70354819D01*
X88666665Y-71354819D02*
X88666665Y-70354819D01*
X88666665Y-70354819D02*
X88333332Y-71069104D01*
X88333332Y-71069104D02*
X87999999Y-70354819D01*
X87999999Y-70354819D02*
X87999999Y-71354819D01*
X87571427Y-71307200D02*
X87428570Y-71354819D01*
X87428570Y-71354819D02*
X87190475Y-71354819D01*
X87190475Y-71354819D02*
X87095237Y-71307200D01*
X87095237Y-71307200D02*
X87047618Y-71259580D01*
X87047618Y-71259580D02*
X86999999Y-71164342D01*
X86999999Y-71164342D02*
X86999999Y-71069104D01*
X86999999Y-71069104D02*
X87047618Y-70973866D01*
X87047618Y-70973866D02*
X87095237Y-70926247D01*
X87095237Y-70926247D02*
X87190475Y-70878628D01*
X87190475Y-70878628D02*
X87380951Y-70831009D01*
X87380951Y-70831009D02*
X87476189Y-70783390D01*
X87476189Y-70783390D02*
X87523808Y-70735771D01*
X87523808Y-70735771D02*
X87571427Y-70640533D01*
X87571427Y-70640533D02*
X87571427Y-70545295D01*
X87571427Y-70545295D02*
X87523808Y-70450057D01*
X87523808Y-70450057D02*
X87476189Y-70402438D01*
X87476189Y-70402438D02*
X87380951Y-70354819D01*
X87380951Y-70354819D02*
X87142856Y-70354819D01*
X87142856Y-70354819D02*
X86999999Y-70402438D01*
X86571427Y-70973866D02*
X85809523Y-70973866D01*
X84761904Y-71354819D02*
X85095237Y-70878628D01*
X85333332Y-71354819D02*
X85333332Y-70354819D01*
X85333332Y-70354819D02*
X84952380Y-70354819D01*
X84952380Y-70354819D02*
X84857142Y-70402438D01*
X84857142Y-70402438D02*
X84809523Y-70450057D01*
X84809523Y-70450057D02*
X84761904Y-70545295D01*
X84761904Y-70545295D02*
X84761904Y-70688152D01*
X84761904Y-70688152D02*
X84809523Y-70783390D01*
X84809523Y-70783390D02*
X84857142Y-70831009D01*
X84857142Y-70831009D02*
X84952380Y-70878628D01*
X84952380Y-70878628D02*
X85333332Y-70878628D01*
X83761904Y-71259580D02*
X83809523Y-71307200D01*
X83809523Y-71307200D02*
X83952380Y-71354819D01*
X83952380Y-71354819D02*
X84047618Y-71354819D01*
X84047618Y-71354819D02*
X84190475Y-71307200D01*
X84190475Y-71307200D02*
X84285713Y-71211961D01*
X84285713Y-71211961D02*
X84333332Y-71116723D01*
X84333332Y-71116723D02*
X84380951Y-70926247D01*
X84380951Y-70926247D02*
X84380951Y-70783390D01*
X84380951Y-70783390D02*
X84333332Y-70592914D01*
X84333332Y-70592914D02*
X84285713Y-70497676D01*
X84285713Y-70497676D02*
X84190475Y-70402438D01*
X84190475Y-70402438D02*
X84047618Y-70354819D01*
X84047618Y-70354819D02*
X83952380Y-70354819D01*
X83952380Y-70354819D02*
X83809523Y-70402438D01*
X83809523Y-70402438D02*
X83761904Y-70450057D01*
X90909580Y-42485714D02*
X90957200Y-42438095D01*
X90957200Y-42438095D02*
X91004819Y-42295238D01*
X91004819Y-42295238D02*
X91004819Y-42200000D01*
X91004819Y-42200000D02*
X90957200Y-42057143D01*
X90957200Y-42057143D02*
X90861961Y-41961905D01*
X90861961Y-41961905D02*
X90766723Y-41914286D01*
X90766723Y-41914286D02*
X90576247Y-41866667D01*
X90576247Y-41866667D02*
X90433390Y-41866667D01*
X90433390Y-41866667D02*
X90242914Y-41914286D01*
X90242914Y-41914286D02*
X90147676Y-41961905D01*
X90147676Y-41961905D02*
X90052438Y-42057143D01*
X90052438Y-42057143D02*
X90004819Y-42200000D01*
X90004819Y-42200000D02*
X90004819Y-42295238D01*
X90004819Y-42295238D02*
X90052438Y-42438095D01*
X90052438Y-42438095D02*
X90100057Y-42485714D01*
X90004819Y-43104762D02*
X90004819Y-43295238D01*
X90004819Y-43295238D02*
X90052438Y-43390476D01*
X90052438Y-43390476D02*
X90147676Y-43485714D01*
X90147676Y-43485714D02*
X90338152Y-43533333D01*
X90338152Y-43533333D02*
X90671485Y-43533333D01*
X90671485Y-43533333D02*
X90861961Y-43485714D01*
X90861961Y-43485714D02*
X90957200Y-43390476D01*
X90957200Y-43390476D02*
X91004819Y-43295238D01*
X91004819Y-43295238D02*
X91004819Y-43104762D01*
X91004819Y-43104762D02*
X90957200Y-43009524D01*
X90957200Y-43009524D02*
X90861961Y-42914286D01*
X90861961Y-42914286D02*
X90671485Y-42866667D01*
X90671485Y-42866667D02*
X90338152Y-42866667D01*
X90338152Y-42866667D02*
X90147676Y-42914286D01*
X90147676Y-42914286D02*
X90052438Y-43009524D01*
X90052438Y-43009524D02*
X90004819Y-43104762D01*
X91004819Y-43961905D02*
X90004819Y-43961905D01*
X90004819Y-43961905D02*
X91004819Y-44533333D01*
X91004819Y-44533333D02*
X90004819Y-44533333D01*
X90100057Y-44961905D02*
X90052438Y-45009524D01*
X90052438Y-45009524D02*
X90004819Y-45104762D01*
X90004819Y-45104762D02*
X90004819Y-45342857D01*
X90004819Y-45342857D02*
X90052438Y-45438095D01*
X90052438Y-45438095D02*
X90100057Y-45485714D01*
X90100057Y-45485714D02*
X90195295Y-45533333D01*
X90195295Y-45533333D02*
X90290533Y-45533333D01*
X90290533Y-45533333D02*
X90433390Y-45485714D01*
X90433390Y-45485714D02*
X91004819Y-44914286D01*
X91004819Y-44914286D02*
X91004819Y-45533333D01*
X57190475Y-71354819D02*
X57190475Y-70354819D01*
X57190475Y-70354819D02*
X56619047Y-71354819D01*
X56619047Y-71354819D02*
X56619047Y-70354819D01*
X56142856Y-71354819D02*
X56142856Y-70354819D01*
X56142856Y-70354819D02*
X55761904Y-70354819D01*
X55761904Y-70354819D02*
X55666666Y-70402438D01*
X55666666Y-70402438D02*
X55619047Y-70450057D01*
X55619047Y-70450057D02*
X55571428Y-70545295D01*
X55571428Y-70545295D02*
X55571428Y-70688152D01*
X55571428Y-70688152D02*
X55619047Y-70783390D01*
X55619047Y-70783390D02*
X55666666Y-70831009D01*
X55666666Y-70831009D02*
X55761904Y-70878628D01*
X55761904Y-70878628D02*
X56142856Y-70878628D01*
X55285713Y-70354819D02*
X54714285Y-70354819D01*
X54999999Y-71354819D02*
X54999999Y-70354819D01*
X53809523Y-71259580D02*
X53857142Y-71307200D01*
X53857142Y-71307200D02*
X53999999Y-71354819D01*
X53999999Y-71354819D02*
X54095237Y-71354819D01*
X54095237Y-71354819D02*
X54238094Y-71307200D01*
X54238094Y-71307200D02*
X54333332Y-71211961D01*
X54333332Y-71211961D02*
X54380951Y-71116723D01*
X54380951Y-71116723D02*
X54428570Y-70926247D01*
X54428570Y-70926247D02*
X54428570Y-70783390D01*
X54428570Y-70783390D02*
X54380951Y-70592914D01*
X54380951Y-70592914D02*
X54333332Y-70497676D01*
X54333332Y-70497676D02*
X54238094Y-70402438D01*
X54238094Y-70402438D02*
X54095237Y-70354819D01*
X54095237Y-70354819D02*
X53999999Y-70354819D01*
X53999999Y-70354819D02*
X53857142Y-70402438D01*
X53857142Y-70402438D02*
X53809523Y-70450057D01*
X53428570Y-70450057D02*
X53380951Y-70402438D01*
X53380951Y-70402438D02*
X53285713Y-70354819D01*
X53285713Y-70354819D02*
X53047618Y-70354819D01*
X53047618Y-70354819D02*
X52952380Y-70402438D01*
X52952380Y-70402438D02*
X52904761Y-70450057D01*
X52904761Y-70450057D02*
X52857142Y-70545295D01*
X52857142Y-70545295D02*
X52857142Y-70640533D01*
X52857142Y-70640533D02*
X52904761Y-70783390D01*
X52904761Y-70783390D02*
X53476189Y-71354819D01*
X53476189Y-71354819D02*
X52857142Y-71354819D01*
X52238094Y-70354819D02*
X52142856Y-70354819D01*
X52142856Y-70354819D02*
X52047618Y-70402438D01*
X52047618Y-70402438D02*
X51999999Y-70450057D01*
X51999999Y-70450057D02*
X51952380Y-70545295D01*
X51952380Y-70545295D02*
X51904761Y-70735771D01*
X51904761Y-70735771D02*
X51904761Y-70973866D01*
X51904761Y-70973866D02*
X51952380Y-71164342D01*
X51952380Y-71164342D02*
X51999999Y-71259580D01*
X51999999Y-71259580D02*
X52047618Y-71307200D01*
X52047618Y-71307200D02*
X52142856Y-71354819D01*
X52142856Y-71354819D02*
X52238094Y-71354819D01*
X52238094Y-71354819D02*
X52333332Y-71307200D01*
X52333332Y-71307200D02*
X52380951Y-71259580D01*
X52380951Y-71259580D02*
X52428570Y-71164342D01*
X52428570Y-71164342D02*
X52476189Y-70973866D01*
X52476189Y-70973866D02*
X52476189Y-70735771D01*
X52476189Y-70735771D02*
X52428570Y-70545295D01*
X52428570Y-70545295D02*
X52380951Y-70450057D01*
X52380951Y-70450057D02*
X52333332Y-70402438D01*
X52333332Y-70402438D02*
X52238094Y-70354819D01*
X51523808Y-70450057D02*
X51476189Y-70402438D01*
X51476189Y-70402438D02*
X51380951Y-70354819D01*
X51380951Y-70354819D02*
X51142856Y-70354819D01*
X51142856Y-70354819D02*
X51047618Y-70402438D01*
X51047618Y-70402438D02*
X50999999Y-70450057D01*
X50999999Y-70450057D02*
X50952380Y-70545295D01*
X50952380Y-70545295D02*
X50952380Y-70640533D01*
X50952380Y-70640533D02*
X50999999Y-70783390D01*
X50999999Y-70783390D02*
X51571427Y-71354819D01*
X51571427Y-71354819D02*
X50952380Y-71354819D01*
X50523808Y-71354819D02*
X50523808Y-70354819D01*
X49952380Y-71354819D02*
X50380951Y-70783390D01*
X49952380Y-70354819D02*
X50523808Y-70926247D01*
X49190475Y-70831009D02*
X49523808Y-70831009D01*
X49523808Y-71354819D02*
X49523808Y-70354819D01*
X49523808Y-70354819D02*
X49047618Y-70354819D01*
X48666665Y-71354819D02*
X48666665Y-70354819D01*
X48666665Y-70354819D02*
X48333332Y-71069104D01*
X48333332Y-71069104D02*
X47999999Y-70354819D01*
X47999999Y-70354819D02*
X47999999Y-71354819D01*
X47571427Y-71307200D02*
X47428570Y-71354819D01*
X47428570Y-71354819D02*
X47190475Y-71354819D01*
X47190475Y-71354819D02*
X47095237Y-71307200D01*
X47095237Y-71307200D02*
X47047618Y-71259580D01*
X47047618Y-71259580D02*
X46999999Y-71164342D01*
X46999999Y-71164342D02*
X46999999Y-71069104D01*
X46999999Y-71069104D02*
X47047618Y-70973866D01*
X47047618Y-70973866D02*
X47095237Y-70926247D01*
X47095237Y-70926247D02*
X47190475Y-70878628D01*
X47190475Y-70878628D02*
X47380951Y-70831009D01*
X47380951Y-70831009D02*
X47476189Y-70783390D01*
X47476189Y-70783390D02*
X47523808Y-70735771D01*
X47523808Y-70735771D02*
X47571427Y-70640533D01*
X47571427Y-70640533D02*
X47571427Y-70545295D01*
X47571427Y-70545295D02*
X47523808Y-70450057D01*
X47523808Y-70450057D02*
X47476189Y-70402438D01*
X47476189Y-70402438D02*
X47380951Y-70354819D01*
X47380951Y-70354819D02*
X47142856Y-70354819D01*
X47142856Y-70354819D02*
X46999999Y-70402438D01*
X46571427Y-70973866D02*
X45809523Y-70973866D01*
X44761904Y-71354819D02*
X45095237Y-70878628D01*
X45333332Y-71354819D02*
X45333332Y-70354819D01*
X45333332Y-70354819D02*
X44952380Y-70354819D01*
X44952380Y-70354819D02*
X44857142Y-70402438D01*
X44857142Y-70402438D02*
X44809523Y-70450057D01*
X44809523Y-70450057D02*
X44761904Y-70545295D01*
X44761904Y-70545295D02*
X44761904Y-70688152D01*
X44761904Y-70688152D02*
X44809523Y-70783390D01*
X44809523Y-70783390D02*
X44857142Y-70831009D01*
X44857142Y-70831009D02*
X44952380Y-70878628D01*
X44952380Y-70878628D02*
X45333332Y-70878628D01*
X43761904Y-71259580D02*
X43809523Y-71307200D01*
X43809523Y-71307200D02*
X43952380Y-71354819D01*
X43952380Y-71354819D02*
X44047618Y-71354819D01*
X44047618Y-71354819D02*
X44190475Y-71307200D01*
X44190475Y-71307200D02*
X44285713Y-71211961D01*
X44285713Y-71211961D02*
X44333332Y-71116723D01*
X44333332Y-71116723D02*
X44380951Y-70926247D01*
X44380951Y-70926247D02*
X44380951Y-70783390D01*
X44380951Y-70783390D02*
X44333332Y-70592914D01*
X44333332Y-70592914D02*
X44285713Y-70497676D01*
X44285713Y-70497676D02*
X44190475Y-70402438D01*
X44190475Y-70402438D02*
X44047618Y-70354819D01*
X44047618Y-70354819D02*
X43952380Y-70354819D01*
X43952380Y-70354819D02*
X43809523Y-70402438D01*
X43809523Y-70402438D02*
X43761904Y-70450057D01*
X50859580Y-42785714D02*
X50907200Y-42738095D01*
X50907200Y-42738095D02*
X50954819Y-42595238D01*
X50954819Y-42595238D02*
X50954819Y-42500000D01*
X50954819Y-42500000D02*
X50907200Y-42357143D01*
X50907200Y-42357143D02*
X50811961Y-42261905D01*
X50811961Y-42261905D02*
X50716723Y-42214286D01*
X50716723Y-42214286D02*
X50526247Y-42166667D01*
X50526247Y-42166667D02*
X50383390Y-42166667D01*
X50383390Y-42166667D02*
X50192914Y-42214286D01*
X50192914Y-42214286D02*
X50097676Y-42261905D01*
X50097676Y-42261905D02*
X50002438Y-42357143D01*
X50002438Y-42357143D02*
X49954819Y-42500000D01*
X49954819Y-42500000D02*
X49954819Y-42595238D01*
X49954819Y-42595238D02*
X50002438Y-42738095D01*
X50002438Y-42738095D02*
X50050057Y-42785714D01*
X49954819Y-43404762D02*
X49954819Y-43595238D01*
X49954819Y-43595238D02*
X50002438Y-43690476D01*
X50002438Y-43690476D02*
X50097676Y-43785714D01*
X50097676Y-43785714D02*
X50288152Y-43833333D01*
X50288152Y-43833333D02*
X50621485Y-43833333D01*
X50621485Y-43833333D02*
X50811961Y-43785714D01*
X50811961Y-43785714D02*
X50907200Y-43690476D01*
X50907200Y-43690476D02*
X50954819Y-43595238D01*
X50954819Y-43595238D02*
X50954819Y-43404762D01*
X50954819Y-43404762D02*
X50907200Y-43309524D01*
X50907200Y-43309524D02*
X50811961Y-43214286D01*
X50811961Y-43214286D02*
X50621485Y-43166667D01*
X50621485Y-43166667D02*
X50288152Y-43166667D01*
X50288152Y-43166667D02*
X50097676Y-43214286D01*
X50097676Y-43214286D02*
X50002438Y-43309524D01*
X50002438Y-43309524D02*
X49954819Y-43404762D01*
X50954819Y-44261905D02*
X49954819Y-44261905D01*
X49954819Y-44261905D02*
X50954819Y-44833333D01*
X50954819Y-44833333D02*
X49954819Y-44833333D01*
X50954819Y-45833333D02*
X50954819Y-45261905D01*
X50954819Y-45547619D02*
X49954819Y-45547619D01*
X49954819Y-45547619D02*
X50097676Y-45452381D01*
X50097676Y-45452381D02*
X50192914Y-45357143D01*
X50192914Y-45357143D02*
X50240533Y-45261905D01*
D11*
%TO.C,CON2*%
X86580000Y-19550000D02*
X87960000Y-19550000D01*
X86580000Y-20190000D02*
X86580000Y-19550000D01*
X86580000Y-22090000D02*
X87960000Y-22090000D01*
X86580000Y-22730000D02*
X86580000Y-22090000D01*
X86580000Y-24630000D02*
X87960000Y-24630000D01*
X86580000Y-25270000D02*
X86580000Y-24630000D01*
X86580000Y-27170000D02*
X87960000Y-27170000D01*
X86580000Y-27810000D02*
X86580000Y-27170000D01*
X86580000Y-29710000D02*
X87960000Y-29710000D01*
X86580000Y-30350000D02*
X86580000Y-29710000D01*
X86580000Y-32250000D02*
X87960000Y-32250000D01*
X86580000Y-32890000D02*
X86580000Y-32250000D01*
X86580000Y-34790000D02*
X87960000Y-34790000D01*
X86580000Y-35430000D02*
X86580000Y-34790000D01*
X86580000Y-37330000D02*
X87960000Y-37330000D01*
X86580000Y-37970000D02*
X86580000Y-37330000D01*
X86580000Y-39870000D02*
X87960000Y-39870000D01*
X86580000Y-40510000D02*
X86580000Y-39870000D01*
X86580000Y-42410000D02*
X87960000Y-42410000D01*
X86580000Y-43050000D02*
X86580000Y-42410000D01*
X86580000Y-44950000D02*
X87960000Y-44950000D01*
X86580000Y-45590000D02*
X86580000Y-44950000D01*
X86580000Y-47490000D02*
X87960000Y-47490000D01*
X86580000Y-48130000D02*
X86580000Y-47490000D01*
X86580000Y-50030000D02*
X87960000Y-50030000D01*
X86580000Y-50670000D02*
X86580000Y-50030000D01*
X86580000Y-52570000D02*
X87960000Y-52570000D01*
X86580000Y-53210000D02*
X86580000Y-52570000D01*
X86580000Y-55110000D02*
X87960000Y-55110000D01*
X86580000Y-55750000D02*
X86580000Y-55110000D01*
X86580000Y-57650000D02*
X87960000Y-57650000D01*
X86580000Y-58290000D02*
X86580000Y-57650000D01*
X86580000Y-60190000D02*
X87960000Y-60190000D01*
X86580000Y-60830000D02*
X86580000Y-60190000D01*
X86580000Y-62730000D02*
X87960000Y-62730000D01*
X86580000Y-63370000D02*
X86580000Y-62730000D01*
X86580000Y-65270000D02*
X87960000Y-65270000D01*
X86580000Y-65910000D02*
X86580000Y-65270000D01*
X86580000Y-67810000D02*
X87960000Y-67810000D01*
X86580000Y-68450000D02*
X86580000Y-67810000D01*
X87960000Y-19600000D02*
X88960000Y-18600000D01*
X87960000Y-20190000D02*
X86580000Y-20190000D01*
X87960000Y-22730000D02*
X86580000Y-22730000D01*
X87960000Y-25270000D02*
X86580000Y-25270000D01*
X87960000Y-27810000D02*
X86580000Y-27810000D01*
X87960000Y-30350000D02*
X86580000Y-30350000D01*
X87960000Y-32890000D02*
X86580000Y-32890000D01*
X87960000Y-35430000D02*
X86580000Y-35430000D01*
X87960000Y-37970000D02*
X86580000Y-37970000D01*
X87960000Y-40510000D02*
X86580000Y-40510000D01*
X87960000Y-43050000D02*
X86580000Y-43050000D01*
X87960000Y-45590000D02*
X86580000Y-45590000D01*
X87960000Y-48130000D02*
X86580000Y-48130000D01*
X87960000Y-50670000D02*
X86580000Y-50670000D01*
X87960000Y-53210000D02*
X86580000Y-53210000D01*
X87960000Y-55750000D02*
X86580000Y-55750000D01*
X87960000Y-58290000D02*
X86580000Y-58290000D01*
X87960000Y-60830000D02*
X86580000Y-60830000D01*
X87960000Y-63370000D02*
X86580000Y-63370000D01*
X87960000Y-65910000D02*
X86580000Y-65910000D01*
X87960000Y-68450000D02*
X86580000Y-68450000D01*
X87960000Y-69400000D02*
X87960000Y-19600000D01*
X88960000Y-18600000D02*
X93040000Y-18600000D01*
X93040000Y-18600000D02*
X93040000Y-69400000D01*
X93040000Y-19550000D02*
X94420000Y-19550000D01*
X93040000Y-22090000D02*
X94420000Y-22090000D01*
X93040000Y-24630000D02*
X94420000Y-24630000D01*
X93040000Y-27170000D02*
X94420000Y-27170000D01*
X93040000Y-29710000D02*
X94420000Y-29710000D01*
X93040000Y-32250000D02*
X94420000Y-32250000D01*
X93040000Y-34790000D02*
X94420000Y-34790000D01*
X93040000Y-37330000D02*
X94420000Y-37330000D01*
X93040000Y-39870000D02*
X94420000Y-39870000D01*
X93040000Y-42410000D02*
X94420000Y-42410000D01*
X93040000Y-44950000D02*
X94420000Y-44950000D01*
X93040000Y-47490000D02*
X94420000Y-47490000D01*
X93040000Y-50030000D02*
X94420000Y-50030000D01*
X93040000Y-52570000D02*
X94420000Y-52570000D01*
X93040000Y-55110000D02*
X94420000Y-55110000D01*
X93040000Y-57650000D02*
X94420000Y-57650000D01*
X93040000Y-60190000D02*
X94420000Y-60190000D01*
X93040000Y-62730000D02*
X94420000Y-62730000D01*
X93040000Y-65270000D02*
X94420000Y-65270000D01*
X93040000Y-67810000D02*
X94420000Y-67810000D01*
X93040000Y-69400000D02*
X87960000Y-69400000D01*
X94420000Y-19550000D02*
X94420000Y-20190000D01*
X94420000Y-20190000D02*
X93040000Y-20190000D01*
X94420000Y-22090000D02*
X94420000Y-22730000D01*
X94420000Y-22730000D02*
X93040000Y-22730000D01*
X94420000Y-24630000D02*
X94420000Y-25270000D01*
X94420000Y-25270000D02*
X93040000Y-25270000D01*
X94420000Y-27170000D02*
X94420000Y-27810000D01*
X94420000Y-27810000D02*
X93040000Y-27810000D01*
X94420000Y-29710000D02*
X94420000Y-30350000D01*
X94420000Y-30350000D02*
X93040000Y-30350000D01*
X94420000Y-32250000D02*
X94420000Y-32890000D01*
X94420000Y-32890000D02*
X93040000Y-32890000D01*
X94420000Y-34790000D02*
X94420000Y-35430000D01*
X94420000Y-35430000D02*
X93040000Y-35430000D01*
X94420000Y-37330000D02*
X94420000Y-37970000D01*
X94420000Y-37970000D02*
X93040000Y-37970000D01*
X94420000Y-39870000D02*
X94420000Y-40510000D01*
X94420000Y-40510000D02*
X93040000Y-40510000D01*
X94420000Y-42410000D02*
X94420000Y-43050000D01*
X94420000Y-43050000D02*
X93040000Y-43050000D01*
X94420000Y-44950000D02*
X94420000Y-45590000D01*
X94420000Y-45590000D02*
X93040000Y-45590000D01*
X94420000Y-47490000D02*
X94420000Y-48130000D01*
X94420000Y-48130000D02*
X93040000Y-48130000D01*
X94420000Y-50030000D02*
X94420000Y-50670000D01*
X94420000Y-50670000D02*
X93040000Y-50670000D01*
X94420000Y-52570000D02*
X94420000Y-53210000D01*
X94420000Y-53210000D02*
X93040000Y-53210000D01*
X94420000Y-55110000D02*
X94420000Y-55750000D01*
X94420000Y-55750000D02*
X93040000Y-55750000D01*
X94420000Y-57650000D02*
X94420000Y-58290000D01*
X94420000Y-58290000D02*
X93040000Y-58290000D01*
X94420000Y-60190000D02*
X94420000Y-60830000D01*
X94420000Y-60830000D02*
X93040000Y-60830000D01*
X94420000Y-62730000D02*
X94420000Y-63370000D01*
X94420000Y-63370000D02*
X93040000Y-63370000D01*
X94420000Y-65270000D02*
X94420000Y-65910000D01*
X94420000Y-65910000D02*
X93040000Y-65910000D01*
X94420000Y-67810000D02*
X94420000Y-68450000D01*
X94420000Y-68450000D02*
X93040000Y-68450000D01*
%TO.C,CON1*%
X46580000Y-19550000D02*
X47960000Y-19550000D01*
X46580000Y-20190000D02*
X46580000Y-19550000D01*
X46580000Y-22090000D02*
X47960000Y-22090000D01*
X46580000Y-22730000D02*
X46580000Y-22090000D01*
X46580000Y-24630000D02*
X47960000Y-24630000D01*
X46580000Y-25270000D02*
X46580000Y-24630000D01*
X46580000Y-27170000D02*
X47960000Y-27170000D01*
X46580000Y-27810000D02*
X46580000Y-27170000D01*
X46580000Y-29710000D02*
X47960000Y-29710000D01*
X46580000Y-30350000D02*
X46580000Y-29710000D01*
X46580000Y-32250000D02*
X47960000Y-32250000D01*
X46580000Y-32890000D02*
X46580000Y-32250000D01*
X46580000Y-34790000D02*
X47960000Y-34790000D01*
X46580000Y-35430000D02*
X46580000Y-34790000D01*
X46580000Y-37330000D02*
X47960000Y-37330000D01*
X46580000Y-37970000D02*
X46580000Y-37330000D01*
X46580000Y-39870000D02*
X47960000Y-39870000D01*
X46580000Y-40510000D02*
X46580000Y-39870000D01*
X46580000Y-42410000D02*
X47960000Y-42410000D01*
X46580000Y-43050000D02*
X46580000Y-42410000D01*
X46580000Y-44950000D02*
X47960000Y-44950000D01*
X46580000Y-45590000D02*
X46580000Y-44950000D01*
X46580000Y-47490000D02*
X47960000Y-47490000D01*
X46580000Y-48130000D02*
X46580000Y-47490000D01*
X46580000Y-50030000D02*
X47960000Y-50030000D01*
X46580000Y-50670000D02*
X46580000Y-50030000D01*
X46580000Y-52570000D02*
X47960000Y-52570000D01*
X46580000Y-53210000D02*
X46580000Y-52570000D01*
X46580000Y-55110000D02*
X47960000Y-55110000D01*
X46580000Y-55750000D02*
X46580000Y-55110000D01*
X46580000Y-57650000D02*
X47960000Y-57650000D01*
X46580000Y-58290000D02*
X46580000Y-57650000D01*
X46580000Y-60190000D02*
X47960000Y-60190000D01*
X46580000Y-60830000D02*
X46580000Y-60190000D01*
X46580000Y-62730000D02*
X47960000Y-62730000D01*
X46580000Y-63370000D02*
X46580000Y-62730000D01*
X46580000Y-65270000D02*
X47960000Y-65270000D01*
X46580000Y-65910000D02*
X46580000Y-65270000D01*
X46580000Y-67810000D02*
X47960000Y-67810000D01*
X46580000Y-68450000D02*
X46580000Y-67810000D01*
X47960000Y-19600000D02*
X48960000Y-18600000D01*
X47960000Y-20190000D02*
X46580000Y-20190000D01*
X47960000Y-22730000D02*
X46580000Y-22730000D01*
X47960000Y-25270000D02*
X46580000Y-25270000D01*
X47960000Y-27810000D02*
X46580000Y-27810000D01*
X47960000Y-30350000D02*
X46580000Y-30350000D01*
X47960000Y-32890000D02*
X46580000Y-32890000D01*
X47960000Y-35430000D02*
X46580000Y-35430000D01*
X47960000Y-37970000D02*
X46580000Y-37970000D01*
X47960000Y-40510000D02*
X46580000Y-40510000D01*
X47960000Y-43050000D02*
X46580000Y-43050000D01*
X47960000Y-45590000D02*
X46580000Y-45590000D01*
X47960000Y-48130000D02*
X46580000Y-48130000D01*
X47960000Y-50670000D02*
X46580000Y-50670000D01*
X47960000Y-53210000D02*
X46580000Y-53210000D01*
X47960000Y-55750000D02*
X46580000Y-55750000D01*
X47960000Y-58290000D02*
X46580000Y-58290000D01*
X47960000Y-60830000D02*
X46580000Y-60830000D01*
X47960000Y-63370000D02*
X46580000Y-63370000D01*
X47960000Y-65910000D02*
X46580000Y-65910000D01*
X47960000Y-68450000D02*
X46580000Y-68450000D01*
X47960000Y-69400000D02*
X47960000Y-19600000D01*
X48960000Y-18600000D02*
X53040000Y-18600000D01*
X53040000Y-18600000D02*
X53040000Y-69400000D01*
X53040000Y-19550000D02*
X54420000Y-19550000D01*
X53040000Y-22090000D02*
X54420000Y-22090000D01*
X53040000Y-24630000D02*
X54420000Y-24630000D01*
X53040000Y-27170000D02*
X54420000Y-27170000D01*
X53040000Y-29710000D02*
X54420000Y-29710000D01*
X53040000Y-32250000D02*
X54420000Y-32250000D01*
X53040000Y-34790000D02*
X54420000Y-34790000D01*
X53040000Y-37330000D02*
X54420000Y-37330000D01*
X53040000Y-39870000D02*
X54420000Y-39870000D01*
X53040000Y-42410000D02*
X54420000Y-42410000D01*
X53040000Y-44950000D02*
X54420000Y-44950000D01*
X53040000Y-47490000D02*
X54420000Y-47490000D01*
X53040000Y-50030000D02*
X54420000Y-50030000D01*
X53040000Y-52570000D02*
X54420000Y-52570000D01*
X53040000Y-55110000D02*
X54420000Y-55110000D01*
X53040000Y-57650000D02*
X54420000Y-57650000D01*
X53040000Y-60190000D02*
X54420000Y-60190000D01*
X53040000Y-62730000D02*
X54420000Y-62730000D01*
X53040000Y-65270000D02*
X54420000Y-65270000D01*
X53040000Y-67810000D02*
X54420000Y-67810000D01*
X53040000Y-69400000D02*
X47960000Y-69400000D01*
X54420000Y-19550000D02*
X54420000Y-20190000D01*
X54420000Y-20190000D02*
X53040000Y-20190000D01*
X54420000Y-22090000D02*
X54420000Y-22730000D01*
X54420000Y-22730000D02*
X53040000Y-22730000D01*
X54420000Y-24630000D02*
X54420000Y-25270000D01*
X54420000Y-25270000D02*
X53040000Y-25270000D01*
X54420000Y-27170000D02*
X54420000Y-27810000D01*
X54420000Y-27810000D02*
X53040000Y-27810000D01*
X54420000Y-29710000D02*
X54420000Y-30350000D01*
X54420000Y-30350000D02*
X53040000Y-30350000D01*
X54420000Y-32250000D02*
X54420000Y-32890000D01*
X54420000Y-32890000D02*
X53040000Y-32890000D01*
X54420000Y-34790000D02*
X54420000Y-35430000D01*
X54420000Y-35430000D02*
X53040000Y-35430000D01*
X54420000Y-37330000D02*
X54420000Y-37970000D01*
X54420000Y-37970000D02*
X53040000Y-37970000D01*
X54420000Y-39870000D02*
X54420000Y-40510000D01*
X54420000Y-40510000D02*
X53040000Y-40510000D01*
X54420000Y-42410000D02*
X54420000Y-43050000D01*
X54420000Y-43050000D02*
X53040000Y-43050000D01*
X54420000Y-44950000D02*
X54420000Y-45590000D01*
X54420000Y-45590000D02*
X53040000Y-45590000D01*
X54420000Y-47490000D02*
X54420000Y-48130000D01*
X54420000Y-48130000D02*
X53040000Y-48130000D01*
X54420000Y-50030000D02*
X54420000Y-50670000D01*
X54420000Y-50670000D02*
X53040000Y-50670000D01*
X54420000Y-52570000D02*
X54420000Y-53210000D01*
X54420000Y-53210000D02*
X53040000Y-53210000D01*
X54420000Y-55110000D02*
X54420000Y-55750000D01*
X54420000Y-55750000D02*
X53040000Y-55750000D01*
X54420000Y-57650000D02*
X54420000Y-58290000D01*
X54420000Y-58290000D02*
X53040000Y-58290000D01*
X54420000Y-60190000D02*
X54420000Y-60830000D01*
X54420000Y-60830000D02*
X53040000Y-60830000D01*
X54420000Y-62730000D02*
X54420000Y-63370000D01*
X54420000Y-63370000D02*
X53040000Y-63370000D01*
X54420000Y-65270000D02*
X54420000Y-65910000D01*
X54420000Y-65910000D02*
X53040000Y-65910000D01*
X54420000Y-67810000D02*
X54420000Y-68450000D01*
X54420000Y-68450000D02*
X53040000Y-68450000D01*
%TD*%
M02*
