M48
; DRILL file {KiCad 8.0.8-8.0.8-0~ubuntu22.04.1} date 2025-02-25T18:12:58-0500
; FORMAT={-:-/ absolute / metric / decimal}
; #@! TF.CreationDate,2025-02-25T18:12:58-05:00
; #@! TF.GenerationSoftware,Kicad,Pcbnew,8.0.8-8.0.8-0~ubuntu22.04.1
; #@! TF.FileFunction,MixedPlating,1,2
FMAT,2
METRIC
; #@! TA.AperFunction,Plated,PTH,ViaDrill
T1C0.300
; #@! TA.AperFunction,Plated,PTH,ComponentDrill
T2C0.300
; #@! TA.AperFunction,Plated,PTH,ViaDrill
T3C0.400
; #@! TA.AperFunction,Plated,PTH,ComponentDrill
T4C0.400
; #@! TA.AperFunction,Plated,PTH,ComponentDrill
T5C1.000
; #@! TA.AperFunction,NonPlated,NPTH,ComponentDrill
T6C1.300
%
G90
G05
T1
X51.0Y-56.0
X51.25Y-45.75
X51.25Y-48.25
X51.25Y-50.75
X51.25Y-53.25
X51.55Y-23.7
X51.7Y-19.5
X52.015Y-43.0
X54.724Y-51.361
X54.83Y-53.844
X54.841Y-48.757
X55.016Y-46.008
X55.1Y-43.5
X60.3Y-42.2
X60.3Y-46.9
X63.25Y-40.308
X63.674Y-47.939
X65.3Y-50.2
X70.25Y-48.25
X71.29Y-36.4
X73.2Y-20.9
X74.5Y-28.1
X76.044Y-41.272
X77.5Y-28.1
X78.75Y-41.9
X80.6Y-32.8
X86.0Y-31.4
X86.1Y-26.4
X86.1Y-28.9
X86.1Y-34.0
X86.2Y-36.4
X86.715Y-24.5
X89.75Y-27.5
X89.75Y-29.25
X89.75Y-32.75
X89.75Y-35.0
X89.75Y-37.5
T2
X48.3Y-69.3
X50.1Y-18.7
X51.0Y-68.8
X53.4Y-41.7
X55.2Y-21.95
X60.4Y-62.6
X60.7Y-50.4
X60.7Y-51.9
X60.9Y-48.3
X60.95Y-18.7
X62.2Y-52.9
X62.4Y-41.8
X62.5Y-43.6
X64.7Y-56.1
X65.8Y-57.1
X68.0Y-54.8
X69.1Y-40.95
X69.1Y-43.5
X71.3Y-32.7
X71.7Y-40.95
X71.7Y-43.5
X72.8Y-51.4
X72.8Y-53.4
X72.8Y-55.4
X72.8Y-57.5
X72.8Y-59.6
X75.35Y-31.55
X75.9Y-37.4
X76.8Y-39.6
X77.8Y-45.7
X78.2Y-65.0
X79.3Y-45.2
X81.05Y-44.75
X81.5Y-41.9
X83.15Y-44.15
X85.1Y-57.7
X85.1Y-60.9
T3
X48.2Y-28.93
X48.35Y-22.9
X49.2Y-38.8
X49.4Y-41.6
X49.5Y-69.3
X49.559Y-30.941
X49.75Y-32.75
X49.75Y-35.0
X49.876Y-62.582
X50.25Y-68.25
X50.6Y-26.65
X50.75Y-61.75
X51.027Y-29.127
X51.5Y-64.2
X52.15Y-65.05
X52.25Y-21.25
X53.75Y-61.35
X54.6Y-34.8
X55.2Y-38.425
X55.75Y-63.25
X55.78Y-68.78
X58.09Y-28.34
X62.2Y-56.1
X63.0Y-25.25
X64.0Y-28.25
X66.631Y-20.6
X67.5Y-28.25
X67.75Y-33.6
X68.043Y-48.305
X68.4Y-29.914
X68.5Y-25.0
X69.5Y-19.5
X70.066Y-28.066
X70.371Y-18.7
X70.75Y-26.65
X70.9Y-21.2
X71.9Y-29.1
X72.7Y-21.7
X73.14Y-36.425
X74.0Y-18.75
X74.0Y-34.25
X74.9Y-34.3
X75.4Y-21.95
X75.5Y-50.0
X76.0Y-27.323
X76.7Y-49.5
X76.9Y-20.9
X78.375Y-21.625
X85.7Y-47.8
X85.895Y-54.799
X85.97Y-50.25
X86.0Y-58.5
X86.0Y-61.4
X86.0Y-65.688
X86.9Y-46.7
X88.0Y-21.2
X89.25Y-44.0
X90.5Y-68.26
X90.7Y-25.75
X90.75Y-41.75
X90.9Y-53.7
X91.0Y-23.0
X91.0Y-45.25
X91.0Y-51.95
X91.0Y-58.0
X91.0Y-65.0
X91.2Y-23.9
X91.25Y-49.5
X91.25Y-60.0
X91.624Y-44.082
X92.5Y-18.75
X92.5Y-69.25
X93.5Y-41.5
X93.5Y-56.6
X93.5Y-61.61
X93.6Y-27.6
X93.6Y-39.0
X93.7Y-35.1
X94.25Y-64.15
X94.3Y-53.99
X94.8Y-46.5
T4
X46.75Y-23.55
X46.8Y-28.8
X46.8Y-33.8
X46.8Y-41.5
X46.8Y-49.0
X46.8Y-56.7
X46.8Y-64.3
X48.45Y-54.2
X48.65Y-59.2
X48.65Y-61.8
X49.7Y-33.9
X50.3Y-44.4
X50.5Y-36.5
X50.5Y-41.5
X50.55Y-38.85
X52.3Y-31.3
X56.8Y-65.1
X56.8Y-68.0
X57.4Y-26.1
X57.4Y-31.3
X58.2Y-59.6
X61.0Y-69.1
X61.65Y-23.2
X61.75Y-26.0
X66.9Y-63.3
X66.9Y-65.6
X66.9Y-69.1
X68.4Y-19.4
X70.3Y-60.8
X74.1Y-63.3
X74.1Y-65.6
X74.1Y-69.1
X75.15Y-20.0
X75.9Y-46.9
X78.0Y-52.9
X78.2Y-27.0
X78.7Y-55.2
X79.2Y-39.7
X79.3Y-20.65
X80.4Y-27.9
X80.4Y-30.6
X81.9Y-52.1
X82.1Y-19.9
X83.6Y-40.2
X85.1Y-51.1
X85.1Y-55.7
X85.1Y-59.3
X85.1Y-63.0
X85.5Y-66.85
X88.0Y-54.45
X90.25Y-59.1
X90.45Y-50.8
X90.5Y-61.7
X90.55Y-40.25
X90.55Y-47.1
X90.6Y-30.0
X90.6Y-36.6
X93.0Y-21.2
X93.45Y-66.75
T5
X56.0Y-42.21
X56.0Y-44.75
X56.0Y-47.29
X56.0Y-49.83
X56.0Y-52.37
X56.0Y-54.91
X57.13Y-19.8
X58.54Y-42.21
X58.54Y-44.75
X58.54Y-47.29
X58.54Y-49.83
X58.54Y-52.37
X58.54Y-54.91
X59.67Y-19.8
X62.21Y-19.8
X64.75Y-19.8
X82.25Y-25.13
X82.25Y-27.67
X82.25Y-30.21
X82.25Y-32.75
X82.25Y-35.29
X82.25Y-37.83
X84.79Y-25.13
X84.79Y-27.67
X84.79Y-30.21
X84.79Y-32.75
X84.79Y-35.29
X84.79Y-37.83
T6
X50.5Y-21.14
X50.5Y-66.86
X90.5Y-21.14
X90.5Y-66.86
M30
