%TF.GenerationSoftware,KiCad,Pcbnew,8.0.8-8.0.8-0~ubuntu22.04.1*%
%TF.CreationDate,2025-02-25T18:12:58-05:00*%
%TF.ProjectId,breakout-qfn,62726561-6b6f-4757-942d-71666e2e6b69,2.0*%
%TF.SameCoordinates,PX2b64660PY42c1d80*%
%TF.FileFunction,Drillmap*%
%TF.FilePolarity,Positive*%
%FSLAX45Y45*%
G04 Gerber Fmt 4.5, Leading zero omitted, Abs format (unit mm)*
G04 Created by KiCad (PCBNEW 8.0.8-8.0.8-0~ubuntu22.04.1) date 2025-02-25 18:12:58*
%MOMM*%
%LPD*%
G01*
G04 APERTURE LIST*
%ADD10C,0.050000*%
%ADD11C,0.200000*%
%ADD12C,0.130000*%
G04 APERTURE END LIST*
D10*
X7300000Y-6900000D02*
X7300000Y-6850000D01*
X7200000Y-6750000D02*
G75*
G02*
X7300000Y-6850000I0J-100000D01*
G01*
X6800000Y-6850000D02*
X6800000Y-6900000D01*
X9300000Y-7000000D02*
X7400000Y-7000000D01*
X4800000Y-7000000D02*
G75*
G02*
X4550000Y-6750000I0J250000D01*
G01*
X4800000Y-1800000D02*
X9300000Y-1800000D01*
X9300000Y-1800000D02*
G75*
G02*
X9550000Y-2050000I0J-250000D01*
G01*
X9550000Y-2050000D02*
X9550000Y-6750000D01*
X7200000Y-6750000D02*
X6900000Y-6750000D01*
X9550000Y-6750000D02*
G75*
G02*
X9300000Y-7000000I-250000J0D01*
G01*
X4550000Y-2050000D02*
G75*
G02*
X4800000Y-1800000I250000J0D01*
G01*
X6800000Y-6900000D02*
G75*
G02*
X6700000Y-7000000I-100000J0D01*
G01*
X7400000Y-7000000D02*
G75*
G02*
X7300000Y-6900000I0J100000D01*
G01*
X6800000Y-6850000D02*
G75*
G02*
X6900000Y-6750000I100000J0D01*
G01*
X4550000Y-6750000D02*
X4550000Y-2050000D01*
X4800000Y-7000000D02*
X6700000Y-7000000D01*
D11*
D12*
X4985000Y-2049000D02*
X5115000Y-2179000D01*
X5115000Y-2049000D02*
X4985000Y-2179000D01*
X4985000Y-6621000D02*
X5115000Y-6751000D01*
X5115000Y-6621000D02*
X4985000Y-6751000D01*
X8985000Y-2049000D02*
X9115000Y-2179000D01*
X9115000Y-2049000D02*
X8985000Y-2179000D01*
X8985000Y-6621000D02*
X9115000Y-6751000D01*
X9115000Y-6621000D02*
X8985000Y-6751000D01*
D11*
X4808277Y-7313984D02*
X4808277Y-7113984D01*
X4808277Y-7113984D02*
X4855896Y-7113984D01*
X4855896Y-7113984D02*
X4884467Y-7123508D01*
X4884467Y-7123508D02*
X4903515Y-7142555D01*
X4903515Y-7142555D02*
X4913039Y-7161603D01*
X4913039Y-7161603D02*
X4922563Y-7199698D01*
X4922563Y-7199698D02*
X4922563Y-7228269D01*
X4922563Y-7228269D02*
X4913039Y-7266365D01*
X4913039Y-7266365D02*
X4903515Y-7285412D01*
X4903515Y-7285412D02*
X4884467Y-7304460D01*
X4884467Y-7304460D02*
X4855896Y-7313984D01*
X4855896Y-7313984D02*
X4808277Y-7313984D01*
X5008277Y-7313984D02*
X5008277Y-7180650D01*
X5008277Y-7218746D02*
X5017801Y-7199698D01*
X5017801Y-7199698D02*
X5027324Y-7190174D01*
X5027324Y-7190174D02*
X5046372Y-7180650D01*
X5046372Y-7180650D02*
X5065420Y-7180650D01*
X5132086Y-7313984D02*
X5132086Y-7180650D01*
X5132086Y-7113984D02*
X5122563Y-7123508D01*
X5122563Y-7123508D02*
X5132086Y-7133031D01*
X5132086Y-7133031D02*
X5141610Y-7123508D01*
X5141610Y-7123508D02*
X5132086Y-7113984D01*
X5132086Y-7113984D02*
X5132086Y-7133031D01*
X5255896Y-7313984D02*
X5236848Y-7304460D01*
X5236848Y-7304460D02*
X5227324Y-7285412D01*
X5227324Y-7285412D02*
X5227324Y-7113984D01*
X5360658Y-7313984D02*
X5341610Y-7304460D01*
X5341610Y-7304460D02*
X5332086Y-7285412D01*
X5332086Y-7285412D02*
X5332086Y-7113984D01*
X5589229Y-7313984D02*
X5589229Y-7113984D01*
X5589229Y-7113984D02*
X5655896Y-7256841D01*
X5655896Y-7256841D02*
X5722562Y-7113984D01*
X5722562Y-7113984D02*
X5722562Y-7313984D01*
X5903515Y-7313984D02*
X5903515Y-7209222D01*
X5903515Y-7209222D02*
X5893991Y-7190174D01*
X5893991Y-7190174D02*
X5874943Y-7180650D01*
X5874943Y-7180650D02*
X5836848Y-7180650D01*
X5836848Y-7180650D02*
X5817801Y-7190174D01*
X5903515Y-7304460D02*
X5884467Y-7313984D01*
X5884467Y-7313984D02*
X5836848Y-7313984D01*
X5836848Y-7313984D02*
X5817801Y-7304460D01*
X5817801Y-7304460D02*
X5808277Y-7285412D01*
X5808277Y-7285412D02*
X5808277Y-7266365D01*
X5808277Y-7266365D02*
X5817801Y-7247317D01*
X5817801Y-7247317D02*
X5836848Y-7237793D01*
X5836848Y-7237793D02*
X5884467Y-7237793D01*
X5884467Y-7237793D02*
X5903515Y-7228269D01*
X5998753Y-7180650D02*
X5998753Y-7380650D01*
X5998753Y-7190174D02*
X6017801Y-7180650D01*
X6017801Y-7180650D02*
X6055896Y-7180650D01*
X6055896Y-7180650D02*
X6074943Y-7190174D01*
X6074943Y-7190174D02*
X6084467Y-7199698D01*
X6084467Y-7199698D02*
X6093991Y-7218746D01*
X6093991Y-7218746D02*
X6093991Y-7275888D01*
X6093991Y-7275888D02*
X6084467Y-7294936D01*
X6084467Y-7294936D02*
X6074943Y-7304460D01*
X6074943Y-7304460D02*
X6055896Y-7313984D01*
X6055896Y-7313984D02*
X6017801Y-7313984D01*
X6017801Y-7313984D02*
X5998753Y-7304460D01*
X6179705Y-7294936D02*
X6189229Y-7304460D01*
X6189229Y-7304460D02*
X6179705Y-7313984D01*
X6179705Y-7313984D02*
X6170182Y-7304460D01*
X6170182Y-7304460D02*
X6179705Y-7294936D01*
X6179705Y-7294936D02*
X6179705Y-7313984D01*
X6179705Y-7190174D02*
X6189229Y-7199698D01*
X6189229Y-7199698D02*
X6179705Y-7209222D01*
X6179705Y-7209222D02*
X6170182Y-7199698D01*
X6170182Y-7199698D02*
X6179705Y-7190174D01*
X6179705Y-7190174D02*
X6179705Y-7209222D01*
D12*
X4417500Y-7577500D02*
X4547500Y-7707500D01*
X4547500Y-7577500D02*
X4417500Y-7707500D01*
D11*
X4913039Y-7733984D02*
X4798753Y-7733984D01*
X4855896Y-7733984D02*
X4855896Y-7533984D01*
X4855896Y-7533984D02*
X4836848Y-7562555D01*
X4836848Y-7562555D02*
X4817801Y-7581603D01*
X4817801Y-7581603D02*
X4798753Y-7591127D01*
X4998753Y-7714936D02*
X5008277Y-7724460D01*
X5008277Y-7724460D02*
X4998753Y-7733984D01*
X4998753Y-7733984D02*
X4989229Y-7724460D01*
X4989229Y-7724460D02*
X4998753Y-7714936D01*
X4998753Y-7714936D02*
X4998753Y-7733984D01*
X5074944Y-7533984D02*
X5198753Y-7533984D01*
X5198753Y-7533984D02*
X5132086Y-7610174D01*
X5132086Y-7610174D02*
X5160658Y-7610174D01*
X5160658Y-7610174D02*
X5179705Y-7619698D01*
X5179705Y-7619698D02*
X5189229Y-7629222D01*
X5189229Y-7629222D02*
X5198753Y-7648269D01*
X5198753Y-7648269D02*
X5198753Y-7695888D01*
X5198753Y-7695888D02*
X5189229Y-7714936D01*
X5189229Y-7714936D02*
X5179705Y-7724460D01*
X5179705Y-7724460D02*
X5160658Y-7733984D01*
X5160658Y-7733984D02*
X5103515Y-7733984D01*
X5103515Y-7733984D02*
X5084467Y-7724460D01*
X5084467Y-7724460D02*
X5074944Y-7714936D01*
X5322563Y-7533984D02*
X5341610Y-7533984D01*
X5341610Y-7533984D02*
X5360658Y-7543508D01*
X5360658Y-7543508D02*
X5370182Y-7553031D01*
X5370182Y-7553031D02*
X5379705Y-7572079D01*
X5379705Y-7572079D02*
X5389229Y-7610174D01*
X5389229Y-7610174D02*
X5389229Y-7657793D01*
X5389229Y-7657793D02*
X5379705Y-7695888D01*
X5379705Y-7695888D02*
X5370182Y-7714936D01*
X5370182Y-7714936D02*
X5360658Y-7724460D01*
X5360658Y-7724460D02*
X5341610Y-7733984D01*
X5341610Y-7733984D02*
X5322563Y-7733984D01*
X5322563Y-7733984D02*
X5303515Y-7724460D01*
X5303515Y-7724460D02*
X5293991Y-7714936D01*
X5293991Y-7714936D02*
X5284467Y-7695888D01*
X5284467Y-7695888D02*
X5274944Y-7657793D01*
X5274944Y-7657793D02*
X5274944Y-7610174D01*
X5274944Y-7610174D02*
X5284467Y-7572079D01*
X5284467Y-7572079D02*
X5293991Y-7553031D01*
X5293991Y-7553031D02*
X5303515Y-7543508D01*
X5303515Y-7543508D02*
X5322563Y-7533984D01*
X5513039Y-7533984D02*
X5532086Y-7533984D01*
X5532086Y-7533984D02*
X5551134Y-7543508D01*
X5551134Y-7543508D02*
X5560658Y-7553031D01*
X5560658Y-7553031D02*
X5570182Y-7572079D01*
X5570182Y-7572079D02*
X5579705Y-7610174D01*
X5579705Y-7610174D02*
X5579705Y-7657793D01*
X5579705Y-7657793D02*
X5570182Y-7695888D01*
X5570182Y-7695888D02*
X5560658Y-7714936D01*
X5560658Y-7714936D02*
X5551134Y-7724460D01*
X5551134Y-7724460D02*
X5532086Y-7733984D01*
X5532086Y-7733984D02*
X5513039Y-7733984D01*
X5513039Y-7733984D02*
X5493991Y-7724460D01*
X5493991Y-7724460D02*
X5484467Y-7714936D01*
X5484467Y-7714936D02*
X5474944Y-7695888D01*
X5474944Y-7695888D02*
X5465420Y-7657793D01*
X5465420Y-7657793D02*
X5465420Y-7610174D01*
X5465420Y-7610174D02*
X5474944Y-7572079D01*
X5474944Y-7572079D02*
X5484467Y-7553031D01*
X5484467Y-7553031D02*
X5493991Y-7543508D01*
X5493991Y-7543508D02*
X5513039Y-7533984D01*
X5665420Y-7733984D02*
X5665420Y-7600650D01*
X5665420Y-7619698D02*
X5674943Y-7610174D01*
X5674943Y-7610174D02*
X5693991Y-7600650D01*
X5693991Y-7600650D02*
X5722563Y-7600650D01*
X5722563Y-7600650D02*
X5741610Y-7610174D01*
X5741610Y-7610174D02*
X5751134Y-7629222D01*
X5751134Y-7629222D02*
X5751134Y-7733984D01*
X5751134Y-7629222D02*
X5760658Y-7610174D01*
X5760658Y-7610174D02*
X5779705Y-7600650D01*
X5779705Y-7600650D02*
X5808277Y-7600650D01*
X5808277Y-7600650D02*
X5827324Y-7610174D01*
X5827324Y-7610174D02*
X5836848Y-7629222D01*
X5836848Y-7629222D02*
X5836848Y-7733984D01*
X5932086Y-7733984D02*
X5932086Y-7600650D01*
X5932086Y-7619698D02*
X5941610Y-7610174D01*
X5941610Y-7610174D02*
X5960658Y-7600650D01*
X5960658Y-7600650D02*
X5989229Y-7600650D01*
X5989229Y-7600650D02*
X6008277Y-7610174D01*
X6008277Y-7610174D02*
X6017801Y-7629222D01*
X6017801Y-7629222D02*
X6017801Y-7733984D01*
X6017801Y-7629222D02*
X6027324Y-7610174D01*
X6027324Y-7610174D02*
X6046372Y-7600650D01*
X6046372Y-7600650D02*
X6074943Y-7600650D01*
X6074943Y-7600650D02*
X6093991Y-7610174D01*
X6093991Y-7610174D02*
X6103515Y-7629222D01*
X6103515Y-7629222D02*
X6103515Y-7733984D01*
X6493991Y-7524460D02*
X6322563Y-7781603D01*
X6751134Y-7533984D02*
X6770182Y-7533984D01*
X6770182Y-7533984D02*
X6789229Y-7543508D01*
X6789229Y-7543508D02*
X6798753Y-7553031D01*
X6798753Y-7553031D02*
X6808277Y-7572079D01*
X6808277Y-7572079D02*
X6817801Y-7610174D01*
X6817801Y-7610174D02*
X6817801Y-7657793D01*
X6817801Y-7657793D02*
X6808277Y-7695888D01*
X6808277Y-7695888D02*
X6798753Y-7714936D01*
X6798753Y-7714936D02*
X6789229Y-7724460D01*
X6789229Y-7724460D02*
X6770182Y-7733984D01*
X6770182Y-7733984D02*
X6751134Y-7733984D01*
X6751134Y-7733984D02*
X6732086Y-7724460D01*
X6732086Y-7724460D02*
X6722563Y-7714936D01*
X6722563Y-7714936D02*
X6713039Y-7695888D01*
X6713039Y-7695888D02*
X6703515Y-7657793D01*
X6703515Y-7657793D02*
X6703515Y-7610174D01*
X6703515Y-7610174D02*
X6713039Y-7572079D01*
X6713039Y-7572079D02*
X6722563Y-7553031D01*
X6722563Y-7553031D02*
X6732086Y-7543508D01*
X6732086Y-7543508D02*
X6751134Y-7533984D01*
X6903515Y-7714936D02*
X6913039Y-7724460D01*
X6913039Y-7724460D02*
X6903515Y-7733984D01*
X6903515Y-7733984D02*
X6893991Y-7724460D01*
X6893991Y-7724460D02*
X6903515Y-7714936D01*
X6903515Y-7714936D02*
X6903515Y-7733984D01*
X7036848Y-7533984D02*
X7055896Y-7533984D01*
X7055896Y-7533984D02*
X7074944Y-7543508D01*
X7074944Y-7543508D02*
X7084467Y-7553031D01*
X7084467Y-7553031D02*
X7093991Y-7572079D01*
X7093991Y-7572079D02*
X7103515Y-7610174D01*
X7103515Y-7610174D02*
X7103515Y-7657793D01*
X7103515Y-7657793D02*
X7093991Y-7695888D01*
X7093991Y-7695888D02*
X7084467Y-7714936D01*
X7084467Y-7714936D02*
X7074944Y-7724460D01*
X7074944Y-7724460D02*
X7055896Y-7733984D01*
X7055896Y-7733984D02*
X7036848Y-7733984D01*
X7036848Y-7733984D02*
X7017801Y-7724460D01*
X7017801Y-7724460D02*
X7008277Y-7714936D01*
X7008277Y-7714936D02*
X6998753Y-7695888D01*
X6998753Y-7695888D02*
X6989229Y-7657793D01*
X6989229Y-7657793D02*
X6989229Y-7610174D01*
X6989229Y-7610174D02*
X6998753Y-7572079D01*
X6998753Y-7572079D02*
X7008277Y-7553031D01*
X7008277Y-7553031D02*
X7017801Y-7543508D01*
X7017801Y-7543508D02*
X7036848Y-7533984D01*
X7284467Y-7533984D02*
X7189229Y-7533984D01*
X7189229Y-7533984D02*
X7179706Y-7629222D01*
X7179706Y-7629222D02*
X7189229Y-7619698D01*
X7189229Y-7619698D02*
X7208277Y-7610174D01*
X7208277Y-7610174D02*
X7255896Y-7610174D01*
X7255896Y-7610174D02*
X7274944Y-7619698D01*
X7274944Y-7619698D02*
X7284467Y-7629222D01*
X7284467Y-7629222D02*
X7293991Y-7648269D01*
X7293991Y-7648269D02*
X7293991Y-7695888D01*
X7293991Y-7695888D02*
X7284467Y-7714936D01*
X7284467Y-7714936D02*
X7274944Y-7724460D01*
X7274944Y-7724460D02*
X7255896Y-7733984D01*
X7255896Y-7733984D02*
X7208277Y-7733984D01*
X7208277Y-7733984D02*
X7189229Y-7724460D01*
X7189229Y-7724460D02*
X7179706Y-7714936D01*
X7484467Y-7733984D02*
X7370182Y-7733984D01*
X7427325Y-7733984D02*
X7427325Y-7533984D01*
X7427325Y-7533984D02*
X7408277Y-7562555D01*
X7408277Y-7562555D02*
X7389229Y-7581603D01*
X7389229Y-7581603D02*
X7370182Y-7591127D01*
X7560658Y-7553031D02*
X7570182Y-7543508D01*
X7570182Y-7543508D02*
X7589229Y-7533984D01*
X7589229Y-7533984D02*
X7636848Y-7533984D01*
X7636848Y-7533984D02*
X7655896Y-7543508D01*
X7655896Y-7543508D02*
X7665420Y-7553031D01*
X7665420Y-7553031D02*
X7674944Y-7572079D01*
X7674944Y-7572079D02*
X7674944Y-7591127D01*
X7674944Y-7591127D02*
X7665420Y-7619698D01*
X7665420Y-7619698D02*
X7551134Y-7733984D01*
X7551134Y-7733984D02*
X7674944Y-7733984D01*
X7751134Y-7533984D02*
X7751134Y-7572079D01*
X7827325Y-7533984D02*
X7827325Y-7572079D01*
X8122563Y-7810174D02*
X8113039Y-7800650D01*
X8113039Y-7800650D02*
X8093991Y-7772079D01*
X8093991Y-7772079D02*
X8084468Y-7753031D01*
X8084468Y-7753031D02*
X8074944Y-7724460D01*
X8074944Y-7724460D02*
X8065420Y-7676841D01*
X8065420Y-7676841D02*
X8065420Y-7638746D01*
X8065420Y-7638746D02*
X8074944Y-7591127D01*
X8074944Y-7591127D02*
X8084468Y-7562555D01*
X8084468Y-7562555D02*
X8093991Y-7543508D01*
X8093991Y-7543508D02*
X8113039Y-7514936D01*
X8113039Y-7514936D02*
X8122563Y-7505412D01*
X8284468Y-7600650D02*
X8284468Y-7733984D01*
X8236848Y-7524460D02*
X8189229Y-7667317D01*
X8189229Y-7667317D02*
X8313039Y-7667317D01*
X8541611Y-7733984D02*
X8541611Y-7533984D01*
X8627325Y-7733984D02*
X8627325Y-7629222D01*
X8627325Y-7629222D02*
X8617801Y-7610174D01*
X8617801Y-7610174D02*
X8598753Y-7600650D01*
X8598753Y-7600650D02*
X8570182Y-7600650D01*
X8570182Y-7600650D02*
X8551134Y-7610174D01*
X8551134Y-7610174D02*
X8541611Y-7619698D01*
X8751134Y-7733984D02*
X8732087Y-7724460D01*
X8732087Y-7724460D02*
X8722563Y-7714936D01*
X8722563Y-7714936D02*
X8713039Y-7695888D01*
X8713039Y-7695888D02*
X8713039Y-7638746D01*
X8713039Y-7638746D02*
X8722563Y-7619698D01*
X8722563Y-7619698D02*
X8732087Y-7610174D01*
X8732087Y-7610174D02*
X8751134Y-7600650D01*
X8751134Y-7600650D02*
X8779706Y-7600650D01*
X8779706Y-7600650D02*
X8798753Y-7610174D01*
X8798753Y-7610174D02*
X8808277Y-7619698D01*
X8808277Y-7619698D02*
X8817801Y-7638746D01*
X8817801Y-7638746D02*
X8817801Y-7695888D01*
X8817801Y-7695888D02*
X8808277Y-7714936D01*
X8808277Y-7714936D02*
X8798753Y-7724460D01*
X8798753Y-7724460D02*
X8779706Y-7733984D01*
X8779706Y-7733984D02*
X8751134Y-7733984D01*
X8932087Y-7733984D02*
X8913039Y-7724460D01*
X8913039Y-7724460D02*
X8903515Y-7705412D01*
X8903515Y-7705412D02*
X8903515Y-7533984D01*
X9084468Y-7724460D02*
X9065420Y-7733984D01*
X9065420Y-7733984D02*
X9027325Y-7733984D01*
X9027325Y-7733984D02*
X9008277Y-7724460D01*
X9008277Y-7724460D02*
X8998753Y-7705412D01*
X8998753Y-7705412D02*
X8998753Y-7629222D01*
X8998753Y-7629222D02*
X9008277Y-7610174D01*
X9008277Y-7610174D02*
X9027325Y-7600650D01*
X9027325Y-7600650D02*
X9065420Y-7600650D01*
X9065420Y-7600650D02*
X9084468Y-7610174D01*
X9084468Y-7610174D02*
X9093992Y-7629222D01*
X9093992Y-7629222D02*
X9093992Y-7648269D01*
X9093992Y-7648269D02*
X8998753Y-7667317D01*
X9170182Y-7724460D02*
X9189230Y-7733984D01*
X9189230Y-7733984D02*
X9227325Y-7733984D01*
X9227325Y-7733984D02*
X9246373Y-7724460D01*
X9246373Y-7724460D02*
X9255896Y-7705412D01*
X9255896Y-7705412D02*
X9255896Y-7695888D01*
X9255896Y-7695888D02*
X9246373Y-7676841D01*
X9246373Y-7676841D02*
X9227325Y-7667317D01*
X9227325Y-7667317D02*
X9198753Y-7667317D01*
X9198753Y-7667317D02*
X9179706Y-7657793D01*
X9179706Y-7657793D02*
X9170182Y-7638746D01*
X9170182Y-7638746D02*
X9170182Y-7629222D01*
X9170182Y-7629222D02*
X9179706Y-7610174D01*
X9179706Y-7610174D02*
X9198753Y-7600650D01*
X9198753Y-7600650D02*
X9227325Y-7600650D01*
X9227325Y-7600650D02*
X9246373Y-7610174D01*
X9322563Y-7810174D02*
X9332087Y-7800650D01*
X9332087Y-7800650D02*
X9351134Y-7772079D01*
X9351134Y-7772079D02*
X9360658Y-7753031D01*
X9360658Y-7753031D02*
X9370182Y-7724460D01*
X9370182Y-7724460D02*
X9379706Y-7676841D01*
X9379706Y-7676841D02*
X9379706Y-7638746D01*
X9379706Y-7638746D02*
X9370182Y-7591127D01*
X9370182Y-7591127D02*
X9360658Y-7562555D01*
X9360658Y-7562555D02*
X9351134Y-7543508D01*
X9351134Y-7543508D02*
X9332087Y-7514936D01*
X9332087Y-7514936D02*
X9322563Y-7505412D01*
X9684468Y-7810174D02*
X9674944Y-7800650D01*
X9674944Y-7800650D02*
X9655896Y-7772079D01*
X9655896Y-7772079D02*
X9646373Y-7753031D01*
X9646373Y-7753031D02*
X9636849Y-7724460D01*
X9636849Y-7724460D02*
X9627325Y-7676841D01*
X9627325Y-7676841D02*
X9627325Y-7638746D01*
X9627325Y-7638746D02*
X9636849Y-7591127D01*
X9636849Y-7591127D02*
X9646373Y-7562555D01*
X9646373Y-7562555D02*
X9655896Y-7543508D01*
X9655896Y-7543508D02*
X9674944Y-7514936D01*
X9674944Y-7514936D02*
X9684468Y-7505412D01*
X9760658Y-7600650D02*
X9760658Y-7733984D01*
X9760658Y-7619698D02*
X9770182Y-7610174D01*
X9770182Y-7610174D02*
X9789230Y-7600650D01*
X9789230Y-7600650D02*
X9817801Y-7600650D01*
X9817801Y-7600650D02*
X9836849Y-7610174D01*
X9836849Y-7610174D02*
X9846373Y-7629222D01*
X9846373Y-7629222D02*
X9846373Y-7733984D01*
X9970182Y-7733984D02*
X9951134Y-7724460D01*
X9951134Y-7724460D02*
X9941611Y-7714936D01*
X9941611Y-7714936D02*
X9932087Y-7695888D01*
X9932087Y-7695888D02*
X9932087Y-7638746D01*
X9932087Y-7638746D02*
X9941611Y-7619698D01*
X9941611Y-7619698D02*
X9951134Y-7610174D01*
X9951134Y-7610174D02*
X9970182Y-7600650D01*
X9970182Y-7600650D02*
X9998754Y-7600650D01*
X9998754Y-7600650D02*
X10017801Y-7610174D01*
X10017801Y-7610174D02*
X10027325Y-7619698D01*
X10027325Y-7619698D02*
X10036849Y-7638746D01*
X10036849Y-7638746D02*
X10036849Y-7695888D01*
X10036849Y-7695888D02*
X10027325Y-7714936D01*
X10027325Y-7714936D02*
X10017801Y-7724460D01*
X10017801Y-7724460D02*
X9998754Y-7733984D01*
X9998754Y-7733984D02*
X9970182Y-7733984D01*
X10093992Y-7600650D02*
X10170182Y-7600650D01*
X10122563Y-7533984D02*
X10122563Y-7705412D01*
X10122563Y-7705412D02*
X10132087Y-7724460D01*
X10132087Y-7724460D02*
X10151134Y-7733984D01*
X10151134Y-7733984D02*
X10170182Y-7733984D01*
X10389230Y-7600650D02*
X10389230Y-7800650D01*
X10389230Y-7610174D02*
X10408277Y-7600650D01*
X10408277Y-7600650D02*
X10446373Y-7600650D01*
X10446373Y-7600650D02*
X10465420Y-7610174D01*
X10465420Y-7610174D02*
X10474944Y-7619698D01*
X10474944Y-7619698D02*
X10484468Y-7638746D01*
X10484468Y-7638746D02*
X10484468Y-7695888D01*
X10484468Y-7695888D02*
X10474944Y-7714936D01*
X10474944Y-7714936D02*
X10465420Y-7724460D01*
X10465420Y-7724460D02*
X10446373Y-7733984D01*
X10446373Y-7733984D02*
X10408277Y-7733984D01*
X10408277Y-7733984D02*
X10389230Y-7724460D01*
X10598754Y-7733984D02*
X10579706Y-7724460D01*
X10579706Y-7724460D02*
X10570182Y-7705412D01*
X10570182Y-7705412D02*
X10570182Y-7533984D01*
X10760658Y-7733984D02*
X10760658Y-7629222D01*
X10760658Y-7629222D02*
X10751135Y-7610174D01*
X10751135Y-7610174D02*
X10732087Y-7600650D01*
X10732087Y-7600650D02*
X10693992Y-7600650D01*
X10693992Y-7600650D02*
X10674944Y-7610174D01*
X10760658Y-7724460D02*
X10741611Y-7733984D01*
X10741611Y-7733984D02*
X10693992Y-7733984D01*
X10693992Y-7733984D02*
X10674944Y-7724460D01*
X10674944Y-7724460D02*
X10665420Y-7705412D01*
X10665420Y-7705412D02*
X10665420Y-7686365D01*
X10665420Y-7686365D02*
X10674944Y-7667317D01*
X10674944Y-7667317D02*
X10693992Y-7657793D01*
X10693992Y-7657793D02*
X10741611Y-7657793D01*
X10741611Y-7657793D02*
X10760658Y-7648269D01*
X10827325Y-7600650D02*
X10903515Y-7600650D01*
X10855896Y-7533984D02*
X10855896Y-7705412D01*
X10855896Y-7705412D02*
X10865420Y-7724460D01*
X10865420Y-7724460D02*
X10884468Y-7733984D01*
X10884468Y-7733984D02*
X10903515Y-7733984D01*
X11046373Y-7724460D02*
X11027325Y-7733984D01*
X11027325Y-7733984D02*
X10989230Y-7733984D01*
X10989230Y-7733984D02*
X10970182Y-7724460D01*
X10970182Y-7724460D02*
X10960658Y-7705412D01*
X10960658Y-7705412D02*
X10960658Y-7629222D01*
X10960658Y-7629222D02*
X10970182Y-7610174D01*
X10970182Y-7610174D02*
X10989230Y-7600650D01*
X10989230Y-7600650D02*
X11027325Y-7600650D01*
X11027325Y-7600650D02*
X11046373Y-7610174D01*
X11046373Y-7610174D02*
X11055896Y-7629222D01*
X11055896Y-7629222D02*
X11055896Y-7648269D01*
X11055896Y-7648269D02*
X10960658Y-7667317D01*
X11227325Y-7733984D02*
X11227325Y-7533984D01*
X11227325Y-7724460D02*
X11208277Y-7733984D01*
X11208277Y-7733984D02*
X11170182Y-7733984D01*
X11170182Y-7733984D02*
X11151135Y-7724460D01*
X11151135Y-7724460D02*
X11141611Y-7714936D01*
X11141611Y-7714936D02*
X11132087Y-7695888D01*
X11132087Y-7695888D02*
X11132087Y-7638746D01*
X11132087Y-7638746D02*
X11141611Y-7619698D01*
X11141611Y-7619698D02*
X11151135Y-7610174D01*
X11151135Y-7610174D02*
X11170182Y-7600650D01*
X11170182Y-7600650D02*
X11208277Y-7600650D01*
X11208277Y-7600650D02*
X11227325Y-7610174D01*
X11303515Y-7810174D02*
X11313039Y-7800650D01*
X11313039Y-7800650D02*
X11332087Y-7772079D01*
X11332087Y-7772079D02*
X11341611Y-7753031D01*
X11341611Y-7753031D02*
X11351134Y-7724460D01*
X11351134Y-7724460D02*
X11360658Y-7676841D01*
X11360658Y-7676841D02*
X11360658Y-7638746D01*
X11360658Y-7638746D02*
X11351134Y-7591127D01*
X11351134Y-7591127D02*
X11341611Y-7562555D01*
X11341611Y-7562555D02*
X11332087Y-7543508D01*
X11332087Y-7543508D02*
X11313039Y-7514936D01*
X11313039Y-7514936D02*
X11303515Y-7505412D01*
M02*
