%TF.GenerationSoftware,KiCad,Pcbnew,8.0.8-8.0.8-0~ubuntu22.04.1*%
%TF.CreationDate,2025-02-25T18:12:58-05:00*%
%TF.ProjectId,breakout-qfn,62726561-6b6f-4757-942d-71666e2e6b69,2.0*%
%TF.SameCoordinates,PX2b64660PY42c1d80*%
%TF.FileFunction,Drillmap*%
%TF.FilePolarity,Positive*%
%FSLAX45Y45*%
G04 Gerber Fmt 4.5, Leading zero omitted, Abs format (unit mm)*
G04 Created by KiCad (PCBNEW 8.0.8-8.0.8-0~ubuntu22.04.1) date 2025-02-25 18:12:58*
%MOMM*%
%LPD*%
G01*
G04 APERTURE LIST*
%ADD10C,0.050000*%
%ADD11C,0.200000*%
%ADD12C,0.100000*%
G04 APERTURE END LIST*
D10*
X7300000Y-6900000D02*
X7300000Y-6850000D01*
X7200000Y-6750000D02*
G75*
G02*
X7300000Y-6850000I0J-100000D01*
G01*
X6800000Y-6850000D02*
X6800000Y-6900000D01*
X9300000Y-7000000D02*
X7400000Y-7000000D01*
X4800000Y-7000000D02*
G75*
G02*
X4550000Y-6750000I0J250000D01*
G01*
X4800000Y-1800000D02*
X9300000Y-1800000D01*
X9300000Y-1800000D02*
G75*
G02*
X9550000Y-2050000I0J-250000D01*
G01*
X9550000Y-2050000D02*
X9550000Y-6750000D01*
X7200000Y-6750000D02*
X6900000Y-6750000D01*
X9550000Y-6750000D02*
G75*
G02*
X9300000Y-7000000I-250000J0D01*
G01*
X4550000Y-2050000D02*
G75*
G02*
X4800000Y-1800000I250000J0D01*
G01*
X6800000Y-6900000D02*
G75*
G02*
X6700000Y-7000000I-100000J0D01*
G01*
X7400000Y-7000000D02*
G75*
G02*
X7300000Y-6900000I0J100000D01*
G01*
X6800000Y-6850000D02*
G75*
G02*
X6900000Y-6750000I100000J0D01*
G01*
X4550000Y-6750000D02*
X4550000Y-2050000D01*
X4800000Y-7000000D02*
X6700000Y-7000000D01*
D11*
D12*
X5085000Y-5585000D02*
X5115000Y-5615000D01*
X5115000Y-5585000D02*
X5085000Y-5615000D01*
X5110000Y-4560000D02*
X5140000Y-4590000D01*
X5140000Y-4560000D02*
X5110000Y-4590000D01*
X5110000Y-4810000D02*
X5140000Y-4840000D01*
X5140000Y-4810000D02*
X5110000Y-4840000D01*
X5110000Y-5060000D02*
X5140000Y-5090000D01*
X5140000Y-5060000D02*
X5110000Y-5090000D01*
X5110000Y-5310000D02*
X5140000Y-5340000D01*
X5140000Y-5310000D02*
X5110000Y-5340000D01*
X5140000Y-2355000D02*
X5170000Y-2385000D01*
X5170000Y-2355000D02*
X5140000Y-2385000D01*
X5155000Y-1935000D02*
X5185000Y-1965000D01*
X5185000Y-1935000D02*
X5155000Y-1965000D01*
X5186500Y-4285000D02*
X5216500Y-4315000D01*
X5216500Y-4285000D02*
X5186500Y-4315000D01*
X5457427Y-5121066D02*
X5487427Y-5151066D01*
X5487427Y-5121066D02*
X5457427Y-5151066D01*
X5468018Y-5369419D02*
X5498018Y-5399419D01*
X5498018Y-5369419D02*
X5468018Y-5399419D01*
X5469076Y-4860678D02*
X5499076Y-4890678D01*
X5499076Y-4860678D02*
X5469076Y-4890678D01*
X5486600Y-4585767D02*
X5516600Y-4615767D01*
X5516600Y-4585767D02*
X5486600Y-4615767D01*
X5495000Y-4335000D02*
X5525000Y-4365000D01*
X5525000Y-4335000D02*
X5495000Y-4365000D01*
X6015000Y-4205000D02*
X6045000Y-4235000D01*
X6045000Y-4205000D02*
X6015000Y-4235000D01*
X6015000Y-4675000D02*
X6045000Y-4705000D01*
X6045000Y-4675000D02*
X6015000Y-4705000D01*
X6310000Y-4015809D02*
X6340000Y-4045809D01*
X6340000Y-4015809D02*
X6310000Y-4045809D01*
X6352391Y-4778934D02*
X6382391Y-4808934D01*
X6382391Y-4778934D02*
X6352391Y-4808934D01*
X6515000Y-5005000D02*
X6545000Y-5035000D01*
X6545000Y-5005000D02*
X6515000Y-5035000D01*
X7010000Y-4810000D02*
X7040000Y-4840000D01*
X7040000Y-4810000D02*
X7010000Y-4840000D01*
X7114000Y-3625000D02*
X7144000Y-3655000D01*
X7144000Y-3625000D02*
X7114000Y-3655000D01*
X7305000Y-2075000D02*
X7335000Y-2105000D01*
X7335000Y-2075000D02*
X7305000Y-2105000D01*
X7435000Y-2795000D02*
X7465000Y-2825000D01*
X7465000Y-2795000D02*
X7435000Y-2825000D01*
X7589391Y-4112214D02*
X7619391Y-4142214D01*
X7619391Y-4112214D02*
X7589391Y-4142214D01*
X7735000Y-2795000D02*
X7765000Y-2825000D01*
X7765000Y-2795000D02*
X7735000Y-2825000D01*
X7860000Y-4175000D02*
X7890000Y-4205000D01*
X7890000Y-4175000D02*
X7860000Y-4205000D01*
X8045000Y-3265000D02*
X8075000Y-3295000D01*
X8075000Y-3265000D02*
X8045000Y-3295000D01*
X8585000Y-3125000D02*
X8615000Y-3155000D01*
X8615000Y-3125000D02*
X8585000Y-3155000D01*
X8595000Y-2625000D02*
X8625000Y-2655000D01*
X8625000Y-2625000D02*
X8595000Y-2655000D01*
X8595000Y-2875000D02*
X8625000Y-2905000D01*
X8625000Y-2875000D02*
X8595000Y-2905000D01*
X8595000Y-3385000D02*
X8625000Y-3415000D01*
X8625000Y-3385000D02*
X8595000Y-3415000D01*
X8605000Y-3625000D02*
X8635000Y-3655000D01*
X8635000Y-3625000D02*
X8605000Y-3655000D01*
X8656500Y-2435000D02*
X8686500Y-2465000D01*
X8686500Y-2435000D02*
X8656500Y-2465000D01*
X8960000Y-2735000D02*
X8990000Y-2765000D01*
X8990000Y-2735000D02*
X8960000Y-2765000D01*
X8960000Y-2910000D02*
X8990000Y-2940000D01*
X8990000Y-2910000D02*
X8960000Y-2940000D01*
X8960000Y-3260000D02*
X8990000Y-3290000D01*
X8990000Y-3260000D02*
X8960000Y-3290000D01*
X8960000Y-3485000D02*
X8990000Y-3515000D01*
X8990000Y-3485000D02*
X8960000Y-3515000D01*
X8960000Y-3735000D02*
X8990000Y-3765000D01*
X8990000Y-3735000D02*
X8960000Y-3765000D01*
X4845000Y-6930000D02*
G75*
G02*
X4815000Y-6930000I-15000J0D01*
G01*
X4815000Y-6930000D02*
G75*
G02*
X4845000Y-6930000I15000J0D01*
G01*
X5025000Y-1870000D02*
G75*
G02*
X4995000Y-1870000I-15000J0D01*
G01*
X4995000Y-1870000D02*
G75*
G02*
X5025000Y-1870000I15000J0D01*
G01*
X5115000Y-6880000D02*
G75*
G02*
X5085000Y-6880000I-15000J0D01*
G01*
X5085000Y-6880000D02*
G75*
G02*
X5115000Y-6880000I15000J0D01*
G01*
X5355000Y-4170000D02*
G75*
G02*
X5325000Y-4170000I-15000J0D01*
G01*
X5325000Y-4170000D02*
G75*
G02*
X5355000Y-4170000I15000J0D01*
G01*
X5535000Y-2195000D02*
G75*
G02*
X5505000Y-2195000I-15000J0D01*
G01*
X5505000Y-2195000D02*
G75*
G02*
X5535000Y-2195000I15000J0D01*
G01*
X6055000Y-6260000D02*
G75*
G02*
X6025000Y-6260000I-15000J0D01*
G01*
X6025000Y-6260000D02*
G75*
G02*
X6055000Y-6260000I15000J0D01*
G01*
X6085000Y-5040000D02*
G75*
G02*
X6055000Y-5040000I-15000J0D01*
G01*
X6055000Y-5040000D02*
G75*
G02*
X6085000Y-5040000I15000J0D01*
G01*
X6085000Y-5190000D02*
G75*
G02*
X6055000Y-5190000I-15000J0D01*
G01*
X6055000Y-5190000D02*
G75*
G02*
X6085000Y-5190000I15000J0D01*
G01*
X6105000Y-4830000D02*
G75*
G02*
X6075000Y-4830000I-15000J0D01*
G01*
X6075000Y-4830000D02*
G75*
G02*
X6105000Y-4830000I15000J0D01*
G01*
X6110000Y-1870000D02*
G75*
G02*
X6080000Y-1870000I-15000J0D01*
G01*
X6080000Y-1870000D02*
G75*
G02*
X6110000Y-1870000I15000J0D01*
G01*
X6235000Y-5290000D02*
G75*
G02*
X6205000Y-5290000I-15000J0D01*
G01*
X6205000Y-5290000D02*
G75*
G02*
X6235000Y-5290000I15000J0D01*
G01*
X6255000Y-4180000D02*
G75*
G02*
X6225000Y-4180000I-15000J0D01*
G01*
X6225000Y-4180000D02*
G75*
G02*
X6255000Y-4180000I15000J0D01*
G01*
X6265000Y-4360000D02*
G75*
G02*
X6235000Y-4360000I-15000J0D01*
G01*
X6235000Y-4360000D02*
G75*
G02*
X6265000Y-4360000I15000J0D01*
G01*
X6485000Y-5610000D02*
G75*
G02*
X6455000Y-5610000I-15000J0D01*
G01*
X6455000Y-5610000D02*
G75*
G02*
X6485000Y-5610000I15000J0D01*
G01*
X6595000Y-5710000D02*
G75*
G02*
X6565000Y-5710000I-15000J0D01*
G01*
X6565000Y-5710000D02*
G75*
G02*
X6595000Y-5710000I15000J0D01*
G01*
X6815000Y-5480000D02*
G75*
G02*
X6785000Y-5480000I-15000J0D01*
G01*
X6785000Y-5480000D02*
G75*
G02*
X6815000Y-5480000I15000J0D01*
G01*
X6925000Y-4095000D02*
G75*
G02*
X6895000Y-4095000I-15000J0D01*
G01*
X6895000Y-4095000D02*
G75*
G02*
X6925000Y-4095000I15000J0D01*
G01*
X6925000Y-4350000D02*
G75*
G02*
X6895000Y-4350000I-15000J0D01*
G01*
X6895000Y-4350000D02*
G75*
G02*
X6925000Y-4350000I15000J0D01*
G01*
X7145000Y-3270000D02*
G75*
G02*
X7115000Y-3270000I-15000J0D01*
G01*
X7115000Y-3270000D02*
G75*
G02*
X7145000Y-3270000I15000J0D01*
G01*
X7185000Y-4095000D02*
G75*
G02*
X7155000Y-4095000I-15000J0D01*
G01*
X7155000Y-4095000D02*
G75*
G02*
X7185000Y-4095000I15000J0D01*
G01*
X7185000Y-4350000D02*
G75*
G02*
X7155000Y-4350000I-15000J0D01*
G01*
X7155000Y-4350000D02*
G75*
G02*
X7185000Y-4350000I15000J0D01*
G01*
X7295000Y-5140000D02*
G75*
G02*
X7265000Y-5140000I-15000J0D01*
G01*
X7265000Y-5140000D02*
G75*
G02*
X7295000Y-5140000I15000J0D01*
G01*
X7295000Y-5340000D02*
G75*
G02*
X7265000Y-5340000I-15000J0D01*
G01*
X7265000Y-5340000D02*
G75*
G02*
X7295000Y-5340000I15000J0D01*
G01*
X7295000Y-5540000D02*
G75*
G02*
X7265000Y-5540000I-15000J0D01*
G01*
X7265000Y-5540000D02*
G75*
G02*
X7295000Y-5540000I15000J0D01*
G01*
X7295000Y-5750000D02*
G75*
G02*
X7265000Y-5750000I-15000J0D01*
G01*
X7265000Y-5750000D02*
G75*
G02*
X7295000Y-5750000I15000J0D01*
G01*
X7295000Y-5960000D02*
G75*
G02*
X7265000Y-5960000I-15000J0D01*
G01*
X7265000Y-5960000D02*
G75*
G02*
X7295000Y-5960000I15000J0D01*
G01*
X7550000Y-3155000D02*
G75*
G02*
X7520000Y-3155000I-15000J0D01*
G01*
X7520000Y-3155000D02*
G75*
G02*
X7550000Y-3155000I15000J0D01*
G01*
X7605000Y-3740000D02*
G75*
G02*
X7575000Y-3740000I-15000J0D01*
G01*
X7575000Y-3740000D02*
G75*
G02*
X7605000Y-3740000I15000J0D01*
G01*
X7695000Y-3960000D02*
G75*
G02*
X7665000Y-3960000I-15000J0D01*
G01*
X7665000Y-3960000D02*
G75*
G02*
X7695000Y-3960000I15000J0D01*
G01*
X7795000Y-4570000D02*
G75*
G02*
X7765000Y-4570000I-15000J0D01*
G01*
X7765000Y-4570000D02*
G75*
G02*
X7795000Y-4570000I15000J0D01*
G01*
X7835000Y-6500000D02*
G75*
G02*
X7805000Y-6500000I-15000J0D01*
G01*
X7805000Y-6500000D02*
G75*
G02*
X7835000Y-6500000I15000J0D01*
G01*
X7945000Y-4520000D02*
G75*
G02*
X7915000Y-4520000I-15000J0D01*
G01*
X7915000Y-4520000D02*
G75*
G02*
X7945000Y-4520000I15000J0D01*
G01*
X8120000Y-4475000D02*
G75*
G02*
X8090000Y-4475000I-15000J0D01*
G01*
X8090000Y-4475000D02*
G75*
G02*
X8120000Y-4475000I15000J0D01*
G01*
X8165000Y-4190000D02*
G75*
G02*
X8135000Y-4190000I-15000J0D01*
G01*
X8135000Y-4190000D02*
G75*
G02*
X8165000Y-4190000I15000J0D01*
G01*
X8330000Y-4415000D02*
G75*
G02*
X8300000Y-4415000I-15000J0D01*
G01*
X8300000Y-4415000D02*
G75*
G02*
X8330000Y-4415000I15000J0D01*
G01*
X8525000Y-5770000D02*
G75*
G02*
X8495000Y-5770000I-15000J0D01*
G01*
X8495000Y-5770000D02*
G75*
G02*
X8525000Y-5770000I15000J0D01*
G01*
X8525000Y-6090000D02*
G75*
G02*
X8495000Y-6090000I-15000J0D01*
G01*
X8495000Y-6090000D02*
G75*
G02*
X8525000Y-6090000I15000J0D01*
G01*
X4820000Y-2873000D02*
X4820000Y-2913000D01*
X4800000Y-2893000D02*
X4840000Y-2893000D01*
X4835000Y-2270000D02*
X4835000Y-2310000D01*
X4815000Y-2290000D02*
X4855000Y-2290000D01*
X4920000Y-3860000D02*
X4920000Y-3900000D01*
X4900000Y-3880000D02*
X4940000Y-3880000D01*
X4940000Y-4140000D02*
X4940000Y-4180000D01*
X4920000Y-4160000D02*
X4960000Y-4160000D01*
X4950000Y-6910000D02*
X4950000Y-6950000D01*
X4930000Y-6930000D02*
X4970000Y-6930000D01*
X4955931Y-3074069D02*
X4955931Y-3114069D01*
X4935931Y-3094069D02*
X4975931Y-3094069D01*
X4975000Y-3255000D02*
X4975000Y-3295000D01*
X4955000Y-3275000D02*
X4995000Y-3275000D01*
X4975000Y-3480000D02*
X4975000Y-3520000D01*
X4955000Y-3500000D02*
X4995000Y-3500000D01*
X4987635Y-6238244D02*
X4987635Y-6278244D01*
X4967635Y-6258244D02*
X5007635Y-6258244D01*
X5025000Y-6805000D02*
X5025000Y-6845000D01*
X5005000Y-6825000D02*
X5045000Y-6825000D01*
X5060000Y-2645000D02*
X5060000Y-2685000D01*
X5040000Y-2665000D02*
X5080000Y-2665000D01*
X5075000Y-6155000D02*
X5075000Y-6195000D01*
X5055000Y-6175000D02*
X5095000Y-6175000D01*
X5102689Y-2892710D02*
X5102689Y-2932710D01*
X5082689Y-2912710D02*
X5122689Y-2912710D01*
X5150000Y-6400000D02*
X5150000Y-6440000D01*
X5130000Y-6420000D02*
X5170000Y-6420000D01*
X5215000Y-6485000D02*
X5215000Y-6525000D01*
X5195000Y-6505000D02*
X5235000Y-6505000D01*
X5225000Y-2105000D02*
X5225000Y-2145000D01*
X5205000Y-2125000D02*
X5245000Y-2125000D01*
X5375000Y-6115000D02*
X5375000Y-6155000D01*
X5355000Y-6135000D02*
X5395000Y-6135000D01*
X5460000Y-3460000D02*
X5460000Y-3500000D01*
X5440000Y-3480000D02*
X5480000Y-3480000D01*
X5520000Y-3822500D02*
X5520000Y-3862500D01*
X5500000Y-3842500D02*
X5540000Y-3842500D01*
X5575000Y-6305000D02*
X5575000Y-6345000D01*
X5555000Y-6325000D02*
X5595000Y-6325000D01*
X5578033Y-6858033D02*
X5578033Y-6898033D01*
X5558033Y-6878033D02*
X5598033Y-6878033D01*
X5809000Y-2814000D02*
X5809000Y-2854000D01*
X5789000Y-2834000D02*
X5829000Y-2834000D01*
X6220000Y-5590000D02*
X6220000Y-5630000D01*
X6200000Y-5610000D02*
X6240000Y-5610000D01*
X6300000Y-2505000D02*
X6300000Y-2545000D01*
X6280000Y-2525000D02*
X6320000Y-2525000D01*
X6400000Y-2805000D02*
X6400000Y-2845000D01*
X6380000Y-2825000D02*
X6420000Y-2825000D01*
X6663149Y-2040000D02*
X6663149Y-2080000D01*
X6643149Y-2060000D02*
X6683149Y-2060000D01*
X6750000Y-2805000D02*
X6750000Y-2845000D01*
X6730000Y-2825000D02*
X6770000Y-2825000D01*
X6775000Y-3340000D02*
X6775000Y-3380000D01*
X6755000Y-3360000D02*
X6795000Y-3360000D01*
X6804331Y-4810476D02*
X6804331Y-4850476D01*
X6784331Y-4830476D02*
X6824331Y-4830476D01*
X6840000Y-2971416D02*
X6840000Y-3011416D01*
X6820000Y-2991416D02*
X6860000Y-2991416D01*
X6850000Y-2480000D02*
X6850000Y-2520000D01*
X6830000Y-2500000D02*
X6870000Y-2500000D01*
X6949999Y-1930000D02*
X6949999Y-1970000D01*
X6929999Y-1950000D02*
X6969999Y-1950000D01*
X7006569Y-2786569D02*
X7006569Y-2826569D01*
X6986569Y-2806569D02*
X7026569Y-2806569D01*
X7037071Y-1850000D02*
X7037071Y-1890000D01*
X7017071Y-1870000D02*
X7057071Y-1870000D01*
X7075000Y-2645000D02*
X7075000Y-2685000D01*
X7055000Y-2665000D02*
X7095000Y-2665000D01*
X7090000Y-2100000D02*
X7090000Y-2140000D01*
X7070000Y-2120000D02*
X7110000Y-2120000D01*
X7190000Y-2890000D02*
X7190000Y-2930000D01*
X7170000Y-2910000D02*
X7210000Y-2910000D01*
X7270000Y-2150000D02*
X7270000Y-2190000D01*
X7250000Y-2170000D02*
X7290000Y-2170000D01*
X7314000Y-3622500D02*
X7314000Y-3662500D01*
X7294000Y-3642500D02*
X7334000Y-3642500D01*
X7400000Y-1855000D02*
X7400000Y-1895000D01*
X7380000Y-1875000D02*
X7420000Y-1875000D01*
X7400000Y-3405000D02*
X7400000Y-3445000D01*
X7380000Y-3425000D02*
X7420000Y-3425000D01*
X7490000Y-3410001D02*
X7490000Y-3450001D01*
X7470000Y-3430001D02*
X7510000Y-3430001D01*
X7540000Y-2175000D02*
X7540000Y-2215000D01*
X7520000Y-2195000D02*
X7560000Y-2195000D01*
X7550000Y-4980000D02*
X7550000Y-5020000D01*
X7530000Y-5000000D02*
X7570000Y-5000000D01*
X7600000Y-2712300D02*
X7600000Y-2752300D01*
X7580000Y-2732300D02*
X7620000Y-2732300D01*
X7670000Y-4930000D02*
X7670000Y-4970000D01*
X7650000Y-4950000D02*
X7690000Y-4950000D01*
X7690000Y-2070000D02*
X7690000Y-2110000D01*
X7670000Y-2090000D02*
X7710000Y-2090000D01*
X7837500Y-2142500D02*
X7837500Y-2182500D01*
X7817500Y-2162500D02*
X7857500Y-2162500D01*
X8570000Y-4760000D02*
X8570000Y-4800000D01*
X8550000Y-4780000D02*
X8590000Y-4780000D01*
X8589453Y-5459877D02*
X8589453Y-5499877D01*
X8569453Y-5479877D02*
X8609453Y-5479877D01*
X8596967Y-5005000D02*
X8596967Y-5045000D01*
X8576967Y-5025000D02*
X8616967Y-5025000D01*
X8600000Y-5830000D02*
X8600000Y-5870000D01*
X8580000Y-5850000D02*
X8620000Y-5850000D01*
X8600000Y-6120000D02*
X8600000Y-6160000D01*
X8580000Y-6140000D02*
X8620000Y-6140000D01*
X8600000Y-6548848D02*
X8600000Y-6588848D01*
X8580000Y-6568848D02*
X8620000Y-6568848D01*
X8690000Y-4650000D02*
X8690000Y-4690000D01*
X8670000Y-4670000D02*
X8710000Y-4670000D01*
X8800000Y-2100000D02*
X8800000Y-2140000D01*
X8780000Y-2120000D02*
X8820000Y-2120000D01*
X8925000Y-4380002D02*
X8925000Y-4420002D01*
X8905000Y-4400002D02*
X8945000Y-4400002D01*
X9050000Y-6806000D02*
X9050000Y-6846000D01*
X9030000Y-6826000D02*
X9070000Y-6826000D01*
X9070000Y-2555000D02*
X9070000Y-2595000D01*
X9050000Y-2575000D02*
X9090000Y-2575000D01*
X9075000Y-4155000D02*
X9075000Y-4195000D01*
X9055000Y-4175000D02*
X9095000Y-4175000D01*
X9090000Y-5350000D02*
X9090000Y-5390000D01*
X9070000Y-5370000D02*
X9110000Y-5370000D01*
X9100000Y-2280000D02*
X9100000Y-2320000D01*
X9080000Y-2300000D02*
X9120000Y-2300000D01*
X9100000Y-4505000D02*
X9100000Y-4545000D01*
X9080000Y-4525000D02*
X9120000Y-4525000D01*
X9100000Y-5175000D02*
X9100000Y-5215000D01*
X9080000Y-5195000D02*
X9120000Y-5195000D01*
X9100000Y-5780000D02*
X9100000Y-5820000D01*
X9080000Y-5800000D02*
X9120000Y-5800000D01*
X9100000Y-6480000D02*
X9100000Y-6520000D01*
X9080000Y-6500000D02*
X9120000Y-6500000D01*
X9120000Y-2370000D02*
X9120000Y-2410000D01*
X9100000Y-2390000D02*
X9140000Y-2390000D01*
X9125000Y-4930000D02*
X9125000Y-4970000D01*
X9105000Y-4950000D02*
X9145000Y-4950000D01*
X9125000Y-5980000D02*
X9125000Y-6020000D01*
X9105000Y-6000000D02*
X9145000Y-6000000D01*
X9162366Y-4388244D02*
X9162366Y-4428244D01*
X9142366Y-4408244D02*
X9182366Y-4408244D01*
X9250000Y-1855000D02*
X9250000Y-1895000D01*
X9230000Y-1875000D02*
X9270000Y-1875000D01*
X9250000Y-6905000D02*
X9250000Y-6945000D01*
X9230000Y-6925000D02*
X9270000Y-6925000D01*
X9350000Y-4130000D02*
X9350000Y-4170000D01*
X9330000Y-4150000D02*
X9370000Y-4150000D01*
X9350000Y-5640000D02*
X9350000Y-5680000D01*
X9330000Y-5660000D02*
X9370000Y-5660000D01*
X9350000Y-6141000D02*
X9350000Y-6181000D01*
X9330000Y-6161000D02*
X9370000Y-6161000D01*
X9360000Y-2740000D02*
X9360000Y-2780000D01*
X9340000Y-2760000D02*
X9380000Y-2760000D01*
X9360000Y-3880000D02*
X9360000Y-3920000D01*
X9340000Y-3900000D02*
X9380000Y-3900000D01*
X9370000Y-3490000D02*
X9370000Y-3530000D01*
X9350000Y-3510000D02*
X9390000Y-3510000D01*
X9425000Y-6395000D02*
X9425000Y-6435000D01*
X9405000Y-6415000D02*
X9445000Y-6415000D01*
X9430000Y-5379000D02*
X9430000Y-5419000D01*
X9410000Y-5399000D02*
X9450000Y-5399000D01*
X9480000Y-4630000D02*
X9480000Y-4670000D01*
X9460000Y-4650000D02*
X9500000Y-4650000D01*
X4689142Y-2369142D02*
X4689142Y-2340858D01*
X4660858Y-2340858D01*
X4660858Y-2369142D01*
X4689142Y-2369142D01*
X4694142Y-2894142D02*
X4694142Y-2865858D01*
X4665858Y-2865858D01*
X4665858Y-2894142D01*
X4694142Y-2894142D01*
X4694142Y-3394142D02*
X4694142Y-3365858D01*
X4665858Y-3365858D01*
X4665858Y-3394142D01*
X4694142Y-3394142D01*
X4694142Y-4164142D02*
X4694142Y-4135858D01*
X4665858Y-4135858D01*
X4665858Y-4164142D01*
X4694142Y-4164142D01*
X4694142Y-4914142D02*
X4694142Y-4885858D01*
X4665858Y-4885858D01*
X4665858Y-4914142D01*
X4694142Y-4914142D01*
X4694142Y-5684142D02*
X4694142Y-5655858D01*
X4665858Y-5655858D01*
X4665858Y-5684142D01*
X4694142Y-5684142D01*
X4694142Y-6444142D02*
X4694142Y-6415858D01*
X4665858Y-6415858D01*
X4665858Y-6444142D01*
X4694142Y-6444142D01*
X4859142Y-5434142D02*
X4859142Y-5405858D01*
X4830858Y-5405858D01*
X4830858Y-5434142D01*
X4859142Y-5434142D01*
X4879142Y-5934142D02*
X4879142Y-5905858D01*
X4850858Y-5905858D01*
X4850858Y-5934142D01*
X4879142Y-5934142D01*
X4879142Y-6194142D02*
X4879142Y-6165858D01*
X4850858Y-6165858D01*
X4850858Y-6194142D01*
X4879142Y-6194142D01*
X4984142Y-3404142D02*
X4984142Y-3375858D01*
X4955858Y-3375858D01*
X4955858Y-3404142D01*
X4984142Y-3404142D01*
X5044142Y-4454142D02*
X5044142Y-4425858D01*
X5015858Y-4425858D01*
X5015858Y-4454142D01*
X5044142Y-4454142D01*
X5064142Y-3664142D02*
X5064142Y-3635858D01*
X5035858Y-3635858D01*
X5035858Y-3664142D01*
X5064142Y-3664142D01*
X5064142Y-4164142D02*
X5064142Y-4135858D01*
X5035858Y-4135858D01*
X5035858Y-4164142D01*
X5064142Y-4164142D01*
X5069142Y-3899142D02*
X5069142Y-3870858D01*
X5040858Y-3870858D01*
X5040858Y-3899142D01*
X5069142Y-3899142D01*
X5244142Y-3144142D02*
X5244142Y-3115858D01*
X5215858Y-3115858D01*
X5215858Y-3144142D01*
X5244142Y-3144142D01*
X5694142Y-6524142D02*
X5694142Y-6495858D01*
X5665858Y-6495858D01*
X5665858Y-6524142D01*
X5694142Y-6524142D01*
X5694142Y-6814142D02*
X5694142Y-6785858D01*
X5665858Y-6785858D01*
X5665858Y-6814142D01*
X5694142Y-6814142D01*
X5754142Y-2624142D02*
X5754142Y-2595858D01*
X5725858Y-2595858D01*
X5725858Y-2624142D01*
X5754142Y-2624142D01*
X5754142Y-3144142D02*
X5754142Y-3115858D01*
X5725858Y-3115858D01*
X5725858Y-3144142D01*
X5754142Y-3144142D01*
X5834142Y-5974142D02*
X5834142Y-5945858D01*
X5805858Y-5945858D01*
X5805858Y-5974142D01*
X5834142Y-5974142D01*
X6114142Y-6924142D02*
X6114142Y-6895858D01*
X6085858Y-6895858D01*
X6085858Y-6924142D01*
X6114142Y-6924142D01*
X6179142Y-2334142D02*
X6179142Y-2305858D01*
X6150858Y-2305858D01*
X6150858Y-2334142D01*
X6179142Y-2334142D01*
X6189142Y-2614142D02*
X6189142Y-2585858D01*
X6160858Y-2585858D01*
X6160858Y-2614142D01*
X6189142Y-2614142D01*
X6704142Y-6344142D02*
X6704142Y-6315858D01*
X6675858Y-6315858D01*
X6675858Y-6344142D01*
X6704142Y-6344142D01*
X6704142Y-6574142D02*
X6704142Y-6545858D01*
X6675858Y-6545858D01*
X6675858Y-6574142D01*
X6704142Y-6574142D01*
X6704142Y-6924142D02*
X6704142Y-6895858D01*
X6675858Y-6895858D01*
X6675858Y-6924142D01*
X6704142Y-6924142D01*
X6854142Y-1954142D02*
X6854142Y-1925858D01*
X6825858Y-1925858D01*
X6825858Y-1954142D01*
X6854142Y-1954142D01*
X7044142Y-6094142D02*
X7044142Y-6065858D01*
X7015858Y-6065858D01*
X7015858Y-6094142D01*
X7044142Y-6094142D01*
X7424142Y-6344142D02*
X7424142Y-6315858D01*
X7395858Y-6315858D01*
X7395858Y-6344142D01*
X7424142Y-6344142D01*
X7424142Y-6574142D02*
X7424142Y-6545858D01*
X7395858Y-6545858D01*
X7395858Y-6574142D01*
X7424142Y-6574142D01*
X7424142Y-6924142D02*
X7424142Y-6895858D01*
X7395858Y-6895858D01*
X7395858Y-6924142D01*
X7424142Y-6924142D01*
X7529142Y-2014142D02*
X7529142Y-1985858D01*
X7500858Y-1985858D01*
X7500858Y-2014142D01*
X7529142Y-2014142D01*
X7604142Y-4704142D02*
X7604142Y-4675858D01*
X7575858Y-4675858D01*
X7575858Y-4704142D01*
X7604142Y-4704142D01*
X7814142Y-5304142D02*
X7814142Y-5275858D01*
X7785858Y-5275858D01*
X7785858Y-5304142D01*
X7814142Y-5304142D01*
X7834142Y-2714142D02*
X7834142Y-2685858D01*
X7805858Y-2685858D01*
X7805858Y-2714142D01*
X7834142Y-2714142D01*
X7884142Y-5534142D02*
X7884142Y-5505858D01*
X7855858Y-5505858D01*
X7855858Y-5534142D01*
X7884142Y-5534142D01*
X7934142Y-3984142D02*
X7934142Y-3955858D01*
X7905858Y-3955858D01*
X7905858Y-3984142D01*
X7934142Y-3984142D01*
X7944142Y-2079142D02*
X7944142Y-2050858D01*
X7915858Y-2050858D01*
X7915858Y-2079142D01*
X7944142Y-2079142D01*
X8054142Y-2804142D02*
X8054142Y-2775858D01*
X8025858Y-2775858D01*
X8025858Y-2804142D01*
X8054142Y-2804142D01*
X8054142Y-3074142D02*
X8054142Y-3045858D01*
X8025858Y-3045858D01*
X8025858Y-3074142D01*
X8054142Y-3074142D01*
X8204142Y-5224142D02*
X8204142Y-5195858D01*
X8175858Y-5195858D01*
X8175858Y-5224142D01*
X8204142Y-5224142D01*
X8224142Y-2004142D02*
X8224142Y-1975858D01*
X8195858Y-1975858D01*
X8195858Y-2004142D01*
X8224142Y-2004142D01*
X8374142Y-4034142D02*
X8374142Y-4005858D01*
X8345858Y-4005858D01*
X8345858Y-4034142D01*
X8374142Y-4034142D01*
X8524142Y-5124142D02*
X8524142Y-5095858D01*
X8495858Y-5095858D01*
X8495858Y-5124142D01*
X8524142Y-5124142D01*
X8524142Y-5584142D02*
X8524142Y-5555858D01*
X8495858Y-5555858D01*
X8495858Y-5584142D01*
X8524142Y-5584142D01*
X8524142Y-5944142D02*
X8524142Y-5915858D01*
X8495858Y-5915858D01*
X8495858Y-5944142D01*
X8524142Y-5944142D01*
X8524142Y-6314142D02*
X8524142Y-6285858D01*
X8495858Y-6285858D01*
X8495858Y-6314142D01*
X8524142Y-6314142D01*
X8564142Y-6699142D02*
X8564142Y-6670858D01*
X8535858Y-6670858D01*
X8535858Y-6699142D01*
X8564142Y-6699142D01*
X8814142Y-5459142D02*
X8814142Y-5430858D01*
X8785858Y-5430858D01*
X8785858Y-5459142D01*
X8814142Y-5459142D01*
X9039142Y-5924142D02*
X9039142Y-5895858D01*
X9010858Y-5895858D01*
X9010858Y-5924142D01*
X9039142Y-5924142D01*
X9059142Y-5094142D02*
X9059142Y-5065858D01*
X9030858Y-5065858D01*
X9030858Y-5094142D01*
X9059142Y-5094142D01*
X9064142Y-6184142D02*
X9064142Y-6155858D01*
X9035858Y-6155858D01*
X9035858Y-6184142D01*
X9064142Y-6184142D01*
X9069142Y-4039142D02*
X9069142Y-4010858D01*
X9040858Y-4010858D01*
X9040858Y-4039142D01*
X9069142Y-4039142D01*
X9069142Y-4724142D02*
X9069142Y-4695858D01*
X9040858Y-4695858D01*
X9040858Y-4724142D01*
X9069142Y-4724142D01*
X9074142Y-3014142D02*
X9074142Y-2985858D01*
X9045858Y-2985858D01*
X9045858Y-3014142D01*
X9074142Y-3014142D01*
X9074142Y-3674142D02*
X9074142Y-3645858D01*
X9045858Y-3645858D01*
X9045858Y-3674142D01*
X9074142Y-3674142D01*
X9314142Y-2134142D02*
X9314142Y-2105858D01*
X9285858Y-2105858D01*
X9285858Y-2134142D01*
X9314142Y-2134142D01*
X9359142Y-6689142D02*
X9359142Y-6660858D01*
X9330858Y-6660858D01*
X9330858Y-6689142D01*
X9359142Y-6689142D01*
X5600000Y-4271000D02*
X5650000Y-4221000D01*
X5600000Y-4171000D01*
X5550000Y-4221000D01*
X5600000Y-4271000D01*
X5600000Y-4525000D02*
X5650000Y-4475000D01*
X5600000Y-4425000D01*
X5550000Y-4475000D01*
X5600000Y-4525000D01*
X5600000Y-4779000D02*
X5650000Y-4729000D01*
X5600000Y-4679000D01*
X5550000Y-4729000D01*
X5600000Y-4779000D01*
X5600000Y-5033000D02*
X5650000Y-4983000D01*
X5600000Y-4933000D01*
X5550000Y-4983000D01*
X5600000Y-5033000D01*
X5600000Y-5287000D02*
X5650000Y-5237000D01*
X5600000Y-5187000D01*
X5550000Y-5237000D01*
X5600000Y-5287000D01*
X5600000Y-5541000D02*
X5650000Y-5491000D01*
X5600000Y-5441000D01*
X5550000Y-5491000D01*
X5600000Y-5541000D01*
X5713000Y-2030000D02*
X5763000Y-1980000D01*
X5713000Y-1930000D01*
X5663000Y-1980000D01*
X5713000Y-2030000D01*
X5854000Y-4271000D02*
X5904000Y-4221000D01*
X5854000Y-4171000D01*
X5804000Y-4221000D01*
X5854000Y-4271000D01*
X5854000Y-4525000D02*
X5904000Y-4475000D01*
X5854000Y-4425000D01*
X5804000Y-4475000D01*
X5854000Y-4525000D01*
X5854000Y-4779000D02*
X5904000Y-4729000D01*
X5854000Y-4679000D01*
X5804000Y-4729000D01*
X5854000Y-4779000D01*
X5854000Y-5033000D02*
X5904000Y-4983000D01*
X5854000Y-4933000D01*
X5804000Y-4983000D01*
X5854000Y-5033000D01*
X5854000Y-5287000D02*
X5904000Y-5237000D01*
X5854000Y-5187000D01*
X5804000Y-5237000D01*
X5854000Y-5287000D01*
X5854000Y-5541000D02*
X5904000Y-5491000D01*
X5854000Y-5441000D01*
X5804000Y-5491000D01*
X5854000Y-5541000D01*
X5967000Y-2030000D02*
X6017000Y-1980000D01*
X5967000Y-1930000D01*
X5917000Y-1980000D01*
X5967000Y-2030000D01*
X6221000Y-2030000D02*
X6271000Y-1980000D01*
X6221000Y-1930000D01*
X6171000Y-1980000D01*
X6221000Y-2030000D01*
X6475000Y-2030000D02*
X6525000Y-1980000D01*
X6475000Y-1930000D01*
X6425000Y-1980000D01*
X6475000Y-2030000D01*
X8225000Y-2563000D02*
X8275000Y-2513000D01*
X8225000Y-2463000D01*
X8175000Y-2513000D01*
X8225000Y-2563000D01*
X8225000Y-2817000D02*
X8275000Y-2767000D01*
X8225000Y-2717000D01*
X8175000Y-2767000D01*
X8225000Y-2817000D01*
X8225000Y-3071000D02*
X8275000Y-3021000D01*
X8225000Y-2971000D01*
X8175000Y-3021000D01*
X8225000Y-3071000D01*
X8225000Y-3325000D02*
X8275000Y-3275000D01*
X8225000Y-3225000D01*
X8175000Y-3275000D01*
X8225000Y-3325000D01*
X8225000Y-3579000D02*
X8275000Y-3529000D01*
X8225000Y-3479000D01*
X8175000Y-3529000D01*
X8225000Y-3579000D01*
X8225000Y-3833000D02*
X8275000Y-3783000D01*
X8225000Y-3733000D01*
X8175000Y-3783000D01*
X8225000Y-3833000D01*
X8479000Y-2563000D02*
X8529000Y-2513000D01*
X8479000Y-2463000D01*
X8429000Y-2513000D01*
X8479000Y-2563000D01*
X8479000Y-2817000D02*
X8529000Y-2767000D01*
X8479000Y-2717000D01*
X8429000Y-2767000D01*
X8479000Y-2817000D01*
X8479000Y-3071000D02*
X8529000Y-3021000D01*
X8479000Y-2971000D01*
X8429000Y-3021000D01*
X8479000Y-3071000D01*
X8479000Y-3325000D02*
X8529000Y-3275000D01*
X8479000Y-3225000D01*
X8429000Y-3275000D01*
X8479000Y-3325000D01*
X8479000Y-3579000D02*
X8529000Y-3529000D01*
X8479000Y-3479000D01*
X8429000Y-3529000D01*
X8479000Y-3579000D01*
X8479000Y-3833000D02*
X8529000Y-3783000D01*
X8479000Y-3733000D01*
X8429000Y-3783000D01*
X8479000Y-3833000D01*
D11*
X4808277Y-7313984D02*
X4808277Y-7113984D01*
X4808277Y-7113984D02*
X4855896Y-7113984D01*
X4855896Y-7113984D02*
X4884467Y-7123508D01*
X4884467Y-7123508D02*
X4903515Y-7142555D01*
X4903515Y-7142555D02*
X4913039Y-7161603D01*
X4913039Y-7161603D02*
X4922563Y-7199698D01*
X4922563Y-7199698D02*
X4922563Y-7228269D01*
X4922563Y-7228269D02*
X4913039Y-7266365D01*
X4913039Y-7266365D02*
X4903515Y-7285412D01*
X4903515Y-7285412D02*
X4884467Y-7304460D01*
X4884467Y-7304460D02*
X4855896Y-7313984D01*
X4855896Y-7313984D02*
X4808277Y-7313984D01*
X5008277Y-7313984D02*
X5008277Y-7180650D01*
X5008277Y-7218746D02*
X5017801Y-7199698D01*
X5017801Y-7199698D02*
X5027324Y-7190174D01*
X5027324Y-7190174D02*
X5046372Y-7180650D01*
X5046372Y-7180650D02*
X5065420Y-7180650D01*
X5132086Y-7313984D02*
X5132086Y-7180650D01*
X5132086Y-7113984D02*
X5122563Y-7123508D01*
X5122563Y-7123508D02*
X5132086Y-7133031D01*
X5132086Y-7133031D02*
X5141610Y-7123508D01*
X5141610Y-7123508D02*
X5132086Y-7113984D01*
X5132086Y-7113984D02*
X5132086Y-7133031D01*
X5255896Y-7313984D02*
X5236848Y-7304460D01*
X5236848Y-7304460D02*
X5227324Y-7285412D01*
X5227324Y-7285412D02*
X5227324Y-7113984D01*
X5360658Y-7313984D02*
X5341610Y-7304460D01*
X5341610Y-7304460D02*
X5332086Y-7285412D01*
X5332086Y-7285412D02*
X5332086Y-7113984D01*
X5589229Y-7313984D02*
X5589229Y-7113984D01*
X5589229Y-7113984D02*
X5655896Y-7256841D01*
X5655896Y-7256841D02*
X5722562Y-7113984D01*
X5722562Y-7113984D02*
X5722562Y-7313984D01*
X5903515Y-7313984D02*
X5903515Y-7209222D01*
X5903515Y-7209222D02*
X5893991Y-7190174D01*
X5893991Y-7190174D02*
X5874943Y-7180650D01*
X5874943Y-7180650D02*
X5836848Y-7180650D01*
X5836848Y-7180650D02*
X5817801Y-7190174D01*
X5903515Y-7304460D02*
X5884467Y-7313984D01*
X5884467Y-7313984D02*
X5836848Y-7313984D01*
X5836848Y-7313984D02*
X5817801Y-7304460D01*
X5817801Y-7304460D02*
X5808277Y-7285412D01*
X5808277Y-7285412D02*
X5808277Y-7266365D01*
X5808277Y-7266365D02*
X5817801Y-7247317D01*
X5817801Y-7247317D02*
X5836848Y-7237793D01*
X5836848Y-7237793D02*
X5884467Y-7237793D01*
X5884467Y-7237793D02*
X5903515Y-7228269D01*
X5998753Y-7180650D02*
X5998753Y-7380650D01*
X5998753Y-7190174D02*
X6017801Y-7180650D01*
X6017801Y-7180650D02*
X6055896Y-7180650D01*
X6055896Y-7180650D02*
X6074943Y-7190174D01*
X6074943Y-7190174D02*
X6084467Y-7199698D01*
X6084467Y-7199698D02*
X6093991Y-7218746D01*
X6093991Y-7218746D02*
X6093991Y-7275888D01*
X6093991Y-7275888D02*
X6084467Y-7294936D01*
X6084467Y-7294936D02*
X6074943Y-7304460D01*
X6074943Y-7304460D02*
X6055896Y-7313984D01*
X6055896Y-7313984D02*
X6017801Y-7313984D01*
X6017801Y-7313984D02*
X5998753Y-7304460D01*
X6179705Y-7294936D02*
X6189229Y-7304460D01*
X6189229Y-7304460D02*
X6179705Y-7313984D01*
X6179705Y-7313984D02*
X6170182Y-7304460D01*
X6170182Y-7304460D02*
X6179705Y-7294936D01*
X6179705Y-7294936D02*
X6179705Y-7313984D01*
X6179705Y-7190174D02*
X6189229Y-7199698D01*
X6189229Y-7199698D02*
X6179705Y-7209222D01*
X6179705Y-7209222D02*
X6170182Y-7199698D01*
X6170182Y-7199698D02*
X6179705Y-7190174D01*
X6179705Y-7190174D02*
X6179705Y-7209222D01*
D12*
X4517500Y-7627500D02*
X4547500Y-7657500D01*
X4547500Y-7627500D02*
X4517500Y-7657500D01*
D11*
X4846372Y-7533984D02*
X4865420Y-7533984D01*
X4865420Y-7533984D02*
X4884467Y-7543508D01*
X4884467Y-7543508D02*
X4893991Y-7553031D01*
X4893991Y-7553031D02*
X4903515Y-7572079D01*
X4903515Y-7572079D02*
X4913039Y-7610174D01*
X4913039Y-7610174D02*
X4913039Y-7657793D01*
X4913039Y-7657793D02*
X4903515Y-7695888D01*
X4903515Y-7695888D02*
X4893991Y-7714936D01*
X4893991Y-7714936D02*
X4884467Y-7724460D01*
X4884467Y-7724460D02*
X4865420Y-7733984D01*
X4865420Y-7733984D02*
X4846372Y-7733984D01*
X4846372Y-7733984D02*
X4827324Y-7724460D01*
X4827324Y-7724460D02*
X4817801Y-7714936D01*
X4817801Y-7714936D02*
X4808277Y-7695888D01*
X4808277Y-7695888D02*
X4798753Y-7657793D01*
X4798753Y-7657793D02*
X4798753Y-7610174D01*
X4798753Y-7610174D02*
X4808277Y-7572079D01*
X4808277Y-7572079D02*
X4817801Y-7553031D01*
X4817801Y-7553031D02*
X4827324Y-7543508D01*
X4827324Y-7543508D02*
X4846372Y-7533984D01*
X4998753Y-7714936D02*
X5008277Y-7724460D01*
X5008277Y-7724460D02*
X4998753Y-7733984D01*
X4998753Y-7733984D02*
X4989229Y-7724460D01*
X4989229Y-7724460D02*
X4998753Y-7714936D01*
X4998753Y-7714936D02*
X4998753Y-7733984D01*
X5074944Y-7533984D02*
X5198753Y-7533984D01*
X5198753Y-7533984D02*
X5132086Y-7610174D01*
X5132086Y-7610174D02*
X5160658Y-7610174D01*
X5160658Y-7610174D02*
X5179705Y-7619698D01*
X5179705Y-7619698D02*
X5189229Y-7629222D01*
X5189229Y-7629222D02*
X5198753Y-7648269D01*
X5198753Y-7648269D02*
X5198753Y-7695888D01*
X5198753Y-7695888D02*
X5189229Y-7714936D01*
X5189229Y-7714936D02*
X5179705Y-7724460D01*
X5179705Y-7724460D02*
X5160658Y-7733984D01*
X5160658Y-7733984D02*
X5103515Y-7733984D01*
X5103515Y-7733984D02*
X5084467Y-7724460D01*
X5084467Y-7724460D02*
X5074944Y-7714936D01*
X5322563Y-7533984D02*
X5341610Y-7533984D01*
X5341610Y-7533984D02*
X5360658Y-7543508D01*
X5360658Y-7543508D02*
X5370182Y-7553031D01*
X5370182Y-7553031D02*
X5379705Y-7572079D01*
X5379705Y-7572079D02*
X5389229Y-7610174D01*
X5389229Y-7610174D02*
X5389229Y-7657793D01*
X5389229Y-7657793D02*
X5379705Y-7695888D01*
X5379705Y-7695888D02*
X5370182Y-7714936D01*
X5370182Y-7714936D02*
X5360658Y-7724460D01*
X5360658Y-7724460D02*
X5341610Y-7733984D01*
X5341610Y-7733984D02*
X5322563Y-7733984D01*
X5322563Y-7733984D02*
X5303515Y-7724460D01*
X5303515Y-7724460D02*
X5293991Y-7714936D01*
X5293991Y-7714936D02*
X5284467Y-7695888D01*
X5284467Y-7695888D02*
X5274944Y-7657793D01*
X5274944Y-7657793D02*
X5274944Y-7610174D01*
X5274944Y-7610174D02*
X5284467Y-7572079D01*
X5284467Y-7572079D02*
X5293991Y-7553031D01*
X5293991Y-7553031D02*
X5303515Y-7543508D01*
X5303515Y-7543508D02*
X5322563Y-7533984D01*
X5513039Y-7533984D02*
X5532086Y-7533984D01*
X5532086Y-7533984D02*
X5551134Y-7543508D01*
X5551134Y-7543508D02*
X5560658Y-7553031D01*
X5560658Y-7553031D02*
X5570182Y-7572079D01*
X5570182Y-7572079D02*
X5579705Y-7610174D01*
X5579705Y-7610174D02*
X5579705Y-7657793D01*
X5579705Y-7657793D02*
X5570182Y-7695888D01*
X5570182Y-7695888D02*
X5560658Y-7714936D01*
X5560658Y-7714936D02*
X5551134Y-7724460D01*
X5551134Y-7724460D02*
X5532086Y-7733984D01*
X5532086Y-7733984D02*
X5513039Y-7733984D01*
X5513039Y-7733984D02*
X5493991Y-7724460D01*
X5493991Y-7724460D02*
X5484467Y-7714936D01*
X5484467Y-7714936D02*
X5474944Y-7695888D01*
X5474944Y-7695888D02*
X5465420Y-7657793D01*
X5465420Y-7657793D02*
X5465420Y-7610174D01*
X5465420Y-7610174D02*
X5474944Y-7572079D01*
X5474944Y-7572079D02*
X5484467Y-7553031D01*
X5484467Y-7553031D02*
X5493991Y-7543508D01*
X5493991Y-7543508D02*
X5513039Y-7533984D01*
X5665420Y-7733984D02*
X5665420Y-7600650D01*
X5665420Y-7619698D02*
X5674943Y-7610174D01*
X5674943Y-7610174D02*
X5693991Y-7600650D01*
X5693991Y-7600650D02*
X5722563Y-7600650D01*
X5722563Y-7600650D02*
X5741610Y-7610174D01*
X5741610Y-7610174D02*
X5751134Y-7629222D01*
X5751134Y-7629222D02*
X5751134Y-7733984D01*
X5751134Y-7629222D02*
X5760658Y-7610174D01*
X5760658Y-7610174D02*
X5779705Y-7600650D01*
X5779705Y-7600650D02*
X5808277Y-7600650D01*
X5808277Y-7600650D02*
X5827324Y-7610174D01*
X5827324Y-7610174D02*
X5836848Y-7629222D01*
X5836848Y-7629222D02*
X5836848Y-7733984D01*
X5932086Y-7733984D02*
X5932086Y-7600650D01*
X5932086Y-7619698D02*
X5941610Y-7610174D01*
X5941610Y-7610174D02*
X5960658Y-7600650D01*
X5960658Y-7600650D02*
X5989229Y-7600650D01*
X5989229Y-7600650D02*
X6008277Y-7610174D01*
X6008277Y-7610174D02*
X6017801Y-7629222D01*
X6017801Y-7629222D02*
X6017801Y-7733984D01*
X6017801Y-7629222D02*
X6027324Y-7610174D01*
X6027324Y-7610174D02*
X6046372Y-7600650D01*
X6046372Y-7600650D02*
X6074943Y-7600650D01*
X6074943Y-7600650D02*
X6093991Y-7610174D01*
X6093991Y-7610174D02*
X6103515Y-7629222D01*
X6103515Y-7629222D02*
X6103515Y-7733984D01*
X6493991Y-7524460D02*
X6322563Y-7781603D01*
X6751134Y-7533984D02*
X6770182Y-7533984D01*
X6770182Y-7533984D02*
X6789229Y-7543508D01*
X6789229Y-7543508D02*
X6798753Y-7553031D01*
X6798753Y-7553031D02*
X6808277Y-7572079D01*
X6808277Y-7572079D02*
X6817801Y-7610174D01*
X6817801Y-7610174D02*
X6817801Y-7657793D01*
X6817801Y-7657793D02*
X6808277Y-7695888D01*
X6808277Y-7695888D02*
X6798753Y-7714936D01*
X6798753Y-7714936D02*
X6789229Y-7724460D01*
X6789229Y-7724460D02*
X6770182Y-7733984D01*
X6770182Y-7733984D02*
X6751134Y-7733984D01*
X6751134Y-7733984D02*
X6732086Y-7724460D01*
X6732086Y-7724460D02*
X6722563Y-7714936D01*
X6722563Y-7714936D02*
X6713039Y-7695888D01*
X6713039Y-7695888D02*
X6703515Y-7657793D01*
X6703515Y-7657793D02*
X6703515Y-7610174D01*
X6703515Y-7610174D02*
X6713039Y-7572079D01*
X6713039Y-7572079D02*
X6722563Y-7553031D01*
X6722563Y-7553031D02*
X6732086Y-7543508D01*
X6732086Y-7543508D02*
X6751134Y-7533984D01*
X6903515Y-7714936D02*
X6913039Y-7724460D01*
X6913039Y-7724460D02*
X6903515Y-7733984D01*
X6903515Y-7733984D02*
X6893991Y-7724460D01*
X6893991Y-7724460D02*
X6903515Y-7714936D01*
X6903515Y-7714936D02*
X6903515Y-7733984D01*
X7036848Y-7533984D02*
X7055896Y-7533984D01*
X7055896Y-7533984D02*
X7074944Y-7543508D01*
X7074944Y-7543508D02*
X7084467Y-7553031D01*
X7084467Y-7553031D02*
X7093991Y-7572079D01*
X7093991Y-7572079D02*
X7103515Y-7610174D01*
X7103515Y-7610174D02*
X7103515Y-7657793D01*
X7103515Y-7657793D02*
X7093991Y-7695888D01*
X7093991Y-7695888D02*
X7084467Y-7714936D01*
X7084467Y-7714936D02*
X7074944Y-7724460D01*
X7074944Y-7724460D02*
X7055896Y-7733984D01*
X7055896Y-7733984D02*
X7036848Y-7733984D01*
X7036848Y-7733984D02*
X7017801Y-7724460D01*
X7017801Y-7724460D02*
X7008277Y-7714936D01*
X7008277Y-7714936D02*
X6998753Y-7695888D01*
X6998753Y-7695888D02*
X6989229Y-7657793D01*
X6989229Y-7657793D02*
X6989229Y-7610174D01*
X6989229Y-7610174D02*
X6998753Y-7572079D01*
X6998753Y-7572079D02*
X7008277Y-7553031D01*
X7008277Y-7553031D02*
X7017801Y-7543508D01*
X7017801Y-7543508D02*
X7036848Y-7533984D01*
X7293991Y-7733984D02*
X7179706Y-7733984D01*
X7236848Y-7733984D02*
X7236848Y-7533984D01*
X7236848Y-7533984D02*
X7217801Y-7562555D01*
X7217801Y-7562555D02*
X7198753Y-7581603D01*
X7198753Y-7581603D02*
X7179706Y-7591127D01*
X7484467Y-7733984D02*
X7370182Y-7733984D01*
X7427325Y-7733984D02*
X7427325Y-7533984D01*
X7427325Y-7533984D02*
X7408277Y-7562555D01*
X7408277Y-7562555D02*
X7389229Y-7581603D01*
X7389229Y-7581603D02*
X7370182Y-7591127D01*
X7598753Y-7619698D02*
X7579706Y-7610174D01*
X7579706Y-7610174D02*
X7570182Y-7600650D01*
X7570182Y-7600650D02*
X7560658Y-7581603D01*
X7560658Y-7581603D02*
X7560658Y-7572079D01*
X7560658Y-7572079D02*
X7570182Y-7553031D01*
X7570182Y-7553031D02*
X7579706Y-7543508D01*
X7579706Y-7543508D02*
X7598753Y-7533984D01*
X7598753Y-7533984D02*
X7636848Y-7533984D01*
X7636848Y-7533984D02*
X7655896Y-7543508D01*
X7655896Y-7543508D02*
X7665420Y-7553031D01*
X7665420Y-7553031D02*
X7674944Y-7572079D01*
X7674944Y-7572079D02*
X7674944Y-7581603D01*
X7674944Y-7581603D02*
X7665420Y-7600650D01*
X7665420Y-7600650D02*
X7655896Y-7610174D01*
X7655896Y-7610174D02*
X7636848Y-7619698D01*
X7636848Y-7619698D02*
X7598753Y-7619698D01*
X7598753Y-7619698D02*
X7579706Y-7629222D01*
X7579706Y-7629222D02*
X7570182Y-7638746D01*
X7570182Y-7638746D02*
X7560658Y-7657793D01*
X7560658Y-7657793D02*
X7560658Y-7695888D01*
X7560658Y-7695888D02*
X7570182Y-7714936D01*
X7570182Y-7714936D02*
X7579706Y-7724460D01*
X7579706Y-7724460D02*
X7598753Y-7733984D01*
X7598753Y-7733984D02*
X7636848Y-7733984D01*
X7636848Y-7733984D02*
X7655896Y-7724460D01*
X7655896Y-7724460D02*
X7665420Y-7714936D01*
X7665420Y-7714936D02*
X7674944Y-7695888D01*
X7674944Y-7695888D02*
X7674944Y-7657793D01*
X7674944Y-7657793D02*
X7665420Y-7638746D01*
X7665420Y-7638746D02*
X7655896Y-7629222D01*
X7655896Y-7629222D02*
X7636848Y-7619698D01*
X7751134Y-7533984D02*
X7751134Y-7572079D01*
X7827325Y-7533984D02*
X7827325Y-7572079D01*
X8122563Y-7810174D02*
X8113039Y-7800650D01*
X8113039Y-7800650D02*
X8093991Y-7772079D01*
X8093991Y-7772079D02*
X8084468Y-7753031D01*
X8084468Y-7753031D02*
X8074944Y-7724460D01*
X8074944Y-7724460D02*
X8065420Y-7676841D01*
X8065420Y-7676841D02*
X8065420Y-7638746D01*
X8065420Y-7638746D02*
X8074944Y-7591127D01*
X8074944Y-7591127D02*
X8084468Y-7562555D01*
X8084468Y-7562555D02*
X8093991Y-7543508D01*
X8093991Y-7543508D02*
X8113039Y-7514936D01*
X8113039Y-7514936D02*
X8122563Y-7505412D01*
X8179706Y-7533984D02*
X8303515Y-7533984D01*
X8303515Y-7533984D02*
X8236848Y-7610174D01*
X8236848Y-7610174D02*
X8265420Y-7610174D01*
X8265420Y-7610174D02*
X8284468Y-7619698D01*
X8284468Y-7619698D02*
X8293991Y-7629222D01*
X8293991Y-7629222D02*
X8303515Y-7648269D01*
X8303515Y-7648269D02*
X8303515Y-7695888D01*
X8303515Y-7695888D02*
X8293991Y-7714936D01*
X8293991Y-7714936D02*
X8284468Y-7724460D01*
X8284468Y-7724460D02*
X8265420Y-7733984D01*
X8265420Y-7733984D02*
X8208277Y-7733984D01*
X8208277Y-7733984D02*
X8189229Y-7724460D01*
X8189229Y-7724460D02*
X8179706Y-7714936D01*
X8370182Y-7533984D02*
X8503515Y-7533984D01*
X8503515Y-7533984D02*
X8417801Y-7733984D01*
X8732087Y-7733984D02*
X8732087Y-7533984D01*
X8817801Y-7733984D02*
X8817801Y-7629222D01*
X8817801Y-7629222D02*
X8808277Y-7610174D01*
X8808277Y-7610174D02*
X8789230Y-7600650D01*
X8789230Y-7600650D02*
X8760658Y-7600650D01*
X8760658Y-7600650D02*
X8741611Y-7610174D01*
X8741611Y-7610174D02*
X8732087Y-7619698D01*
X8941611Y-7733984D02*
X8922563Y-7724460D01*
X8922563Y-7724460D02*
X8913039Y-7714936D01*
X8913039Y-7714936D02*
X8903515Y-7695888D01*
X8903515Y-7695888D02*
X8903515Y-7638746D01*
X8903515Y-7638746D02*
X8913039Y-7619698D01*
X8913039Y-7619698D02*
X8922563Y-7610174D01*
X8922563Y-7610174D02*
X8941611Y-7600650D01*
X8941611Y-7600650D02*
X8970182Y-7600650D01*
X8970182Y-7600650D02*
X8989230Y-7610174D01*
X8989230Y-7610174D02*
X8998753Y-7619698D01*
X8998753Y-7619698D02*
X9008277Y-7638746D01*
X9008277Y-7638746D02*
X9008277Y-7695888D01*
X9008277Y-7695888D02*
X8998753Y-7714936D01*
X8998753Y-7714936D02*
X8989230Y-7724460D01*
X8989230Y-7724460D02*
X8970182Y-7733984D01*
X8970182Y-7733984D02*
X8941611Y-7733984D01*
X9122563Y-7733984D02*
X9103515Y-7724460D01*
X9103515Y-7724460D02*
X9093992Y-7705412D01*
X9093992Y-7705412D02*
X9093992Y-7533984D01*
X9274944Y-7724460D02*
X9255896Y-7733984D01*
X9255896Y-7733984D02*
X9217801Y-7733984D01*
X9217801Y-7733984D02*
X9198753Y-7724460D01*
X9198753Y-7724460D02*
X9189230Y-7705412D01*
X9189230Y-7705412D02*
X9189230Y-7629222D01*
X9189230Y-7629222D02*
X9198753Y-7610174D01*
X9198753Y-7610174D02*
X9217801Y-7600650D01*
X9217801Y-7600650D02*
X9255896Y-7600650D01*
X9255896Y-7600650D02*
X9274944Y-7610174D01*
X9274944Y-7610174D02*
X9284468Y-7629222D01*
X9284468Y-7629222D02*
X9284468Y-7648269D01*
X9284468Y-7648269D02*
X9189230Y-7667317D01*
X9360658Y-7724460D02*
X9379706Y-7733984D01*
X9379706Y-7733984D02*
X9417801Y-7733984D01*
X9417801Y-7733984D02*
X9436849Y-7724460D01*
X9436849Y-7724460D02*
X9446373Y-7705412D01*
X9446373Y-7705412D02*
X9446373Y-7695888D01*
X9446373Y-7695888D02*
X9436849Y-7676841D01*
X9436849Y-7676841D02*
X9417801Y-7667317D01*
X9417801Y-7667317D02*
X9389230Y-7667317D01*
X9389230Y-7667317D02*
X9370182Y-7657793D01*
X9370182Y-7657793D02*
X9360658Y-7638746D01*
X9360658Y-7638746D02*
X9360658Y-7629222D01*
X9360658Y-7629222D02*
X9370182Y-7610174D01*
X9370182Y-7610174D02*
X9389230Y-7600650D01*
X9389230Y-7600650D02*
X9417801Y-7600650D01*
X9417801Y-7600650D02*
X9436849Y-7610174D01*
X9513039Y-7810174D02*
X9522563Y-7800650D01*
X9522563Y-7800650D02*
X9541611Y-7772079D01*
X9541611Y-7772079D02*
X9551134Y-7753031D01*
X9551134Y-7753031D02*
X9560658Y-7724460D01*
X9560658Y-7724460D02*
X9570182Y-7676841D01*
X9570182Y-7676841D02*
X9570182Y-7638746D01*
X9570182Y-7638746D02*
X9560658Y-7591127D01*
X9560658Y-7591127D02*
X9551134Y-7562555D01*
X9551134Y-7562555D02*
X9541611Y-7543508D01*
X9541611Y-7543508D02*
X9522563Y-7514936D01*
X9522563Y-7514936D02*
X9513039Y-7505412D01*
D12*
X4547500Y-7906500D02*
G75*
G02*
X4517500Y-7906500I-15000J0D01*
G01*
X4517500Y-7906500D02*
G75*
G02*
X4547500Y-7906500I15000J0D01*
G01*
D11*
X4846372Y-7797984D02*
X4865420Y-7797984D01*
X4865420Y-7797984D02*
X4884467Y-7807508D01*
X4884467Y-7807508D02*
X4893991Y-7817031D01*
X4893991Y-7817031D02*
X4903515Y-7836079D01*
X4903515Y-7836079D02*
X4913039Y-7874174D01*
X4913039Y-7874174D02*
X4913039Y-7921793D01*
X4913039Y-7921793D02*
X4903515Y-7959888D01*
X4903515Y-7959888D02*
X4893991Y-7978936D01*
X4893991Y-7978936D02*
X4884467Y-7988460D01*
X4884467Y-7988460D02*
X4865420Y-7997984D01*
X4865420Y-7997984D02*
X4846372Y-7997984D01*
X4846372Y-7997984D02*
X4827324Y-7988460D01*
X4827324Y-7988460D02*
X4817801Y-7978936D01*
X4817801Y-7978936D02*
X4808277Y-7959888D01*
X4808277Y-7959888D02*
X4798753Y-7921793D01*
X4798753Y-7921793D02*
X4798753Y-7874174D01*
X4798753Y-7874174D02*
X4808277Y-7836079D01*
X4808277Y-7836079D02*
X4817801Y-7817031D01*
X4817801Y-7817031D02*
X4827324Y-7807508D01*
X4827324Y-7807508D02*
X4846372Y-7797984D01*
X4998753Y-7978936D02*
X5008277Y-7988460D01*
X5008277Y-7988460D02*
X4998753Y-7997984D01*
X4998753Y-7997984D02*
X4989229Y-7988460D01*
X4989229Y-7988460D02*
X4998753Y-7978936D01*
X4998753Y-7978936D02*
X4998753Y-7997984D01*
X5074944Y-7797984D02*
X5198753Y-7797984D01*
X5198753Y-7797984D02*
X5132086Y-7874174D01*
X5132086Y-7874174D02*
X5160658Y-7874174D01*
X5160658Y-7874174D02*
X5179705Y-7883698D01*
X5179705Y-7883698D02*
X5189229Y-7893222D01*
X5189229Y-7893222D02*
X5198753Y-7912269D01*
X5198753Y-7912269D02*
X5198753Y-7959888D01*
X5198753Y-7959888D02*
X5189229Y-7978936D01*
X5189229Y-7978936D02*
X5179705Y-7988460D01*
X5179705Y-7988460D02*
X5160658Y-7997984D01*
X5160658Y-7997984D02*
X5103515Y-7997984D01*
X5103515Y-7997984D02*
X5084467Y-7988460D01*
X5084467Y-7988460D02*
X5074944Y-7978936D01*
X5322563Y-7797984D02*
X5341610Y-7797984D01*
X5341610Y-7797984D02*
X5360658Y-7807508D01*
X5360658Y-7807508D02*
X5370182Y-7817031D01*
X5370182Y-7817031D02*
X5379705Y-7836079D01*
X5379705Y-7836079D02*
X5389229Y-7874174D01*
X5389229Y-7874174D02*
X5389229Y-7921793D01*
X5389229Y-7921793D02*
X5379705Y-7959888D01*
X5379705Y-7959888D02*
X5370182Y-7978936D01*
X5370182Y-7978936D02*
X5360658Y-7988460D01*
X5360658Y-7988460D02*
X5341610Y-7997984D01*
X5341610Y-7997984D02*
X5322563Y-7997984D01*
X5322563Y-7997984D02*
X5303515Y-7988460D01*
X5303515Y-7988460D02*
X5293991Y-7978936D01*
X5293991Y-7978936D02*
X5284467Y-7959888D01*
X5284467Y-7959888D02*
X5274944Y-7921793D01*
X5274944Y-7921793D02*
X5274944Y-7874174D01*
X5274944Y-7874174D02*
X5284467Y-7836079D01*
X5284467Y-7836079D02*
X5293991Y-7817031D01*
X5293991Y-7817031D02*
X5303515Y-7807508D01*
X5303515Y-7807508D02*
X5322563Y-7797984D01*
X5513039Y-7797984D02*
X5532086Y-7797984D01*
X5532086Y-7797984D02*
X5551134Y-7807508D01*
X5551134Y-7807508D02*
X5560658Y-7817031D01*
X5560658Y-7817031D02*
X5570182Y-7836079D01*
X5570182Y-7836079D02*
X5579705Y-7874174D01*
X5579705Y-7874174D02*
X5579705Y-7921793D01*
X5579705Y-7921793D02*
X5570182Y-7959888D01*
X5570182Y-7959888D02*
X5560658Y-7978936D01*
X5560658Y-7978936D02*
X5551134Y-7988460D01*
X5551134Y-7988460D02*
X5532086Y-7997984D01*
X5532086Y-7997984D02*
X5513039Y-7997984D01*
X5513039Y-7997984D02*
X5493991Y-7988460D01*
X5493991Y-7988460D02*
X5484467Y-7978936D01*
X5484467Y-7978936D02*
X5474944Y-7959888D01*
X5474944Y-7959888D02*
X5465420Y-7921793D01*
X5465420Y-7921793D02*
X5465420Y-7874174D01*
X5465420Y-7874174D02*
X5474944Y-7836079D01*
X5474944Y-7836079D02*
X5484467Y-7817031D01*
X5484467Y-7817031D02*
X5493991Y-7807508D01*
X5493991Y-7807508D02*
X5513039Y-7797984D01*
X5665420Y-7997984D02*
X5665420Y-7864650D01*
X5665420Y-7883698D02*
X5674943Y-7874174D01*
X5674943Y-7874174D02*
X5693991Y-7864650D01*
X5693991Y-7864650D02*
X5722563Y-7864650D01*
X5722563Y-7864650D02*
X5741610Y-7874174D01*
X5741610Y-7874174D02*
X5751134Y-7893222D01*
X5751134Y-7893222D02*
X5751134Y-7997984D01*
X5751134Y-7893222D02*
X5760658Y-7874174D01*
X5760658Y-7874174D02*
X5779705Y-7864650D01*
X5779705Y-7864650D02*
X5808277Y-7864650D01*
X5808277Y-7864650D02*
X5827324Y-7874174D01*
X5827324Y-7874174D02*
X5836848Y-7893222D01*
X5836848Y-7893222D02*
X5836848Y-7997984D01*
X5932086Y-7997984D02*
X5932086Y-7864650D01*
X5932086Y-7883698D02*
X5941610Y-7874174D01*
X5941610Y-7874174D02*
X5960658Y-7864650D01*
X5960658Y-7864650D02*
X5989229Y-7864650D01*
X5989229Y-7864650D02*
X6008277Y-7874174D01*
X6008277Y-7874174D02*
X6017801Y-7893222D01*
X6017801Y-7893222D02*
X6017801Y-7997984D01*
X6017801Y-7893222D02*
X6027324Y-7874174D01*
X6027324Y-7874174D02*
X6046372Y-7864650D01*
X6046372Y-7864650D02*
X6074943Y-7864650D01*
X6074943Y-7864650D02*
X6093991Y-7874174D01*
X6093991Y-7874174D02*
X6103515Y-7893222D01*
X6103515Y-7893222D02*
X6103515Y-7997984D01*
X6493991Y-7788460D02*
X6322563Y-8045603D01*
X6751134Y-7797984D02*
X6770182Y-7797984D01*
X6770182Y-7797984D02*
X6789229Y-7807508D01*
X6789229Y-7807508D02*
X6798753Y-7817031D01*
X6798753Y-7817031D02*
X6808277Y-7836079D01*
X6808277Y-7836079D02*
X6817801Y-7874174D01*
X6817801Y-7874174D02*
X6817801Y-7921793D01*
X6817801Y-7921793D02*
X6808277Y-7959888D01*
X6808277Y-7959888D02*
X6798753Y-7978936D01*
X6798753Y-7978936D02*
X6789229Y-7988460D01*
X6789229Y-7988460D02*
X6770182Y-7997984D01*
X6770182Y-7997984D02*
X6751134Y-7997984D01*
X6751134Y-7997984D02*
X6732086Y-7988460D01*
X6732086Y-7988460D02*
X6722563Y-7978936D01*
X6722563Y-7978936D02*
X6713039Y-7959888D01*
X6713039Y-7959888D02*
X6703515Y-7921793D01*
X6703515Y-7921793D02*
X6703515Y-7874174D01*
X6703515Y-7874174D02*
X6713039Y-7836079D01*
X6713039Y-7836079D02*
X6722563Y-7817031D01*
X6722563Y-7817031D02*
X6732086Y-7807508D01*
X6732086Y-7807508D02*
X6751134Y-7797984D01*
X6903515Y-7978936D02*
X6913039Y-7988460D01*
X6913039Y-7988460D02*
X6903515Y-7997984D01*
X6903515Y-7997984D02*
X6893991Y-7988460D01*
X6893991Y-7988460D02*
X6903515Y-7978936D01*
X6903515Y-7978936D02*
X6903515Y-7997984D01*
X7036848Y-7797984D02*
X7055896Y-7797984D01*
X7055896Y-7797984D02*
X7074944Y-7807508D01*
X7074944Y-7807508D02*
X7084467Y-7817031D01*
X7084467Y-7817031D02*
X7093991Y-7836079D01*
X7093991Y-7836079D02*
X7103515Y-7874174D01*
X7103515Y-7874174D02*
X7103515Y-7921793D01*
X7103515Y-7921793D02*
X7093991Y-7959888D01*
X7093991Y-7959888D02*
X7084467Y-7978936D01*
X7084467Y-7978936D02*
X7074944Y-7988460D01*
X7074944Y-7988460D02*
X7055896Y-7997984D01*
X7055896Y-7997984D02*
X7036848Y-7997984D01*
X7036848Y-7997984D02*
X7017801Y-7988460D01*
X7017801Y-7988460D02*
X7008277Y-7978936D01*
X7008277Y-7978936D02*
X6998753Y-7959888D01*
X6998753Y-7959888D02*
X6989229Y-7921793D01*
X6989229Y-7921793D02*
X6989229Y-7874174D01*
X6989229Y-7874174D02*
X6998753Y-7836079D01*
X6998753Y-7836079D02*
X7008277Y-7817031D01*
X7008277Y-7817031D02*
X7017801Y-7807508D01*
X7017801Y-7807508D02*
X7036848Y-7797984D01*
X7293991Y-7997984D02*
X7179706Y-7997984D01*
X7236848Y-7997984D02*
X7236848Y-7797984D01*
X7236848Y-7797984D02*
X7217801Y-7826555D01*
X7217801Y-7826555D02*
X7198753Y-7845603D01*
X7198753Y-7845603D02*
X7179706Y-7855127D01*
X7484467Y-7997984D02*
X7370182Y-7997984D01*
X7427325Y-7997984D02*
X7427325Y-7797984D01*
X7427325Y-7797984D02*
X7408277Y-7826555D01*
X7408277Y-7826555D02*
X7389229Y-7845603D01*
X7389229Y-7845603D02*
X7370182Y-7855127D01*
X7598753Y-7883698D02*
X7579706Y-7874174D01*
X7579706Y-7874174D02*
X7570182Y-7864650D01*
X7570182Y-7864650D02*
X7560658Y-7845603D01*
X7560658Y-7845603D02*
X7560658Y-7836079D01*
X7560658Y-7836079D02*
X7570182Y-7817031D01*
X7570182Y-7817031D02*
X7579706Y-7807508D01*
X7579706Y-7807508D02*
X7598753Y-7797984D01*
X7598753Y-7797984D02*
X7636848Y-7797984D01*
X7636848Y-7797984D02*
X7655896Y-7807508D01*
X7655896Y-7807508D02*
X7665420Y-7817031D01*
X7665420Y-7817031D02*
X7674944Y-7836079D01*
X7674944Y-7836079D02*
X7674944Y-7845603D01*
X7674944Y-7845603D02*
X7665420Y-7864650D01*
X7665420Y-7864650D02*
X7655896Y-7874174D01*
X7655896Y-7874174D02*
X7636848Y-7883698D01*
X7636848Y-7883698D02*
X7598753Y-7883698D01*
X7598753Y-7883698D02*
X7579706Y-7893222D01*
X7579706Y-7893222D02*
X7570182Y-7902746D01*
X7570182Y-7902746D02*
X7560658Y-7921793D01*
X7560658Y-7921793D02*
X7560658Y-7959888D01*
X7560658Y-7959888D02*
X7570182Y-7978936D01*
X7570182Y-7978936D02*
X7579706Y-7988460D01*
X7579706Y-7988460D02*
X7598753Y-7997984D01*
X7598753Y-7997984D02*
X7636848Y-7997984D01*
X7636848Y-7997984D02*
X7655896Y-7988460D01*
X7655896Y-7988460D02*
X7665420Y-7978936D01*
X7665420Y-7978936D02*
X7674944Y-7959888D01*
X7674944Y-7959888D02*
X7674944Y-7921793D01*
X7674944Y-7921793D02*
X7665420Y-7902746D01*
X7665420Y-7902746D02*
X7655896Y-7893222D01*
X7655896Y-7893222D02*
X7636848Y-7883698D01*
X7751134Y-7797984D02*
X7751134Y-7836079D01*
X7827325Y-7797984D02*
X7827325Y-7836079D01*
X8122563Y-8074174D02*
X8113039Y-8064650D01*
X8113039Y-8064650D02*
X8093991Y-8036079D01*
X8093991Y-8036079D02*
X8084468Y-8017031D01*
X8084468Y-8017031D02*
X8074944Y-7988460D01*
X8074944Y-7988460D02*
X8065420Y-7940841D01*
X8065420Y-7940841D02*
X8065420Y-7902746D01*
X8065420Y-7902746D02*
X8074944Y-7855127D01*
X8074944Y-7855127D02*
X8084468Y-7826555D01*
X8084468Y-7826555D02*
X8093991Y-7807508D01*
X8093991Y-7807508D02*
X8113039Y-7778936D01*
X8113039Y-7778936D02*
X8122563Y-7769412D01*
X8179706Y-7797984D02*
X8303515Y-7797984D01*
X8303515Y-7797984D02*
X8236848Y-7874174D01*
X8236848Y-7874174D02*
X8265420Y-7874174D01*
X8265420Y-7874174D02*
X8284468Y-7883698D01*
X8284468Y-7883698D02*
X8293991Y-7893222D01*
X8293991Y-7893222D02*
X8303515Y-7912269D01*
X8303515Y-7912269D02*
X8303515Y-7959888D01*
X8303515Y-7959888D02*
X8293991Y-7978936D01*
X8293991Y-7978936D02*
X8284468Y-7988460D01*
X8284468Y-7988460D02*
X8265420Y-7997984D01*
X8265420Y-7997984D02*
X8208277Y-7997984D01*
X8208277Y-7997984D02*
X8189229Y-7988460D01*
X8189229Y-7988460D02*
X8179706Y-7978936D01*
X8370182Y-7797984D02*
X8503515Y-7797984D01*
X8503515Y-7797984D02*
X8417801Y-7997984D01*
X8732087Y-7997984D02*
X8732087Y-7797984D01*
X8817801Y-7997984D02*
X8817801Y-7893222D01*
X8817801Y-7893222D02*
X8808277Y-7874174D01*
X8808277Y-7874174D02*
X8789230Y-7864650D01*
X8789230Y-7864650D02*
X8760658Y-7864650D01*
X8760658Y-7864650D02*
X8741611Y-7874174D01*
X8741611Y-7874174D02*
X8732087Y-7883698D01*
X8941611Y-7997984D02*
X8922563Y-7988460D01*
X8922563Y-7988460D02*
X8913039Y-7978936D01*
X8913039Y-7978936D02*
X8903515Y-7959888D01*
X8903515Y-7959888D02*
X8903515Y-7902746D01*
X8903515Y-7902746D02*
X8913039Y-7883698D01*
X8913039Y-7883698D02*
X8922563Y-7874174D01*
X8922563Y-7874174D02*
X8941611Y-7864650D01*
X8941611Y-7864650D02*
X8970182Y-7864650D01*
X8970182Y-7864650D02*
X8989230Y-7874174D01*
X8989230Y-7874174D02*
X8998753Y-7883698D01*
X8998753Y-7883698D02*
X9008277Y-7902746D01*
X9008277Y-7902746D02*
X9008277Y-7959888D01*
X9008277Y-7959888D02*
X8998753Y-7978936D01*
X8998753Y-7978936D02*
X8989230Y-7988460D01*
X8989230Y-7988460D02*
X8970182Y-7997984D01*
X8970182Y-7997984D02*
X8941611Y-7997984D01*
X9122563Y-7997984D02*
X9103515Y-7988460D01*
X9103515Y-7988460D02*
X9093992Y-7969412D01*
X9093992Y-7969412D02*
X9093992Y-7797984D01*
X9274944Y-7988460D02*
X9255896Y-7997984D01*
X9255896Y-7997984D02*
X9217801Y-7997984D01*
X9217801Y-7997984D02*
X9198753Y-7988460D01*
X9198753Y-7988460D02*
X9189230Y-7969412D01*
X9189230Y-7969412D02*
X9189230Y-7893222D01*
X9189230Y-7893222D02*
X9198753Y-7874174D01*
X9198753Y-7874174D02*
X9217801Y-7864650D01*
X9217801Y-7864650D02*
X9255896Y-7864650D01*
X9255896Y-7864650D02*
X9274944Y-7874174D01*
X9274944Y-7874174D02*
X9284468Y-7893222D01*
X9284468Y-7893222D02*
X9284468Y-7912269D01*
X9284468Y-7912269D02*
X9189230Y-7931317D01*
X9360658Y-7988460D02*
X9379706Y-7997984D01*
X9379706Y-7997984D02*
X9417801Y-7997984D01*
X9417801Y-7997984D02*
X9436849Y-7988460D01*
X9436849Y-7988460D02*
X9446373Y-7969412D01*
X9446373Y-7969412D02*
X9446373Y-7959888D01*
X9446373Y-7959888D02*
X9436849Y-7940841D01*
X9436849Y-7940841D02*
X9417801Y-7931317D01*
X9417801Y-7931317D02*
X9389230Y-7931317D01*
X9389230Y-7931317D02*
X9370182Y-7921793D01*
X9370182Y-7921793D02*
X9360658Y-7902746D01*
X9360658Y-7902746D02*
X9360658Y-7893222D01*
X9360658Y-7893222D02*
X9370182Y-7874174D01*
X9370182Y-7874174D02*
X9389230Y-7864650D01*
X9389230Y-7864650D02*
X9417801Y-7864650D01*
X9417801Y-7864650D02*
X9436849Y-7874174D01*
X9513039Y-8074174D02*
X9522563Y-8064650D01*
X9522563Y-8064650D02*
X9541611Y-8036079D01*
X9541611Y-8036079D02*
X9551134Y-8017031D01*
X9551134Y-8017031D02*
X9560658Y-7988460D01*
X9560658Y-7988460D02*
X9570182Y-7940841D01*
X9570182Y-7940841D02*
X9570182Y-7902746D01*
X9570182Y-7902746D02*
X9560658Y-7855127D01*
X9560658Y-7855127D02*
X9551134Y-7826555D01*
X9551134Y-7826555D02*
X9541611Y-7807508D01*
X9541611Y-7807508D02*
X9522563Y-7778936D01*
X9522563Y-7778936D02*
X9513039Y-7769412D01*
D12*
X4527500Y-8150500D02*
X4527500Y-8190500D01*
X4507500Y-8170500D02*
X4547500Y-8170500D01*
D11*
X4846372Y-8061984D02*
X4865420Y-8061984D01*
X4865420Y-8061984D02*
X4884467Y-8071508D01*
X4884467Y-8071508D02*
X4893991Y-8081031D01*
X4893991Y-8081031D02*
X4903515Y-8100079D01*
X4903515Y-8100079D02*
X4913039Y-8138174D01*
X4913039Y-8138174D02*
X4913039Y-8185793D01*
X4913039Y-8185793D02*
X4903515Y-8223888D01*
X4903515Y-8223888D02*
X4893991Y-8242936D01*
X4893991Y-8242936D02*
X4884467Y-8252460D01*
X4884467Y-8252460D02*
X4865420Y-8261984D01*
X4865420Y-8261984D02*
X4846372Y-8261984D01*
X4846372Y-8261984D02*
X4827324Y-8252460D01*
X4827324Y-8252460D02*
X4817801Y-8242936D01*
X4817801Y-8242936D02*
X4808277Y-8223888D01*
X4808277Y-8223888D02*
X4798753Y-8185793D01*
X4798753Y-8185793D02*
X4798753Y-8138174D01*
X4798753Y-8138174D02*
X4808277Y-8100079D01*
X4808277Y-8100079D02*
X4817801Y-8081031D01*
X4817801Y-8081031D02*
X4827324Y-8071508D01*
X4827324Y-8071508D02*
X4846372Y-8061984D01*
X4998753Y-8242936D02*
X5008277Y-8252460D01*
X5008277Y-8252460D02*
X4998753Y-8261984D01*
X4998753Y-8261984D02*
X4989229Y-8252460D01*
X4989229Y-8252460D02*
X4998753Y-8242936D01*
X4998753Y-8242936D02*
X4998753Y-8261984D01*
X5179705Y-8128650D02*
X5179705Y-8261984D01*
X5132086Y-8052460D02*
X5084467Y-8195317D01*
X5084467Y-8195317D02*
X5208277Y-8195317D01*
X5322563Y-8061984D02*
X5341610Y-8061984D01*
X5341610Y-8061984D02*
X5360658Y-8071508D01*
X5360658Y-8071508D02*
X5370182Y-8081031D01*
X5370182Y-8081031D02*
X5379705Y-8100079D01*
X5379705Y-8100079D02*
X5389229Y-8138174D01*
X5389229Y-8138174D02*
X5389229Y-8185793D01*
X5389229Y-8185793D02*
X5379705Y-8223888D01*
X5379705Y-8223888D02*
X5370182Y-8242936D01*
X5370182Y-8242936D02*
X5360658Y-8252460D01*
X5360658Y-8252460D02*
X5341610Y-8261984D01*
X5341610Y-8261984D02*
X5322563Y-8261984D01*
X5322563Y-8261984D02*
X5303515Y-8252460D01*
X5303515Y-8252460D02*
X5293991Y-8242936D01*
X5293991Y-8242936D02*
X5284467Y-8223888D01*
X5284467Y-8223888D02*
X5274944Y-8185793D01*
X5274944Y-8185793D02*
X5274944Y-8138174D01*
X5274944Y-8138174D02*
X5284467Y-8100079D01*
X5284467Y-8100079D02*
X5293991Y-8081031D01*
X5293991Y-8081031D02*
X5303515Y-8071508D01*
X5303515Y-8071508D02*
X5322563Y-8061984D01*
X5513039Y-8061984D02*
X5532086Y-8061984D01*
X5532086Y-8061984D02*
X5551134Y-8071508D01*
X5551134Y-8071508D02*
X5560658Y-8081031D01*
X5560658Y-8081031D02*
X5570182Y-8100079D01*
X5570182Y-8100079D02*
X5579705Y-8138174D01*
X5579705Y-8138174D02*
X5579705Y-8185793D01*
X5579705Y-8185793D02*
X5570182Y-8223888D01*
X5570182Y-8223888D02*
X5560658Y-8242936D01*
X5560658Y-8242936D02*
X5551134Y-8252460D01*
X5551134Y-8252460D02*
X5532086Y-8261984D01*
X5532086Y-8261984D02*
X5513039Y-8261984D01*
X5513039Y-8261984D02*
X5493991Y-8252460D01*
X5493991Y-8252460D02*
X5484467Y-8242936D01*
X5484467Y-8242936D02*
X5474944Y-8223888D01*
X5474944Y-8223888D02*
X5465420Y-8185793D01*
X5465420Y-8185793D02*
X5465420Y-8138174D01*
X5465420Y-8138174D02*
X5474944Y-8100079D01*
X5474944Y-8100079D02*
X5484467Y-8081031D01*
X5484467Y-8081031D02*
X5493991Y-8071508D01*
X5493991Y-8071508D02*
X5513039Y-8061984D01*
X5665420Y-8261984D02*
X5665420Y-8128650D01*
X5665420Y-8147698D02*
X5674943Y-8138174D01*
X5674943Y-8138174D02*
X5693991Y-8128650D01*
X5693991Y-8128650D02*
X5722563Y-8128650D01*
X5722563Y-8128650D02*
X5741610Y-8138174D01*
X5741610Y-8138174D02*
X5751134Y-8157222D01*
X5751134Y-8157222D02*
X5751134Y-8261984D01*
X5751134Y-8157222D02*
X5760658Y-8138174D01*
X5760658Y-8138174D02*
X5779705Y-8128650D01*
X5779705Y-8128650D02*
X5808277Y-8128650D01*
X5808277Y-8128650D02*
X5827324Y-8138174D01*
X5827324Y-8138174D02*
X5836848Y-8157222D01*
X5836848Y-8157222D02*
X5836848Y-8261984D01*
X5932086Y-8261984D02*
X5932086Y-8128650D01*
X5932086Y-8147698D02*
X5941610Y-8138174D01*
X5941610Y-8138174D02*
X5960658Y-8128650D01*
X5960658Y-8128650D02*
X5989229Y-8128650D01*
X5989229Y-8128650D02*
X6008277Y-8138174D01*
X6008277Y-8138174D02*
X6017801Y-8157222D01*
X6017801Y-8157222D02*
X6017801Y-8261984D01*
X6017801Y-8157222D02*
X6027324Y-8138174D01*
X6027324Y-8138174D02*
X6046372Y-8128650D01*
X6046372Y-8128650D02*
X6074943Y-8128650D01*
X6074943Y-8128650D02*
X6093991Y-8138174D01*
X6093991Y-8138174D02*
X6103515Y-8157222D01*
X6103515Y-8157222D02*
X6103515Y-8261984D01*
X6493991Y-8052460D02*
X6322563Y-8309603D01*
X6751134Y-8061984D02*
X6770182Y-8061984D01*
X6770182Y-8061984D02*
X6789229Y-8071508D01*
X6789229Y-8071508D02*
X6798753Y-8081031D01*
X6798753Y-8081031D02*
X6808277Y-8100079D01*
X6808277Y-8100079D02*
X6817801Y-8138174D01*
X6817801Y-8138174D02*
X6817801Y-8185793D01*
X6817801Y-8185793D02*
X6808277Y-8223888D01*
X6808277Y-8223888D02*
X6798753Y-8242936D01*
X6798753Y-8242936D02*
X6789229Y-8252460D01*
X6789229Y-8252460D02*
X6770182Y-8261984D01*
X6770182Y-8261984D02*
X6751134Y-8261984D01*
X6751134Y-8261984D02*
X6732086Y-8252460D01*
X6732086Y-8252460D02*
X6722563Y-8242936D01*
X6722563Y-8242936D02*
X6713039Y-8223888D01*
X6713039Y-8223888D02*
X6703515Y-8185793D01*
X6703515Y-8185793D02*
X6703515Y-8138174D01*
X6703515Y-8138174D02*
X6713039Y-8100079D01*
X6713039Y-8100079D02*
X6722563Y-8081031D01*
X6722563Y-8081031D02*
X6732086Y-8071508D01*
X6732086Y-8071508D02*
X6751134Y-8061984D01*
X6903515Y-8242936D02*
X6913039Y-8252460D01*
X6913039Y-8252460D02*
X6903515Y-8261984D01*
X6903515Y-8261984D02*
X6893991Y-8252460D01*
X6893991Y-8252460D02*
X6903515Y-8242936D01*
X6903515Y-8242936D02*
X6903515Y-8261984D01*
X7036848Y-8061984D02*
X7055896Y-8061984D01*
X7055896Y-8061984D02*
X7074944Y-8071508D01*
X7074944Y-8071508D02*
X7084467Y-8081031D01*
X7084467Y-8081031D02*
X7093991Y-8100079D01*
X7093991Y-8100079D02*
X7103515Y-8138174D01*
X7103515Y-8138174D02*
X7103515Y-8185793D01*
X7103515Y-8185793D02*
X7093991Y-8223888D01*
X7093991Y-8223888D02*
X7084467Y-8242936D01*
X7084467Y-8242936D02*
X7074944Y-8252460D01*
X7074944Y-8252460D02*
X7055896Y-8261984D01*
X7055896Y-8261984D02*
X7036848Y-8261984D01*
X7036848Y-8261984D02*
X7017801Y-8252460D01*
X7017801Y-8252460D02*
X7008277Y-8242936D01*
X7008277Y-8242936D02*
X6998753Y-8223888D01*
X6998753Y-8223888D02*
X6989229Y-8185793D01*
X6989229Y-8185793D02*
X6989229Y-8138174D01*
X6989229Y-8138174D02*
X6998753Y-8100079D01*
X6998753Y-8100079D02*
X7008277Y-8081031D01*
X7008277Y-8081031D02*
X7017801Y-8071508D01*
X7017801Y-8071508D02*
X7036848Y-8061984D01*
X7293991Y-8261984D02*
X7179706Y-8261984D01*
X7236848Y-8261984D02*
X7236848Y-8061984D01*
X7236848Y-8061984D02*
X7217801Y-8090555D01*
X7217801Y-8090555D02*
X7198753Y-8109603D01*
X7198753Y-8109603D02*
X7179706Y-8119127D01*
X7474944Y-8061984D02*
X7379706Y-8061984D01*
X7379706Y-8061984D02*
X7370182Y-8157222D01*
X7370182Y-8157222D02*
X7379706Y-8147698D01*
X7379706Y-8147698D02*
X7398753Y-8138174D01*
X7398753Y-8138174D02*
X7446372Y-8138174D01*
X7446372Y-8138174D02*
X7465420Y-8147698D01*
X7465420Y-8147698D02*
X7474944Y-8157222D01*
X7474944Y-8157222D02*
X7484467Y-8176269D01*
X7484467Y-8176269D02*
X7484467Y-8223888D01*
X7484467Y-8223888D02*
X7474944Y-8242936D01*
X7474944Y-8242936D02*
X7465420Y-8252460D01*
X7465420Y-8252460D02*
X7446372Y-8261984D01*
X7446372Y-8261984D02*
X7398753Y-8261984D01*
X7398753Y-8261984D02*
X7379706Y-8252460D01*
X7379706Y-8252460D02*
X7370182Y-8242936D01*
X7551134Y-8061984D02*
X7684467Y-8061984D01*
X7684467Y-8061984D02*
X7598753Y-8261984D01*
X7751134Y-8061984D02*
X7751134Y-8100079D01*
X7827325Y-8061984D02*
X7827325Y-8100079D01*
X8122563Y-8338174D02*
X8113039Y-8328650D01*
X8113039Y-8328650D02*
X8093991Y-8300079D01*
X8093991Y-8300079D02*
X8084468Y-8281031D01*
X8084468Y-8281031D02*
X8074944Y-8252460D01*
X8074944Y-8252460D02*
X8065420Y-8204841D01*
X8065420Y-8204841D02*
X8065420Y-8166746D01*
X8065420Y-8166746D02*
X8074944Y-8119127D01*
X8074944Y-8119127D02*
X8084468Y-8090555D01*
X8084468Y-8090555D02*
X8093991Y-8071508D01*
X8093991Y-8071508D02*
X8113039Y-8042936D01*
X8113039Y-8042936D02*
X8122563Y-8033412D01*
X8227325Y-8147698D02*
X8208277Y-8138174D01*
X8208277Y-8138174D02*
X8198753Y-8128650D01*
X8198753Y-8128650D02*
X8189229Y-8109603D01*
X8189229Y-8109603D02*
X8189229Y-8100079D01*
X8189229Y-8100079D02*
X8198753Y-8081031D01*
X8198753Y-8081031D02*
X8208277Y-8071508D01*
X8208277Y-8071508D02*
X8227325Y-8061984D01*
X8227325Y-8061984D02*
X8265420Y-8061984D01*
X8265420Y-8061984D02*
X8284468Y-8071508D01*
X8284468Y-8071508D02*
X8293991Y-8081031D01*
X8293991Y-8081031D02*
X8303515Y-8100079D01*
X8303515Y-8100079D02*
X8303515Y-8109603D01*
X8303515Y-8109603D02*
X8293991Y-8128650D01*
X8293991Y-8128650D02*
X8284468Y-8138174D01*
X8284468Y-8138174D02*
X8265420Y-8147698D01*
X8265420Y-8147698D02*
X8227325Y-8147698D01*
X8227325Y-8147698D02*
X8208277Y-8157222D01*
X8208277Y-8157222D02*
X8198753Y-8166746D01*
X8198753Y-8166746D02*
X8189229Y-8185793D01*
X8189229Y-8185793D02*
X8189229Y-8223888D01*
X8189229Y-8223888D02*
X8198753Y-8242936D01*
X8198753Y-8242936D02*
X8208277Y-8252460D01*
X8208277Y-8252460D02*
X8227325Y-8261984D01*
X8227325Y-8261984D02*
X8265420Y-8261984D01*
X8265420Y-8261984D02*
X8284468Y-8252460D01*
X8284468Y-8252460D02*
X8293991Y-8242936D01*
X8293991Y-8242936D02*
X8303515Y-8223888D01*
X8303515Y-8223888D02*
X8303515Y-8185793D01*
X8303515Y-8185793D02*
X8293991Y-8166746D01*
X8293991Y-8166746D02*
X8284468Y-8157222D01*
X8284468Y-8157222D02*
X8265420Y-8147698D01*
X8493991Y-8261984D02*
X8379706Y-8261984D01*
X8436849Y-8261984D02*
X8436849Y-8061984D01*
X8436849Y-8061984D02*
X8417801Y-8090555D01*
X8417801Y-8090555D02*
X8398753Y-8109603D01*
X8398753Y-8109603D02*
X8379706Y-8119127D01*
X8732087Y-8261984D02*
X8732087Y-8061984D01*
X8817801Y-8261984D02*
X8817801Y-8157222D01*
X8817801Y-8157222D02*
X8808277Y-8138174D01*
X8808277Y-8138174D02*
X8789230Y-8128650D01*
X8789230Y-8128650D02*
X8760658Y-8128650D01*
X8760658Y-8128650D02*
X8741611Y-8138174D01*
X8741611Y-8138174D02*
X8732087Y-8147698D01*
X8941611Y-8261984D02*
X8922563Y-8252460D01*
X8922563Y-8252460D02*
X8913039Y-8242936D01*
X8913039Y-8242936D02*
X8903515Y-8223888D01*
X8903515Y-8223888D02*
X8903515Y-8166746D01*
X8903515Y-8166746D02*
X8913039Y-8147698D01*
X8913039Y-8147698D02*
X8922563Y-8138174D01*
X8922563Y-8138174D02*
X8941611Y-8128650D01*
X8941611Y-8128650D02*
X8970182Y-8128650D01*
X8970182Y-8128650D02*
X8989230Y-8138174D01*
X8989230Y-8138174D02*
X8998753Y-8147698D01*
X8998753Y-8147698D02*
X9008277Y-8166746D01*
X9008277Y-8166746D02*
X9008277Y-8223888D01*
X9008277Y-8223888D02*
X8998753Y-8242936D01*
X8998753Y-8242936D02*
X8989230Y-8252460D01*
X8989230Y-8252460D02*
X8970182Y-8261984D01*
X8970182Y-8261984D02*
X8941611Y-8261984D01*
X9122563Y-8261984D02*
X9103515Y-8252460D01*
X9103515Y-8252460D02*
X9093992Y-8233412D01*
X9093992Y-8233412D02*
X9093992Y-8061984D01*
X9274944Y-8252460D02*
X9255896Y-8261984D01*
X9255896Y-8261984D02*
X9217801Y-8261984D01*
X9217801Y-8261984D02*
X9198753Y-8252460D01*
X9198753Y-8252460D02*
X9189230Y-8233412D01*
X9189230Y-8233412D02*
X9189230Y-8157222D01*
X9189230Y-8157222D02*
X9198753Y-8138174D01*
X9198753Y-8138174D02*
X9217801Y-8128650D01*
X9217801Y-8128650D02*
X9255896Y-8128650D01*
X9255896Y-8128650D02*
X9274944Y-8138174D01*
X9274944Y-8138174D02*
X9284468Y-8157222D01*
X9284468Y-8157222D02*
X9284468Y-8176269D01*
X9284468Y-8176269D02*
X9189230Y-8195317D01*
X9360658Y-8252460D02*
X9379706Y-8261984D01*
X9379706Y-8261984D02*
X9417801Y-8261984D01*
X9417801Y-8261984D02*
X9436849Y-8252460D01*
X9436849Y-8252460D02*
X9446373Y-8233412D01*
X9446373Y-8233412D02*
X9446373Y-8223888D01*
X9446373Y-8223888D02*
X9436849Y-8204841D01*
X9436849Y-8204841D02*
X9417801Y-8195317D01*
X9417801Y-8195317D02*
X9389230Y-8195317D01*
X9389230Y-8195317D02*
X9370182Y-8185793D01*
X9370182Y-8185793D02*
X9360658Y-8166746D01*
X9360658Y-8166746D02*
X9360658Y-8157222D01*
X9360658Y-8157222D02*
X9370182Y-8138174D01*
X9370182Y-8138174D02*
X9389230Y-8128650D01*
X9389230Y-8128650D02*
X9417801Y-8128650D01*
X9417801Y-8128650D02*
X9436849Y-8138174D01*
X9513039Y-8338174D02*
X9522563Y-8328650D01*
X9522563Y-8328650D02*
X9541611Y-8300079D01*
X9541611Y-8300079D02*
X9551134Y-8281031D01*
X9551134Y-8281031D02*
X9560658Y-8252460D01*
X9560658Y-8252460D02*
X9570182Y-8204841D01*
X9570182Y-8204841D02*
X9570182Y-8166746D01*
X9570182Y-8166746D02*
X9560658Y-8119127D01*
X9560658Y-8119127D02*
X9551134Y-8090555D01*
X9551134Y-8090555D02*
X9541611Y-8071508D01*
X9541611Y-8071508D02*
X9522563Y-8042936D01*
X9522563Y-8042936D02*
X9513039Y-8033412D01*
D12*
X4541642Y-8448642D02*
X4541642Y-8420358D01*
X4513358Y-8420358D01*
X4513358Y-8448642D01*
X4541642Y-8448642D01*
D11*
X4846372Y-8325984D02*
X4865420Y-8325984D01*
X4865420Y-8325984D02*
X4884467Y-8335508D01*
X4884467Y-8335508D02*
X4893991Y-8345031D01*
X4893991Y-8345031D02*
X4903515Y-8364079D01*
X4903515Y-8364079D02*
X4913039Y-8402174D01*
X4913039Y-8402174D02*
X4913039Y-8449793D01*
X4913039Y-8449793D02*
X4903515Y-8487889D01*
X4903515Y-8487889D02*
X4893991Y-8506936D01*
X4893991Y-8506936D02*
X4884467Y-8516460D01*
X4884467Y-8516460D02*
X4865420Y-8525984D01*
X4865420Y-8525984D02*
X4846372Y-8525984D01*
X4846372Y-8525984D02*
X4827324Y-8516460D01*
X4827324Y-8516460D02*
X4817801Y-8506936D01*
X4817801Y-8506936D02*
X4808277Y-8487889D01*
X4808277Y-8487889D02*
X4798753Y-8449793D01*
X4798753Y-8449793D02*
X4798753Y-8402174D01*
X4798753Y-8402174D02*
X4808277Y-8364079D01*
X4808277Y-8364079D02*
X4817801Y-8345031D01*
X4817801Y-8345031D02*
X4827324Y-8335508D01*
X4827324Y-8335508D02*
X4846372Y-8325984D01*
X4998753Y-8506936D02*
X5008277Y-8516460D01*
X5008277Y-8516460D02*
X4998753Y-8525984D01*
X4998753Y-8525984D02*
X4989229Y-8516460D01*
X4989229Y-8516460D02*
X4998753Y-8506936D01*
X4998753Y-8506936D02*
X4998753Y-8525984D01*
X5179705Y-8392650D02*
X5179705Y-8525984D01*
X5132086Y-8316460D02*
X5084467Y-8459317D01*
X5084467Y-8459317D02*
X5208277Y-8459317D01*
X5322563Y-8325984D02*
X5341610Y-8325984D01*
X5341610Y-8325984D02*
X5360658Y-8335508D01*
X5360658Y-8335508D02*
X5370182Y-8345031D01*
X5370182Y-8345031D02*
X5379705Y-8364079D01*
X5379705Y-8364079D02*
X5389229Y-8402174D01*
X5389229Y-8402174D02*
X5389229Y-8449793D01*
X5389229Y-8449793D02*
X5379705Y-8487889D01*
X5379705Y-8487889D02*
X5370182Y-8506936D01*
X5370182Y-8506936D02*
X5360658Y-8516460D01*
X5360658Y-8516460D02*
X5341610Y-8525984D01*
X5341610Y-8525984D02*
X5322563Y-8525984D01*
X5322563Y-8525984D02*
X5303515Y-8516460D01*
X5303515Y-8516460D02*
X5293991Y-8506936D01*
X5293991Y-8506936D02*
X5284467Y-8487889D01*
X5284467Y-8487889D02*
X5274944Y-8449793D01*
X5274944Y-8449793D02*
X5274944Y-8402174D01*
X5274944Y-8402174D02*
X5284467Y-8364079D01*
X5284467Y-8364079D02*
X5293991Y-8345031D01*
X5293991Y-8345031D02*
X5303515Y-8335508D01*
X5303515Y-8335508D02*
X5322563Y-8325984D01*
X5513039Y-8325984D02*
X5532086Y-8325984D01*
X5532086Y-8325984D02*
X5551134Y-8335508D01*
X5551134Y-8335508D02*
X5560658Y-8345031D01*
X5560658Y-8345031D02*
X5570182Y-8364079D01*
X5570182Y-8364079D02*
X5579705Y-8402174D01*
X5579705Y-8402174D02*
X5579705Y-8449793D01*
X5579705Y-8449793D02*
X5570182Y-8487889D01*
X5570182Y-8487889D02*
X5560658Y-8506936D01*
X5560658Y-8506936D02*
X5551134Y-8516460D01*
X5551134Y-8516460D02*
X5532086Y-8525984D01*
X5532086Y-8525984D02*
X5513039Y-8525984D01*
X5513039Y-8525984D02*
X5493991Y-8516460D01*
X5493991Y-8516460D02*
X5484467Y-8506936D01*
X5484467Y-8506936D02*
X5474944Y-8487889D01*
X5474944Y-8487889D02*
X5465420Y-8449793D01*
X5465420Y-8449793D02*
X5465420Y-8402174D01*
X5465420Y-8402174D02*
X5474944Y-8364079D01*
X5474944Y-8364079D02*
X5484467Y-8345031D01*
X5484467Y-8345031D02*
X5493991Y-8335508D01*
X5493991Y-8335508D02*
X5513039Y-8325984D01*
X5665420Y-8525984D02*
X5665420Y-8392650D01*
X5665420Y-8411698D02*
X5674943Y-8402174D01*
X5674943Y-8402174D02*
X5693991Y-8392650D01*
X5693991Y-8392650D02*
X5722563Y-8392650D01*
X5722563Y-8392650D02*
X5741610Y-8402174D01*
X5741610Y-8402174D02*
X5751134Y-8421222D01*
X5751134Y-8421222D02*
X5751134Y-8525984D01*
X5751134Y-8421222D02*
X5760658Y-8402174D01*
X5760658Y-8402174D02*
X5779705Y-8392650D01*
X5779705Y-8392650D02*
X5808277Y-8392650D01*
X5808277Y-8392650D02*
X5827324Y-8402174D01*
X5827324Y-8402174D02*
X5836848Y-8421222D01*
X5836848Y-8421222D02*
X5836848Y-8525984D01*
X5932086Y-8525984D02*
X5932086Y-8392650D01*
X5932086Y-8411698D02*
X5941610Y-8402174D01*
X5941610Y-8402174D02*
X5960658Y-8392650D01*
X5960658Y-8392650D02*
X5989229Y-8392650D01*
X5989229Y-8392650D02*
X6008277Y-8402174D01*
X6008277Y-8402174D02*
X6017801Y-8421222D01*
X6017801Y-8421222D02*
X6017801Y-8525984D01*
X6017801Y-8421222D02*
X6027324Y-8402174D01*
X6027324Y-8402174D02*
X6046372Y-8392650D01*
X6046372Y-8392650D02*
X6074943Y-8392650D01*
X6074943Y-8392650D02*
X6093991Y-8402174D01*
X6093991Y-8402174D02*
X6103515Y-8421222D01*
X6103515Y-8421222D02*
X6103515Y-8525984D01*
X6493991Y-8316460D02*
X6322563Y-8573603D01*
X6751134Y-8325984D02*
X6770182Y-8325984D01*
X6770182Y-8325984D02*
X6789229Y-8335508D01*
X6789229Y-8335508D02*
X6798753Y-8345031D01*
X6798753Y-8345031D02*
X6808277Y-8364079D01*
X6808277Y-8364079D02*
X6817801Y-8402174D01*
X6817801Y-8402174D02*
X6817801Y-8449793D01*
X6817801Y-8449793D02*
X6808277Y-8487889D01*
X6808277Y-8487889D02*
X6798753Y-8506936D01*
X6798753Y-8506936D02*
X6789229Y-8516460D01*
X6789229Y-8516460D02*
X6770182Y-8525984D01*
X6770182Y-8525984D02*
X6751134Y-8525984D01*
X6751134Y-8525984D02*
X6732086Y-8516460D01*
X6732086Y-8516460D02*
X6722563Y-8506936D01*
X6722563Y-8506936D02*
X6713039Y-8487889D01*
X6713039Y-8487889D02*
X6703515Y-8449793D01*
X6703515Y-8449793D02*
X6703515Y-8402174D01*
X6703515Y-8402174D02*
X6713039Y-8364079D01*
X6713039Y-8364079D02*
X6722563Y-8345031D01*
X6722563Y-8345031D02*
X6732086Y-8335508D01*
X6732086Y-8335508D02*
X6751134Y-8325984D01*
X6903515Y-8506936D02*
X6913039Y-8516460D01*
X6913039Y-8516460D02*
X6903515Y-8525984D01*
X6903515Y-8525984D02*
X6893991Y-8516460D01*
X6893991Y-8516460D02*
X6903515Y-8506936D01*
X6903515Y-8506936D02*
X6903515Y-8525984D01*
X7036848Y-8325984D02*
X7055896Y-8325984D01*
X7055896Y-8325984D02*
X7074944Y-8335508D01*
X7074944Y-8335508D02*
X7084467Y-8345031D01*
X7084467Y-8345031D02*
X7093991Y-8364079D01*
X7093991Y-8364079D02*
X7103515Y-8402174D01*
X7103515Y-8402174D02*
X7103515Y-8449793D01*
X7103515Y-8449793D02*
X7093991Y-8487889D01*
X7093991Y-8487889D02*
X7084467Y-8506936D01*
X7084467Y-8506936D02*
X7074944Y-8516460D01*
X7074944Y-8516460D02*
X7055896Y-8525984D01*
X7055896Y-8525984D02*
X7036848Y-8525984D01*
X7036848Y-8525984D02*
X7017801Y-8516460D01*
X7017801Y-8516460D02*
X7008277Y-8506936D01*
X7008277Y-8506936D02*
X6998753Y-8487889D01*
X6998753Y-8487889D02*
X6989229Y-8449793D01*
X6989229Y-8449793D02*
X6989229Y-8402174D01*
X6989229Y-8402174D02*
X6998753Y-8364079D01*
X6998753Y-8364079D02*
X7008277Y-8345031D01*
X7008277Y-8345031D02*
X7017801Y-8335508D01*
X7017801Y-8335508D02*
X7036848Y-8325984D01*
X7293991Y-8525984D02*
X7179706Y-8525984D01*
X7236848Y-8525984D02*
X7236848Y-8325984D01*
X7236848Y-8325984D02*
X7217801Y-8354555D01*
X7217801Y-8354555D02*
X7198753Y-8373603D01*
X7198753Y-8373603D02*
X7179706Y-8383127D01*
X7474944Y-8325984D02*
X7379706Y-8325984D01*
X7379706Y-8325984D02*
X7370182Y-8421222D01*
X7370182Y-8421222D02*
X7379706Y-8411698D01*
X7379706Y-8411698D02*
X7398753Y-8402174D01*
X7398753Y-8402174D02*
X7446372Y-8402174D01*
X7446372Y-8402174D02*
X7465420Y-8411698D01*
X7465420Y-8411698D02*
X7474944Y-8421222D01*
X7474944Y-8421222D02*
X7484467Y-8440270D01*
X7484467Y-8440270D02*
X7484467Y-8487889D01*
X7484467Y-8487889D02*
X7474944Y-8506936D01*
X7474944Y-8506936D02*
X7465420Y-8516460D01*
X7465420Y-8516460D02*
X7446372Y-8525984D01*
X7446372Y-8525984D02*
X7398753Y-8525984D01*
X7398753Y-8525984D02*
X7379706Y-8516460D01*
X7379706Y-8516460D02*
X7370182Y-8506936D01*
X7551134Y-8325984D02*
X7684467Y-8325984D01*
X7684467Y-8325984D02*
X7598753Y-8525984D01*
X7751134Y-8325984D02*
X7751134Y-8364079D01*
X7827325Y-8325984D02*
X7827325Y-8364079D01*
X8122563Y-8602174D02*
X8113039Y-8592650D01*
X8113039Y-8592650D02*
X8093991Y-8564079D01*
X8093991Y-8564079D02*
X8084468Y-8545031D01*
X8084468Y-8545031D02*
X8074944Y-8516460D01*
X8074944Y-8516460D02*
X8065420Y-8468841D01*
X8065420Y-8468841D02*
X8065420Y-8430746D01*
X8065420Y-8430746D02*
X8074944Y-8383127D01*
X8074944Y-8383127D02*
X8084468Y-8354555D01*
X8084468Y-8354555D02*
X8093991Y-8335508D01*
X8093991Y-8335508D02*
X8113039Y-8306936D01*
X8113039Y-8306936D02*
X8122563Y-8297412D01*
X8293991Y-8325984D02*
X8198753Y-8325984D01*
X8198753Y-8325984D02*
X8189229Y-8421222D01*
X8189229Y-8421222D02*
X8198753Y-8411698D01*
X8198753Y-8411698D02*
X8217801Y-8402174D01*
X8217801Y-8402174D02*
X8265420Y-8402174D01*
X8265420Y-8402174D02*
X8284468Y-8411698D01*
X8284468Y-8411698D02*
X8293991Y-8421222D01*
X8293991Y-8421222D02*
X8303515Y-8440270D01*
X8303515Y-8440270D02*
X8303515Y-8487889D01*
X8303515Y-8487889D02*
X8293991Y-8506936D01*
X8293991Y-8506936D02*
X8284468Y-8516460D01*
X8284468Y-8516460D02*
X8265420Y-8525984D01*
X8265420Y-8525984D02*
X8217801Y-8525984D01*
X8217801Y-8525984D02*
X8198753Y-8516460D01*
X8198753Y-8516460D02*
X8189229Y-8506936D01*
X8398753Y-8525984D02*
X8436849Y-8525984D01*
X8436849Y-8525984D02*
X8455896Y-8516460D01*
X8455896Y-8516460D02*
X8465420Y-8506936D01*
X8465420Y-8506936D02*
X8484468Y-8478365D01*
X8484468Y-8478365D02*
X8493991Y-8440270D01*
X8493991Y-8440270D02*
X8493991Y-8364079D01*
X8493991Y-8364079D02*
X8484468Y-8345031D01*
X8484468Y-8345031D02*
X8474944Y-8335508D01*
X8474944Y-8335508D02*
X8455896Y-8325984D01*
X8455896Y-8325984D02*
X8417801Y-8325984D01*
X8417801Y-8325984D02*
X8398753Y-8335508D01*
X8398753Y-8335508D02*
X8389230Y-8345031D01*
X8389230Y-8345031D02*
X8379706Y-8364079D01*
X8379706Y-8364079D02*
X8379706Y-8411698D01*
X8379706Y-8411698D02*
X8389230Y-8430746D01*
X8389230Y-8430746D02*
X8398753Y-8440270D01*
X8398753Y-8440270D02*
X8417801Y-8449793D01*
X8417801Y-8449793D02*
X8455896Y-8449793D01*
X8455896Y-8449793D02*
X8474944Y-8440270D01*
X8474944Y-8440270D02*
X8484468Y-8430746D01*
X8484468Y-8430746D02*
X8493991Y-8411698D01*
X8732087Y-8525984D02*
X8732087Y-8325984D01*
X8817801Y-8525984D02*
X8817801Y-8421222D01*
X8817801Y-8421222D02*
X8808277Y-8402174D01*
X8808277Y-8402174D02*
X8789230Y-8392650D01*
X8789230Y-8392650D02*
X8760658Y-8392650D01*
X8760658Y-8392650D02*
X8741611Y-8402174D01*
X8741611Y-8402174D02*
X8732087Y-8411698D01*
X8941611Y-8525984D02*
X8922563Y-8516460D01*
X8922563Y-8516460D02*
X8913039Y-8506936D01*
X8913039Y-8506936D02*
X8903515Y-8487889D01*
X8903515Y-8487889D02*
X8903515Y-8430746D01*
X8903515Y-8430746D02*
X8913039Y-8411698D01*
X8913039Y-8411698D02*
X8922563Y-8402174D01*
X8922563Y-8402174D02*
X8941611Y-8392650D01*
X8941611Y-8392650D02*
X8970182Y-8392650D01*
X8970182Y-8392650D02*
X8989230Y-8402174D01*
X8989230Y-8402174D02*
X8998753Y-8411698D01*
X8998753Y-8411698D02*
X9008277Y-8430746D01*
X9008277Y-8430746D02*
X9008277Y-8487889D01*
X9008277Y-8487889D02*
X8998753Y-8506936D01*
X8998753Y-8506936D02*
X8989230Y-8516460D01*
X8989230Y-8516460D02*
X8970182Y-8525984D01*
X8970182Y-8525984D02*
X8941611Y-8525984D01*
X9122563Y-8525984D02*
X9103515Y-8516460D01*
X9103515Y-8516460D02*
X9093992Y-8497412D01*
X9093992Y-8497412D02*
X9093992Y-8325984D01*
X9274944Y-8516460D02*
X9255896Y-8525984D01*
X9255896Y-8525984D02*
X9217801Y-8525984D01*
X9217801Y-8525984D02*
X9198753Y-8516460D01*
X9198753Y-8516460D02*
X9189230Y-8497412D01*
X9189230Y-8497412D02*
X9189230Y-8421222D01*
X9189230Y-8421222D02*
X9198753Y-8402174D01*
X9198753Y-8402174D02*
X9217801Y-8392650D01*
X9217801Y-8392650D02*
X9255896Y-8392650D01*
X9255896Y-8392650D02*
X9274944Y-8402174D01*
X9274944Y-8402174D02*
X9284468Y-8421222D01*
X9284468Y-8421222D02*
X9284468Y-8440270D01*
X9284468Y-8440270D02*
X9189230Y-8459317D01*
X9360658Y-8516460D02*
X9379706Y-8525984D01*
X9379706Y-8525984D02*
X9417801Y-8525984D01*
X9417801Y-8525984D02*
X9436849Y-8516460D01*
X9436849Y-8516460D02*
X9446373Y-8497412D01*
X9446373Y-8497412D02*
X9446373Y-8487889D01*
X9446373Y-8487889D02*
X9436849Y-8468841D01*
X9436849Y-8468841D02*
X9417801Y-8459317D01*
X9417801Y-8459317D02*
X9389230Y-8459317D01*
X9389230Y-8459317D02*
X9370182Y-8449793D01*
X9370182Y-8449793D02*
X9360658Y-8430746D01*
X9360658Y-8430746D02*
X9360658Y-8421222D01*
X9360658Y-8421222D02*
X9370182Y-8402174D01*
X9370182Y-8402174D02*
X9389230Y-8392650D01*
X9389230Y-8392650D02*
X9417801Y-8392650D01*
X9417801Y-8392650D02*
X9436849Y-8402174D01*
X9513039Y-8602174D02*
X9522563Y-8592650D01*
X9522563Y-8592650D02*
X9541611Y-8564079D01*
X9541611Y-8564079D02*
X9551134Y-8545031D01*
X9551134Y-8545031D02*
X9560658Y-8516460D01*
X9560658Y-8516460D02*
X9570182Y-8468841D01*
X9570182Y-8468841D02*
X9570182Y-8430746D01*
X9570182Y-8430746D02*
X9560658Y-8383127D01*
X9560658Y-8383127D02*
X9551134Y-8354555D01*
X9551134Y-8354555D02*
X9541611Y-8335508D01*
X9541611Y-8335508D02*
X9522563Y-8306936D01*
X9522563Y-8306936D02*
X9513039Y-8297412D01*
D12*
X4497500Y-8748500D02*
X4547500Y-8698500D01*
X4497500Y-8648500D01*
X4447500Y-8698500D01*
X4497500Y-8748500D01*
D11*
X4913039Y-8789984D02*
X4798753Y-8789984D01*
X4855896Y-8789984D02*
X4855896Y-8589984D01*
X4855896Y-8589984D02*
X4836848Y-8618555D01*
X4836848Y-8618555D02*
X4817801Y-8637603D01*
X4817801Y-8637603D02*
X4798753Y-8647127D01*
X4998753Y-8770936D02*
X5008277Y-8780460D01*
X5008277Y-8780460D02*
X4998753Y-8789984D01*
X4998753Y-8789984D02*
X4989229Y-8780460D01*
X4989229Y-8780460D02*
X4998753Y-8770936D01*
X4998753Y-8770936D02*
X4998753Y-8789984D01*
X5132086Y-8589984D02*
X5151134Y-8589984D01*
X5151134Y-8589984D02*
X5170182Y-8599508D01*
X5170182Y-8599508D02*
X5179705Y-8609031D01*
X5179705Y-8609031D02*
X5189229Y-8628079D01*
X5189229Y-8628079D02*
X5198753Y-8666174D01*
X5198753Y-8666174D02*
X5198753Y-8713793D01*
X5198753Y-8713793D02*
X5189229Y-8751889D01*
X5189229Y-8751889D02*
X5179705Y-8770936D01*
X5179705Y-8770936D02*
X5170182Y-8780460D01*
X5170182Y-8780460D02*
X5151134Y-8789984D01*
X5151134Y-8789984D02*
X5132086Y-8789984D01*
X5132086Y-8789984D02*
X5113039Y-8780460D01*
X5113039Y-8780460D02*
X5103515Y-8770936D01*
X5103515Y-8770936D02*
X5093991Y-8751889D01*
X5093991Y-8751889D02*
X5084467Y-8713793D01*
X5084467Y-8713793D02*
X5084467Y-8666174D01*
X5084467Y-8666174D02*
X5093991Y-8628079D01*
X5093991Y-8628079D02*
X5103515Y-8609031D01*
X5103515Y-8609031D02*
X5113039Y-8599508D01*
X5113039Y-8599508D02*
X5132086Y-8589984D01*
X5322563Y-8589984D02*
X5341610Y-8589984D01*
X5341610Y-8589984D02*
X5360658Y-8599508D01*
X5360658Y-8599508D02*
X5370182Y-8609031D01*
X5370182Y-8609031D02*
X5379705Y-8628079D01*
X5379705Y-8628079D02*
X5389229Y-8666174D01*
X5389229Y-8666174D02*
X5389229Y-8713793D01*
X5389229Y-8713793D02*
X5379705Y-8751889D01*
X5379705Y-8751889D02*
X5370182Y-8770936D01*
X5370182Y-8770936D02*
X5360658Y-8780460D01*
X5360658Y-8780460D02*
X5341610Y-8789984D01*
X5341610Y-8789984D02*
X5322563Y-8789984D01*
X5322563Y-8789984D02*
X5303515Y-8780460D01*
X5303515Y-8780460D02*
X5293991Y-8770936D01*
X5293991Y-8770936D02*
X5284467Y-8751889D01*
X5284467Y-8751889D02*
X5274944Y-8713793D01*
X5274944Y-8713793D02*
X5274944Y-8666174D01*
X5274944Y-8666174D02*
X5284467Y-8628079D01*
X5284467Y-8628079D02*
X5293991Y-8609031D01*
X5293991Y-8609031D02*
X5303515Y-8599508D01*
X5303515Y-8599508D02*
X5322563Y-8589984D01*
X5513039Y-8589984D02*
X5532086Y-8589984D01*
X5532086Y-8589984D02*
X5551134Y-8599508D01*
X5551134Y-8599508D02*
X5560658Y-8609031D01*
X5560658Y-8609031D02*
X5570182Y-8628079D01*
X5570182Y-8628079D02*
X5579705Y-8666174D01*
X5579705Y-8666174D02*
X5579705Y-8713793D01*
X5579705Y-8713793D02*
X5570182Y-8751889D01*
X5570182Y-8751889D02*
X5560658Y-8770936D01*
X5560658Y-8770936D02*
X5551134Y-8780460D01*
X5551134Y-8780460D02*
X5532086Y-8789984D01*
X5532086Y-8789984D02*
X5513039Y-8789984D01*
X5513039Y-8789984D02*
X5493991Y-8780460D01*
X5493991Y-8780460D02*
X5484467Y-8770936D01*
X5484467Y-8770936D02*
X5474944Y-8751889D01*
X5474944Y-8751889D02*
X5465420Y-8713793D01*
X5465420Y-8713793D02*
X5465420Y-8666174D01*
X5465420Y-8666174D02*
X5474944Y-8628079D01*
X5474944Y-8628079D02*
X5484467Y-8609031D01*
X5484467Y-8609031D02*
X5493991Y-8599508D01*
X5493991Y-8599508D02*
X5513039Y-8589984D01*
X5665420Y-8789984D02*
X5665420Y-8656650D01*
X5665420Y-8675698D02*
X5674943Y-8666174D01*
X5674943Y-8666174D02*
X5693991Y-8656650D01*
X5693991Y-8656650D02*
X5722563Y-8656650D01*
X5722563Y-8656650D02*
X5741610Y-8666174D01*
X5741610Y-8666174D02*
X5751134Y-8685222D01*
X5751134Y-8685222D02*
X5751134Y-8789984D01*
X5751134Y-8685222D02*
X5760658Y-8666174D01*
X5760658Y-8666174D02*
X5779705Y-8656650D01*
X5779705Y-8656650D02*
X5808277Y-8656650D01*
X5808277Y-8656650D02*
X5827324Y-8666174D01*
X5827324Y-8666174D02*
X5836848Y-8685222D01*
X5836848Y-8685222D02*
X5836848Y-8789984D01*
X5932086Y-8789984D02*
X5932086Y-8656650D01*
X5932086Y-8675698D02*
X5941610Y-8666174D01*
X5941610Y-8666174D02*
X5960658Y-8656650D01*
X5960658Y-8656650D02*
X5989229Y-8656650D01*
X5989229Y-8656650D02*
X6008277Y-8666174D01*
X6008277Y-8666174D02*
X6017801Y-8685222D01*
X6017801Y-8685222D02*
X6017801Y-8789984D01*
X6017801Y-8685222D02*
X6027324Y-8666174D01*
X6027324Y-8666174D02*
X6046372Y-8656650D01*
X6046372Y-8656650D02*
X6074943Y-8656650D01*
X6074943Y-8656650D02*
X6093991Y-8666174D01*
X6093991Y-8666174D02*
X6103515Y-8685222D01*
X6103515Y-8685222D02*
X6103515Y-8789984D01*
X6493991Y-8580460D02*
X6322563Y-8837603D01*
X6751134Y-8589984D02*
X6770182Y-8589984D01*
X6770182Y-8589984D02*
X6789229Y-8599508D01*
X6789229Y-8599508D02*
X6798753Y-8609031D01*
X6798753Y-8609031D02*
X6808277Y-8628079D01*
X6808277Y-8628079D02*
X6817801Y-8666174D01*
X6817801Y-8666174D02*
X6817801Y-8713793D01*
X6817801Y-8713793D02*
X6808277Y-8751889D01*
X6808277Y-8751889D02*
X6798753Y-8770936D01*
X6798753Y-8770936D02*
X6789229Y-8780460D01*
X6789229Y-8780460D02*
X6770182Y-8789984D01*
X6770182Y-8789984D02*
X6751134Y-8789984D01*
X6751134Y-8789984D02*
X6732086Y-8780460D01*
X6732086Y-8780460D02*
X6722563Y-8770936D01*
X6722563Y-8770936D02*
X6713039Y-8751889D01*
X6713039Y-8751889D02*
X6703515Y-8713793D01*
X6703515Y-8713793D02*
X6703515Y-8666174D01*
X6703515Y-8666174D02*
X6713039Y-8628079D01*
X6713039Y-8628079D02*
X6722563Y-8609031D01*
X6722563Y-8609031D02*
X6732086Y-8599508D01*
X6732086Y-8599508D02*
X6751134Y-8589984D01*
X6903515Y-8770936D02*
X6913039Y-8780460D01*
X6913039Y-8780460D02*
X6903515Y-8789984D01*
X6903515Y-8789984D02*
X6893991Y-8780460D01*
X6893991Y-8780460D02*
X6903515Y-8770936D01*
X6903515Y-8770936D02*
X6903515Y-8789984D01*
X7036848Y-8589984D02*
X7055896Y-8589984D01*
X7055896Y-8589984D02*
X7074944Y-8599508D01*
X7074944Y-8599508D02*
X7084467Y-8609031D01*
X7084467Y-8609031D02*
X7093991Y-8628079D01*
X7093991Y-8628079D02*
X7103515Y-8666174D01*
X7103515Y-8666174D02*
X7103515Y-8713793D01*
X7103515Y-8713793D02*
X7093991Y-8751889D01*
X7093991Y-8751889D02*
X7084467Y-8770936D01*
X7084467Y-8770936D02*
X7074944Y-8780460D01*
X7074944Y-8780460D02*
X7055896Y-8789984D01*
X7055896Y-8789984D02*
X7036848Y-8789984D01*
X7036848Y-8789984D02*
X7017801Y-8780460D01*
X7017801Y-8780460D02*
X7008277Y-8770936D01*
X7008277Y-8770936D02*
X6998753Y-8751889D01*
X6998753Y-8751889D02*
X6989229Y-8713793D01*
X6989229Y-8713793D02*
X6989229Y-8666174D01*
X6989229Y-8666174D02*
X6998753Y-8628079D01*
X6998753Y-8628079D02*
X7008277Y-8609031D01*
X7008277Y-8609031D02*
X7017801Y-8599508D01*
X7017801Y-8599508D02*
X7036848Y-8589984D01*
X7170182Y-8589984D02*
X7293991Y-8589984D01*
X7293991Y-8589984D02*
X7227325Y-8666174D01*
X7227325Y-8666174D02*
X7255896Y-8666174D01*
X7255896Y-8666174D02*
X7274944Y-8675698D01*
X7274944Y-8675698D02*
X7284467Y-8685222D01*
X7284467Y-8685222D02*
X7293991Y-8704270D01*
X7293991Y-8704270D02*
X7293991Y-8751889D01*
X7293991Y-8751889D02*
X7284467Y-8770936D01*
X7284467Y-8770936D02*
X7274944Y-8780460D01*
X7274944Y-8780460D02*
X7255896Y-8789984D01*
X7255896Y-8789984D02*
X7198753Y-8789984D01*
X7198753Y-8789984D02*
X7179706Y-8780460D01*
X7179706Y-8780460D02*
X7170182Y-8770936D01*
X7389229Y-8789984D02*
X7427325Y-8789984D01*
X7427325Y-8789984D02*
X7446372Y-8780460D01*
X7446372Y-8780460D02*
X7455896Y-8770936D01*
X7455896Y-8770936D02*
X7474944Y-8742365D01*
X7474944Y-8742365D02*
X7484467Y-8704270D01*
X7484467Y-8704270D02*
X7484467Y-8628079D01*
X7484467Y-8628079D02*
X7474944Y-8609031D01*
X7474944Y-8609031D02*
X7465420Y-8599508D01*
X7465420Y-8599508D02*
X7446372Y-8589984D01*
X7446372Y-8589984D02*
X7408277Y-8589984D01*
X7408277Y-8589984D02*
X7389229Y-8599508D01*
X7389229Y-8599508D02*
X7379706Y-8609031D01*
X7379706Y-8609031D02*
X7370182Y-8628079D01*
X7370182Y-8628079D02*
X7370182Y-8675698D01*
X7370182Y-8675698D02*
X7379706Y-8694746D01*
X7379706Y-8694746D02*
X7389229Y-8704270D01*
X7389229Y-8704270D02*
X7408277Y-8713793D01*
X7408277Y-8713793D02*
X7446372Y-8713793D01*
X7446372Y-8713793D02*
X7465420Y-8704270D01*
X7465420Y-8704270D02*
X7474944Y-8694746D01*
X7474944Y-8694746D02*
X7484467Y-8675698D01*
X7655896Y-8656650D02*
X7655896Y-8789984D01*
X7608277Y-8580460D02*
X7560658Y-8723317D01*
X7560658Y-8723317D02*
X7684467Y-8723317D01*
X7751134Y-8589984D02*
X7751134Y-8628079D01*
X7827325Y-8589984D02*
X7827325Y-8628079D01*
X8122563Y-8866174D02*
X8113039Y-8856650D01*
X8113039Y-8856650D02*
X8093991Y-8828079D01*
X8093991Y-8828079D02*
X8084468Y-8809031D01*
X8084468Y-8809031D02*
X8074944Y-8780460D01*
X8074944Y-8780460D02*
X8065420Y-8732841D01*
X8065420Y-8732841D02*
X8065420Y-8694746D01*
X8065420Y-8694746D02*
X8074944Y-8647127D01*
X8074944Y-8647127D02*
X8084468Y-8618555D01*
X8084468Y-8618555D02*
X8093991Y-8599508D01*
X8093991Y-8599508D02*
X8113039Y-8570936D01*
X8113039Y-8570936D02*
X8122563Y-8561412D01*
X8189229Y-8609031D02*
X8198753Y-8599508D01*
X8198753Y-8599508D02*
X8217801Y-8589984D01*
X8217801Y-8589984D02*
X8265420Y-8589984D01*
X8265420Y-8589984D02*
X8284468Y-8599508D01*
X8284468Y-8599508D02*
X8293991Y-8609031D01*
X8293991Y-8609031D02*
X8303515Y-8628079D01*
X8303515Y-8628079D02*
X8303515Y-8647127D01*
X8303515Y-8647127D02*
X8293991Y-8675698D01*
X8293991Y-8675698D02*
X8179706Y-8789984D01*
X8179706Y-8789984D02*
X8303515Y-8789984D01*
X8417801Y-8675698D02*
X8398753Y-8666174D01*
X8398753Y-8666174D02*
X8389230Y-8656650D01*
X8389230Y-8656650D02*
X8379706Y-8637603D01*
X8379706Y-8637603D02*
X8379706Y-8628079D01*
X8379706Y-8628079D02*
X8389230Y-8609031D01*
X8389230Y-8609031D02*
X8398753Y-8599508D01*
X8398753Y-8599508D02*
X8417801Y-8589984D01*
X8417801Y-8589984D02*
X8455896Y-8589984D01*
X8455896Y-8589984D02*
X8474944Y-8599508D01*
X8474944Y-8599508D02*
X8484468Y-8609031D01*
X8484468Y-8609031D02*
X8493991Y-8628079D01*
X8493991Y-8628079D02*
X8493991Y-8637603D01*
X8493991Y-8637603D02*
X8484468Y-8656650D01*
X8484468Y-8656650D02*
X8474944Y-8666174D01*
X8474944Y-8666174D02*
X8455896Y-8675698D01*
X8455896Y-8675698D02*
X8417801Y-8675698D01*
X8417801Y-8675698D02*
X8398753Y-8685222D01*
X8398753Y-8685222D02*
X8389230Y-8694746D01*
X8389230Y-8694746D02*
X8379706Y-8713793D01*
X8379706Y-8713793D02*
X8379706Y-8751889D01*
X8379706Y-8751889D02*
X8389230Y-8770936D01*
X8389230Y-8770936D02*
X8398753Y-8780460D01*
X8398753Y-8780460D02*
X8417801Y-8789984D01*
X8417801Y-8789984D02*
X8455896Y-8789984D01*
X8455896Y-8789984D02*
X8474944Y-8780460D01*
X8474944Y-8780460D02*
X8484468Y-8770936D01*
X8484468Y-8770936D02*
X8493991Y-8751889D01*
X8493991Y-8751889D02*
X8493991Y-8713793D01*
X8493991Y-8713793D02*
X8484468Y-8694746D01*
X8484468Y-8694746D02*
X8474944Y-8685222D01*
X8474944Y-8685222D02*
X8455896Y-8675698D01*
X8732087Y-8789984D02*
X8732087Y-8589984D01*
X8817801Y-8789984D02*
X8817801Y-8685222D01*
X8817801Y-8685222D02*
X8808277Y-8666174D01*
X8808277Y-8666174D02*
X8789230Y-8656650D01*
X8789230Y-8656650D02*
X8760658Y-8656650D01*
X8760658Y-8656650D02*
X8741611Y-8666174D01*
X8741611Y-8666174D02*
X8732087Y-8675698D01*
X8941611Y-8789984D02*
X8922563Y-8780460D01*
X8922563Y-8780460D02*
X8913039Y-8770936D01*
X8913039Y-8770936D02*
X8903515Y-8751889D01*
X8903515Y-8751889D02*
X8903515Y-8694746D01*
X8903515Y-8694746D02*
X8913039Y-8675698D01*
X8913039Y-8675698D02*
X8922563Y-8666174D01*
X8922563Y-8666174D02*
X8941611Y-8656650D01*
X8941611Y-8656650D02*
X8970182Y-8656650D01*
X8970182Y-8656650D02*
X8989230Y-8666174D01*
X8989230Y-8666174D02*
X8998753Y-8675698D01*
X8998753Y-8675698D02*
X9008277Y-8694746D01*
X9008277Y-8694746D02*
X9008277Y-8751889D01*
X9008277Y-8751889D02*
X8998753Y-8770936D01*
X8998753Y-8770936D02*
X8989230Y-8780460D01*
X8989230Y-8780460D02*
X8970182Y-8789984D01*
X8970182Y-8789984D02*
X8941611Y-8789984D01*
X9122563Y-8789984D02*
X9103515Y-8780460D01*
X9103515Y-8780460D02*
X9093992Y-8761412D01*
X9093992Y-8761412D02*
X9093992Y-8589984D01*
X9274944Y-8780460D02*
X9255896Y-8789984D01*
X9255896Y-8789984D02*
X9217801Y-8789984D01*
X9217801Y-8789984D02*
X9198753Y-8780460D01*
X9198753Y-8780460D02*
X9189230Y-8761412D01*
X9189230Y-8761412D02*
X9189230Y-8685222D01*
X9189230Y-8685222D02*
X9198753Y-8666174D01*
X9198753Y-8666174D02*
X9217801Y-8656650D01*
X9217801Y-8656650D02*
X9255896Y-8656650D01*
X9255896Y-8656650D02*
X9274944Y-8666174D01*
X9274944Y-8666174D02*
X9284468Y-8685222D01*
X9284468Y-8685222D02*
X9284468Y-8704270D01*
X9284468Y-8704270D02*
X9189230Y-8723317D01*
X9360658Y-8780460D02*
X9379706Y-8789984D01*
X9379706Y-8789984D02*
X9417801Y-8789984D01*
X9417801Y-8789984D02*
X9436849Y-8780460D01*
X9436849Y-8780460D02*
X9446373Y-8761412D01*
X9446373Y-8761412D02*
X9446373Y-8751889D01*
X9446373Y-8751889D02*
X9436849Y-8732841D01*
X9436849Y-8732841D02*
X9417801Y-8723317D01*
X9417801Y-8723317D02*
X9389230Y-8723317D01*
X9389230Y-8723317D02*
X9370182Y-8713793D01*
X9370182Y-8713793D02*
X9360658Y-8694746D01*
X9360658Y-8694746D02*
X9360658Y-8685222D01*
X9360658Y-8685222D02*
X9370182Y-8666174D01*
X9370182Y-8666174D02*
X9389230Y-8656650D01*
X9389230Y-8656650D02*
X9417801Y-8656650D01*
X9417801Y-8656650D02*
X9436849Y-8666174D01*
X9513039Y-8866174D02*
X9522563Y-8856650D01*
X9522563Y-8856650D02*
X9541611Y-8828079D01*
X9541611Y-8828079D02*
X9551134Y-8809031D01*
X9551134Y-8809031D02*
X9560658Y-8780460D01*
X9560658Y-8780460D02*
X9570182Y-8732841D01*
X9570182Y-8732841D02*
X9570182Y-8694746D01*
X9570182Y-8694746D02*
X9560658Y-8647127D01*
X9560658Y-8647127D02*
X9551134Y-8618555D01*
X9551134Y-8618555D02*
X9541611Y-8599508D01*
X9541611Y-8599508D02*
X9522563Y-8570936D01*
X9522563Y-8570936D02*
X9513039Y-8561412D01*
M02*
