G04 #@! TF.GenerationSoftware,KiCad,Pcbnew,8.0.1-8.0.1-1~ubuntu22.04.1*
G04 #@! TF.CreationDate,2024-04-26T22:25:14-04:00*
G04 #@! TF.ProjectId,tinytapeout-demo,74696e79-7461-4706-956f-75742d64656d,1.2.2*
G04 #@! TF.SameCoordinates,PX35e1f20PY8044ea0*
G04 #@! TF.FileFunction,Profile,NP*
%FSLAX46Y46*%
G04 Gerber Fmt 4.6, Leading zero omitted, Abs format (unit mm)*
G04 Created by KiCad (PCBNEW 8.0.1-8.0.1-1~ubuntu22.04.1) date 2024-04-26 22:25:14*
%MOMM*%
%LPD*%
G01*
G04 APERTURE LIST*
G04 #@! TA.AperFunction,Profile*
%ADD10C,0.100000*%
G04 #@! TD*
G04 #@! TA.AperFunction,Profile*
%ADD11C,0.080000*%
G04 #@! TD*
G04 APERTURE END LIST*
D10*
X23230000Y81000000D02*
G75*
G02*
X23630000Y80600000I0J-400000D01*
G01*
X32870000Y80600000D02*
G75*
G02*
X33270000Y81000000I400000J0D01*
G01*
X101500000Y81000000D02*
G75*
G02*
X104500000Y78000000I0J-3000000D01*
G01*
X33270000Y81000000D02*
X101500000Y81000000D01*
X101500000Y0D02*
X3000000Y0D01*
X104500000Y78000000D02*
X104500000Y3000000D01*
X3000000Y0D02*
G75*
G02*
X0Y3000000I0J3000000D01*
G01*
X23230000Y81000000D02*
X3000000Y81000000D01*
X0Y78000000D02*
G75*
G02*
X3000000Y81000000I3000000J0D01*
G01*
X0Y3000000D02*
X0Y78000000D01*
X104500000Y3000000D02*
G75*
G02*
X101500000Y0I-3000000J0D01*
G01*
D11*
G04 #@! TO.C,J15*
X23630000Y74400000D02*
X23630000Y80600000D01*
X32070000Y74400000D02*
X24430000Y74400000D01*
X32870000Y80600000D02*
X32870000Y74400000D01*
X23955000Y74000000D02*
G75*
G02*
X23630000Y74400000I37500J362500D01*
G01*
X24279997Y74279999D02*
G75*
G02*
X23955000Y74000003I-302497J22501D01*
G01*
X24280002Y74279999D02*
G75*
G02*
X24430000Y74399998I134998J-14999D01*
G01*
X32070001Y74399998D02*
G75*
G02*
X32219998Y74280000I15000J-134997D01*
G01*
X32545000Y74000001D02*
G75*
G02*
X32220001Y74280000I-22501J302498D01*
G01*
X32869999Y74400000D02*
G75*
G02*
X32545000Y74000001I-362501J-37499D01*
G01*
G04 #@! TD*
M02*
