G04 #@! TF.GenerationSoftware,KiCad,Pcbnew,10.0.5-10.0.5~ubuntu24.04.1*
G04 #@! TF.CreationDate,2026-09-01T15:38:33-04:00*
G04 #@! TF.ProjectId,pmod-rotaryencoder,706d6f64-2d72-46f7-9461-7279656e636f,1.1*
G04 #@! TF.SameCoordinates,Original*
G04 #@! TF.FileFunction,Copper,L1,Top*
G04 #@! TF.FilePolarity,Positive*
%FSLAX46Y46*%
G04 Gerber Fmt 4.6, Leading zero omitted, Abs format (unit mm)*
G04 Created by KiCad (PCBNEW 10.0.5-10.0.5~ubuntu24.04.1) date 2026-09-01 15:38:33*
%MOMM*%
%LPD*%
G01*
G04 APERTURE LIST*
G04 Aperture macros list*
%AMRoundRect*
0 Rectangle with rounded corners*
0 $1 Rounding radius*
0 $2 $3 $4 $5 $6 $7 $8 $9 X,Y pos of 4 corners*
0 Add a 4 corners polygon primitive as box body*
4,1,4,$2,$3,$4,$5,$6,$7,$8,$9,$2,$3,0*
0 Add four circle primitives for the rounded corners*
1,1,$1+$1,$2,$3*
1,1,$1+$1,$4,$5*
1,1,$1+$1,$6,$7*
1,1,$1+$1,$8,$9*
0 Add four rect primitives between the rounded corners*
20,1,$1+$1,$2,$3,$4,$5,0*
20,1,$1+$1,$4,$5,$6,$7,0*
20,1,$1+$1,$6,$7,$8,$9,0*
20,1,$1+$1,$8,$9,$2,$3,0*%
G04 Aperture macros list end*
G04 #@! TA.AperFunction,ComponentPad*
%ADD10C,0.820000*%
G04 #@! TD*
G04 #@! TA.AperFunction,SMDPad,CuDef*
%ADD11RoundRect,0.225000X-0.225000X-0.250000X0.225000X-0.250000X0.225000X0.250000X-0.225000X0.250000X0*%
G04 #@! TD*
G04 #@! TA.AperFunction,SMDPad,CuDef*
%ADD12RoundRect,0.135000X-0.135000X-0.185000X0.135000X-0.185000X0.135000X0.185000X-0.135000X0.185000X0*%
G04 #@! TD*
G04 #@! TA.AperFunction,SMDPad,CuDef*
%ADD13RoundRect,0.135000X0.135000X0.185000X-0.135000X0.185000X-0.135000X-0.185000X0.135000X-0.185000X0*%
G04 #@! TD*
G04 #@! TA.AperFunction,SMDPad,CuDef*
%ADD14RoundRect,0.135000X0.226274X0.035355X0.035355X0.226274X-0.226274X-0.035355X-0.035355X-0.226274X0*%
G04 #@! TD*
G04 #@! TA.AperFunction,ComponentPad*
%ADD15R,1.700000X1.700000*%
G04 #@! TD*
G04 #@! TA.AperFunction,ComponentPad*
%ADD16O,1.700000X1.700000*%
G04 #@! TD*
G04 #@! TA.AperFunction,ComponentPad*
%ADD17C,1.700000*%
G04 #@! TD*
G04 #@! TA.AperFunction,SMDPad,CuDef*
%ADD18RoundRect,0.135000X-0.226274X-0.035355X-0.035355X-0.226274X0.226274X0.035355X0.035355X0.226274X0*%
G04 #@! TD*
G04 #@! TA.AperFunction,SMDPad,CuDef*
%ADD19RoundRect,0.135000X-0.035355X0.226274X-0.226274X0.035355X0.035355X-0.226274X0.226274X-0.035355X0*%
G04 #@! TD*
G04 #@! TA.AperFunction,SMDPad,CuDef*
%ADD20RoundRect,0.135000X0.035355X-0.226274X0.226274X-0.035355X-0.035355X0.226274X-0.226274X0.035355X0*%
G04 #@! TD*
G04 #@! TA.AperFunction,SMDPad,CuDef*
%ADD21RoundRect,0.140000X-0.140000X-0.170000X0.140000X-0.170000X0.140000X0.170000X-0.140000X0.170000X0*%
G04 #@! TD*
G04 #@! TA.AperFunction,ComponentPad*
%ADD22R,1.800000X1.800000*%
G04 #@! TD*
G04 #@! TA.AperFunction,ComponentPad*
%ADD23C,1.800000*%
G04 #@! TD*
G04 #@! TA.AperFunction,ComponentPad*
%ADD24O,3.000000X6.000000*%
G04 #@! TD*
G04 #@! TA.AperFunction,SMDPad,CuDef*
%ADD25RoundRect,0.140000X0.140000X0.170000X-0.140000X0.170000X-0.140000X-0.170000X0.140000X-0.170000X0*%
G04 #@! TD*
G04 #@! TA.AperFunction,ViaPad*
%ADD26C,0.650000*%
G04 #@! TD*
G04 #@! TA.AperFunction,ViaPad*
%ADD27C,0.800000*%
G04 #@! TD*
G04 #@! TA.AperFunction,Conductor*
%ADD28C,0.250000*%
G04 #@! TD*
G04 #@! TA.AperFunction,Conductor*
%ADD29C,0.300000*%
G04 #@! TD*
G04 #@! TA.AperFunction,Conductor*
%ADD30C,0.400000*%
G04 #@! TD*
G04 #@! TA.AperFunction,Conductor*
%ADD31C,0.200000*%
G04 #@! TD*
G04 APERTURE END LIST*
D10*
X47100000Y-49300000D03*
D11*
X34025000Y-49100000D03*
X35575000Y-49100000D03*
D12*
X39520000Y-47200000D03*
X40540000Y-47200000D03*
D13*
X40540000Y-48312500D03*
X39520000Y-48312500D03*
D10*
X31100000Y-35100000D03*
D14*
X48078842Y-32285812D03*
X47357594Y-31564564D03*
D15*
X42810000Y-33850000D03*
D16*
X42810000Y-36390000D03*
X42810000Y-38930000D03*
X42810000Y-41470000D03*
X42810000Y-44010000D03*
D17*
X42810000Y-46550000D03*
D16*
X45350000Y-33850000D03*
X45350000Y-36390000D03*
X45350000Y-38930000D03*
X45350000Y-41470000D03*
X45350000Y-44010000D03*
X45350000Y-46550000D03*
D18*
X48017594Y-30894564D03*
X48738842Y-31615812D03*
D19*
X48068842Y-30894564D03*
X47347594Y-31615812D03*
D20*
X48017594Y-32285812D03*
X48738842Y-31564564D03*
D13*
X40480000Y-32560000D03*
X39460000Y-32560000D03*
D21*
X39470000Y-34600000D03*
X40430000Y-34600000D03*
D10*
X47100000Y-47400000D03*
X62600000Y-44500000D03*
X55450000Y-40250000D03*
D21*
X39530000Y-49325000D03*
X40490000Y-49325000D03*
D10*
X56700000Y-44500000D03*
X51300000Y-31600000D03*
X62600000Y-35900000D03*
X60000000Y-34600000D03*
X53000000Y-49300000D03*
X40200000Y-31100000D03*
X59700000Y-31000000D03*
D21*
X39470000Y-38225000D03*
X40430000Y-38225000D03*
D12*
X39460000Y-33580000D03*
X40480000Y-33580000D03*
D10*
X39900000Y-45000000D03*
D15*
X36650000Y-33850000D03*
D16*
X36650000Y-36390000D03*
X36650000Y-38930000D03*
X36650000Y-41470000D03*
X36650000Y-44010000D03*
D17*
X36650000Y-46550000D03*
D16*
X34110000Y-33850000D03*
X34110000Y-36390000D03*
X34110000Y-38930000D03*
X34110000Y-41470000D03*
X34110000Y-44010000D03*
X34110000Y-46550000D03*
D22*
X57950000Y-47250000D03*
D23*
X52950000Y-47250000D03*
X57950000Y-32750000D03*
X52950000Y-32750000D03*
X55450000Y-32750000D03*
D24*
X61050000Y-40250000D03*
X49850000Y-40250000D03*
D10*
X47100000Y-37700000D03*
X31100000Y-45300000D03*
X62600000Y-49300000D03*
D25*
X37780000Y-49050000D03*
X36820000Y-49050000D03*
D12*
X39460000Y-36175000D03*
X40480000Y-36175000D03*
D10*
X31100000Y-31000000D03*
D12*
X39460000Y-37200000D03*
X40480000Y-37200000D03*
D10*
X31100000Y-49300000D03*
X31100000Y-40400000D03*
X47620000Y-33330000D03*
D26*
X41300000Y-38315000D03*
X41600000Y-49300000D03*
X35500000Y-47800000D03*
X47200000Y-43500000D03*
X46250000Y-31600000D03*
X36474260Y-48014496D03*
X41510613Y-47248016D03*
X42200000Y-31500000D03*
X38500000Y-33025000D03*
D27*
X32500000Y-31800000D03*
D26*
X38550370Y-35640000D03*
X38700000Y-48300000D03*
X50195900Y-31448975D03*
X41300000Y-31100000D03*
D28*
X42810000Y-44010000D02*
X42810000Y-43610000D01*
X34110000Y-44010000D02*
X31310000Y-44010000D01*
X42810000Y-44010000D02*
X42820000Y-44000000D01*
X41575000Y-49325000D02*
X41600000Y-49300000D01*
X40490000Y-49325000D02*
X41575000Y-49325000D01*
X46700000Y-44000000D02*
X47200000Y-43500000D01*
X42820000Y-44000000D02*
X46700000Y-44000000D01*
X40430000Y-34600000D02*
X40709999Y-34600000D01*
X42300000Y-31600000D02*
X46250000Y-31600000D01*
X36650000Y-44010000D02*
X42810000Y-44010000D01*
X40709999Y-34600000D02*
X41300000Y-34009999D01*
X40540000Y-47200000D02*
X41462597Y-47200000D01*
D29*
X35575000Y-47875000D02*
X35500000Y-47800000D01*
D28*
X41210000Y-38225000D02*
X41300000Y-38315000D01*
X41300000Y-32600000D02*
X42300000Y-31600000D01*
D29*
X36820000Y-48360236D02*
X36474260Y-48014496D01*
D28*
X41300000Y-34009999D02*
X41300000Y-32600000D01*
D29*
X36820000Y-49050000D02*
X36820000Y-48360236D01*
D28*
X40430000Y-38225000D02*
X41210000Y-38225000D01*
X31100000Y-44220000D02*
X31100000Y-45300000D01*
X34110000Y-44010000D02*
X36650000Y-44010000D01*
X31310000Y-44010000D02*
X31100000Y-44220000D01*
D29*
X35575000Y-49100000D02*
X35575000Y-47875000D01*
D28*
X41462597Y-47200000D02*
X41510613Y-47248016D01*
D29*
X37780000Y-47680000D02*
X36649999Y-46549999D01*
X38450000Y-31800000D02*
X38500000Y-31850000D01*
D30*
X45300000Y-46600000D02*
X46600000Y-45300000D01*
D29*
X39460000Y-32560000D02*
X38700000Y-31800000D01*
D30*
X36650000Y-46550000D02*
X34110000Y-46550000D01*
X56000000Y-45300000D02*
X57950000Y-47250000D01*
D29*
X39460000Y-36175000D02*
X39085370Y-36175000D01*
D30*
X36649999Y-46549999D02*
X36819998Y-46380000D01*
X36819998Y-46380000D02*
X42640000Y-46380000D01*
D29*
X39085370Y-36175000D02*
X38550370Y-35640000D01*
X38500000Y-31850000D02*
X38500000Y-33025000D01*
X38000000Y-31800000D02*
X38450000Y-31800000D01*
X38000000Y-31800000D02*
X32500000Y-31800000D01*
X37780000Y-49050000D02*
X37780000Y-47680000D01*
D30*
X34110000Y-49015000D02*
X34025000Y-49100000D01*
X36650000Y-46550000D02*
X36649999Y-46549999D01*
D29*
X38700000Y-31800000D02*
X38000000Y-31800000D01*
D30*
X34110000Y-46550000D02*
X34110000Y-49015000D01*
X46600000Y-45300000D02*
X56000000Y-45300000D01*
X42860000Y-46600000D02*
X45300000Y-46600000D01*
X42640000Y-46380000D02*
X42860000Y-46600000D01*
D28*
X39520000Y-47200000D02*
X39520000Y-47338220D01*
X40494280Y-48312500D02*
X40540000Y-48312500D01*
X51887500Y-48312500D02*
X52950000Y-47250000D01*
X39520000Y-47338220D02*
X40494280Y-48312500D01*
X40540000Y-48312500D02*
X51887500Y-48312500D01*
X42810000Y-38930000D02*
X42810000Y-38530000D01*
X36650000Y-38930000D02*
X37500000Y-39780000D01*
X39520000Y-48312500D02*
X39520000Y-49315000D01*
X41960000Y-39780000D02*
X42810000Y-38930000D01*
X39520000Y-49315000D02*
X39530000Y-49325000D01*
X39520000Y-48312500D02*
X38712500Y-48312500D01*
X38712500Y-48312500D02*
X38700000Y-48300000D01*
X37500000Y-39780000D02*
X41960000Y-39780000D01*
D29*
X48017594Y-32285812D02*
X48062782Y-32240624D01*
X48078842Y-32285812D02*
X48543030Y-32750000D01*
X48543030Y-32750000D02*
X52950000Y-32750000D01*
X40480000Y-36175000D02*
X41156752Y-36175000D01*
X40480000Y-36175000D02*
X40480000Y-37200000D01*
X45910000Y-35190000D02*
X46720000Y-34380000D01*
X42141752Y-35190000D02*
X45910000Y-35190000D01*
X46720000Y-34380000D02*
X46720000Y-32243406D01*
X41156752Y-36175000D02*
X42141752Y-35190000D01*
X46720000Y-32243406D02*
X47347594Y-31615812D01*
D28*
X36650000Y-33850000D02*
X38567090Y-33850000D01*
X42810000Y-33850000D02*
X42810000Y-33450000D01*
X38567090Y-33850000D02*
X40052090Y-35335000D01*
X39460000Y-34590000D02*
X39470000Y-34600000D01*
X39460000Y-33580000D02*
X39460000Y-34590000D01*
X40052090Y-35335000D02*
X41325000Y-35335000D01*
X41325000Y-35335000D02*
X42810000Y-33850000D01*
X37460000Y-37200000D02*
X39460000Y-37200000D01*
X39460000Y-38215000D02*
X39470000Y-38225000D01*
X36650000Y-36390000D02*
X37460000Y-37200000D01*
X39460000Y-37200000D02*
X39460000Y-38215000D01*
X42410000Y-41470000D02*
X42810000Y-41070000D01*
X36650000Y-41470000D02*
X42410000Y-41470000D01*
X34110000Y-38930000D02*
X35475000Y-40295000D01*
X35475000Y-40295000D02*
X43585000Y-40295000D01*
X43585000Y-40295000D02*
X45350000Y-38530000D01*
X43685000Y-42735000D02*
X45350000Y-41070000D01*
X34110000Y-41470000D02*
X35375000Y-42735000D01*
X35375000Y-42735000D02*
X43685000Y-42735000D01*
D29*
X55850000Y-30650000D02*
X48538752Y-30650000D01*
X48294188Y-30894564D02*
X48017594Y-30894564D01*
X57950000Y-32750000D02*
X55850000Y-30650000D01*
X48538752Y-30650000D02*
X48294188Y-30894564D01*
X40480000Y-32560000D02*
X40480000Y-32240001D01*
D31*
X48738842Y-31564564D02*
X48790090Y-31615812D01*
D29*
X40480000Y-32560000D02*
X40480000Y-33580000D01*
D28*
X50029063Y-31615812D02*
X50195900Y-31448975D01*
D29*
X40480000Y-32240001D02*
X41300000Y-31420001D01*
X41300000Y-31420001D02*
X41300000Y-31100000D01*
D31*
X48773406Y-31530000D02*
X48738842Y-31564564D01*
X50146925Y-31400000D02*
X50195900Y-31448975D01*
X50195900Y-31448975D02*
X50114875Y-31530000D01*
D28*
X48738842Y-31615812D02*
X50029063Y-31615812D01*
G04 #@! TA.AperFunction,Conductor*
G36*
X40783770Y-30520185D02*
G01*
X40829525Y-30572989D01*
X40839469Y-30642147D01*
X40816077Y-30695234D01*
X40817526Y-30696202D01*
X40745692Y-30803707D01*
X40745687Y-30803716D01*
X40698538Y-30917545D01*
X40698535Y-30917555D01*
X40674500Y-31038389D01*
X40674500Y-31161610D01*
X40698535Y-31282443D01*
X40698537Y-31282452D01*
X40698538Y-31282454D01*
X40700305Y-31288278D01*
X40697877Y-31289014D01*
X40704137Y-31347490D01*
X40672833Y-31409955D01*
X40669798Y-31413098D01*
X40119513Y-31963384D01*
X40119511Y-31963387D01*
X40095456Y-32005049D01*
X40061702Y-32042819D01*
X40043630Y-32056156D01*
X39978001Y-32080126D01*
X39909831Y-32064808D01*
X39896365Y-32056154D01*
X39893288Y-32053883D01*
X39800794Y-31985619D01*
X39800792Y-31985618D01*
X39676880Y-31942258D01*
X39647461Y-31939500D01*
X39647457Y-31939500D01*
X39527965Y-31939500D01*
X39460926Y-31919815D01*
X39440284Y-31903181D01*
X38976616Y-31439513D01*
X38976614Y-31439511D01*
X38886302Y-31387369D01*
X38873889Y-31380202D01*
X38873888Y-31380201D01*
X38873887Y-31380201D01*
X38835442Y-31369900D01*
X38835439Y-31369899D01*
X38786097Y-31356678D01*
X38759309Y-31349500D01*
X38759308Y-31349500D01*
X33091518Y-31349500D01*
X33024479Y-31329815D01*
X33003841Y-31313185D01*
X32946542Y-31255886D01*
X32946541Y-31255885D01*
X32946540Y-31255884D01*
X32831817Y-31179228D01*
X32831804Y-31179221D01*
X32704332Y-31126421D01*
X32704322Y-31126418D01*
X32568995Y-31099500D01*
X32568993Y-31099500D01*
X32431007Y-31099500D01*
X32431005Y-31099500D01*
X32295677Y-31126418D01*
X32295667Y-31126421D01*
X32168195Y-31179221D01*
X32168182Y-31179228D01*
X32053458Y-31255885D01*
X32053454Y-31255888D01*
X31955888Y-31353454D01*
X31955885Y-31353458D01*
X31879228Y-31468182D01*
X31879221Y-31468195D01*
X31826421Y-31595667D01*
X31826418Y-31595677D01*
X31799500Y-31731004D01*
X31799500Y-31731007D01*
X31799500Y-31868993D01*
X31799500Y-31868995D01*
X31799499Y-31868995D01*
X31826418Y-32004322D01*
X31826421Y-32004332D01*
X31879221Y-32131804D01*
X31879228Y-32131817D01*
X31955885Y-32246541D01*
X31955888Y-32246545D01*
X32053454Y-32344111D01*
X32053458Y-32344114D01*
X32168182Y-32420771D01*
X32168195Y-32420778D01*
X32284330Y-32468882D01*
X32295672Y-32473580D01*
X32295676Y-32473580D01*
X32295677Y-32473581D01*
X32431004Y-32500500D01*
X32431007Y-32500500D01*
X32568995Y-32500500D01*
X32660041Y-32482389D01*
X32704328Y-32473580D01*
X32831811Y-32420775D01*
X32946542Y-32344114D01*
X33003838Y-32286817D01*
X33065159Y-32253334D01*
X33091518Y-32250500D01*
X37925500Y-32250500D01*
X37992539Y-32270185D01*
X38038294Y-32322989D01*
X38049500Y-32374500D01*
X38049500Y-32539546D01*
X38029815Y-32606585D01*
X38017852Y-32621430D01*
X38018007Y-32621557D01*
X38014141Y-32626267D01*
X37945692Y-32728707D01*
X37945686Y-32728719D01*
X37931179Y-32763741D01*
X37887337Y-32818144D01*
X37821042Y-32840207D01*
X37753343Y-32822926D01*
X37728938Y-32803967D01*
X37672765Y-32747794D01*
X37569992Y-32702415D01*
X37544865Y-32699500D01*
X35755143Y-32699500D01*
X35755117Y-32699502D01*
X35730012Y-32702413D01*
X35730008Y-32702415D01*
X35627235Y-32747793D01*
X35547794Y-32827234D01*
X35502415Y-32930006D01*
X35502415Y-32930008D01*
X35499500Y-32955131D01*
X35499500Y-33692871D01*
X35479815Y-33759910D01*
X35427011Y-33805665D01*
X35357853Y-33815609D01*
X35294297Y-33786584D01*
X35256523Y-33727806D01*
X35253027Y-33712269D01*
X35245649Y-33665687D01*
X35232171Y-33580591D01*
X35176211Y-33408361D01*
X35176211Y-33408360D01*
X35131844Y-33321286D01*
X35093996Y-33247006D01*
X35067714Y-33210832D01*
X34987558Y-33100505D01*
X34987554Y-33100500D01*
X34859499Y-32972445D01*
X34859494Y-32972441D01*
X34712997Y-32866006D01*
X34712996Y-32866005D01*
X34712994Y-32866004D01*
X34661300Y-32839664D01*
X34551639Y-32783788D01*
X34551636Y-32783787D01*
X34379410Y-32727829D01*
X34200551Y-32699500D01*
X34200546Y-32699500D01*
X34019454Y-32699500D01*
X34019449Y-32699500D01*
X33840589Y-32727829D01*
X33668363Y-32783787D01*
X33668360Y-32783788D01*
X33507002Y-32866006D01*
X33360505Y-32972441D01*
X33360500Y-32972445D01*
X33232445Y-33100500D01*
X33232441Y-33100505D01*
X33126006Y-33247002D01*
X33043788Y-33408360D01*
X33043787Y-33408363D01*
X32987829Y-33580589D01*
X32959500Y-33759448D01*
X32959500Y-33940551D01*
X32987829Y-34119410D01*
X33043787Y-34291636D01*
X33043788Y-34291639D01*
X33079235Y-34361206D01*
X33126003Y-34452993D01*
X33126006Y-34452997D01*
X33232441Y-34599494D01*
X33232445Y-34599499D01*
X33360500Y-34727554D01*
X33360505Y-34727558D01*
X33459061Y-34799162D01*
X33507006Y-34833996D01*
X33583094Y-34872765D01*
X33668360Y-34916211D01*
X33668363Y-34916212D01*
X33754476Y-34944191D01*
X33840591Y-34972171D01*
X33913639Y-34983740D01*
X34000678Y-34997527D01*
X34063813Y-35027456D01*
X34100744Y-35086768D01*
X34099746Y-35156631D01*
X34061136Y-35214863D01*
X34000678Y-35242473D01*
X33840589Y-35267829D01*
X33668363Y-35323787D01*
X33668360Y-35323788D01*
X33507002Y-35406006D01*
X33360505Y-35512441D01*
X33360500Y-35512445D01*
X33232445Y-35640500D01*
X33232441Y-35640505D01*
X33126006Y-35787002D01*
X33043788Y-35948360D01*
X33043787Y-35948363D01*
X32987829Y-36120589D01*
X32959500Y-36299448D01*
X32959500Y-36480551D01*
X32987829Y-36659410D01*
X33043787Y-36831636D01*
X33043788Y-36831639D01*
X33126006Y-36992997D01*
X33232441Y-37139494D01*
X33232445Y-37139499D01*
X33360500Y-37267554D01*
X33360505Y-37267558D01*
X33488287Y-37360396D01*
X33507006Y-37373996D01*
X33612484Y-37427740D01*
X33668360Y-37456211D01*
X33668363Y-37456212D01*
X33701163Y-37466869D01*
X33840591Y-37512171D01*
X33913639Y-37523740D01*
X34000678Y-37537527D01*
X34063813Y-37567456D01*
X34100744Y-37626768D01*
X34099746Y-37696631D01*
X34061136Y-37754863D01*
X34000678Y-37782473D01*
X33840589Y-37807829D01*
X33668363Y-37863787D01*
X33668360Y-37863788D01*
X33507002Y-37946006D01*
X33360505Y-38052441D01*
X33360500Y-38052445D01*
X33232445Y-38180500D01*
X33232441Y-38180505D01*
X33126006Y-38327002D01*
X33043788Y-38488360D01*
X33043787Y-38488363D01*
X32987829Y-38660589D01*
X32959500Y-38839448D01*
X32959500Y-39020551D01*
X32987829Y-39199410D01*
X33043787Y-39371636D01*
X33043788Y-39371639D01*
X33126006Y-39532997D01*
X33232441Y-39679494D01*
X33232445Y-39679499D01*
X33360500Y-39807554D01*
X33360505Y-39807558D01*
X33403182Y-39838564D01*
X33507006Y-39913996D01*
X33612484Y-39967740D01*
X33668360Y-39996211D01*
X33668363Y-39996212D01*
X33717260Y-40012099D01*
X33840591Y-40052171D01*
X33913639Y-40063740D01*
X34000678Y-40077527D01*
X34063813Y-40107456D01*
X34100744Y-40166768D01*
X34099746Y-40236631D01*
X34061136Y-40294863D01*
X34000678Y-40322473D01*
X33840589Y-40347829D01*
X33668363Y-40403787D01*
X33668360Y-40403788D01*
X33507002Y-40486006D01*
X33360505Y-40592441D01*
X33360500Y-40592445D01*
X33232445Y-40720500D01*
X33232441Y-40720505D01*
X33126006Y-40867002D01*
X33043788Y-41028360D01*
X33043787Y-41028363D01*
X32987829Y-41200589D01*
X32959500Y-41379448D01*
X32959500Y-41560551D01*
X32987829Y-41739410D01*
X33043787Y-41911636D01*
X33043788Y-41911639D01*
X33126006Y-42072997D01*
X33232441Y-42219494D01*
X33232445Y-42219499D01*
X33360500Y-42347554D01*
X33360505Y-42347558D01*
X33403182Y-42378564D01*
X33507006Y-42453996D01*
X33608780Y-42505853D01*
X33638684Y-42521090D01*
X33689480Y-42569065D01*
X33706275Y-42636886D01*
X33683737Y-42703021D01*
X33629022Y-42746472D01*
X33620708Y-42749506D01*
X33591781Y-42758905D01*
X33402442Y-42855379D01*
X33230540Y-42980272D01*
X33230535Y-42980276D01*
X33080276Y-43130535D01*
X33080272Y-43130540D01*
X32955379Y-43302442D01*
X32858904Y-43491782D01*
X32793242Y-43693870D01*
X32793242Y-43693873D01*
X32782769Y-43760000D01*
X33676988Y-43760000D01*
X33644075Y-43817007D01*
X33610000Y-43944174D01*
X33610000Y-44075826D01*
X33644075Y-44202993D01*
X33676988Y-44260000D01*
X32782769Y-44260000D01*
X32793242Y-44326126D01*
X32793242Y-44326129D01*
X32858904Y-44528217D01*
X32955379Y-44717557D01*
X33080272Y-44889459D01*
X33080276Y-44889464D01*
X33230535Y-45039723D01*
X33230540Y-45039727D01*
X33402442Y-45164620D01*
X33591780Y-45261094D01*
X33620705Y-45270492D01*
X33678381Y-45309929D01*
X33705580Y-45374287D01*
X33693667Y-45443134D01*
X33646424Y-45494610D01*
X33638685Y-45498908D01*
X33507004Y-45566004D01*
X33360505Y-45672441D01*
X33360500Y-45672445D01*
X33232445Y-45800500D01*
X33232441Y-45800505D01*
X33126006Y-45947002D01*
X33043788Y-46108360D01*
X33043787Y-46108363D01*
X32987829Y-46280589D01*
X32959500Y-46459448D01*
X32959500Y-46640551D01*
X32987829Y-46819410D01*
X33043787Y-46991636D01*
X33043788Y-46991639D01*
X33063772Y-47030858D01*
X33125301Y-47151615D01*
X33126006Y-47152997D01*
X33232441Y-47299494D01*
X33232445Y-47299499D01*
X33360500Y-47427554D01*
X33360505Y-47427558D01*
X33507001Y-47533993D01*
X33507003Y-47533994D01*
X33507006Y-47533996D01*
X33541794Y-47551721D01*
X33592590Y-47599694D01*
X33609500Y-47662206D01*
X33609500Y-48276036D01*
X33589815Y-48343075D01*
X33546277Y-48384120D01*
X33540026Y-48387634D01*
X33424921Y-48474921D01*
X33337636Y-48590023D01*
X33284640Y-48724411D01*
X33282863Y-48739212D01*
X33274500Y-48808856D01*
X33274500Y-49391144D01*
X33278486Y-49424337D01*
X33284640Y-49475588D01*
X33337637Y-49609978D01*
X33340308Y-49614728D01*
X33356005Y-49682811D01*
X33332402Y-49748574D01*
X33276992Y-49791135D01*
X33232221Y-49799500D01*
X31006960Y-49799500D01*
X30993077Y-49798720D01*
X30902734Y-49788541D01*
X30891361Y-49784561D01*
X30882897Y-49784648D01*
X30875662Y-49782362D01*
X30796464Y-49754649D01*
X30771447Y-49742602D01*
X30700395Y-49697957D01*
X30678686Y-49680644D01*
X30619355Y-49621313D01*
X30602042Y-49599604D01*
X30599724Y-49595915D01*
X30557395Y-49528549D01*
X30545351Y-49503539D01*
X30517636Y-49424333D01*
X30511458Y-49397268D01*
X30501280Y-49306922D01*
X30500500Y-49293040D01*
X30500500Y-31006959D01*
X30501280Y-30993077D01*
X30503385Y-30974395D01*
X30511458Y-30902732D01*
X30515437Y-30891362D01*
X30515351Y-30882897D01*
X30517629Y-30875684D01*
X30545353Y-30796457D01*
X30557393Y-30771453D01*
X30602046Y-30700389D01*
X30619351Y-30678690D01*
X30678690Y-30619351D01*
X30700389Y-30602046D01*
X30771453Y-30557393D01*
X30796457Y-30545353D01*
X30875668Y-30517635D01*
X30902729Y-30511459D01*
X30978753Y-30502893D01*
X30993078Y-30501280D01*
X31006960Y-30500500D01*
X31065892Y-30500500D01*
X40716731Y-30500500D01*
X40783770Y-30520185D01*
G37*
G04 #@! TD.AperFunction*
G04 #@! TA.AperFunction,Conductor*
G36*
X63006922Y-30501280D02*
G01*
X63023878Y-30503190D01*
X63097266Y-30511458D01*
X63108636Y-30515437D01*
X63117102Y-30515351D01*
X63124324Y-30517633D01*
X63203539Y-30545351D01*
X63228549Y-30557395D01*
X63299606Y-30602043D01*
X63321313Y-30619355D01*
X63380644Y-30678686D01*
X63397957Y-30700395D01*
X63442602Y-30771447D01*
X63454649Y-30796464D01*
X63482362Y-30875662D01*
X63488541Y-30902734D01*
X63498720Y-30993076D01*
X63499500Y-31006959D01*
X63499500Y-49293040D01*
X63498720Y-49306923D01*
X63488541Y-49397265D01*
X63484561Y-49408637D01*
X63484648Y-49417102D01*
X63482362Y-49424337D01*
X63454649Y-49503535D01*
X63442602Y-49528552D01*
X63397957Y-49599604D01*
X63380644Y-49621313D01*
X63321313Y-49680644D01*
X63299604Y-49697957D01*
X63228552Y-49742602D01*
X63203535Y-49754649D01*
X63124337Y-49782362D01*
X63097265Y-49788541D01*
X63006923Y-49798720D01*
X62993040Y-49799500D01*
X41373150Y-49799500D01*
X41306111Y-49779815D01*
X41260356Y-49727011D01*
X41250412Y-49657853D01*
X41254074Y-49640904D01*
X41267144Y-49595915D01*
X41267145Y-49595912D01*
X41268790Y-49575000D01*
X40614000Y-49575000D01*
X40546961Y-49555315D01*
X40501206Y-49502511D01*
X40490000Y-49451000D01*
X40490000Y-49199000D01*
X40509685Y-49131961D01*
X40562489Y-49086206D01*
X40614000Y-49075000D01*
X41268790Y-49075000D01*
X41267145Y-49054091D01*
X41221389Y-48896595D01*
X41221589Y-48826725D01*
X41259532Y-48768055D01*
X41323170Y-48739212D01*
X41340466Y-48738000D01*
X51943516Y-48738000D01*
X51943518Y-48738000D01*
X52051737Y-48709003D01*
X52148763Y-48652985D01*
X52397725Y-48404021D01*
X52459044Y-48370539D01*
X52523720Y-48373773D01*
X52598850Y-48398185D01*
X52668881Y-48420940D01*
X52855514Y-48450500D01*
X52855519Y-48450500D01*
X53044486Y-48450500D01*
X53231118Y-48420940D01*
X53410832Y-48362547D01*
X53579199Y-48276760D01*
X53732073Y-48165690D01*
X53865690Y-48032073D01*
X53976760Y-47879199D01*
X54062547Y-47710832D01*
X54120940Y-47531118D01*
X54131114Y-47466884D01*
X54150500Y-47344486D01*
X54150500Y-47155513D01*
X54120940Y-46968881D01*
X54072373Y-46819409D01*
X54062547Y-46789168D01*
X54062545Y-46789165D01*
X54062545Y-46789163D01*
X53986823Y-46640551D01*
X53976760Y-46620801D01*
X53865690Y-46467927D01*
X53732073Y-46334310D01*
X53579199Y-46223240D01*
X53410836Y-46137454D01*
X53231118Y-46079059D01*
X53044486Y-46049500D01*
X53044481Y-46049500D01*
X52855519Y-46049500D01*
X52855514Y-46049500D01*
X52668881Y-46079059D01*
X52489163Y-46137454D01*
X52320800Y-46223240D01*
X52233579Y-46286610D01*
X52167927Y-46334310D01*
X52167925Y-46334312D01*
X52167924Y-46334312D01*
X52034312Y-46467924D01*
X52034312Y-46467925D01*
X52034310Y-46467927D01*
X51986610Y-46533579D01*
X51923240Y-46620800D01*
X51837454Y-46789163D01*
X51779059Y-46968881D01*
X51749500Y-47155513D01*
X51749500Y-47344486D01*
X51779060Y-47531119D01*
X51779060Y-47531122D01*
X51826224Y-47676276D01*
X51828219Y-47746117D01*
X51795976Y-47802273D01*
X51747572Y-47850679D01*
X51686250Y-47884166D01*
X51659889Y-47887000D01*
X45741141Y-47887000D01*
X45674102Y-47867315D01*
X45628347Y-47814511D01*
X45618403Y-47745353D01*
X45647428Y-47681797D01*
X45702823Y-47645069D01*
X45791636Y-47616212D01*
X45791639Y-47616211D01*
X45824055Y-47599694D01*
X45952994Y-47533996D01*
X46099501Y-47427553D01*
X46227553Y-47299501D01*
X46333996Y-47152994D01*
X46416211Y-46991639D01*
X46472171Y-46819409D01*
X46487758Y-46720995D01*
X46500500Y-46640551D01*
X46500500Y-46459448D01*
X46484019Y-46355397D01*
X46472171Y-46280591D01*
X46472169Y-46280586D01*
X46472169Y-46280583D01*
X46460106Y-46243458D01*
X46458109Y-46173617D01*
X46490352Y-46117461D01*
X46770996Y-45836816D01*
X46832318Y-45803334D01*
X46858676Y-45800500D01*
X55741324Y-45800500D01*
X55808363Y-45820185D01*
X55829005Y-45836819D01*
X56713181Y-46720995D01*
X56746666Y-46782318D01*
X56749500Y-46808676D01*
X56749500Y-48194856D01*
X56749502Y-48194882D01*
X56752413Y-48219987D01*
X56752415Y-48219991D01*
X56797793Y-48322764D01*
X56797794Y-48322765D01*
X56877235Y-48402206D01*
X56980009Y-48447585D01*
X57005135Y-48450500D01*
X58894864Y-48450499D01*
X58894879Y-48450497D01*
X58894882Y-48450497D01*
X58919987Y-48447586D01*
X58919988Y-48447585D01*
X58919991Y-48447585D01*
X59022765Y-48402206D01*
X59102206Y-48322765D01*
X59147585Y-48219991D01*
X59150500Y-48194865D01*
X59150499Y-46305136D01*
X59150497Y-46305117D01*
X59147586Y-46280012D01*
X59147585Y-46280010D01*
X59147585Y-46280009D01*
X59102206Y-46177235D01*
X59022765Y-46097794D01*
X58919992Y-46052415D01*
X58894868Y-46049500D01*
X58894865Y-46049500D01*
X57508676Y-46049500D01*
X57441637Y-46029815D01*
X57420995Y-46013181D01*
X56307316Y-44899502D01*
X56307314Y-44899500D01*
X56250250Y-44866554D01*
X56193187Y-44833608D01*
X56129539Y-44816554D01*
X56065892Y-44799500D01*
X46665893Y-44799500D01*
X46665220Y-44799500D01*
X46598181Y-44779815D01*
X46552426Y-44727011D01*
X46542482Y-44657853D01*
X46554735Y-44619205D01*
X46601095Y-44528217D01*
X46666757Y-44326129D01*
X46666757Y-44326126D01*
X46677231Y-44260000D01*
X45783012Y-44260000D01*
X45815925Y-44202993D01*
X45850000Y-44075826D01*
X45850000Y-43944174D01*
X45815925Y-43817007D01*
X45783012Y-43760000D01*
X46677231Y-43760000D01*
X46666757Y-43693873D01*
X46666757Y-43693870D01*
X46601095Y-43491782D01*
X46504620Y-43302442D01*
X46379727Y-43130540D01*
X46379723Y-43130535D01*
X46229464Y-42980276D01*
X46229459Y-42980272D01*
X46057557Y-42855379D01*
X45868217Y-42758904D01*
X45839292Y-42749506D01*
X45781616Y-42710068D01*
X45754418Y-42645710D01*
X45766333Y-42576863D01*
X45813577Y-42525388D01*
X45821315Y-42521090D01*
X45952994Y-42453996D01*
X46099501Y-42347553D01*
X46227553Y-42219501D01*
X46333996Y-42072994D01*
X46416211Y-41911639D01*
X46472171Y-41739409D01*
X46492542Y-41610793D01*
X46500500Y-41560551D01*
X46500500Y-41379448D01*
X46484019Y-41275397D01*
X46472171Y-41200591D01*
X46421455Y-41044500D01*
X46416212Y-41028363D01*
X46416211Y-41028360D01*
X46387740Y-40972484D01*
X46333996Y-40867006D01*
X46308654Y-40832126D01*
X46227558Y-40720505D01*
X46227554Y-40720500D01*
X46099499Y-40592445D01*
X46099494Y-40592441D01*
X46039665Y-40548972D01*
X46039642Y-40548957D01*
X45952993Y-40486003D01*
X45791639Y-40403788D01*
X45791636Y-40403787D01*
X45619410Y-40347829D01*
X45459321Y-40322473D01*
X45396186Y-40292544D01*
X45359255Y-40233232D01*
X45360253Y-40163370D01*
X45398863Y-40105137D01*
X45459321Y-40077527D01*
X45529425Y-40066422D01*
X45619409Y-40052171D01*
X45791639Y-39996211D01*
X45952994Y-39913996D01*
X46099501Y-39807553D01*
X46227553Y-39679501D01*
X46333996Y-39532994D01*
X46416211Y-39371639D01*
X46472171Y-39199409D01*
X46492542Y-39070793D01*
X46500500Y-39020551D01*
X46500500Y-38839448D01*
X46472171Y-38660591D01*
X46469760Y-38653170D01*
X46469759Y-38653168D01*
X46458627Y-38618905D01*
X47850000Y-38618905D01*
X47850000Y-40000000D01*
X48850300Y-40000000D01*
X48850000Y-40001509D01*
X48850000Y-40498491D01*
X48850300Y-40500000D01*
X47850000Y-40500000D01*
X47850000Y-41881094D01*
X47884220Y-42141009D01*
X47884222Y-42141020D01*
X47952075Y-42394255D01*
X48052404Y-42636471D01*
X48052409Y-42636482D01*
X48183496Y-42863528D01*
X48343092Y-43071519D01*
X48343098Y-43071526D01*
X48528473Y-43256901D01*
X48528480Y-43256907D01*
X48736471Y-43416503D01*
X48963517Y-43547590D01*
X48963528Y-43547595D01*
X49205744Y-43647924D01*
X49458979Y-43715777D01*
X49458992Y-43715780D01*
X49600000Y-43734343D01*
X49600000Y-41369863D01*
X49751509Y-41400000D01*
X49948491Y-41400000D01*
X50100000Y-41369863D01*
X50100000Y-43734342D01*
X50241007Y-43715780D01*
X50241020Y-43715777D01*
X50494255Y-43647924D01*
X50736471Y-43547595D01*
X50736482Y-43547590D01*
X50963528Y-43416503D01*
X51171519Y-43256907D01*
X51171526Y-43256901D01*
X51356901Y-43071526D01*
X51356907Y-43071519D01*
X51516503Y-42863528D01*
X51647590Y-42636482D01*
X51647595Y-42636471D01*
X51747924Y-42394255D01*
X51815777Y-42141020D01*
X51815779Y-42141009D01*
X51849999Y-41881094D01*
X51850000Y-41881080D01*
X51850000Y-40500000D01*
X50849700Y-40500000D01*
X50850000Y-40498491D01*
X50850000Y-40001509D01*
X50849700Y-40000000D01*
X51850000Y-40000000D01*
X51850000Y-38618919D01*
X51849999Y-38618905D01*
X59050000Y-38618905D01*
X59050000Y-40000000D01*
X60050300Y-40000000D01*
X60050000Y-40001509D01*
X60050000Y-40498491D01*
X60050300Y-40500000D01*
X59050000Y-40500000D01*
X59050000Y-41881094D01*
X59084220Y-42141009D01*
X59084222Y-42141020D01*
X59152075Y-42394255D01*
X59252404Y-42636471D01*
X59252409Y-42636482D01*
X59383496Y-42863528D01*
X59543092Y-43071519D01*
X59543098Y-43071526D01*
X59728473Y-43256901D01*
X59728480Y-43256907D01*
X59936471Y-43416503D01*
X60163517Y-43547590D01*
X60163528Y-43547595D01*
X60405744Y-43647924D01*
X60658979Y-43715777D01*
X60658992Y-43715780D01*
X60800000Y-43734343D01*
X60800000Y-41369863D01*
X60951509Y-41400000D01*
X61148491Y-41400000D01*
X61300000Y-41369863D01*
X61300000Y-43734342D01*
X61441007Y-43715780D01*
X61441020Y-43715777D01*
X61694255Y-43647924D01*
X61936471Y-43547595D01*
X61936482Y-43547590D01*
X62163528Y-43416503D01*
X62371519Y-43256907D01*
X62371526Y-43256901D01*
X62556901Y-43071526D01*
X62556907Y-43071519D01*
X62716503Y-42863528D01*
X62847590Y-42636482D01*
X62847595Y-42636471D01*
X62947924Y-42394255D01*
X63015777Y-42141020D01*
X63015779Y-42141009D01*
X63049999Y-41881094D01*
X63050000Y-41881080D01*
X63050000Y-40500000D01*
X62049700Y-40500000D01*
X62050000Y-40498491D01*
X62050000Y-40001509D01*
X62049700Y-40000000D01*
X63050000Y-40000000D01*
X63050000Y-38618919D01*
X63049999Y-38618905D01*
X63015779Y-38358990D01*
X63015777Y-38358979D01*
X62947924Y-38105744D01*
X62847595Y-37863528D01*
X62847590Y-37863517D01*
X62716503Y-37636471D01*
X62556907Y-37428480D01*
X62556901Y-37428473D01*
X62371526Y-37243098D01*
X62371519Y-37243092D01*
X62163528Y-37083496D01*
X61936482Y-36952409D01*
X61936471Y-36952404D01*
X61694255Y-36852075D01*
X61441016Y-36784221D01*
X61300000Y-36765654D01*
X61300000Y-39130136D01*
X61148491Y-39100000D01*
X60951509Y-39100000D01*
X60800000Y-39130136D01*
X60800000Y-36765654D01*
X60799999Y-36765654D01*
X60658983Y-36784221D01*
X60405744Y-36852075D01*
X60163528Y-36952404D01*
X60163517Y-36952409D01*
X59936471Y-37083496D01*
X59728480Y-37243092D01*
X59728473Y-37243098D01*
X59543098Y-37428473D01*
X59543092Y-37428480D01*
X59383496Y-37636471D01*
X59252409Y-37863517D01*
X59252404Y-37863528D01*
X59152075Y-38105744D01*
X59084222Y-38358979D01*
X59084220Y-38358990D01*
X59050000Y-38618905D01*
X51849999Y-38618905D01*
X51815779Y-38358990D01*
X51815777Y-38358979D01*
X51747924Y-38105744D01*
X51647595Y-37863528D01*
X51647590Y-37863517D01*
X51516503Y-37636471D01*
X51356907Y-37428480D01*
X51356901Y-37428473D01*
X51171526Y-37243098D01*
X51171519Y-37243092D01*
X50963528Y-37083496D01*
X50736482Y-36952409D01*
X50736471Y-36952404D01*
X50494255Y-36852075D01*
X50241016Y-36784221D01*
X50100000Y-36765654D01*
X50100000Y-39130136D01*
X49948491Y-39100000D01*
X49751509Y-39100000D01*
X49600000Y-39130136D01*
X49600000Y-36765654D01*
X49599999Y-36765654D01*
X49458983Y-36784221D01*
X49205744Y-36852075D01*
X48963528Y-36952404D01*
X48963517Y-36952409D01*
X48736471Y-37083496D01*
X48528480Y-37243092D01*
X48528473Y-37243098D01*
X48343098Y-37428473D01*
X48343092Y-37428480D01*
X48183496Y-37636471D01*
X48052409Y-37863517D01*
X48052404Y-37863528D01*
X47952075Y-38105744D01*
X47884222Y-38358979D01*
X47884220Y-38358990D01*
X47850000Y-38618905D01*
X46458627Y-38618905D01*
X46416212Y-38488363D01*
X46416211Y-38488360D01*
X46387740Y-38432484D01*
X46333996Y-38327006D01*
X46301269Y-38281961D01*
X46227558Y-38180505D01*
X46227554Y-38180500D01*
X46099499Y-38052445D01*
X46099494Y-38052441D01*
X45952997Y-37946006D01*
X45952996Y-37946005D01*
X45952994Y-37946004D01*
X45901300Y-37919664D01*
X45791639Y-37863788D01*
X45791636Y-37863787D01*
X45619410Y-37807829D01*
X45459321Y-37782473D01*
X45396186Y-37752544D01*
X45359255Y-37693232D01*
X45360253Y-37623370D01*
X45398863Y-37565137D01*
X45459321Y-37537527D01*
X45529425Y-37526422D01*
X45619409Y-37512171D01*
X45791639Y-37456211D01*
X45952994Y-37373996D01*
X46099501Y-37267553D01*
X46227553Y-37139501D01*
X46333996Y-36992994D01*
X46416211Y-36831639D01*
X46472171Y-36659409D01*
X46486765Y-36567259D01*
X46500500Y-36480551D01*
X46500500Y-36299448D01*
X46473005Y-36125858D01*
X46472171Y-36120591D01*
X46416211Y-35948361D01*
X46416211Y-35948360D01*
X46387740Y-35892484D01*
X46333996Y-35787006D01*
X46234698Y-35650333D01*
X46211218Y-35584527D01*
X46227044Y-35516473D01*
X46247331Y-35489771D01*
X47080489Y-34656614D01*
X47139799Y-34553887D01*
X47146285Y-34529675D01*
X47146286Y-34529675D01*
X47146286Y-34529671D01*
X47170500Y-34439309D01*
X47170500Y-32508314D01*
X47190185Y-32441275D01*
X47242989Y-32395520D01*
X47312147Y-32385576D01*
X47375703Y-32414601D01*
X47406221Y-32454514D01*
X47427427Y-32498551D01*
X47427428Y-32498552D01*
X47427429Y-32498554D01*
X47446282Y-32521309D01*
X47446285Y-32521312D01*
X47446286Y-32521313D01*
X47469262Y-32544289D01*
X47485953Y-32565019D01*
X47488674Y-32569261D01*
X47507522Y-32592011D01*
X47507527Y-32592016D01*
X47507530Y-32592020D01*
X47772634Y-32857122D01*
X47795390Y-32875977D01*
X47913671Y-32932938D01*
X48043487Y-32952505D01*
X48043494Y-32952504D01*
X48048232Y-32952504D01*
X48052945Y-32952504D01*
X48052949Y-32952505D01*
X48052952Y-32952504D01*
X48057084Y-32952505D01*
X48124121Y-32972197D01*
X48144751Y-32988824D01*
X48266416Y-33110489D01*
X48369143Y-33169799D01*
X48393351Y-33176284D01*
X48393354Y-33176286D01*
X48393355Y-33176286D01*
X48423477Y-33184357D01*
X48483721Y-33200500D01*
X51756201Y-33200500D01*
X51823240Y-33220185D01*
X51866685Y-33268204D01*
X51923240Y-33379199D01*
X52034310Y-33532073D01*
X52167927Y-33665690D01*
X52320801Y-33776760D01*
X52390623Y-33812336D01*
X52489163Y-33862545D01*
X52489165Y-33862545D01*
X52489168Y-33862547D01*
X52566467Y-33887663D01*
X52668881Y-33920940D01*
X52855514Y-33950500D01*
X52855519Y-33950500D01*
X53044486Y-33950500D01*
X53231118Y-33920940D01*
X53292283Y-33901066D01*
X53410832Y-33862547D01*
X53579199Y-33776760D01*
X53732073Y-33665690D01*
X53865690Y-33532073D01*
X53976760Y-33379199D01*
X53977561Y-33377626D01*
X53978025Y-33377135D01*
X53979305Y-33375047D01*
X53979743Y-33375315D01*
X54025532Y-33326829D01*
X54093352Y-33310031D01*
X54159488Y-33332565D01*
X54198533Y-33377622D01*
X54252611Y-33483756D01*
X54298932Y-33547513D01*
X54885387Y-32961058D01*
X54890889Y-32981591D01*
X54969881Y-33118408D01*
X55081592Y-33230119D01*
X55218409Y-33309111D01*
X55238939Y-33314612D01*
X54652485Y-33901065D01*
X54652485Y-33901066D01*
X54716243Y-33947388D01*
X54912589Y-34047432D01*
X55122164Y-34115526D01*
X55339819Y-34150000D01*
X55560181Y-34150000D01*
X55777835Y-34115526D01*
X55987410Y-34047432D01*
X56183760Y-33947386D01*
X56247513Y-33901066D01*
X56247514Y-33901066D01*
X55661059Y-33314612D01*
X55681591Y-33309111D01*
X55818408Y-33230119D01*
X55930119Y-33118408D01*
X56009111Y-32981591D01*
X56014612Y-32961059D01*
X56601066Y-33547514D01*
X56601066Y-33547513D01*
X56647388Y-33483758D01*
X56701466Y-33377623D01*
X56749440Y-33326827D01*
X56817261Y-33310031D01*
X56883396Y-33332568D01*
X56920376Y-33375242D01*
X56920695Y-33375047D01*
X56921872Y-33376968D01*
X56922431Y-33377613D01*
X56923237Y-33379195D01*
X56923240Y-33379199D01*
X57034310Y-33532073D01*
X57167927Y-33665690D01*
X57320801Y-33776760D01*
X57390623Y-33812336D01*
X57489163Y-33862545D01*
X57489165Y-33862545D01*
X57489168Y-33862547D01*
X57566467Y-33887663D01*
X57668881Y-33920940D01*
X57855514Y-33950500D01*
X57855519Y-33950500D01*
X58044486Y-33950500D01*
X58231118Y-33920940D01*
X58292283Y-33901066D01*
X58410832Y-33862547D01*
X58579199Y-33776760D01*
X58732073Y-33665690D01*
X58865690Y-33532073D01*
X58976760Y-33379199D01*
X59062547Y-33210832D01*
X59120940Y-33031118D01*
X59129776Y-32975332D01*
X59150500Y-32844486D01*
X59150500Y-32655513D01*
X59120940Y-32468881D01*
X59073536Y-32322989D01*
X59062547Y-32289168D01*
X59062545Y-32289165D01*
X59062545Y-32289163D01*
X59017290Y-32200347D01*
X58976760Y-32120801D01*
X58865690Y-31967927D01*
X58732073Y-31834310D01*
X58579199Y-31723240D01*
X58410836Y-31637454D01*
X58231118Y-31579059D01*
X58044486Y-31549500D01*
X58044481Y-31549500D01*
X57855519Y-31549500D01*
X57855514Y-31549500D01*
X57668880Y-31579060D01*
X57668877Y-31579060D01*
X57550406Y-31617554D01*
X57480564Y-31619549D01*
X57424407Y-31587304D01*
X56549284Y-30712181D01*
X56515799Y-30650858D01*
X56520783Y-30581166D01*
X56562655Y-30525233D01*
X56628119Y-30500816D01*
X56636965Y-30500500D01*
X62934108Y-30500500D01*
X62993040Y-30500500D01*
X63006922Y-30501280D01*
G37*
G04 #@! TD.AperFunction*
G04 #@! TA.AperFunction,Conductor*
G36*
X35604832Y-47070185D02*
G01*
X35648277Y-47118204D01*
X35665301Y-47151615D01*
X35666006Y-47152997D01*
X35772441Y-47299494D01*
X35772445Y-47299499D01*
X35900500Y-47427554D01*
X35900505Y-47427558D01*
X36028287Y-47520396D01*
X36047006Y-47533996D01*
X36149499Y-47586219D01*
X36208360Y-47616211D01*
X36208363Y-47616212D01*
X36256515Y-47631857D01*
X36380591Y-47672171D01*
X36463429Y-47685291D01*
X36559449Y-47700500D01*
X36559454Y-47700500D01*
X36740551Y-47700500D01*
X36919409Y-47672171D01*
X37009912Y-47642765D01*
X37079753Y-47640770D01*
X37135909Y-47673012D01*
X37293182Y-47830285D01*
X37326666Y-47891607D01*
X37329500Y-47917965D01*
X37329500Y-48155733D01*
X37309815Y-48222772D01*
X37257011Y-48268527D01*
X37187853Y-48278471D01*
X37170905Y-48274809D01*
X37070001Y-48245493D01*
X37070000Y-48245494D01*
X37070000Y-48926000D01*
X37050315Y-48993039D01*
X36997511Y-49038794D01*
X36946000Y-49050000D01*
X36820000Y-49050000D01*
X36820000Y-49176000D01*
X36800315Y-49243039D01*
X36747511Y-49288794D01*
X36696000Y-49300000D01*
X36655000Y-49300000D01*
X36641319Y-49313681D01*
X36579996Y-49347166D01*
X36553638Y-49350000D01*
X35699000Y-49350000D01*
X35631961Y-49330315D01*
X35586206Y-49277511D01*
X35575000Y-49226000D01*
X35575000Y-49100000D01*
X35449000Y-49100000D01*
X35381961Y-49080315D01*
X35336206Y-49027511D01*
X35325000Y-48976000D01*
X35325000Y-48850000D01*
X35825000Y-48850000D01*
X35910000Y-48850000D01*
X35923681Y-48836319D01*
X35985004Y-48802834D01*
X36011362Y-48800000D01*
X36570000Y-48800000D01*
X36570000Y-48245494D01*
X36569998Y-48245493D01*
X36423809Y-48287965D01*
X36423801Y-48287969D01*
X36405715Y-48298665D01*
X36337990Y-48315845D01*
X36271729Y-48293683D01*
X36254917Y-48279612D01*
X36252732Y-48277427D01*
X36252728Y-48277424D01*
X36108492Y-48188457D01*
X36108481Y-48188452D01*
X35947606Y-48135144D01*
X35848322Y-48125000D01*
X35825000Y-48125000D01*
X35825000Y-48850000D01*
X35325000Y-48850000D01*
X35325000Y-48124999D01*
X35301693Y-48125000D01*
X35301674Y-48125001D01*
X35202392Y-48135144D01*
X35041518Y-48188452D01*
X35041507Y-48188457D01*
X34897271Y-48277424D01*
X34897267Y-48277427D01*
X34822181Y-48352514D01*
X34760858Y-48385999D01*
X34691166Y-48381015D01*
X34635233Y-48339143D01*
X34610816Y-48273679D01*
X34610500Y-48264833D01*
X34610500Y-47662206D01*
X34630185Y-47595167D01*
X34678205Y-47551721D01*
X34712994Y-47533996D01*
X34859501Y-47427553D01*
X34987553Y-47299501D01*
X35093996Y-47152994D01*
X35111722Y-47118204D01*
X35159697Y-47067409D01*
X35222207Y-47050500D01*
X35537793Y-47050500D01*
X35604832Y-47070185D01*
G37*
G04 #@! TD.AperFunction*
G04 #@! TA.AperFunction,Conductor*
G36*
X41684625Y-46900185D02*
G01*
X41730380Y-46952989D01*
X41735517Y-46966182D01*
X41743787Y-46991636D01*
X41743789Y-46991639D01*
X41825301Y-47151615D01*
X41826006Y-47152997D01*
X41932441Y-47299494D01*
X41932445Y-47299499D01*
X42060500Y-47427554D01*
X42060505Y-47427558D01*
X42188287Y-47520396D01*
X42207006Y-47533996D01*
X42309499Y-47586219D01*
X42368360Y-47616211D01*
X42368363Y-47616212D01*
X42457177Y-47645069D01*
X42514852Y-47684506D01*
X42542051Y-47748865D01*
X42530137Y-47817711D01*
X42482893Y-47869187D01*
X42418859Y-47887000D01*
X41333248Y-47887000D01*
X41266209Y-47867315D01*
X41220454Y-47814511D01*
X41210510Y-47745353D01*
X41226516Y-47699879D01*
X41262406Y-47639191D01*
X41262407Y-47639188D01*
X41307166Y-47485128D01*
X41307167Y-47485122D01*
X41309931Y-47450000D01*
X40664000Y-47450000D01*
X40596961Y-47430315D01*
X40551206Y-47377511D01*
X40540000Y-47326000D01*
X40540000Y-47074000D01*
X40559685Y-47006961D01*
X40612489Y-46961206D01*
X40664000Y-46950000D01*
X41309931Y-46950000D01*
X41337361Y-46920327D01*
X41397323Y-46884462D01*
X41428416Y-46880500D01*
X41617586Y-46880500D01*
X41684625Y-46900185D01*
G37*
G04 #@! TD.AperFunction*
G04 #@! TA.AperFunction,Conductor*
G36*
X41592391Y-43180185D02*
G01*
X41638146Y-43232989D01*
X41648090Y-43302147D01*
X41635837Y-43340795D01*
X41558904Y-43491782D01*
X41493242Y-43693870D01*
X41493242Y-43693873D01*
X41482769Y-43760000D01*
X42376988Y-43760000D01*
X42344075Y-43817007D01*
X42310000Y-43944174D01*
X42310000Y-44075826D01*
X42344075Y-44202993D01*
X42376988Y-44260000D01*
X41482769Y-44260000D01*
X41493242Y-44326126D01*
X41493242Y-44326129D01*
X41558904Y-44528217D01*
X41655379Y-44717557D01*
X41780272Y-44889459D01*
X41780276Y-44889464D01*
X41930535Y-45039723D01*
X41930540Y-45039727D01*
X42102442Y-45164620D01*
X42291780Y-45261094D01*
X42320705Y-45270492D01*
X42378381Y-45309929D01*
X42405580Y-45374287D01*
X42393667Y-45443134D01*
X42346424Y-45494610D01*
X42338685Y-45498908D01*
X42207004Y-45566004D01*
X42060505Y-45672441D01*
X42060500Y-45672445D01*
X41932447Y-45800498D01*
X41912187Y-45828385D01*
X41856857Y-45871051D01*
X41811868Y-45879500D01*
X37648132Y-45879500D01*
X37581093Y-45859815D01*
X37547813Y-45828385D01*
X37527553Y-45800499D01*
X37399501Y-45672447D01*
X37399499Y-45672445D01*
X37399494Y-45672441D01*
X37252995Y-45566004D01*
X37121314Y-45498908D01*
X37070519Y-45450934D01*
X37053724Y-45383113D01*
X37076262Y-45316978D01*
X37130977Y-45273527D01*
X37139295Y-45270492D01*
X37168217Y-45261095D01*
X37357557Y-45164620D01*
X37529459Y-45039727D01*
X37529464Y-45039723D01*
X37679723Y-44889464D01*
X37679727Y-44889459D01*
X37804620Y-44717557D01*
X37901095Y-44528217D01*
X37966757Y-44326129D01*
X37966757Y-44326126D01*
X37977231Y-44260000D01*
X37083012Y-44260000D01*
X37115925Y-44202993D01*
X37150000Y-44075826D01*
X37150000Y-43944174D01*
X37115925Y-43817007D01*
X37083012Y-43760000D01*
X37977231Y-43760000D01*
X37966757Y-43693873D01*
X37966757Y-43693870D01*
X37901095Y-43491782D01*
X37824163Y-43340795D01*
X37811267Y-43272126D01*
X37837543Y-43207385D01*
X37894650Y-43167128D01*
X37934648Y-43160500D01*
X41525352Y-43160500D01*
X41592391Y-43180185D01*
G37*
G04 #@! TD.AperFunction*
G04 #@! TA.AperFunction,Conductor*
G36*
X36184075Y-43817007D02*
G01*
X36150000Y-43944174D01*
X36150000Y-44075826D01*
X36184075Y-44202993D01*
X36216988Y-44260000D01*
X34543012Y-44260000D01*
X34575925Y-44202993D01*
X34610000Y-44075826D01*
X34610000Y-43944174D01*
X34575925Y-43817007D01*
X34543012Y-43760000D01*
X36216988Y-43760000D01*
X36184075Y-43817007D01*
G37*
G04 #@! TD.AperFunction*
G04 #@! TA.AperFunction,Conductor*
G36*
X44884075Y-43817007D02*
G01*
X44850000Y-43944174D01*
X44850000Y-44075826D01*
X44884075Y-44202993D01*
X44916988Y-44260000D01*
X43243012Y-44260000D01*
X43275925Y-44202993D01*
X43310000Y-44075826D01*
X43310000Y-43944174D01*
X43275925Y-43817007D01*
X43243012Y-43760000D01*
X44916988Y-43760000D01*
X44884075Y-43817007D01*
G37*
G04 #@! TD.AperFunction*
G04 #@! TA.AperFunction,Conductor*
G36*
X41595022Y-36476344D02*
G01*
X41650956Y-36518214D01*
X41674163Y-36573128D01*
X41687829Y-36659410D01*
X41743787Y-36831636D01*
X41743788Y-36831639D01*
X41826006Y-36992997D01*
X41932441Y-37139494D01*
X41932445Y-37139499D01*
X42060500Y-37267554D01*
X42060505Y-37267558D01*
X42188287Y-37360396D01*
X42207006Y-37373996D01*
X42312484Y-37427740D01*
X42368360Y-37456211D01*
X42368363Y-37456212D01*
X42401163Y-37466869D01*
X42540591Y-37512171D01*
X42613639Y-37523740D01*
X42700678Y-37537527D01*
X42763813Y-37567456D01*
X42800744Y-37626768D01*
X42799746Y-37696631D01*
X42761136Y-37754863D01*
X42700678Y-37782473D01*
X42540589Y-37807829D01*
X42368363Y-37863787D01*
X42368360Y-37863788D01*
X42207002Y-37946006D01*
X42060505Y-38052441D01*
X42060500Y-38052445D01*
X41932445Y-38180500D01*
X41932441Y-38180505D01*
X41826006Y-38327002D01*
X41743788Y-38488360D01*
X41743787Y-38488363D01*
X41687829Y-38660589D01*
X41659500Y-38839448D01*
X41659500Y-39020551D01*
X41687827Y-39199400D01*
X41688344Y-39201552D01*
X41688301Y-39202395D01*
X41688591Y-39204221D01*
X41688207Y-39204281D01*
X41684853Y-39271335D01*
X41644190Y-39328153D01*
X41579263Y-39353966D01*
X41567770Y-39354500D01*
X37892230Y-39354500D01*
X37825191Y-39334815D01*
X37779436Y-39282011D01*
X37769492Y-39212853D01*
X37771656Y-39201552D01*
X37772166Y-39199422D01*
X37772171Y-39199409D01*
X37792542Y-39070793D01*
X37800500Y-39020551D01*
X37800500Y-38839448D01*
X37779996Y-38709998D01*
X37772171Y-38660591D01*
X37744191Y-38574476D01*
X37716212Y-38488363D01*
X37716211Y-38488360D01*
X37687740Y-38432484D01*
X37633996Y-38327006D01*
X37601269Y-38281961D01*
X37527558Y-38180505D01*
X37527554Y-38180500D01*
X37399499Y-38052445D01*
X37399494Y-38052441D01*
X37252997Y-37946006D01*
X37252996Y-37946005D01*
X37252994Y-37946004D01*
X37201300Y-37919664D01*
X37091639Y-37863788D01*
X37091636Y-37863787D01*
X36919410Y-37807829D01*
X36759321Y-37782473D01*
X36696186Y-37752544D01*
X36659255Y-37693232D01*
X36660253Y-37623370D01*
X36698863Y-37565137D01*
X36759321Y-37537527D01*
X36867259Y-37520430D01*
X36919409Y-37512171D01*
X37036600Y-37474093D01*
X37106438Y-37472099D01*
X37162596Y-37504344D01*
X37198737Y-37540485D01*
X37295763Y-37596503D01*
X37403982Y-37625500D01*
X37516018Y-37625500D01*
X38853876Y-37625500D01*
X38920915Y-37645185D01*
X38966670Y-37697989D01*
X38976614Y-37767147D01*
X38953647Y-37823133D01*
X38936147Y-37846844D01*
X38892291Y-37972173D01*
X38892289Y-37972185D01*
X38889500Y-38001929D01*
X38889500Y-38448070D01*
X38892289Y-38477814D01*
X38892291Y-38477826D01*
X38936147Y-38603155D01*
X38936148Y-38603157D01*
X39015001Y-38709999D01*
X39121843Y-38788852D01*
X39160003Y-38802204D01*
X39247173Y-38832708D01*
X39247177Y-38832708D01*
X39247181Y-38832710D01*
X39262057Y-38834105D01*
X39276930Y-38835500D01*
X39276934Y-38835500D01*
X39663070Y-38835500D01*
X39692809Y-38832711D01*
X39692809Y-38832710D01*
X39692819Y-38832710D01*
X39715427Y-38824798D01*
X39785202Y-38821236D01*
X39844061Y-38854159D01*
X39894616Y-38904714D01*
X39894625Y-38904721D01*
X40033804Y-38987031D01*
X40180000Y-39029504D01*
X40180000Y-39029503D01*
X40680000Y-39029503D01*
X40826195Y-38987031D01*
X40965374Y-38904721D01*
X40965383Y-38904714D01*
X41079714Y-38790383D01*
X41079721Y-38790374D01*
X41162031Y-38651195D01*
X41162033Y-38651190D01*
X41207144Y-38495918D01*
X41207145Y-38495912D01*
X41208790Y-38475000D01*
X40680000Y-38475000D01*
X40680000Y-39029503D01*
X40180000Y-39029503D01*
X40180000Y-38349000D01*
X40199685Y-38281961D01*
X40252489Y-38236206D01*
X40304000Y-38225000D01*
X40430000Y-38225000D01*
X40430000Y-38099000D01*
X40449685Y-38031961D01*
X40502489Y-37986206D01*
X40554000Y-37975000D01*
X41208790Y-37975000D01*
X41207145Y-37954089D01*
X41162031Y-37798804D01*
X41079721Y-37659625D01*
X41079714Y-37659616D01*
X41061162Y-37641064D01*
X41027677Y-37579741D01*
X41031801Y-37512430D01*
X41047741Y-37466879D01*
X41050500Y-37437457D01*
X41050499Y-36962544D01*
X41047741Y-36933121D01*
X41004381Y-36809206D01*
X41004377Y-36809200D01*
X41003450Y-36807445D01*
X41003012Y-36805295D01*
X41001312Y-36800435D01*
X41001976Y-36800202D01*
X40989525Y-36738977D01*
X41014828Y-36673850D01*
X41071325Y-36632741D01*
X41113078Y-36625500D01*
X41216060Y-36625500D01*
X41216061Y-36625500D01*
X41306425Y-36601286D01*
X41330639Y-36594799D01*
X41433366Y-36535489D01*
X41464010Y-36504844D01*
X41525330Y-36471360D01*
X41595022Y-36476344D01*
G37*
G04 #@! TD.AperFunction*
G04 #@! TA.AperFunction,Conductor*
G36*
X47384443Y-30520185D02*
G01*
X47430198Y-30572989D01*
X47440142Y-30642147D01*
X47429124Y-30678301D01*
X47370468Y-30800102D01*
X47368506Y-30813120D01*
X47339048Y-30876476D01*
X47280014Y-30913849D01*
X47264377Y-30917250D01*
X47263138Y-30917436D01*
X47263131Y-30917439D01*
X47144858Y-30974395D01*
X47144849Y-30974401D01*
X47120831Y-30994300D01*
X47095525Y-31010533D01*
X47064140Y-31025647D01*
X47041394Y-31044492D01*
X47041380Y-31044505D01*
X46776282Y-31309605D01*
X46757430Y-31332358D01*
X46757429Y-31332359D01*
X46700468Y-31450641D01*
X46680901Y-31580457D01*
X46680901Y-31589748D01*
X46678059Y-31589748D01*
X46670604Y-31644222D01*
X46645144Y-31681158D01*
X46359513Y-31966789D01*
X46359509Y-31966795D01*
X46300201Y-32069518D01*
X46300200Y-32069523D01*
X46269500Y-32184097D01*
X46269500Y-32852594D01*
X46249815Y-32919633D01*
X46197011Y-32965388D01*
X46127853Y-32975332D01*
X46072615Y-32952913D01*
X45952993Y-32866003D01*
X45791639Y-32783788D01*
X45791636Y-32783787D01*
X45619410Y-32727829D01*
X45440551Y-32699500D01*
X45440546Y-32699500D01*
X45259454Y-32699500D01*
X45259449Y-32699500D01*
X45080589Y-32727829D01*
X44908363Y-32783787D01*
X44908360Y-32783788D01*
X44747002Y-32866006D01*
X44600505Y-32972441D01*
X44600500Y-32972445D01*
X44472445Y-33100500D01*
X44472441Y-33100505D01*
X44366006Y-33247002D01*
X44283788Y-33408360D01*
X44283787Y-33408363D01*
X44227829Y-33580589D01*
X44206972Y-33712271D01*
X44177042Y-33775405D01*
X44117731Y-33812336D01*
X44047868Y-33811338D01*
X43989636Y-33772728D01*
X43961522Y-33708764D01*
X43960499Y-33692872D01*
X43960499Y-32955143D01*
X43960499Y-32955136D01*
X43960111Y-32951791D01*
X43957586Y-32930012D01*
X43957585Y-32930010D01*
X43957585Y-32930009D01*
X43912206Y-32827235D01*
X43832765Y-32747794D01*
X43832763Y-32747793D01*
X43729992Y-32702415D01*
X43704865Y-32699500D01*
X41915143Y-32699500D01*
X41915117Y-32699502D01*
X41890012Y-32702413D01*
X41890008Y-32702415D01*
X41787235Y-32747793D01*
X41707794Y-32827234D01*
X41662415Y-32930006D01*
X41662415Y-32930008D01*
X41659500Y-32955131D01*
X41659500Y-34347389D01*
X41639815Y-34414428D01*
X41623181Y-34435070D01*
X41244571Y-34813681D01*
X41183248Y-34847166D01*
X41156890Y-34850000D01*
X40554000Y-34850000D01*
X40486961Y-34830315D01*
X40441206Y-34777511D01*
X40430000Y-34726000D01*
X40430000Y-34474000D01*
X40449685Y-34406961D01*
X40502489Y-34361206D01*
X40554000Y-34350000D01*
X41208790Y-34350000D01*
X41207145Y-34329089D01*
X41162031Y-34173804D01*
X41079721Y-34034625D01*
X41079714Y-34034616D01*
X41062458Y-34017360D01*
X41028973Y-33956037D01*
X41033097Y-33888726D01*
X41047741Y-33846879D01*
X41050500Y-33817457D01*
X41050499Y-33342544D01*
X41047741Y-33313121D01*
X41004381Y-33189206D01*
X40970745Y-33143631D01*
X40946775Y-33078004D01*
X40962090Y-33009834D01*
X40970732Y-32996385D01*
X41004381Y-32950794D01*
X41030561Y-32875976D01*
X41047741Y-32826881D01*
X41047741Y-32826879D01*
X41048560Y-32818144D01*
X41050500Y-32797457D01*
X41050499Y-32357964D01*
X41070183Y-32290926D01*
X41086813Y-32270289D01*
X41660489Y-31696615D01*
X41719799Y-31593888D01*
X41721847Y-31586241D01*
X41753941Y-31530648D01*
X41785858Y-31498733D01*
X41854311Y-31396286D01*
X41901463Y-31282452D01*
X41925500Y-31161606D01*
X41925500Y-31038394D01*
X41901463Y-30917548D01*
X41854311Y-30803714D01*
X41854310Y-30803713D01*
X41854307Y-30803707D01*
X41782474Y-30696202D01*
X41784020Y-30695168D01*
X41760103Y-30638857D01*
X41771893Y-30569989D01*
X41819045Y-30518428D01*
X41883269Y-30500500D01*
X47317404Y-30500500D01*
X47384443Y-30520185D01*
G37*
G04 #@! TD.AperFunction*
G04 #@! TA.AperFunction,Conductor*
G36*
X55679074Y-31120185D02*
G01*
X55699716Y-31136819D01*
X55709420Y-31146523D01*
X55742905Y-31207846D01*
X55737921Y-31277538D01*
X55696049Y-31333471D01*
X55630585Y-31357888D01*
X55602342Y-31356678D01*
X55560176Y-31350000D01*
X55339819Y-31350000D01*
X55122164Y-31384473D01*
X54912589Y-31452567D01*
X54716233Y-31552616D01*
X54652485Y-31598931D01*
X54652485Y-31598932D01*
X55238941Y-32185387D01*
X55218409Y-32190889D01*
X55081592Y-32269881D01*
X54969881Y-32381592D01*
X54890889Y-32518409D01*
X54885387Y-32538940D01*
X54298932Y-31952485D01*
X54298931Y-31952485D01*
X54252616Y-32016234D01*
X54252614Y-32016237D01*
X54198532Y-32122378D01*
X54150558Y-32173173D01*
X54082736Y-32189968D01*
X54016602Y-32167430D01*
X53979624Y-32124757D01*
X53979305Y-32124953D01*
X53978123Y-32123024D01*
X53977564Y-32122379D01*
X53976760Y-32120801D01*
X53865690Y-31967927D01*
X53732073Y-31834310D01*
X53579199Y-31723240D01*
X53410836Y-31637454D01*
X53231118Y-31579059D01*
X53044486Y-31549500D01*
X53044481Y-31549500D01*
X52855519Y-31549500D01*
X52855514Y-31549500D01*
X52668881Y-31579059D01*
X52489163Y-31637454D01*
X52320800Y-31723240D01*
X52233579Y-31786610D01*
X52167927Y-31834310D01*
X52167925Y-31834312D01*
X52167924Y-31834312D01*
X52034312Y-31967924D01*
X52034312Y-31967925D01*
X52034310Y-31967927D01*
X52007863Y-32004328D01*
X51923240Y-32120800D01*
X51896555Y-32173173D01*
X51869124Y-32227011D01*
X51866686Y-32231795D01*
X51818712Y-32282591D01*
X51756201Y-32299500D01*
X50385225Y-32299500D01*
X50318186Y-32279815D01*
X50272431Y-32227011D01*
X50262487Y-32157853D01*
X50291512Y-32094297D01*
X50350290Y-32056523D01*
X50361034Y-32053883D01*
X50367413Y-32052613D01*
X50378352Y-32050438D01*
X50492186Y-32003286D01*
X50594633Y-31934833D01*
X50681758Y-31847708D01*
X50750211Y-31745261D01*
X50797363Y-31631427D01*
X50821400Y-31510581D01*
X50821400Y-31387369D01*
X50797363Y-31266523D01*
X50797358Y-31266512D01*
X50795594Y-31260693D01*
X50798311Y-31259868D01*
X50792145Y-31202476D01*
X50823423Y-31139999D01*
X50883514Y-31104350D01*
X50914173Y-31100500D01*
X55612035Y-31100500D01*
X55679074Y-31120185D01*
G37*
G04 #@! TD.AperFunction*
M02*
