M48
; DRILL file {KiCad 8.0.1-8.0.1-1~ubuntu22.04.1} date 2024-04-10T21:29:00-0400
; FORMAT={-:-/ absolute / metric / decimal}
; #@! TF.CreationDate,2024-04-10T21:29:00-04:00
; #@! TF.GenerationSoftware,Kicad,Pcbnew,8.0.1-8.0.1-1~ubuntu22.04.1
; #@! TF.FileFunction,Plated,1,4,PTH
FMAT,2
METRIC
; #@! TA.AperFunction,Plated,PTH,ViaDrill
T1C0.300
; #@! TA.AperFunction,Plated,PTH,ComponentDrill
T2C0.300
; #@! TA.AperFunction,Plated,PTH,ViaDrill
T3C0.400
; #@! TA.AperFunction,Plated,PTH,ComponentDrill
T4C0.600
; #@! TA.AperFunction,Plated,PTH,ComponentDrill
T5C0.650
; #@! TA.AperFunction,Plated,PTH,ComponentDrill
T6C1.000
; #@! TA.AperFunction,Plated,PTH,ComponentDrill
T7C3.200
%
G90
G05
T1
X0.8Y55.6
X3.3Y54.3
X4.9Y33.08
X5.724Y14.712
X5.998Y61.12
X6.433Y15.702
X6.525Y31.2
X6.55Y27.25
X6.632Y33.819
X6.677Y35.792
X7.055Y30.205
X7.067Y37.015
X7.2Y74.5
X7.2Y70.9
X7.3Y8.5
X7.382Y60.53
X7.8Y75.1
X7.808Y20.719
X8.1Y17.3
X8.2Y60.015
X8.535Y34.733
X8.62Y50.5
X8.65Y45.3
X8.928Y57.18
X9.035Y62.617
X9.1Y35.6
X9.252Y51.332
X9.4Y21.3
X9.403Y36.732
X9.607Y37.567
X9.7Y65.9
X9.7Y55.2
X9.9Y22.6
X10.025Y42.765
X10.055Y25.85
X10.225Y18.5
X10.47Y47.994
X10.47Y41.061
X10.832Y58.555
X10.9Y10.5
X11.102Y53.002
X11.903Y64.183
X12.18Y25.177
X12.2Y37.35
X12.2Y19.4
X12.626Y60.63
X12.8Y31.3
X12.9Y26.6
X13.029Y19.296
X13.2Y35.5
X13.43Y54.8
X13.43Y52.3
X13.43Y49.7
X13.43Y47.186
X13.43Y44.6
X13.43Y41.078
X13.5Y57.2
X13.506Y59.594
X13.675Y26.0
X13.7Y37.155
X13.9Y16.2
X14.178Y56.5
X14.322Y20.5
X14.349Y19.12
X14.672Y25.249
X14.955Y22.067
X15.0Y45.6
X15.3Y48.71
X15.325Y32.494
X15.558Y19.175
X15.626Y28.637
X15.892Y25.053
X15.9Y30.6
X15.955Y35.535
X16.1Y14.0
X16.2Y7.15
X16.355Y26.425
X16.65Y65.5
X16.762Y35.32
X17.0Y17.7
X17.0Y21.0
X17.1Y80.2
X17.1Y63.3
X17.1Y7.8
X17.65Y25.7
X17.677Y23.702
X17.725Y18.436
X17.85Y80.15
X18.0Y78.2
X18.175Y29.2
X18.221Y33.068
X18.3Y67.3
X18.4Y74.05
X18.445Y27.705
X18.6Y19.1
X18.83Y23.025
X18.914Y17.767
X19.25Y52.6
X19.555Y25.3
X19.555Y24.29
X19.762Y34.011
X19.77Y40.505
X19.8Y19.1
X20.1Y76.3
X20.3Y32.5
X20.436Y7.086
X20.476Y33.496
X20.527Y50.527
X21.052Y25.738
X21.057Y42.7
X21.2Y43.7
X21.3Y56.8
X21.3Y8.8
X21.5Y17.712
X21.6Y11.9
X22.1Y68.35
X22.227Y46.5
X22.619Y35.895
X22.637Y17.062
X22.7Y4.342
X22.9Y54.2
X22.912Y30.238
X23.1Y33.3
X23.7Y42.75
X23.731Y28.514
X23.789Y22.911
X23.9Y9.474
X24.1Y70.705
X24.2Y56.158
X24.6Y47.3
X24.6Y38.6
X24.637Y15.763
X24.7Y44.6
X24.735Y26.064
X24.898Y17.987
X25.1Y8.05
X25.437Y43.398
X25.45Y69.75
X25.675Y25.261
X25.8Y22.7
X25.965Y31.75
X26.407Y18.197
X26.473Y7.505
X26.506Y26.871
X26.575Y27.7
X27.01Y25.616
X27.247Y18.064
X27.4Y72.5
X27.541Y10.901
X27.615Y25.134
X28.325Y69.1
X28.527Y18.118
X28.6Y10.9
X28.665Y71.368
X28.697Y72.167
X28.85Y48.05
X28.85Y15.195
X28.85Y14.3
X29.5Y16.95
X29.6Y12.3
X30.11Y47.19
X30.25Y0.66
X30.35Y28.9
X30.35Y16.988
X31.027Y28.166
X31.1Y8.838
X31.6Y53.9
X31.6Y46.1
X32.0Y13.6
X32.0Y7.527
X32.004Y27.007
X32.371Y26.106
X32.39Y18.578
X32.4Y70.6
X32.4Y24.8
X32.5Y64.6
X32.688Y36.582
X32.752Y1.132
X32.889Y50.627
X32.95Y12.25
X33.0Y44.3
X33.264Y24.631
X33.371Y18.578
X33.7Y49.1
X34.0Y59.6
X34.05Y30.3
X34.9Y53.25
X35.05Y1.7
X35.114Y34.5
X35.22Y68.56
X35.85Y8.15
X35.95Y51.8
X35.986Y55.098
X35.995Y64.747
X36.0Y63.002
X36.234Y24.6
X36.234Y17.456
X36.5Y41.6
X36.8Y73.9
X36.9Y11.5
X36.9Y9.6
X37.2Y17.3
X37.775Y33.9
X37.9Y8.1
X38.6Y23.5
X38.7Y15.0
X38.7Y11.1
X38.8Y72.97
X39.172Y64.887
X39.176Y54.413
X39.3Y32.7
X39.572Y72.174
X40.25Y0.85
X41.8Y32.7
X42.72Y10.418
X44.0Y13.9
X44.046Y68.625
X44.1Y74.3
X44.67Y41.735
X44.9Y11.4
X45.9Y17.0
X46.3Y25.5
X46.8Y73.4
X47.2Y15.1
X48.6Y23.2
X48.741Y58.685
X49.247Y61.197
X49.285Y20.7
X50.1Y14.1
X50.1Y12.1
X50.2Y26.1
X50.267Y42.867
X50.444Y66.3
X51.042Y58.24
X51.042Y22.5
X51.6Y69.4
X51.755Y56.2
X51.8Y61.7
X51.835Y20.133
X51.867Y65.88
X52.427Y30.5
X52.529Y8.867
X53.1Y62.7
X53.1Y50.6
X53.14Y22.1
X53.9Y19.7
X54.4Y70.985
X54.4Y58.705
X54.4Y55.9
X54.8Y48.545
X54.967Y45.7
X54.967Y18.184
X55.7Y20.8
X55.999Y63.785
X56.9Y67.2
X57.35Y17.95
X58.0Y53.16
X58.037Y28.0
X58.2Y7.49
X58.7Y10.0
X58.8Y38.9
X59.747Y15.7
X59.8Y23.0
X60.9Y65.8
X60.9Y1.3
X61.9Y7.0
X61.9Y70.312
X62.1Y13.2
X62.275Y11.026
X63.19Y21.245
X63.2Y16.7
X64.25Y67.95
X64.55Y5.6
X65.4Y15.8
X66.22Y64.9
X66.7Y38.5
X67.55Y74.2
X68.2Y46.5
X69.0Y12.4
X69.0Y9.8
X69.0Y8.4
X70.0Y59.6
X70.807Y13.207
X71.2Y71.0
X72.1Y47.25
X72.1Y39.832
X73.55Y12.5
X74.7Y49.222
X74.75Y37.75
X75.7Y43.915
X75.9Y11.867
X76.4Y45.4
X77.2Y36.6
X78.397Y40.097
X78.397Y11.167
X79.2Y60.4
X79.825Y43.7
X82.3Y10.2
X82.4Y68.435
X84.8Y74.0
X84.8Y45.7
X84.85Y9.45
X84.9Y13.207
X86.2Y57.9
X86.2Y51.9
X87.1Y30.0
X87.15Y16.2
X87.2Y25.2
X87.4Y63.2
X87.4Y50.0
X87.55Y8.5
X87.82Y68.14
X88.05Y20.6
X88.15Y26.2
X88.4Y76.7
X88.65Y19.8
X88.669Y70.061
X88.775Y24.298
X89.92Y7.65
X89.95Y53.35
X90.0Y49.1
X90.05Y25.9
X90.05Y19.9
X90.1Y73.5
X90.531Y69.425
X91.45Y26.0
X91.45Y19.9
X92.0Y76.7
X92.5Y52.7
X92.65Y45.98
X92.703Y56.625
X93.8Y70.2
X94.35Y25.2
X94.35Y17.7
X94.4Y73.2
X94.4Y65.0
X94.4Y60.7
X94.5Y48.1
X95.7Y69.6
X98.6Y69.9
X99.1Y41.4
X99.7Y11.8
X100.05Y10.2
X100.553Y13.147
X100.7Y11.4
X100.8Y8.55
X101.2Y9.85
X101.4Y7.7
T2
X0.7Y63.6
X0.7Y58.6
X0.7Y12.9
X0.9Y72.3
X3.4Y49.5
X3.7Y9.0
X7.15Y32.15
X7.2Y34.8
X8.1Y73.6
X8.1Y62.6
X8.45Y67.55
X8.5Y13.1
X8.6Y58.2
X8.6Y54.8
X8.7Y41.9
X8.9Y19.1
X10.3Y39.0
X10.3Y29.3
X10.7Y65.6
X11.2Y54.7
X11.25Y80.2
X12.3Y20.4
X12.4Y71.8
X12.5Y49.7
X12.5Y45.7
X12.5Y41.9
X12.5Y13.1
X12.5Y5.2
X12.5Y0.7
X15.85Y71.8
X17.6Y13.9
X17.8Y24.8
X18.2Y63.0
X19.6Y59.9
X19.6Y16.7
X19.6Y9.4
X19.7Y5.2
X20.0Y48.8
X20.0Y44.6
X20.2Y57.3
X22.8Y43.3
X23.6Y8.1
X24.0Y73.3
X24.2Y33.3
X24.4Y59.9
X24.4Y18.7
X24.5Y22.4
X26.0Y63.0
X26.0Y20.5
X26.6Y38.9
X27.9Y18.7
X28.0Y22.2
X29.2Y63.1
X29.2Y57.0
X29.5Y45.0
X29.5Y29.95
X30.7Y50.65
X31.1Y10.3
X31.25Y24.95
X31.4Y44.5
X31.7Y38.9
X31.9Y67.2
X32.4Y29.95
X32.8Y73.3
X34.4Y10.3
X34.5Y14.8
X35.2Y72.2
X35.5Y26.4
X35.5Y19.0
X35.7Y32.9
X35.7Y5.6
X35.85Y1.2
X37.1Y19.0
X37.2Y10.5
X37.6Y57.0
X37.6Y52.1
X37.6Y38.9
X37.8Y41.5
X38.8Y17.5
X38.9Y5.6
X39.4Y1.2
X42.6Y6.4
X42.9Y0.8
X43.6Y41.3
X43.9Y36.4
X43.9Y31.5
X43.9Y27.1
X47.98Y0.8
X48.1Y75.6
X48.6Y40.6
X48.8Y66.0
X50.1Y17.2
X50.2Y44.9
X50.3Y20.7
X52.0Y62.8
X53.0Y69.5
X53.06Y0.8
X53.1Y75.6
X54.6Y8.9
X54.7Y17.2
X54.9Y50.1
X55.7Y75.6
X56.5Y30.3
X56.6Y55.5
X56.7Y19.1
X58.14Y0.8
X59.1Y9.2
X59.4Y75.6
X59.6Y7.45
X59.8Y39.0
X59.95Y27.1
X62.2Y65.3
X62.2Y55.6
X62.2Y50.3
X62.2Y45.3
X62.2Y41.1
X62.2Y34.0
X62.2Y27.1
X62.2Y19.1
X63.2Y6.3
X63.22Y0.8
X63.3Y75.6
X66.6Y31.6
X66.6Y29.0
X66.6Y26.5
X66.6Y23.5
X67.4Y75.6
X68.3Y0.8
X70.9Y75.6
X71.2Y65.2
X71.2Y59.4
X71.2Y50.9
X71.3Y46.3
X71.3Y38.8
X71.3Y32.6
X71.3Y27.4
X71.3Y22.1
X71.6Y12.0
X72.8Y70.25
X73.38Y0.8
X73.55Y14.2
X73.6Y75.6
X74.05Y65.1
X74.4Y73.5
X75.2Y9.55
X77.65Y9.5
X78.46Y0.8
X78.9Y73.5
X80.7Y14.2
X81.1Y75.6
X83.5Y6.8
X83.54Y0.8
X83.6Y75.6
X85.3Y65.1
X86.0Y43.1
X86.0Y37.5
X86.0Y31.4
X86.2Y75.6
X86.85Y14.2
X87.1Y23.0
X88.62Y0.8
X88.7Y49.4
X88.8Y6.8
X89.55Y55.05
X90.05Y23.0
X90.1Y59.2
X91.8Y75.6
X92.9Y23.0
X92.95Y14.2
X93.4Y55.1
X95.3Y73.6
X95.8Y25.6
X95.8Y18.0
X95.9Y59.4
X96.2Y43.1
X96.2Y37.5
X96.8Y6.8
X97.7Y71.7
X101.4Y26.6
X101.4Y24.1
X101.4Y21.5
X103.7Y69.1
X103.7Y64.1
X103.7Y59.1
X103.7Y54.1
X103.7Y49.1
X103.7Y44.1
X103.7Y39.1
X103.7Y34.1
X103.7Y29.1
X103.8Y8.75
T3
X11.2Y69.8
X12.7Y68.2
X13.1Y67.3
X22.9Y41.15
X24.851Y72.114
X25.901Y72.101
X26.2Y67.3
X30.7Y72.1
X30.7Y67.3
X31.9Y72.1
X36.435Y49.27
X38.027Y66.715
X39.215Y61.6
X41.5Y76.0
X41.5Y70.62
X41.5Y65.3
X43.4Y53.9
X43.6Y49.1
X43.85Y72.0
X44.0Y24.8
X46.5Y62.8
X48.3Y24.6
X48.7Y72.0
X67.6Y73.0
X67.6Y70.5
X67.6Y54.9
X69.0Y27.5
X69.0Y24.5
X69.25Y77.48
X69.25Y53.915
X69.25Y51.389
X69.47Y70.538
X69.5Y72.7
X70.0Y55.105
X70.0Y31.5
X70.0Y29.0
X75.1Y41.7
X75.4Y56.8
X79.0Y48.3
X79.4Y33.9
X80.1Y28.8
X80.2Y31.4
X80.2Y26.3
X80.2Y23.8
X80.6Y72.0
X80.7Y50.9
X82.5Y60.4
X82.6Y43.1
X83.5Y68.6
X84.7Y49.1
X87.15Y21.8
X88.5Y54.5
X88.669Y56.69
X96.5Y4.4
X96.9Y79.4
X96.9Y78.5
X96.9Y70.7
X97.1Y5.3
T4
X96.9Y31.78
X96.9Y29.28
X96.9Y26.78
X96.9Y24.28
X96.9Y21.78
X96.9Y19.28
X96.9Y16.78
X96.9Y14.28
X99.9Y31.78
X99.9Y29.28
X99.9Y26.78
X99.9Y24.28
X99.9Y21.78
X99.9Y19.28
X99.9Y16.78
X99.9Y14.28
T5
X19.5Y70.6
X20.77Y70.6
T6
X1.69Y29.26
X1.96Y70.0
X1.96Y67.46
X1.96Y64.92
X1.96Y62.38
X1.96Y59.84
X1.96Y57.3
X1.96Y47.14
X1.96Y44.6
X1.96Y42.06
X1.96Y39.52
X1.96Y36.98
X1.96Y34.44
X1.96Y24.28
X1.96Y21.74
X1.96Y19.2
X1.96Y16.66
X1.96Y14.12
X1.96Y11.58
X4.23Y29.26
X4.5Y70.0
X4.5Y67.46
X4.5Y64.92
X4.5Y62.38
X4.5Y59.84
X4.5Y57.3
X4.5Y47.14
X4.5Y44.6
X4.5Y42.06
X4.5Y39.52
X4.5Y36.98
X4.5Y34.44
X4.5Y24.28
X4.5Y21.74
X4.5Y19.2
X4.5Y16.66
X4.5Y14.12
X4.5Y11.58
X11.19Y3.0
X13.73Y3.0
X16.27Y3.0
X18.81Y3.0
X21.345Y5.545
X21.345Y3.005
X23.885Y5.545
X23.885Y3.005
X26.425Y5.545
X26.425Y3.005
X28.965Y5.545
X28.965Y3.005
X31.505Y5.545
X31.505Y3.005
X34.045Y5.545
X34.045Y3.005
X36.58Y79.0
X36.62Y3.0
X39.12Y79.0
X39.16Y3.0
X41.66Y79.0
X41.7Y3.0
X44.2Y79.0
X44.205Y5.545
X44.205Y3.005
X46.74Y79.0
X46.745Y5.545
X46.745Y3.005
X49.28Y79.0
X49.285Y5.545
X49.285Y3.005
X51.82Y79.0
X51.825Y5.545
X51.825Y3.005
X54.36Y79.0
X54.365Y5.545
X54.365Y3.005
X56.9Y79.0
X56.905Y5.545
X56.905Y3.005
X59.44Y79.0
X59.465Y3.0
X61.98Y79.0
X62.005Y3.0
X64.52Y79.0
X64.545Y3.0
X67.06Y79.0
X67.065Y5.545
X67.065Y3.005
X69.6Y79.0
X69.605Y5.545
X69.605Y3.005
X72.14Y79.0
X72.145Y5.545
X72.145Y3.005
X74.68Y79.0
X74.685Y5.545
X74.685Y3.005
X77.22Y79.0
X77.225Y5.545
X77.225Y3.005
X79.76Y79.0
X79.765Y5.545
X79.765Y3.005
X82.3Y79.0
X82.3Y3.0
X84.84Y79.0
X84.84Y3.0
X87.38Y79.0
X87.38Y3.0
X89.92Y79.0
X89.92Y3.0
X92.46Y79.0
X92.46Y3.0
X95.0Y79.0
X95.0Y3.0
T7
X3.75Y77.25
X3.75Y3.75
X100.75Y77.25
X100.75Y3.75
T4
G00X22.63Y78.4
M15
G01X22.63Y79.6
M16
G05
G00X22.63Y74.6
M15
G01X22.63Y75.4
M16
G05
G00X33.87Y78.4
M15
G01X33.87Y79.6
M16
G05
G00X33.87Y74.6
M15
G01X33.87Y75.4
M16
G05
M30
